<svg xmlns="http://www.w3.org/2000/svg" viewBox="0 0 512 512"><path d="M512 106c0-24.813-20.187-45-45-45s-45 20.187-45 45c0 13.93 6.363 26.4 16.334 34.661l-77.289 65.622-76.471-65.546C294.599 132.477 301 119.972 301 106c0-24.813-20.187-45-45-45s-45 20.187-45 45c0 13.972 6.402 26.477 16.425 34.737l-76.471 65.546-77.288-65.622C83.637 132.4 90 119.93 90 106c0-24.813-20.187-45-45-45S0 81.187 0 106c0 20.111 13.262 37.18 31.499 42.928l26.907 215.256C41.784 370.804 30 387.046 30 406c0 24.813 20.187 45 45 45h362c24.813 0 45-20.187 45-45 0-18.954-11.785-35.196-28.407-41.816L480.5 148.928C498.738 143.18 512 126.111 512 106zM256 91c8.271 0 15 6.729 15 15 0 8.27-6.728 14.999-14.997 15h-.005c-8.27-.001-14.997-6.73-14.997-15C241 97.729 247.729 91 256 91zM141.292 237.435a15 15 0 0 0 19.47-.046L256 155.756l95.238 81.632a15 15 0 0 0 19.47.046l76.629-65.062L423.758 361H88.242L64.664 172.373l76.628 65.062zM45 121c-8.271 0-15-6.729-15-15s6.729-15 15-15 15 6.729 15 15-6.729 15-15 15zm392 300H75c-8.271 0-15-6.729-15-15s6.729-15 15-15h362c8.271 0 15 6.729 15 15s-6.729 15-15 15zm30-300c-8.271 0-15-6.729-15-15s6.729-15 15-15 15 6.729 15 15-6.729 15-15 15z" fill="#277eea"/><circle cx="136" cy="301" r="15" fill="#277eea"/><circle cx="376" cy="301" r="15" fill="#277eea"/><path d="M256 241c-24.813 0-45 20.187-45 45s20.187 45 45 45 45-20.187 45-45-20.187-45-45-45zm0 60c-8.271 0-15-6.729-15-15s6.729-15 15-15 15 6.729 15 15-6.729 15-15 15z" fill="#277eea"/></svg>