<svg viewBox="-21 -21 682 682.667" xmlns="http://www.w3.org/2000/svg"><path d="M176.266 149.8c41.3 0 74.902-33.597 74.902-74.898C251.168 33.598 217.566 0 176.266 0c-41.297 0-74.903 33.598-74.903 74.902 0 41.301 33.606 74.899 74.903 74.899zm0-99.87c13.77 0 24.964 11.203 24.964 24.972 0 13.766-11.195 24.965-24.964 24.965-13.766 0-24.965-11.199-24.965-24.965 0-13.77 11.199-24.972 24.965-24.972zM392.398 0l65.95 101.398-67.243 98.336H589.47V445.66h-99.867v48.684H385.988v47.437h-53.675v-132.37l-84.891-37.45v-88.734l42.789 38.843h99.523v-49.93h-80.242l-81.508-74.007c-13.714-15.11-33.5-24.613-55.464-24.613h-57.422v.12c-23.461 1.325-44.934 13.532-58.07 33.235L.25 292.039v106.184h49.934v-91.059l39.949-59.922v253.61L19.09 613.336 61.305 640l78.761-124.703V223.453h32.454a24.85 24.85 0 0 1 15.914 5.742l-.239.258 3.961 3.594c3.328 4.242 5.336 9.574 5.336 15.371v156.09l84.887 37.449v147.262h-91.133v49.93h141.067v-47.434h103.613v-47.438h103.613V495.59h99.863V0zm93.336 149.8l32.625-47.714-33.918-52.156H589.47v99.87zm0 0" fill="#277eea"/></svg>