<svg xmlns="http://www.w3.org/2000/svg" viewBox="0 0 512 512"><path d="M506.016 185.012L391 98.517V15c0-8.284-6.716-15-15-15H136c-8.284 0-15 6.716-15 15v83.509L5.976 185.019A15.096 15.096 0 0 0 0 197v270c0 24.842 20.234 45 45 45h422c24.824 0 45-20.223 45-45V197c0-4.427-2.022-8.958-5.984-11.988zM391 136.053l82.18 61.802-82.18 71.58V136.053zM361 30v27.42c-12.764-4.527-22.893-14.656-27.42-27.42H361zm-210-.1h27.42c-4.527 12.764-14.656 22.993-27.42 27.52V29.9zm58.491.1h93.019c5.98 29.344 29.147 52.51 58.491 58.491v207.074l-95.133 82.861c-5.632 4.927-14.125 4.926-19.78-.023l-95.087-82.829V88.491H151c29.344-5.98 52.51-29.147 58.491-58.491zM121 136.046v133.396l-82.182-71.587L121 136.046zM30 464.025V229.959l134.462 117.128L30 464.025zM55.048 482l132.254-115.018 39.054 34.02c16.889 14.78 42.368 14.786 59.239.024l39.086-34.044L456.949 482H55.048zM482 464.029L347.523 347.087 482 229.957v234.072z" fill="#277eea"/><path d="M256 181c-8.271 0-15-6.729-15-15 0-6.286 3.965-11.953 9.865-14.103 7.705-2.804 16.674.999 24.607 10.445 5.33 6.343 14.789 7.167 21.134 1.838 6.344-5.328 7.167-14.79 1.839-21.133-8.109-9.654-17.548-16.291-27.445-19.623V105c0-8.284-6.716-15-15-15s-15 6.716-15 15v18.572c-.134.047-.268.088-.401.137C222.895 130.158 211 147.153 211 166c0 24.813 20.187 45 45 45 8.271 0 15 6.729 15 15a14.99 14.99 0 0 1-9.159 13.825c-6.717 2.846-14.755.417-22.059-6.659-5.95-5.766-15.447-5.612-21.211.335-5.764 5.95-5.614 15.446.336 21.21 6.772 6.561 14.301 11.197 22.093 13.813V286c0 8.284 6.716 15 15 15s15-6.716 15-15v-17.571a46.585 46.585 0 0 0 2.54-.98A44.932 44.932 0 0 0 301 226c0-24.813-20.187-45-45-45z" fill="#277eea"/></svg>