<svg xmlns="http://www.w3.org/2000/svg" viewBox="0 0 512 512"><path d="M348.962 6.656C345.986 2.464 341.154 0 336.002 0h-160a15.969 15.969 0 0 0-12.992 6.656c-3.008 4.16-3.808 9.536-2.176 14.4l32 96A16.002 16.002 0 0 0 208.002 128h96c6.88 0 12.992-4.416 15.168-10.912l32-96c1.632-4.896.832-10.272-2.208-14.432zM292.482 96h-72.96L198.21 32h115.616l-21.344 64z" fill="#277eea"/><path d="M383.586 380.32l-64-272c-2.016-8.576-10.528-13.888-19.232-11.904-8.64 2.048-13.952 10.656-11.904 19.264l61.92 263.328-94.368 94.368-94.4-94.368 61.984-263.328c2.016-8.608-3.328-17.216-11.904-19.232-8.608-2.016-17.248 3.296-19.264 11.904l-64 272c-1.28 5.376.32 11.072 4.256 14.976l112 112A16.07 16.07 0 0 0 256.002 512a15.97 15.97 0 0 0 11.328-4.704l112-112c3.904-3.904 5.536-9.6 4.256-14.976z" fill="#277eea"/></svg>