<svg xmlns="http://www.w3.org/2000/svg" viewBox="0 0 61.94 66.86"><defs><style>.cls-1{fill:#e9e9e9;}</style></defs><title>bulb</title><g id="Layer_2" data-name="Layer 2"><g id="Text"><path class="cls-1" d="M31,13.18A17.5,17.5,0,0,0,13.49,30.66a19.9,19.9,0,0,0,8.26,15.87V59.15a1.43,1.43,0,0,0,.09.42v.1c0,.06.05.1.07.15l4.37,6.49a1.21,1.21,0,0,0,1,.55h7.21a1.22,1.22,0,0,0,1-.55l4.36-6.49a.71.71,0,0,0,.08-.15v-.1a1.16,1.16,0,0,0,.08-.42V46.53a19.89,19.89,0,0,0,8.27-15.87A17.51,17.51,0,0,0,31,13.18Zm3,51.24H28l-2.7-4H36.61Zm-9.68-6.49V54.64H37.7v3.29Zm14-13.1v0a1.24,1.24,0,0,0-.56,1V52.2H24.24V45.84a1.21,1.21,0,0,0-.55-1A17.33,17.33,0,0,1,16,30.62a15,15,0,0,1,30,0A17.34,17.34,0,0,1,38.27,44.83Z"/><path class="cls-1" d="M31.47,18.79a1.24,1.24,0,0,0,0,2.48,9.33,9.33,0,0,1,9.32,9.33,1.24,1.24,0,1,0,2.48,0A11.82,11.82,0,0,0,31.47,18.79Z"/><path class="cls-1" d="M10.16,29.36H1.24a1.24,1.24,0,1,0,0,2.48h8.92A1.25,1.25,0,0,0,11.4,30.6h0A1.24,1.24,0,0,0,10.16,29.36Z"/><path class="cls-1" d="M60.7,29.36H51.78a1.24,1.24,0,0,0,0,2.48H60.7a1.24,1.24,0,0,0,0-2.48Z"/><path class="cls-1" d="M17.26,44.46a1.24,1.24,0,0,0-1.75-.13l-.14.13v0L9,50.79a1.24,1.24,0,0,0,1.61,1.88.86.86,0,0,0,.14-.13l6.33-6.33A1.25,1.25,0,0,0,17.26,44.46Z"/><path class="cls-1" d="M52.76,8.67a1.23,1.23,0,0,0-1.61,0L44.82,15a1.23,1.23,0,0,0,0,1.75,1.26,1.26,0,0,0,.89.37h0a1.27,1.27,0,0,0,.88-.36l6.33-6.33A1.25,1.25,0,0,0,52.76,8.67Z"/><path class="cls-1" d="M53.14,51a1.42,1.42,0,0,0-.24-.25l-6.33-6.35a1.24,1.24,0,1,0-1.88,1.61.8.8,0,0,0,.13.13l6.33,6.33a1.24,1.24,0,1,0,2-1.47Z"/><path class="cls-1" d="M17.12,15,10.79,8.67A1.24,1.24,0,0,0,9,10.42l6.33,6.33a1.25,1.25,0,0,0,1.75-.14A1.23,1.23,0,0,0,17.12,15Z"/><path class="cls-1" d="M31,0a1.24,1.24,0,0,0-1.24,1.24v9a1.24,1.24,0,0,0,1.2,1.27h0a1.24,1.24,0,0,0,1.24-1.24v-9A1.24,1.24,0,0,0,31,0Z"/></g></g></svg>