<svg xmlns="http://www.w3.org/2000/svg" viewBox="0 0 16.76 22.74"><defs><style>.cls-1{fill:#2b2b2b;}.cls-2{fill:#eaeaea;stroke:#2b2b2b;stroke-miterlimit:10;}</style></defs><title>Asset 10</title><g id="Layer_2" data-name="Layer 2"><g id="Shapes_icons" data-name="Shapes&amp;icons"><g id="Button1"><rect class="cls-1" width="16.76" height="22.74" rx="3.02" ry="3.02"/><rect class="cls-2" x="1.89" y="3.02" width="12.98" height="4.39" rx="1.5" ry="1.5"/><rect class="cls-2" x="1.89" y="9.07" width="2.89" height="2.89" rx="0.69" ry="0.69"/><rect class="cls-2" x="6.94" y="9.07" width="2.89" height="2.89" rx="0.69" ry="0.69"/><rect class="cls-2" x="11.98" y="9.07" width="2.89" height="2.89" rx="0.69" ry="0.69"/><rect class="cls-2" x="1.89" y="13.36" width="2.89" height="2.89" rx="0.69" ry="0.69"/><rect class="cls-2" x="6.94" y="13.36" width="2.89" height="2.89" rx="0.69" ry="0.69"/><rect class="cls-2" x="11.98" y="13.36" width="2.89" height="2.89" rx="0.69" ry="0.69"/><rect class="cls-2" x="1.89" y="17.66" width="2.89" height="2.89" rx="0.69" ry="0.69"/><rect class="cls-2" x="6.94" y="17.66" width="2.89" height="2.89" rx="0.69" ry="0.69"/><rect class="cls-2" x="11.98" y="17.66" width="2.89" height="2.89" rx="0.69" ry="0.69"/></g></g></g></svg>