<svg xmlns="http://www.w3.org/2000/svg" viewBox="0 0 124.73 52.49"><defs><style>.cls-1{fill:#eaeaea;}</style></defs><title>intro__arrow</title><g id="Layer_2" data-name="Layer 2"><g id="Shapes_icons" data-name="Shapes&amp;icons"><polygon class="cls-1" points="0 39.81 1.74 40.79 1.72 40.83 0 39.81"/><polygon class="cls-1" points="5.31 42.65 8.96 44.33 8.87 44.53 5.25 42.76 5.31 42.65"/><polygon class="cls-1" points="12.68 45.84 16.47 47.19 16.34 47.56 12.57 46.13 12.68 45.84"/><polygon class="cls-1" points="20.31 48.35 24.2 49.33 24.06 49.89 20.17 48.81 20.31 48.35"/><polygon class="cls-1" points="28.13 50.13 32.08 50.74 31.98 51.49 28 50.78 28.13 50.13"/><polygon class="cls-1" points="36.06 51.17 40.06 51.42 40.01 52.34 35.98 52.01 36.06 51.17"/><polygon class="cls-1" points="44.06 51.48 48.05 51.35 48.1 52.45 44.06 52.49 44.06 51.48"/><polygon class="cls-1" points="52.04 51.04 56 50.55 56.17 51.82 52.15 52.23 52.04 51.04"/><polygon class="cls-1" points="59.93 49.88 63.83 49.02 64.16 50.44 60.18 51.22 59.93 49.88"/><polygon class="cls-1" points="67.68 47.99 71.48 46.78 71.99 48.33 68.1 49.48 67.68 47.99"/><polygon class="cls-1" points="75.21 45.4 78.88 43.85 79.6 45.51 75.83 47.01 75.21 45.4"/><polygon class="cls-1" points="82.47 42.14 85.97 40.26 86.93 42 83.31 43.84 82.47 42.14"/><polygon class="cls-1" points="89.38 38.22 92.69 36.03 93.91 37.82 90.47 39.99 89.38 38.22"/><polygon class="cls-1" points="95.9 33.69 98.99 31.2 100.48 33 97.25 35.49 95.9 33.69"/><polygon class="cls-1" points="101.96 28.57 104.8 25.81 106.58 27.59 103.59 30.37 101.96 28.57"/><polygon class="cls-1" points="107.51 22.92 110.09 19.91 112.15 21.63 109.43 24.68 107.51 22.92"/><polygon class="cls-1" points="112.52 16.78 114.8 13.55 117.16 15.18 114.73 18.46 112.52 16.78"/><polygon class="cls-1" points="116.95 10.19 117.95 8.5 120.53 10.03 119.46 11.75 116.95 10.19"/><polygon class="cls-1" points="124.56 14.96 124.72 0 111.69 7.33 124.56 14.96"/></g></g></svg>