<svg xmlns="http://www.w3.org/2000/svg" viewBox="0 0 13.45 13.44"><defs><style>.cls-1{fill:#fff;}</style></defs><title>phone</title><g id="Layer_2" data-name="Layer 2"><g id="text"><path class="cls-1" d="M13.44,10.61a.67.67,0,0,1-.2.57l-1.89,1.87a1.11,1.11,0,0,1-.34.25,1.56,1.56,0,0,1-.4.13h-.27a6.91,6.91,0,0,1-.88-.09A6.87,6.87,0,0,1,8,12.89,11.94,11.94,0,0,1,6,11.8a15.06,15.06,0,0,1-2.37-2A16.55,16.55,0,0,1,2,7.93a12.33,12.33,0,0,1-1-1.66,8.5,8.5,0,0,1-.6-1.38A8,8,0,0,1,.06,3.82,3.32,3.32,0,0,1,0,3.12C0,3,0,2.85,0,2.83a1.52,1.52,0,0,1,.12-.4,1.11,1.11,0,0,1,.25-.34L2.28.2A.63.63,0,0,1,2.74,0a.52.52,0,0,1,.32.11,1,1,0,0,1,.25.26L4.83,3.26a.71.71,0,0,1,.07.5.9.9,0,0,1-.24.45l-.7.7a.19.19,0,0,0,0,.09.65.65,0,0,0,0,.11,2.34,2.34,0,0,0,.26.68,5.55,5.55,0,0,0,.52.84,11.09,11.09,0,0,0,1,1.13,10.32,10.32,0,0,0,1.14,1,6.33,6.33,0,0,0,.83.53,3.09,3.09,0,0,0,.52.21l.18,0,.09,0a.19.19,0,0,0,.09,0l.81-.82a.84.84,0,0,1,.6-.23.8.8,0,0,1,.38.08h0l2.75,1.63A.7.7,0,0,1,13.44,10.61Z"/></g></g></svg>