<svg xmlns="http://www.w3.org/2000/svg" viewBox="0 0 161.29 161.29"><defs><style>.cls-1{fill:#383838;}</style></defs><title>smile__single</title><g id="Layer_2" data-name="Layer 2"><g id="Shapes_icons" data-name="Shapes&amp;icons"><path class="cls-1" d="M118.84,86.09a3.5,3.5,0,0,0-4.54,2A39,39,0,0,1,60,108.27a3.5,3.5,0,1,0-3.26,6.2,46,46,0,0,0,64-23.83A3.51,3.51,0,0,0,118.84,86.09Z"/><path class="cls-1" d="M52.52,5.07A80.65,80.65,0,1,0,156.23,52.52,80.73,80.73,0,0,0,52.52,5.07Zm53.81,144.58A73.63,73.63,0,1,1,149.65,55,73.71,73.71,0,0,1,106.33,149.65Z"/><path class="cls-1" d="M98.37,47.86A17.55,17.55,0,0,0,88.06,70.41,3.51,3.51,0,0,0,94.63,68a10.52,10.52,0,0,1,19.72-7.34,3.5,3.5,0,0,0,6.57-2.44A17.56,17.56,0,0,0,98.37,47.86Z"/><path class="cls-1" d="M61.77,80.19a3.51,3.51,0,1,0,6.57-2.45A17.53,17.53,0,0,0,35.48,90a3.51,3.51,0,0,0,6.58-2.45,10.52,10.52,0,1,1,19.71-7.34Z"/></g></g></svg>