<svg xmlns="http://www.w3.org/2000/svg" viewBox="0 0 346.78 309.32"><defs><style>.cls-1{fill:#129fe1;}.cls-2{fill:none;stroke:#129fe1;stroke-miterlimit:10;stroke-width:6px;}.cls-3{opacity:0.15;}</style></defs><title>Asset 12</title><g id="Layer_2" data-name="Layer 2"><g id="Shapes_icons" data-name="Shapes&amp;icons"><g id="Smile-b2"><path class="cls-1" d="M291.11,258.08a3.51,3.51,0,0,0-4.72-1.53,39,39,0,0,1-54-20.87,3.51,3.51,0,0,0-6.56,2.48,46,46,0,0,0,63.75,24.63A3.5,3.5,0,0,0,291.11,258.08Z"/><path class="cls-1" d="M295.2,153.45a80.64,80.64,0,1,0,46.15,104.29A80.74,80.74,0,0,0,295.2,153.45Zm-55.61,143.9a73.63,73.63,0,1,1,95.22-42.14A73.72,73.72,0,0,1,239.59,297.35Z"/><path class="cls-1" d="M301.14,215.89a17.54,17.54,0,0,0-22.67,10,3.51,3.51,0,1,0,6.54,2.53A10.52,10.52,0,0,1,304.64,236a3.51,3.51,0,1,0,6.54,2.53A17.55,17.55,0,0,0,301.14,215.89Z"/><path class="cls-1" d="M252.31,215.81a3.51,3.51,0,1,0,6.54,2.53,17.53,17.53,0,0,0-32.71-12.64,3.51,3.51,0,0,0,6.54,2.53,10.52,10.52,0,0,1,19.63,7.58Z"/><line class="cls-2" x1="91.37" y1="148.02" x2="138.41" y2="148.02"/><line class="cls-2" x1="114.89" y1="124.51" x2="114.89" y2="171.54"/><line class="cls-2" x1="150.85" y1="112.66" x2="221.61" y2="112.66"/><line class="cls-2" x1="186.23" y1="77.29" x2="186.23" y2="148.04"/><g class="cls-3"><line class="cls-2" x1="288.84" y1="105.65" x2="335.88" y2="105.65"/><line class="cls-2" x1="312.36" y1="82.13" x2="312.36" y2="129.17"/></g><g class="cls-3"><line class="cls-2" x1="243.26" y1="24.47" x2="276.8" y2="24.47"/><line class="cls-2" x1="260.03" y1="7.7" x2="260.03" y2="41.24"/></g><g class="cls-3"><line class="cls-2" y1="164.81" x2="33.54" y2="164.81"/><line class="cls-2" x1="16.77" y1="148.04" x2="16.77" y2="181.58"/></g><g class="cls-3"><line class="cls-2" x1="85.03" y1="47.81" x2="180.65" y2="47.81"/><line class="cls-2" x1="132.84" x2="132.84" y2="95.62"/></g></g></g></g></svg>