<svg xmlns="http://www.w3.org/2000/svg" viewBox="0 0 21.58 44.1"><defs><style>.cls-1{fill:#2b2b2b;}</style></defs><title>Asset 15</title><g id="Layer_2" data-name="Layer 2"><g id="Text"><path class="cls-1" d="M3.68,9.19c3.14-.2,5,4.16,2.6,6.27C4.17,17.81-.19,16,0,12.86A3.57,3.57,0,0,1,3.68,9.19Zm3.68,22a3.7,3.7,0,0,1-3.68,3.67A3.69,3.69,0,0,1,0,31.24a3.64,3.64,0,0,1,3.67-3.68A3.71,3.71,0,0,1,7.36,31.24Z"/><path class="cls-1" d="M10.88,44.1a47.66,47.66,0,0,0,0-44.1h5.3a47.72,47.72,0,0,1,0,44.1Z"/></g></g></svg>