<svg xmlns="http://www.w3.org/2000/svg" viewBox="0 0 301.9 234.35"><defs><style>.cls-1{fill:#ffcf57;}.cls-2{fill:none;stroke:#ffcf57;stroke-miterlimit:10;stroke-width:6px;}</style></defs><title>smile__minus</title><g id="Layer_2" data-name="Layer 2"><g id="Shapes_icons" data-name="Shapes&amp;icons"><g id="Smile-y1"><path class="cls-1" d="M120.82,179.39a46,46,0,0,0-67.36,11.49,3.5,3.5,0,1,0,5.93,3.73,39,39,0,0,1,57.07-9.73,3.51,3.51,0,0,0,4.36-5.49Z"/><path class="cls-1" d="M63.92,74.81A80.64,80.64,0,1,0,159.54,137,80.74,80.74,0,0,0,63.92,74.81Zm32,150.92a73.63,73.63,0,1,1,56.75-87.3A73.73,73.73,0,0,1,95.93,225.73Z"/><path class="cls-1" d="M121.55,125.68a3.51,3.51,0,1,0-6.91,1.18,10.52,10.52,0,0,1-20.74,3.53A3.51,3.51,0,0,0,87,131.57a17.53,17.53,0,1,0,34.56-5.89Z"/><path class="cls-1" d="M50.73,148.42a10.52,10.52,0,0,1-12.13-8.6A3.51,3.51,0,0,0,31.68,141a17.53,17.53,0,0,0,34.57-5.89,3.51,3.51,0,1,0-6.92,1.18A10.52,10.52,0,0,1,50.73,148.42Z"/><line class="cls-2" x1="159.15" y1="40.2" x2="193.45" y2="74.5"/><line class="cls-2" x1="193.45" y1="40.2" x2="159.15" y2="74.5"/><line class="cls-2" x1="233.26" y1="2.12" x2="299.78" y2="68.64"/><line class="cls-2" x1="299.78" y1="2.12" x2="233.26" y2="68.64"/></g></g></g></svg>