<svg xmlns="http://www.w3.org/2000/svg" viewBox="0 0 79.05 81.36"><defs><style>.cls-1{fill:#fff;}</style></defs><title>Asset 20</title><g id="Layer_2" data-name="Layer 2"><g id="Shapes_icons" data-name="Shapes&amp;icons"><path id="Like-w" class="cls-1" d="M76.68,55.83l-.14-.38.25-.33A9.54,9.54,0,0,0,79,48.73a9.9,9.9,0,0,0-2.1-5.55l-.25-.33.15-.38a8.54,8.54,0,0,0-2-9.84c-2.62-2.38-7.12-3.44-13.39-3.14a52.91,52.91,0,0,0-8.39,1.08h-.11c-.77.14-1.63.32-2.63.54l-.83.19,0-.85c-.09-1.41.22-4.34,2.2-10.34C54,13,53.86,7.54,51.28,4a10.29,10.29,0,0,0-8.23-4,3.64,3.64,0,0,0-2.79,1.27C38.43,3.4,38.82,7.7,39,9l0,.18-.06.17c-.31.84-7.72,20.55-14.35,25.66l-.05,0-.15.14A18,18,0,0,0,21.13,40l-.32.71-.69-.37A6.35,6.35,0,0,0,17,39.59H6.48A6.48,6.48,0,0,0,0,46.07V74.21a6.48,6.48,0,0,0,6.48,6.47H17a6.41,6.41,0,0,0,3.74-1.18l.23-.16,4.34.52a174.55,174.55,0,0,0,23,1.26h.07c2.14.16,4,.24,5.74.24a38.35,38.35,0,0,0,7.9-.71c5.09-1.08,8.54-3.21,10.27-6.33a9.86,9.86,0,0,0,1.1-6.18l-.06-.38.29-.26a10.38,10.38,0,0,0,3.69-8.41A11.16,11.16,0,0,0,76.68,55.83ZM20.3,74.19A3.26,3.26,0,0,1,17,77.45H6.48a3.26,3.26,0,0,1-3.26-3.25V46.05a3.26,3.26,0,0,1,3.26-3.26H17a3.26,3.26,0,0,1,3.26,3.26ZM73.45,54.05A1.62,1.62,0,0,0,73.23,56l.11.17v0a8,8,0,0,1,.8,3c.13,2.53-1.06,4.75-3.55,6.62A1.64,1.64,0,0,0,70,67.68l0,.12v0a6.85,6.85,0,0,1-.56,4.93c-1.28,2.27-4,3.87-8.14,4.75a35.09,35.09,0,0,1-7.19.64c-1.72,0-3.6-.08-5.62-.24h-.21a173.42,173.42,0,0,1-22.56-1.23h-.06l-2.54-.3.17-.78a6.77,6.77,0,0,0,.14-1.37V46.05a6.47,6.47,0,0,0-.3-1.93l-.06-.21.05-.2a15.24,15.24,0,0,1,3.39-6.24l0,0,0,0c7.54-6,15.16-26.67,15.48-27.54a1.42,1.42,0,0,0,.07-.79c-.29-1.91-.25-4.55.32-5.51l.21-.37h.43a6.86,6.86,0,0,1,5.46,2.64c1.91,2.64,1.87,7.22-.11,13.24C45.77,27.45,45.45,32,47.48,33.8a3.07,3.07,0,0,0,3.05.53l.08,0c1.16-.27,2.15-.47,3-.61l.1,0,.1,0h0c5.63-1.23,15.27-1.89,18.79,1.31,3.23,2.95,1,6.82.72,7.25h0a1.6,1.6,0,0,0,.3,2.08l0,0a7.3,7.3,0,0,1,2.13,4.52A7.11,7.11,0,0,1,73.45,54.05Z"/></g></g></svg>