<svg height="512pt" viewBox="0 0 512 512" width="512pt" xmlns="http://www.w3.org/2000/svg"><path d="m512 416v76c0 11.046875-8.953125 20-20 20h-472c-11.046875 0-20-8.953125-20-20v-76c0-11.046875 8.953125-20 20-20s20 8.953125 20 20v56h432v-56c0-11.046875 8.953125-20 20-20s20 8.953125 20 20zm-270.144531 14.140625c7.691406 7.695313 20.417969 7.871094 28.289062 0l113.132813-113.136719c7.8125-7.808594 7.8125-20.472656 0-28.28125-7.808594-7.8125-20.472656-7.8125-28.28125 0l-78.996094 78.992188v-347.714844c0-11.046875-8.953125-20-20-20s-20 8.953125-20 20v347.714844l-78.996094-78.992188c-7.808594-7.8125-20.472656-7.8125-28.28125 0-7.8125 7.808594-7.8125 20.472656 0 28.28125zm0 0"/></svg>