<svg xmlns="http://www.w3.org/2000/svg" viewBox="0 0 137.53 149.13"><defs><style>.cls-1{fill:#129fe1;}</style></defs><title>redsquare</title><g id="Layer_2" data-name="Layer 2"><g id="Shapes_icons" data-name="Shapes&amp;icons"><g id="Icons-2"><path class="cls-1" d="M45.46,100.18A1.17,1.17,0,0,1,44.29,99V75.7a1.17,1.17,0,0,1,2.33,0V99A1.16,1.16,0,0,1,45.46,100.18Z"/><path class="cls-1" d="M59.44,86.19A1.16,1.16,0,0,1,58.28,85c0-3.18,3.26-6.79,6.15-10,1.3-1.44,3.08-3.4,3.17-4a1.15,1.15,0,0,1,1.17-1.15A1.17,1.17,0,0,1,69.93,71c0,1.36-1.29,2.85-3.78,5.58S60.61,82.75,60.61,85A1.16,1.16,0,0,1,59.44,86.19Z"/><path class="cls-1" d="M78.09,86.19A1.17,1.17,0,0,1,76.92,85c0-2.28-3.2-5.82-5.54-8.41S67.6,72.39,67.6,71a1.17,1.17,0,0,1,2.33,0c.09.62,1.87,2.58,3.17,4,2.89,3.18,6.15,6.79,6.15,10A1.16,1.16,0,0,1,78.09,86.19Z"/><path class="cls-1" d="M59.44,100.18A1.16,1.16,0,0,1,58.28,99V85a1.17,1.17,0,1,1,2.33,0V99A1.17,1.17,0,0,1,59.44,100.18Z"/><path class="cls-1" d="M78.09,100.18A1.17,1.17,0,0,1,76.92,99V85a1.17,1.17,0,1,1,2.33,0V99A1.16,1.16,0,0,1,78.09,100.18Z"/><path class="cls-1" d="M68.77,86.19A1.16,1.16,0,0,1,67.6,85V80.37a1.17,1.17,0,1,1,2.33,0V85A1.16,1.16,0,0,1,68.77,86.19Z"/><path class="cls-1" d="M54.78,88.52a1.16,1.16,0,0,1-1.17-1.16V82.7a1.17,1.17,0,1,0-2.33,0v4.66a1.17,1.17,0,0,1-2.33,0V82.7a3.5,3.5,0,1,1,7,0v4.66A1.16,1.16,0,0,1,54.78,88.52Z"/><path class="cls-1" d="M61.77,76.87H45.45a1.17,1.17,0,0,1,0-2.33H61.77a1.17,1.17,0,1,1,0,2.33Z"/><path class="cls-1" d="M47.79,72.21a1.24,1.24,0,0,1-.53-.12,1.18,1.18,0,0,1-.52-1.57l2.33-4.66a1.17,1.17,0,0,1,2.09,1l-2.33,4.66A1.18,1.18,0,0,1,47.79,72.21Z"/><path class="cls-1" d="M52.45,72.21a1.16,1.16,0,0,1-1-.65L49.07,66.9a1.17,1.17,0,0,1,.53-1.56,1.16,1.16,0,0,1,1.56.52l2.33,4.66A1.17,1.17,0,0,1,53,72.09,1.23,1.23,0,0,1,52.45,72.21Z"/><path class="cls-1" d="M54.78,88.52H50.12a1.17,1.17,0,1,1,0-2.33h4.66a1.17,1.17,0,0,1,0,2.33Z"/><path class="cls-1" d="M57.11,93.19H47.79a1.17,1.17,0,1,1,0-2.33h9.32a1.17,1.17,0,1,1,0,2.33Z"/><path class="cls-1" d="M47.79,76.87a1.17,1.17,0,0,1-1.17-1.17V71A1.17,1.17,0,0,1,49,71V75.7A1.16,1.16,0,0,1,47.79,76.87Z"/><path class="cls-1" d="M52.45,76.87a1.17,1.17,0,0,1-1.17-1.17V71a1.17,1.17,0,0,1,2.33,0V75.7A1.16,1.16,0,0,1,52.45,76.87Z"/><path class="cls-1" d="M52.45,72.21a1.2,1.2,0,0,1-.52-.12,1.17,1.17,0,0,1-.52-1.57l2.33-4.66a1.16,1.16,0,0,1,2.08,1l-2.33,4.66A1.17,1.17,0,0,1,52.45,72.21Z"/><path class="cls-1" d="M57.11,72.21a1.16,1.16,0,0,1-1-.65L53.74,66.9a1.16,1.16,0,1,1,2.08-1l2.33,4.66a1.17,1.17,0,0,1-.52,1.57A1.2,1.2,0,0,1,57.11,72.21Z"/><path class="cls-1" d="M57.11,76.87a1.17,1.17,0,0,1-1.17-1.17V71a1.17,1.17,0,0,1,2.34,0V75.7A1.17,1.17,0,0,1,57.11,76.87Z"/><path class="cls-1" d="M92.08,100.18A1.17,1.17,0,0,1,90.91,99V75.7a1.17,1.17,0,0,1,2.33,0V99A1.16,1.16,0,0,1,92.08,100.18Z"/><path class="cls-1" d="M87.41,88.52a1.16,1.16,0,0,1-1.16-1.16V82.7a1.17,1.17,0,1,0-2.33,0v4.66a1.17,1.17,0,0,1-2.33,0V82.7a3.5,3.5,0,1,1,7,0v4.66A1.16,1.16,0,0,1,87.41,88.52Z"/><path class="cls-1" d="M92.08,76.87H75.76a1.17,1.17,0,1,1,0-2.33H92.08a1.17,1.17,0,0,1,0,2.33Z"/><path class="cls-1" d="M89.74,72.21a1.18,1.18,0,0,1-1-.65L86.37,66.9a1.17,1.17,0,0,1,2.09-1l2.33,4.66a1.18,1.18,0,0,1-.52,1.57A1.24,1.24,0,0,1,89.74,72.21Z"/><path class="cls-1" d="M85.08,72.21a1.23,1.23,0,0,1-.52-.12A1.17,1.17,0,0,1,84,70.52l2.33-4.66a1.16,1.16,0,0,1,1.56-.52,1.17,1.17,0,0,1,.53,1.56l-2.34,4.66A1.16,1.16,0,0,1,85.08,72.21Z"/><path class="cls-1" d="M87.41,88.52H82.75a1.17,1.17,0,0,1,0-2.33h4.66a1.17,1.17,0,1,1,0,2.33Z"/><path class="cls-1" d="M89.74,93.19H80.42a1.17,1.17,0,1,1,0-2.33h9.32a1.17,1.17,0,1,1,0,2.33Z"/><path class="cls-1" d="M89.74,76.87a1.16,1.16,0,0,1-1.16-1.17V71a1.17,1.17,0,0,1,2.33,0V75.7A1.17,1.17,0,0,1,89.74,76.87Z"/><path class="cls-1" d="M85.08,76.87a1.16,1.16,0,0,1-1.16-1.17V71a1.17,1.17,0,0,1,2.33,0V75.7A1.17,1.17,0,0,1,85.08,76.87Z"/><path class="cls-1" d="M85.08,72.21a1.17,1.17,0,0,1-1-.65L81.71,66.9a1.16,1.16,0,0,1,2.08-1l2.33,4.66a1.16,1.16,0,0,1-1,1.69Z"/><path class="cls-1" d="M80.42,72.21a1.2,1.2,0,0,1-.52-.12,1.17,1.17,0,0,1-.52-1.57l2.33-4.66a1.16,1.16,0,1,1,2.08,1l-2.33,4.66A1.16,1.16,0,0,1,80.42,72.21Z"/><path class="cls-1" d="M80.42,76.87a1.17,1.17,0,0,1-1.17-1.17V71a1.17,1.17,0,0,1,2.34,0V75.7A1.17,1.17,0,0,1,80.42,76.87Z"/><path class="cls-1" d="M57.11,65.22a1.18,1.18,0,0,1-1.17-1.17v-14a1.17,1.17,0,0,1,2.34,0v14A1.18,1.18,0,0,1,57.11,65.22Z"/><path class="cls-1" d="M80.42,65.22a1.18,1.18,0,0,1-1.17-1.17v-14a1.17,1.17,0,0,1,2.34,0v14A1.18,1.18,0,0,1,80.42,65.22Z"/><path class="cls-1" d="M68.77,65.22a8.16,8.16,0,1,1,8.15-8.16A8.17,8.17,0,0,1,68.77,65.22Zm0-14a5.83,5.83,0,1,0,5.82,5.83A5.83,5.83,0,0,0,68.77,51.23Z"/><path class="cls-1" d="M80.42,51.23H75.76a1.17,1.17,0,1,1,0-2.33h4.66a1.17,1.17,0,1,1,0,2.33Z"/><path class="cls-1" d="M61.77,51.23H57.11a1.17,1.17,0,1,1,0-2.33h4.66a1.17,1.17,0,1,1,0,2.33Z"/><path class="cls-1" d="M68.77,58.22a1.16,1.16,0,0,1-1.17-1.16V52.39a1.17,1.17,0,0,1,2.33,0v4.67A1.16,1.16,0,0,1,68.77,58.22Z"/><path class="cls-1" d="M72.06,61.52a1.17,1.17,0,0,1-.82-.34l-3.3-3.3a1.17,1.17,0,0,1,1.65-1.65l3.3,3.3a1.18,1.18,0,0,1,0,1.65A1.21,1.21,0,0,1,72.06,61.52Z"/><path class="cls-1" d="M68.77,72.21A1.17,1.17,0,0,1,67.6,71V68.71a1.17,1.17,0,0,1,2.33,0V71A1.16,1.16,0,0,1,68.77,72.21Z"/><path class="cls-1" d="M75.76,76.87a1.17,1.17,0,0,1-1.17-1.17v-7a1.17,1.17,0,0,1,2.33,0v7A1.16,1.16,0,0,1,75.76,76.87Z"/><path class="cls-1" d="M61.77,76.87a1.16,1.16,0,0,1-1.16-1.17v-7a1.17,1.17,0,0,1,2.33,0v7A1.17,1.17,0,0,1,61.77,76.87Z"/><path class="cls-1" d="M78.09,48.9a1.17,1.17,0,0,1-1.17-1.17v-7a1.17,1.17,0,1,1,2.33,0v7A1.16,1.16,0,0,1,78.09,48.9Z"/><path class="cls-1" d="M59.44,48.9a1.16,1.16,0,0,1-1.16-1.17v-7a1.17,1.17,0,1,1,2.33,0v7A1.17,1.17,0,0,1,59.44,48.9Z"/><path class="cls-1" d="M79.25,41.91h-21a1.17,1.17,0,0,1,0-2.34h21a1.17,1.17,0,0,1,0,2.34Z"/><path class="cls-1" d="M68.77,44.24a1.17,1.17,0,0,1-1.17-1.17V40.74a1.17,1.17,0,1,1,2.33,0v2.33A1.17,1.17,0,0,1,68.77,44.24Z"/><path class="cls-1" d="M71.1,34.91a1.17,1.17,0,0,1-1-.64l-2.33-4.66a1.17,1.17,0,0,1,2.09-1.05l2.33,4.67a1.17,1.17,0,0,1-.52,1.56A1.23,1.23,0,0,1,71.1,34.91Z"/><path class="cls-1" d="M66.43,34.91a1.23,1.23,0,0,1-.52-.12,1.17,1.17,0,0,1-.52-1.56l2.33-4.67a1.17,1.17,0,1,1,2.09,1.05l-2.33,4.66A1.17,1.17,0,0,1,66.43,34.91Z"/><path class="cls-1" d="M66.43,39.57a1.16,1.16,0,0,1-1.16-1.16V33.75a1.17,1.17,0,1,1,2.33,0v4.66A1.16,1.16,0,0,1,66.43,39.57Z"/><path class="cls-1" d="M71.1,39.57a1.16,1.16,0,0,1-1.17-1.16V33.75a1.17,1.17,0,1,1,2.33,0v4.66A1.16,1.16,0,0,1,71.1,39.57Z"/><path class="cls-1" d="M61.77,39.57a1.16,1.16,0,0,1-1.16-1.16V29.08a1.17,1.17,0,0,1,2.33,0v9.33A1.16,1.16,0,0,1,61.77,39.57Z"/><path class="cls-1" d="M75.76,39.57a1.16,1.16,0,0,1-1.17-1.16V29.08a1.17,1.17,0,0,1,2.33,0v9.33A1.16,1.16,0,0,1,75.76,39.57Z"/><path class="cls-1" d="M71.65,11.14a1.13,1.13,0,0,1-.54-.13L68.77,9.78,66.43,11a1.17,1.17,0,0,1-1.7-1.23l.45-2.6L63.29,5.33a1.16,1.16,0,0,1,.64-2L66.55,3,67.72.6a1.21,1.21,0,0,1,2.09,0L71,3l2.62.38a1.16,1.16,0,0,1,.64,2L72.35,7.18l.45,2.6a1.17,1.17,0,0,1-.47,1.14A1.13,1.13,0,0,1,71.65,11.14ZM68.77,7.3a1.16,1.16,0,0,1,.54.13l.79.42L70,7a1.15,1.15,0,0,1,.33-1l.64-.63L70,5.18a1.16,1.16,0,0,1-.88-.63l-.39-.8-.4.8a1.16,1.16,0,0,1-.88.63l-.88.13.64.63a1.15,1.15,0,0,1,.33,1l-.15.88.79-.42A1.17,1.17,0,0,1,68.77,7.3Z"/><path class="cls-1" d="M61.77,30.25a1.25,1.25,0,0,1-.46-.09,1.17,1.17,0,0,1-.61-1.53l7-16.32a1.17,1.17,0,0,1,2.15.92l-7,16.31A1.16,1.16,0,0,1,61.77,30.25Z"/><path class="cls-1" d="M75.76,30.25a1.16,1.16,0,0,1-1.07-.71l-7-16.31a1.17,1.17,0,0,1,2.15-.92l7,16.32a1.17,1.17,0,0,1-.61,1.53A1.25,1.25,0,0,1,75.76,30.25Z"/><path class="cls-1" d="M10.49,107.17a1.15,1.15,0,0,1-1-.64L4.78,97.2a1.17,1.17,0,0,1,2.09-1l4.66,9.33a1.16,1.16,0,0,1-.52,1.56A1.23,1.23,0,0,1,10.49,107.17Z"/><path class="cls-1" d="M10.49,107.17H1.17a1.17,1.17,0,1,1,0-2.33h9.32a1.17,1.17,0,1,1,0,2.33Z"/><path class="cls-1" d="M1.17,107.17a1.24,1.24,0,0,1-.53-.12,1.17,1.17,0,0,1-.52-1.56l4.66-9.33a1.19,1.19,0,0,1,1.57-.52,1.17,1.17,0,0,1,.52,1.56l-4.66,9.33A1.17,1.17,0,0,1,1.17,107.17Z"/><path class="cls-1" d="M43.12,149.13A1.16,1.16,0,0,1,42,148V101.35a1.17,1.17,0,1,1,2.33,0V148A1.16,1.16,0,0,1,43.12,149.13Z"/><path class="cls-1" d="M47.79,109.5a1.16,1.16,0,0,1-1.17-1.16v-7a1.17,1.17,0,1,1,2.33,0v7A1.16,1.16,0,0,1,47.79,109.5Z"/><path class="cls-1" d="M45.46,104.84a1.16,1.16,0,0,1-.83-.34l-2.33-2.33a1.16,1.16,0,0,1,0-1.65,1.18,1.18,0,0,1,1.65,0l2.33,2.33a1.18,1.18,0,0,1,0,1.65A1.16,1.16,0,0,1,45.46,104.84Z"/><path class="cls-1" d="M45.46,104.84a1.16,1.16,0,0,1-.83-.34,1.18,1.18,0,0,1,0-1.65L47,100.52a1.18,1.18,0,0,1,1.65,0,1.16,1.16,0,0,1,0,1.65l-2.33,2.33A1.16,1.16,0,0,1,45.46,104.84Z"/><path class="cls-1" d="M52.45,109.5a1.16,1.16,0,0,1-1.17-1.16v-7a1.17,1.17,0,1,1,2.33,0v7A1.16,1.16,0,0,1,52.45,109.5Z"/><path class="cls-1" d="M57.11,109.5a1.17,1.17,0,0,1-1.17-1.16v-7a1.17,1.17,0,0,1,2.34,0v7A1.17,1.17,0,0,1,57.11,109.5Z"/><path class="cls-1" d="M54.78,104.84a1.16,1.16,0,0,1-.83-.34l-2.33-2.33a1.17,1.17,0,0,1,1.65-1.65l2.33,2.33a1.16,1.16,0,0,1,0,1.65A1.13,1.13,0,0,1,54.78,104.84Z"/><path class="cls-1" d="M54.78,104.84a1.16,1.16,0,0,1-.83-.34,1.18,1.18,0,0,1,0-1.65l2.34-2.33a1.16,1.16,0,0,1,1.64,1.65L55.6,104.5A1.13,1.13,0,0,1,54.78,104.84Z"/><path class="cls-1" d="M61.77,109.5a1.16,1.16,0,0,1-1.16-1.16v-7a1.17,1.17,0,1,1,2.33,0v7A1.16,1.16,0,0,1,61.77,109.5Z"/><path class="cls-1" d="M66.43,109.5a1.16,1.16,0,0,1-1.16-1.16v-7a1.17,1.17,0,1,1,2.33,0v7A1.16,1.16,0,0,1,66.43,109.5Z"/><path class="cls-1" d="M64.1,104.84a1.14,1.14,0,0,1-.82-.34L61,102.17a1.16,1.16,0,0,1,0-1.65,1.18,1.18,0,0,1,1.65,0l2.33,2.33a1.18,1.18,0,0,1,0,1.65A1.16,1.16,0,0,1,64.1,104.84Z"/><path class="cls-1" d="M64.1,104.84a1.14,1.14,0,0,1-.82-.34,1.16,1.16,0,0,1,0-1.65l2.33-2.33a1.17,1.17,0,0,1,1.65,1.65l-2.33,2.33A1.16,1.16,0,0,1,64.1,104.84Z"/><path class="cls-1" d="M71.1,109.5a1.16,1.16,0,0,1-1.17-1.16v-7a1.17,1.17,0,1,1,2.33,0v7A1.16,1.16,0,0,1,71.1,109.5Z"/><path class="cls-1" d="M75.76,109.5a1.16,1.16,0,0,1-1.17-1.16v-7a1.17,1.17,0,1,1,2.33,0v7A1.16,1.16,0,0,1,75.76,109.5Z"/><path class="cls-1" d="M73.43,104.84a1.16,1.16,0,0,1-.83-.34l-2.33-2.33a1.17,1.17,0,0,1,1.65-1.65l2.33,2.33a1.16,1.16,0,0,1,0,1.65A1.14,1.14,0,0,1,73.43,104.84Z"/><path class="cls-1" d="M73.43,104.84a1.16,1.16,0,0,1-.83-.34,1.18,1.18,0,0,1,0-1.65l2.33-2.33a1.18,1.18,0,0,1,1.65,0,1.16,1.16,0,0,1,0,1.65l-2.33,2.33A1.14,1.14,0,0,1,73.43,104.84Z"/><path class="cls-1" d="M80.42,109.5a1.17,1.17,0,0,1-1.17-1.16v-7a1.17,1.17,0,0,1,2.34,0v7A1.17,1.17,0,0,1,80.42,109.5Z"/><path class="cls-1" d="M85.08,109.5a1.16,1.16,0,0,1-1.16-1.16v-7a1.17,1.17,0,1,1,2.33,0v7A1.16,1.16,0,0,1,85.08,109.5Z"/><path class="cls-1" d="M82.75,104.84a1.13,1.13,0,0,1-.82-.34l-2.33-2.33a1.16,1.16,0,1,1,1.64-1.65l2.34,2.33a1.18,1.18,0,0,1,0,1.65A1.16,1.16,0,0,1,82.75,104.84Z"/><path class="cls-1" d="M82.75,104.84a1.13,1.13,0,0,1-.82-.34,1.16,1.16,0,0,1,0-1.65l2.33-2.33a1.17,1.17,0,1,1,1.65,1.65l-2.33,2.33A1.16,1.16,0,0,1,82.75,104.84Z"/><path class="cls-1" d="M15.15,114.17A1.17,1.17,0,0,1,14,113v-7a1.17,1.17,0,1,1,2.33,0v7A1.17,1.17,0,0,1,15.15,114.17Z"/><path class="cls-1" d="M19.81,114.17A1.17,1.17,0,0,1,18.65,113v-7A1.17,1.17,0,1,1,21,106v7A1.17,1.17,0,0,1,19.81,114.17Z"/><path class="cls-1" d="M17.48,109.5a1.14,1.14,0,0,1-.82-.34l-2.33-2.33a1.16,1.16,0,0,1,0-1.65,1.18,1.18,0,0,1,1.65,0l2.33,2.33a1.18,1.18,0,0,1,0,1.65A1.16,1.16,0,0,1,17.48,109.5Z"/><path class="cls-1" d="M17.48,109.5a1.14,1.14,0,0,1-.82-.34,1.16,1.16,0,0,1,0-1.65L19,105.18a1.17,1.17,0,1,1,1.65,1.65l-2.33,2.33A1.16,1.16,0,0,1,17.48,109.5Z"/><path class="cls-1" d="M24.48,114.17A1.17,1.17,0,0,1,23.31,113v-7a1.17,1.17,0,1,1,2.33,0v7A1.17,1.17,0,0,1,24.48,114.17Z"/><path class="cls-1" d="M29.14,114.17A1.17,1.17,0,0,1,28,113v-7a1.17,1.17,0,1,1,2.33,0v7A1.17,1.17,0,0,1,29.14,114.17Z"/><path class="cls-1" d="M26.81,109.5a1.16,1.16,0,0,1-.83-.34l-2.33-2.33a1.17,1.17,0,1,1,1.65-1.65l2.33,2.33a1.17,1.17,0,0,1-.82,2Z"/><path class="cls-1" d="M26.81,109.5a1.16,1.16,0,0,1-.83-.34,1.18,1.18,0,0,1,0-1.65l2.33-2.33a1.18,1.18,0,0,1,1.65,0,1.16,1.16,0,0,1,0,1.65l-2.33,2.33A1.16,1.16,0,0,1,26.81,109.5Z"/><path class="cls-1" d="M33.8,114.17A1.18,1.18,0,0,1,32.63,113v-7A1.17,1.17,0,0,1,35,106v7A1.18,1.18,0,0,1,33.8,114.17Z"/><path class="cls-1" d="M38.46,114.17A1.17,1.17,0,0,1,37.3,113v-7a1.17,1.17,0,1,1,2.33,0v7A1.17,1.17,0,0,1,38.46,114.17Z"/><path class="cls-1" d="M36.13,109.5a1.13,1.13,0,0,1-.82-.34L33,106.83a1.16,1.16,0,1,1,1.64-1.65L37,107.51a1.16,1.16,0,0,1,0,1.65A1.13,1.13,0,0,1,36.13,109.5Z"/><path class="cls-1" d="M36.13,109.5a1.13,1.13,0,0,1-.82-.34,1.16,1.16,0,0,1,0-1.65l2.33-2.33a1.17,1.17,0,1,1,1.65,1.65L37,109.16A1.13,1.13,0,0,1,36.13,109.5Z"/><path class="cls-1" d="M89.74,109.5a1.16,1.16,0,0,1-1.16-1.16v-7a1.17,1.17,0,1,1,2.33,0v7A1.16,1.16,0,0,1,89.74,109.5Z"/><path class="cls-1" d="M94.41,149.13A1.16,1.16,0,0,1,93.24,148V101.35a1.17,1.17,0,1,1,2.33,0V148A1.16,1.16,0,0,1,94.41,149.13Z"/><path class="cls-1" d="M92.08,104.84a1.16,1.16,0,0,1-.83-.34l-2.33-2.33a1.17,1.17,0,0,1,1.65-1.65l2.33,2.33a1.18,1.18,0,0,1,0,1.65A1.16,1.16,0,0,1,92.08,104.84Z"/><path class="cls-1" d="M92.08,104.84a1.16,1.16,0,0,1-.83-.34,1.18,1.18,0,0,1,0-1.65l2.33-2.33a1.18,1.18,0,0,1,1.65,0,1.16,1.16,0,0,1,0,1.65L92.9,104.5A1.16,1.16,0,0,1,92.08,104.84Z"/><path class="cls-1" d="M75.76,149.13A1.16,1.16,0,0,1,74.59,148V134a5.83,5.83,0,1,0-11.65,0v14a1.17,1.17,0,0,1-2.33,0V134a8.16,8.16,0,1,1,16.31,0v14A1.16,1.16,0,0,1,75.76,149.13Z"/><path class="cls-1" d="M52.45,116.5H47.79a1.17,1.17,0,1,1,0-2.33h4.66a1.17,1.17,0,0,1,0,2.33Z"/><path class="cls-1" d="M89.74,116.5H85.08a1.17,1.17,0,0,1,0-2.33h4.66a1.17,1.17,0,1,1,0,2.33Z"/><path class="cls-1" d="M68.77,149.13A1.16,1.16,0,0,1,67.6,148V131.65a1.17,1.17,0,1,1,2.33,0V148A1.16,1.16,0,0,1,68.77,149.13Z"/><path class="cls-1" d="M73.43,144.47H64.1a1.17,1.17,0,0,1,0-2.33h9.33a1.17,1.17,0,0,1,0,2.33Z"/><path class="cls-1" d="M73.43,137.48H64.1a1.17,1.17,0,0,1,0-2.33h9.33a1.17,1.17,0,0,1,0,2.33Z"/><path class="cls-1" d="M59.44,144.47H43.12a1.17,1.17,0,0,1,0-2.33H59.44a1.17,1.17,0,1,1,0,2.33Z"/><path class="cls-1" d="M94.41,144.47H78.09a1.17,1.17,0,1,1,0-2.33H94.41a1.17,1.17,0,0,1,0,2.33Z"/><path class="cls-1" d="M71.1,118.83H66.43a1.16,1.16,0,0,1-1.16-1.17V113a1.16,1.16,0,0,1,1.16-1.16H71.1A1.16,1.16,0,0,1,72.26,113v4.66A1.16,1.16,0,0,1,71.1,118.83Zm-3.5-2.33h2.33v-2.33H67.6v2.33Z"/><path class="cls-1" d="M1.17,149.13A1.16,1.16,0,0,1,0,148V106a1.17,1.17,0,1,1,2.33,0v42A1.16,1.16,0,0,1,1.17,149.13Z"/><path class="cls-1" d="M0,148a1.17,1.17,0,0,1,1.17-1.17H136.36a1.17,1.17,0,1,1,0,2.33H1.17A1.16,1.16,0,0,1,0,148Z"/><path class="cls-1" d="M10.49,149.13A1.17,1.17,0,0,1,9.32,148V106a1.17,1.17,0,0,1,2.34,0v42A1.17,1.17,0,0,1,10.49,149.13Z"/><path class="cls-1" d="M5.83,114.17A1.17,1.17,0,0,1,4.66,113v-2.33a1.17,1.17,0,1,1,2.33,0V113A1.17,1.17,0,0,1,5.83,114.17Z"/><path class="cls-1" d="M5.83,97.85a1.17,1.17,0,0,1-1.17-1.17V94.35a1.17,1.17,0,0,1,2.33,0v2.33A1.16,1.16,0,0,1,5.83,97.85Z"/><path class="cls-1" d="M8.16,114.17H3.5a1.17,1.17,0,1,1,0-2.33H8.16a1.17,1.17,0,0,1,0,2.33Z"/><path class="cls-1" d="M52.45,109.5H47.79a1.17,1.17,0,1,1,0-2.33h4.66a1.17,1.17,0,0,1,0,2.33Z"/><path class="cls-1" d="M61.77,109.5H57.11a1.17,1.17,0,1,1,0-2.33h4.66a1.17,1.17,0,1,1,0,2.33Z"/><path class="cls-1" d="M71.1,109.5H66.43a1.17,1.17,0,0,1,0-2.33H71.1a1.17,1.17,0,0,1,0,2.33Z"/><path class="cls-1" d="M80.42,109.5H75.76a1.17,1.17,0,1,1,0-2.33h4.66a1.17,1.17,0,1,1,0,2.33Z"/><path class="cls-1" d="M89.74,109.5H85.08a1.17,1.17,0,0,1,0-2.33h4.66a1.17,1.17,0,1,1,0,2.33Z"/><path class="cls-1" d="M43.12,114.17H38.46a1.17,1.17,0,0,1,0-2.33h4.66a1.17,1.17,0,1,1,0,2.33Z"/><path class="cls-1" d="M33.8,114.17H29.14a1.17,1.17,0,1,1,0-2.33H33.8a1.17,1.17,0,1,1,0,2.33Z"/><path class="cls-1" d="M24.48,114.17H19.81a1.17,1.17,0,0,1,0-2.33h4.67a1.17,1.17,0,0,1,0,2.33Z"/><path class="cls-1" d="M15.15,114.17H10.49a1.17,1.17,0,1,1,0-2.33h4.66a1.17,1.17,0,1,1,0,2.33Z"/><path class="cls-1" d="M127,107.17a1.23,1.23,0,0,1-.52-.12,1.16,1.16,0,0,1-.52-1.56l4.66-9.33a1.17,1.17,0,0,1,2.09,1l-4.67,9.33A1.15,1.15,0,0,1,127,107.17Z"/><path class="cls-1" d="M136.37,107.17H127a1.17,1.17,0,0,1,0-2.33h9.33a1.17,1.17,0,0,1,0,2.33Z"/><path class="cls-1" d="M136.37,107.17a1.17,1.17,0,0,1-1.05-.64l-4.66-9.33a1.17,1.17,0,0,1,2.09-1l4.66,9.33a1.17,1.17,0,0,1-.52,1.56A1.23,1.23,0,0,1,136.37,107.17Z"/><path class="cls-1" d="M122.38,114.17a1.17,1.17,0,0,1-1.17-1.17v-7a1.17,1.17,0,1,1,2.33,0v7A1.17,1.17,0,0,1,122.38,114.17Z"/><path class="cls-1" d="M117.72,114.17a1.17,1.17,0,0,1-1.17-1.17v-7a1.17,1.17,0,1,1,2.33,0v7A1.17,1.17,0,0,1,117.72,114.17Z"/><path class="cls-1" d="M120.05,109.5a1.16,1.16,0,0,1-.83-.34,1.18,1.18,0,0,1,0-1.65l2.33-2.33a1.18,1.18,0,0,1,1.65,0,1.16,1.16,0,0,1,0,1.65l-2.33,2.33A1.14,1.14,0,0,1,120.05,109.5Z"/><path class="cls-1" d="M120.05,109.5a1.16,1.16,0,0,1-.83-.34l-2.33-2.33a1.17,1.17,0,1,1,1.65-1.65l2.33,2.33a1.16,1.16,0,0,1,0,1.65A1.14,1.14,0,0,1,120.05,109.5Z"/><path class="cls-1" d="M113.06,114.17a1.17,1.17,0,0,1-1.17-1.17v-7a1.17,1.17,0,1,1,2.33,0v7A1.17,1.17,0,0,1,113.06,114.17Z"/><path class="cls-1" d="M108.39,114.17a1.17,1.17,0,0,1-1.16-1.17v-7a1.17,1.17,0,1,1,2.33,0v7A1.17,1.17,0,0,1,108.39,114.17Z"/><path class="cls-1" d="M110.72,109.5a1.17,1.17,0,0,1-.82-2l2.33-2.33a1.17,1.17,0,1,1,1.65,1.65l-2.33,2.33A1.16,1.16,0,0,1,110.72,109.5Z"/><path class="cls-1" d="M110.72,109.5a1.16,1.16,0,0,1-.82-.34l-2.33-2.33a1.16,1.16,0,0,1,0-1.65,1.18,1.18,0,0,1,1.65,0l2.33,2.33a1.18,1.18,0,0,1,0,1.65A1.16,1.16,0,0,1,110.72,109.5Z"/><path class="cls-1" d="M103.73,114.17a1.18,1.18,0,0,1-1.17-1.17v-7a1.17,1.17,0,0,1,2.34,0v7A1.18,1.18,0,0,1,103.73,114.17Z"/><path class="cls-1" d="M99.07,114.17A1.17,1.17,0,0,1,97.9,113v-7a1.17,1.17,0,1,1,2.33,0v7A1.17,1.17,0,0,1,99.07,114.17Z"/><path class="cls-1" d="M101.4,109.5a1.13,1.13,0,0,1-.82-.34,1.16,1.16,0,0,1,0-1.65l2.33-2.33a1.16,1.16,0,0,1,1.64,1.65l-2.33,2.33A1.13,1.13,0,0,1,101.4,109.5Z"/><path class="cls-1" d="M101.4,109.5a1.13,1.13,0,0,1-.82-.34l-2.34-2.33a1.17,1.17,0,1,1,1.65-1.65l2.33,2.33a1.16,1.16,0,0,1,0,1.65A1.13,1.13,0,0,1,101.4,109.5Z"/><path class="cls-1" d="M136.37,149.13A1.16,1.16,0,0,1,135.2,148V106a1.17,1.17,0,1,1,2.33,0v42A1.16,1.16,0,0,1,136.37,149.13Z"/><path class="cls-1" d="M127,149.13a1.16,1.16,0,0,1-1.16-1.16V106a1.17,1.17,0,1,1,2.33,0v42A1.16,1.16,0,0,1,127,149.13Z"/><path class="cls-1" d="M131.7,114.17a1.17,1.17,0,0,1-1.16-1.17v-2.33a1.17,1.17,0,1,1,2.33,0V113A1.17,1.17,0,0,1,131.7,114.17Z"/><path class="cls-1" d="M131.7,97.85a1.16,1.16,0,0,1-1.16-1.17V94.35a1.17,1.17,0,0,1,2.33,0v2.33A1.17,1.17,0,0,1,131.7,97.85Z"/><path class="cls-1" d="M134,114.17h-4.66a1.17,1.17,0,0,1,0-2.33H134a1.17,1.17,0,1,1,0,2.33Z"/><path class="cls-1" d="M99.07,114.17H94.41a1.17,1.17,0,1,1,0-2.33h4.66a1.17,1.17,0,0,1,0,2.33Z"/><path class="cls-1" d="M108.39,114.17h-4.66a1.17,1.17,0,1,1,0-2.33h4.66a1.17,1.17,0,1,1,0,2.33Z"/><path class="cls-1" d="M117.72,114.17h-4.66a1.17,1.17,0,1,1,0-2.33h4.66a1.17,1.17,0,0,1,0,2.33Z"/><path class="cls-1" d="M127,114.17h-4.66a1.17,1.17,0,1,1,0-2.33H127a1.17,1.17,0,1,1,0,2.33Z"/></g></g></g></svg>