<svg xmlns="http://www.w3.org/2000/svg" viewBox="0 0 93.06 76.15"><defs><style>.cls-1{fill:#129fe1;}</style></defs><title>stadium</title><g id="Layer_2" data-name="Layer 2"><g id="Shapes_icons" data-name="Shapes&amp;icons"><g id="Icons-2"><path class="cls-1" d="M81.87,22.53l-.39-.11V13.63h2.38A8.64,8.64,0,0,0,92.51,5a1.3,1.3,0,0,0-1.3-1.3h-11A1.3,1.3,0,0,0,78.88,5V21.72l-.66-.15a123.53,123.53,0,0,0-19.11-2.74c-3.48-.25-7.09-.39-10.74-.43h-.54V10h2.38A8.66,8.66,0,0,0,58.86,1.3,1.3,1.3,0,0,0,57.56,0h-11a1.3,1.3,0,0,0-1.3,1.3V18.39H44.7c-3.66,0-7.28.18-10.75.43a123.39,123.39,0,0,0-19.1,2.74l-.67.15V13.63h2.38A8.66,8.66,0,0,0,25.22,5a1.3,1.3,0,0,0-1.3-1.3h-11A1.3,1.3,0,0,0,11.58,5V22.42l-.38.11C3.77,24.74,0,27.49,0,30.72v33.1c0,2.55,2.39,4.83,7.1,6.76,9,3.67,22.79,4.87,28.32,5.22a179.22,179.22,0,0,0,22.23,0C63.18,75.45,77,74.25,86,70.58c4.72-1.93,7.1-4.21,7.1-6.76V30.72C93.06,27.49,89.3,24.74,81.87,22.53ZM81.48,6.28h8.34L89.57,7a6.06,6.06,0,0,1-5.71,4H81.48ZM47.83,2.6h8.34l-.25.72a6.06,6.06,0,0,1-5.71,4H47.83ZM14.18,6.28h8.35L22.27,7a6.06,6.06,0,0,1-5.71,4H14.18ZM59.77,21.49l.31,0a123.27,123.27,0,0,1,16.39,2.32l1.18.27-9.31,6.65-.22,0c-3.79-.52-8.09-.89-12.79-1.11l-.95,0Zm-22.54-.26a180.31,180.31,0,0,1,18.6,0l1,.05-5.47,8.2H51c-3-.07-6-.07-9,0h-.3l-5.46-8.2Zm-20.64,2.6A123.51,123.51,0,0,1,33,21.51l.32,0,5.39,8.08-1,0c-4.69.21-9,.59-12.79,1.11l-.21,0L15.41,24.1ZM11.9,25l.25-.08,8.92,6.37-1.2.25a34.37,34.37,0,0,0-4.28,1.16c-1.49.53-3.5,1.42-3.88,3l-.14.56L11,36.14c-6.21-2-8.42-4.09-8.42-5.42S5,27.08,11.9,25ZM22.62,71.83,22,71.72C8.67,69.57,2.6,66.12,2.6,63.82V57.1l.83.54a22.52,22.52,0,0,0,3.72,1.89,70.72,70.72,0,0,0,15,3.79l.46.08Zm0-11.06L22,60.66A67,67,0,0,1,8.13,57.12c-3.46-1.41-5.53-3-5.53-4.34V46.1l.83.54A22.29,22.29,0,0,0,7.1,48.52a70.73,70.73,0,0,0,15.06,3.8l.46.07Zm0-11-.63-.1C8.67,47.51,2.6,44.05,2.6,41.75V35.08l.83.55c2.66,1.73,6.86,3.24,12.47,4.49,1.94.43,4,.82,6.26,1.17l.46.07ZM34.2,73.11l-.58,0c-2.74-.21-5.41-.48-7.93-.81l-.47-.06V63.77l.61.08c2.52.33,5.17.59,7.87.8l.5,0Zm.2-11.5-.09.47-.48,0c-2.8-.21-5.54-.5-8.14-.84l-.47-.06V52.76l.6.08c3.8.48,7.82.83,12,1l1.27.06-1.11,1A12.19,12.19,0,0,0,34.4,61.61ZM25.22,50.14V41.73l.6.07A165.82,165.82,0,0,0,44.7,43h.53v8.43h-.54a164.45,164.45,0,0,1-19-1.27Zm31,23.14-.51,0c-2.41.12-4.89.2-7.37.23h-.55V67.49a1.3,1.3,0,0,0-2.6,0v6.05h-.54c-2.49,0-5-.11-7.38-.23l-.51,0V63.51a9.73,9.73,0,0,1,19.45,0v9.77ZM67.85,72.2l-.47.06c-2.53.33-5.2.6-7.94.81l-.58,0V64.68l.5,0c2.7-.21,5.35-.47,7.88-.8l.61-.08Zm0-11.05-.47.06c-2.6.34-5.34.63-8.14.84l-.49,0-.08-.47a12.27,12.27,0,0,0-3.42-6.52L55,54.82,54,54l1.26-.08c4.13-.2,8.16-.55,11.95-1l.61-.08Zm0-11-.47.06a164.6,164.6,0,0,1-19,1.27h-.55V43.05h.54A165.49,165.49,0,0,0,67.24,41.8l.61-.07ZM46.53,40.45A161.48,161.48,0,0,1,24.11,39c-2.47-.35-4.84-.77-7-1.24l-.18-.07a.9.9,0,0,0-.24-.12A10.92,10.92,0,0,1,15,36.76l-.83-.48.85-.46c5.76-3.14,25.27-3.7,26.1-3.73,3.55-.09,7.31-.09,10.86,0a145.49,145.49,0,0,1,16.58,1.32c5.75.84,8.35,1.78,9.52,2.42l.84.46-.83.48a14.49,14.49,0,0,1-2.36,1c-2.17.45-4.42.85-6.75,1.18A161.52,161.52,0,0,1,46.53,40.45ZM90.46,63.82c0,2.3-6.06,5.75-19.39,7.9l-.62.11V63.4l.45-.08a70.56,70.56,0,0,0,15-3.79,22.52,22.52,0,0,0,3.72-1.89l.83-.54Zm0-11c0,1.31-2.06,2.93-5.53,4.34a66.84,66.84,0,0,1-13.86,3.54l-.62.11V52.39l.45-.07A70.57,70.57,0,0,0,86,48.52a21.9,21.9,0,0,0,3.67-1.88l.83-.54Zm0-11c0,2.3-6.06,5.76-19.39,7.91l-.62.1v-8.4l.45-.07c6-.94,14.17-2.69,18.73-5.66l.83-.54ZM82,36.14l-.55.18-.13-.57c-.39-1.61-2.46-2.51-4-3a35.56,35.56,0,0,0-4.16-1.12L72,31.33,80.92,25l.25.08c6.85,2,9.29,4.27,9.29,5.68C90.46,31.37,89.86,33.67,82,36.14Z"/></g></g></g></svg>