<svg xmlns="http://www.w3.org/2000/svg" viewBox="0 0 512 512"><path d="M485.097 80.1H291.945c-3.864 0-7.611-1.394-10.544-3.92l-35.432-30.566c-6.843-5.894-15.578-9.14-24.596-9.14H94.423c-14.834 0-26.903 12.069-26.903 26.903v35.957H26.903C12.069 99.334 0 111.403 0 126.237v322.386c0 14.834 12.069 26.903 26.903 26.903h390.673c14.834 0 26.903-12.069 26.903-26.903v-35.949h40.618c14.834 0 26.903-12.069 26.903-26.903V107.003c0-14.835-12.069-26.903-26.903-26.903zm-62.14 368.523c0 2.967-2.414 5.381-5.381 5.381H26.903c-2.967 0-5.381-2.414-5.381-5.381V227.428h401.434v221.195zm0-242.717H21.522v-79.668c0-2.967 2.414-5.381 5.381-5.381h126.943c3.869 0 7.612 1.391 10.542 3.919l35.434 30.559c6.836 5.895 15.571 9.141 24.598 9.141h193.156c2.967 0 5.381 2.414 5.381 5.381v36.049zm67.521 179.865c0 2.967-2.414 5.381-5.381 5.381h-40.618V169.856c0-14.834-12.069-26.903-26.903-26.903H224.42c-3.869 0-7.614-1.391-10.543-3.918l-35.433-30.557c-6.836-5.896-15.571-9.143-24.598-9.143H89.042V63.377c0-2.967 2.414-5.381 5.381-5.381h126.95c3.864 0 7.611 1.394 10.544 3.92l35.432 30.566c6.843 5.893 15.578 9.139 24.596 9.139h193.153c2.967 0 5.381 2.414 5.381 5.381v278.769z" fill="#ababab"/><path d="M380.144 264.111h-64.445c-5.943 0-10.761 4.818-10.761 10.761 0 5.942 4.818 10.761 10.761 10.761h64.445c5.943 0 10.761-4.819 10.761-10.761 0-5.944-4.817-10.761-10.761-10.761zM380.144 315.764h-64.445c-5.943 0-10.761 4.819-10.761 10.761s4.818 10.761 10.761 10.761h64.445c5.943 0 10.761-4.819 10.761-10.761s-4.817-10.761-10.761-10.761z" fill="#ababab"/></svg>