<svg xmlns="http://www.w3.org/2000/svg" viewBox="0 0 58.5 55.5"><defs><style>.cls-1{fill:#129fe1;}</style></defs><title>cart</title><g id="Layer_2" data-name="Layer 2"><g id="Shapes_icons" data-name="Shapes&amp;icons"><g id="Icons-1"><path class="cls-1" d="M58.27,17.52a1,1,0,0,0-.84-.37H50.92v-16a1.06,1.06,0,0,0-1-1.12H37A1.11,1.11,0,0,0,35.9,1.12v5H31.77V4a1.07,1.07,0,0,0-1-1.09h-11a1,1,0,0,0-1,1.09V17.15H14.62l-.89-5.61A5.68,5.68,0,0,0,8.2,6.65H1.06a1.06,1.06,0,1,0,0,2.12H8.2a3.53,3.53,0,0,1,3.43,3.08l6,37.52a2.55,2.55,0,0,0,2.53,2.21h1.51a4.81,4.81,0,0,0,9.45,0H43.24A4.88,4.88,0,0,0,48,55.5a5,5,0,1,0-4.76-6H31.13a4.82,4.82,0,0,0-9.51,0H20.17a.46.46,0,0,1-.46-.39v0l-1.08-6.77H48.94a5,5,0,0,0,4.92-3.91l4.61-20A1,1,0,0,0,58.27,17.52ZM48,47.61a2.89,2.89,0,1,1-2.73,2.89A2.81,2.81,0,0,1,48,47.61Zm-21.6,0a2.9,2.9,0,1,1-2.72,2.89A2.82,2.82,0,0,1,26.37,47.61ZM38,2.13H48.79v15H40.28V7.24a1.15,1.15,0,0,0-1.11-1.12H38Zm.14,6.11v8.91H28.32V8.24ZM20.87,5.05h8.78V6.12H27.26a1.12,1.12,0,0,0-1.07,1.12v9.91H20.87ZM51.79,37.92a2.86,2.86,0,0,1-2.85,2.23H18.29L15,19.28H56.1Z"/><path class="cls-1" d="M29.26,30.69h5.29V36a1,1,0,0,0,2,0V30.69h5.29a1,1,0,1,0,0-2H36.5V23.45a1,1,0,1,0-2,0v5.29H29.26a1,1,0,0,0,0,2Z"/></g></g></g></svg>