<svg xmlns="http://www.w3.org/2000/svg" viewBox="0 0 52.86 52.86"><defs><style>.cls-1{fill:#129fe1;}</style></defs><title>cleaner</title><g id="Layer_2" data-name="Layer 2"><g id="Shapes_icons" data-name="Shapes&amp;icons"><g id="Icons-1"><path class="cls-1" d="M46.15,42a5.51,5.51,0,0,0-5.4-4.51H31.94a5.51,5.51,0,0,0-4.36,2.18l-1.16-3,.82-.33A5.68,5.68,0,0,0,30.84,31,5.77,5.77,0,0,0,30,28.07L18.8,9.38A4.55,4.55,0,0,0,15,7.14L13.81,4.21A6.57,6.57,0,0,0,7.65,0H3.3a3.31,3.31,0,0,0,0,6.61H7.65l.79,2a2.18,2.18,0,0,0-1.21,1,2.2,2.2,0,0,0-.1,1.81L17.29,37.9a2.2,2.2,0,0,0,2.06,1.41,2.14,2.14,0,0,0,.82-.16l.12,0L22,43.57v1.09a4.39,4.39,0,1,0,6,6H44.26a3.28,3.28,0,0,0,6.2,0h1.3a1.1,1.1,0,0,0,1.1-1.1A7.69,7.69,0,0,0,46.15,42Zm-14.21-2.3h8.81a3.3,3.3,0,0,1,3.1,2.2h-15A3.28,3.28,0,0,1,31.94,39.65ZM7.65,4.41H3.3a1.11,1.11,0,0,1,0-2.21H7.65A4.39,4.39,0,0,1,11.76,5l1,2.51-2.15.54L9.7,5.81A2.2,2.2,0,0,0,7.65,4.41Zm1.53,6.27L9,9.74H9l.23.95ZM19.35,37.11,9.18,10.68l5.08-1.27a2.39,2.39,0,0,1,2.65,1.1L28.13,29.2a3.52,3.52,0,0,1-1.71,5.08Zm6.73,4.74H23.72l-1.39-3.56,2.05-.82Zm-1.85,8.81a2.21,2.21,0,1,1,2.2-2.2A2.2,2.2,0,0,1,24.23,50.66Zm4.4-2.2a4.41,4.41,0,0,0-4.4-4.41H45.15a5.52,5.52,0,0,1,5.4,4.41Z"/><path class="cls-1" d="M18.54,22.72a1.1,1.1,0,0,0-2.06.8l3.72,9.67a1.11,1.11,0,0,0,1,.71,1.12,1.12,0,0,0,.4-.07,1.11,1.11,0,0,0,.63-1.43Z"/></g></g></g></svg>