<svg xmlns="http://www.w3.org/2000/svg" viewBox="0 0 344.34 282.61"><defs><style>.cls-1{fill:#129fe1;}.cls-2{fill:none;stroke:#129fe1;stroke-miterlimit:10;stroke-width:6px;}.cls-3{opacity:0.15;}</style></defs><title>Asset 30</title><g id="Layer_2" data-name="Layer 2"><g id="Shapes_icons" data-name="Shapes&amp;icons"><g id="Smile-b1"><path class="cls-1" d="M272.16,231.37a3.51,3.51,0,0,0-4.72-1.53,39,39,0,0,1-54-20.87,3.51,3.51,0,1,0-6.56,2.48,46,46,0,0,0,63.74,24.64A3.51,3.51,0,0,0,272.16,231.37Z"/><path class="cls-1" d="M276.26,126.74A80.65,80.65,0,1,0,322.41,231,80.75,80.75,0,0,0,276.26,126.74ZM220.64,270.65a73.64,73.64,0,1,1,95.23-42.14A73.71,73.71,0,0,1,220.64,270.65Z"/><path class="cls-1" d="M282.2,189.18a17.55,17.55,0,0,0-22.67,10,3.51,3.51,0,1,0,6.54,2.53,10.52,10.52,0,1,1,19.62,7.59,3.5,3.5,0,0,0,6.54,2.52A17.55,17.55,0,0,0,282.2,189.18Z"/><path class="cls-1" d="M233.36,189.1a3.51,3.51,0,1,0,6.54,2.53A17.53,17.53,0,0,0,207.2,179a3.51,3.51,0,1,0,6.54,2.53,10.52,10.52,0,0,1,19.62,7.58Z"/><line class="cls-2" x1="110.35" y1="128.33" x2="157.39" y2="128.33"/><line class="cls-2" x1="133.87" y1="104.81" x2="133.87" y2="151.85"/><line class="cls-2" x1="177.07" y1="68.92" x2="247.82" y2="68.92"/><line class="cls-2" x1="212.44" y1="33.54" x2="212.44" y2="104.3"/><g class="cls-3"><line class="cls-2" x1="297.3" y1="97.8" x2="344.34" y2="97.8"/><line class="cls-2" x1="320.82" y1="74.28" x2="320.82" y2="121.32"/></g><g class="cls-3"><line class="cls-2" x1="252.58" y1="16.77" x2="286.12" y2="16.77"/><line class="cls-2" x1="269.35" x2="269.35" y2="33.54"/></g><g class="cls-3"><line class="cls-2" x1="79.18" y1="194.29" x2="112.72" y2="194.29"/><line class="cls-2" x1="95.95" y1="177.52" x2="95.95" y2="211.06"/></g><g class="cls-3"><line class="cls-2" y1="104.3" x2="95.62" y2="104.3"/><line class="cls-2" x1="47.81" y1="56.48" x2="47.81" y2="152.11"/></g></g></g></g></svg>