<svg xmlns="http://www.w3.org/2000/svg" xmlns:xlink="http://www.w3.org/1999/xlink" viewBox="0 0 163.93 85.14"><defs><style>.cls-1{fill:url(#linear-gradient);}.cls-2{fill:url(#linear-gradient-2);}.cls-3{fill:url(#linear-gradient-3);}.cls-4{fill:url(#linear-gradient-4);}.cls-5{fill:url(#linear-gradient-5);}</style><linearGradient id="linear-gradient" x1="4.42" y1="80.39" x2="132.47" y2="-4.72" gradientUnits="userSpaceOnUse"><stop offset="0" stop-color="#ffcf57"/><stop offset="0.25" stop-color="#ffc746"/><stop offset="0.73" stop-color="#ffb31b"/><stop offset="1" stop-color="#ffa600"/></linearGradient><linearGradient id="linear-gradient-2" x1="22.67" y1="107.86" x2="150.73" y2="22.75" xlink:href="#linear-gradient"/><linearGradient id="linear-gradient-3" x1="40.93" y1="135.33" x2="168.98" y2="50.22" xlink:href="#linear-gradient"/><linearGradient id="linear-gradient-4" x1="-6.08" y1="64.6" x2="121.97" y2="-20.51" xlink:href="#linear-gradient"/><linearGradient id="linear-gradient-5" x1="12.18" y1="92.07" x2="140.23" y2="6.96" xlink:href="#linear-gradient"/></defs><title>Asset 31</title><g id="Layer_2" data-name="Layer 2"><g id="Shapes_icons" data-name="Shapes&amp;icons"><g id="Stars"><polygon class="cls-1" points="22.38 42.57 27.66 58.83 44.76 58.83 30.93 68.88 36.21 85.14 22.38 75.09 8.55 85.14 13.83 68.88 0 58.83 17.1 58.83 22.38 42.57"/><polygon class="cls-2" points="81.97 42.57 87.25 58.83 104.35 58.83 90.51 68.88 95.8 85.14 81.97 75.09 68.13 85.14 73.42 68.88 59.59 58.83 76.68 58.83 81.97 42.57"/><polygon class="cls-3" points="141.55 42.57 146.83 58.83 163.93 58.83 150.1 68.88 155.38 85.14 141.55 75.09 127.72 85.14 133 68.88 119.17 58.83 136.27 58.83 141.55 42.57"/><polygon class="cls-4" points="52.17 0 57.46 16.26 74.55 16.26 60.72 26.31 66.01 42.57 52.17 32.52 38.34 42.57 43.63 26.31 29.79 16.26 46.89 16.26 52.17 0"/><polygon class="cls-5" points="111.76 0 117.04 16.26 134.14 16.26 120.31 26.31 125.59 42.57 111.76 32.52 97.93 42.57 103.21 26.31 89.38 16.26 106.47 16.26 111.76 0"/></g></g></g></svg>