<svg xmlns="http://www.w3.org/2000/svg" viewBox="0 0 52.9 54.45"><defs><style>.cls-1{fill:#129fe1;}</style></defs><title>thumbs_up</title><g id="Layer_2" data-name="Layer 2"><g id="Shapes_icons" data-name="Shapes&amp;icons"><g id="Icons-1"><path class="cls-1" d="M51.32,37.36l-.1-.25.17-.22a6.37,6.37,0,0,0,1.51-4.28,6.61,6.61,0,0,0-1.41-3.71l-.17-.22.11-.26a5.71,5.71,0,0,0-1.35-6.58c-1.75-1.6-4.76-2.3-9-2.1a35.22,35.22,0,0,0-5.62.72h-.07c-.52.09-1.09.21-1.76.36l-.55.12,0-.57c-.06-.94.15-2.9,1.47-6.91,1.58-4.79,1.5-8.42-.23-10.81A6.88,6.88,0,0,0,28.81,0,2.41,2.41,0,0,0,27,.85c-1.23,1.42-1,4.3-.86,5.15v.12l0,.11c-.21.56-5.17,13.76-9.61,17.17l0,0-.11.1a12.05,12.05,0,0,0-2.18,3.27l-.21.48L13.47,27a4.24,4.24,0,0,0-2.07-.52H4.33A4.33,4.33,0,0,0,0,30.83V49.67A4.33,4.33,0,0,0,4.33,54H11.4a4.32,4.32,0,0,0,2.51-.79l.15-.11,2.91.35a117.17,117.17,0,0,0,15.38.84h0c1.43.11,2.69.16,3.84.16A26,26,0,0,0,41.53,54c3.4-.73,5.72-2.15,6.87-4.24a6.6,6.6,0,0,0,.74-4.13l0-.26.19-.17a6.91,6.91,0,0,0,2.47-5.63A7.2,7.2,0,0,0,51.32,37.36ZM13.58,49.65a2.17,2.17,0,0,1-2.18,2.18H4.33a2.17,2.17,0,0,1-2.17-2.17V30.82a2.18,2.18,0,0,1,2.17-2.18H11.4a2.18,2.18,0,0,1,2.18,2.18ZM49.16,36.17a1.08,1.08,0,0,0-.15,1.3l.08.12v0a5.55,5.55,0,0,1,.53,2,5.11,5.11,0,0,1-2.37,4.42,1.09,1.09,0,0,0-.37,1.23l0,.08v0a4.57,4.57,0,0,1-.38,3.3c-.85,1.52-2.68,2.59-5.44,3.18a23.55,23.55,0,0,1-4.81.43c-1.16,0-2.41-.06-3.76-.17h-.15a114.13,114.13,0,0,1-15.1-.82h0l-1.71-.2.12-.53a4.46,4.46,0,0,0,.09-.91V30.82a4.39,4.39,0,0,0-.2-1.29l0-.14,0-.13a10,10,0,0,1,2.27-4.19l0,0,0,0C22.9,21,28,7.18,28.22,6.59a1,1,0,0,0,0-.53,7.67,7.67,0,0,1,.21-3.69l.15-.24h.28A4.64,4.64,0,0,1,32.56,3.9c1.28,1.77,1.25,4.83-.07,8.86-1.85,5.61-2.07,8.65-.71,9.86a2,2,0,0,0,2,.36l0,0c.78-.18,1.44-.31,2-.41H36l.06,0h0c3.76-.82,10.22-1.27,12.58.88,2.16,2,.65,4.56.48,4.85h0a1.07,1.07,0,0,0,.2,1.39h0a4.91,4.91,0,0,1,1.42,3A4.72,4.72,0,0,1,49.16,36.17Z"/></g></g></g></svg>