<svg xmlns="http://www.w3.org/2000/svg" viewBox="0 0 41.85 62.37"><defs><style>.cls-1{fill:#129fe1;}</style></defs><title>ticket</title><g id="Layer_2" data-name="Layer 2"><g id="Shapes_icons" data-name="Shapes&amp;icons"><g id="Icons-1"><path class="cls-1" d="M36.13,44.87H15.89a1,1,0,1,0,0,2H36.13a1,1,0,1,0,0-2Z"/><path class="cls-1" d="M36.13,40.1H15.89a1,1,0,1,0,0,2H36.13a1,1,0,1,0,0-2Z"/><path class="cls-1" d="M.66,52.38l28,9.93a1,1,0,0,0,.76,0,1,1,0,0,0,.52-.59l3.59-10.16h7.25a1,1,0,0,0,1.06-1V13.94a1,1,0,0,0-.24-.63l-6-7.59a1.07,1.07,0,0,0-.8-.39H24.37s-.08-.1-.12-.15A14.38,14.38,0,0,0,19.13.74c-2-1-3.85-1-5.14,0s-1.81,2.71-1.46,4.93a12.21,12.21,0,0,0,1.12,3.43L10.3,13.31a1.07,1.07,0,0,0-.2.63v8.88L.06,51.1a1,1,0,0,0,0,.77A1,1,0,0,0,.66,52.38ZM15.19,2.32c1.21-.9,4.07.13,6.61,3H17.09a1,1,0,0,0-.78.39L15.06,7.3C14.15,5,14.26,3,15.19,2.32Zm-3.08,12L14.73,11c.19.29.38.58.6.86a14.49,14.49,0,0,0,5.11,4.45,7.39,7.39,0,0,0,1.21.47,4.3,4.3,0,1,0,.21-2,11.75,11.75,0,0,1-4.93-4.08A14.82,14.82,0,0,1,16,9.29l1.54-1.95H34.3l5.55,7V49.51H12.11ZM27,14.11A2.32,2.32,0,1,1,23.76,17a3.63,3.63,0,0,0,1.82-.69A3.83,3.83,0,0,0,27,14.11Zm-2.6.58a1.18,1.18,0,0,1-.37.19,2.42,2.42,0,0,1,.82-.74,1.5,1.5,0,0,1-.45.55ZM10.1,28.83V50.57a1,1,0,0,0,.28.69,1,1,0,0,0,.7.26H31.41l-3,8.54L2.29,50.81Z"/><path class="cls-1" d="M18.78,31.43c0-2.53-3.18-2.34-3.18-3.35,0-.31.29-.6,1-.6s1,.38,1.38.38.62-.55.62-.82c0-.79-1.46-.89-2-.89-1.25,0-2.57.58-2.57,2.08,0,2.35,3.19,2.14,3.19,3.36,0,.48-.51.66-1,.66-.93,0-1.23-.74-1.7-.74s-.69.5-.69.84c0,.66,1.11,1.31,2.42,1.31A2.22,2.22,0,0,0,18.78,31.43Z"/><path class="cls-1" d="M21.06,33.55c.25,0,.45,0,.51-.26l.35-1.22H24l.35,1.22c.06.21.26.28.51.28.43,0,1-.28,1-.65a.36.36,0,0,0,0-.11L24,26.68c-.11-.35-.56-.52-1-.52s-.91.17-1,.52L20.08,32.8a.52.52,0,0,0,0,.11C20.06,33.28,20.63,33.55,21.06,33.55ZM23,28.12l.73,2.69H22.24Z"/><path class="cls-1" d="M28.16,33.57h3.17c.31,0,.46-.35.46-.69s-.15-.69-.46-.69H29.05v-5.5c0-.33-.42-.48-.81-.48s-.82.15-.82.48v6.38C27.42,33.39,27.82,33.57,28.16,33.57Z"/><path class="cls-1" d="M37.68,27.55c.3,0,.47-.33.47-.7s-.14-.68-.47-.68H34.11a.6.6,0,0,0-.66.53v6.37c0,.32.31.5.66.5h3.57c.33,0,.47-.36.47-.68s-.17-.7-.47-.7H35V30.44H36.5a.5.5,0,0,0,.47-.56c0-.32-.17-.57-.47-.57H35V27.55Z"/></g></g></g></svg>