<svg xmlns="http://www.w3.org/2000/svg" xmlns:xlink="http://www.w3.org/1999/xlink" viewBox="0 0 69.13 85.55"><defs><style>.cls-1{fill:url(#radial-gradient);}.cls-2,.cls-3,.cls-4{fill:none;stroke:#0078ff;stroke-miterlimit:10;}.cls-2{stroke-width:4px;}.cls-3,.cls-4{stroke-width:6px;}.cls-3{opacity:0.39;}.cls-4,.cls-5{opacity:0.16;}.cls-5{fill:#0078ff;}</style><radialGradient id="radial-gradient" cx="56.35" cy="13.54" r="231.93" gradientUnits="userSpaceOnUse"><stop offset="0" stop-color="#fff"/><stop offset="1" stop-color="#65ddff"/></radialGradient></defs><title>icon_1</title><g id="Layer_2" data-name="Layer 2"><g id="_1" data-name="1"><path class="cls-1" d="M63.58,31.72c0,18.18-9.2,35.11-24.56,46.11a7.6,7.6,0,0,1-8.67,0C15,66.83,5.78,49.9,5.78,31.72V16.57A6.59,6.59,0,0,1,11,10.32c7.69-1.91,15.62-4,23.67-4s16,2.05,23.68,4A6.44,6.44,0,0,1,63,16.86Z"/><path class="cls-2" d="M34.68,8.68a68.68,68.68,0,0,0-19.88,3,8.91,8.91,0,0,0-6.32,8.54V33.31a50.44,50.44,0,0,0,21.06,41,8.86,8.86,0,0,0,10.28,0,50.45,50.45,0,0,0,21.07-41V20.17a8.93,8.93,0,0,0-6.32-8.54A68.74,68.74,0,0,0,34.68,8.68Z"/><path class="cls-3" d="M63.58,31.72c0,18.18-9.2,35.11-24.56,46.11a7.6,7.6,0,0,1-8.67,0C15,66.83,5.78,49.9,5.78,31.72V16.57A6.59,6.59,0,0,1,11,10.32c7.69-1.91,15.62-4,23.67-4s16,2.05,23.68,4A6.44,6.44,0,0,1,63,16.86Z"/><path class="cls-4" d="M66.13,30.7c0,19.85-10.06,38.35-26.83,50.36a8.29,8.29,0,0,1-9.47,0C13.05,69.05,3,50.55,3,30.7V14.16A7.21,7.21,0,0,1,8.71,7.33C17.11,5.24,25.76,3,34.56,3S52,5.24,60.42,7.33c3.37.83,5.11,3.95,5.11,7.14Z"/><path class="cls-5" d="M60.89,17.8,54,20.1A196.72,196.72,0,0,0,15.56,37.75L9.13,41.58l2.73,9.88,3.5-2.13A197.77,197.77,0,0,1,55.9,30.58l5-1.65Z"/><path class="cls-5" d="M59.22,13.13l-5,1.65A197.31,197.31,0,0,0,15.39,32.34L7.66,36.91,8.52,40l6.9-4.1A197.92,197.92,0,0,1,54.17,18.28L60,16.35Z"/></g></g></svg>