<svg xmlns="http://www.w3.org/2000/svg" xmlns:xlink="http://www.w3.org/1999/xlink" viewBox="0 0 165.32 92.16"><defs><style>.cls-1{fill:url(#radial-gradient);}.cls-2{fill:#0078ff;}</style><radialGradient id="radial-gradient" cx="42" cy="28.87" r="178.66" gradientUnits="userSpaceOnUse"><stop offset="0" stop-color="#fff"/><stop offset="1" stop-color="#65ddff"/></radialGradient></defs><title>icon_2</title><g id="Layer_2" data-name="Layer 2"><g id="_1" data-name="1"><path class="cls-1" d="M41.06,86.69c-8.56-.28-4.45-23.47-12.15-25.12C16,58.82,24.1,85.86,14.25,86.66c-7,.57-5.79-8.89-8.21-26.33C2.51,34.89,2,35.88,2.21,31.62,2.6,24.91,9,18.57,16,21l4.71,1.65c9,3.15,13.83-.41,18.24-1.63,2.29-.64,7.14-.45,9.41,1.41,6.08,5,3.24,11.71.17,40C46.81,78.14,47.21,86.89,41.06,86.69Z"/><path class="cls-2" d="M41.26,88.36H41c-6-.2-7.25-7.64-8.34-14.2-.75-4.54-1.68-10.19-4-10.69-1.95-.42-2.75.16-3,.34-2,1.45-2.61,6.26-3.13,10.51-.77,6.33-1.64,13.51-7.77,14-7.27.58-8-6.42-9-17C5.32,68.15,5,64.58,4.4,60.56c-1.5-10.88-2.47-16.89-3-20.49C.59,35.25.45,34.38.6,31.77A14.37,14.37,0,0,1,6.84,20.84,11.14,11.14,0,0,1,16.89,19.5l4.66,1.63c6.36,2.23,10.34.71,13.86-.62a31.19,31.19,0,0,1,3-1c2.73-.76,8.26-.56,11.11,1.78,5.5,4.53,4.77,10.22,2.81,25.4-.55,4.29-1.24,9.62-1.93,16-.28,2.53-.49,4.88-.7,7C48.65,80.89,48,88.36,41.26,88.36Zm-.17-4h.11c2.85,0,3.47-4,4.51-15.07q.3-3.27.7-7.1c.7-6.38,1.39-11.73,1.94-16C50.3,31,50.62,27.36,47,24.35c-1.6-1.32-5.65-1.53-7.49-1-.82.23-1.71.56-2.64.92-3.74,1.42-8.87,3.36-16.61.66l-4.65-1.63a7.17,7.17,0,0,0-6.52.89A10.46,10.46,0,0,0,4.59,32c-.13,2.17,0,2.77.72,7.43C5.89,43.05,6.85,49.09,8.37,60c.56,4.09.93,7.71,1.25,10.9,1.1,10.93,1.71,13.68,4.73,13.43,2.67-.22,3.39-4.49,4.12-10.51.65-5.31,1.32-10.8,4.78-13.27a7.52,7.52,0,0,1,6.18-1c5,1.07,6.09,7.61,7.14,13.94.84,5,1.78,10.77,4.52,10.86Z"/><path class="cls-2" d="M27.26,34.19a29.18,29.18,0,0,1-12.4-2.82,2,2,0,1,1,1.69-3.62c10.83,5,19.57.81,20.63.24a1.94,1.94,0,0,1,.57-.3A2,2,0,0,1,40,30.86a4.25,4.25,0,0,1-.89.6h0A25.64,25.64,0,0,1,27.26,34.19Z"/><path class="cls-2" d="M27.16,54.11C14,54.11,0,51.69,0,47.21c0-1.44,1.46-2.74,4.32-3.85l.36.94c-2.37.91-3.68,2-3.68,2.91,0,2.79,10.73,5.9,26.12,5.9S53.27,50,53.27,47.21c0-.75-.8-1.55-2.3-2.31l.45-.89c1.89,1,2.85,2,2.85,3.2C54.27,51.69,40.3,54.11,27.16,54.11Z"/><path class="cls-2" d="M19.8,54.38C9.42,54.38.27,52.77,0,49.18-.1,47.74,1.26,46.35,4,45l.43.91C2.16,47,.93,48.15,1,49.11c.21,2.78,11.12,5.11,26.48,4s25.81-5,25.61-7.78c-.05-.75-.91-1.49-2.46-2.14l.38-.92c2,.82,3,1.82,3.08,3,.32,4.47-13.43,7.9-26.54,8.86C25,54.29,22.35,54.38,19.8,54.38Z"/><path class="cls-2" d="M43.27,56a89.57,89.57,0,0,1-17.19-2C13.2,51.39,0,46.24.89,41.84a2.9,2.9,0,0,1,1.67-1.9l.47.89A2,2,0,0,0,1.87,42C1.31,44.78,11.2,50,26.28,53A83.88,83.88,0,0,0,45,54.92c4.77-.17,7.79-1.1,8.07-2.49.15-.73-.47-1.67-1.8-2.71l.62-.79c1.66,1.32,2.39,2.56,2.16,3.7-.5,2.47-5.18,3.15-9,3.29C44.45,55.94,43.87,56,43.27,56Z"/><path class="cls-2" d="M32.69,59c-.65,0-2.24-.69-6.51-4.36A50.59,50.59,0,0,1,22.28,51c-1.34-1.46-1.66-2.1-1.27-2.56.22-.26.89-1,7,4.16a52.25,52.25,0,0,1,3.89,3.68c1.35,1.46,1.67,2.11,1.28,2.56A.51.51,0,0,1,32.69,59ZM22.45,49.65a40.8,40.8,0,0,0,4.38,4.24,40.88,40.88,0,0,0,4.86,3.69,42.68,42.68,0,0,0-4.38-4.25h0A42.21,42.21,0,0,0,22.45,49.65Z"/><path class="cls-2" d="M27.63,53.45a.5.5,0,0,1-.5-.5,5.16,5.16,0,0,1,5.15-5.15.5.5,0,0,1,.5.5.5.5,0,0,1-.5.5A4.16,4.16,0,0,0,28.13,53,.5.5,0,0,1,27.63,53.45Z"/><path class="cls-2" d="M24.08,57a.5.5,0,0,1,0-1,3.06,3.06,0,0,0,3.05-3,.51.51,0,0,1,.5-.5.5.5,0,0,1,.5.5A4.05,4.05,0,0,1,24.08,57Z"/><path class="cls-2" d="M92.34,84.86c-19.09,0-41.28-15.52-41.28-35.53a.5.5,0,0,1,1,0c0,19.45,21.65,34.53,40.28,34.53a.5.5,0,0,1,0,1Z"/><path class="cls-2" d="M105.68,92.16a1.88,1.88,0,0,1-.84-.19L81.91,81.21a2,2,0,0,1-1.15-2,2,2,0,0,1,1.44-1.76l47.94-14.07a2,2,0,0,1,1.29.06l16.31,6.41a2,2,0,0,1,.08,3.69L106.5,92A2.11,2.11,0,0,1,105.68,92.16ZM88.39,79.83,105.71,88l36.13-16.1L130.6,67.44Z"/><path class="cls-2" d="M124.85,78.34a.5.5,0,0,1-.49-.43.81.81,0,0,0-.52-.71,1,1,0,0,0-1,.21.5.5,0,1,1-.7-.71,2,2,0,0,1,2-.45,1.8,1.8,0,0,1,1.2,1.52.5.5,0,0,1-.42.56Z"/><path class="cls-2" d="M147.78,70a.57.57,0,0,1-.18,0L131,63.36a.51.51,0,0,1-.32-.47v-45a.5.5,0,0,1,.5-.5H151.7a.49.49,0,0,1,.37.16.5.5,0,0,1,.13.37l-3.92,51.58a.52.52,0,0,1-.23.39A.5.5,0,0,1,147.78,70Zm-16.07-7.4,15.63,6.19,3.82-50.36H131.71Z"/><path class="cls-2" d="M149.68,73.31a.65.65,0,0,1-.19,0L128.57,65a.51.51,0,0,1-.32-.47V14.88a.5.5,0,0,1,.5-.5H155.1a.46.46,0,0,1,.37.16.45.45,0,0,1,.13.38l-5.42,57.93a.52.52,0,0,1-.24.38A.5.5,0,0,1,149.68,73.31Zm-20.43-9.09,20,7.88,5.32-56.72H129.25Z"/><path class="cls-2" d="M128.5,15.31l-6.13-3.94h0a.21.21,0,0,1-.08-.11L118.48,0l4.2,11.11-.09-.11L129,14.44a.5.5,0,1,1-.47.89Z"/><path class="cls-2" d="M127.4,13.84l1-2,0,.31-1.15-2.13h0a.12.12,0,0,1,0-.1L129.17,2l-1.57,8,0-.12L129,11.82a.31.31,0,0,1,0,.26l0,.05-.73,2.11a.5.5,0,0,1-.95-.33Z"/><path class="cls-2" d="M151.39,60.14,153,64.59l-.35-.17,2.32-.64h.11l5.78,1.72L155,64.14h.11l-2.27.84a.27.27,0,0,1-.34-.14v0l-2-4.28a.5.5,0,0,1,.91-.43Z"/><path class="cls-2" d="M154.25,19.62l3.05-3,0,0,.05,0,7.95-3.63-7.77,4,.07-.05L155,20.28a.5.5,0,0,1-.79-.61Z"/><path class="cls-2" d="M147.78,14.6l1-3.51v.1L146.23,3l2.93,8.06a.22.22,0,0,1,0,.08v0l-.4,3.63a.5.5,0,1,1-1-.11S147.77,14.62,147.78,14.6Z"/><path class="cls-2" d="M148.44,14l5.27-1.85-.11.1L155,9.78h0l0,0,5.23-4-5.14,4.1,0,0L154,12.44a.19.19,0,0,1-.1.1h0l-5.06,2.37a.49.49,0,0,1-.66-.24.5.5,0,0,1,.24-.67Z"/></g></g></svg>