<svg xmlns="http://www.w3.org/2000/svg" xmlns:xlink="http://www.w3.org/1999/xlink" viewBox="0 0 179.41 97.91"><defs><style>.cls-1{fill:url(#radial-gradient);}.cls-2{fill:url(#radial-gradient-2);}.cls-3,.cls-6{fill:#fff;}.cls-3,.cls-4,.cls-6{stroke:#0078ff;stroke-linecap:round;stroke-linejoin:round;}.cls-3{opacity:0.2;}.cls-4{fill:none;stroke-width:4px;}.cls-5{fill:#0078ff;}</style><radialGradient id="radial-gradient" cx="133.85" cy="27.9" r="332.26" gradientUnits="userSpaceOnUse"><stop offset="0" stop-color="#fff"/><stop offset="1" stop-color="#65ddff"/></radialGradient><radialGradient id="radial-gradient-2" cx="76.85" cy="44.23" r="144.31" xlink:href="#radial-gradient"/></defs><title>icon_3</title><g id="Layer_2" data-name="Layer 2"><g id="_1" data-name="1"><path class="cls-1" d="M116.4,95.9c-4.49-.29-5.41-7.3-6.25-13.67-.75-5.64,5.87-11.13,2.32-12-6.13-1.52-13.55,4.9-14.57,11.1-1.09,6.57-3,13.45-8,13.69-5.22.25-7.36-11.23-6.52-15.29.68-3.27,7-7.14,6.52-11.47C87.24,43,86.66,44,87,39.75c.61-6.63,7.15-12.69,14-10l4.6,1.78c8.8,3.4,13.69,0,18.09-1,2.29-.56,7.08-.22,9.26,1.7,5.85,5.15,2.83,11.68-1.13,39.58-.6,4.19-6.51,8.31-6.93,11.45C123.75,91.64,120.82,96.19,116.4,95.9Z"/><path class="cls-2" d="M83.58,39c-3.49.84-7.37,3.51-14.35.81l-3.65-1.41c-5.42-2.09-10.6,2.71-11.08,8-.31,3.33.15,2.57,2.27,22.62.36,3.43-5.18,2.2-5.18,9.09,0,7.88,1,12.34,5.17,12.14,4-.2,5.49-5.66,6.35-10.87.81-4.91,4.37-9.37,9.23-8.16,2.82.7-1.34,4.64-.75,9.12.67,5.05.61,10.39,4.17,10.62,2.71.18,7-4.15,7.45-9.12L89.9,68.25,87.3,38.87A11.28,11.28,0,0,0,83.58,39Z"/><path class="cls-3" d="M165.78,51.24s-13.94-8.47-30.27-20.13S106.64,9,106.64,9s14.22,8.09,30.55,19.75S165.78,51.24,165.78,51.24Z"/><path class="cls-3" d="M157.65.5s-8.47,13.94-20.13,30.28-22.1,28.86-22.1,28.86,8.09-14.21,19.75-30.54S157.65.5,157.65.5Z"/><path class="cls-3" d="M158.72,27.73s-10,1.78-22.41,3.05-22.57,1.54-22.57,1.54,10-2.07,22.39-3.33S158.72,27.73,158.72,27.73Z"/><path class="cls-3" d="M134.07,7.38s1.77,10,3,22.41,1.54,22.57,1.54,22.57-2.06-10-3.33-22.39S134.07,7.38,134.07,7.38Z"/><path class="cls-4" d="M116.4,95.9c-4.49-.29-5.41-7.3-6.25-13.67-.75-5.64,5.87-11.13,2.32-12-6.13-1.52-13.55,4.9-14.57,11.1-1.09,6.57-3,13.45-8,13.69-5.22.25-7.36-11.23-6.52-15.29.68-3.27,7-7.14,6.52-11.47C87.24,43,86.66,44,87,39.75c.61-6.63,7.15-12.69,14-10l4.6,1.78c8.8,3.4,13.69,0,18.09-1,2.29-.56,7.08-.22,9.26,1.7,5.85,5.15,2.83,11.68-1.13,39.58-.6,4.19-6.64,7-6.26,9.72C126.74,89.91,120.82,96.19,116.4,95.9Z"/><path class="cls-4" d="M83.21,81.82c-.4,5-4.74,9.3-7.45,9.12-3.56-.23-3.5-5.57-4.17-10.62-.59-4.48,3.57-8.42.75-9.12-4.86-1.21-8.42,3.25-9.23,8.16-.86,5.22-2.37,10.67-6.35,10.87-4.14.2-5.16-4.26-5.17-12.14,0-6.89,5.54-5.66,5.18-9.09-2.12-20-2.58-19.29-2.27-22.62.48-5.26,5.66-10.06,11.08-8l3.65,1.41c7,2.7,10.86,0,14.35-.81a11.28,11.28,0,0,1,3.72-.14"/><path class="cls-4" d="M100.22,37.85c12.65,6.41,23.26.57,22.7.75"/><path class="cls-4" d="M66.56,47a16.47,16.47,0,0,0,14.68.49"/><path class="cls-5" d="M55.63,73.2,0,71.2l55.63-2a2,2,0,1,1,.15,4Z"/><path class="cls-5" d="M132.15,69.2l47.26,2-47.26,2a2,2,0,1,1-.17-4Z"/><polygon class="cls-6" points="136.23 17.58 139.08 26.36 148.31 26.36 140.84 31.78 143.69 40.55 136.23 35.13 128.76 40.55 131.61 31.78 124.15 26.36 133.38 26.36 136.23 17.58"/></g></g></svg>