<svg xmlns="http://www.w3.org/2000/svg" viewBox="0 0 344.34 344.34"><path d="M342.879 253.96l-25.006-32.354c.657-3.739 1.083-7.539 1.256-11.384.005-.108.007-.217.007-.326l-.213-124.934c-.013-15.054-12.264-27.292-27.315-27.292h-.022c-14.873.013-26.988 11.973-27.279 26.784-4.796-.573-9.722.119-14.23 2.09L203.42 26.021c-9.196-11.929-26.384-14.152-38.311-4.956-3.976 3.065-6.966 7.069-8.75 11.625-3.908-3.203-8.637-5.265-13.773-5.929-7.24-.936-14.403 1.001-20.181 5.457-10.244 7.897-13.322 21.683-8.167 32.975-4.756.552-9.426 2.355-13.485 5.485-11.929 9.196-14.152 26.381-4.957 38.31l4.197 5.445-42.027 39.748c-16.635 15.731-26.321 36.746-27.494 59.484L2.61 236.101c-3.005 2.42-3.485 6.816-1.073 9.828l64.391 80.393c1.383 1.726 3.416 2.625 5.469 2.625 1.522 0 3.056-.495 4.341-1.513l27.948-22.133c6.561 1.121 13.234 1.5 19.896 1.128.108-.006.217-.015.324-.026l103.466-10.642 22.85 29.641c1.134 1.47 2.805 2.43 4.646 2.668.3.039.6.058.898.058 1.538 0 3.043-.507 4.273-1.456l81.575-62.886c1.472-1.134 2.432-2.807 2.669-4.65.237-1.844-.268-3.706-1.404-5.176zM278.292 84.998c-.006-7.342 5.963-13.321 13.305-13.327h.011c7.337 0 13.309 5.966 13.315 13.31l.213 124.773c-1.028 21.847-11.535 42.018-28.843 55.361-1.172.903-2.374 1.756-3.589 2.584.059-1.331.021-2.676-.117-4.025-1.527-14.982-14.961-25.925-29.954-24.401l-19.918 2.056 72.489-68.559c10.943-10.349 11.426-27.671 1.077-38.614-3.523-3.725-7.854-6.235-12.467-7.521 6.853-10.35 5.961-24.448-2.926-33.845-.819-.865-1.686-1.658-2.585-2.393l-.011-5.399zM168.579 40.99c.456-3.527 2.259-6.666 5.075-8.837 5.814-4.483 14.193-3.399 18.676 2.416l24.835 32.216c-5.732.714-11.062 3.214-15.335 7.255l-7.342 6.944-23.242-30.148c-.002-.003-.004-.007-.007-.01-2.171-2.816-3.116-6.309-2.66-9.836zm-37.629 2.315c2.817-2.172 6.312-3.116 9.838-2.66 3.527.456 6.666 2.258 8.837 5.076l14.892 19.317c-.207-.01-.413-.027-.62-.032-7.311-.208-14.23 2.446-19.53 7.459l-4.482 4.239-.819-1.063c-.002-.002-.003-.005-.005-.007-.003-.004-.007-.008-.01-.013L128.534 61.98c-4.482-5.815-3.398-14.192 2.416-18.675zm-24.068 57.135c-4.482-5.815-3.398-14.192 2.416-18.675 5.813-4.482 14.188-3.399 18.671 2.411l1.692 2.195-4.833 4.571c-.01.009-.02.019-.029.028l-14.584 13.793-3.333-4.323zm15.757 192.018c-6.489.352-12.999-.149-19.354-1.483-2.029-.427-4.153.072-5.783 1.363l-24.999 19.798-55.674-69.51 24.921-20.069c1.622-1.306 2.578-3.267 2.608-5.348.3-20.204 8.548-38.976 23.226-52.856l46.609-44.081c.017-.016.033-.031.049-.047l20.986-19.848c.01-.009.02-.019.029-.028l8.547-8.083c.056-.051.11-.103.164-.155l10.018-9.475c2.585-2.444 5.982-3.735 9.521-3.636 3.556.099 6.859 1.577 9.303 4.161 2.444 2.584 3.735 5.965 3.637 9.52-.1 3.555-1.577 6.859-4.161 9.303l-.006.006-44.299 41.896c-2.81 2.657-2.933 7.087-.276 9.896 1.377 1.456 3.23 2.19 5.087 2.19 1.727 0 3.456-.635 4.809-1.914l73.851-69.846c2.585-2.444 5.98-3.731 9.521-3.636 3.556.099 6.859 1.577 9.303 4.161 2.444 2.584 3.735 5.965 3.637 9.52-.1 3.555-1.577 6.859-4.161 9.303-.002.002-.005.005-.007.008l-73.843 69.838c-2.81 2.657-2.933 7.087-.276 9.896 2.657 2.809 7.088 2.932 9.896.276l86.377-81.692c5.337-5.045 13.779-4.809 18.823.525 5.045 5.334 4.81 13.778-.524 18.823l-86.376 81.692c-2.81 2.657-2.933 7.087-.276 9.896 1.377 1.456 3.229 2.19 5.087 2.19 1.727 0 3.456-.635 4.809-1.914l73.851-69.846c5.334-5.044 13.778-4.809 18.823.525 5.045 5.334 4.81 13.778-.524 18.823l-87.468 82.724c-2.179 2.061-2.803 5.28-1.553 8.005 1.252 2.726 4.102 4.353 7.081 4.043l40.416-4.172c7.301-.74 13.853 4.591 14.598 11.896.361 3.538-.678 7.005-2.925 9.762-2.246 2.757-5.433 4.474-8.977 4.835l-124.125 12.765zm134.396 18.851l-13.285-17.234 4.434-.456c4.125-.421 8.015-1.742 11.452-3.841 9.064-3.115 17.544-7.671 25.204-13.576 12.868-9.919 22.571-23.013 28.334-37.782l14.342 18.556-70.481 54.333z" fill="#caac7d"/></svg>