<?xml version="1.0" encoding="utf-8"?>
<!-- Generator: Adobe Illustrator 10.0, SVG Export Plug-In . SVG Version: 3.0.0 Build 76)  -->
<!DOCTYPE svg PUBLIC "-//W3C//DTD SVG 1.0//EN"    "http://www.w3.org/TR/2001/REC-SVG-20010904/DTD/svg10.dtd" [
	<!ENTITY ns_flows "http://ns.adobe.com/Flows/1.0/">
	<!ENTITY ns_extend "http://ns.adobe.com/Extensibility/1.0/">
	<!ENTITY ns_ai "http://ns.adobe.com/AdobeIllustrator/10.0/">
	<!ENTITY ns_graphs "http://ns.adobe.com/Graphs/1.0/">
	<!ENTITY ns_vars "http://ns.adobe.com/Variables/1.0/">
	<!ENTITY ns_imrep "http://ns.adobe.com/ImageReplacement/1.0/">
	<!ENTITY ns_sfw "http://ns.adobe.com/SaveForWeb/1.0/">
	<!ENTITY ns_custom "http://ns.adobe.com/GenericCustomNamespace/1.0/">
	<!ENTITY ns_adobe_xpath "http://ns.adobe.com/XPath/1.0/">
	<!ENTITY ns_svg "http://www.w3.org/2000/svg">
	<!ENTITY ns_xlink "http://www.w3.org/1999/xlink">
]>
<svg 
	 xmlns:x="&ns_extend;" xmlns:i="&ns_ai;" xmlns:graph="&ns_graphs;" i:viewOrigin="217 418" i:rulerOrigin="0 0" i:pageBounds="0 792 612 0"
	 xmlns="&ns_svg;" xmlns:xlink="&ns_xlink;" xmlns:a="http://ns.adobe.com/AdobeSVGViewerExtensions/3.0/" width="175" height="45"
	 viewBox="0 0 175 45" overflow="visible" enable-background="new 0 0 175 45" xml:space="preserve">
	<metadata>
		<variableSets  xmlns="&ns_vars;">
			<variableSet  varSetName="binding1" locked="none">
				<variables></variables>
				<v:sampleDataSets  xmlns="&ns_custom;" xmlns:v="&ns_vars;"></v:sampleDataSets>
			</variableSet>
		</variableSets>
		<sfw  xmlns="&ns_sfw;">
			<slices></slices>
			<sliceSourceBounds  y="373" x="217" width="175" height="45" bottomLeftOrigin="true"></sliceSourceBounds>
		</sfw>
	</metadata>
	<g id="Layer_1" i:layer="yes" i:dimmedPercent="50" i:rgbTrio="#4F008000FFFF">
		<path i:knockout="Off" opacity="0" fill-rule="evenodd" clip-rule="evenodd" fill="#FFFFFF" d="M175,45H0V0h175V45z"/>
		<g>
			<g>
				<path i:knockout="Off" fill-rule="evenodd" clip-rule="evenodd" fill="#091C5A" d="M9.252,13.29
					c1.204,0,2.043,0.255,2.564,0.776c0.583,0.583,0.844,1.546,0.844,3.122v19.685c0,2.724-0.571,3.939-3.941,3.939H8.257v1.208
					h15.145v-1.202l-0.457-0.006c-3.338-0.04-3.901-1.248-3.901-3.939V17.187c0-1.571,0.26-2.53,0.843-3.112
					c0.526-0.529,1.38-0.786,2.609-0.786h0.905v-1.225H8.257v1.225H9.252z"/>
				<path i:knockout="Off" fill-rule="evenodd" clip-rule="evenodd" fill="#091C5A" d="M57.69,31.978c0,0-0.263-1.229-0.301-1.917
					V21.07c-0.059-5.243,0.656-7.853-3.928-7.833v-1.178h10.545v1.178c-4.721-0.019-4.127,2.591-4.154,7.833v20.994l-1.501-0.016
					L35.58,18.218c0,0,0.256,1.227,0.294,1.916v14.723c-0.129,5.371,0.536,6.02,3.996,5.957v1.227H28.877v-1.227
					c3.465,0.004,4.146-0.457,4.142-6.395v0.355v-14.51l-0.028-2.303c0.129-2.981-0.972-4.71-4.333-4.682v-1.179h10.121
					L57.69,31.978z"/>
				<path i:knockout="Off" fill-rule="evenodd" clip-rule="evenodd" fill="#091C5A" d="M95.862,11.487H94.7l-0.054,0.398
					c-0.079,0.594-0.313,1.589-0.99,1.589c-0.193,0-0.674-0.091-1.216-0.339c-2.354-1.02-5.404-1.648-7.972-1.648
					c-4.997,0-9.53,1.79-12.768,5.042c-2.974,2.988-4.601,7.055-4.578,11.45c0.021,4.21,1.676,7.673,5.064,10.592
					c3.413,2.92,7.237,4.165,12.794,4.165c4.629,0,7.279-0.665,11.346-2.848l0.712-0.386v-7.855c0-3.348,0.41-3.869,3.134-3.979
					l0.443-0.017v-1.167H87.307v1.167l0.443,0.017c3.034,0.118,3.607,0.662,3.607,3.43v7.279c-2.251,1.485-3.887,2.049-5.95,2.049
					c-3.053,0-5.77-1.18-7.856-3.264c-2.443-2.445-3.635-6.006-3.635-10.03c0-4.335,1.154-8.033,3.532-10.409
					c1.893-1.893,4.407-2.944,7.275-2.944c2.562,0,5.538,1.099,7.579,2.718c1.66,1.359,2.521,2.674,3.171,4.847l0.099,0.329h1.136
					L95.862,11.487z"/>
			</g>
			<g>
				<path i:knockout="Off" fill-rule="evenodd" clip-rule="evenodd" fill="#FFFFFF" d="M154.151,41.939
					c0.74-0.112,1.525-0.095,2.115-0.637c2.5,0.384,5.034-0.234,6.999-1.611c1.035-0.835,1.968-1.804,2.723-2.863
					c0.664-0.932,1.188-1.801,1.527-2.845c0.253-0.644,0.453-1.314,0.604-2.002c0.713-3.244,0.338-6.872-0.718-9.957
					c-0.193-0.573-0.414-1.128-0.654-1.657c-1.318-2.724-3.112-5.663-5.874-7.386c-1.556-0.97-2.988-2.471-3.867-4.025
					c-0.478-0.43-0.936-1-1.554-1.103c0.169,0.279,0.355,0.552,0.401,0.878l-0.036,0.046c-0.656,0.019-1.17-0.328-1.619-0.748
					l0.495-0.449c-0.187-0.095-0.401-0.131-0.608-0.179c-1.889-0.215-3.443,0.657-5.119,1.077l-0.026,0.093
					c1.029,0.458,1.244,1.592,1.843,2.359c0.148-0.178,0.401-0.048,0.608-0.064c0.299,0.017,0.58,0.233,0.87,0.157
					c0.009-0.25-0.132-0.449-0.177-0.673c0.177-0.084,0.392-0.01,0.59,0c0.542,0.317,1.411-0.056,1.749,0.673
					c-0.618,0.039-1.198,0.169-1.778,0.31c0.038,0.234,0.272,0.42,0.253,0.655c-0.496-0.206-1.021-0.336-1.573-0.401l-0.028,0.083
					c0.702,0.823,1.666,1.311,2.649,1.6c1.414,0.327,2.658-0.346,4.023-0.112c3.352,1.535,6.215,5.046,7.46,8.378
					c0.061,0.16,0.12,0.322,0.175,0.487c1.043,3.043,1.241,6.783,0.196,9.957c-0.556,1.32-1.168,2.566-2.149,3.639
					c-0.371,0.457-0.781,0.864-1.227,1.208c-1.405,1.094-3.137,1.577-4.923,1.087c-0.112-0.077-0.337-0.096-0.299-0.291
					c0.062-0.261,0.12-0.525,0.171-0.796c0.295-1.521,0.433-3.121,0.353-4.721c-0.002-0.068-0.004-0.137-0.006-0.205
					c-0.099-2.323-0.562-4.411-1.415-6.42c-0.548-1.153-1.198-2.41-2.017-3.538c-0.978-1.345-2.191-2.507-3.749-3.087
					c-0.955-0.253-2.134-0.301-2.854,0.494c-0.515,0.451-0.729,1.058-0.655,1.724c-0.805,0.51-1.71,0.785-2.695,0.869
					c-0.241,0.021-0.488,0.11-0.739,0.107c-0.238,0.011-0.47,0.001-0.698-0.027c-1.185-0.146-2.384-0.786-3.295-1.516
					c-0.019-0.487-0.047-0.945-0.066-1.46c-0.522-0.271-0.955-0.786-0.991-1.395l0.046-0.046c0.301,0.093,0.561,0.242,0.833,0.401
					c-0.122-0.73-0.263-1.45-0.626-2.087c-0.338-0.141-0.675-0.253-0.992-0.422c-0.365-0.241-0.6-0.683-0.654-1.084
					c0.327,0.318,0.897,0.206,1.15,0.542c-0.441-1.301-0.448-2.789-1.17-3.978c-0.365-0.879-1.32-1.282-1.975-1.927
					c-0.253-0.31-0.355-0.74-0.813-0.788c-0.375-0.093-0.403-0.513-0.468-0.786c0.233,0.028,0.429,0.187,0.625,0.224
					c-0.542-1.439-1.02-3.041-2.488-3.958l-0.252,0.16c-0.571,0.084-1.18,0.122-1.75,0.141c0.253-0.374,0.701-0.534,1.057-0.704
					c-0.412-0.308-0.751-0.382-1.266-0.466c-0.299,0.298-0.84,0.449-1.224,0.533l-0.048-0.038c-0.01-0.337-0.086-0.748,0.421-0.833
					c-0.487-0.234-1.294-0.139-1.79,0c-0.139,0.365-0.541,0.693-0.512,1.125c-0.289,0.299-0.495,0.702-0.796,0.917
					c-0.009-0.721,0.298-1.385,0.429-1.993c-0.421,0.159-0.849,0.384-1.262,0.58c-0.663-0.384-1.363-0.767-2.074-1.058
					c-0.064-0.028-0.206-0.055-0.178,0.066c0.609,0.439,0.373,1.264,0.438,1.889l-0.384-0.317c-0.187-0.477-0.727-0.823-0.82-1.347
					c-0.637,0.122-1.044,0.29-1.634,0.543l-0.081,0.047c0.439,0,0.813,0.345,1.028,0.693c-0.664,0.036-1.254-0.225-1.909-0.292
					c-0.065-0.064-0.122-0.141-0.225-0.131c-0.327,0.122-0.609,0.355-0.897,0.58c-0.646,0.637-1.302,1.339-1.61,2.182
					c0.216,0.036,0.487,0.027,0.646,0.158c-0.355,0.215-0.664,0.581-1.01,0.786c-0.122,0.487-0.103,1.041-0.132,1.573
					c-0.272,0.413-0.636,0.776-0.813,1.237c-0.581,1.878-0.73,3.967-0.646,6.1c-0.188,0.179-0.432,0.292-0.608,0.432l0.019,1.908
					h0.046c0.084-0.401,0.562-0.625,0.852-0.897h0.094c-0.047,0.43-0.103,0.861-0.112,1.301l-0.542,0.449
					c-0.544,0.478-0.085,1.198-0.131,1.798c0.038,0.157,0.064,0.392,0.177,0.43c0.066-0.234,0.271-0.402,0.403-0.609
					c0.233-0.055,0.439-0.244,0.654-0.27c-0.122,0.468-0.279,0.926-0.468,1.375c-0.09,0.059-0.195,0.138-0.285,0.234
					c-0.096,0.103-0.173,0.218-0.193,0.346c0.423,2.217,1.085,4.407,1.842,6.494c-0.513,0.871-0.805,1.896-1.233,2.795
					c-0.062,0.125-0.117,0.254-0.168,0.384c-0.43,1.088-0.561,2.305-1.096,3.35c-0.217-0.148-0.451-0.263-0.692-0.365
					c-1.012-0.337-2.182-0.122-2.92,0.656c-0.656-0.122-1.33-0.01-1.845,0.337c-0.369,0.275-0.654,0.61-0.818,1
					c-0.112,0.272-0.163,0.568-0.146,0.891c-0.42,0.289-0.645,0.737-0.785,1.188c-0.196,1.01,0.159,2.062,0.739,2.84H154.151z"/>
				<path i:knockout="Off" fill-rule="evenodd" clip-rule="evenodd" fill="#FFFFFF" d="M147.956,20.896
					c-0.01,0.243-0.187,0.516-0.028,0.721c0.225-0.253,0.6-0.244,0.899-0.355c0.832-0.075,1.628,0.186,2.404,0.375
					c-0.195-0.31-0.327-0.654-0.542-0.936c-0.432-0.112-1.086,0.187-1.16-0.449c-0.263-0.225-0.676-0.064-0.945-0.048
					C148.321,20.393,148.106,20.625,147.956,20.896z"/>
				<path i:knockout="Off" fill-rule="evenodd" clip-rule="evenodd" fill="#FFFFFF" d="M119.354,12.816
					c-0.004-0.004-0.01-0.008-0.014-0.009c0,0.001,0,0.005,0.002,0.009H119.354z"/>
				<path i:knockout="Off" fill-rule="evenodd" clip-rule="evenodd" fill="#FFFFFF" d="M122.756,21.134l0.562-0.542
					c0.048,0,0.084,0.01,0.112,0.048l-0.047,1.038c0.271,0.253,0.608,0.337,0.963,0.356c0.029-0.281,0.244-0.477,0.366-0.721
					c0.103-0.196,0.038-0.487,0.243-0.628l0.064,0.066c0.067,0.308,0.049,0.655,0.208,0.926c0.019,0.149,0.046,0.337,0.064,0.468
					c0.412,0.02,0.785-0.094,1.104-0.243c-0.019-0.355,0.104-0.646,0.158-0.974c0.086-0.113-0.103-0.318,0.132-0.308
					c0.131,0.28,0.365,0.57,0.496,0.869c0.542-0.552,0.767-1.272,0.898-2.02c-0.158-0.217-0.402-0.217-0.59-0.356
					c-1.59-0.515-3.632-0.619-5.167,0.177C122.223,19.928,122.354,20.63,122.756,21.134z"/>
				<path i:knockout="Off" fill-rule="evenodd" clip-rule="evenodd" fill="#FFFFFF" d="M107.884,38.696
					c-0.057,0.722,0,1.398,0.045,2.109c0.151,0.234,0.423,0.506,0.692,0.525l0.049-0.478c0.111-0.666-0.244-1.372,0.131-1.933
					c0.262,0.084,0.522,0.215,0.749,0.337c0.11-0.618-0.047-1.338-0.637-1.712L107.884,38.696z"/>
				<path i:knockout="Off" fill-rule="evenodd" clip-rule="evenodd" fill="#FFFFFF" d="M110.194,37.687
					c-0.365,1.094-0.637,2.446-0.195,3.597c0.251-0.167,0.514-0.327,0.737-0.561c-0.045-0.881-0.167-1.821,0.356-2.551
					c0.458,0.141,0.769,0.581,0.945,1.012c0.31-0.395,0.413-0.937,0.291-1.462c0.019-0.41-0.451-0.316-0.675-0.486
					c0.076-0.346,0.065-0.747,0.431-0.943l-1.123,0.112C110.672,36.815,110.354,37.219,110.194,37.687z"/>
				<path i:knockout="Off" fill-rule="evenodd" clip-rule="evenodd" fill="#FFFFFF" d="M112.506,40.918
					c0.048,0.086,0,0.234,0.094,0.253c0.141-0.785,0.777-1.295,1.124-1.987c0.167-0.234,0.157-0.562,0.429-0.74
					c0.366,0,0.628,0.263,0.984,0.291c0.112,0.084-0.058,0.158-0.066,0.251c-0.074,0.638-0.318,1.166-0.271,1.82h0.064
					c0.496-0.522,0.833-1.09,1.198-1.689l0.064-0.532c0.084-0.637-0.608-1.048-1.057-1.31l0.402-0.515l-0.561-0.197
					c-0.656,0.066-1.246,0.337-1.704,0.853C112.637,38.463,112.544,39.646,112.506,40.918z"/>
				<path i:knockout="Off" fill-rule="evenodd" clip-rule="evenodd" fill="#FFFFFF" d="M115.024,35.364
					c0.215,0.066,0.411-0.112,0.625-0.018c0.862,0.317,1.761,0.645,2.406,1.366l0.768,1.955l0.384-1.206l-0.253-0.656
					c-0.215-0.468-0.805-0.43-1.208-0.449c-0.167-0.187,0.01-0.403,0.067-0.58c0.195-0.664-0.619-0.628-0.946-0.897
					c0.02-0.403-0.468-0.263-0.74-0.301l-0.093-0.112c-0.055-0.084-0.195-0.084-0.271-0.019c-0.02-0.027-0.056-0.046-0.036-0.094
					l-0.208,0.048C115.23,34.654,115.033,34.981,115.024,35.364z"/>
				<path i:knockout="Off" fill-rule="evenodd" clip-rule="evenodd" fill="#FFFFFF" d="M115.566,33.213
					c0.028,0.121,0.103,0.243,0.196,0.317c0.422-0.112,0.823-0.401,1.31-0.225c0.628,0.552,1.282,1.132,2.042,1.433l0.27-0.048
					c0.169,0.058,0.355,0.066,0.468,0.253c0.104,0.253-0.157,0.403-0.243,0.608c0.422,0.309,0.253,0.862,0.516,1.235l0.674-0.898
					c-0.158-0.394,0.009-1.067-0.609-1.104c-0.205-0.104-0.346-0.31-0.337-0.544c-0.401-0.365-0.897-0.523-1.301-0.897
					c-0.327-0.263-0.523-0.666-0.945-0.759c-0.289-0.158-0.606-0.243-0.943-0.317C116.034,32.174,115.979,32.921,115.566,33.213z"/>
				<path i:knockout="Off" fill-rule="evenodd" clip-rule="evenodd" fill="#FFFFFF" d="M116.464,31.369l0.113,0.178
					c0.467-0.029,0.89-0.234,1.349-0.225c0.308,0.188,0.711,0.179,1.028,0.337c0.253,0.346,0.525,0.739,0.897,0.974
					c0.76,0.111,1.18,0.926,1.442,1.524v-0.29c0.112-0.401-0.01-0.87-0.16-1.234c-0.187-0.188-0.458-0.311-0.654-0.479
					c-0.038-0.121-0.01-0.178,0.028-0.29c-0.291-0.309-0.721-0.478-1.076-0.72c-0.496-0.721-1.451-0.524-2.209-0.721L116.464,31.369
					z"/>
				<path i:knockout="Off" fill-rule="evenodd" clip-rule="evenodd" fill="#FFFFFF" d="M116.449,24.503
					c0.083,0.291,0.185,0.656,0.24,0.964c0.262-0.58,0.779-0.84,1.237-1.318c-0.263-0.179-0.589-0.263-0.879-0.319v-0.017
					C116.841,24.018,116.523,24.224,116.449,24.503z"/>
				<path i:knockout="Off" fill-rule="evenodd" clip-rule="evenodd" fill="#FFFFFF" d="M118.149,27.582l0.421-0.43
					c0.422-0.43,0.768-0.927,0.833-1.479c-0.299-0.178-0.692-0.057-0.982,0.046C118.316,26.329,118.159,26.928,118.149,27.582z"/>
				<path i:knockout="Off" fill-rule="evenodd" clip-rule="evenodd" fill="#FFFFFF" d="M118.457,28.902
					c0.647,0.038,1.273,0.167,1.798-0.195l0.523-1.686c-0.167-0.01-0.337-0.084-0.495-0.028
					C119.938,27.761,119.243,28.518,118.457,28.902z"/>
				<path i:knockout="Off" fill-rule="evenodd" clip-rule="evenodd" fill="#FFFFFF" d="M118.647,22.931
					c0.421,0.619,1.123,1.311,1.844,1.506c-0.084-0.785-0.757-1.329-1.104-2.002l-0.02-0.225c-0.271-0.263-0.599-0.439-0.88-0.581
					C118.442,22.08,118.564,22.511,118.647,22.931z"/>
				<path i:knockout="Off" fill-rule="evenodd" clip-rule="evenodd" fill="#FFFFFF" d="M120.929,28.977
					c0.496,0.086,1.029,0,1.487-0.142c0.666-0.157,1.031-0.888,1.255-1.458h-0.833l-0.899,0.879
					C121.585,28.444,121.246,28.726,120.929,28.977z"/>
				<path i:knockout="Off" fill-rule="evenodd" clip-rule="evenodd" fill="#FFFFFF" d="M120.828,22.08
					c0.141,0.73,0.448,1.394,0.871,2.022l0.112-1.395L120.828,22.08z"/>
				<path i:knockout="Off" fill-rule="evenodd" clip-rule="evenodd" fill="#FFFFFF" d="M123.896,25.72
					c0.056-0.468-0.139-1.01-0.193-1.487c-0.282-0.188-0.676-0.169-0.965-0.355C122.756,24.617,123.335,25.243,123.896,25.72z"/>
				<path i:knockout="Off" fill-rule="evenodd" clip-rule="evenodd" fill="#FFFFFF" d="M123.044,30.476
					c0.59-0.188,1.16-0.394,1.702-0.694c0.346-0.494,0.871-0.946,0.945-1.525c-0.43,0.121-0.805-0.018-1.206,0.179
					c-0.243,0.439-0.394,0.936-0.861,1.253C123.55,30.006,123.203,30.223,123.044,30.476z"/>
				<path i:knockout="Off" fill-rule="evenodd" clip-rule="evenodd" fill="#FFFFFF" d="M123.96,31.627l0.702,0.916
					c0.375,0.122,0.843,0.084,1.17-0.131l-0.253-0.833C125.084,31.768,124.495,31.71,123.96,31.627z"/>
				<path i:knockout="Off" fill-rule="evenodd" clip-rule="evenodd" fill="#FFFFFF" d="M125.131,24.999l0.271,1.236
					c0.654-0.534,0.787-1.311,0.771-2.134C125.798,24.531,125.579,24.794,125.131,24.999z"/>
				<path i:knockout="Off" fill-rule="evenodd" clip-rule="evenodd" fill="#FFFFFF" d="M126.974,27.181
					c0.01,0.177,0.057,0.346,0.16,0.487c0.729,0.261,0.804,1.15,1.479,1.487c0.439,0.196,0.943-0.048,1.328-0.225
					c-0.29-0.327-0.619-0.554-0.898-0.899c-0.197-0.084-0.394-0.206-0.384-0.449L126.974,27.181z"/>
				<path i:knockout="Off" fill-rule="evenodd" clip-rule="evenodd" fill="#FFFFFF" d="M127.554,31.598
					c0.319,0.365,0.749,0.552,1.198,0.654c-0.074-0.103,0.048,0,0.066-0.065l-0.563-1.233c-0.28,0.007-0.57,0.064-0.832,0.046
					C127.441,31.204,127.489,31.409,127.554,31.598z"/>
				<path i:knockout="Off" fill-rule="evenodd" clip-rule="evenodd" fill="#FFFFFF" d="M128.547,25.832
					c-0.263-0.608-0.373-1.347-0.447-2.02c-0.281,0.336-0.571,0.552-0.833,0.897C127.145,25.402,128.134,25.572,128.547,25.832z"/>
				<path i:knockout="Off" fill-rule="evenodd" clip-rule="evenodd" fill="#FFFFFF" d="M129.688,25.197
					c0.337,0.439,1.076,0.289,1.49,0.158c-0.198-0.337-0.832-0.533-0.944-0.898c-0.066-0.645-0.195-1.272-0.403-1.862
					C129.503,23.39,129.108,24.336,129.688,25.197z"/>
				<path i:knockout="Off" fill-rule="evenodd" clip-rule="evenodd" fill="#FFFFFF" d="M130.277,27.181
					c0.937,0.684,1.853,1.478,3.163,1.188c0.094-0.066,0.253-0.057,0.272-0.178c-0.385-0.244-0.795-0.431-1.189-0.654l-0.448-0.656
					h-0.206C131.363,27.05,130.819,27.114,130.277,27.181z"/>
				<path i:knockout="Off" fill-rule="evenodd" clip-rule="evenodd" fill="#FFFFFF" d="M130.297,34.771h0.064
					c0.563-0.449,1.227-0.599,1.891-0.787c0.179,0.065,0.066,0.262,0.225,0.338c0.403-0.169,0.89-0.131,1.301-0.272
					c0.497,0.02,0.9,0.029,1.301,0.244c0.317,0.42,0.917,0.375,1.33,0.654l-0.066-0.654c-0.87-1.021-2.228-1.096-3.48-1.076
					l-0.029-0.132c-0.299,0-0.635,0.066-0.916,0.198c-0.402,0.017-0.786,0.215-1.171,0.336
					C130.568,33.976,130.428,34.405,130.297,34.771z"/>
				<path i:knockout="Off" fill-rule="evenodd" clip-rule="evenodd" fill="#FFFFFF" d="M131.048,23.269
					c0.365,0.478,0.907,0.842,1.525,0.721c-0.317-0.309-0.683-0.638-0.702-1.077c0.094-0.833-0.823-0.898-1.272-1.33
					C130.747,22.146,130.73,22.772,131.048,23.269z"/>
				<path i:knockout="Off" fill-rule="evenodd" clip-rule="evenodd" fill="#FFFFFF" d="M130.953,36.428h0.109
					c0.497-0.311,1.218-0.076,1.705-0.404c0.271-0.141,0.289,0.234,0.478,0.337c0.458,0.281,0.514,1.122,1.16,0.927
					c0.776,0.402,0.58,1.349,0.608,2.041l0.721-0.449c-0.066-0.365,0.139-0.807-0.095-1.124c-0.177-0.401-0.663-0.439-0.897-0.767
					c0.281-0.478-0.355-0.701-0.487-1.048l0.038-0.048l0.99,0.131c0.339,0.206,0.459,0.581,0.563,0.927
					c0.777,0.131,0.964,1.01,1.236,1.572c0.159-0.384,0.224-0.796,0.384-1.169c0.009-0.31-0.403-0.31-0.608-0.449
					c-0.058-0.477-0.272-0.928-0.692-1.217c-0.862-0.215-1.619-0.693-2.564-0.693l-0.787,0.244c-0.431,0.103-0.889-0.028-1.216,0.27
					C131.11,35.546,131.073,36.081,130.953,36.428z"/>
				<path i:knockout="Off" fill-rule="evenodd" clip-rule="evenodd" fill="#FFFFFF" d="M131.447,32.571l0.179,0.084
					c0.382-0.179,0.767-0.384,1.17-0.534c0.626-0.178,1.113,0.534,1.638,0.085c0.196-0.141,0.363,0.065,0.514,0.178
					c0.225,0.412,0.749,0.384,1.142,0.496c-0.196-0.533-0.439-1.264-1.123-1.35c-0.271-0.121-0.59-0.109-0.852-0.27
					c-0.72-0.795-1.188,0.654-1.975,0.299C131.86,31.87,131.514,32.159,131.447,32.571z"/>
				<path i:knockout="Off" fill-rule="evenodd" clip-rule="evenodd" fill="#FFFFFF" d="M131.626,37.129
					c0.299,0.251,0.607,0.683,1.074,0.626c0.583,0.272,0.339,1.038,0.657,1.441l0.336-0.3l-0.028-0.018l0.048-0.047l0.02,0.028
					c0.093-0.282-0.039-0.778-0.198-1.105c-0.215-0.148-0.468,0.01-0.673-0.131c-0.029-0.299-0.216-0.449-0.431-0.636
					c-0.15-0.112-0.347,0.038-0.515,0.028L131.626,37.129z"/>
				<path i:knockout="Off" fill-rule="evenodd" clip-rule="evenodd" fill="#FFFFFF" d="M132.796,25.72
					c0.309,0.516,0.907,0.834,1.385,1.189c0.392,0.179,0.907,0.224,1.329,0.131c-0.402-0.327-0.768-0.701-1.104-1.096
					c-0.131-0.187-0.16-0.42-0.337-0.589C133.627,25.44,133.133,25.431,132.796,25.72z"/>
				<path i:knockout="Off" fill-rule="evenodd" clip-rule="evenodd" fill="#FFFFFF" d="M133.312,22.371
					c0.432,0.532,1.096,0.318,1.704,0.336v-0.064l-0.936-0.788C133.817,21.94,133.538,22.173,133.312,22.371z"/>
				<path i:knockout="Off" fill-rule="evenodd" clip-rule="evenodd" fill="#FFFFFF" d="M116.084,13.545l0.542,1.685
					c-0.01-0.955,0.43-1.75,0.337-2.723l0.403-0.6l-0.853,0.262C116.289,12.599,116.103,13.031,116.084,13.545z"/>
				<path i:knockout="Off" fill-rule="evenodd" clip-rule="evenodd" fill="#FFFFFF" d="M116.449,10.625l0.738-0.431V9.099
					c-0.309,0.188-0.479,0.506-0.72,0.759L116.449,10.625z"/>
				<path i:knockout="Off" fill-rule="evenodd" clip-rule="evenodd" fill="#FFFFFF" d="M131.628,12.329
					c-0.179,0.234-0.449,0.29-0.673,0.337c0.392-0.721,0.58-1.724,0.27-2.538c0.207-0.074,0.432-0.11,0.628-0.224l-0.02-0.018
					l0.516-0.451c0.683-0.468,0.421-1.356,0.674-2.02c-0.337-0.525-0.439-1.161-0.927-1.602l0.029-0.017
					c-0.385-0.487-1.077-0.432-1.603-0.675c-0.692-0.234-1.225,0.243-1.721,0.563c-0.215,0.036-0.084,0.317-0.318,0.308
					c-0.131,0.347-0.291,0.721-0.384,1.104c-0.927-0.132-1.927-0.027-2.667,0.496c-0.394-0.289-0.871-0.346-1.33-0.477
					c-0.336-0.065-0.72,0.057-0.962-0.132c-0.355-0.401-0.432-1.132-1.041-1.234c-0.214-0.075-0.26-0.308-0.26-0.515
					c-0.403-0.065-0.76-0.251-1.153-0.337c-0.597-0.272-1.074,0.16-1.524,0.449c-0.196,0.085-0.421,0.112-0.607,0.226
					c-0.337,0.523-0.656,1.057-0.871,1.636c0.066,0.477,0.271,0.899,0.516,1.301c0.215,0.609,0.888,1.086,1.459,1.33
					c-0.271,0.926-0.271,2.031,0,2.967c0,0-0.016,0.011-0.016,0.009c0,0.002-0.03,0.026-0.03,0.026c-0.09,0-0.185,0.018-0.259-0.026
					h-0.012c0.131,0.894,0.552,1.676,1.232,2.347c0.244,0.086,0.188,0.375,0.292,0.563c0.064,0.083,0.073,0.261,0.045,0.336
					c-1.458-0.047-2.76,0.318-3.93,0.982c-0.299,0.15-0.167,0.563-0.195,0.852c0.823-0.542,1.712-0.945,2.694-1.122
					c0.421-0.028,0.898-0.131,1.301-0.019l0.047,0.805c-1.113,0.58-2.33,0.917-3.285,1.872c0.019,0.289-0.036,0.627,0.048,0.871
					l0.852-0.694c0.822-0.625,1.683-1.16,2.629-1.506c0.253,0.3,0.516,0.618,0.853,0.804c0.57-0.365,1.188-0.635,1.843-0.804
					c0.347-0.206,0.897-0.019,1.122-0.43l0.16-0.852c-0.029-0.019-0.046-0.055-0.094-0.045c-0.439-0.253-0.729-0.692-0.692-1.208
					c-0.149,0.074-0.317,0.122-0.496,0.131c-0.15-0.038-0.289-0.074-0.355-0.225c-0.01-0.188-0.104-0.468,0.083-0.608
					c0.608-0.375,1.395-0.394,2.163-0.336c0.57,0.074,1.395,0.045,1.59,0.721c-0.026,0.196-0.009,0.411-0.205,0.542
					c-0.206,0.112-0.439-0.01-0.628-0.093c-0.148,0.458-0.401,0.974-0.917,1.122l0.067,0.544c0.064,0.244,0.083,0.645,0.468,0.561
					c0.889,0.215,1.674,0.674,2.451,1.17c0.262-0.263,0.468-0.563,0.654-0.833c1.385,0.467,2.584,1.506,3.725,2.47l0.048-0.786
					c-1.086-0.964-2.294-1.647-3.548-2.181c0.048-0.253,0.104-0.497,0.112-0.767c1.489,0.083,2.9,0.542,4.128,1.264l-0.02-0.674
					c-1.291-0.692-2.704-1.151-4.249-1.17c-0.056-0.086-0.074-0.206-0.064-0.291c0.749-0.122,1.281-0.898,1.461-1.573
					c0.382-0.439,0.936-0.917,0.805-1.571c0.017-0.053,0.036-0.111,0.055-0.167C131.642,12.652,131.684,12.481,131.628,12.329z"/>
				<path i:knockout="Off" fill-rule="evenodd" clip-rule="evenodd" fill="#FFFFFF" d="M132.93,14.734l0.767-0.244l0.083-0.43
					c0.217-0.627-0.241-1.095-0.468-1.592L132.93,14.734z"/>
				<path i:knockout="Off" fill-rule="evenodd" clip-rule="evenodd" fill="#FFFFFF" d="M134.865,17.701
					c0.365,0.401,0.721,1.048,1.368,0.85c-0.048-0.27-0.198-0.494-0.291-0.738c-0.17-0.198-0.225-0.759-0.562-0.561
					c-0.253-0.169-0.317-0.451-0.478-0.675C134.829,16.923,134.875,17.354,134.865,17.701z"/>
				<path i:knockout="Off" fill-rule="evenodd" clip-rule="evenodd" fill="#FFFFFF" d="M134.997,20.441
					c0.141,0.198,0.179,0.451,0.317,0.628c0.253,0.167,0.628,0.141,0.936,0.112c0.281-0.065,0.459,0.243,0.721,0.064
					c-0.326-0.205-0.522-0.58-0.833-0.85C135.772,20.105,135.381,20.358,134.997,20.441z"/>
				<path i:knockout="Off" fill-rule="evenodd" clip-rule="evenodd" fill="#FFFFFF" d="M135.493,24.794
					c0.645,0.384,1.467,0.759,2.328,0.628c0.093-0.048,0.253-0.038,0.271-0.151c-0.533-0.188-1.093-0.721-1.653-0.833
					c-0.31-0.477-0.712,0.122-1.105,0.084C135.343,24.635,135.455,24.72,135.493,24.794z"/>
				<path i:knockout="Off" fill-rule="evenodd" clip-rule="evenodd" fill="#FFFFFF" d="M137.438,33.057l0.141,0.301
					c0.141,0.974,0.757,1.871,0.42,2.938c0.281,0.196,0.366,0.523,0.543,0.785h0.047c0.215-0.813,0.066-1.656-0.047-2.471
					C138.626,33.871,137.877,33.44,137.438,33.057z"/>
				<path i:knockout="Off" fill-rule="evenodd" clip-rule="evenodd" fill="#FFFFFF" d="M137.599,23.474
					c0.487,0.375,1.264,0.412,1.824,0.225c-0.355-0.196-0.747-0.411-1.039-0.674L137.599,23.474z"/>
				<path i:knockout="Off" fill-rule="evenodd" clip-rule="evenodd" fill="#FFFFFF" d="M139.908,26.348
					c-0.048,0.394,0.215,0.721,0.496,0.917c0.103-0.234,0.271-0.43,0.289-0.692c-0.083-0.403-0.308-0.767-0.673-1.038
					C139.954,25.796,139.88,26.047,139.908,26.348z"/>
				<path i:knockout="Off" fill-rule="evenodd" clip-rule="evenodd" fill="#FFFFFF" d="M139.937,30.614
					c-0.066,0.439,0.42,0.497,0.626,0.74c0.169,0.205-0.112,0.346-0.112,0.542c0.355,0.458,0.561,0.983,0.561,1.592
					c0.141-0.57,0.356-1.115,0.433-1.704c-0.038-0.411-0.692-0.327-0.59-0.785c0.186-0.468-0.038-0.927-0.16-1.347
					c-0.038-0.067-0.122-0.198-0.195-0.16C140.328,29.876,139.908,30.146,139.937,30.614z"/>
				<path i:knockout="Off" fill-rule="evenodd" clip-rule="evenodd" fill="#FFFFFF" d="M141.219,28.387l0.486,0.945
					c0.216-0.026,0.354-0.234,0.523-0.382c0.132-0.394-0.215-0.647-0.317-0.965c-0.086-0.225,0-0.524-0.16-0.721
					c-0.121-0.074-0.263-0.196-0.403-0.16L141.219,28.387z"/>
				<path i:knockout="Off" fill-rule="evenodd" clip-rule="evenodd" fill="#FFFFFF" d="M141.845,25.899
					c0.384,0.233,0.823,0.57,1.028,0.981c0.329,0.955,0.853,1.816,1.236,2.742c0.141,0.646,0.253,1.222,0.431,1.859
					c0.066,0.166,0.028,0.494,0.291,0.467c0.074-0.711,0.215-1.394,0.224-2.134c-0.233-0.308-0.544-0.439-0.833-0.628v-0.064
					c0.038-0.16,0.169-0.347,0.366-0.317c0.083-0.096,0.336-0.188,0.225-0.356c-0.487-0.486-0.459-1.325-1.237-1.476
					c-0.27-0.112-0.337-0.392-0.363-0.654C142.847,26.012,142.303,25.906,141.845,25.899z"/>
				<path i:knockout="Off" fill-rule="evenodd" clip-rule="evenodd" fill="#FFFFFF" d="M142.293,30.971
					c0.478,0.438,0.311,1.075,0.272,1.665c-0.074,0.356,0.375,0.15,0.516,0.337c0.289,0.431,0.121,1.058,0.017,1.526
					c0.254-0.385,0.544-0.722,0.74-1.142c-0.01-0.16,0.195-0.234,0.188-0.43c0.083-0.272-0.234-0.15-0.365-0.18
					c-0.112-0.028-0.234-0.103-0.198-0.252c0.244-0.469,0.02-1.03-0.074-1.497c-0.112-0.385,0.048-0.898-0.131-1.235
					C142.959,30.175,142.069,30.269,142.293,30.971z"/>
				<path i:knockout="Off" fill-rule="evenodd" clip-rule="evenodd" fill="#FFFFFF" d="M143.164,24.325
					c0.834,0.843,1.442,1.689,2.34,2.504c0.02-0.363-0.028-0.702-0.047-1.058c-0.132-0.251-0.375-0.439-0.581-0.626
					C144.213,25.079,143.866,24.185,143.164,24.325z"/>
				<path i:knockout="Off" fill-rule="evenodd" clip-rule="evenodd" fill="#FFFFFF" d="M145.345,28.786
					c0.019,0.084,0.057,0.158,0.093,0.243c0.365,0.6,0.711,1.216,0.965,1.862c-0.075-0.691,0.394-1.554-0.225-2.086
					c-0.084-0.225-0.365-0.15-0.543-0.132L145.345,28.786z"/>
				<path i:knockout="Off" fill-rule="evenodd" clip-rule="evenodd" fill="#FFFFFF" d="M147.591,35.623
					c0.263,0.119,0.599-0.096,0.852-0.244c0.234-0.057,0.431,0.074,0.609,0.196c0.074,0.149,0,0.289,0.026,0.43
					c0.563,0.159,1.114,0.365,1.611,0.692l0.157-0.158c0.038-0.403-0.279-0.691-0.579-0.916c-0.196-0.115-0.488-0.048-0.626-0.227
					c0.093-0.148,0.093-0.373,0.083-0.542c-0.31,0-0.506-0.094-0.759-0.244c-0.157-0.046-0.299-0.177-0.43,0
					C148.068,34.929,148.04,35.396,147.591,35.623z"/>
				<path i:knockout="Off" fill-rule="evenodd" clip-rule="evenodd" fill="#FFFFFF" d="M148.247,23.845
					c0.233-0.064,0.478-0.132,0.674-0.299c0.625-0.571,1.534-0.188,2.263-0.197c-0.139-0.253-0.337-0.504-0.514-0.721
					c-0.262-0.103-0.506-0.225-0.805-0.225c-0.637-0.373-1.066,0.253-1.554,0.561C148.181,23.219,148.116,23.592,148.247,23.845z"/>
				<path i:knockout="Off" fill-rule="evenodd" clip-rule="evenodd" fill="#FFFFFF" d="M148.265,25.771c0-0.026,0-0.056,0.028-0.064
					c0.084,0.075-0.01,0.252,0.131,0.289c0.243-0.12,0.468-0.289,0.692-0.447c0.628,0,1.002-0.608,1.618-0.608
					c1.029,0.186,2.051,0.392,2.948,0.897c-0.064-0.608-0.589-1.16-1.121-1.433c-0.301-0.103-0.535,0.058-0.75,0.225
					c-0.628,0.395-0.299-0.57-0.739-0.59c-0.571,0.18-1.161,0.375-1.796,0.32c-0.375,0.139-0.638,0.484-1.058,0.448
					C148.199,25.117,148.152,25.492,148.265,25.771z"/>
				<path i:knockout="Off" fill-rule="evenodd" clip-rule="evenodd" fill="#FFFFFF" d="M148.696,27.86
					c0.195,0.205,0.522,0.167,0.805,0.205l0.813-0.317c0.01-0.15-0.243-0.189-0.188-0.355c0.225-0.253,0.535-0.076,0.814-0.18
					c0.395-0.055,0.797-0.448,1.188-0.158c-0.009,0.046,0.02,0.113-0.017,0.158c-0.124,0.291,0.084,0.468,0.308,0.58
					c0.459,0.086,0.889,0.507,1.348,0.318c-0.046-0.383-0.149-0.738-0.244-1.104c-0.383-0.066-0.654-0.384-1.01-0.516
					c-0.16,0.15-0.365,0.263-0.562,0.244c-0.721-0.168-1.582-0.617-2.311-0.158c-0.263,0.317-0.731,0.224-1.086,0.363
					C148.574,27.261,148.61,27.569,148.696,27.86z"/>
				<path i:knockout="Off" fill-rule="evenodd" clip-rule="evenodd" fill="#FFFFFF" d="M149.004,33.422
					c-0.057,0.159-0.215,0.422,0.074,0.496c0.6,0.02,1.367-0.289,1.836,0.178c0.158,0.123,0.083,0.374,0.074,0.534l0.785,0.656
					c0.076-0.394,0.215-0.75,0.225-1.172c-0.064-0.299-0.215-0.59-0.476-0.786c-0.516,0-0.816-0.603-1.368-0.526
					c-0.289-0.067-0.541,0.19-0.833,0.19C149.19,33.123,149.116,33.283,149.004,33.422z"/>
				<path i:knockout="Off" fill-rule="evenodd" clip-rule="evenodd" fill="#FFFFFF" d="M149.229,29.011
					c0.121,0.251,0.263,0.664,0.496,0.692c0.552-0.243,1.356-0.394,1.975-0.131c0.206,0.037,0.206,0.271,0.16,0.422
					c0.317,0.187,0.702,0.335,1.038,0.542l-0.093-0.561c-0.02-0.609-0.787-0.666-0.834-1.266c-0.627-0.205-1.329-0.27-1.993-0.111
					c-0.217,0.197-0.524,0.169-0.787,0.226C149.174,28.898,149.219,28.944,149.229,29.011z"/>
				<path i:knockout="Off" fill-rule="evenodd" clip-rule="evenodd" fill="#FFFFFF" d="M149.389,32.043
					c0.365-0.103,0.597-0.506,0.991-0.542c0.599,0.01,1.133,0.251,1.506,0.767c0.227,0.149,0.179,0.534,0.468,0.534
					c-0.084-0.46,0.066-0.881,0.048-1.349c-0.395-0.654-1.365-0.15-1.731-0.917l-0.692,0.046c-0.496,0.122-0.364,0.703-0.432,1.096
					C149.491,31.8,149.379,31.893,149.389,32.043z"/>
				<path i:knockout="Off" fill-rule="evenodd" clip-rule="evenodd" fill="#FFFFFF" d="M152.821,36.136
					c0.291,0.58,0.929,1.021,0.993,1.686c0.15-0.179,0.253-0.384,0.356-0.58c-0.01-0.188-0.226-0.188-0.311-0.337
					c-0.084-0.243,0.048-0.458,0.085-0.675c-0.121-0.347-0.412-0.674-0.739-0.879L152.821,36.136z"/>
				<path i:knockout="Off" fill-rule="evenodd" clip-rule="evenodd" fill="#FFFFFF" d="M153.975,34.658l0.673,0.917
					c0.289-0.459,0.289-1.132,0.177-1.686c-0.064-0.103-0.187-0.271-0.355-0.196C154.216,33.956,154.18,34.357,153.975,34.658z"/>
				<path i:knockout="Off" fill-rule="evenodd" clip-rule="evenodd" fill="#FFFFFF" d="M151.231,9.041
					c0.244,0.122,0.478,0.234,0.767,0.252c0.198-0.102,0.451-0.177,0.694-0.112c0.346,0.225,0.767-0.047,1.168-0.028
					c-0.354-0.336-0.758-0.542-1.168-0.738C152.167,8.526,151.747,8.899,151.231,9.041z"/>
				<path i:knockout="Off" fill-rule="evenodd" clip-rule="evenodd" fill="#FFFFFF" d="M154.892,9.921
					c0.494,0.046,0.85,0.485,1.187,0.853c0.422,0.064,0.74,0.363,0.992,0.673l-0.159-0.497c-0.112-0.497-0.421-0.881-0.738-1.272
					C155.725,9.706,155.283,9.743,154.892,9.921z"/>
				<path i:knockout="Off" fill-rule="evenodd" clip-rule="evenodd" fill="#FF6600" d="M119.966,5.814l0.271,0.028
					c0.731,0.365,1.91,0.552,1.975,1.609c-0.737,0.291-1.449,0.685-2.038,1.282c-0.449-0.459-1.358-0.206-1.507-1.01
					C118.808,6.965,119.078,6.012,119.966,5.814z"/>
				<path i:knockout="Off" fill-rule="evenodd" clip-rule="evenodd" fill="#FF6600" d="M120.67,10.56
					c0.85-0.074,1.674,0.045,2.555-0.028c0.215,0.093,0.439,0.281,0.542,0.496c-0.028,1.01-0.337,1.975-0.384,3.013
					c-0.383,0.161-0.758,0.478-0.851,0.899c-0.347,0.102-0.656,0.31-0.993,0.467c-0.15-0.317-0.122-0.795,0.142-1.056
					c0.364-0.516,1.31-0.394,1.233-1.208c0.244-0.394,0.01-0.899,0.02-1.311c-0.094-0.308-0.187,0.103-0.337,0.093
					c-0.299,0.064-0.608,0.084-0.869-0.064c-0.198-0.208-0.441-0.375-0.497-0.656c-0.262-0.131-0.57-0.337-0.701-0.609L120.67,10.56
					z"/>
				<path i:knockout="Off" fill-rule="evenodd" clip-rule="evenodd" fill="#FF6600" d="M121.699,16.662
					c0.4,0.055,0.823-0.122,1.169,0.074c-0.075,0.131-0.271,0.187-0.43,0.225l-0.627,0.291
					C121.577,17.194,121.708,16.82,121.699,16.662z"/>
				<path i:knockout="Off" fill-rule="evenodd" clip-rule="evenodd" fill="#FF6600" d="M123.337,8.846
					c0.401-0.131,0.833-0.401,1.263-0.27c-0.309,0.309-0.552,0.711-0.785,1.084l-1.282-0.027
					C122.671,9.297,123.026,9.016,123.337,8.846z"/>
				<path i:knockout="Off" fill-rule="evenodd" clip-rule="evenodd" fill="#FF6600" d="M127.09,8.538
					c0.532-0.093,0.504,0.599,0.991,0.628c0.085,0.112,0.207,0.214,0.159,0.382c-0.281,0.112-0.692,0.057-1.012,0.131
					c-0.421-0.234-0.148-0.964-0.814-0.917c-0.036-0.055-0.112-0.168-0.018-0.206C126.603,8.483,126.872,8.51,127.09,8.538z"/>
				<path i:knockout="Off" fill-rule="evenodd" clip-rule="evenodd" fill="#FF6600" d="M126.753,11.047
					c0.233-0.329,0.59-0.355,0.926-0.422l2.424,0.047c0.103,0.093-0.093,0.177-0.093,0.29c-0.15,0.14-0.366,0.178-0.497,0.31
					c-0.317,0.01-0.291,0.382-0.515,0.542c-0.347,0.346-0.851,0.188-1.254,0.131c-0.141-0.103-0.299-0.244-0.365-0.403l-0.112,0.112
					c0.141,0.525,0.103,1.106,0.205,1.638l0.58,0.385c0.01,0.861,1.021,0.627,1.461,1.105c-0.103,0.308-0.309,0.57-0.532,0.833
					c-0.356-0.347-0.759-0.573-1.189-0.721c-0.037-0.506-0.589-0.804-0.899-1.058c-0.084-0.917-0.103-1.853-0.251-2.742
					L126.753,11.047z"/>
				<path i:knockout="Off" fill-rule="evenodd" clip-rule="evenodd" fill="#FF6600" d="M127.632,16.82h1.124l-0.141,0.59
					l-1.124-0.478C127.465,16.839,127.566,16.811,127.632,16.82z"/>
				<path i:knockout="Off" fill-rule="evenodd" clip-rule="evenodd" fill="#FF6600" d="M129.653,6.218l0.833-0.263
					c0.478,0.224,0.927,0.506,1.366,0.823c0.347,0.638,0.289,1.497,0.131,2.208c-0.253,0.282-0.805,0-1.01,0.449h-0.038
					c-0.31-0.879-1.188-1.664-2.003-2.068C129.063,6.919,129.204,6.48,129.653,6.218z"/>
				<path i:knockout="Off" fill-rule="evenodd" clip-rule="evenodd" fill="#FFFFFF" d="M149.172,41.873h4.993
					c0.739-0.112,1.525-0.094,2.114-0.638c2.5,0.385,5.035-0.233,7-1.608c1.037-0.838,1.969-1.806,2.722-2.863
					c0.664-0.932,1.189-1.803,1.528-2.846c0.252-0.645,0.452-1.314,0.603-2.003c0.713-3.243,0.339-6.87-0.715-9.958
					c-0.196-0.573-0.415-1.125-0.656-1.655c-1.318-2.724-3.11-5.662-5.874-7.386c-1.557-0.971-2.988-2.473-3.867-4.025
					c-0.478-0.432-0.937-1.002-1.554-1.105c0.169,0.281,0.355,0.552,0.403,0.879l-0.038,0.047c-0.654,0.019-1.17-0.327-1.619-0.75
					l0.497-0.448c-0.188-0.093-0.403-0.132-0.609-0.177c-1.891-0.215-3.444,0.654-5.118,1.076l-0.028,0.093
					c1.028,0.458,1.243,1.59,1.843,2.359c0.15-0.179,0.403-0.048,0.608-0.067c0.299,0.019,0.58,0.234,0.869,0.159
					c0.01-0.252-0.129-0.448-0.177-0.672c0.177-0.086,0.394-0.01,0.59,0c0.542,0.317,1.413-0.058,1.75,0.672
					c-0.618,0.039-1.198,0.168-1.778,0.309c0.037,0.234,0.271,0.422,0.253,0.656c-0.497-0.208-1.02-0.336-1.573-0.403l-0.026,0.083
					c0.702,0.824,1.664,1.311,2.647,1.602c1.413,0.327,2.657-0.346,4.022-0.112c3.353,1.535,6.215,5.046,7.461,8.378
					c0.061,0.16,0.119,0.322,0.175,0.485c1.043,3.043,1.24,6.786,0.196,9.958c-0.556,1.322-1.168,2.566-2.149,3.641
					c-0.371,0.455-0.782,0.862-1.228,1.208c-1.405,1.094-3.137,1.575-4.921,1.084c-0.111-0.073-0.338-0.093-0.301-0.289
					c0.063-0.26,0.121-0.526,0.172-0.795c0.297-1.523,0.432-3.123,0.354-4.721c-0.004-0.069-0.005-0.138-0.008-0.206
					c-0.098-2.322-0.561-4.411-1.415-6.419c-0.546-1.153-1.197-2.41-2.016-3.539c-0.977-1.346-2.191-2.509-3.749-3.089
					c-0.955-0.253-2.135-0.299-2.854,0.497c-0.516,0.449-0.73,1.057-0.656,1.721c-0.805,0.512-1.71,0.788-2.695,0.871
					c-0.241,0.021-0.489,0.108-0.738,0.107c-0.239,0.011-0.472,0-0.697-0.029c-1.188-0.146-2.386-0.783-3.297-1.516
					c-0.019-0.484-0.048-0.945-0.066-1.458c-0.523-0.272-0.953-0.788-0.991-1.395l0.048-0.047c0.299,0.093,0.561,0.243,0.831,0.403
					c-0.122-0.73-0.261-1.451-0.626-2.087c-0.337-0.141-0.676-0.252-0.993-0.422c-0.365-0.243-0.599-0.683-0.653-1.086
					c0.326,0.32,0.897,0.207,1.15,0.544c-0.439-1.301-0.449-2.789-1.17-3.978c-0.365-0.88-1.32-1.282-1.975-1.929
					c-0.253-0.308-0.355-0.738-0.814-0.786c-0.374-0.093-0.403-0.515-0.468-0.785c0.234,0.027,0.43,0.187,0.628,0.224
					c-0.544-1.442-1.021-3.041-2.49-3.958l-0.253,0.158c-0.57,0.086-1.179,0.122-1.75,0.141c0.253-0.375,0.702-0.533,1.058-0.703
					c-0.413-0.308-0.751-0.383-1.267-0.468c-0.299,0.301-0.839,0.449-1.223,0.533l-0.046-0.036c-0.01-0.336-0.088-0.75,0.418-0.833
					c-0.486-0.234-1.291-0.141-1.788,0c-0.141,0.365-0.54,0.692-0.514,1.122c-0.288,0.301-0.494,0.702-0.795,0.918
					c-0.008-0.721,0.297-1.386,0.429-1.993c-0.421,0.158-0.849,0.382-1.26,0.58c-0.665-0.384-1.365-0.768-2.075-1.057
					c-0.066-0.029-0.207-0.057-0.179,0.064c0.608,0.44,0.373,1.263,0.438,1.891l-0.384-0.317c-0.187-0.478-0.728-0.824-0.82-1.349
					c-0.637,0.122-1.044,0.291-1.634,0.544l-0.082,0.046c0.439,0,0.813,0.346,1.029,0.692c-0.664,0.038-1.254-0.225-1.908-0.289
					c-0.066-0.066-0.121-0.141-0.226-0.131c-0.328,0.122-0.607,0.356-0.898,0.581c-0.645,0.635-1.301,1.339-1.609,2.18
					c0.216,0.038,0.487,0.029,0.646,0.16c-0.354,0.215-0.664,0.58-1.011,0.786c-0.121,0.487-0.103,1.039-0.131,1.573
					c-0.271,0.411-0.636,0.776-0.814,1.234c-0.58,1.881-0.73,3.968-0.645,6.102c-0.188,0.177-0.432,0.292-0.608,0.431l0.019,1.909
					h0.046c0.086-0.403,0.563-0.627,0.852-0.898h0.094c-0.046,0.43-0.103,0.86-0.112,1.301l-0.543,0.449
					c-0.541,0.477-0.083,1.196-0.131,1.795c0.039,0.16,0.065,0.394,0.18,0.432c0.064-0.234,0.27-0.403,0.4-0.608
					c0.234-0.058,0.439-0.244,0.654-0.272c-0.119,0.467-0.279,0.926-0.468,1.375c-0.089,0.059-0.195,0.14-0.285,0.234
					c-0.095,0.103-0.171,0.221-0.189,0.348c0.42,2.218,1.082,4.407,1.841,6.494c-0.516,0.869-0.807,1.895-1.236,2.794
					c-0.061,0.126-0.116,0.253-0.168,0.384c-0.43,1.089-0.561,2.304-1.096,3.351c-0.215-0.151-0.448-0.263-0.691-0.366
					c-1.013-0.336-2.182-0.121-2.92,0.655c-0.656-0.122-1.33-0.01-1.846,0.336c-0.368,0.278-0.654,0.612-0.817,1.003
					c-0.11,0.271-0.163,0.566-0.145,0.889c-0.422,0.29-0.647,0.739-0.786,1.188c-0.197,1.012,0.158,2.063,0.738,2.84H149.172z"/>
				<path i:knockout="Off" fill-rule="evenodd" clip-rule="evenodd" fill="#FF6600" d="M167.417,21.958
					c-0.196-0.573-0.415-1.125-0.656-1.655c-1.318-2.724-3.11-5.662-5.874-7.386c-1.557-0.971-2.988-2.473-3.867-4.025
					c-0.478-0.432-0.937-1.002-1.554-1.105c0.169,0.281,0.355,0.552,0.403,0.879l-0.038,0.047c-0.654,0.019-1.17-0.327-1.619-0.75
					l0.497-0.448c-0.188-0.093-0.403-0.132-0.609-0.177c-1.891-0.215-3.444,0.654-5.118,1.076l-0.028,0.093
					c1.028,0.458,1.243,1.59,1.843,2.359c0.15-0.179,0.403-0.048,0.608-0.067c0.299,0.019,0.58,0.234,0.869,0.159
					c0.01-0.252-0.129-0.448-0.177-0.672c0.177-0.086,0.394-0.01,0.59,0c0.542,0.317,1.413-0.058,1.75,0.672
					c-0.618,0.039-1.198,0.168-1.778,0.309c0.037,0.234,0.271,0.422,0.253,0.656c-0.497-0.208-1.02-0.336-1.573-0.403l-0.026,0.083
					c0.702,0.824,1.664,1.311,2.647,1.602c1.413,0.327,2.657-0.346,4.022-0.112c3.353,1.535,6.215,5.046,7.461,8.378
					c0.061,0.16,0.119,0.322,0.175,0.485c1.043,3.043,1.24,6.786,0.196,9.958c-0.556,1.322-1.168,2.566-2.149,3.641
					c-0.371,0.455-0.782,0.862-1.228,1.208c-1.405,1.094-3.137,1.575-4.921,1.084c-0.111-0.073-0.338-0.093-0.301-0.289
					c0.063-0.26,0.121-0.526,0.172-0.795c0.297-1.523,0.432-3.123,0.354-4.721c-0.004-0.069-0.005-0.138-0.008-0.206
					c-0.098-2.322-0.561-4.411-1.415-6.419c-0.546-1.153-1.197-2.41-2.016-3.539c-0.977-1.346-2.191-2.509-3.749-3.089
					c-0.955-0.253-2.135-0.299-2.854,0.497c-0.516,0.449-0.73,1.057-0.656,1.721c-0.805,0.512-1.71,0.788-2.695,0.871
					c-0.241,0.021-0.489,0.108-0.738,0.107c-0.239,0.011-0.472,0-0.697-0.029c-1.188-0.146-2.386-0.783-3.297-1.516
					c-0.019-0.484-0.048-0.945-0.066-1.458c-0.523-0.272-0.953-0.788-0.991-1.395l0.048-0.047c0.299,0.093,0.561,0.243,0.831,0.403
					c-0.122-0.73-0.261-1.451-0.626-2.087c-0.337-0.141-0.676-0.252-0.993-0.422c-0.365-0.243-0.599-0.683-0.653-1.086
					c0.326,0.32,0.897,0.207,1.15,0.544c-0.439-1.301-0.449-2.789-1.17-3.978c-0.365-0.88-1.32-1.282-1.975-1.929
					c-0.253-0.308-0.355-0.738-0.814-0.786c-0.374-0.093-0.403-0.515-0.468-0.785c0.234,0.027,0.43,0.187,0.628,0.224
					c-0.544-1.442-1.021-3.041-2.49-3.958l-0.253,0.158c-0.57,0.086-1.179,0.122-1.75,0.141c0.253-0.375,0.702-0.533,1.058-0.703
					c-0.413-0.308-0.751-0.383-1.267-0.468c-0.299,0.301-0.839,0.449-1.223,0.533l-0.046-0.036c-0.01-0.336-0.088-0.75,0.418-0.833
					c-0.486-0.234-1.291-0.141-1.788,0c-0.141,0.365-0.54,0.692-0.514,1.122c-0.288,0.301-0.494,0.702-0.795,0.918
					c-0.008-0.721,0.297-1.386,0.429-1.993c-0.421,0.158-0.849,0.382-1.26,0.58c-0.665-0.384-1.365-0.768-2.075-1.057
					c-0.066-0.029-0.207-0.057-0.179,0.064c0.608,0.44,0.373,1.263,0.438,1.891l-0.384-0.317c-0.187-0.478-0.728-0.824-0.82-1.349
					c-0.637,0.122-1.044,0.291-1.634,0.544l-0.082,0.046c0.439,0,0.813,0.346,1.029,0.692c-0.664,0.038-1.254-0.225-1.908-0.289
					c-0.066-0.066-0.121-0.141-0.226-0.131c-0.328,0.122-0.607,0.356-0.898,0.581c-0.645,0.635-1.301,1.339-1.609,2.18
					c0.216,0.038,0.487,0.029,0.646,0.16c-0.354,0.215-0.664,0.58-1.011,0.786c-0.121,0.487-0.103,1.039-0.131,1.573
					c-0.271,0.411-0.636,0.776-0.814,1.234c-0.58,1.881-0.73,3.968-0.645,6.102c-0.188,0.177-0.432,0.292-0.608,0.431l0.019,1.909
					h0.046c0.086-0.403,0.563-0.627,0.852-0.898h0.094c-0.046,0.43-0.103,0.86-0.112,1.301l-0.543,0.449
					c-0.541,0.477-0.083,1.196-0.131,1.795c0.039,0.16,0.065,0.394,0.18,0.432c0.064-0.234,0.27-0.403,0.4-0.608
					c0.234-0.058,0.439-0.244,0.654-0.272c-0.119,0.467-0.279,0.926-0.468,1.375c-0.089,0.059-0.195,0.14-0.285,0.234
					c-0.095,0.103-0.171,0.221-0.189,0.348c0.42,2.218,1.082,4.407,1.841,6.494c-0.516,0.869-0.807,1.895-1.236,2.794
					c-0.061,0.126-0.116,0.253-0.168,0.384c-0.43,1.089-0.561,2.304-1.096,3.351c-0.215-0.151-0.448-0.263-0.691-0.366
					c-1.013-0.336-2.182-0.121-2.92,0.655c-0.656-0.122-1.33-0.01-1.846,0.336c-0.368,0.278-0.654,0.612-0.817,1.003
					c-0.11,0.271-0.163,0.566-0.145,0.889c-0.422,0.29-0.647,0.739-0.786,1.188c-0.197,1.012,0.158,2.063,0.738,2.84h16.537
					c-0.243-0.289-0.468-0.692-0.638-1.038c-0.354-0.535-0.111-1.292-0.149-1.91c0.337-0.68,0.679-1.364,1.064-2.029
					c0.078-0.134,0.156-0.265,0.236-0.395l0.759-0.29c0.402,0,0.74-0.29,1.123-0.188c0.515,0.516,0.515-0.514,1.012-0.561
					c1.16-0.15,2.311-0.038,2.965,0.945c0,0.131,0.208,0.131,0.16,0.253c-0.15,0.045-0.291-0.048-0.449-0.048
					c-0.711-0.177-1.545-0.628-2.246-0.225c-0.027,0.168-0.063,0.339-0.097,0.507c-0.035,0.179-0.067,0.354-0.082,0.522
					c0.458,0.131,0.842,0.459,1.188,0.814c0.234-0.458,0.73-0.664,1.17-0.814c0.384,0.084,0.805,0.094,1.124,0.337
					c0.59,0.544,0.299,1.47,0.244,2.162c0.532,0.299,1.122,0.469,1.664,0.758c-0.253,0.227-0.588,0.319-0.897,0.432l-0.898-0.179
					c-0.103-0.074-0.282-0.074-0.319-0.205c-0.299,0.317-0.664,0.739-0.851,1.15h12.82c-0.169-0.384-0.365-0.683-0.599-1.038
					c-0.263-0.562-0.158-1.33-0.187-1.929l1.198-1.825c0.654-0.009,1.395-0.253,2.105-0.131c0.036-0.016,0.07-0.034,0.103-0.055
					c0.295-0.204,0.385-0.678,0.824-0.619c0.785-0.214,1.385,0.142,1.975,0.497c-0.02,0.047-0.039,0.088-0.06,0.122
					c-0.247,0.395-0.709-0.046-1.046,0.073c-0.141,0.15,0.066,0.327,0.093,0.497c0.122,0.167-0.122,0.148-0.205,0.177
					c-0.196,0.028-0.411-0.019-0.562-0.177c-0.037-0.048-0.009-0.103-0.083-0.112c-0.17,0.279-0.413,0.533-0.478,0.851
					c0.214,0.207,0.504,0.412,0.608,0.675c0.215,0.309-0.169,0.542-0.243,0.814c-0.028,0.055-0.114,0.055-0.141,0
					c-0.198-0.112-0.365-0.394-0.581-0.32c-0.188,0.834,0.065,1.667-0.047,2.5c0.365,0.086,0.795-0.019,1.188,0l0.16-1.76
					c0.167-1.141,0.843-2.096,1.638-2.968c0.859-0.587,1.413,0.573,2.048,0.975c0.104,0.019,0.067,0.131,0.112,0.196
					c-0.009,0.188-0.205,0.262-0.336,0.319c-0.394,0.139-0.684-0.291-0.927-0.544c-0.233,0.253-0.337,0.589-0.608,0.787l0.093,0.027
					c0.311,0.31,0.608,0.637,0.676,1.049c-0.038,0.373-0.225,0.738-0.563,0.927c-0.251-0.432-0.458-0.909-0.625-1.349
					c0.009,0.02-0.011,0.028-0.029,0.048c-0.516,0.139-0.653,0.719-0.739,1.188c0.028,0.459-0.318,0.646-0.226,1.104h6.674
					c0.739-0.112,1.525-0.094,2.114-0.638c2.5,0.385,5.035-0.233,7-1.608c1.037-0.838,1.969-1.806,2.722-2.863
					c0.664-0.932,1.189-1.803,1.528-2.846c0.252-0.645,0.452-1.314,0.603-2.003C168.845,28.672,168.471,25.045,167.417,21.958z"/>
				<path i:knockout="Off" fill-rule="evenodd" clip-rule="evenodd" fill="#FF6600" d="M124.471,39.328
					c0.365-0.234,0.955-0.291,1.038-0.833c-0.148-0.113-0.28-0.254-0.449-0.291l-0.384,0.112c0.028-0.225,0.15-0.477,0.227-0.72
					l1.234-0.402c-0.17,0.561-0.234,1.263-0.291,1.909c0.112,0.955,0.253,1.975,0.74,2.77h-1.33
					C125.107,40.994,124.188,40.356,124.471,39.328z"/>
				<path i:knockout="Off" fill-rule="evenodd" clip-rule="evenodd" fill="#FF6600" d="M127.345,38.204h0.074l0.897,0.815
					l0.131-0.028c-0.073,0.955-0.121,1.891-0.131,2.882h-0.972c-0.198-0.926-0.525-1.9-0.487-2.9
					C127.025,38.72,127.137,38.401,127.345,38.204z"/>
				<path i:knockout="Off" fill-rule="evenodd" clip-rule="evenodd" fill="#FF6600" d="M129.346,39.104
					c0.179-0.233,0.253-0.628,0.608-0.673c0.253,0.007,0.487,0.045,0.676,0.224c0.327,0.411,0.007,0.937-0.112,1.348
					c-0.132,0.627-0.358,1.281-0.563,1.871h-0.945L129.346,39.104z"/>
				<path i:knockout="Off" fill-rule="evenodd" clip-rule="evenodd" fill="#FF6600" d="M143.543,38.813
					c0.206,0.263,0.271,0.618,0.58,0.852c0.272-0.374,0.337-0.955,0.206-1.432l-0.271-0.272c0.347-0.083,0.711-0.112,1.058-0.177
					c-0.15,0.496-0.433,0.945-0.384,1.525c0.009,0.843,0.149,1.686,0.224,2.564h-1.029c-0.374-0.824-0.749-1.609-0.721-2.564
					C143.318,39.14,143.393,38.943,143.543,38.813z"/>
				<path i:knockout="Off" fill-rule="evenodd" clip-rule="evenodd" fill="#FFFFFF" d="M147.97,20.832
					c-0.01,0.243-0.187,0.513-0.029,0.721c0.227-0.253,0.6-0.244,0.9-0.356c0.833-0.076,1.628,0.187,2.404,0.375
					c-0.196-0.31-0.327-0.656-0.543-0.936c-0.431-0.113-1.086,0.187-1.16-0.451c-0.262-0.224-0.673-0.064-0.945-0.046
					C148.334,20.326,148.12,20.56,147.97,20.832z"/>
				<path i:knockout="Off" fill-rule="evenodd" clip-rule="evenodd" fill="#FFFFFF" d="M119.367,12.75
					c-0.004-0.002-0.008-0.006-0.014-0.01c0,0.004,0.002,0.006,0.002,0.01H119.367z"/>
				<path i:knockout="Off" fill-rule="evenodd" clip-rule="evenodd" fill="#FFFFFF" d="M122.77,21.07l0.562-0.542
					c0.048,0,0.085,0.009,0.112,0.045l-0.046,1.039c0.271,0.253,0.606,0.336,0.962,0.356c0.029-0.28,0.244-0.478,0.366-0.721
					c0.103-0.196,0.038-0.486,0.243-0.625l0.066,0.064c0.064,0.31,0.046,0.656,0.206,0.926c0.019,0.15,0.045,0.336,0.063,0.468
					c0.413,0.019,0.788-0.093,1.105-0.244c-0.019-0.355,0.104-0.645,0.158-0.971c0.086-0.113-0.103-0.32,0.131-0.31
					c0.132,0.281,0.365,0.57,0.497,0.871c0.542-0.552,0.769-1.272,0.897-2.022c-0.158-0.214-0.401-0.214-0.59-0.355
					c-1.59-0.514-3.629-0.617-5.164,0.178C122.235,19.861,122.366,20.563,122.77,21.07z"/>
				<path i:knockout="Off" fill-rule="evenodd" clip-rule="evenodd" fill="#FFFFFF" d="M107.896,38.632
					c-0.057,0.721,0,1.397,0.046,2.109c0.15,0.234,0.423,0.506,0.694,0.523l0.046-0.478c0.112-0.664-0.243-1.369,0.132-1.931
					c0.262,0.083,0.524,0.215,0.749,0.336c0.112-0.617-0.048-1.339-0.638-1.714L107.896,38.632z"/>
				<path i:knockout="Off" fill-rule="evenodd" clip-rule="evenodd" fill="#FFFFFF" d="M110.208,37.62
					c-0.365,1.096-0.636,2.445-0.196,3.599c0.253-0.17,0.514-0.329,0.738-0.562c-0.046-0.881-0.168-1.819,0.356-2.551
					c0.458,0.141,0.768,0.581,0.944,1.01c0.311-0.392,0.413-0.936,0.292-1.458c0.019-0.413-0.449-0.318-0.674-0.487
					c0.074-0.347,0.064-0.747,0.43-0.945l-1.122,0.112C110.686,36.751,110.368,37.151,110.208,37.62z"/>
				<path i:knockout="Off" fill-rule="evenodd" clip-rule="evenodd" fill="#FFFFFF" d="M112.52,40.854
					c0.047,0.083,0,0.234,0.095,0.253c0.139-0.787,0.775-1.296,1.123-1.99c0.167-0.231,0.159-0.561,0.43-0.738
					c0.364,0,0.627,0.262,0.983,0.29c0.112,0.085-0.058,0.16-0.067,0.253c-0.074,0.638-0.317,1.164-0.271,1.82h0.065
					c0.496-0.525,0.833-1.09,1.198-1.689l0.064-0.532c0.086-0.637-0.606-1.048-1.058-1.311l0.403-0.516l-0.562-0.196
					c-0.655,0.065-1.245,0.337-1.703,0.853C112.65,38.397,112.557,39.581,112.52,40.854z"/>
				<path i:knockout="Off" fill-rule="evenodd" clip-rule="evenodd" fill="#FFFFFF" d="M115.038,35.3
					c0.214,0.064,0.411-0.112,0.625-0.02c0.862,0.319,1.76,0.646,2.406,1.366l0.768,1.957l0.384-1.209l-0.253-0.653
					c-0.216-0.468-0.805-0.43-1.208-0.449c-0.168-0.188,0.009-0.403,0.066-0.58c0.196-0.665-0.618-0.628-0.945-0.899
					c0.019-0.401-0.468-0.263-0.74-0.299l-0.093-0.112c-0.056-0.086-0.196-0.086-0.272-0.02c-0.017-0.028-0.055-0.047-0.036-0.093
					l-0.205,0.046C115.243,34.588,115.047,34.915,115.038,35.3z"/>
				<path i:knockout="Off" fill-rule="evenodd" clip-rule="evenodd" fill="#FFFFFF" d="M115.579,33.147
					c0.029,0.12,0.103,0.242,0.196,0.318c0.422-0.112,0.826-0.404,1.311-0.225c0.628,0.552,1.282,1.132,2.041,1.431l0.272-0.046
					c0.167,0.055,0.354,0.064,0.466,0.253c0.104,0.253-0.158,0.401-0.241,0.607c0.42,0.31,0.253,0.861,0.514,1.235l0.673-0.897
					c-0.157-0.394,0.01-1.067-0.606-1.105c-0.208-0.103-0.347-0.308-0.339-0.542c-0.401-0.365-0.897-0.524-1.299-0.899
					c-0.33-0.261-0.525-0.663-0.945-0.757c-0.291-0.16-0.609-0.244-0.945-0.317C116.048,32.107,115.992,32.856,115.579,33.147z"/>
				<path i:knockout="Off" fill-rule="evenodd" clip-rule="evenodd" fill="#FFFFFF" d="M116.479,31.303l0.112,0.18
					c0.468-0.029,0.888-0.234,1.347-0.226c0.308,0.187,0.711,0.177,1.029,0.337c0.253,0.347,0.525,0.738,0.897,0.972
					c0.759,0.112,1.179,0.929,1.441,1.526v-0.289c0.112-0.403-0.01-0.872-0.157-1.237c-0.188-0.187-0.461-0.308-0.656-0.475
					c-0.038-0.122-0.01-0.18,0.028-0.291c-0.291-0.309-0.721-0.478-1.077-0.722c-0.496-0.721-1.449-0.522-2.208-0.721
					L116.479,31.303z"/>
				<path i:knockout="Off" fill-rule="evenodd" clip-rule="evenodd" fill="#FFFFFF" d="M116.463,24.438
					c0.083,0.291,0.184,0.655,0.241,0.965c0.261-0.58,0.778-0.843,1.236-1.319c-0.263-0.178-0.59-0.263-0.879-0.318v-0.019
					C116.854,23.951,116.536,24.158,116.463,24.438z"/>
				<path i:knockout="Off" fill-rule="evenodd" clip-rule="evenodd" fill="#FFFFFF" d="M118.163,27.518l0.42-0.43
					c0.422-0.432,0.77-0.929,0.833-1.48c-0.299-0.177-0.692-0.055-0.981,0.048C118.332,26.262,118.172,26.861,118.163,27.518z"/>
				<path i:knockout="Off" fill-rule="evenodd" clip-rule="evenodd" fill="#FFFFFF" d="M118.471,28.838
					c0.646,0.036,1.274,0.167,1.798-0.198l0.525-1.684c-0.17-0.01-0.339-0.086-0.497-0.028
					C119.951,27.694,119.259,28.453,118.471,28.838z"/>
				<path i:knockout="Off" fill-rule="evenodd" clip-rule="evenodd" fill="#FFFFFF" d="M118.661,22.867
					c0.421,0.617,1.124,1.308,1.843,1.506c-0.083-0.787-0.757-1.33-1.104-2.002l-0.019-0.225c-0.271-0.262-0.599-0.441-0.88-0.58
					C118.456,22.015,118.578,22.444,118.661,22.867z"/>
				<path i:knockout="Off" fill-rule="evenodd" clip-rule="evenodd" fill="#FFFFFF" d="M120.942,28.912
					c0.496,0.084,1.03,0,1.488-0.141c0.664-0.16,1.03-0.889,1.254-1.459h-0.833l-0.897,0.879
					C121.599,28.377,121.262,28.658,120.942,28.912z"/>
				<path i:knockout="Off" fill-rule="evenodd" clip-rule="evenodd" fill="#FFFFFF" d="M120.841,22.015
					c0.141,0.731,0.451,1.395,0.872,2.022l0.111-1.395L120.841,22.015z"/>
				<path i:knockout="Off" fill-rule="evenodd" clip-rule="evenodd" fill="#FFFFFF" d="M123.909,25.655
					c0.057-0.468-0.139-1.012-0.194-1.487c-0.281-0.188-0.673-0.17-0.964-0.355C122.77,24.55,123.348,25.178,123.909,25.655z"/>
				<path i:knockout="Off" fill-rule="evenodd" clip-rule="evenodd" fill="#FFFFFF" d="M123.058,30.409
					c0.589-0.187,1.16-0.393,1.704-0.692c0.346-0.497,0.869-0.945,0.945-1.525c-0.433,0.121-0.805-0.02-1.208,0.178
					c-0.243,0.439-0.394,0.937-0.861,1.254C123.563,29.94,123.217,30.156,123.058,30.409z"/>
				<path i:knockout="Off" fill-rule="evenodd" clip-rule="evenodd" fill="#FFFFFF" d="M123.974,31.56l0.702,0.917
					c0.375,0.121,0.843,0.085,1.17-0.13l-0.251-0.832C125.098,31.7,124.508,31.646,123.974,31.56z"/>
				<path i:knockout="Off" fill-rule="evenodd" clip-rule="evenodd" fill="#FFFFFF" d="M125.144,24.935l0.271,1.234
					c0.655-0.532,0.79-1.309,0.771-2.132C125.812,24.467,125.595,24.729,125.144,24.935z"/>
				<path i:knockout="Off" fill-rule="evenodd" clip-rule="evenodd" fill="#FFFFFF" d="M126.989,27.114
					c0.009,0.179,0.055,0.347,0.157,0.487c0.73,0.263,0.805,1.15,1.48,1.487c0.438,0.198,0.945-0.046,1.327-0.225
					c-0.289-0.327-0.616-0.552-0.897-0.897c-0.196-0.084-0.395-0.206-0.384-0.449L126.989,27.114z"/>
				<path i:knockout="Off" fill-rule="evenodd" clip-rule="evenodd" fill="#FFFFFF" d="M127.569,31.533
					c0.317,0.363,0.747,0.552,1.196,0.653c-0.074-0.102,0.048,0,0.066-0.064l-0.562-1.236c-0.281,0.01-0.572,0.067-0.833,0.048
					C127.457,31.14,127.502,31.345,127.569,31.533z"/>
				<path i:knockout="Off" fill-rule="evenodd" clip-rule="evenodd" fill="#FFFFFF" d="M128.561,25.768
					c-0.263-0.608-0.371-1.349-0.448-2.021c-0.279,0.337-0.57,0.553-0.833,0.897C127.158,25.336,128.149,25.505,128.561,25.768z"/>
				<path i:knockout="Off" fill-rule="evenodd" clip-rule="evenodd" fill="#FFFFFF" d="M129.701,25.13
					c0.339,0.442,1.077,0.292,1.489,0.16c-0.197-0.337-0.831-0.535-0.943-0.897c-0.064-0.646-0.196-1.275-0.403-1.862
					C129.517,23.325,129.121,24.271,129.701,25.13z"/>
				<path i:knockout="Off" fill-rule="evenodd" clip-rule="evenodd" fill="#FFFFFF" d="M130.291,27.114
					c0.936,0.683,1.854,1.479,3.162,1.188c0.094-0.064,0.254-0.057,0.272-0.177c-0.384-0.243-0.795-0.432-1.188-0.656l-0.448-0.654
					h-0.206C131.377,26.982,130.835,27.05,130.291,27.114z"/>
				<path i:knockout="Off" fill-rule="evenodd" clip-rule="evenodd" fill="#FFFFFF" d="M130.31,34.704h0.067
					c0.561-0.449,1.225-0.6,1.889-0.786c0.179,0.066,0.066,0.263,0.226,0.337c0.402-0.167,0.889-0.131,1.3-0.271
					c0.496,0.018,0.899,0.027,1.301,0.242c0.32,0.422,0.917,0.374,1.33,0.656l-0.067-0.656c-0.869-1.02-2.226-1.094-3.48-1.075
					l-0.028-0.131c-0.299,0-0.636,0.064-0.917,0.196c-0.401,0.019-0.786,0.215-1.17,0.336
					C130.582,33.908,130.441,34.341,130.31,34.704z"/>
				<path i:knockout="Off" fill-rule="evenodd" clip-rule="evenodd" fill="#FFFFFF" d="M131.062,23.203
					c0.364,0.478,0.907,0.844,1.525,0.722c-0.317-0.311-0.684-0.638-0.702-1.077c0.094-0.833-0.823-0.9-1.272-1.33
					C130.763,22.08,130.743,22.707,131.062,23.203z"/>
				<path i:knockout="Off" fill-rule="evenodd" clip-rule="evenodd" fill="#FFFFFF" d="M130.966,36.36h0.112
					c0.495-0.308,1.216-0.073,1.703-0.401c0.271-0.141,0.29,0.234,0.477,0.337c0.459,0.279,0.516,1.122,1.161,0.926
					c0.775,0.402,0.58,1.347,0.608,2.039l0.721-0.448c-0.066-0.365,0.141-0.805-0.094-1.123c-0.178-0.402-0.665-0.439-0.899-0.766
					c0.282-0.478-0.355-0.704-0.487-1.05l0.039-0.046l0.992,0.131c0.337,0.205,0.459,0.58,0.562,0.927
					c0.775,0.131,0.962,1.01,1.234,1.571c0.16-0.383,0.225-0.796,0.384-1.17c0.01-0.309-0.402-0.309-0.608-0.449
					c-0.055-0.478-0.271-0.926-0.692-1.215c-0.861-0.218-1.618-0.693-2.563-0.693l-0.786,0.242c-0.432,0.104-0.89-0.027-1.218,0.271
					C131.124,35.481,131.088,36.015,130.966,36.36z"/>
				<path i:knockout="Off" fill-rule="evenodd" clip-rule="evenodd" fill="#FFFFFF" d="M131.461,32.505l0.179,0.085
					c0.384-0.178,0.767-0.384,1.17-0.534c0.625-0.177,1.112,0.534,1.638,0.084c0.195-0.139,0.365,0.066,0.513,0.179
					c0.228,0.411,0.75,0.383,1.144,0.494c-0.197-0.532-0.441-1.262-1.124-1.347c-0.271-0.121-0.59-0.111-0.851-0.271
					c-0.721-0.795-1.188,0.656-1.977,0.301C131.874,31.803,131.527,32.095,131.461,32.505z"/>
				<path i:knockout="Off" fill-rule="evenodd" clip-rule="evenodd" fill="#FFFFFF" d="M131.64,37.063
					c0.299,0.253,0.608,0.684,1.077,0.627c0.579,0.271,0.336,1.039,0.653,1.442l0.337-0.3l-0.028-0.02l0.047-0.046l0.02,0.026
					c0.093-0.279-0.038-0.775-0.198-1.104c-0.214-0.149-0.466,0.01-0.673-0.131c-0.028-0.301-0.215-0.449-0.43-0.635
					c-0.15-0.114-0.347,0.036-0.516,0.026L131.64,37.063z"/>
				<path i:knockout="Off" fill-rule="evenodd" clip-rule="evenodd" fill="#FFFFFF" d="M132.81,25.655
					c0.308,0.514,0.907,0.833,1.385,1.188c0.394,0.178,0.907,0.225,1.329,0.13c-0.403-0.327-0.769-0.702-1.104-1.094
					c-0.132-0.188-0.16-0.423-0.337-0.59C133.643,25.374,133.146,25.364,132.81,25.655z"/>
				<path i:knockout="Off" fill-rule="evenodd" clip-rule="evenodd" fill="#FFFFFF" d="M133.326,22.306
					c0.43,0.533,1.095,0.318,1.703,0.337v-0.066l-0.936-0.786C133.831,21.874,133.551,22.108,133.326,22.306z"/>
				<path i:knockout="Off" fill-rule="evenodd" clip-rule="evenodd" fill="#FFFFFF" d="M116.098,13.48l0.542,1.685
					c-0.01-0.955,0.432-1.752,0.338-2.724l0.401-0.6l-0.852,0.263C116.303,12.534,116.116,12.965,116.098,13.48z"/>
				<path i:knockout="Off" fill-rule="evenodd" clip-rule="evenodd" fill="#FFFFFF" d="M116.463,10.56l0.739-0.43V9.034
					c-0.311,0.187-0.478,0.507-0.721,0.757L116.463,10.56z"/>
				<path i:knockout="Off" fill-rule="evenodd" clip-rule="evenodd" fill="#FFFFFF" d="M131.642,12.263
					c-0.178,0.233-0.449,0.291-0.674,0.336c0.394-0.719,0.581-1.721,0.272-2.536c0.205-0.074,0.43-0.112,0.626-0.224l-0.019-0.02
					l0.515-0.449c0.683-0.468,0.42-1.356,0.673-2.021c-0.336-0.523-0.439-1.16-0.926-1.6l0.028-0.019
					c-0.384-0.487-1.076-0.43-1.6-0.673c-0.694-0.234-1.227,0.243-1.724,0.561c-0.215,0.038-0.083,0.318-0.317,0.308
					c-0.131,0.346-0.291,0.721-0.385,1.105c-0.926-0.131-1.927-0.028-2.666,0.496c-0.395-0.291-0.87-0.346-1.329-0.477
					c-0.337-0.067-0.72,0.055-0.963-0.132c-0.355-0.401-0.432-1.132-1.041-1.234c-0.215-0.076-0.26-0.31-0.26-0.516
					c-0.403-0.067-0.76-0.253-1.151-0.337c-0.599-0.272-1.076,0.16-1.525,0.449c-0.198,0.083-0.422,0.112-0.609,0.224
					c-0.336,0.525-0.653,1.058-0.871,1.638c0.067,0.477,0.272,0.897,0.516,1.301c0.215,0.608,0.889,1.086,1.459,1.33
					c-0.271,0.926-0.271,2.029,0,2.965c0,0-0.015,0.013-0.015,0.01c0,0.003-0.03,0.028-0.03,0.028c-0.088,0-0.186,0.017-0.259-0.028
					h-0.012c0.134,0.894,0.554,1.678,1.234,2.349c0.244,0.084,0.187,0.375,0.289,0.561c0.066,0.085,0.076,0.262,0.048,0.337
					c-1.461-0.046-2.762,0.319-3.932,0.983c-0.299,0.15-0.168,0.561-0.196,0.852c0.824-0.544,1.712-0.945,2.695-1.124
					c0.421-0.026,0.897-0.131,1.301-0.019l0.046,0.807c-1.112,0.581-2.33,0.917-3.283,1.872c0.018,0.289-0.038,0.625,0.046,0.869
					l0.853-0.692c0.823-0.628,1.684-1.161,2.628-1.507c0.254,0.299,0.516,0.619,0.853,0.805c0.57-0.366,1.189-0.637,1.844-0.805
					c0.346-0.206,0.899-0.019,1.123-0.43l0.158-0.852c-0.026-0.019-0.046-0.057-0.093-0.048c-0.439-0.253-0.73-0.692-0.692-1.206
					c-0.15,0.074-0.317,0.122-0.496,0.129c-0.148-0.036-0.29-0.074-0.355-0.225c-0.009-0.186-0.104-0.467,0.085-0.606
					c0.607-0.375,1.394-0.394,2.161-0.338c0.57,0.076,1.394,0.047,1.592,0.721c-0.028,0.197-0.01,0.413-0.207,0.543
					c-0.206,0.112-0.439-0.01-0.627-0.095c-0.149,0.46-0.402,0.974-0.916,1.124l0.064,0.542c0.064,0.244,0.084,0.646,0.468,0.561
					c0.889,0.217,1.676,0.675,2.452,1.17c0.263-0.261,0.468-0.561,0.654-0.833c1.387,0.47,2.583,1.508,3.727,2.473l0.045-0.787
					c-1.086-0.965-2.292-1.647-3.547-2.18c0.048-0.253,0.104-0.497,0.114-0.769c1.487,0.085,2.9,0.544,4.125,1.263l-0.019-0.673
					c-1.291-0.693-2.704-1.151-4.247-1.169c-0.058-0.084-0.076-0.206-0.066-0.29c0.749-0.121,1.281-0.897,1.46-1.573
					c0.385-0.439,0.937-0.917,0.806-1.571c0.016-0.055,0.035-0.112,0.055-0.169C131.654,12.587,131.696,12.415,131.642,12.263z"/>
				<path i:knockout="Off" fill-rule="evenodd" clip-rule="evenodd" fill="#FFFFFF" d="M132.942,14.669l0.767-0.244l0.086-0.429
					c0.215-0.628-0.244-1.096-0.469-1.592L132.942,14.669z"/>
				<path i:knockout="Off" fill-rule="evenodd" clip-rule="evenodd" fill="#FFFFFF" d="M134.879,17.634
					c0.365,0.403,0.721,1.048,1.367,0.852c-0.048-0.272-0.198-0.497-0.29-0.74c-0.168-0.196-0.226-0.758-0.562-0.561
					c-0.253-0.168-0.317-0.449-0.478-0.674C134.843,16.858,134.889,17.288,134.879,17.634z"/>
				<path i:knockout="Off" fill-rule="evenodd" clip-rule="evenodd" fill="#FFFFFF" d="M135.01,20.376
					c0.141,0.196,0.18,0.45,0.318,0.628c0.253,0.167,0.628,0.139,0.938,0.112c0.279-0.066,0.458,0.242,0.719,0.065
					c-0.327-0.206-0.523-0.58-0.831-0.853C135.788,20.04,135.395,20.293,135.01,20.376z"/>
				<path i:knockout="Off" fill-rule="evenodd" clip-rule="evenodd" fill="#FFFFFF" d="M135.507,24.729
					c0.646,0.383,1.466,0.758,2.328,0.627c0.093-0.046,0.253-0.037,0.271-0.149c-0.534-0.188-1.094-0.721-1.654-0.833
					c-0.309-0.477-0.712,0.122-1.105,0.084C135.356,24.569,135.468,24.653,135.507,24.729z"/>
				<path i:knockout="Off" fill-rule="evenodd" clip-rule="evenodd" fill="#FFFFFF" d="M137.45,32.992l0.141,0.299
					c0.142,0.974,0.757,1.871,0.421,2.938c0.281,0.198,0.365,0.525,0.544,0.787h0.046c0.215-0.813,0.066-1.656-0.046-2.471
					C138.64,33.806,137.89,33.376,137.45,32.992z"/>
				<path i:knockout="Off" fill-rule="evenodd" clip-rule="evenodd" fill="#FFFFFF" d="M137.612,23.409
					c0.486,0.375,1.263,0.411,1.824,0.225c-0.355-0.196-0.748-0.413-1.039-0.674L137.612,23.409z"/>
				<path i:knockout="Off" fill-rule="evenodd" clip-rule="evenodd" fill="#FFFFFF" d="M139.922,26.281
					c-0.046,0.394,0.215,0.721,0.496,0.919c0.103-0.233,0.27-0.432,0.289-0.693c-0.084-0.402-0.309-0.768-0.674-1.04
					C139.969,25.729,139.893,25.982,139.922,26.281z"/>
				<path i:knockout="Off" fill-rule="evenodd" clip-rule="evenodd" fill="#FFFFFF" d="M139.95,30.55
					c-0.067,0.439,0.42,0.496,0.625,0.739c0.169,0.206-0.112,0.347-0.112,0.543c0.356,0.458,0.563,0.98,0.563,1.59
					c0.139-0.57,0.354-1.113,0.43-1.702c-0.038-0.413-0.692-0.327-0.59-0.786c0.188-0.468-0.037-0.926-0.159-1.349
					c-0.036-0.064-0.122-0.196-0.195-0.157C140.342,29.81,139.922,30.082,139.95,30.55z"/>
				<path i:knockout="Off" fill-rule="evenodd" clip-rule="evenodd" fill="#FFFFFF" d="M141.232,28.322l0.486,0.945
					c0.215-0.028,0.355-0.234,0.523-0.384c0.131-0.393-0.216-0.646-0.317-0.965c-0.085-0.225,0-0.523-0.16-0.719
					c-0.122-0.076-0.261-0.198-0.401-0.16L141.232,28.322z"/>
				<path i:knockout="Off" fill-rule="evenodd" clip-rule="evenodd" fill="#FFFFFF" d="M141.857,25.832
					c0.385,0.234,0.824,0.57,1.031,0.983c0.327,0.955,0.851,1.814,1.234,2.741c0.141,0.646,0.253,1.223,0.43,1.858
					c0.067,0.169,0.029,0.496,0.292,0.468c0.073-0.711,0.214-1.395,0.224-2.134c-0.234-0.309-0.542-0.439-0.833-0.626v-0.066
					c0.038-0.158,0.17-0.347,0.365-0.317c0.083-0.094,0.337-0.187,0.225-0.356c-0.487-0.486-0.459-1.323-1.234-1.474
					c-0.272-0.112-0.337-0.394-0.365-0.654C142.86,25.944,142.318,25.842,141.857,25.832z"/>
				<path i:knockout="Off" fill-rule="evenodd" clip-rule="evenodd" fill="#FFFFFF" d="M142.309,30.905
					c0.476,0.439,0.309,1.076,0.271,1.666c-0.074,0.356,0.374,0.148,0.515,0.337c0.291,0.43,0.122,1.058,0.02,1.525
					c0.253-0.385,0.542-0.721,0.738-1.143c-0.008-0.158,0.197-0.234,0.188-0.431c0.083-0.271-0.234-0.149-0.366-0.177
					c-0.112-0.028-0.233-0.103-0.195-0.253c0.241-0.468,0.018-1.029-0.076-1.497c-0.112-0.384,0.048-0.899-0.132-1.236
					C142.972,30.11,142.082,30.203,142.309,30.905z"/>
				<path i:knockout="Off" fill-rule="evenodd" clip-rule="evenodd" fill="#FFFFFF" d="M143.178,24.261
					c0.834,0.843,1.442,1.689,2.34,2.504c0.019-0.366-0.028-0.702-0.046-1.058c-0.131-0.253-0.375-0.439-0.582-0.628
					C144.226,25.015,143.88,24.12,143.178,24.261z"/>
				<path i:knockout="Off" fill-rule="evenodd" clip-rule="evenodd" fill="#FFFFFF" d="M145.357,28.72
					c0.02,0.086,0.058,0.16,0.096,0.243c0.364,0.6,0.711,1.218,0.964,1.863c-0.076-0.693,0.392-1.553-0.227-2.087
					c-0.083-0.226-0.362-0.15-0.542-0.132L145.357,28.72z"/>
				<path i:knockout="Off" fill-rule="evenodd" clip-rule="evenodd" fill="#FFFFFF" d="M147.604,35.556
					c0.262,0.122,0.599-0.093,0.852-0.243c0.234-0.056,0.43,0.076,0.609,0.197c0.074,0.149,0,0.29,0.028,0.431
					c0.561,0.158,1.112,0.365,1.608,0.692l0.158-0.159c0.038-0.402-0.279-0.693-0.58-0.918c-0.195-0.112-0.487-0.046-0.626-0.224
					c0.094-0.15,0.094-0.375,0.084-0.543c-0.309,0-0.506-0.095-0.757-0.243c-0.16-0.047-0.301-0.179-0.432,0
					C148.081,34.863,148.053,35.332,147.604,35.556z"/>
				<path i:knockout="Off" fill-rule="evenodd" clip-rule="evenodd" fill="#FFFFFF" d="M148.261,23.78
					c0.233-0.067,0.477-0.132,0.673-0.301c0.628-0.571,1.535-0.187,2.266-0.196c-0.141-0.253-0.339-0.506-0.516-0.721
					c-0.263-0.103-0.506-0.224-0.805-0.224c-0.637-0.375-1.066,0.253-1.554,0.561C148.193,23.152,148.129,23.526,148.261,23.78z"/>
				<path i:knockout="Off" fill-rule="evenodd" clip-rule="evenodd" fill="#FFFFFF" d="M148.277,25.707c0-0.029,0-0.058,0.028-0.065
					c0.086,0.074-0.009,0.254,0.132,0.29c0.243-0.122,0.468-0.29,0.692-0.449c0.627,0,1.002-0.609,1.618-0.609
					c1.031,0.188,2.051,0.395,2.948,0.898c-0.064-0.606-0.59-1.16-1.122-1.431c-0.301-0.103-0.535,0.056-0.749,0.225
					c-0.626,0.394-0.299-0.571-0.738-0.59c-0.572,0.177-1.162,0.375-1.798,0.317c-0.374,0.142-0.637,0.487-1.058,0.449
					C148.213,25.053,148.167,25.428,148.277,25.707z"/>
				<path i:knockout="Off" fill-rule="evenodd" clip-rule="evenodd" fill="#FFFFFF" d="M148.709,27.793
					c0.196,0.208,0.523,0.17,0.805,0.208l0.814-0.32c0.009-0.147-0.243-0.187-0.187-0.355c0.225-0.253,0.532-0.074,0.814-0.177
					c0.392-0.057,0.795-0.448,1.188-0.16c-0.012,0.048,0.017,0.112-0.02,0.16c-0.121,0.29,0.084,0.468,0.309,0.58
					c0.459,0.084,0.888,0.506,1.347,0.317c-0.046-0.384-0.148-0.737-0.242-1.104c-0.384-0.065-0.656-0.383-1.011-0.515
					c-0.158,0.15-0.366,0.262-0.562,0.243c-0.721-0.169-1.583-0.618-2.312-0.159c-0.262,0.319-0.73,0.225-1.086,0.365
					C148.587,27.194,148.624,27.504,148.709,27.793z"/>
				<path i:knockout="Off" fill-rule="evenodd" clip-rule="evenodd" fill="#FFFFFF" d="M149.018,33.357
					c-0.056,0.159-0.215,0.42,0.076,0.496c0.598,0.018,1.366-0.291,1.834,0.177c0.159,0.122,0.083,0.375,0.073,0.534l0.786,0.655
					c0.075-0.395,0.217-0.75,0.227-1.171c-0.066-0.3-0.216-0.589-0.478-0.785c-0.516,0-0.814-0.603-1.368-0.529
					c-0.289-0.064-0.542,0.193-0.833,0.193C149.206,33.057,149.13,33.217,149.018,33.357z"/>
				<path i:knockout="Off" fill-rule="evenodd" clip-rule="evenodd" fill="#FFFFFF" d="M149.242,28.944
					c0.121,0.253,0.263,0.665,0.496,0.692c0.552-0.241,1.358-0.392,1.975-0.129c0.205,0.036,0.205,0.27,0.16,0.42
					c0.317,0.187,0.701,0.337,1.038,0.542l-0.094-0.562c-0.019-0.608-0.785-0.663-0.833-1.263c-0.627-0.205-1.329-0.272-1.993-0.112
					c-0.215,0.196-0.525,0.17-0.785,0.225C149.187,28.832,149.232,28.88,149.242,28.944z"/>
				<path i:knockout="Off" fill-rule="evenodd" clip-rule="evenodd" fill="#FFFFFF" d="M149.401,31.977
					c0.365-0.104,0.6-0.505,0.993-0.543c0.598,0.01,1.132,0.254,1.507,0.77c0.224,0.147,0.177,0.531,0.468,0.531
					c-0.086-0.458,0.064-0.878,0.045-1.348c-0.391-0.654-1.365-0.148-1.73-0.917l-0.692,0.047c-0.497,0.123-0.365,0.703-0.43,1.097
					C149.505,31.734,149.393,31.828,149.401,31.977z"/>
				<path i:knockout="Off" fill-rule="evenodd" clip-rule="evenodd" fill="#FFFFFF" d="M152.837,36.071
					c0.289,0.58,0.927,1.02,0.991,1.684c0.149-0.177,0.253-0.383,0.355-0.58c-0.01-0.187-0.225-0.187-0.308-0.337
					c-0.086-0.243,0.045-0.458,0.083-0.674c-0.122-0.346-0.413-0.673-0.739-0.88L152.837,36.071z"/>
				<path i:knockout="Off" fill-rule="evenodd" clip-rule="evenodd" fill="#FFFFFF" d="M153.988,34.592l0.673,0.918
					c0.289-0.458,0.289-1.133,0.177-1.685c-0.064-0.104-0.187-0.272-0.354-0.196C154.231,33.89,154.193,34.293,153.988,34.592z"/>
				<path i:knockout="Off" fill-rule="evenodd" clip-rule="evenodd" fill="#FFFFFF" d="M151.245,8.976
					c0.243,0.122,0.477,0.234,0.769,0.253c0.195-0.103,0.449-0.179,0.692-0.112c0.346,0.225,0.767-0.047,1.17-0.028
					c-0.356-0.337-0.76-0.544-1.17-0.74C152.181,8.46,151.761,8.835,151.245,8.976z"/>
				<path i:knockout="Off" fill-rule="evenodd" clip-rule="evenodd" fill="#FFFFFF" d="M154.904,9.854
					c0.496,0.047,0.853,0.487,1.188,0.852c0.421,0.064,0.739,0.365,0.991,0.673l-0.157-0.495c-0.112-0.497-0.423-0.881-0.74-1.274
					C155.737,9.639,155.296,9.678,154.904,9.854z"/>
				<path i:knockout="Off" fill-rule="evenodd" clip-rule="evenodd" fill="#FF6600" d="M119.981,5.75l0.272,0.029
					c0.728,0.365,1.907,0.552,1.975,1.609c-0.741,0.291-1.452,0.683-2.042,1.282c-0.448-0.458-1.356-0.206-1.507-1.01
					C118.821,6.9,119.091,5.945,119.981,5.75z"/>
				<path i:knockout="Off" fill-rule="evenodd" clip-rule="evenodd" fill="#FF6600" d="M120.684,10.496
					c0.852-0.076,1.675,0.045,2.555-0.029c0.214,0.093,0.438,0.279,0.542,0.495c-0.029,1.011-0.337,1.976-0.383,3.014
					c-0.384,0.158-0.759,0.478-0.853,0.898c-0.346,0.103-0.656,0.308-0.993,0.467c-0.147-0.317-0.121-0.795,0.142-1.058
					c0.365-0.514,1.311-0.394,1.236-1.208c0.243-0.392,0.01-0.898,0.017-1.309c-0.093-0.31-0.187,0.103-0.336,0.093
					c-0.299,0.064-0.607,0.083-0.87-0.067c-0.197-0.206-0.438-0.375-0.496-0.654c-0.263-0.131-0.57-0.336-0.702-0.608
					L120.684,10.496z"/>
				<path i:knockout="Off" fill-rule="evenodd" clip-rule="evenodd" fill="#FF6600" d="M121.713,16.595
					c0.4,0.058,0.823-0.122,1.169,0.076c-0.073,0.132-0.271,0.187-0.43,0.225l-0.628,0.289
					C121.591,17.13,121.722,16.755,121.713,16.595z"/>
				<path i:knockout="Off" fill-rule="evenodd" clip-rule="evenodd" fill="#FF6600" d="M123.35,8.782
					c0.401-0.131,0.833-0.401,1.263-0.272c-0.308,0.31-0.551,0.711-0.785,1.086l-1.282-0.028
					C122.687,9.23,123.042,8.951,123.35,8.782z"/>
				<path i:knockout="Off" fill-rule="evenodd" clip-rule="evenodd" fill="#FF6600" d="M127.103,8.474
					c0.533-0.093,0.504,0.599,0.991,0.625c0.086,0.112,0.208,0.215,0.16,0.384c-0.282,0.112-0.693,0.058-1.011,0.131
					c-0.422-0.234-0.149-0.964-0.814-0.917c-0.037-0.057-0.111-0.169-0.019-0.206C126.616,8.417,126.889,8.445,127.103,8.474z"/>
				<path i:knockout="Off" fill-rule="evenodd" clip-rule="evenodd" fill="#FF6600" d="M126.766,10.98
					c0.234-0.328,0.59-0.355,0.927-0.42l2.424,0.045c0.103,0.095-0.094,0.179-0.094,0.291c-0.149,0.141-0.365,0.179-0.496,0.309
					c-0.318,0.009-0.29,0.384-0.514,0.544c-0.347,0.346-0.853,0.186-1.255,0.131c-0.14-0.104-0.299-0.244-0.366-0.403l-0.112,0.112
					c0.141,0.525,0.104,1.105,0.208,1.638l0.58,0.384c0.009,0.86,1.02,0.626,1.459,1.104c-0.103,0.31-0.309,0.571-0.533,0.833
					c-0.355-0.346-0.759-0.57-1.188-0.721c-0.038-0.503-0.59-0.804-0.897-1.056c-0.086-0.918-0.104-1.854-0.253-2.743L126.766,10.98
					z"/>
				<path i:knockout="Off" fill-rule="evenodd" clip-rule="evenodd" fill="#FF6600" d="M127.646,16.755h1.124l-0.141,0.589
					l-1.125-0.477C127.478,16.774,127.58,16.746,127.646,16.755z"/>
				<path i:knockout="Off" fill-rule="evenodd" clip-rule="evenodd" fill="#FF6600" d="M129.667,6.153l0.833-0.262
					c0.478,0.224,0.926,0.504,1.366,0.823c0.346,0.636,0.291,1.497,0.131,2.208c-0.253,0.28-0.805,0-1.01,0.449h-0.039
					c-0.308-0.879-1.188-1.667-2.002-2.067C129.077,6.854,129.218,6.414,129.667,6.153z"/>
			</g>
		</g>
	</g>
</svg>
