<?xml version="1.0" encoding="UTF-8" standalone="no"?>
<!-- Created with Inkscape (http://www.inkscape.org/) -->

<svg
   xmlns:dc="http://purl.org/dc/elements/1.1/"
   xmlns:cc="http://creativecommons.org/ns#"
   xmlns:rdf="http://www.w3.org/1999/02/22-rdf-syntax-ns#"
   xmlns:svg="http://www.w3.org/2000/svg"
   xmlns="http://www.w3.org/2000/svg"
   xmlns:sodipodi="http://sodipodi.sourceforge.net/DTD/sodipodi-0.dtd"
   xmlns:inkscape="http://www.inkscape.org/namespaces/inkscape"
   width="168.82172"
   height="34.407089"
   viewBox="0 0 44.667411 9.103542"
   version="1.1"
   id="svg8"
   inkscape:version="0.92.0 r15299"
   sodipodi:docname="banco sabadell.svg">
  <defs
     id="defs2">
    <clipPath
       id="clipPath26"
       clipPathUnits="userSpaceOnUse">
      <path
         inkscape:connector-curvature="0"
         id="path24"
         d="M 0,0 H 595.276 V 841.89 H 0 Z" />
    </clipPath>
  </defs>
  <sodipodi:namedview
     id="base"
     pagecolor="#ffffff"
     bordercolor="#666666"
     borderopacity="1.0"
     inkscape:pageopacity="0.0"
     inkscape:pageshadow="2"
     inkscape:zoom="5.3449574"
     inkscape:cx="83.910856"
     inkscape:cy="16.703531"
     inkscape:document-units="mm"
     inkscape:current-layer="layer1"
     showgrid="false"
     fit-margin-top="0"
     fit-margin-left="0"
     fit-margin-right="0"
     fit-margin-bottom="0"
     units="px"
     inkscape:window-width="1280"
     inkscape:window-height="744"
     inkscape:window-x="-4"
     inkscape:window-y="-4"
     inkscape:window-maximized="1" />
  <metadata
     id="metadata5">
    <rdf:RDF>
      <cc:Work
         rdf:about="">
        <dc:format>image/svg+xml</dc:format>
        <dc:type
           rdf:resource="http://purl.org/dc/dcmitype/StillImage" />
        <dc:title></dc:title>
      </cc:Work>
    </rdf:RDF>
  </metadata>
  <g
     inkscape:label="Layer 1"
     inkscape:groupmode="layer"
     id="layer1"
     transform="translate(-304.37001,-288.53617)">
    <g
       id="g64"
       transform="translate(0.13229122,-0.13228923)">
      <path
         d="m 310.15274,291.69212 c 0,-1.59667 -1.29434,-2.89137 -2.89137,-2.89137 -1.59667,0 -2.89136,1.2947 -2.89136,2.89137 0,1.59667 1.29469,2.89137 2.89136,2.89137 1.59703,0 2.89137,-1.2947 2.89137,-2.89137 m -2.23873,-0.0646 v 0.008 c 0.35807,0.072 0.60255,0.34572 0.60255,0.72072 0,0.25294 -0.1517,0.47625 -0.35419,0.62406 -0.21061,0.15593 -0.49283,0.15593 -0.74154,0.15593 h -1.29399 v -2.89136 h 1.29399 c 0.22754,0 0.46355,0 0.66146,0.12629 0.23213,0.14746 0.35419,0.35842 0.35419,0.63218 0,0.32879 -0.21908,0.54821 -0.52247,0.62406 m -0.26141,0.91017 c 0.097,-0.0632 0.1517,-0.18133 0.1517,-0.29916 0,-0.10971 -0.0674,-0.22331 -0.1644,-0.27834 -0.097,-0.0547 -0.23177,-0.0547 -0.34148,-0.0547 H 306.801 v 0.69533 h 0.46813 c 0.12207,0 0.27799,0.008 0.38347,-0.0632 m -0.0339,-1.21391 c 0.0801,-0.0589 0.12241,-0.16439 0.12241,-0.26106 0,-0.10548 -0.0508,-0.20672 -0.14323,-0.2614 -0.097,-0.0547 -0.2741,-0.0423 -0.38805,-0.0423 H 306.801 v 0.63253 h 0.45967 c 0.11783,0 0.25717,0.008 0.35807,-0.0677"
         style="fill:#0082c9;fill-opacity:1;fill-rule:nonzero;stroke:none;stroke-width:0.35277778"
         id="path30"
         inkscape:connector-curvature="0" />
      <path
         d="m 316.39984,291.84922 c -0.44626,-1.26436 -1.48731,-1.71062 -2.7626,-1.71062 -0.66922,0 -1.29611,0.14887 -1.82739,0.59514 -0.5207,0.43568 -0.78634,1.03046 -0.78634,1.71062 0,1.59349 1.27529,1.9759 2.57139,2.24155 0.44627,0.0956 1.27494,0.21272 1.27494,0.81809 0,0.60572 -0.64805,0.78634 -1.137,0.78634 -0.75424,0 -1.30669,-0.26564 -1.51906,-1.03046 l -1.57268,0.36124 c 0.32949,1.42346 1.57268,2.01859 2.94322,2.01859 0.73307,0 1.53,-0.13793 2.1142,-0.59513 0.56303,-0.43533 0.90311,-1.11549 0.90311,-1.82739 0,-0.72249 -0.36125,-1.32786 -0.95603,-1.7212 -0.51012,-0.34008 -1.30704,-0.4886 -1.90182,-0.61631 -0.41452,-0.0741 -1.05199,-0.20179 -1.05199,-0.73307 0,-0.56303 0.55245,-0.6798 1.0093,-0.6798 0.64805,0 1.0414,0.24412 1.25377,0.86042 z m 5.63104,5.68431 c -0.085,-0.26564 -0.10619,-0.53129 -0.10619,-0.80751 v -2.51813 c 0,-0.64805 0.0529,-1.24319 -0.49953,-1.68945 -0.43568,-0.36125 -1.15817,-0.4886 -1.71062,-0.4886 -1.13665,0 -2.41159,0.38241 -2.57104,1.68945 l 1.47672,0.13794 c 0,-0.53128 0.43568,-0.78599 0.93522,-0.78599 0.23354,0 0.49918,0.0741 0.63747,0.25471 0.1591,0.20214 0.13793,0.47836 0.13793,0.7119 v 0.12771 c -0.65863,0.0635 -1.51941,0.10618 -2.13536,0.33972 -0.71191,0.26565 -1.21144,0.80751 -1.21144,1.60444 0,1.01988 0.74366,1.52999 1.70004,1.52999 0.8075,0 1.27493,-0.30797 1.7212,-0.94544 -0.0106,0.27622 0.0106,0.56303 0.0744,0.83926 z m -1.70004,-2.36926 c 0,0.38241 0.0106,0.70097 -0.21237,1.04105 -0.18062,0.27622 -0.46743,0.44626 -0.78634,0.44626 -0.43568,0 -0.69039,-0.2868 -0.69039,-0.7119 0,-0.78599 1.09432,-0.92428 1.6891,-0.98813 z m 4.03754,-0.66957 c 0,-0.57362 0.10619,-1.39171 0.86043,-1.39171 0.86078,0 0.86078,1.12607 0.86078,1.73179 0,0.58455 0,1.71062 -0.88195,1.71062 -0.28681,0 -0.51011,-0.13829 -0.65863,-0.37183 -0.17004,-0.26564 -0.18063,-0.60572 -0.18063,-0.90311 z m -1.58326,3.03883 h 0.85019 c 0.0956,-0.28681 0.1591,-0.59514 0.35031,-0.82868 0.39335,0.64806 0.76518,0.93486 1.54058,0.93486 1.6256,0 2.18899,-1.3917 2.18899,-2.80493 0,-1.27494 -0.46743,-2.80494 -2.00837,-2.80494 -0.60536,0 -1.05163,0.25506 -1.31727,0.78634 h -0.0427 v -2.57139 h -1.56174 z m 10.29546,0 c -0.085,-0.26564 -0.10618,-0.53129 -0.10618,-0.80751 v -2.51813 c 0,-0.64805 0.0529,-1.24319 -0.49954,-1.68945 -0.43568,-0.36125 -1.15816,-0.4886 -1.71061,-0.4886 -1.13665,0 -2.41159,0.38241 -2.57105,1.68945 l 1.47673,0.13794 c 0,-0.53128 0.43568,-0.78599 0.93486,-0.78599 0.23389,0 0.49953,0.0741 0.63782,0.25471 0.1591,0.20214 0.13794,0.47836 0.13794,0.7119 v 0.12771 c -0.65864,0.0635 -1.51942,0.10618 -2.13572,0.33972 -0.71155,0.26565 -1.21108,0.80751 -1.21108,1.60444 0,1.01988 0.74365,1.52999 1.70003,1.52999 0.80751,0 1.27494,-0.30797 1.7212,-0.94544 -0.0106,0.27622 0.0106,0.56303 0.0744,0.83926 z m -1.70003,-2.36926 c 0,0.38241 0.0106,0.70097 -0.21237,1.04105 -0.18063,0.27622 -0.46743,0.44626 -0.78635,0.44626 -0.43568,0 -0.69073,-0.2868 -0.69073,-0.7119 0,-0.78599 1.09431,-0.92428 1.68945,-0.98813 z m 7.06543,2.36926 v -7.28874 h -1.56175 V 292.71 c -0.34007,-0.49954 -0.74365,-0.68016 -1.34937,-0.68016 -1.57268,0 -1.97626,1.58327 -1.97626,2.86879 0,1.25377 0.4251,2.74108 1.94416,2.74108 0.69074,0 1.137,-0.37182 1.43439,-0.94544 h 0.0215 v 0.83926 z m -1.56175,-2.25249 c 0,0.26564 -0.0106,0.55245 -0.13828,0.79693 -0.12736,0.24447 -0.393,0.43568 -0.67981,0.43568 -0.77576,0 -0.86078,-0.98813 -0.86078,-1.57269 0,-0.64805 0.0321,-1.8168 0.92428,-1.8168 0.71191,0 0.75459,0.89253 0.75459,1.41323 z m 7.29898,-0.18062 c 0.0106,-0.73307 -0.10619,-1.49825 -0.55245,-2.1142 -0.44627,-0.6163 -1.22167,-0.95638 -1.97627,-0.95638 -1.67851,0 -2.62431,1.28552 -2.62431,2.87937 0,1.60444 1.05198,2.7305 2.667,2.7305 1.82739,0 2.45428,-1.59385 2.45428,-1.85949 l -1.44498,-0.10618 c 0,0.49953 -0.47802,0.85019 -0.95638,0.85019 -0.6798,0 -1.04105,-0.5207 -1.04105,-1.15817 l 0.0106,-0.26564 z m -3.47416,-0.92428 c 0.0529,-0.6163 0.31856,-1.12642 1.0093,-1.12642 0.68015,0 0.87136,0.54187 0.90311,1.12642 z m 4.16489,3.35739 h 1.56175 v -7.28874 h -1.56175 z m 2.33716,0 h 1.56174 v -7.28874 h -1.56174 z"
         style="fill:#000000;fill-opacity:1;fill-rule:nonzero;stroke:none;stroke-width:0.35277778"
         id="path34"
         inkscape:connector-curvature="0" />
    </g>
  </g>
</svg>
