<svg focusable="false" class="bb bl bm bk" version="1.1" xmlns="http://www.w3.org/2000/svg" xmlns:xlink="http://www.w3.org/1999/xlink" viewBox="0 0 1200 819.91" xml:space="preserve"><title>N26 logo</title><path d="m302.29 179.3v315.58c0 27.93.65 44.83 1.95 61.07h-1.3c-6.83-18.6-14.88-34.9-26.89-56.12l-186.64-320.53h-85.3v461.3h66.46v-315.6c0-27.94-.65-44.83-1.94-61.08h1.37c6.82 18.6 14.87 34.89 26.89 56.1l186.58 320.58h84.4v-461.3z"></path><path d="m1060.44 333.69c-55 0-94.27 25.44-114.12 63.1 0-89 31-166.47 104.7-166.47 46.84 0 65.43 26.95 75.36 71.14l68.22-13.65c-16-76.29-64.53-113.37-143.1-113.37-98.72 0-172.58 75.8-172.58 245.69 0 150.81 61.59 225.35 167.71 225.35 87.69 0 153.37-59.88 153.37-158.55 0-77.09-41.1-153.24-139.56-153.24zm-13.64 256.05c-54.42 0-92.1-50-98.62-116.39 16.53-56.63 53.18-84.84 96.52-84.84 55.71 0 87.14 41.14 87.14 99.63 0 62.78-35.84 101.6-85.04 101.6z"></path><path d="m577.29 580.84c34.73-24 84.52-63.87 106.61-86 25.11-25.12 96.59-89.69 96.59-181.74 0-95.15-62-138.7-145.85-138.7-101.64.04-151.83 62.6-151.83 134.17a146.72 146.72 0 0 0 4.55 36.43l69.64 6.7a185.21 185.21 0 0 1 -4.55-39.63c0-53.6 35.47-79.25 79.88-79.25 43.3 0 75.35 24.26 75.35 82.6 0 59.29-29 99.7-73.16 143.91-46.17 46.2-119.97 101.32-155.52 126.67v54.6h306.67v-59.76z"></path><path d="m372 760.14v59.77h-372v-59.77z"></path><path d="m372 0v59.77h-372v-59.77z"></path><path d="m302.29 179.3v315.58c0 27.93.65 44.83 1.95 61.07h-1.3c-6.83-18.6-14.88-34.9-26.89-56.12l-186.64-320.53h-85.3v461.3h66.46v-315.6c0-27.94-.65-44.83-1.94-61.08h1.37c6.82 18.6 14.87 34.89 26.89 56.1l186.58 320.58h84.4v-461.3z"></path></svg>