<svg xmlns="http://www.w3.org/2000/svg" viewBox="0 0 512 512"><path d="M503.562 272.168c0-25.965-21.124-47.088-47.088-47.088h-85.375c13.222-23.935 20.253-46.525 20.253-77.724v-5.042-.008c-.005-16.782-6.491-32.607-18.267-44.559-11.769-11.945-27.482-18.669-44.245-18.931-.16-.002-.321-.004-.481-.004-16.247 0-30.455 12.922-31.789 29.023-6.361 76.781-80.346 116.349-129.835 140.415v-7.945c0-8.3-6.729-15.028-15.028-15.028H23.466c-8.3 0-15.028 6.729-15.028 15.028v256.48c0 8.299 6.729 15.028 15.028 15.028h96.18c18.422 0 34.396-10.639 42.129-26.091C215.299 508.972 261.799 512 315.199 512c9.121 0 18.452-.088 28.046-.179 10.609-.1 21.579-.204 33.079-.204h47.515c25.965 0 47.088-21.124 47.088-47.088 0-8.73-2.388-16.912-6.545-23.929 13.529-8.283 22.575-23.199 22.575-40.191 0-8.73-2.387-16.912-6.545-23.929 13.529-8.283 22.575-23.199 22.575-40.191 0-12.228-4.687-23.379-12.356-31.758 8.004-8.446 12.931-19.837 12.931-32.363zM136.678 464.724c0 9.392-7.64 17.032-17.032 17.032h-17.032v-49.092c0-8.3-6.729-15.028-15.028-15.028s-15.028 6.729-15.028 15.028v49.092H38.495V255.332h98.184v209.392zm287.736-145.468h31.485c9.392 0 17.032 7.64 17.032 17.032s-7.64 17.032-17.032 17.032h-31.485c-8.3 0-15.028 6.729-15.028 15.028s6.729 15.028 15.028 15.028h15.455c9.392 0 17.032 7.64 17.032 17.032s-7.64 17.032-17.032 17.032h-16.03c-8.3 0-15.028 6.729-15.028 15.028s6.729 15.028 15.028 15.028c9.392 0 17.032 7.64 17.032 17.032s-7.64 17.032-17.032 17.032h-47.515c-11.642 0-22.684.104-33.363.206-66.992.633-116.21 1.101-176.029-26.674V281.537h-.001c1.564-.756 3.169-1.531 4.806-2.32 26.125-12.596 61.904-29.846 92.668-55.973 37.661-31.986 58.562-69.981 62.119-112.929.042-.51 1.022-1.449 1.829-1.449h.016c18.156.284 32.927 15.293 32.927 33.457v5.032c0 31.24-8.147 51.006-25.188 77.724h-23.904c-8.3 0-15.028 6.729-15.028 15.028 0 8.3 6.729 15.028 15.028 15.028h144.27c9.392 0 17.032 7.64 17.032 17.032s-7.64 17.032-17.032 17.032h-32.06c-8.3 0-15.028 6.729-15.028 15.028 0 8.3 6.729 15.029 15.028 15.029zM472.307 111.062h-32.06c-8.3 0-15.028 6.729-15.028 15.028s6.729 15.028 15.028 15.028h32.06c8.3 0 15.028-6.729 15.028-15.028s-6.728-15.028-15.028-15.028z" fill="#9e9e9e"/><path d="M247.887 111.062h-32.06c-8.3 0-15.028 6.729-15.028 15.028s6.729 15.028 15.028 15.028h32.06c8.299 0 15.028-6.729 15.028-15.028s-6.729-15.028-15.028-15.028zM308.991 35.282l-16.03-27.765c-4.15-7.188-13.341-9.651-20.528-5.5-7.188 4.15-9.65 13.341-5.5 20.528l16.03 27.765c2.783 4.822 7.835 7.516 13.028 7.516 2.549 0 5.134-.649 7.5-2.016 7.187-4.149 9.65-13.34 5.5-20.528zM415.701 2.017c-7.188-4.152-16.38-1.687-20.528 5.5l-16.03 27.765c-4.151 7.187-1.688 16.379 5.5 20.528 2.366 1.367 4.95 2.016 7.5 2.016 5.194 0 10.246-2.695 13.028-7.516l16.03-27.765c4.15-7.187 1.688-16.378-5.5-20.528z" fill="#9e9e9e"/></svg>