<svg xmlns="http://www.w3.org/2000/svg" viewBox="0 0 228.958 228.958"><path d="M228.958 184.999v11.422c0 4.142-3.357 7.5-7.5 7.5H131.98c-4.143 0-7.5-3.358-7.5-7.5v-11.422c0-4.142 3.357-7.5 7.5-7.5h89.478c4.143 0 7.5 3.358 7.5 7.5zm-12.721-58.07l-3.011-7.319c-1.729-4.202-5.74-6.938-10.266-7.036-.094-.471-.231-.941-.421-1.402l-2.379-5.784c1.484-.814 2.66-2.108 3.318-3.686.766-1.836.771-3.901.015-5.741l-11.951-29.052c-1.466-3.563-5.36-5.388-8.982-4.359l-2.38-5.785c-.188-.457-.42-.891-.69-1.297 3.033-3.151 4.107-7.917 2.339-12.217l-3.011-7.319c-2.723-6.619-9.107-10.896-16.265-10.896-2.3 0-4.549.446-6.686 1.325l-38.458 15.82c-8.966 3.688-13.26 13.983-9.572 22.95l3.012 7.322c1.731 4.204 5.749 6.94 10.278 7.033.094.47.231.938.42 1.397l2.377 5.778c-1.5.813-2.687 2.116-3.35 3.705-.641 1.538-.741 3.234-.315 4.826l-1.854.763c-1.84.756-3.304 2.213-4.069 4.049-.519 1.245-.68 2.595-.499 3.91l-28.31 11.646c-.596-.515-1.271-.942-2.012-1.251-1.836-.766-3.9-.771-5.74-.014L4.649 144.378c-3.83 1.576-5.658 5.958-4.083 9.789l5.831 14.175c.757 1.84 2.214 3.303 4.05 4.069.924.385 1.905.578 2.887.578.97 0 1.939-.188 2.854-.564l73.128-30.082c2.704-1.112 4.403-3.624 4.618-6.353l28.309-11.645c.796 1.061 1.86 1.907 3.106 2.427.924.385 1.905.578 2.887.578.97 0 1.939-.188 2.854-.564l1.858-.765c1.354 2.375 3.864 3.788 6.506 3.788.69 0 1.389-.099 2.077-.299l2.378 5.78c.188.456.418.888.687 1.292-3.04 3.151-4.117 7.922-2.348 12.225l3.012 7.32c2.724 6.619 9.107 10.896 16.265 10.896 2.299 0 4.549-.446 6.686-1.325l38.458-15.82c8.963-3.686 13.257-13.982 9.568-22.949z" fill="#277eea"/></svg>