<svg xmlns="http://www.w3.org/2000/svg" xmlns:xlink="http://www.w3.org/1999/xlink" viewBox="0 0 34.39 22.29"><defs><style>.cls-1{fill:url(#radial-gradient);}.cls-2{fill:url(#radial-gradient-2);}.cls-3{fill:url(#radial-gradient-3);}</style><radialGradient id="radial-gradient" cx="0.63" cy="4.65" r="48.8" gradientUnits="userSpaceOnUse"><stop offset="0" stop-color="#2082ba"/><stop offset="1" stop-color="#56d391"/></radialGradient><radialGradient id="radial-gradient-2" cx="0.63" cy="13.57" r="48.8" xlink:href="#radial-gradient"/><radialGradient id="radial-gradient-3" cx="0.63" cy="22.48" r="48.8" xlink:href="#radial-gradient"/></defs><title>menu__icon</title><g id="Layer_2" data-name="Layer 2"><g id="Layer_1-2" data-name="Layer 1"><path class="cls-1" d="M33.89,0H.5A.47.47,0,0,0,0,.45V4a.47.47,0,0,0,.5.45H33.89a.48.48,0,0,0,.5-.45V.45A.48.48,0,0,0,33.89,0Z"/><path class="cls-2" d="M33.89,8.91H.5a.48.48,0,0,0-.5.45v3.56a.47.47,0,0,0,.5.45H33.89a.48.48,0,0,0,.5-.45V9.36A.49.49,0,0,0,33.89,8.91Z"/><path class="cls-3" d="M33.89,17.83H.5a.47.47,0,0,0-.5.45v3.56a.47.47,0,0,0,.5.45H33.89a.48.48,0,0,0,.5-.45V18.28A.48.48,0,0,0,33.89,17.83Z"/></g></g></svg>