<?xml version="1.0" standalone="no"?>
<!DOCTYPE svg PUBLIC "-//W3C//DTD SVG 20010904//EN"
 "http://www.w3.org/TR/2001/REC-SVG-20010904/DTD/svg10.dtd">
<svg version="1.0" xmlns="http://www.w3.org/2000/svg"
 width="1967.000000pt" height="640.000000pt" viewBox="0 0 1967.000000 640.000000"
 preserveAspectRatio="xMidYMid meet">

<g transform="translate(0.000000,640.000000) scale(0.100000,-0.100000)"
fill="#000000" stroke="none">
<path d="M5145 6384 c-33 -2 -154 -8 -270 -14 -1476 -75 -2910 -375 -3996
-835 -196 -83 -530 -250 -716 -357 l-163 -93 0 -1885 0 -1885 144 -83 c1088
-626 2556 -1027 4281 -1171 458 -38 645 -46 1150 -46 832 0 1590 63 2390 200
1200 206 2188 533 3008 997 l177 101 0 1887 0 1886 -177 101 c-1158 659 -2703
1054 -4603 1179 -217 14 -1078 27 -1225 18z m1015 -734 c1629 -87 3147 -428
4163 -936 l107 -54 0 -1460 0 -1460 -121 -60 c-580 -291 -1419 -553 -2284
-714 -913 -170 -1964 -256 -2772 -227 -1708 60 -3257 387 -4366 919 l-157 75
0 1467 0 1467 152 73 c872 415 2012 708 3288 844 360 39 682 61 1140 80 131 5
643 -3 850 -14z"/>
<path d="M5597 4440 c-461 -34 -669 -167 -761 -483 -54 -186 -61 -278 -61
-812 0 -352 4 -514 13 -575 53 -344 174 -489 472 -564 124 -31 260 -45 510
-53 347 -10 983 28 1213 73 l27 6 0 280 0 281 -137 -6 c-308 -15 -770 -19
-882 -8 -193 18 -207 37 -223 288 -10 180 -3 633 13 748 13 94 44 155 91 178
65 32 295 40 693 26 193 -6 366 -12 385 -13 l35 -1 3 281 2 282 -22 5 c-38 10
-374 45 -528 56 -206 15 -703 21 -843 11z"/>
<path d="M1937 3207 c-224 -655 -407 -1195 -407 -1199 0 -5 298 -8 663 -8
l662 0 24 92 c14 51 57 202 96 336 l72 242 -169 0 c-123 0 -168 3 -168 12 0
31 315 1116 328 1130 9 9 204 -652 321 -1082 49 -179 115 -416 147 -527 l59
-203 503 0 c276 0 502 1 502 3 0 4 -766 2240 -796 2325 l-26 72 -702 0 -701 0
-408 -1193z"/>
<path d="M7270 4090 l0 -310 350 0 350 0 0 -890 0 -890 480 0 480 0 0 890 0
890 350 0 350 0 0 310 0 310 -1180 0 -1180 0 0 -310z"/>
<path d="M11580 5870 l0 -30 80 0 80 0 0 -200 0 -200 30 0 30 0 0 200 0 200
80 0 80 0 0 30 0 30 -190 0 -190 0 0 -30z"/>
<path d="M12047 5683 c-10 -120 -17 -224 -17 -230 0 -8 13 -13 29 -13 34 0 37
8 47 180 4 63 10 123 13 132 4 13 23 -21 60 -108 54 -123 55 -125 85 -122 29
3 34 10 87 131 l56 127 7 -72 c3 -40 9 -117 12 -170 l7 -98 34 0 35 0 -6 48
c-3 26 -10 110 -16 187 -17 231 -15 225 -56 225 -19 0 -34 -1 -34 -3 0 -2 -29
-71 -63 -155 l-64 -151 -64 154 -64 155 -35 0 -36 0 -17 -217z"/>
<path d="M15250 4490 l0 -420 45 0 45 0 0 191 c0 121 4 198 11 212 34 67 99
96 169 77 69 -19 74 -35 80 -270 l5 -205 48 -3 47 -3 0 201 c0 118 -5 220 -11
247 -34 134 -216 177 -321 76 l-28 -27 0 172 0 172 -45 0 -45 0 0 -420z"/>
<path d="M13750 4469 l0 -400 48 3 47 3 3 178 2 177 175 0 175 0 0 -180 0
-180 50 0 50 0 0 400 0 400 -50 0 -50 0 0 -175 0 -175 -175 0 -175 0 0 175 0
175 -50 0 -50 0 0 -401z"/>
<path d="M14440 4825 l0 -45 50 0 50 0 0 45 0 45 -50 0 -50 0 0 -45z"/>
<path d="M14795 4639 c-40 -11 -80 -50 -107 -102 -17 -33 -22 -65 -26 -153 -9
-216 53 -314 198 -314 55 0 107 18 129 43 22 28 31 20 31 -28 0 -128 -116
-193 -238 -133 l-45 21 -28 -34 -29 -34 26 -21 c36 -30 90 -44 165 -44 111 0
196 56 228 149 7 22 11 138 11 342 l0 309 -45 0 c-41 0 -45 -2 -45 -25 0 -30
-7 -31 -34 -6 -42 37 -123 50 -191 30z m175 -114 c36 -35 55 -115 47 -202 -10
-100 -46 -151 -114 -160 -56 -7 -106 16 -127 62 -23 48 -25 205 -3 258 33 79
136 100 197 42z"/>
<path d="M14442 4358 l3 -283 48 -3 47 -3 0 285 0 286 -50 0 -50 0 2 -282z"/>
<path d="M15463 3514 c-53 -26 -67 -58 -71 -161 l-4 -93 -34 0 c-33 0 -34 -1
-34 -40 0 -39 1 -40 35 -40 l35 0 0 -246 0 -245 48 3 47 3 3 243 2 242 60 0
60 0 0 40 0 40 -60 0 -60 0 0 79 c0 71 2 82 22 95 12 9 39 16 60 16 38 0 38 0
38 40 l0 40 -57 0 c-32 0 -72 -8 -90 -16z"/>
<path d="M13750 3090 l0 -400 50 0 50 0 0 159 0 159 133 4 c147 5 189 17 246
71 47 45 71 101 71 170 0 101 -43 170 -135 213 -47 22 -62 24 -232 24 l-183 0
0 -400z m369 292 c100 -50 106 -186 12 -249 -31 -21 -46 -23 -157 -23 l-124 0
0 145 0 145 118 0 c92 0 124 -4 151 -18z"/>
<path d="M14509 3257 c-113 -43 -165 -143 -157 -307 5 -110 39 -187 101 -228
34 -23 54 -28 122 -30 67 -3 91 0 133 18 75 32 82 45 45 81 l-30 30 -35 -20
c-107 -64 -222 -13 -235 103 l-6 46 182 0 181 0 0 74 c0 141 -78 233 -207 242
-35 3 -72 -1 -94 -9z m152 -103 c24 -22 43 -57 53 -96 l6 -28 -135 0 c-129 0
-135 1 -135 20 0 34 38 98 68 115 36 20 115 14 143 -11z"/>
<path d="M15106 3260 c-16 -5 -44 -24 -63 -42 l-33 -32 0 37 0 37 -45 0 -45 0
0 -285 0 -285 44 0 44 0 4 198 c3 214 7 231 63 268 27 18 86 23 126 10 23 -7
27 -3 44 34 12 28 15 44 8 51 -14 14 -112 20 -147 9z"/>
<path d="M15821 3256 c-56 -19 -116 -77 -138 -135 -22 -56 -24 -236 -4 -294
30 -88 104 -136 207 -137 105 0 176 37 217 113 20 38 22 56 22 177 0 130 -1
137 -28 182 -51 88 -170 128 -276 94z m162 -106 c45 -39 61 -97 55 -197 -7
-119 -42 -169 -126 -180 -54 -7 -103 18 -130 66 -29 51 -32 207 -4 261 40 81
142 106 205 50z"/>
<path d="M16430 3255 c-19 -9 -45 -26 -57 -37 l-23 -21 0 31 c0 32 -1 32 -50
32 l-50 0 0 -286 0 -285 48 3 47 3 5 207 c5 202 6 207 29 232 33 35 90 50 138
37 20 -6 40 -8 44 -5 15 9 32 75 22 85 -18 18 -116 21 -153 4z"/>
<path d="M16857 3255 c-22 -7 -50 -23 -63 -36 l-24 -22 0 31 c0 32 -1 32 -50
32 l-50 0 0 -286 0 -285 48 3 47 3 5 200 c4 172 8 205 23 229 37 56 141 72
189 29 42 -37 48 -72 48 -273 l0 -190 44 0 44 0 4 198 c3 219 7 233 71 273 42
26 119 20 154 -12 36 -35 43 -79 43 -276 l0 -183 46 0 45 0 -3 228 c-3 218 -4
228 -27 265 -58 95 -211 112 -315 36 l-39 -28 -33 29 c-55 48 -134 62 -207 35z"/>
<path d="M17715 3256 c-50 -16 -95 -44 -95 -60 0 -7 11 -23 24 -35 l25 -23 46
22 c37 18 58 21 112 18 85 -5 113 -33 113 -109 l0 -49 -124 0 c-111 0 -126 -2
-156 -22 -58 -40 -75 -72 -75 -142 0 -53 4 -68 27 -98 40 -52 98 -72 193 -66
57 4 83 11 106 27 l29 22 0 -26 c0 -23 4 -25 45 -25 l45 0 0 225 c0 247 -3
260 -59 308 -52 43 -174 59 -256 33z m225 -356 c0 -86 -47 -125 -152 -125 -76
0 -112 25 -116 82 -3 34 1 44 24 62 23 18 40 21 135 21 l109 0 0 -40z"/>
<path d="M18349 3257 c-20 -8 -50 -24 -68 -36 l-31 -22 0 30 c0 30 -1 31 -45
31 l-45 0 0 -285 0 -285 45 0 45 0 0 191 c0 213 6 241 62 274 20 12 49 18 79
17 108 -2 119 -28 119 -287 l0 -196 48 3 47 3 0 220 c0 215 -1 221 -25 263
-13 24 -39 52 -57 63 -42 26 -127 34 -174 16z"/>
<path d="M18881 3258 c-89 -25 -151 -100 -171 -204 -31 -164 37 -316 159 -352
91 -28 208 -6 255 47 20 22 20 22 -11 52 l-30 31 -38 -26 c-29 -20 -50 -26
-90 -26 -102 0 -156 65 -157 188 -1 88 14 133 57 171 58 50 130 53 199 6 l36
-24 27 36 27 35 -29 24 c-60 48 -155 65 -234 42z"/>
<path d="M19356 3256 c-21 -8 -56 -32 -77 -52 -57 -56 -74 -109 -74 -234 0
-95 3 -110 28 -163 42 -84 86 -111 192 -115 67 -3 91 0 133 18 75 32 82 45 45
81 l-30 30 -35 -20 c-107 -64 -222 -13 -235 103 l-6 46 188 0 188 0 -7 73
c-14 148 -91 237 -214 244 -33 2 -73 -3 -96 -11z m155 -102 c24 -22 43 -57 53
-96 l6 -28 -135 0 c-151 0 -148 -2 -118 71 22 56 64 81 126 76 27 -2 56 -12
68 -23z"/>
<path d="M15530 1776 c0 -225 4 -385 10 -401 12 -32 87 -68 133 -63 30 3 32 6
35 46 3 41 2 42 -27 42 -62 0 -61 -5 -61 391 l0 359 -45 0 -45 0 0 -374z"/>
<path d="M13750 1709 l0 -401 168 5 c175 5 218 13 272 50 96 64 120 137 120
358 0 196 -12 242 -80 309 -68 69 -112 80 -317 80 l-163 0 0 -401z m373 282
c67 -41 81 -84 85 -257 4 -167 -4 -216 -45 -265 -41 -48 -78 -59 -203 -59
l-110 0 0 306 0 306 118 -3 c102 -4 122 -7 155 -28z"/>
<path d="M14565 1878 c-111 -39 -178 -177 -160 -333 17 -156 96 -234 235 -235
79 0 125 12 168 43 l31 24 -27 32 -27 32 -55 -25 c-65 -31 -103 -32 -150 -7
-43 22 -70 66 -73 117 l-2 39 183 3 182 2 0 53 c0 161 -96 269 -235 266 -22 0
-53 -5 -70 -11z m136 -94 c32 -16 68 -81 69 -122 0 -23 0 -23 -132 -20 l-133
3 3 29 c11 98 109 154 193 110z"/>
<path d="M15071 1872 c-29 -11 -62 -28 -72 -39 -19 -19 -19 -19 10 -47 l29
-27 38 20 c46 25 141 28 183 6 34 -17 54 -60 49 -106 l-3 -34 -125 -5 c-141
-6 -174 -17 -210 -74 -23 -38 -29 -113 -12 -156 13 -32 59 -76 95 -89 52 -20
159 -13 210 13 l47 23 0 -23 c0 -22 4 -24 46 -24 l45 0 -3 233 c-3 225 -4 233
-26 265 -52 72 -193 102 -301 64z m229 -364 c-1 -61 -13 -82 -63 -103 -74 -31
-172 -10 -196 41 -17 38 -14 53 18 85 29 28 32 29 135 29 l106 0 0 -52z"/>
<path d="M15920 1877 c-51 -16 -114 -85 -133 -143 -45 -138 -21 -300 55 -371
77 -72 248 -73 341 -2 17 13 16 16 -10 48 l-28 33 -43 -22 c-116 -61 -228 -10
-235 106 l-2 39 183 3 182 2 0 53 c0 191 -142 307 -310 254z m141 -93 c32 -16
68 -81 69 -122 0 -23 0 -23 -132 -20 l-133 3 3 29 c11 98 109 154 193 110z"/>
<path d="M16524 1879 c-18 -5 -46 -22 -63 -38 l-31 -29 0 34 c0 34 0 34 -45
34 l-45 0 0 -285 0 -285 45 0 45 0 0 195 c0 217 6 242 61 270 35 18 70 22 119
12 35 -7 37 -6 50 30 8 21 16 41 18 45 4 9 -66 28 -98 27 -14 0 -39 -5 -56
-10z"/>
</g>
</svg>
