<?xml version="1.0" encoding="UTF-8"?>
<!DOCTYPE svg PUBLIC "-//W3C//DTD SVG 1.1//EN" "http://www.w3.org/Graphics/SVG/1.1/DTD/svg11.dtd">
<!-- Creator: CorelDRAW X8 -->
<svg xmlns="http://www.w3.org/2000/svg" xml:space="preserve" width="6501px" height="1260px" version="1.1" style="shape-rendering:geometricPrecision; text-rendering:geometricPrecision; image-rendering:optimizeQuality; fill-rule:evenodd; clip-rule:evenodd"
viewBox="0 0 5835 1131"
 xmlns:xlink="http://www.w3.org/1999/xlink">
 <defs>
  <style type="text/css">
   <![CDATA[
    .fil0 {fill:#2B2A29}
    .fil1 {fill:#F5D606}
   ]]>
  </style>
 </defs>
 <g id="Слой_x0020_1">
  <metadata id="CorelCorpID_0Corel-Layer"/>
  <g id="_2872249172992">
   <path class="fil0" d="M1544 709c0,0 54,19 114,19 63,0 103,-9 125,-31 19,-19 26,-51 25,-97 0,-1 0,-311 0,-311l95 0 0 324c-2,143 -70,204 -228,204 -77,0 -131,-12 -131,-12l0 -96z"/>
   <path class="fil0" d="M2185 383c151,0 242,82 242,220 0,99 -64,214 -242,214 -179,0 -242,-115 -242,-214 0,-138 90,-220 242,-220zm148 216c0,-84 -54,-132 -148,-132 -94,0 -148,48 -148,132 0,116 93,133 148,133 55,0 148,-17 148,-133z"/>
   <polygon class="fil0" points="2807,392 2807,557 2561,557 2561,392 2467,392 2467,808 2561,808 2561,642 2807,642 2807,808 2901,808 2901,392 "/>
   <polygon class="fil0" points="4232,723 4232,642 4450,642 4450,557 4232,557 4232,477 4513,477 4513,392 4138,392 4138,808 4513,808 4513,723 "/>
   <polygon class="fil0" points="4660,723 4660,642 4878,642 4878,557 4660,557 4660,477 4941,477 4941,392 4566,392 4566,808 4941,808 4941,723 "/>
   <polygon class="fil0" points="5554,723 5554,642 5771,642 5771,557 5554,557 5554,477 5835,477 5835,392 5459,392 5459,808 5835,808 5835,723 "/>
   <path class="fil0" d="M3812 375c123,0 193,62 193,171 0,153 -121,176 -193,176l-133 0 0 -347 133 0zm0 -86l-119 0 -109 0 0 519 109 0 119 0c213,0 288,-138 288,-256 0,-165 -108,-263 -288,-263z"/>
   <path class="fil0" d="M5308 650c72,-18 99,-75 99,-124 0,-84 -55,-134 -147,-134l-266 0 0 416 94 0 0 -152 111 0 114 152 113 0 -118 -158zm-220 -79l0 -94 172 0c33,0 52,17 52,46 0,42 -32,48 -52,48l-172 0z"/>
   <polygon class="fil0" points="3301,808 3056,524 3056,808 2962,808 2962,392 3056,392 3301,673 3301,392 3396,392 3396,808 "/>
   <path class="fil0" d="M1138 122c-157,-78 -337,-122 -525,-122 -189,0 -369,44 -527,123 -55,137 -86,286 -86,443 0,156 31,305 86,442 158,79 338,123 527,123 188,0 368,-44 525,-122 56,-137 87,-287 87,-443 0,-157 -31,-307 -87,-444z"/>
   <path class="fil1" d="M1101 156c-147,-70 -314,-110 -488,-110 -175,0 -342,40 -489,110 -50,128 -77,266 -77,410 0,144 27,282 77,409 147,70 314,110 489,110 174,0 342,-40 488,-110 50,-127 77,-265 77,-409 0,-145 -27,-283 -77,-410zm-5 770l0 1c-44,-78 -63,-102 -63,-102 0,0 -65,-34 -81,-49 -13,-11 -19,-34 -26,-60 -9,-37 -22,-83 -57,-120l39 -16c-11,-77 -99,-126 -100,-127 1,4 4,10 4,10 29,41 34,74 34,95 0,12 -1,19 -2,22 -10,-3 -76,-25 -225,-19 -22,0 -53,-1 -72,-19 -11,-11 -16,-26 -16,-45 0,0 0,0 0,0 0,-53 22,-124 25,-134l39 5c46,-26 64,-51 66,-55 -39,5 -93,16 -93,16 3,-8 12,-32 14,-61 0,-4 0,-9 0,-13 0,-37 -12,-79 -58,-103l-1 2c16,18 26,44 26,71 0,11 -2,23 -7,36 -15,-7 -25,-7 -43,-8 -9,-32 -36,-58 -73,-72l-1 2c3,2 5,4 9,7 8,8 31,35 33,64 -20,2 -31,4 -56,11 -10,-17 -33,-30 -62,-33l-1 2c3,1 6,2 10,5 9,4 27,16 32,35 -21,10 -44,26 -59,38l1 1c89,-35 171,-41 192,-16 3,4 5,8 5,13 0,1 0,2 0,3 0,7 -3,16 -8,26 -44,10 -110,29 -164,50l7 23c0,0 54,11 75,15 0,0 4,1 5,4 0,1 0,3 -1,5 0,0 0,0 0,1 -26,52 -44,111 -51,178 -2,0 -16,1 -16,1 -54,6 -110,10 -164,31l4 22c84,106 208,173 222,180l0 0 -24 -50c-7,-5 -25,-9 -26,-10 -60,-20 -106,-102 -113,-116 50,0 97,17 139,31 28,9 54,18 81,22 48,8 98,-1 143,-6 37,-5 72,-5 107,-3 5,6 42,52 77,70 45,24 174,63 180,66 3,2 49,52 80,107 -144,68 -306,103 -469,103 -164,0 -327,-36 -472,-104 -48,-126 -72,-258 -72,-393 0,-136 24,-268 72,-394 145,-68 308,-104 472,-104 163,0 326,35 471,103 48,126 72,259 72,395 0,124 -20,245 -60,360z"/>
  </g>
 </g>
</svg>
