<svg xmlns="http://www.w3.org/2000/svg" viewBox="0 0 234.66 58.39"><defs/><g id="Layer_2" data-name="Layer 2"><g id="Shapes_icons" data-name="Shapes&amp;icons"><g id="Logo"><path class="cls-1" d="M85.25 20.43v3.27h6.39V26h-6.39v5.4h-2.54V18.18h9.74v2.25zM97.05 31.44h-2.53V18.18h6a4.85 4.85 0 0 1 1.86.34 4 4 0 0 1 1.44.94 4.38 4.38 0 0 1 .94 1.45 5 5 0 0 1 .33 1.83 4.61 4.61 0 0 1-.75 2.63 4.14 4.14 0 0 1-2 1.61c1.12 1.48 2.22 3 3.31 4.46h-3c-.53-.69-1-1.39-1.55-2.09s-1-1.41-1.52-2.13h-2.53zm0-6.47h3.49a2.06 2.06 0 0 0 .71-.13 1.77 1.77 0 0 0 .66-.42 2.27 2.27 0 0 0 .67-1.68 3.75 3.75 0 0 0-.08-.68 2.12 2.12 0 0 0-.28-.76 1.84 1.84 0 0 0-.62-.62 1.93 1.93 0 0 0-1.06-.25h-3.49zM106 31.44l6.77-13.24h.23l6.78 13.24h-2.76l-1-2.09h-6.25l-1 2.09zm5-4.29h3.79l-1.88-4zM132.62 31.44l-8.71-7.88v7.88h-2.54V18.2h.27l8.71 8v-8h2.54v13.24zM147.92 28.18a6.57 6.57 0 0 1-1.07 1.44 7.07 7.07 0 0 1-1.4 1.1 6.91 6.91 0 0 1-1.67.72 6.91 6.91 0 0 1-4.52-.29 6.95 6.95 0 0 1-3.65-3.66 6.71 6.71 0 0 1 0-5.32 6.86 6.86 0 0 1 3.65-3.66 6.74 6.74 0 0 1 4.52-.29 7.3 7.3 0 0 1 1.67.71 7.12 7.12 0 0 1 1.4 1.11 6.7 6.7 0 0 1 1.07 1.42l-2.37 1a5.8 5.8 0 0 0-.68-.82 5.66 5.66 0 0 0-.86-.67 4.72 4.72 0 0 0-1-.45 3.58 3.58 0 0 0-1.08-.16 3.91 3.91 0 0 0-1.7.37 4.49 4.49 0 0 0-1.36 1 4.69 4.69 0 0 0-.93 1.44 4.5 4.5 0 0 0 0 3.43 4.77 4.77 0 0 0 .93 1.43 4.49 4.49 0 0 0 1.36 1 4.06 4.06 0 0 0 1.7.37 3.59 3.59 0 0 0 1.08-.17 4.47 4.47 0 0 0 1.86-1.23 5.8 5.8 0 0 0 .68-.82zM152.41 20.43v3.31h6.41V26h-6.41v3.12h7.23v2.28h-9.76V18.18h9.76v2.25zM173.66 31.44h-5.22V18.18h5.22a6.68 6.68 0 0 1 4.67 1.67A5.62 5.62 0 0 1 179.8 22a8.23 8.23 0 0 1 0 5.65 5.66 5.66 0 0 1-1.47 2.15 6 6 0 0 1-2.07 1.2 7.75 7.75 0 0 1-2.6.44zM171 29.19h2.7a6.4 6.4 0 0 0 1.4-.19 3.15 3.15 0 0 0 1.31-.64 3.44 3.44 0 0 0 1-1.34 5.37 5.37 0 0 0 .38-2.22 5.47 5.47 0 0 0-.38-2.24 3.35 3.35 0 0 0-1-1.33 3.11 3.11 0 0 0-1.32-.63 6.31 6.31 0 0 0-1.41-.17H171zM184.64 20.43v3.31h6.41V26h-6.41v3.12h7.23v2.28h-9.76V18.18h9.76v2.25zM206.25 28.18a6.57 6.57 0 0 1-1.07 1.44 7.07 7.07 0 0 1-1.4 1.1 6.91 6.91 0 0 1-1.67.72 6.79 6.79 0 0 1-1.86.25 6.62 6.62 0 0 1-2.66-.54 7 7 0 0 1-2.18-1.48 7.19 7.19 0 0 1-1.48-2.18 6.82 6.82 0 0 1 0-5.32 7.23 7.23 0 0 1 1.48-2.17 7 7 0 0 1 2.18-1.47 6.63 6.63 0 0 1 2.66-.55 6.79 6.79 0 0 1 1.86.26 7.3 7.3 0 0 1 1.67.71 7.12 7.12 0 0 1 1.4 1.11 6.7 6.7 0 0 1 1.07 1.42l-2.37 1a5.8 5.8 0 0 0-.68-.82 5.66 5.66 0 0 0-.86-.67 4.72 4.72 0 0 0-1-.45 3.6 3.6 0 0 0-1.09-.16 3.9 3.9 0 0 0-1.69.37 4.67 4.67 0 0 0-1.37 1 4.86 4.86 0 0 0-.92 1.44 4.5 4.5 0 0 0 0 3.43 4.94 4.94 0 0 0 .92 1.43 4.67 4.67 0 0 0 1.37 1 4 4 0 0 0 1.69.37 3.6 3.6 0 0 0 1.09-.17A4.47 4.47 0 0 0 203.2 28a5.8 5.8 0 0 0 .68-.82zM214.4 31.69a6.67 6.67 0 0 1-2.67-.54 6.95 6.95 0 0 1-3.65-3.66 6.78 6.78 0 0 1 0-5.35 6.91 6.91 0 0 1 1.47-2.14 7 7 0 0 1 2.18-1.48 6.9 6.9 0 0 1 5.35 0 7 7 0 0 1 2.18 1.48 6.91 6.91 0 0 1 1.47 2.19 6.78 6.78 0 0 1 0 5.35 6.95 6.95 0 0 1-3.65 3.66 6.72 6.72 0 0 1-2.68.49zm0-11.39a3.84 3.84 0 0 0-1.69.37 4.58 4.58 0 0 0-1.38 1 4.69 4.69 0 0 0-.93 1.44 4.5 4.5 0 0 0 0 3.43 5 5 0 0 0 .93 1.44 4.45 4.45 0 0 0 1.38 1 4 4 0 0 0 3.37 0 4.45 4.45 0 0 0 1.38-1 5 5 0 0 0 .93-1.44 4.5 4.5 0 0 0 0-3.43 4.69 4.69 0 0 0-.93-1.44 4.58 4.58 0 0 0-1.38-1 3.82 3.82 0 0 0-1.67-.37zM226.06 31.44h-2.54V18.18h6a4.92 4.92 0 0 1 1.86.34 4 4 0 0 1 1.44.94 4.2 4.2 0 0 1 .93 1.45 5 5 0 0 1 .34 1.83 4.55 4.55 0 0 1-.76 2.63 4.16 4.16 0 0 1-2 1.61c1.11 1.48 2.21 3 3.3 4.46h-3c-.53-.69-1-1.39-1.56-2.09s-1-1.41-1.51-2.13h-2.51zm0-6.47h3.48a2 2 0 0 0 .71-.13 1.77 1.77 0 0 0 .66-.42 2.08 2.08 0 0 0 .48-.7 2.26 2.26 0 0 0 .19-1 3.64 3.64 0 0 0-.07-.68 2.34 2.34 0 0 0-.29-.76 1.81 1.81 0 0 0-.61-.62 2 2 0 0 0-1.07-.25h-3.48z"/><path fill="#ffcf57" d="M32.99 58.39L0 30.68V0l32.99 27.71v30.68z"/><path fill="#129fe1" d="M32.99 58.39l32.98-27.71V0L32.99 27.71v30.68z"/></g></g></g></svg>