<svg xmlns="http://www.w3.org/2000/svg" viewBox="-21 -21 682.66669 682.66669"><path d="M0 132.976562v374.046876C0 580.464844 59.535156 640 132.976562 640h374.046876C580.464844 640 640 580.464844 640 507.023438V132.976562C640 59.535156 580.464844 0 507.023438 0H132.976562C59.535156 0 0 59.535156 0 132.976562zm387.792969 368.359376C229.9375 555.800781 84.199219 410.0625 138.664062 252.207031 157.015625 199.003906 199 157.015625 252.203125 138.664062 410.0625 84.199219 555.800781 229.9375 501.335938 387.796875 482.984375 441 441 482.984375 387.792969 501.335938zm154.28125-374.859376c-2.511719 13.152344-13.394531 20.804688-24.652344 20.804688-6.851563 0-13.835937-2.828125-19.183594-8.964844-.472656-.542968-.914062-1.125-1.304687-1.730468-5.519532-8.4375-5.691406-18.460938-1-26.589844 3.320312-5.753906 8.679687-9.863282 15.097656-11.582032 6.410156-1.726562 13.113281-.839843 18.859375 2.484376 8.132813 4.6875 12.992187 13.457031 12.4375 23.511718-.039063.6875-.121094 1.386719-.253906 2.066406zm0 0" fill="#d2b486"/><path d="M320 164.523438c-85.734375 0-155.476562 69.742187-155.476562 155.476562S234.265625 475.476562 320 475.476562 475.476562 405.734375 475.476562 320 405.734375 164.523438 320 164.523438zm0 0" fill="#d2b486"/></svg>