<svg xmlns="http://www.w3.org/2000/svg" width="373.482" height="373.482"><path d="M355.488 84.873c-2.401-22.768-13.499-43.217-31.249-57.579l-10.213-8.266C298.863 6.757 279.765 0 260.246 0c-26.031 0-50.317 11.563-66.632 31.726L36.583 225.781c-14.386 17.773-20.989 40.088-18.591 62.831 2.398 22.741 13.51 43.188 31.288 57.576l10.213 8.266c15.161 12.271 34.258 19.028 53.772 19.028 3.013 0 6.061-.161 9.059-.479 22.604-2.383 42.957-13.367 57.251-30.859.048-.056.076-.089 105.94-130.895 18.854-23.303 15.236-57.602-8.063-76.458l-5.353-4.329a54.453 54.453 0 0 0-34.149-12.083c-16.527 0-31.947 7.343-42.307 20.145L89.902 269.192c-6.909 8.54-5.584 21.11 2.956 28.021a19.973 19.973 0 0 0 12.521 4.434 19.852 19.852 0 0 0 15.5-7.389L226.618 163.59c2.766-3.417 6.886-5.377 11.302-5.377 3.356 0 6.507 1.115 9.113 3.224l5.354 4.334a14.412 14.412 0 0 1 5.295 9.762c.406 3.862-.709 7.645-3.144 10.651L148.92 316.704c-8.721 10.77-21.703 16.945-35.618 16.946a45.824 45.824 0 0 1-28.744-10.171l-10.213-8.264c-9.504-7.693-15.445-18.625-16.726-30.781-1.282-12.157 2.247-24.088 9.938-33.59L224.589 56.791c8.721-10.776 21.707-16.957 35.628-16.957a45.828 45.828 0 0 1 28.744 10.169l10.212 8.264c19.619 15.877 22.664 44.754 6.789 64.372a19.794 19.794 0 0 0-4.326 14.623 19.798 19.798 0 0 0 7.28 13.397 19.974 19.974 0 0 0 12.522 4.436 19.85 19.85 0 0 0 15.498-7.39c14.365-17.75 20.954-40.065 18.552-62.832z" fill="#ffffff"/></svg>