<svg xmlns="http://www.w3.org/2000/svg" width="409.165" height="409.164"><path d="M204.583 216.671c50.664 0 91.74-48.075 91.74-107.378 0-82.237-41.074-107.377-91.74-107.377-50.668 0-91.74 25.14-91.74 107.377.001 59.303 41.073 107.378 91.74 107.378zM407.164 374.717L360.88 270.454c-2.117-4.771-5.836-8.728-10.465-11.138l-71.83-37.392c-1.584-.823-3.502-.663-4.926.415-20.316 15.366-44.203 23.488-69.076 23.488-24.877 0-48.762-8.122-69.078-23.488-1.428-1.078-3.346-1.238-4.93-.415L58.75 259.316c-4.631 2.41-8.346 6.365-10.465 11.138L2.001 374.717c-3.191 7.188-2.537 15.412 1.75 22.005 4.285 6.592 11.537 10.526 19.4 10.526h362.861c7.863 0 15.117-3.936 19.402-10.527 4.285-6.592 4.941-14.819 1.75-22.004z" fill="#c4c4c4"/></svg>