<svg xmlns="http://www.w3.org/2000/svg" xmlns:xlink="http://www.w3.org/1999/xlink" viewBox="0 0 183.16 109.37"><defs><style>.cls-1,.cls-2{fill:none;stroke:#049ae4;stroke-miterlimit:10;}.cls-2{opacity:0.2;}.cls-3{opacity:0.2;isolation:isolate;fill:url(#radial-gradient);}.cls-4{fill:#049ae4;}</style><radialGradient id="radial-gradient" cx="-469.49" cy="77.67" r="554.87" gradientUnits="userSpaceOnUse"><stop offset="0" stop-color="#9344ff"/><stop offset="0.52" stop-color="#0078ff"/><stop offset="1" stop-color="#00c8ff"/></radialGradient></defs><title>choice__img_3</title><g id="Layer_2" data-name="Layer 2"><g id="_1" data-name="1"><path class="cls-1" d="M67.07,53.05S67.64,58,77.26,58s14.09-3.32,14.09-6.42c0-2.81-1.7-17.28-6.15-25.9a6.84,6.84,0,0,0-5.32-3.72,8.33,8.33,0,0,0-2.9.19,9.31,9.31,0,0,0-6.56,6.17A66.66,66.66,0,0,0,67.07,53.05Z"/><path class="cls-1" d="M67.87,54.77s-1.15.35-10,0-7.53-2.86-7-18.78c.46-13.37,4.82-13.72,4.82-13.72s7-3.08,11.57,20.36"/><path class="cls-1" d="M50.8,39.08s-2.75-19.71-9.39-19.59-7.22,12.94-8,24.28,15.24,11.69,17.13,6.88"/><path class="cls-1" d="M34.3,33s-2.86-9.71-4.58-11.77-3.78-.13-4,.68S23.31,33.8,23.88,39.3s2.4,9.05,6,10.43,4.46-1.1,4.46-1.1"/><path class="cls-1" d="M24.35,29.92s-1-7.68-3.11-8.6-3.69,6.34-4,9c-.35,2.9-1.25,9.62.92,11.55a3.54,3.54,0,0,0,5.78-2.11"/><path class="cls-1" d="M17.87,26.93s.28-9-1.55-9.5-1.84,1.14-2.75,1.14S11.74,17,11.28,17.34,8,33.35,10.13,39.08c1,2.29,2.49.49,2.95.72s.95,1.26,2.09,1.29a6.09,6.09,0,0,0,2.23-.46"/><path class="cls-1" d="M9.93,24.38s-.52-8.33-2.2-8.86S6,16.59,4.29,16.9s-1.15,1.33-1.76,3S-.29,31.25,1.77,34.23c1.22,1.53,1.3.37,2.44,1s1.45,1.64,2.37,1.31,2.75-.08,2.75-2.38"/><path class="cls-1" d="M132.09,39.08s2.75-19.7,9.39-19.58,7.22,12.94,8,24.28-15.24,11.69-17.13,6.88"/><path class="cls-1" d="M148.6,33s2.85-9.7,4.59-11.76,3.78-.14,4,.67,2.4,11.92,1.83,17.42-2.41,9-6,10.42-4.45-1.11-4.45-1.11"/><path class="cls-1" d="M158.54,29.92s1-7.67,3.11-8.59,3.69,6.34,4,9c.36,2.9,1.26,9.62-.92,11.56A3.53,3.53,0,0,1,159,39.73"/><path class="cls-1" d="M165,26.93s-.28-9,1.55-9.49,1.84,1.14,2.75,1.14,1.83-1.54,2.29-1.23,3.32,16,1.15,21.74c-1,2.29-2.49.48-2.95.71s-.95,1.26-2.09,1.29a6.09,6.09,0,0,1-2.23-.46"/><path class="cls-1" d="M173,24.38s.52-8.32,2.2-8.86,1.76,1.07,3.44,1.38,1.15,1.34,1.76,3,2.82,11.35.76,14.33c-1.22,1.54-1.3.38-2.44,1s-1.45,1.64-2.37,1.32-2.75-.09-2.75-2.38"/><path class="cls-1" d="M115.82,53.06S115.25,58,105.63,58s-14.09-3.32-14.09-6.42c0-2.81,1.7-17.28,6.15-25.91A6.87,6.87,0,0,1,103,21.94a8.58,8.58,0,0,1,2.9.19,9.31,9.31,0,0,1,6.56,6.17A66.72,66.72,0,0,1,115.82,53.06Z"/><path class="cls-1" d="M115,54.78s1.15.35,10,0,7.53-2.87,7-18.79c-.46-13.36-4.82-13.72-4.82-13.72s-7-3.08-11.57,20.37"/><path class="cls-1" d="M91.47,79.66s1,29.44-5.62,29.21S77.07,87.1,77.43,80.35c.09-.6.64-1.07,1.48-1.42a11.54,11.54,0,0,1,3-.67,24.8,24.8,0,0,1,2.58-.15C88,78.09,91.45,78.73,91.47,79.66Z"/><path class="cls-1" d="M68.94,76.58c-1-.85-3.31-1.27-6.17,1.53s-1,21.25,0,25.26,3.78,3.55,5.27,4.13c0,0,4.92.11,5.5-2.87.49-2.56,3.1-18.38,3.1-23.95A2.12,2.12,0,0,0,74.9,78.6C73,78.24,70,77.53,68.94,76.58Z"/><path class="cls-1" d="M30.45,66.15c.08-1.32-1.53-3.63-6.5-3.05-2.62.3-1.77-1.3-3.6-1.84a6.21,6.21,0,0,0-4,.61S12.48,64,12,66.71s-.69,13.44.8,14.74,3.4.61,4.22,1.07a8.56,8.56,0,0,0,3.25.89s2.72.77,4,.09a4.7,4.7,0,0,1,0-.75c.16-1.83-.76-6.71.55-10.68a8.21,8.21,0,0,1,2.29-2.83C28.47,67.89,29.75,66.75,30.45,66.15Z"/><path class="cls-1" d="M11.77,76.57l-1.67-.23c-1.67-.23-1.29-1.26-2.78-1.15s-2.4,0-3.61-2.09S1.37,65.57,2.28,60.81s2.8-4,3.8-3.87c1.12.32,1.26,1.69,2.86,2.43,2.38,1.09,2.81-.56,5.16-.71a5.15,5.15,0,0,1,4.52,2.5"/><path class="cls-1" d="M91.69,79.66s-1,29.44,5.62,29.21,8.78-21.77,8.42-28.52c-.09-.6-.64-1.07-1.47-1.42a11.7,11.7,0,0,0-3-.67,24.45,24.45,0,0,0-2.57-.15C95.21,78.09,91.71,78.73,91.69,79.66Z"/><path class="cls-1" d="M114.22,76.58c1-.85,3.31-1.27,6.18,1.53s1,21.25,0,25.26-3.78,3.55-5.28,4.13c0,0-4.92.11-5.5-2.87-.49-2.56-3.09-18.38-3.09-23.95a2.11,2.11,0,0,1,1.73-2.08C110.12,78.24,113.16,77.53,114.22,76.58Z"/><path class="cls-1" d="M121.9,85s2.75,20.28,10.58,19.36,5.33-13.74,5.33-18-.92-8.37-3.21-9.85a23.51,23.51,0,0,0-2.43-1.4,5.63,5.63,0,0,0-3.42-.55c-3.21.51-7.75,2.18-7.72,4.53"/><path class="cls-1" d="M137.86,87.9s5.67,12.95,9.8,11.58S151.78,80.69,151,77.6a5.86,5.86,0,0,0-6.35-4.32c-1.42.2-5.73-.3-7.22,1.06a6,6,0,0,0-1.72,3.26"/><path class="cls-1" d="M151.24,88.25s3.07,7.1,6.62,6.64,5.5-3,5.27-5.44.45-14-.75-15.63a35.94,35.94,0,0,0-5.8-5.83s-2.62-2.22-4.94-1.29c-1,.46-1.79,2.46-2.55,3.27-.46.46-2.77.29-3.21.69a2.12,2.12,0,0,0-.53,2.57"/><path class="cls-1" d="M163.14,83.21c0,.23,2.16-.23,3-.69s2.75.23,4.22-1.07,1.26-12,.81-14.74-4.35-4.84-4.35-4.84a6.23,6.23,0,0,0-4-.61c-1.83.54-1,2.14-3.61,1.84-5-.58-6.13,2.23-6.53,3.49"/><path class="cls-1" d="M171.4,76.57l1.67-.23c1.67-.23,1.28-1.26,2.77-1.15s2.41,0,3.62-2.09,2.34-7.53,1.42-12.29-2.8-4-3.8-3.87c-1.11.32-1.26,1.69-2.86,2.43-2.37,1.09-2.8-.56-5.16-.71a5.15,5.15,0,0,0-4.52,2.5"/><path class="cls-1" d="M36.14,86.13s-3.06,7.1-6.62,6.64-5.49-3-5.27-5.45-.45-14,.74-15.63a36.34,36.34,0,0,1,5.81-5.82s2.61-2.23,4.94-1.29c1,.43,1.78,2.45,2.55,3.27.45.45,2.74.28,3.2.68A2.12,2.12,0,0,1,42,71.11"/><path class="cls-1" d="M49.52,85.78s-5.66,13-9.79,11.57-4.12-18.79-3.32-21.88a5.86,5.86,0,0,1,6.35-4.32c1.42.21,5.73-.29,7.22,1.07a5.9,5.9,0,0,1,1.72,3.25"/><path class="cls-1" d="M63.94,74.72a12.25,12.25,0,0,0-5.3-2.24,5.75,5.75,0,0,0-3.48.59,25.52,25.52,0,0,0-2.37,1.37c-2.29,1.49-3.2,5.61-3.2,9.85s-2.5,17,5.32,18,6.49-11,6.34-15c0-.88.06-3.5.06-3.5.29-3.14.74-5.61,2.8-6.74h0C64.23,75.4,65.23,75.69,63.94,74.72Z"/><path class="cls-2" d="M36.14,86.13s-3.06,7.1-6.62,6.64-5.49-3-5.27-5.45-.45-14,.74-15.63a36.34,36.34,0,0,1,5.81-5.82s2.61-2.23,4.94-1.29c1,.43,1.78,2.45,2.55,3.27.45.45,2.74.28,3.2.68A2.12,2.12,0,0,1,42,71.11"/><path class="cls-3" d="M85.62,25.43a7.29,7.29,0,0,0-5.68-4,9.52,9.52,0,0,0-3.06.2A9.82,9.82,0,0,0,70,28.13a70.59,70.59,0,0,0-2.79,11.74l.45,15.43c1.24,1.48,3.89,3.17,9.59,3.17,8.37,0,12.93-2.5,14.19-5.25V47.33C90.76,41.67,89,32,85.62,25.43Z"/><path class="cls-4" d="M180,17.18l0,0h0s0,0,0,0l.06,0,.07-.07a.24.24,0,0,0,.08-.06l.08-.09c0-.07.1-.12.14-.2a3.42,3.42,0,0,0,.26-.46l.22-.5c.12-.35.26-.69.36-1.06s.2-.72.29-1.09l.24-1.11c.08-.37.14-.75.21-1.12.14-.75.23-1.5.34-2.26.21-1.51.38-3,.51-4.54s.24-3.05.35-4.57c0,1.53-.07,3.05-.17,4.58s-.18,3.05-.32,4.58c-.08.76-.14,1.52-.26,2.28,0,.38-.1.76-.16,1.14l-.2,1.14a20.26,20.26,0,0,1-.58,2.26l-.22.55a5.68,5.68,0,0,1-.28.55,2.61,2.61,0,0,1-.19.27l-.1.14-.14.12-.14.12-.2.1a.61.61,0,0,1-.25.06.34.34,0,0,1-.14,0h-.08l-.11,0Z"/><path class="cls-4" d="M0,0C.12,1.53.2,3.05.36,4.57s.3,3,.5,4.55c.11.75.2,1.51.35,2.25.07.38.13.75.2,1.12l.25,1.11a18.46,18.46,0,0,0,.64,2.15l.22.5c.08.17.18.31.26.46a1.49,1.49,0,0,0,.15.2L3,17s.06,0,.08.07l.07.06a.08.08,0,0,1,.06,0s0,0,0,0h0l0,0,.36.65-.11,0H3.36a.39.39,0,0,1-.15,0A.61.61,0,0,1,3,17.83a1.24,1.24,0,0,1-.2-.1l-.15-.12a1.54,1.54,0,0,1-.13-.12l-.11-.14a2,2,0,0,1-.18-.26,5.72,5.72,0,0,1-.28-.55L1.7,16a18.28,18.28,0,0,1-.58-2.26L.91,12.58c-.06-.38-.1-.76-.16-1.14C.64,10.68.58,9.92.49,9.16.35,7.64.24,6.11.17,4.58S.06,1.53,0,0Z"/><path class="cls-4" d="M3.09,70.81a17.75,17.75,0,0,0-1.21,3.58c-.3,1.25-.53,2.51-.73,3.78C.75,80.71.5,83.28.31,85.85c.06-2.57.19-5.15.47-7.73.14-1.28.32-2.57.56-3.84a18.52,18.52,0,0,1,1.08-3.79Z"/><path class="cls-4" d="M180.74,70.49a17.91,17.91,0,0,1,1.08,3.79c.25,1.27.42,2.56.56,3.84.28,2.58.41,5.16.48,7.73-.19-2.57-.45-5.14-.84-7.68-.2-1.27-.44-2.53-.74-3.78a18.37,18.37,0,0,0-1.2-3.58Z"/></g></g></svg>