<svg xmlns="http://www.w3.org/2000/svg" xmlns:xlink="http://www.w3.org/1999/xlink" viewBox="0 0 183.16 109.37"><defs><style>.cls-1{fill:none;stroke:#049ae4;stroke-miterlimit:10;}.cls-2{fill:#049ae4;}.cls-3,.cls-5{opacity:0.2;}.cls-3{isolation:isolate;fill:url(#radial-gradient);}.cls-4{opacity:0.2;}.cls-4,.cls-6{fill:url(#radial-gradient-2);}</style><radialGradient id="radial-gradient" cx="19.49" cy="77.67" r="554.87" gradientUnits="userSpaceOnUse"><stop offset="0" stop-color="#9344ff"/><stop offset="0.52" stop-color="#0078ff"/><stop offset="1" stop-color="#00c8ff"/></radialGradient><radialGradient id="radial-gradient-2" cx="19.49" cy="77.11" r="554.87" xlink:href="#radial-gradient"/></defs><title>choice__img_1</title><g id="Layer_2" data-name="Layer 2"><g id="_1" data-name="1"><path class="cls-1" d="M67.07,53.05S67.64,58,77.26,58s14.09-3.32,14.09-6.42c0-2.81-1.7-17.28-6.15-25.9a6.84,6.84,0,0,0-5.32-3.72,8.33,8.33,0,0,0-2.9.19,9.31,9.31,0,0,0-6.56,6.17A66.66,66.66,0,0,0,67.07,53.05Z"/><path class="cls-1" d="M67.87,54.77s-1.15.35-10,0-7.53-2.86-7-18.78c.46-13.37,4.82-13.72,4.82-13.72s7-3.08,11.57,20.36"/><path class="cls-1" d="M50.8,39.08s-2.75-19.71-9.39-19.59-7.22,12.94-8,24.28,15.24,11.69,17.13,6.88"/><path class="cls-1" d="M34.3,33s-2.86-9.71-4.58-11.77-3.78-.13-4,.68S23.31,33.8,23.88,39.3s2.4,9.05,6,10.43,4.46-1.1,4.46-1.1"/><path class="cls-1" d="M24.35,29.92s-1-7.68-3.11-8.6-3.69,6.34-4,9c-.35,2.9-1.25,9.62.92,11.55a3.54,3.54,0,0,0,5.78-2.11"/><path class="cls-1" d="M17.87,26.93s.28-9-1.55-9.5-1.84,1.14-2.75,1.14S11.74,17,11.28,17.34,8,33.35,10.13,39.08c1,2.29,2.49.49,2.95.72s.95,1.26,2.09,1.29a6.09,6.09,0,0,0,2.23-.46"/><path class="cls-1" d="M9.93,24.38s-.52-8.33-2.2-8.86S6,16.59,4.29,16.9s-1.15,1.33-1.76,3S-.29,31.25,1.77,34.23c1.22,1.53,1.3.37,2.44,1s1.45,1.64,2.37,1.31,2.75-.08,2.75-2.38"/><path class="cls-1" d="M132.09,39.08s2.75-19.7,9.39-19.58,7.22,12.94,8,24.28-15.24,11.69-17.13,6.88"/><path class="cls-1" d="M148.6,33s2.85-9.7,4.59-11.76,3.78-.14,4,.67,2.4,11.92,1.83,17.42-2.41,9-6,10.42-4.45-1.11-4.45-1.11"/><path class="cls-1" d="M158.54,29.92s1-7.67,3.11-8.59,3.69,6.34,4,9c.36,2.9,1.26,9.62-.92,11.56A3.53,3.53,0,0,1,159,39.73"/><path class="cls-1" d="M165,26.93s-.28-9,1.55-9.49,1.84,1.14,2.75,1.14,1.83-1.54,2.29-1.23,3.32,16,1.15,21.74c-1,2.29-2.49.48-2.95.71s-.95,1.26-2.09,1.29a6.09,6.09,0,0,1-2.23-.46"/><path class="cls-1" d="M173,24.38s.52-8.32,2.2-8.86,1.76,1.07,3.44,1.38,1.15,1.34,1.76,3,2.82,11.35.76,14.33c-1.22,1.54-1.3.38-2.44,1s-1.45,1.64-2.37,1.32-2.75-.09-2.75-2.38"/><path class="cls-1" d="M115.82,53.06S115.25,58,105.63,58s-14.09-3.32-14.09-6.42c0-2.81,1.7-17.28,6.15-25.91A6.87,6.87,0,0,1,103,21.94a8.58,8.58,0,0,1,2.9.19,9.31,9.31,0,0,1,6.56,6.17A66.72,66.72,0,0,1,115.82,53.06Z"/><path class="cls-1" d="M115,54.78s1.15.35,10,0,7.53-2.87,7-18.79c-.46-13.36-4.82-13.72-4.82-13.72s-7-3.08-11.57,20.37"/><path class="cls-1" d="M91.47,79.66s1,29.44-5.62,29.21S77.07,87.1,77.43,80.35c.09-.6.64-1.07,1.48-1.42a11.54,11.54,0,0,1,3-.67,24.8,24.8,0,0,1,2.58-.15C88,78.09,91.45,78.73,91.47,79.66Z"/><path class="cls-1" d="M68.94,76.58c-1-.85-3.31-1.27-6.17,1.53s-1,21.25,0,25.26,3.78,3.55,5.27,4.13c0,0,4.92.11,5.5-2.87.49-2.56,3.1-18.38,3.1-23.95A2.12,2.12,0,0,0,74.9,78.6C73,78.24,70,77.53,68.94,76.58Z"/><path class="cls-1" d="M30.45,66.15c.08-1.32-1.53-3.63-6.5-3.05-2.62.3-1.77-1.3-3.6-1.84a6.21,6.21,0,0,0-4,.61S12.48,64,12,66.71s-.69,13.44.8,14.74,3.4.61,4.22,1.07a8.56,8.56,0,0,0,3.25.89s2.72.77,4,.09a4.7,4.7,0,0,1,0-.75c.16-1.83-.76-6.71.55-10.68a8.21,8.21,0,0,1,2.29-2.83C28.47,67.89,29.75,66.75,30.45,66.15Z"/><path class="cls-1" d="M11.77,76.57l-1.67-.23c-1.67-.23-1.29-1.26-2.78-1.15s-2.4,0-3.61-2.09S1.37,65.57,2.28,60.81s2.8-4,3.8-3.87c1.12.32,1.26,1.69,2.86,2.43,2.38,1.09,2.81-.56,5.16-.71a5.15,5.15,0,0,1,4.52,2.5"/><path class="cls-1" d="M91.69,79.66s-1,29.44,5.62,29.21,8.78-21.77,8.42-28.52c-.09-.6-.64-1.07-1.47-1.42a11.7,11.7,0,0,0-3-.67,24.45,24.45,0,0,0-2.57-.15C95.21,78.09,91.71,78.73,91.69,79.66Z"/><path class="cls-1" d="M114.22,76.58c1-.85,3.31-1.27,6.18,1.53s1,21.25,0,25.26-3.78,3.55-5.28,4.13c0,0-4.92.11-5.5-2.87-.49-2.56-3.09-18.38-3.09-23.95a2.11,2.11,0,0,1,1.73-2.08C110.12,78.24,113.16,77.53,114.22,76.58Z"/><path class="cls-1" d="M121.9,85s2.75,20.28,10.58,19.36,5.33-13.74,5.33-18-.92-8.37-3.21-9.85a23.51,23.51,0,0,0-2.43-1.4,5.63,5.63,0,0,0-3.42-.55c-3.21.51-7.75,2.18-7.72,4.53"/><path class="cls-1" d="M137.86,87.9s5.67,12.95,9.8,11.58S151.78,80.69,151,77.6a5.86,5.86,0,0,0-6.35-4.32c-1.42.2-5.73-.3-7.22,1.06a6,6,0,0,0-1.72,3.26"/><path class="cls-1" d="M151.24,88.25s3.07,7.1,6.62,6.64,5.5-3,5.27-5.44.45-14-.75-15.63a35.94,35.94,0,0,0-5.8-5.83s-2.62-2.22-4.94-1.29c-1,.46-1.79,2.46-2.55,3.27-.46.46-2.77.29-3.21.69a2.12,2.12,0,0,0-.53,2.57"/><path class="cls-1" d="M163.14,83.21c0,.23,2.16-.23,3-.69s2.75.23,4.22-1.07,1.26-12,.81-14.74-4.35-4.84-4.35-4.84a6.23,6.23,0,0,0-4-.61c-1.83.54-1,2.14-3.61,1.84-5-.58-6.13,2.23-6.53,3.49"/><path class="cls-1" d="M171.4,76.57l1.67-.23c1.67-.23,1.28-1.26,2.77-1.15s2.41,0,3.62-2.09,2.34-7.53,1.42-12.29-2.8-4-3.8-3.87c-1.11.32-1.26,1.69-2.86,2.43-2.37,1.09-2.8-.56-5.16-.71a5.15,5.15,0,0,0-4.52,2.5"/><path class="cls-1" d="M36.14,86.13s-3.06,7.1-6.62,6.64-5.49-3-5.27-5.45-.45-14,.74-15.63a36.34,36.34,0,0,1,5.81-5.82s2.61-2.23,4.94-1.29c1,.43,1.78,2.45,2.55,3.27.45.45,2.74.28,3.2.68A2.12,2.12,0,0,1,42,71.11"/><path class="cls-1" d="M49.52,85.78s-5.66,13-9.79,11.57-4.12-18.79-3.32-21.88a5.86,5.86,0,0,1,6.35-4.32c1.42.21,5.73-.29,7.22,1.07a5.9,5.9,0,0,1,1.72,3.25"/><path class="cls-1" d="M63.94,74.72a12.25,12.25,0,0,0-5.3-2.24,5.75,5.75,0,0,0-3.48.59,25.52,25.52,0,0,0-2.37,1.37c-2.29,1.49-3.2,5.61-3.2,9.85s-2.5,17,5.32,18,6.49-11,6.34-15c0-.88.06-3.5.06-3.5.29-3.14.74-5.61,2.8-6.74h0C64.23,75.4,65.23,75.69,63.94,74.72Z"/><path class="cls-1" d="M36.14,86.13s-3.06,7.1-6.62,6.64-5.49-3-5.27-5.45-.45-14,.74-15.63a36.34,36.34,0,0,1,5.81-5.82s2.61-2.23,4.94-1.29c1,.43,1.78,2.45,2.55,3.27.45.45,2.74.28,3.2.68A2.12,2.12,0,0,1,42,71.11"/><path class="cls-2" d="M180,17.18l0,0h0s0,0,0,0l.06,0,.07-.07a.24.24,0,0,0,.08-.06l.08-.09c0-.07.1-.12.14-.2a3.42,3.42,0,0,0,.26-.46l.22-.5c.12-.35.26-.69.36-1.06s.2-.72.29-1.09l.24-1.11c.08-.37.14-.75.21-1.12.14-.75.23-1.5.34-2.26.21-1.51.38-3,.51-4.54s.24-3.05.35-4.57c0,1.53-.07,3.05-.17,4.58s-.18,3.05-.32,4.58c-.08.76-.14,1.52-.26,2.28,0,.38-.1.76-.16,1.14l-.2,1.14a20.26,20.26,0,0,1-.58,2.26l-.22.55a5.68,5.68,0,0,1-.28.55,2.61,2.61,0,0,1-.19.27l-.1.14-.14.12-.14.12-.2.1a.61.61,0,0,1-.25.06.34.34,0,0,1-.14,0h-.08l-.11,0Z"/><path class="cls-2" d="M0,0C.12,1.53.2,3.05.36,4.57s.3,3,.5,4.55c.11.75.2,1.51.35,2.25.07.38.13.75.2,1.12l.25,1.11a18.46,18.46,0,0,0,.64,2.15l.22.5c.08.17.18.31.26.46a1.49,1.49,0,0,0,.15.2L3,17s.06,0,.08.07l.07.06a.08.08,0,0,1,.06,0s0,0,0,0h0l0,0,.36.65-.11,0H3.36a.39.39,0,0,1-.15,0A.61.61,0,0,1,3,17.83a1.24,1.24,0,0,1-.2-.1l-.15-.12a1.54,1.54,0,0,1-.13-.12l-.11-.14a2,2,0,0,1-.18-.26,5.72,5.72,0,0,1-.28-.55L1.7,16a18.28,18.28,0,0,1-.58-2.26L.91,12.58c-.06-.38-.1-.76-.16-1.14C.64,10.68.58,9.92.49,9.16.35,7.64.24,6.11.17,4.58S.06,1.53,0,0Z"/><path class="cls-2" d="M3.09,70.81a17.75,17.75,0,0,0-1.21,3.58c-.3,1.25-.53,2.51-.73,3.78C.75,80.71.5,83.28.31,85.85c.06-2.57.19-5.15.47-7.73.14-1.28.32-2.57.56-3.84a18.52,18.52,0,0,1,1.08-3.79Z"/><path class="cls-2" d="M180.74,70.49a17.91,17.91,0,0,1,1.08,3.79c.25,1.27.42,2.56.56,3.84.28,2.58.41,5.16.48,7.73-.19-2.57-.45-5.14-.84-7.68-.2-1.27-.44-2.53-.74-3.78a18.37,18.37,0,0,0-1.2-3.58Z"/><path class="cls-3" d="M180.79,20.2a6.36,6.36,0,0,1-.31-1.27c-.16-.92-.31-1.76-1.79-2a2.43,2.43,0,0,1-1.32-.74,2.16,2.16,0,0,0-2.34-.62c-1.19.38-1.8,3.13-2.16,5.63-.32-1.89-.69-3.54-1-3.74-.51-.35-1,.1-1.49.5s-.75.64-1,.64c-.14,0-.25-.1-.46-.36a2.12,2.12,0,0,0-2.38-.77c-1.42.35-1.84,3.94-1.91,6.84a5.52,5.52,0,0,0-1.86-2.84,1.33,1.33,0,0,0-1.24-.08c-1.41.63-2.34,3.74-2.87,6.14-.46-2.85-.91-5-1-5.28a3.23,3.23,0,0,0-2.22-1.88,2.56,2.56,0,0,0-2.58,1c-1.28,1.54-3.09,6.92-4,9.92-1-6.67-2.87-11.72-7.29-11.8h-.07c-5,0-7.82,10-9,15.84-.65-11.78-4.5-12.94-5.13-13a3.67,3.67,0,0,0-2.93.38c-2.47,1.28-5.91,5.43-8.65,17.68a70.74,70.74,0,0,0-2.8-11.73A9.79,9.79,0,0,0,106,22.14a9,9,0,0,0-3.06-.2,7.28,7.28,0,0,0-5.68,4c-3.37,6.54-5.13,16.23-5.84,21.89-.69-5.66-2.46-15.36-5.83-21.9a7.29,7.29,0,0,0-5.68-4,9.52,9.52,0,0,0-3.06.2A9.82,9.82,0,0,0,70,28.6a70.83,70.83,0,0,0-2.79,11.74C64.46,28.09,61,23.94,58.56,22.66a3.73,3.73,0,0,0-2.94-.39c-.62.12-4.47,1.28-5.1,13.05-1.22-5.86-4.05-15.83-9-15.83h-.06c-4.43.07-6.31,5.13-7.3,11.79-.92-3-2.75-8.38-4-9.91a2.53,2.53,0,0,0-2.58-1,3.19,3.19,0,0,0-2.22,1.88c-.07.26-.52,2.43-1,5.27-.56-2.4-1.47-5.5-2.89-6.13a1.33,1.33,0,0,0-1.24.07,5.56,5.56,0,0,0-1.86,2.85c-.09-2.91-.49-6.49-1.9-6.84a2.13,2.13,0,0,0-2.39.77c-.22.25-.33.36-.45.36-.31,0-.72-.36-1.06-.65s-1-.84-1.49-.5c-.31.21-.67,1.84-1,3.75-.36-2.51-1-5.27-2.16-5.63a2.19,2.19,0,0,0-2.34.61,2.51,2.51,0,0,1-1.32.75c-1.48.27-1.63,1.12-1.79,2a6.2,6.2,0,0,1-.31,1.27c-.58,1.53-3,11.53-.71,14.78.83,1,1.31,1.06,1.83,1a1,1,0,0,1,.73.13,4.31,4.31,0,0,1,.92.72,2,2,0,0,0,1.32.71,1.22,1.22,0,0,0,.46-.09q.31-.08.63-.12A3.58,3.58,0,0,0,9,36.61a12.87,12.87,0,0,0,.67,3.12A2.29,2.29,0,0,0,11,41.11a2.17,2.17,0,0,0,1.72-.25l.27-.12c.08.06.18.17.28.26a2.75,2.75,0,0,0,1.94,1h.11a6.16,6.16,0,0,0,1.86-.32,3.43,3.43,0,0,0,.71.94,3.83,3.83,0,0,0,2.55,1,3.53,3.53,0,0,0,1.16-.19,4.1,4.1,0,0,0,2.15-1.62c.85,4.68,2.81,7.57,6,8.79a5.93,5.93,0,0,0,2.12.46,3.2,3.2,0,0,0,1.43-.3,2.86,2.86,0,0,0,1-.8,10,10,0,0,0,6.47,4.19,14.72,14.72,0,0,0,3.1.34c2.93,0,5.54-.92,6.68-2.47a4.62,4.62,0,0,0,1,1.83c1.26,1.37,3.36,1.71,6.36,1.83s5.05.16,6.53.16a29.51,29.51,0,0,0,3.26-.12c1.24,1.48,3.89,3.17,9.59,3.17,8.37,0,12.93-2.5,14.19-5.25,1.25,2.75,5.8,5.25,14.2,5.25,5.71,0,8.36-1.69,9.59-3.17a29.78,29.78,0,0,0,3.27.12c1.49,0,3.58,0,6.52-.15s5.11-.46,6.36-1.84a4.44,4.44,0,0,0,1-1.83c1.15,1.54,3.75,2.47,6.68,2.47a14.11,14.11,0,0,0,3.11-.34A10,10,0,0,0,148.64,50a3,3,0,0,0,1,.8,3.36,3.36,0,0,0,1.43.29,5.72,5.72,0,0,0,2.12-.46c3.16-1.22,5.13-4.12,6-8.79a4.14,4.14,0,0,0,2.15,1.62,3.59,3.59,0,0,0,1.17.19,3.8,3.8,0,0,0,2.54-1,3.29,3.29,0,0,0,.71-.91,6.53,6.53,0,0,0,1.86.31h.12A2.75,2.75,0,0,0,169.67,41a3.45,3.45,0,0,1,.28-.26l.27.12a2.26,2.26,0,0,0,1.72.25,2.31,2.31,0,0,0,1.24-1.38,12.63,12.63,0,0,0,.68-3.1,3.48,3.48,0,0,0,1.72.7,3.77,3.77,0,0,1,.58.14,1.94,1.94,0,0,0,.48.09,2,2,0,0,0,1.32-.72,4.31,4.31,0,0,1,.92-.72,1,1,0,0,1,.72-.12c.55.07,1,.05,1.88-1C183.73,31.72,181.35,21.72,180.79,20.2Z"/><path class="cls-4" d="M41.49,68.53c-.46-.4-2.75-.23-3.2-.68-.77-.82-1.51-2.84-2.55-3.27-2.33-.94-4.94,1.29-4.94,1.29A36.34,36.34,0,0,0,25,71.69c-1.19,1.6-.51,13.17-.74,15.63s1.72,5,5.27,5.45,6.62-6.64,6.62-6.64-.76-8.53.85-12.07c1.33-2.91,5-3,5-3A2.12,2.12,0,0,0,41.49,68.53Z"/><path class="cls-4" d="M49.52,85.78s-5.66,13-9.79,11.57-4.12-18.79-3.32-21.88a5.86,5.86,0,0,1,6.35-4.32c1.42.21,5.73-.29,7.22,1.07a5.9,5.9,0,0,1,1.72,3.25"/><path class="cls-4" d="M63.94,74.72a12.25,12.25,0,0,0-5.3-2.24,5.82,5.82,0,0,0-3.48.58q-1.21.63-2.37,1.38c-2.29,1.49-3.2,5.61-3.2,9.85s-2.5,17,5.32,18,6.49-11,6.34-15c0-.87.06-3.49.06-3.49.29-3.14.74-5.61,2.8-6.74h0C64.23,75.4,65.23,75.68,63.94,74.72Z"/><g class="cls-5"><path class="cls-6" d="M91.53,80.07s1,29.45-5.61,29.22S77.13,87.52,77.5,80.76c.08-.6.63-1.06,1.47-1.41a11.55,11.55,0,0,1,3-.68,24.78,24.78,0,0,1,2.58-.14C88,78.5,91.51,79.14,91.53,80.07Z"/><path class="cls-6" d="M68.94,76.58c-1-.84-3.31-1.28-6.17,1.53s-1,21.67.06,25.68,3.78,3.55,5.27,4.12c0,0,4.92.12,5.5-2.86.49-2.56,3.1-18.38,3.1-24A2.13,2.13,0,0,0,75,79C73.11,78.65,70,77.53,68.94,76.58Z"/><path class="cls-6" d="M30.45,66.15c-.4-1.26-1.47-3.21-6.44-2.64-2.62.31-1.77-1.3-3.6-1.83a6.14,6.14,0,0,0-4,.61s-3.89,2.09-4.35,4.84-.68,13.44.81,14.74,3.4.61,4.22,1.07,6,1.07,7.18.56c.56.2-1.62-6.5.54-11.43C26.32,68.67,31.08,67.22,30.45,66.15Z"/><path class="cls-6" d="M11.85,77l-1.67-.24c-1.67-.23-1.29-1.26-2.77-1.14s-2.41,0-3.62-2.1S1.45,66,2.36,61.23s2.8-4,3.81-3.87C7.28,57.67,7.43,59,9,59.79c2.37,1.08,2.8-.56,5.16-.72a5.14,5.14,0,0,1,4.52,2.51"/><path class="cls-6" d="M91.75,80.07s-1,29.45,5.62,29.22,8.79-21.77,8.42-28.53c-.09-.6-.64-1.06-1.47-1.41a11.72,11.72,0,0,0-3-.68,24.44,24.44,0,0,0-2.57-.14C95.25,78.5,91.77,79.14,91.75,80.07Z"/><path class="cls-6" d="M114.28,77c1-.85,3.31-1.28,6.18,1.53s1,21.25,0,25.26-3.78,3.55-5.28,4.12c0,0-4.92.12-5.5-2.86-.49-2.56-3.09-18.38-3.1-24A2.14,2.14,0,0,1,108.32,79C110.18,78.65,113.22,77.94,114.28,77Z"/><path class="cls-6" d="M122,85.45s2.75,20.29,10.58,19.37,5.33-13.75,5.33-18S137,78.47,134.66,77a25.49,25.49,0,0,0-2.43-1.4,5.78,5.78,0,0,0-3.42-.55c-3.21.51-7.75,2.19-7.72,4.54"/><path class="cls-6" d="M137.93,88.32s5.67,13,9.79,11.57S151.84,81.11,151,78a5.83,5.83,0,0,0-6.34-4.31c-1.43.2-5.74-.3-7.23,1.06A6,6,0,0,0,135.75,78"/><path class="cls-6" d="M151.3,88.67s3.06,7.1,6.62,6.64,5.49-3,5.27-5.45.45-14-.75-15.63a35.75,35.75,0,0,0-5.79-5.81s-2.62-2.22-4.93-1.29c-1.05.46-1.79,2.46-2.56,3.27-.45.48-2.77.29-3.2.68a2.12,2.12,0,0,0-.54,2.58"/><path class="cls-6" d="M163.2,83.63c0,.22,2.16-.23,3-.69s2.75.23,4.22-1.07,1.26-12,.8-14.74-4.34-4.84-4.34-4.84a6.16,6.16,0,0,0-4-.61c-1.83.53-1,2.14-3.61,1.83-5-.57-6.13,2.24-6.53,3.5"/><path class="cls-6" d="M171.46,77l1.66-.24c1.68-.23,1.29-1.26,2.78-1.14s2.41,0,3.62-2.1,2.33-7.53,1.42-12.28-2.8-4-3.8-3.87c-1.12.31-1.26,1.68-2.86,2.43-2.37,1.08-2.81-.56-5.16-.72a5.14,5.14,0,0,0-4.52,2.51"/></g></g></g></svg>