<svg xmlns="http://www.w3.org/2000/svg" xmlns:xlink="http://www.w3.org/1999/xlink" viewBox="0 0 182.99 109.37"><defs><style>.cls-1,.cls-3{opacity:0.2;}.cls-1{isolation:isolate;fill:url(#radial-gradient);}.cls-2,.cls-6{opacity:0.2;}.cls-2,.cls-4{fill:url(#radial-gradient-2);}.cls-5,.cls-6{fill:none;stroke:#049ae4;stroke-miterlimit:10;}.cls-7{fill:#049ae4;}</style><radialGradient id="radial-gradient" cx="-263.36" cy="114.19" r="703.2" gradientTransform="translate(0 1.22) scale(1 0.98)" gradientUnits="userSpaceOnUse"><stop offset="0" stop-color="#9344ff"/><stop offset="0.52" stop-color="#0078ff"/><stop offset="1" stop-color="#00c8ff"/></radialGradient><radialGradient id="radial-gradient-2" cx="-263.36" cy="114.19" r="703.2" gradientTransform="matrix(1, 0, 0, 1, 0, 0)" xlink:href="#radial-gradient"/></defs><title>choice__img_2</title><g id="Layer_2" data-name="Layer 2"><g id="_1" data-name="1"><path class="cls-1" d="M165.62,41.32a11.6,11.6,0,0,1,.47-1.64q0-.16,0-.36c.07-1,.09-1.93.07-2.9-.05-1.79-.28-3.57-.46-5.35-.24-2.33-.51-5.37-1.4-7.06a1.09,1.09,0,0,0,0,.18,5.46,5.46,0,0,0-1.87-2.78,1.34,1.34,0,0,0-1.23-.07c-1.42.61-2.35,3.66-2.87,6-.46-2.78-.92-4.9-1-5.16a3.2,3.2,0,0,0-2.23-1.84,2.57,2.57,0,0,0-2.58,1c-1.27,1.5-3.08,6.77-4,9.7-1-6.52-2.87-11.47-7.3-11.55h-.06c-5,0-7.82,9.76-9.05,15.51-.65-11.53-4.5-12.67-5.13-12.78a3.76,3.76,0,0,0-2.93.38c-2.47,1.25-5.9,5.31-8.64,17.31a68,68,0,0,0-2.8-11.49,9.7,9.7,0,0,0-6.87-6.33,9,9,0,0,0-3.06-.2A7.25,7.25,0,0,0,97,25.78c-3.37,6.41-5.14,15.89-5.84,21.44-.7-5.55-2.47-15-5.84-21.44a7.28,7.28,0,0,0-5.68-3.89,9.56,9.56,0,0,0-3.06.2,9.72,9.72,0,0,0-6.87,6.33A68,68,0,0,0,67,39.91c-2.75-12-6.18-16-8.65-17.31a3.82,3.82,0,0,0-2.94-.37c-.62.11-4.47,1.24-5.1,12.77-1.23-5.74-4-15.5-9-15.5h-.07c-4.43.07-6.3,5-7.29,11.54-.92-2.92-2.75-8.2-4-9.7a2.57,2.57,0,0,0-2.58-1A3.18,3.18,0,0,0,25,22.17c-.08.26-.53,2.38-1,5.16-.55-2.34-1.47-5.38-2.88-6a1.36,1.36,0,0,0-1.24.07,4.44,4.44,0,0,0-1.54,2c-.06.21-.13.42-.19.63-.07.62-.16,1.25-.28,1.89-.32,1.66-.93,3.23-1.37,4.85,0,.24,0,.48,0,.72-.15,3.11-.18,6.21,0,9.31,0,.17.1.33.14.5l.22,0a3.49,3.49,0,0,0,.71.92,3.83,3.83,0,0,0,2.54,1A3.87,3.87,0,0,0,21.29,43a4.14,4.14,0,0,0,2.15-1.59c.84,4.58,2.8,7.41,6,8.61a6.14,6.14,0,0,0,2.12.45A3.52,3.52,0,0,0,33,50.17a2.88,2.88,0,0,0,1-.79,10,10,0,0,0,6.47,4.1,14.74,14.74,0,0,0,3.11.34c2.93,0,5.53-.9,6.68-2.42a4.42,4.42,0,0,0,1,1.79c1.25,1.35,3.36,1.68,6.36,1.79s5,.16,6.52.16A29.78,29.78,0,0,0,67.4,55c1.23,1.45,3.88,3.1,9.59,3.1,8.37,0,12.92-2.44,14.18-5.14,1.26,2.7,5.81,5.15,14.21,5.15,5.7,0,8.36-1.66,9.59-3.11a29.6,29.6,0,0,0,3.27.12c1.48,0,3.58,0,6.52-.15s5.11-.45,6.36-1.8a4.41,4.41,0,0,0,1-1.79c1.15,1.51,3.75,2.42,6.68,2.42a14.71,14.71,0,0,0,3.1-.33,10,10,0,0,0,6.47-4.1,3,3,0,0,0,1,.79,3.51,3.51,0,0,0,1.43.28A5.92,5.92,0,0,0,153,50c3.16-1.19,5.12-4,6-8.61A4.1,4.1,0,0,0,161.08,43a3.74,3.74,0,0,0,3.71-.8,3.67,3.67,0,0,0,.71-.9A.53.53,0,0,0,165.62,41.32Z"/><path class="cls-2" d="M41.23,68.34c-.46-.4-2.75-.23-3.21-.68-.76-.82-1.5-2.84-2.55-3.27-2.32-.94-4.94,1.29-4.94,1.29-.44.35-.87.72-1.3,1.1a12.8,12.8,0,0,1-2.75,2.69c-.34.37-.67.75-1,1.13-.41,1.28-.94,2.5-1.35,3.77-.31,4.06,0,10.93-.14,12.76-.23,2.46,1.72,5,5.27,5.45s6.61-6.64,6.61-6.64-.76-8.53.85-12.07c1.33-2.91,5.05-3,5.05-3A2.14,2.14,0,0,0,41.23,68.34Z"/><path class="cls-2" d="M49.26,85.59s-5.67,13-9.79,11.57-4.12-18.79-3.32-21.88A5.85,5.85,0,0,1,42.49,71c1.43.21,5.73-.29,7.23,1.07a5.89,5.89,0,0,1,1.71,3.25"/><path class="cls-2" d="M63.68,74.53a12.3,12.3,0,0,0-5.3-2.24,5.8,5.8,0,0,0-3.49.59,24.13,24.13,0,0,0-2.36,1.37c-2.29,1.49-3.21,5.61-3.21,9.85s-2.5,17,5.33,18,6.49-11,6.34-15c0-.87.06-3.49.06-3.49.28-3.14.73-5.61,2.79-6.74h0C64,75.21,65,75.5,63.68,74.53Z"/><g class="cls-3"><path class="cls-4" d="M91.27,79.89s1,29.44-5.62,29.21-8.78-21.77-8.42-28.53c.09-.6.64-1.06,1.47-1.41a12.16,12.16,0,0,1,3-.68,24.63,24.63,0,0,1,2.58-.14C87.75,78.31,91.25,79,91.27,79.89Z"/><path class="cls-4" d="M68.68,76.39c-1-.84-3.31-1.28-6.18,1.53s-1,21.67.06,25.68,3.78,3.55,5.28,4.12c0,0,4.92.12,5.5-2.86.49-2.56,3.1-18.38,3.1-24a2.14,2.14,0,0,0-1.74-2.08C72.84,78.46,69.72,77.34,68.68,76.39Z"/><path class="cls-4" d="M23.6,76.8a39.71,39.71,0,0,0-.31,6.66,2.8,2.8,0,0,0,.74-.15C24.41,83.44,23.51,80.35,23.6,76.8Z"/><path class="cls-4" d="M91.49,79.89s-1,29.44,5.62,29.21,8.78-21.77,8.42-28.53c-.09-.6-.64-1.06-1.48-1.41a12,12,0,0,0-3-.68,24.78,24.78,0,0,0-2.58-.14C95,78.31,91.51,79,91.49,79.89Z"/><path class="cls-4" d="M114,76.81c1-.85,3.31-1.28,6.17,1.53s1,21.25,0,25.26-3.78,3.55-5.27,4.12c0,0-4.92.12-5.5-2.86-.49-2.56-3.09-18.38-3.1-24a2.13,2.13,0,0,1,1.74-2.08C109.92,78.46,113,77.75,114,76.81Z"/><path class="cls-4" d="M121.69,85.26s2.75,20.29,10.59,19.37,5.32-13.75,5.32-18-.91-8.36-3.2-9.85a28,28,0,0,0-2.44-1.4,5.75,5.75,0,0,0-3.41-.55c-3.21.51-7.76,2.19-7.73,4.54"/><path class="cls-4" d="M137.67,88.13s5.66,13,9.79,11.57,4.12-18.78,3.32-21.88a5.84,5.84,0,0,0-6.35-4.31c-1.42.2-5.73-.3-7.22,1.06a5.9,5.9,0,0,0-1.72,3.25"/><path class="cls-4" d="M162.91,83.64a24,24,0,0,1-.1-3.88c0-.19.05-.4.07-.6a24.27,24.27,0,0,0-.37-4.25,41.46,41.46,0,0,0-2.65-3.51c-.73-.75-1.5-1.48-2.29-2.17a13.85,13.85,0,0,1-2.52-1.85,12.66,12.66,0,0,1-1.74-.61,3.42,3.42,0,0,0-1.86.17c-1,.46-1.78,2.46-2.55,3.27-.46.48-2.77.29-3.21.68a2.14,2.14,0,0,0-.53,2.58l5.88,15s3.06,7.1,6.61,6.64,5.5-3,5.27-5.45C162.83,88.7,162.88,86.29,162.91,83.64Z"/><path class="cls-4" d="M162.81,79.76a23.46,23.46,0,0,0,.38-3.71l-.56-1c-1-1.76-2.66-3.39-3.93-5.27A14.22,14.22,0,0,1,155,67.38c-1.49-.47-2.74-.84-.81-.76l-.09-.09a13.5,13.5,0,0,1-1.43-.33,4.92,4.92,0,0,0-.23.62l10.39,16.51A26.62,26.62,0,0,1,162.81,79.76Z"/></g><path class="cls-5" d="M66.89,53.05S67.47,58,77.09,58s14.09-3.32,14.09-6.42c0-2.81-1.7-17.28-6.15-25.9a6.86,6.86,0,0,0-5.32-3.72,8.33,8.33,0,0,0-2.9.19,9.29,9.29,0,0,0-6.56,6.17A66.83,66.83,0,0,0,66.89,53.05Z"/><path class="cls-5" d="M67.7,54.77s-1.15.35-10,0-7.53-2.86-7-18.78c.46-13.37,4.81-13.72,4.81-13.72s7-3.08,11.57,20.36"/><path class="cls-5" d="M50.63,39.08s-2.75-19.71-9.39-19.59-7.22,12.94-8,24.28,15.24,11.69,17.13,6.88"/><path class="cls-5" d="M34.13,33s-2.86-9.71-4.58-11.77-3.78-.13-4,.68S23.13,33.8,23.71,39.3s2.4,9.05,5.95,10.43,4.47-1.1,4.47-1.1"/><path class="cls-5" d="M24.18,29.92s-1.05-7.68-3.11-8.6-3.69,6.34-4,9c-.35,2.9-1.25,9.62.92,11.55a3.53,3.53,0,0,0,5.77-2.11"/><path class="cls-5" d="M17.69,26.93s.29-9-1.54-9.5-1.84,1.14-2.75,1.14S11.56,17,11.11,17.34,7.78,33.35,10,39.08c1,2.29,2.49.49,2.95.72s.94,1.26,2.09,1.29a6.13,6.13,0,0,0,2.23-.46"/><path class="cls-5" d="M9.76,24.38s-.52-8.33-2.21-8.86S5.8,16.59,4.12,16.9s-1.15,1.33-1.76,3S-.47,31.25,1.6,34.23c1.22,1.53,1.29.37,2.44,1s1.45,1.64,2.37,1.31,2.75-.08,2.75-2.38"/><path class="cls-5" d="M131.92,39.08s2.75-19.7,9.39-19.58,7.22,12.94,8,24.28-15.24,11.69-17.13,6.88"/><path class="cls-5" d="M148.43,33s2.85-9.7,4.59-11.76,3.78-.14,4,.67,2.41,11.92,1.84,17.42-2.41,9-6,10.42-4.45-1.11-4.45-1.11"/><path class="cls-5" d="M158.37,29.92s1-7.67,3.1-8.59,3.7,6.34,4,9c.36,2.9,1.25,9.62-.92,11.56a3.53,3.53,0,0,1-5.77-2.11"/><path class="cls-5" d="M164.85,26.93s-.28-9,1.55-9.49,1.83,1.14,2.75,1.14S171,17,171.44,17.35s3.32,16,1.15,21.74c-1,2.29-2.5.48-3,.71s-.95,1.26-2.09,1.29a6.09,6.09,0,0,1-2.23-.46"/><path class="cls-5" d="M172.79,24.38s.52-8.32,2.2-8.86,1.76,1.07,3.44,1.38,1.14,1.34,1.75,3S183,31.25,181,34.23c-1.22,1.54-1.3.38-2.44,1s-1.46,1.64-2.37,1.32-2.75-.09-2.75-2.38"/><path class="cls-5" d="M115.65,53.06S115.08,58,105.46,58s-14.1-3.32-14.1-6.42c0-2.81,1.71-17.28,6.15-25.91a6.88,6.88,0,0,1,5.33-3.72,8.58,8.58,0,0,1,2.9.19,9.31,9.31,0,0,1,6.56,6.17A66.93,66.93,0,0,1,115.65,53.06Z"/><path class="cls-5" d="M114.84,54.78s1.15.35,10,0,7.53-2.87,7-18.79C131.35,22.63,127,22.27,127,22.27S120,19.19,115.42,42.64"/><path class="cls-5" d="M91.3,79.66s1,29.44-5.62,29.21S76.9,87.1,77.26,80.35c.09-.6.64-1.07,1.48-1.42a11.54,11.54,0,0,1,3-.67,24.45,24.45,0,0,1,2.57-.15C87.79,78.09,91.28,78.73,91.3,79.66Z"/><path class="cls-5" d="M68.77,76.58c-1-.85-3.31-1.27-6.17,1.53s-1,21.25,0,25.26,3.78,3.55,5.27,4.13c0,0,4.92.11,5.5-2.87.49-2.56,3.1-18.38,3.1-23.95a2.13,2.13,0,0,0-1.74-2.08C72.87,78.24,69.83,77.53,68.77,76.58Z"/><path class="cls-5" d="M30.28,66.15c.08-1.32-1.53-3.63-6.5-3.05-2.63.3-1.77-1.3-3.61-1.84a6.19,6.19,0,0,0-4,.61S12.31,64,11.85,66.71s-.69,13.44.8,14.74,3.4.61,4.22,1.07a8.51,8.51,0,0,0,3.24.89s2.73.77,4,.09a4.7,4.7,0,0,1,0-.75c.16-1.83-.76-6.71.55-10.68A8.1,8.1,0,0,1,27,69.24C28.3,67.89,29.58,66.75,30.28,66.15Z"/><path class="cls-5" d="M11.6,76.57l-1.67-.23c-1.68-.23-1.29-1.26-2.78-1.15s-2.41,0-3.61-2.09S1.19,65.57,2.11,60.81s2.8-4,3.8-3.87c1.12.32,1.26,1.69,2.86,2.43,2.38,1.09,2.81-.56,5.16-.71a5.15,5.15,0,0,1,4.52,2.5"/><path class="cls-5" d="M91.52,79.66s-1,29.44,5.62,29.21,8.78-21.77,8.42-28.52c-.09-.6-.64-1.07-1.47-1.42a11.7,11.7,0,0,0-3-.67,24.45,24.45,0,0,0-2.57-.15C95,78.09,91.54,78.73,91.52,79.66Z"/><path class="cls-5" d="M114.05,76.58c1-.85,3.31-1.27,6.17,1.53s1,21.25,0,25.26-3.78,3.55-5.27,4.13c0,0-4.92.11-5.5-2.87-.49-2.56-3.1-18.38-3.1-23.95a2.13,2.13,0,0,1,1.74-2.08C110,78.24,113,77.53,114.05,76.58Z"/><path class="cls-5" d="M121.73,85s2.75,20.28,10.58,19.36,5.33-13.74,5.33-18-.92-8.37-3.21-9.85a24.61,24.61,0,0,0-2.43-1.4,5.63,5.63,0,0,0-3.42-.55c-3.21.51-7.76,2.18-7.72,4.53"/><path class="cls-5" d="M137.69,87.9s5.67,12.95,9.79,11.58,4.13-18.79,3.33-21.88a5.86,5.86,0,0,0-6.35-4.32c-1.43.2-5.73-.3-7.22,1.06a5.9,5.9,0,0,0-1.72,3.26"/><path class="cls-5" d="M151.07,88.25s3.06,7.1,6.61,6.64,5.5-3,5.27-5.44.46-14-.74-15.63a36.34,36.34,0,0,0-5.8-5.83s-2.62-2.22-4.94-1.29c-1,.46-1.79,2.46-2.55,3.27-.46.46-2.77.29-3.21.69a2.12,2.12,0,0,0-.53,2.57"/><path class="cls-5" d="M163,83.21c0,.23,2.16-.23,3-.69s2.75.23,4.22-1.07,1.26-12,.8-14.74-4.35-4.84-4.35-4.84a6.19,6.19,0,0,0-4-.61c-1.84.54-1,2.14-3.61,1.84-5-.58-6.13,2.23-6.53,3.49"/><path class="cls-5" d="M171.23,76.57l1.66-.23c1.68-.23,1.29-1.26,2.78-1.15s2.41,0,3.62-2.09,2.34-7.53,1.42-12.29-2.8-4-3.8-3.87c-1.12.32-1.26,1.69-2.86,2.43-2.38,1.09-2.81-.56-5.16-.71a5.15,5.15,0,0,0-4.52,2.5"/><path class="cls-5" d="M36,86.13s-3.06,7.1-6.61,6.64-5.5-3-5.27-5.45-.46-14,.74-15.63a36.34,36.34,0,0,1,5.81-5.82s2.61-2.23,4.94-1.29c1,.43,1.78,2.45,2.54,3.27.46.45,2.75.28,3.21.68a2.12,2.12,0,0,1,.54,2.58"/><path class="cls-5" d="M49.35,85.78s-5.66,13-9.79,11.57-4.12-18.79-3.32-21.88a5.85,5.85,0,0,1,6.35-4.32c1.42.21,5.72-.29,7.22,1.07a6,6,0,0,1,1.72,3.25"/><path class="cls-5" d="M63.77,74.72a12.25,12.25,0,0,0-5.3-2.24,5.75,5.75,0,0,0-3.48.59,23.16,23.16,0,0,0-2.37,1.37c-2.29,1.49-3.21,5.61-3.21,9.85s-2.5,17,5.33,18,6.49-11,6.34-15c0-.88.06-3.5.06-3.5.29-3.14.73-5.61,2.79-6.74h0C64.06,75.4,65.06,75.69,63.77,74.72Z"/><path class="cls-6" d="M36,86.13s-3.06,7.1-6.61,6.64-5.5-3-5.27-5.45-.46-14,.74-15.63a36.34,36.34,0,0,1,5.81-5.82s2.61-2.23,4.94-1.29c1,.43,1.78,2.45,2.54,3.27.46.45,2.75.28,3.21.68a2.12,2.12,0,0,1,.54,2.58"/><path class="cls-7" d="M179.8,17.18l0,0h0s0,0,0,0l.06,0,.07-.07L180,17l.07-.09a1.49,1.49,0,0,0,.15-.2,5,5,0,0,0,.26-.46l.22-.5c.12-.35.26-.69.35-1.06s.21-.72.29-1.09l.25-1.11c.07-.37.13-.75.2-1.12.15-.75.24-1.5.35-2.26.2-1.51.38-3,.51-4.54s.23-3.05.35-4.57c-.05,1.53-.08,3.05-.17,4.58s-.18,3.05-.32,4.58c-.08.76-.14,1.52-.26,2.28-.05.38-.1.76-.16,1.14l-.21,1.14a18.28,18.28,0,0,1-.58,2.26l-.22.55a5.6,5.6,0,0,1-.27.55,2.61,2.61,0,0,1-.19.27l-.1.14-.14.12-.14.12-.2.1a.61.61,0,0,1-.25.06.34.34,0,0,1-.14,0h-.08l-.11,0Z"/><path class="cls-7" d="M.18,4.57c.14,1.52.31,3,.51,4.55.11.75.2,1.51.35,2.25.07.38.13.75.2,1.12l.25,1.11a16.7,16.7,0,0,0,.64,2.15l.22.5a5,5,0,0,0,.26.46,1.49,1.49,0,0,0,.15.2l.07.09.08.07.07.06.06,0s0,0,0,0h0l0,0,.35.65-.11,0H3.19a.4.4,0,0,1-.15,0,.66.66,0,0,1-.25-.06l-.2-.1a1.49,1.49,0,0,1-.14-.12l-.14-.12-.1-.14c-.06-.09-.14-.17-.19-.26s-.2-.37-.27-.55L1.53,16A18.28,18.28,0,0,1,1,13.72L.74,12.58c-.06-.38-.1-.76-.16-1.14C.47,10.68.41,9.92.32,9.16.18,7.64.07,6.11,0,4.58"/><path class="cls-7" d="M2.91,70.81a18.37,18.37,0,0,0-1.2,3.58c-.3,1.25-.54,2.51-.73,3.78-.4,2.54-.66,5.11-.85,7.68.07-2.57.2-5.15.48-7.73.14-1.28.31-2.57.56-3.84a18.52,18.52,0,0,1,1.08-3.79Z"/><path class="cls-7" d="M180.57,70.49a18.52,18.52,0,0,1,1.08,3.79c.25,1.27.42,2.56.56,3.84.28,2.58.41,5.16.48,7.73-.19-2.57-.45-5.14-.84-7.68-.2-1.27-.44-2.53-.74-3.78a18.37,18.37,0,0,0-1.2-3.58Z"/></g></g></svg>