<svg xmlns="http://www.w3.org/2000/svg" viewBox="0 0 350.58 142.17"><defs><style>.cls-1,.cls-3,.cls-6{fill:none;stroke-width:3px;}.cls-1,.cls-5{stroke:#dadada;}.cls-1{stroke-linecap:round;stroke-linejoin:round;}.cls-2{fill:#0079ff;}.cls-3{stroke:#0079ff;}.cls-3,.cls-5,.cls-6{stroke-miterlimit:10;}.cls-4,.cls-5{fill:#dadada;}.cls-5{stroke-width:0.5px;}.cls-6{stroke:#f5e9c2;}</style></defs><title>emax__features__img</title><g id="Layer_2" data-name="Layer 2"><g id="_1" data-name="1"><path class="cls-1" d="M69.66,27c3-4.79,11.56-3.07,17.45-6.18A35,35,0,0,0,101.53,6c1.47.53,1.48,3.14,1.31,4.7s-.74,3-2.3,3.23a3.88,3.88,0,0,1-2.25,6.69,3.18,3.18,0,0,1-.84,4.62,5.2,5.2,0,0,0-1.68,1c-1,1.16.34,2.92,0,4.37-.54,2.11-4,2.15-4.75,4.2-.43,1.17.24,2.52-.16,3.7a4,4,0,0,1-1.35,1.66c-2.87,2.39-5.28.21-8.79,1.49"/><path class="cls-1" d="M39.36,39.05c-4.62-2.31-11.32,4.68-18,5S8,43,1.5,41.21a8,8,0,0,0,8,5.54c-1.46.76-.89,3.27.64,3.87s3.27-.16,4.55-1.2a4.64,4.64,0,0,0,2.69,5.14,4.65,4.65,0,0,0,5.52-1.78,3.19,3.19,0,0,0,1.22,3.7c1.18.76,3,1.12,4,.12,0,1.14,1.8,3.12,2.91,3.37,5.35,1.21,5.79-5.55,10.7-4.53"/><path class="cls-2" d="M257.78,94.77a46.41,46.41,0,1,0,47.39-45.4A46.45,46.45,0,0,0,257.78,94.77Zm4,.09a42.37,42.37,0,1,1,41.45,43.27A42.41,42.41,0,0,1,261.81,94.86Z"/><circle class="cls-2" cx="285.16" cy="91.05" r="2.28"/><circle class="cls-2" cx="317.54" cy="91.05" r="2.28"/><path class="cls-3" d="M296.66,108.3c0,2.49,2,1.69,4.5,1.69s4.5.8,4.5-1.69a4.5,4.5,0,0,0-9,0Z"/><path class="cls-4" d="M134.82,134.36c-1.56,0-3.17-.05-4.83-.14-14.74-.8-19.54-5.71-21.08-8.56-2-3.78-2.29-6.09-1.72-16.51a91.73,91.73,0,0,1,2.25-16.44l.14-.65a158.9,158.9,0,0,1,7.31-24.64,22,22,0,0,1,16.33-13.77,21.09,21.09,0,0,1,7-.09,16.82,16.82,0,0,1,12.65,9.89c6.94,15.51,9.5,37.08,9.91,47.38.13,3.28.12,9.67-.77,12.86C160.17,130.34,149.7,134.36,134.82,134.36ZM137,56.31a18,18,0,0,0-3.19.28,19.08,19.08,0,0,0-14.1,11.91,157,157,0,0,0-7.17,24.19l-.14.65a88,88,0,0,0-2.19,16c-.53,9.79-.35,11.74,1.36,14.91,2.1,3.86,9,6.48,18.61,7,18,1,27.67-3.64,29-8.34.73-2.64.8-8.58.66-11.94-.52-13.08-3.77-33.14-9.65-46.28h0a13.82,13.82,0,0,0-10.39-8.14A18.22,18.22,0,0,0,137,56.31Z"/><path class="cls-5" d="M74,78.18q-1.73.78-3.6,1.5c-11.12,4.27-16.27,2.24-18.35.65-2.75-2.1-3.69-3.72-6.71-11.58A75.37,75.37,0,0,1,41.6,55.9l-.11-.52a129,129,0,0,1-2.75-20.56A17.81,17.81,0,0,1,46.21,19.3a17.12,17.12,0,0,1,5.13-2.38A13.59,13.59,0,0,1,63.92,20c10.23,9.12,19.23,24.16,22.93,31.61C88,54,90.13,58.71,90.53,61.36,91.37,66.86,85,73.27,74,78.18ZM49.86,20a14.3,14.3,0,0,0-2.26,1.26A15.39,15.39,0,0,0,41.16,34.7a125.17,125.17,0,0,0,2.7,20.17l.11.53a72.15,72.15,0,0,0,3.67,12.48c2.84,7.39,3.61,8.77,5.92,10.53,2.82,2.15,8.8,1.78,16-1,13.61-5.23,19.16-11.81,18.57-15.7-.33-2.18-2.25-6.58-3.45-9C80,43.26,71,29.56,62.3,21.83h0A11.15,11.15,0,0,0,52,19.26,14.23,14.23,0,0,0,49.86,20Z"/><path class="cls-4" d="M194.11,134.23c-1.05,0-3.47-.66-5.68-11.39-2.53,1.88-7,5.21-10.06,7.42-1.91,1.38-4.5,1.56-7.49.51-3.9-1.37-7.9-4.68-8.56-7.08-.89-3.19-.9-9.58-.77-12.86.41-10.3,3-31.87,9.91-47.38a16.79,16.79,0,0,1,12.63-9.88,20.76,20.76,0,0,1,7,.07,22.08,22.08,0,0,1,16.36,13.78,158.57,158.57,0,0,1,7.31,24.64l.14.64a92,92,0,0,1,2.25,16.45c.57,10.42.33,12.73-1.72,16.51-1,1.9-3.42,4.56-8.94,6.45-1.5.52-3.7-.78-5.58-2.29-1.49,1.66-4.19,4.27-6.56,4.4Zm-3.62-16.68.43,2.39c.93,5.18,2.51,10.27,3.47,11.26,1.27-.3,3.6-2.45,5.15-4.42l1-1.25,1.19,1.06a13.93,13.93,0,0,0,3.92,2.64c3.52-1.23,6.06-3,7.14-5,1.72-3.17,1.9-5.12,1.36-14.91a89.14,89.14,0,0,0-2.18-16l-.14-.65a156.25,156.25,0,0,0-7.17-24.18,19.1,19.1,0,0,0-14.13-11.92,17.73,17.73,0,0,0-6-.06,13.77,13.77,0,0,0-10.36,8.13h0c-5.89,13.14-9.13,33.2-9.65,46.28-.14,3.36-.07,9.31.66,11.94.29,1,3.23,3.84,6.66,5,1.41.49,3.38.87,4.74-.11,4.44-3.21,11.86-8.77,11.94-8.82Z"/><path class="cls-4" d="M186.76,138.23c-.93,0-2.18,0-3.89-.14l-.74,0h-.7l-.53-.58c-.63-.78-.49-1.78.11-4.7.08-.42.19-.93.21-1.11,0-.65.11-1.33,4.39-4.47l1.72-1.26.61,2c2.28,7.73,2.28,8.24,2.28,8.49v.64l-.5.51C189.3,138,188.81,138.23,186.76,138.23Zm-3.15-3.1c1.41.07,2.5.1,3.27.1h0c-.29-1.08-.74-2.66-1.22-4.31a17.23,17.23,0,0,0-1.5,1.3c0,.26-.11.62-.22,1.15S183.71,134.52,183.61,135.13Zm-1.47-.08h0Z"/><polygon class="cls-4" points="188.39 119.15 198.24 111.42 190.51 121.27 188.39 119.15"/><polygon class="cls-4" points="199.28 127.87 200.43 119.25 202.28 127.74 199.28 127.87"/><polygon class="cls-4" points="193.81 115.29 189.45 104.67 196.42 113.79 193.81 115.29"/><ellipse class="cls-6" cx="43.71" cy="10.33" rx="19.34" ry="4.53" transform="translate(-0.46 18.49) rotate(-23.76)"/></g></g></svg>