<svg xmlns="http://www.w3.org/2000/svg" viewBox="0 0 198.98 65.63"><defs><style>.cls-1{fill:#fff;}</style></defs><title>footer__creator</title><g id="Layer_2" data-name="Layer 2"><g id="Layer_1-2" data-name="Layer 1"><path class="cls-1" d="M0,32.72c.45-1.76.83-3.53,1.36-5.27C2.87,22.51,5.3,18.8,10,14.22l-.27-2.37,1.52.22-.76-3.56.33-.12.42.65a35.6,35.6,0,0,1,3-3.44,11.56,11.56,0,0,1,6.66-3.35C23.32,2,25.75.91,28.25.71c4.3-.36,7.48,1.84,10.11,5.1a7.52,7.52,0,0,0,3,2.23c11.63,4.44,19.09,12.48,20.4,25C63.32,48.2,53,61.59,38.05,64.75l-4.26.88h-5.7c-.62-.15-1.24-.34-1.87-.46C13.7,62.86,5.11,56,1.13,43.69.66,42.26.37,40.77,0,39.3Zm25.15,7.19c1.12,2.72,2.8,3.43,5.3,2.35.85-.37,1.81-.51,2.67-.86,1-.4,2-.92,3.14-1.48-1.2-1.49-1.95-2.57-2.87-3.49-.39-.39-1.31-.77-1.66-.57-2.25,1.26-4.41,2.68-6.6,4ZM43,14.22a42.36,42.36,0,0,0-3.65,2.51c-2.48,2.1-4.82,4.36-7.3,6.46-1.12.95-1.46,1.77-.61,3.13,1.59,2.55,1.28,3.57-2.08,5.1A5.66,5.66,0,0,1,23,30.48l-2.31-2c.27,1.15.38,1.72.54,2.26.44,1.5.55,2.94-1,3.91a3.57,3.57,0,0,1-4.64-.37c-1.26-1.15-2.35-2.49-4-4.31C14,29.19,16,28.6,17.87,27.9a31,31,0,0,0,3.55-1.55c2.14-1.07,4.24-2.2,6.35-3.32,2.9-1.54,5.79-3.1,8.5-4.55-1.39-2.2-2.62-3.83-3.52-5.63-1.36-2.74-3.27-3.61-6-2.15a33.9,33.9,0,0,0-4.25,3.07c-2.22,1.67-4.41,3.57-7.45,3.14-2.17-.31-3.54.66-4.86,2.14A25.26,25.26,0,0,0,12,54.72a26.64,26.64,0,0,0,13.72,6.83c1.06-4.59,2.09-9,3.05-13.34a2,2,0,0,0-.47-1.32C26.52,44.2,24.69,41.53,23,39c2.14-1,4.7-2,7.08-3.37,1.66-.94,2.86-.82,4,.62l2.65,3.35c1.11-3.31,2.35-6.05,2.88-8.91s.42-6,.6-9.43l3.58,4.12,1.84-1,.13.2-1.6,1.86c3.43,3.4,2.44,7.42,1.75,11.39-.76,4.31-3.54,7.24-6.5,9.53l1.3,6.18c4.66-1.09,8.84-2.88,10.7-7.69,1.63-4.2,2.92-8.53,4.4-12.91l2.38.88c-.57-9.34-8.27-19.56-16.17-21.4Z"/><path class="cls-1" d="M103.65,38.21l-1.6,4.49a17,17,0,0,1,1.88,2.94A6.68,6.68,0,0,1,98.25,55c-4.41.42-8.88.09-13.6.09V33.62l-4.6-.28V24.12c4.19-.57,3.7-.77,4.21-4.57C84.9,14.78,85,9.94,85.33,5h16.92V23.55c1.65.75,2.3-.12,2.94-1.22Q111,12.16,116.89,2c.35-.61.75-1.19,1.26-2l11.67,18.46.42-.06V5.17c4.66,0,9.08-.47,13.36.12,5.2.72,6.92,5.85,4,10.76a20.41,20.41,0,0,1,1.57,2,6.78,6.78,0,0,1-4.29,10.2,62.55,62.55,0,0,1-8.15.78A2.77,2.77,0,0,0,140,31.45a77.16,77.16,0,0,1,8.33,0c4.83.26,8.15,3.06,8.72,7.14.72,5.1-2.22,9.15-7.34,9.87-2.09.29-4.22.27-6.61.41v6.32h-5.23V33l-.53-.18c-6.36,10-12.71,20.11-19.23,30.43C113.24,54.77,108.48,46.56,103.65,38.21ZM118.3,53.13l10.6-16.82H108.61C111.86,42,115,47.35,118.3,53.13Zm8.77-29.23L118.3,10l-8,13.89Zm-36.86-14c-.43,4.65-.86,9.19-1.29,13.81h7.93V9.91Zm41.34,21.43a3.21,3.21,0,0,0-3.64-2.68q-9.09.21-18.17,0c-2.06,0-3.1.67-3.49,2.68Zm11.59,12.5c2.13-.13,4.17-.08,6.14-.4,1.8-.3,2.68-1.63,2.62-3.51a3,3,0,0,0-2.65-3.26c-2-.3-4-.3-6.11-.44Zm-53.3,6.81a65.94,65.94,0,0,0,7.39-.43A2.9,2.9,0,0,0,99,48.05a2.84,2.84,0,0,0-1.83-2.13,66.79,66.79,0,0,0-7.37-.1Zm45.78-26.86a55.68,55.68,0,0,0,7.22-.11,3.09,3.09,0,0,0,1.89-2.31c.07-.67-1.13-2-1.87-2.08a64.78,64.78,0,0,0-7.24-.1ZM85.16,31.41c4.55,0,8.85-.07,13.14,0,2,.05,2.2-.88,1.71-2.54H85.16Zm50.43-17.29a42.19,42.19,0,0,0,6.31-.1,3,3,0,0,0,1.81-2.19c.06-.61-1.09-1.83-1.82-1.93a48.75,48.75,0,0,0-6.3-.09ZM89.87,40.71a41.88,41.88,0,0,0,6.16-.1,2.89,2.89,0,0,0,1.92-2,2.87,2.87,0,0,0-1.87-2.12,42.83,42.83,0,0,0-6.21-.1Z"/><path class="cls-1" d="M199,24v9.27h-4.9l-.22-4.4h-15v2.19c.16.1.29.26.39.24,3.13-.57,4.36,1.19,5.47,3.82,2.81,6.65,5.92,13.16,9.12,20.17-1.91,0-3.61.28-5.13-.12-.75-.2-1.41-1.59-1.69-2.56-.68-2.37-2.07-3.33-4.48-2.87a3.9,3.9,0,0,1-1.32,0c-3.64-.56-6.37.27-7.24,4.39-.1.5-1.1,1.06-1.75,1.15a33.33,33.33,0,0,1-4.33.06c2.94-6.49,5.75-12.67,8.64-19H163.91V55.16h-5.1V31.45h14.84V23.72c3.25.81,4-1,4.21-3.3.37-4.51.69-9,.86-13.55.06-1.62.52-2.13,2.16-2.1,4.89.11,9.78,0,14.92,0V23.63Zm-8.41-.3V9.9h-6.69c-.41,4.62-.82,9.15-1.24,13.81Zm-7.09,21.16L180.79,39l-2.52,5.92Z"/><path class="cls-1" d="M173,5v23.6h-4.89v-14a15.44,15.44,0,0,0-1.32,1.23c-2.69,3.46-5.53,6.83-8,10.45-1.57,2.32-3.41,2.88-6.05,2.21V5h5.06V19.15c3.3-4.28,6.39-7.95,9.09-11.89C168.52,4.94,170.35,4.37,173,5Z"/><path class="cls-1" d="M25.13,39.9l6.48-2.52c-1.26,1.62-5.31,3.13-6.45,2.53Z"/></g></g></svg>