<svg xmlns="http://www.w3.org/2000/svg" xmlns:xlink="http://www.w3.org/1999/xlink" viewBox="0 0 55.97 57.65"><defs><style>.cls-1{fill:url(#radial-gradient);}</style><radialGradient id="radial-gradient" cx="-0.19" cy="46.51" r="85.73" gradientUnits="userSpaceOnUse"><stop offset="0" stop-color="#0078ff"/><stop offset="1" stop-color="#00eaed"/></radialGradient></defs><title>header__logo</title><g id="Layer_2" data-name="Layer 2"><g id="_1" data-name="1"><path class="cls-1" d="M51.22,7.5c-5.1-4.89-11-6.25-16.06-6.94A61.64,61.64,0,0,0,22,.19C16.69.62,7.11,2.27,2.59,8.55h0C-1.57,14.31.15,26.17,1.77,33.1c2,8.46,7.63,24.54,16,24.55h0c5.5,0,7.2-10.52,10.31-10.68h0c.48,0,1,.74,1.56,1.67s1,2,1.45,2.86c1.43,2.91,3.28,6.15,7,6.15h0c5,0,10.5-9.16,13.64-17C56.29,29.23,58.57,14.53,51.22,7.5ZM33.69,4a14.25,14.25,0,0,1,9.16,4.78c1.45,1.7,1.83,2.93,1.56,3.64-.54,1.45-3.85,2.29-6.44,2.08-2.37-.2-5.66-1.55-9.14-3C22.41,8.85,14.36,5.55,7.93,8.23,14,3.75,25.1,3,33.69,4Zm-16,50.1h0C12.47,54.07,3.49,35.9,5.86,26.3c.64-2.55,1.7-4.31,3.2-5.25,7.12-4.46,13.08,10.57,18.24,22.41C22.15,44.33,20.11,54.07,17.73,54.07Zm20.34,0C32.5,54.07,25.81,20.63,14,17A7.93,7.93,0,0,0,7.16,18a9.67,9.67,0,0,0-3.53,4c0-.36,0-.71,0-1.06a10,10,0,0,1,3.15-7.88c4.77-4.26,11.88-1.92,20.74,1.72,3.74,1.54,7.28,3,10.2,3.23.35,0,.72,0,1.11,0,3.28,0,7.74-1.11,9-4.43a5.74,5.74,0,0,0-.56-4.89,18.76,18.76,0,0,1,1.54,1.33C59.38,20.25,44,54.07,38.07,54.07Z"/></g></g></svg>