<svg xmlns="http://www.w3.org/2000/svg" xmlns:xlink="http://www.w3.org/1999/xlink" viewBox="0 0 79.51 82.49"><defs><style>.cls-1{fill:url(#radial-gradient);}</style><radialGradient id="radial-gradient" cx="-15.45" cy="64.42" r="845.9" gradientUnits="userSpaceOnUse"><stop offset="0" stop-color="#9344ff"/><stop offset="0.52" stop-color="#0078ff"/><stop offset="1" stop-color="#00c8ff"/></radialGradient></defs><title>icon_1</title><g id="Layer_2" data-name="Layer 2"><g id="_1" data-name="1"><path class="cls-1" d="M20.85,36.18H15a2,2,0,0,0-2,2V44a2,2,0,0,0,2,2h5.84a2,2,0,0,0,2-2V38.18A2,2,0,0,0,20.85,36.18Zm-2,5.84H17V40.18h1.84Z"/><path class="cls-1" d="M34.91,36.18H29.08a2,2,0,0,0-2,2V44a2,2,0,0,0,2,2h5.83a2,2,0,0,0,2-2V38.18A2,2,0,0,0,34.91,36.18Zm-2,5.84H31.08V40.18h1.83Z"/><path class="cls-1" d="M49,36.18H43.14a2,2,0,0,0-2,2V44a2,2,0,0,0,2,2H49a2,2,0,0,0,2-2V38.18A2,2,0,0,0,49,36.18ZM47,42H45.14V40.18H47Z"/><path class="cls-1" d="M63,36.18H57.2a2,2,0,0,0-2,2V44a2,2,0,0,0,2,2H63a2,2,0,0,0,2-2V38.18A2,2,0,0,0,63,36.18ZM61,42H59.2V40.18H61Z"/><path class="cls-1" d="M20.85,49.31H15a2,2,0,0,0-2,2v5.83a2,2,0,0,0,2,2h5.84a2,2,0,0,0,2-2V51.31A2,2,0,0,0,20.85,49.31Zm-2,5.83H17V53.31h1.84Z"/><path class="cls-1" d="M34.91,49.31H29.08a2,2,0,0,0-2,2v5.83a2,2,0,0,0,2,2h5.83a2,2,0,0,0,2-2V51.31A2,2,0,0,0,34.91,49.31Zm-2,5.83H31.08V53.31h1.83Z"/><path class="cls-1" d="M49,49.31H43.14a2,2,0,0,0-2,2v5.83a2,2,0,0,0,2,2H49a2,2,0,0,0,2-2V51.31A2,2,0,0,0,49,49.31Zm-2,5.83H45.14V53.31H47Z"/><path class="cls-1" d="M63,49.31H57.2a2,2,0,0,0-2,2v5.83a2,2,0,0,0,2,2H63a2,2,0,0,0,2-2V51.31A2,2,0,0,0,63,49.31Zm-2,5.83H59.2V53.31H61Z"/><path class="cls-1" d="M20.85,62.43H15a2,2,0,0,0-2,2v5.84a2,2,0,0,0,2,2h5.84a2,2,0,0,0,2-2V64.43A2,2,0,0,0,20.85,62.43Zm-2,5.84H17V66.43h1.84Z"/><path class="cls-1" d="M34.91,62.43H29.08a2,2,0,0,0-2,2v5.84a2,2,0,0,0,2,2h5.83a2,2,0,0,0,2-2V64.43A2,2,0,0,0,34.91,62.43Zm-2,5.84H31.08V66.43h1.83Z"/><path class="cls-1" d="M49,62.43H43.14a2,2,0,0,0-2,2v5.84a2,2,0,0,0,2,2H49a2,2,0,0,0,2-2V64.43A2,2,0,0,0,49,62.43Zm-2,5.84H45.14V66.43H47Z"/><path class="cls-1" d="M63,62.43H57.2a2,2,0,0,0-2,2v5.84a2,2,0,0,0,2,2H63a2,2,0,0,0,2-2V64.43A2,2,0,0,0,63,62.43Zm-2,5.84H59.2V66.43H61Z"/><path class="cls-1" d="M66.05,8.42H64.68V2a2,2,0,0,0-4,0V8.42H17V2a2,2,0,0,0-4,0V8.44A13.47,13.47,0,0,0,0,21.88V68.49a14,14,0,0,0,14,14H65.51a14,14,0,0,0,14-14V21.88A13.48,13.48,0,0,0,66.05,8.42Zm-5.37,4v6.41a2,2,0,0,0,4,0V12.42h.83a10,10,0,0,1,10,10v2.1a2.16,2.16,0,0,1-2.16,2.16H6.17A2.17,2.17,0,0,1,4,24.52v-2.1a10,10,0,0,1,9-10v6.36a2,2,0,0,0,4,0V12.42Zm4.83,66.07H14a10,10,0,0,1-10-10V30.28a6,6,0,0,0,2.17.4H73.35a6,6,0,0,0,2.16-.4V68.49A10,10,0,0,1,65.51,78.49Z"/></g></g></svg>