<svg xmlns="http://www.w3.org/2000/svg" xmlns:xlink="http://www.w3.org/1999/xlink" viewBox="0 0 65.22 74.28"><defs><style>.cls-1{fill:url(#radial-gradient);}</style><radialGradient id="radial-gradient" cx="-389.41" cy="60.31" r="845.9" gradientUnits="userSpaceOnUse"><stop offset="0" stop-color="#9344ff"/><stop offset="0.52" stop-color="#0078ff"/><stop offset="1" stop-color="#00c8ff"/></radialGradient></defs><title>icon_2</title><g id="Layer_2" data-name="Layer 2"><g id="_1" data-name="1"><path class="cls-1" d="M33.47,74.28a2.07,2.07,0,0,1-1.19-.37C5.29,55.39-5.14,24.8,2.37,8.93c3.65-7.71,11-10.62,20-8l.1,0C33.58,4.86,35.56,4.17,39.9,2.65A52.51,52.51,0,0,1,45.52.94h0c7.84-1.88,14.17,1,17.38,7.8,7.24,15.43-2.55,46-28.18,65.12A2.07,2.07,0,0,1,33.47,74.28ZM16.14,4.19c-4.52,0-7.92,2.21-10,6.53-5.78,12.21.7,39.94,27.24,58.86C57.69,50.71,64.79,22.65,59.1,10.52c-2.36-5-6.72-6.91-12.6-5.5h0a52.62,52.62,0,0,0-5.22,1.59C36,8.48,33.08,9.13,21.17,5A18.21,18.21,0,0,0,16.14,4.19ZM46,3h0Z"/><path class="cls-1" d="M33.57,19.39a31,31,0,0,1-13.21-3,2.1,2.1,0,1,1,1.78-3.8c11.57,5.39,20.89.86,22,.26a2,2,0,0,1,.59-.33,2.14,2.14,0,0,1,2.45.79,2.09,2.09,0,0,1-.13,2.55,4,4,0,0,1-.92.62h0A27.27,27.27,0,0,1,33.57,19.39Z"/></g></g></svg>