<svg xmlns="http://www.w3.org/2000/svg" xmlns:xlink="http://www.w3.org/1999/xlink" viewBox="0 0 47.91 71.9"><defs><style>.cls-1{fill:url(#radial-gradient);}</style><radialGradient id="radial-gradient" cx="-774.58" cy="59.12" r="845.9" gradientUnits="userSpaceOnUse"><stop offset="0" stop-color="#9344ff"/><stop offset="0.52" stop-color="#0078ff"/><stop offset="1" stop-color="#00c8ff"/></radialGradient></defs><title>icon_3</title><g id="Layer_2" data-name="Layer 2"><g id="_1" data-name="1"><path class="cls-1" d="M44.32,22.65a48.27,48.27,0,0,0-7.85-12.27c-11.22-13.79-12.94-13.89-25,0A48.27,48.27,0,0,0,3.59,22.65,42.69,42.69,0,0,0,0,39.84,23.65,23.65,0,0,0,21.84,63.39v6.4A2.12,2.12,0,0,0,24,71.9h0a2.11,2.11,0,0,0,2.11-2.11v-6.4A23.66,23.66,0,0,0,47.91,39.84,42.86,42.86,0,0,0,44.32,22.65ZM14.53,13.26a50.64,50.64,0,0,1,7.31-6.91V24.8L10.6,18.5A45.89,45.89,0,0,1,14.53,13.26ZM7.42,24.42c.33-.76.69-1.51,1.07-2.26l13.35,7.48V43.1L4.74,33.51A38.67,38.67,0,0,1,7.42,24.42ZM21.84,59.15A19.42,19.42,0,0,1,4.22,39.84c0-.59,0-1.17,0-1.76l17.58,9.86ZM40.45,24.34a38.78,38.78,0,0,1,2.72,9.17L26.06,43.1V29.64l13.35-7.48C39.78,22.88,40.13,23.61,40.45,24.34Zm-14.39.46V6.35a50.69,50.69,0,0,1,7.22,6.8,46.82,46.82,0,0,1,4,5.35Zm0,34.35V47.94l17.58-9.86c0,.59,0,1.17,0,1.76A19.42,19.42,0,0,1,26.06,59.15Z"/></g></g></svg>