<svg xmlns="http://www.w3.org/2000/svg" viewBox="0 0 11.6 20.96"><defs><style>.cls-1{fill:#fff;}</style></defs><title>angle_left</title><g id="Layer_2" data-name="Layer 2"><g id="Shapes"><path class="cls-1" d="M.59,9.94,10,.58A.75.75,0,1,1,11,1.64L2.18,10.47,11,19.3a.75.75,0,0,1,0,1.06.74.74,0,0,1-.53.22.71.71,0,0,1-.53-.22L.59,11a.79.79,0,0,1-.22-.54A.77.77,0,0,1,.59,9.94Z"/><path class="cls-1" d="M9.68,20.63.33,11.28a1.15,1.15,0,0,1,0-1.61L9.68.32a1.14,1.14,0,0,1,1.59,0,1.11,1.11,0,0,1,.33.79,1.14,1.14,0,0,1-.33.8L2.71,10.47,11.27,19A1.13,1.13,0,0,1,10.48,21,1.14,1.14,0,0,1,9.68,20.63ZM10.21.85.86,10.2a.39.39,0,0,0-.11.28.4.4,0,0,0,.11.27l9.35,9.35a.39.39,0,0,0,.53,0,.37.37,0,0,0,0-.53l-9.09-9.1,9.09-9.09a.37.37,0,0,0,0-.53.38.38,0,0,0-.26-.11A.39.39,0,0,0,10.21.85Z"/></g></g></svg>