<svg xmlns="http://www.w3.org/2000/svg" xmlns:xlink="http://www.w3.org/1999/xlink" viewBox="0 0 57.84 59.64"><defs><style>.cls-1{fill:url(#radial-gradient);}</style><radialGradient id="radial-gradient" cx="-567.43" cy="-64.77" r="1213.71" gradientUnits="userSpaceOnUse"><stop offset="0" stop-color="#9344ff"/><stop offset="0.52" stop-color="#0078ff"/><stop offset="1" stop-color="#00c8ff"/></radialGradient></defs><title>icon_17</title><g id="Layer_2" data-name="Layer 2"><g id="Text"><path class="cls-1" d="M51,26.6a3.43,3.43,0,0,0-.35-3.71L48.34,20a1.67,1.67,0,0,1-.25-1.61l1.26-3.5a3.48,3.48,0,0,0-4.45-4.45l-.42.15a.91.91,0,0,0-.54,1.15.89.89,0,0,0,1.15.54l.42-.15a1.68,1.68,0,0,1,2.15,2.15L46.4,17.74a3.47,3.47,0,0,0,.53,3.31L49.21,24a1.68,1.68,0,0,1-1.39,2.71l-3.72-.12a3.45,3.45,0,0,0-3,1.52L39,31.18a1.68,1.68,0,0,1-3-.47l-1-3.58a3.46,3.46,0,0,0-2.37-2.37l-3.57-1a1.68,1.68,0,0,1-.48-3l3.08-2.1a3.44,3.44,0,0,0,1.52-3L33,11.92a1.69,1.69,0,0,1,2.72-1.39l2.94,2.29a3.45,3.45,0,0,0,3.31.52.91.91,0,0,0,.54-1.15.9.9,0,0,0-1.15-.53,1.67,1.67,0,0,1-1.6-.26L36.86,9.12A3.48,3.48,0,0,0,31.25,12l.12,3.72a1.66,1.66,0,0,1-.74,1.44l-3.08,2.09a3.48,3.48,0,0,0,1,6.22h0L24,30.05h0l-6.34,6.34a.9.9,0,0,0,0,1.27.91.91,0,0,0,1.27,0L24.62,32,27.69,35,5.12,57.59a.89.89,0,0,1-1.26,0l-1.81-1.8a.9.9,0,0,1,0-1.27L16.41,40.16a.89.89,0,0,0,0-1.26.9.9,0,0,0-1.27,0L.79,53.25A2.68,2.68,0,0,0,0,55.15a2.65,2.65,0,0,0,.79,1.9l1.8,1.81a2.7,2.7,0,0,0,3.8,0l23.2-23.21L34.24,31l.06.2a3.45,3.45,0,0,0,2.79,2.46,3.52,3.52,0,0,0,.56,0,3.43,3.43,0,0,0,2.86-1.52l2.09-3.08a1.69,1.69,0,0,1,1.45-.74l3.72.12A3.43,3.43,0,0,0,51,26.6ZM29,33.75l-3.07-3.06L30.55,26l1.56.45a1.68,1.68,0,0,1,1.15,1.15L33.67,29Z"/><path class="cls-1" d="M52.47,35.32l-1.22-.67-.66-1.23a1.55,1.55,0,0,0-1.36-.82h0a1.55,1.55,0,0,0-1.36.8l-.67,1.23L46,35.28a1.55,1.55,0,0,0,0,2.73l1.22.67.66,1.24a1.54,1.54,0,0,0,1.36.82h0a1.55,1.55,0,0,0,1.36-.8l.67-1.23,1.23-.65a1.55,1.55,0,0,0,0-2.74Zm-2.15,1.84a1.55,1.55,0,0,0-.64.63l-.49.9-.48-.91a1.51,1.51,0,0,0-.62-.63l-.9-.49.9-.48a1.62,1.62,0,0,0,.64-.63l.49-.9.48.91a1.51,1.51,0,0,0,.62.63l.9.49Z"/><path class="cls-1" d="M15.92,12.17l2,1.09s0,0,0,.06l1.07,2a1.9,1.9,0,0,0,1.68,1h0a1.92,1.92,0,0,0,1.68-1l1.1-2,.05,0,2-1.07a1.92,1.92,0,0,0,0-3.38l-2-1.09a.12.12,0,0,1-.05,0l-1.07-2a1.93,1.93,0,0,0-1.68-1h0a1.9,1.9,0,0,0-1.68,1l-1.1,2-.05,0-2,1.07a1.92,1.92,0,0,0,0,3.38Zm.86-1.8,2-1.07a1.87,1.87,0,0,0,.78-.77l1.1-2a.11.11,0,0,1,.11-.07h0a.12.12,0,0,1,.11.07l1.07,2a1.93,1.93,0,0,0,.77.78l2,1.1a.13.13,0,0,1,0,.22l-2,1.07a2,2,0,0,0-.79.77l-1.09,2a.14.14,0,0,1-.11.06.11.11,0,0,1-.11-.07l-1.07-2a1.92,1.92,0,0,0-.78-.79l-2-1.09a.12.12,0,0,1-.07-.11A.12.12,0,0,1,16.78,10.37Z"/><path class="cls-1" d="M35.41,41.78h-.95v-1a.9.9,0,1,0-1.79,0v1h-1a.9.9,0,1,0,0,1.79h1v1a.9.9,0,0,0,1.79,0v-1h.95a.9.9,0,1,0,0-1.79Z"/><path class="cls-1" d="M56.94,17.25H56V16.3a.9.9,0,1,0-1.79,0v.95h-1a.9.9,0,0,0,0,1.79h1v1A.9.9,0,0,0,56,20V19h.95a.9.9,0,1,0,0-1.79Z"/><path class="cls-1" d="M38.61,3.64h1v1a.9.9,0,0,0,1.79,0v-1h1a.9.9,0,0,0,0-1.79h-1V.9a.9.9,0,1,0-1.79,0v1h-1a.9.9,0,1,0,0,1.79Z"/></g></g></svg>