<svg xmlns="http://www.w3.org/2000/svg" xmlns:xlink="http://www.w3.org/1999/xlink" viewBox="0 0 73.07 62.47"><defs><style>.cls-1{fill:url(#linear-gradient);}.cls-2{fill:url(#linear-gradient-2);}.cls-3{fill:url(#linear-gradient-3);}.cls-4{fill:url(#linear-gradient-4);}.cls-5{fill:url(#linear-gradient-5);}</style><linearGradient id="linear-gradient" x1="-87.95" y1="18.89" x2="1155.11" y2="18.89" gradientUnits="userSpaceOnUse"><stop offset="0" stop-color="#73ae92"/><stop offset="1" stop-color="#d8f8ce"/></linearGradient><linearGradient id="linear-gradient-2" x1="-87.95" y1="30.78" x2="1155.11" y2="30.78" xlink:href="#linear-gradient"/><linearGradient id="linear-gradient-3" x1="-87.95" y1="8.38" x2="1155.11" y2="8.38" xlink:href="#linear-gradient"/><linearGradient id="linear-gradient-4" x1="-87.95" y1="49.5" x2="1155.11" y2="49.5" xlink:href="#linear-gradient"/><linearGradient id="linear-gradient-5" x1="-87.95" y1="31.23" x2="1155.11" y2="31.23" xlink:href="#linear-gradient"/></defs><title>icon_11</title><g id="Layer_2" data-name="Layer 2"><g id="Background"><path class="cls-1" d="M16.5,18.07v-.39H14.14v.39c0,.68,0,1.35,0,2L16.55,20C16.52,19.34,16.5,18.71,16.5,18.07Z"/><path class="cls-2" d="M16.74,22.26l-2.34.27a39.32,39.32,0,0,0,6,16.77l2-1.27A37.09,37.09,0,0,1,16.74,22.26Z"/><path class="cls-3" d="M43.44,6.14a12.28,12.28,0,0,1-6.9,2.11,12.29,12.29,0,0,1-6.91-2.11l-1.32,2a14.67,14.67,0,0,0,8.23,2.51A14.64,14.64,0,0,0,44.76,8.1Z"/><path class="cls-4" d="M10.61,40.07H8.25A8.26,8.26,0,0,1,0,48.32v2.36a8.26,8.26,0,0,1,8.25,8.25h2.36a8.26,8.26,0,0,1,8.25-8.25V48.32A8.26,8.26,0,0,1,10.61,40.07Zm-1.18,14A10.6,10.6,0,0,0,4.84,49.5a10.6,10.6,0,0,0,4.59-4.59A10.6,10.6,0,0,0,14,49.5,10.6,10.6,0,0,0,9.43,54.09Z"/><path class="cls-5" d="M64.82,9.43H62.57A15.07,15.07,0,0,0,48.68,0a14.4,14.4,0,0,0-8,2.29,7.73,7.73,0,0,1-8.39,0,14.35,14.35,0,0,0-8-2.29,15,15,0,0,0-15,15v3.1a43.86,43.86,0,0,0,7,23.78,41.5,41.5,0,0,1,5.37,12.41l1.28,5.14A4.05,4.05,0,0,0,31,59l2.64-17.63a2.93,2.93,0,0,1,5.79,0L42.07,59A4.05,4.05,0,0,0,50,59.4l1.28-5.14a41.76,41.76,0,0,1,5.37-12.41,44.19,44.19,0,0,0,5.8-13.69s0,.08,0,.13h2.35A8.26,8.26,0,0,1,73.07,20V17.68A8.26,8.26,0,0,1,64.82,9.43ZM54.68,40.58A43.67,43.67,0,0,0,49,53.69l-1.29,5.14a1.69,1.69,0,0,1-3.31-.16L41.76,41a5.28,5.28,0,0,0-10.45,0L28.67,58.67a1.7,1.7,0,0,1-3.32.16l-1.28-5.14a44,44,0,0,0-5.68-13.11,41.58,41.58,0,0,1-6.6-22.51V15A12.61,12.61,0,0,1,24.39,2.36a12,12,0,0,1,6.66,1.9,9.87,9.87,0,0,0,5.49,1.63A9.84,9.84,0,0,0,42,4.26a12,12,0,0,1,6.66-1.9A12.66,12.66,0,0,1,61.15,13l0,.77a8.24,8.24,0,0,1-7,3.87V20a8.24,8.24,0,0,1,6.71,3.47A42,42,0,0,1,54.68,40.58Zm9-17.13a10.6,10.6,0,0,0-4.59-4.59,10.65,10.65,0,0,0,4.59-4.59,10.76,10.76,0,0,0,4.59,4.59A10.71,10.71,0,0,0,63.64,23.45Z"/></g></g></svg>