<svg xmlns="http://www.w3.org/2000/svg" xmlns:xlink="http://www.w3.org/1999/xlink" viewBox="0 0 80.61 87.34"><defs><style>.cls-1{fill:url(#radial-gradient);}.cls-2{fill:url(#radial-gradient-2);}</style><radialGradient id="radial-gradient" cx="-645.22" cy="46.82" r="690.93" gradientUnits="userSpaceOnUse"><stop offset="0" stop-color="#9344ff"/><stop offset="0.52" stop-color="#0078ff"/><stop offset="1" stop-color="#00c8ff"/></radialGradient><radialGradient id="radial-gradient-2" cx="-612.18" cy="85.22" r="690.93" xlink:href="#radial-gradient"/></defs><title>icon_16</title><g id="Layer_2" data-name="Layer 2"><g id="Background"><path class="cls-1" d="M46.14,33.27a6.06,6.06,0,0,0,1.43-4.06,6.22,6.22,0,0,0-1.33-3.52,5.49,5.49,0,0,0-1.3-6.3c-1.63-1.48-4.39-2.15-8.22-2a32.44,32.44,0,0,0-5,.64h0l-1.6.33c0-.65.07-2.28,1.28-5.95,1.43-4.36,1.35-7.69-.27-9.92A6.49,6.49,0,0,0,25.87,0a2.56,2.56,0,0,0-2,.9c-1.14,1.32-1,3.76-.86,4.88-1.35,3.62-5.14,12.51-8.34,15a1.29,1.29,0,0,0-.17.15,10.84,10.84,0,0,0-2,3,4.22,4.22,0,0,0-2-.52H4.26A4.26,4.26,0,0,0,0,27.65V44.28a4.26,4.26,0,0,0,4.26,4.26H10.5A4.28,4.28,0,0,0,13,47.76l2.4.29A102.59,102.59,0,0,0,29,48.79c1.22.1,2.37.15,3.43.15a23.44,23.44,0,0,0,4.76-.43c3.13-.67,5.27-2,6.35-3.95a6.29,6.29,0,0,0,.7-3.92,6.49,6.49,0,0,0,2.32-5.31A6.72,6.72,0,0,0,46.14,33.27ZM4.26,45.78a1.5,1.5,0,0,1-1.5-1.5V27.64a1.5,1.5,0,0,1,1.5-1.49H10.5A1.49,1.49,0,0,1,12,27.64V44.27a1.5,1.5,0,0,1-1.49,1.5H4.26ZM43.52,32.07a1.37,1.37,0,0,0-.18,1.67,4.27,4.27,0,0,1,.47,1.71A4.09,4.09,0,0,1,41.89,39a1.39,1.39,0,0,0-.47,1.58,3.6,3.6,0,0,1-.28,2.64c-.69,1.23-2.21,2.11-4.52,2.6a26.8,26.8,0,0,1-7.46.22H29a100.26,100.26,0,0,1-13.3-.72h0l-1-.13a4.36,4.36,0,0,0,.09-.9V27.64a4.12,4.12,0,0,0-.2-1.27,8.67,8.67,0,0,1,1.91-3.51c4.59-3.64,9.08-15.93,9.28-16.46a1.34,1.34,0,0,0,.06-.69,6.55,6.55,0,0,1,.13-3,3.69,3.69,0,0,1,2.89,1.38c1,1.45,1,4-.12,7.44-1.72,5.21-1.87,8-.51,9.16a2.22,2.22,0,0,0,2.24.4c.62-.14,1.21-.26,1.78-.36l.13,0c3.14-.68,8.77-1.1,10.72.68a2.93,2.93,0,0,1,.35,3.73,1.38,1.38,0,0,0,.25,1.79,3.86,3.86,0,0,1,1.13,2.38A3.8,3.8,0,0,1,43.52,32.07Z"/><path class="cls-2" d="M79.18,71.67a6.06,6.06,0,0,0,1.43-4.06,6.28,6.28,0,0,0-1.33-3.53A5.48,5.48,0,0,0,78,57.79c-1.63-1.48-4.39-2.15-8.22-2a32.44,32.44,0,0,0-5,.64h0c-.51.09-1,.21-1.6.33,0-.66.07-2.28,1.28-5.95,1.43-4.36,1.35-7.69-.27-9.92a6.49,6.49,0,0,0-5.21-2.53,2.56,2.56,0,0,0-2,.9c-1.14,1.32-1,3.75-.86,4.88-1.35,3.62-5.14,12.51-8.34,15a.61.61,0,0,0-.17.15,11,11,0,0,0-2,3,4.33,4.33,0,0,0-2-.51H37.3A4.26,4.26,0,0,0,33,66.05V82.68a4.26,4.26,0,0,0,4.26,4.26h6.24A4.28,4.28,0,0,0,46,86.16l2.4.29A102.59,102.59,0,0,0,62,87.19c1.22.1,2.37.15,3.43.15a23.44,23.44,0,0,0,4.76-.43c3.13-.67,5.27-2,6.36-4A6.35,6.35,0,0,0,77.28,79a6.5,6.5,0,0,0,2.32-5.31A6.72,6.72,0,0,0,79.18,71.67ZM37.3,84.17a1.5,1.5,0,0,1-1.5-1.49V66a1.5,1.5,0,0,1,1.5-1.49h6.24A1.49,1.49,0,0,1,45,66V82.67a1.49,1.49,0,0,1-1.49,1.49H37.3Zm39.26-13.7a1.37,1.37,0,0,0-.18,1.67,4.27,4.27,0,0,1,.47,1.71,4.09,4.09,0,0,1-1.92,3.54A1.38,1.38,0,0,0,74.46,79a3.63,3.63,0,0,1-.28,2.65c-.69,1.22-2.21,2.1-4.52,2.59a26.74,26.74,0,0,1-7.46.23h-.15a101.28,101.28,0,0,1-13.3-.73h0l-1-.12a4.43,4.43,0,0,0,.09-.9V66a4.12,4.12,0,0,0-.2-1.27,8.6,8.6,0,0,1,1.91-3.51c4.59-3.64,9.08-15.93,9.28-16.47a1.3,1.3,0,0,0,.06-.68,6.55,6.55,0,0,1,.13-3,3.66,3.66,0,0,1,2.89,1.38c1,1.45,1,4-.12,7.44-1.72,5.21-1.87,7.95-.51,9.16a2.22,2.22,0,0,0,2.24.4c.62-.14,1.21-.27,1.78-.36l.13,0c3.14-.68,8.77-1.1,10.72.68a2.93,2.93,0,0,1,.35,3.73,1.37,1.37,0,0,0,.25,1.78,3.91,3.91,0,0,1,1.13,2.39A3.8,3.8,0,0,1,76.56,70.47Z"/></g></g></svg>