<svg xmlns="http://www.w3.org/2000/svg" xmlns:xlink="http://www.w3.org/1999/xlink" viewBox="0 0 42.62 72.74"><defs><style>.cls-1{fill:url(#radial-gradient);}.cls-2{fill:url(#radial-gradient-2);}.cls-3{fill:url(#radial-gradient-3);}</style><radialGradient id="radial-gradient" cx="-543.76" cy="-199.79" r="876.24" gradientUnits="userSpaceOnUse"><stop offset="0" stop-color="#9344ff"/><stop offset="0.52" stop-color="#0078ff"/><stop offset="1" stop-color="#00c8ff"/></radialGradient><radialGradient id="radial-gradient-2" cx="-544.03" cy="-200.5" r="876.24" xlink:href="#radial-gradient"/><radialGradient id="radial-gradient-3" cx="-544.4" cy="-201.41" r="876.24" xlink:href="#radial-gradient"/></defs><title>icon_10</title><g id="Layer_2" data-name="Layer 2"><g id="Text"><path class="cls-1" d="M42.62,33.42V24.15a5.63,5.63,0,0,0-9.22-4.33,5.63,5.63,0,0,0-4.82-2.73,5.43,5.43,0,0,0-1.94.35L28.1,6.36A5.63,5.63,0,0,0,16.93,4.89L15,19.51,11.07,4.79A5.56,5.56,0,0,0,8.44,1.38,5.61,5.61,0,0,0,.76,3.43,5.65,5.65,0,0,0,.19,7.7L.66,9.44A1.42,1.42,0,1,0,3.4,8.7L2.94,7a2.81,2.81,0,0,1,.28-2.12,2.76,2.76,0,0,1,3.8-1,2.74,2.74,0,0,1,1.3,1.68l5.79,21.62a1.38,1.38,0,0,0,.16.37H9.85a5.51,5.51,0,0,0-1.36.17l-2.15-8a1.41,1.41,0,0,0-1.74-1,1.42,1.42,0,0,0-1,1.74l2.33,8.69a5.61,5.61,0,0,0-1.71,4v10.1a19.2,19.2,0,0,0,7.21,15v13.1a1.43,1.43,0,0,0,2.85,0V60.1a1.31,1.31,0,0,0,.61.15,1.42,1.42,0,0,0,.68-2.67A16.36,16.36,0,0,1,7.06,43.24V33.14a2.8,2.8,0,0,1,1.22-2.3l.05,0a2.82,2.82,0,0,1,1.52-.45H20.16a2.79,2.79,0,0,1,0,5.58h-6.1a1.42,1.42,0,1,0,0,2.84H15.8A12.6,12.6,0,0,1,26.58,44.9a1.42,1.42,0,0,0,1.22.69,1.39,1.39,0,0,0,.73-.2A1.42,1.42,0,0,0,29,43.45a4.11,4.11,0,0,0-.24-.39,5.64,5.64,0,0,0,5.36-4.79,5.64,5.64,0,0,0,2.85.78,5.49,5.49,0,0,0,2.79-.75v4.94A16.45,16.45,0,0,1,29,58.62a1.42,1.42,0,0,0-.85,1.82,1.43,1.43,0,0,0,1.34.93,1.36,1.36,0,0,0,.48-.09,19,19,0,0,0,5.6-3.2V71.32a1.42,1.42,0,0,0,2.84,0V55.19a19.15,19.15,0,0,0,4.21-11.95V33.42ZM20.16,27.51H16.7a1.45,1.45,0,0,0,.2-.55L19.75,5.27A2.79,2.79,0,0,1,25.28,6L23.35,20.64a5.5,5.5,0,0,0-.4,2.08v5.53A5.59,5.59,0,0,0,20.16,27.51Zm11.2,9.93a2.79,2.79,0,0,1-5.57,0V22.72A2.79,2.79,0,0,1,26,21.63l0,0a2.78,2.78,0,0,1,5.33,1.12ZM37,36.21a2.8,2.8,0,0,1-2.78-2.79V24.15a2.79,2.79,0,0,1,5.57,0v9.27A2.79,2.79,0,0,1,37,36.21Z"/><path class="cls-2" d="M30,49.5a1.41,1.41,0,0,0,1.13-2.27h0a1.42,1.42,0,1,0-2.27,1.7A1.43,1.43,0,0,0,30,49.5Z"/><path class="cls-3" d="M4.25,12.64h0a1.42,1.42,0,1,0-1.39,1.72l.3,0A1.43,1.43,0,0,0,4.25,12.64Z"/></g></g></svg>