<svg xmlns="http://www.w3.org/2000/svg" xmlns:xlink="http://www.w3.org/1999/xlink" viewBox="0 0 70.79 51.91"><defs><style>.cls-1{fill:url(#linear-gradient);}.cls-2{fill:url(#linear-gradient-2);}.cls-3{fill:url(#linear-gradient-3);}.cls-4{fill:url(#linear-gradient-4);}.cls-5{fill:url(#linear-gradient-5);}</style><linearGradient id="linear-gradient" x1="-306.77" y1="7.49" x2="743.18" y2="7.49" gradientUnits="userSpaceOnUse"><stop offset="0" stop-color="#b7e0bb"/><stop offset="1" stop-color="#73ae92"/></linearGradient><linearGradient id="linear-gradient-2" x1="-306.77" y1="25.96" x2="743.18" y2="25.96" xlink:href="#linear-gradient"/><linearGradient id="linear-gradient-3" x1="-306.77" y1="11.8" x2="743.18" y2="11.8" xlink:href="#linear-gradient"/><linearGradient id="linear-gradient-4" x1="-306.77" y1="3.54" x2="743.18" y2="3.54" xlink:href="#linear-gradient"/><linearGradient id="linear-gradient-5" x1="-306.77" y1="20.06" x2="743.18" y2="20.06" xlink:href="#linear-gradient"/></defs><title>icon_2</title><g id="Layer_2" data-name="Layer 2"><g id="Text"><path class="cls-1" d="M42,7.44,40.6,5.53a9.54,9.54,0,0,1-10.41,0L28.8,7.44a11.26,11.26,0,0,0,6.6,2A11.23,11.23,0,0,0,42,7.44Z"/><path class="cls-2" d="M69.61,30.68H62.49A5.89,5.89,0,0,1,58,28.55l-.64-.78a8.24,8.24,0,0,0-6.36-3h-.21a24.65,24.65,0,0,1,2.41-4.43,12.92,12.92,0,0,0,2.2-9C55.08,9.2,51,7.59,51,7.59s-.51-5-2.26-6A13,13,0,0,0,37,1.2a3.73,3.73,0,0,1-3.26,0A13,13,0,0,0,17.65,20.36a24.23,24.23,0,0,1,2.41,4.42h-.21a8.25,8.25,0,0,0-6.37,3l-.63.77a5.92,5.92,0,0,1-4.54,2.14H1.18A1.18,1.18,0,0,0,0,31.86V50.73a1.18,1.18,0,0,0,1.18,1.18H69.61a1.17,1.17,0,0,0,1.18-1.18V31.86A1.17,1.17,0,0,0,69.61,30.68ZM53,11.61a10.68,10.68,0,0,1-1.8,7.4c-.38.54-.73,1.11-1.06,1.68-3.24-1-4.13-3-4.13-4.17,0-.67.25-.95.83-1.53a4.23,4.23,0,0,0,1.53-3.19,4.54,4.54,0,0,0-1.27-3A3.81,3.81,0,0,1,46,5.9a4.93,4.93,0,0,1,.91-2.56c1.75.81,2.2,5.67,2.2,5.67S52.79,9.9,53,11.61Zm-35.23,0a10.61,10.61,0,0,1,15-8.26,6.2,6.2,0,0,0,5.26,0,10.31,10.31,0,0,1,6.6-.76,6.89,6.89,0,0,0-1,3.31,6.16,6.16,0,0,0,1.62,4.36c.51.62.74.92.74,1.54s-.26.94-.84,1.52a4.21,4.21,0,0,0-1.52,3.2c0,2.3,1.68,5,5.37,6.28a27,27,0,0,0-2.19,6.91l-1.65,9.43a1.18,1.18,0,0,1-1.16,1H42.19a1.17,1.17,0,0,1-1.17-1L39.72,29A3.54,3.54,0,0,0,36.21,26H34.59A3.54,3.54,0,0,0,31.08,29l-1.3,10.05a1.19,1.19,0,0,1-1.17,1H26.76a1.18,1.18,0,0,1-1.16-1L24,29.71A26.91,26.91,0,0,0,19.59,19,10.63,10.63,0,0,1,17.78,11.61ZM68.43,49.55H2.36V33h6a8.25,8.25,0,0,0,6.36-3l.63-.77a5.91,5.91,0,0,1,4.55-2.13h1.06a25.19,25.19,0,0,1,.72,3l1.64,9.44a3.54,3.54,0,0,0,3.49,2.93H28.6a3.56,3.56,0,0,0,3.51-3.09l1.3-10a1.18,1.18,0,0,1,1.18-1h1.62a1.18,1.18,0,0,1,1.17,1l1.3,10.05a3.55,3.55,0,0,0,3.51,3.09H44a3.55,3.55,0,0,0,3.49-2.93l1.64-9.44a24.72,24.72,0,0,1,.72-3h1.06a5.88,5.88,0,0,1,4.54,2.12l.65.79a8.27,8.27,0,0,0,6.36,3h5.94Z"/><path class="cls-3" d="M57.82,10.62h4.71V13H57.82Z"/><path class="cls-4" d="M54.93,3.66,59.65,1.3,60.7,3.41,56,5.77Z"/><path class="cls-5" d="M56.11,19.93l1-2.11,4.72,2.36-1.05,2.11Z"/></g></g></svg>