<svg xmlns="http://www.w3.org/2000/svg" xmlns:xlink="http://www.w3.org/1999/xlink" viewBox="0 0 68.49 52.87"><defs><style>.cls-1{fill:url(#radial-gradient);}</style><radialGradient id="radial-gradient" cx="-100.59" cy="50.37" r="177.97" gradientUnits="userSpaceOnUse"><stop offset="0" stop-color="#9344ff"/><stop offset="0.52" stop-color="#0078ff"/><stop offset="1" stop-color="#00c8ff"/></radialGradient></defs><title>icon_6</title><g id="Layer_2" data-name="Layer 2"><g id="Text"><path class="cls-1" d="M34.25,12.58a17.6,17.6,0,1,0,17.59,17.6A17.63,17.63,0,0,0,34.25,12.58Zm0,32.39A14.8,14.8,0,1,1,49,30.18,14.82,14.82,0,0,1,34.25,45Z"/><path class="cls-1" d="M34.25,19.2a11,11,0,1,0,11,11A11,11,0,0,0,34.25,19.2Zm0,19.3a8.33,8.33,0,1,1,8.32-8.32A8.33,8.33,0,0,1,34.25,38.5Z"/><path class="cls-1" d="M64.07,7.48H46l-1.85-5A3.77,3.77,0,0,0,40.66,0H27.83A3.77,3.77,0,0,0,24.3,2.47l-1.84,5H16.33v-2a2.88,2.88,0,0,0-2.88-2.88H9.21A2.88,2.88,0,0,0,6.34,5.52v2H4.42A4.43,4.43,0,0,0,0,11.91V48.45a4.42,4.42,0,0,0,4.42,4.42H64.07a4.42,4.42,0,0,0,4.42-4.42V11.91A4.43,4.43,0,0,0,64.07,7.48Zm-37-4A.8.8,0,0,1,27.83,3H40.66a.82.82,0,0,1,.77.53l1.47,4H25.6Zm-17.93,2a.08.08,0,0,1,.07-.08h4.24a.09.09,0,0,1,.08.08v2H9.14ZM3,18.64H7.32V41.71H3ZM65.54,48.45a1.47,1.47,0,0,1-1.47,1.47H4.42A1.47,1.47,0,0,1,3,48.45V44.66H8.79a1.47,1.47,0,0,0,1.47-1.47v-26a1.47,1.47,0,0,0-1.47-1.48H3V11.91a1.47,1.47,0,0,1,1.47-1.48H64.07a1.47,1.47,0,0,1,1.47,1.48v3.78H59.7a1.47,1.47,0,0,0-1.47,1.48v26a1.47,1.47,0,0,0,1.47,1.47h5.84v3.79Zm0-6.74H61.18V18.64h4.36Z"/><path class="cls-1" d="M34.25,24.75a5.44,5.44,0,0,0-5.43,5.43,1.33,1.33,0,0,0,2.66,0,2.77,2.77,0,0,1,2.77-2.77,1.33,1.33,0,0,0,0-2.66Z"/></g></g></svg>