<svg xmlns="http://www.w3.org/2000/svg" xmlns:xlink="http://www.w3.org/1999/xlink" viewBox="0 0 89.93 56.95"><defs><style>.cls-1{fill:url(#radial-gradient);}.cls-2{fill:#fff;}</style><radialGradient id="radial-gradient" cx="-55.84" cy="45.44" r="886.01" gradientUnits="userSpaceOnUse"><stop offset="0" stop-color="#9344ff"/><stop offset="0.52" stop-color="#0078ff"/><stop offset="1" stop-color="#00c8ff"/></radialGradient></defs><title>icon_14</title><g id="Layer_2" data-name="Layer 2"><g id="Background"><path class="cls-1" d="M89.75,5.8A7.08,7.08,0,0,0,82.3,0C71.76.09,61.22,0,50.68,0Q28.9,0,7.12.07A7.3,7.3,0,0,0,3.76.84C.69,2.5-.2,5.34,0,8.65c.29,4,.53,8.06.86,12.08.15,1.8.47,3.58.71,5.37a13,13,0,0,1,.27,2c-.07,3.21-.23,6.43-.27,9.64a1.85,1.85,0,0,0,.74,1.35,19.18,19.18,0,0,0,8,2.85c3.55.4,7.11.52,10.58-.77,3.3,3.06,7.61,3.34,12.19,3.34s8.77-.28,12.06-3.21a.65.65,0,0,0,.2-.05c1.6.46,3.17.94,4.75,1.34a28.45,28.45,0,0,0,16.67-.71,8.16,8.16,0,0,1,4.43-.35,35.89,35.89,0,0,0,7.33.33,20.22,20.22,0,0,0,8.89-2.74,1.59,1.59,0,0,0,1.06-1.47c0-2.23,0-4.45-.06-6.67a28.35,28.35,0,0,1,.15-6.5,83.78,83.78,0,0,0,.78-9.26q.25-3.22.53-6.45V6.17A1.81,1.81,0,0,1,89.75,5.8ZM19.68,39.7a41.81,41.81,0,0,1-4.14.63A22.29,22.29,0,0,1,4.3,38.17a1.3,1.3,0,0,1-.88-1.4c.07-1,0-2.05,0-3.07.13-5,.52-9.93,2.7-14.53A16.14,16.14,0,0,1,7.45,17c2.17-3.19,6.68-3.4,9,.49a24,24,0,0,1,2.79,8,72.7,72.7,0,0,1,1.14,13.26C20.43,39.3,20.21,39.61,19.68,39.7Zm13.46,2.85c-3.94,0-7.65-.08-10.55-2.54l-.11-6.26c.05-.83.1-1.66.18-2.47a39.85,39.85,0,0,1,2.66-12,21.31,21.31,0,0,1,3-5c3.15-3.84,7.13-2.88,9.88.14,2.25,2.48,3.31,5.56,4.09,8.73.51,2.1.9,4.23,1.2,6.37.2,1.43.32,2.86.43,4.3l.1,5.93C41.07,42.46,37.23,42.55,33.14,42.55Zm34.09-2.79c-1.76.51-3.5,1.16-5.29,1.49A29.44,29.44,0,0,1,47.58,40C46,39.51,46,39.5,46,37.78V35.85a58.06,58.06,0,0,1,2.28-14.7,18.83,18.83,0,0,1,3.72-7c3.24-3.64,7.09-2.8,9.79.15,2.3,2.51,3.4,5.64,4.2,8.87a67.59,67.59,0,0,1,1.8,15.65C67.81,39.31,67.69,39.63,67.23,39.76Zm19.44-3a1,1,0,0,1-.61,1,23,23,0,0,1-15.19,1.84,1.29,1.29,0,0,1-1.21-1.53,64.55,64.55,0,0,1,1.83-15.73A15.7,15.7,0,0,1,74,16.83c2.49-3.32,6.33-3.29,8.8.07a17.72,17.72,0,0,1,3,7.76c.49,2.94.59,5.91.94,8.87C86.74,34.61,86.64,35.72,86.67,36.8Zm.71-19.4A38.3,38.3,0,0,1,87,21.46c-.18-.5-.35-1-.54-1.51a14.91,14.91,0,0,0-3.35-5.5A6.82,6.82,0,0,0,73,15c-2.14,2.58-3.06,5.68-3.81,8.85-.18.75-.32,1.51-.48,2.24-.73-2.47-1.38-4.91-2.18-7.31a16.06,16.06,0,0,0-3.11-5.46c-4.22-4.83-10-4.54-13.72.67-2.45,3.41-3.58,7.32-4.4,11.36-.08.4-.15.8-.23,1.2l-.12,0c-.24-1.11-.46-2.23-.73-3.33C43.33,19.49,42.08,16,39.5,13a8.94,8.94,0,0,0-5.9-3.13c-2.62-.28-4.64.93-6.38,2.72a19.14,19.14,0,0,0-4.42,8.08c-.53,1.75-.93,3.53-1.42,5.42-.36-1.5-.66-2.9-1.05-4.28a17.5,17.5,0,0,0-3.07-6.44,6.86,6.86,0,0,0-11,.05,18.09,18.09,0,0,0-3.09,6.15.72.72,0,0,1-.33.45c-.1-1.52-.21-3-.31-4.56C2.32,14.35,2.1,11.2,1.9,8A6,6,0,0,1,2.93,4a4.58,4.58,0,0,1,4-2.05c3.75,0,7.49,0,11.24,0H82.49c3.44,0,5.59,2,5.5,5.49S87.6,14.07,87.38,17.4Z"/><path class="cls-2" d="M85.73,35.32c-1.13-3.28-2.6-8.83-7-8.94-4.71-.13-7,5.94-8,9.57a47.68,47.68,0,0,0-2,8.5c-1.32-8.18-6.25-27.18-16.42-19.32-4.33,3.35-6.05,9.91-6.8,15-.12.77-.37,2-.54,3.3a48.79,48.79,0,0,0-2.27-10c-1.38-3.8-4.63-9.33-9.21-9.76s-8.23,4.79-9.39,8.65c-1,3.31-1.13,7.15-1.59,10.58a16.39,16.39,0,0,0,0,4.7,1.57,1.57,0,0,0-.79-.23h0c.41-5.91-.71-12.55-4.2-17.52-3.05-4.34-7.82-4.22-11.1.22-2.74,3.72-5,12.5-3.44,17.31a1.38,1.38,0,0,0-.28,1.82A8.22,8.22,0,0,0,9.38,53.1c2.83.26,8.6.69,11.06-1.28a3.26,3.26,0,0,0,.33-.31,9.27,9.27,0,0,1,1.06.7c4.33,3.4,9.84,3.4,15.23,2.79,4.41-.5,7.79-2.36,12.34-1.74,3.74.51,7.43,1.35,11.23,1.27,4.19-.08,7-1,8-3.77a1.32,1.32,0,0,0,1,1.14,27.89,27.89,0,0,0,9.19.79c2.1-.19,6-.17,7.6-1.82,1.33-1.38,1.22-4.85,1.23-6.45A27,27,0,0,0,85.73,35.32Z"/><path class="cls-1" d="M88.53,43.42l0-.74a43.05,43.05,0,0,0-1.1-7.4,17.46,17.46,0,0,0-4.33-8.42,6.82,6.82,0,0,0-10,.55C70.88,30,70,33.08,69.21,36.26c-.18.75-.32,1.5-.48,2.24C68,36,67.35,33.58,66.55,31.19a16,16,0,0,0-3.11-5.46c-4.22-4.83-10-4.55-13.72.67-2.45,3.4-3.58,7.32-4.4,11.35-.08.4-.15.8-.23,1.2l-.12,0c-.24-1.11-.46-2.23-.73-3.33-.91-3.69-2.16-7.23-4.74-10.15a9,9,0,0,0-5.9-3.13C31,22,29,23.25,27.22,25a19.26,19.26,0,0,0-4.42,8.08c-.53,1.75-.93,3.54-1.42,5.42-.36-1.49-.66-2.9-1.05-4.27a17.47,17.47,0,0,0-3.07-6.45,6.87,6.87,0,0,0-11,.05,17.9,17.9,0,0,0-3,5.84,29.46,29.46,0,0,0-1.45,7.36c-.12,3-.18,6.09-.22,9.13a1.87,1.87,0,0,0,.74,1.35,19.32,19.32,0,0,0,8,2.85c3.55.39,7.11.52,10.58-.77C24.25,56.67,28.56,57,33.14,57s8.77-.27,12.06-3.21a.65.65,0,0,0,.2,0c1.6.46,3.17.93,4.75,1.33a28.45,28.45,0,0,0,16.67-.7A8.07,8.07,0,0,1,71.25,54a35.19,35.19,0,0,0,7.33.32,20.22,20.22,0,0,0,8.89-2.74,1.58,1.58,0,0,0,1.06-1.47C88.5,47.87,88.61,45.64,88.53,43.42ZM19.68,52.1a39.05,39.05,0,0,1-4.14.63A22.29,22.29,0,0,1,4.3,50.57a1.28,1.28,0,0,1-.88-1.39c.07-1,0-2,0-3.07.13-5,.52-9.94,2.7-14.54A16,16,0,0,1,7.45,29.4c2.17-3.19,6.68-3.41,9,.49a23.9,23.9,0,0,1,2.79,8,72.77,72.77,0,0,1,1.14,13.26C20.43,51.71,20.21,52,19.68,52.1ZM33.14,55c-3.94,0-7.65-.07-10.55-2.53l-.11-6.26c.05-.84.1-1.66.18-2.47a40,40,0,0,1,2.66-12,21.51,21.51,0,0,1,3-5c3.15-3.83,7.13-2.88,9.88.15,2.25,2.48,3.31,5.55,4.09,8.72.51,2.1.9,4.24,1.2,6.38.2,1.42.32,2.86.43,4.3l.1,5.92C41.07,54.87,37.23,55,33.14,55Zm34.09-2.78c-1.76.51-3.5,1.15-5.29,1.48a29.32,29.32,0,0,1-14.36-1.23C46,51.92,46,51.9,46,50.19V48.26a58.06,58.06,0,0,1,2.28-14.7,18.68,18.68,0,0,1,3.72-7c3.24-3.65,7.09-2.8,9.79.15,2.3,2.51,3.4,5.64,4.2,8.87a67.53,67.53,0,0,1,1.8,15.65C67.81,51.72,67.69,52,67.23,52.17Zm19.45-3a1.12,1.12,0,0,1-.62,1,23,23,0,0,1-15.19,1.84,1.31,1.31,0,0,1-1.21-1.54,64.47,64.47,0,0,1,1.83-15.72A15.62,15.62,0,0,1,74,29.24c2.49-3.32,6.33-3.29,8.8.06a17.81,17.81,0,0,1,3,7.77c.34,2,.49,4.08.67,6.13.08.95.19,1.85.2,2.81s0,1.74,0,2.62A5.56,5.56,0,0,1,86.68,49.21Z"/></g></g></svg>