<svg xmlns="http://www.w3.org/2000/svg" xmlns:xlink="http://www.w3.org/1999/xlink" viewBox="0 0 47.61 57.49"><defs><style>.cls-1{fill:url(#linear-gradient);}.cls-2{fill:url(#linear-gradient-2);}.cls-3{fill:url(#linear-gradient-3);}.cls-4{fill:url(#linear-gradient-4);}.cls-5{fill:url(#linear-gradient-5);}.cls-6{fill:url(#linear-gradient-6);}.cls-7{fill:url(#linear-gradient-7);}.cls-8{fill:url(#linear-gradient-8);}.cls-9{fill:url(#linear-gradient-9);}.cls-10{fill:url(#linear-gradient-10);}.cls-11{fill:url(#linear-gradient-11);}.cls-12{fill:url(#linear-gradient-12);}.cls-13{fill:url(#linear-gradient-13);}.cls-14{fill:url(#linear-gradient-14);}</style><linearGradient id="linear-gradient" x1="-34.18" y1="18.19" x2="1015.76" y2="18.19" gradientUnits="userSpaceOnUse"><stop offset="0" stop-color="#b7e0bb"/><stop offset="1" stop-color="#73ae92"/></linearGradient><linearGradient id="linear-gradient-2" x1="-34.18" y1="23.58" x2="1015.76" y2="23.58" xlink:href="#linear-gradient"/><linearGradient id="linear-gradient-3" x1="-34.18" y1="5.95" x2="1015.76" y2="5.95" xlink:href="#linear-gradient"/><linearGradient id="linear-gradient-4" x1="-34.18" y1="23.58" x2="1015.76" y2="23.58" xlink:href="#linear-gradient"/><linearGradient id="linear-gradient-5" x1="-34.18" y1="30.32" x2="1015.76" y2="30.32" xlink:href="#linear-gradient"/><linearGradient id="linear-gradient-6" x1="-34.18" y1="35.7" x2="1015.76" y2="35.7" xlink:href="#linear-gradient"/><linearGradient id="linear-gradient-7" x1="-34.18" y1="35.7" x2="1015.76" y2="35.7" xlink:href="#linear-gradient"/><linearGradient id="linear-gradient-8" x1="-34.18" y1="42.44" x2="1015.76" y2="42.44" xlink:href="#linear-gradient"/><linearGradient id="linear-gradient-9" x1="-34.18" y1="47.83" x2="1015.76" y2="47.83" xlink:href="#linear-gradient"/><linearGradient id="linear-gradient-10" x1="-34.18" y1="47.83" x2="1015.76" y2="47.83" xlink:href="#linear-gradient"/><linearGradient id="linear-gradient-11" x1="-34.18" y1="28.74" x2="1015.76" y2="28.74" xlink:href="#linear-gradient"/><linearGradient id="linear-gradient-12" x1="-34.18" y1="20.39" x2="1015.76" y2="20.39" xlink:href="#linear-gradient"/><linearGradient id="linear-gradient-13" x1="-34.18" y1="45.14" x2="1015.76" y2="45.14" xlink:href="#linear-gradient"/><linearGradient id="linear-gradient-14" x1="-34.18" y1="33.01" x2="1015.76" y2="33.01" xlink:href="#linear-gradient"/></defs><title>icon_1</title><g id="Layer_2" data-name="Layer 2"><g id="Text"><path class="cls-1" d="M40,17.07H23.8a1.12,1.12,0,0,0,0,2.24H40a1.12,1.12,0,1,0,0-2.24Z"/><path class="cls-2" d="M36,22.78a1.16,1.16,0,0,0-.79-.32,1.12,1.12,0,0,0-.79,1.91,1.1,1.1,0,0,0,.79.33A1.12,1.12,0,0,0,36,22.78Z"/><path class="cls-3" d="M24.6,5.16A1.13,1.13,0,0,0,22.68,6a1.1,1.1,0,0,0,.33.79A1.12,1.12,0,0,0,24.92,6,1.16,1.16,0,0,0,24.6,5.16Z"/><path class="cls-4" d="M30.53,22.46H23.8a1.12,1.12,0,0,0,0,2.24h6.73a1.12,1.12,0,1,0,0-2.24Z"/><path class="cls-5" d="M40,29.19H23.8a1.13,1.13,0,0,0,0,2.25H40a1.13,1.13,0,0,0,0-2.25Z"/><path class="cls-6" d="M36,34.91a1.13,1.13,0,0,0-.79-.33,1.1,1.1,0,0,0-.79.33,1.12,1.12,0,0,0,0,1.59,1.1,1.1,0,0,0,.79.33A1.12,1.12,0,0,0,36,34.91Z"/><path class="cls-7" d="M30.53,34.58H23.8a1.13,1.13,0,0,0,0,2.25h6.73a1.13,1.13,0,0,0,0-2.25Z"/><path class="cls-8" d="M40,41.32H23.8a1.12,1.12,0,1,0,0,2.24H40a1.12,1.12,0,1,0,0-2.24Z"/><path class="cls-9" d="M36,47a1.13,1.13,0,0,0-.79-.33,1.1,1.1,0,0,0-.79.33,1.13,1.13,0,0,0-.33.79A1.13,1.13,0,0,0,35.25,49a1.13,1.13,0,0,0,.79-.33,1.1,1.1,0,0,0,.33-.79A1.13,1.13,0,0,0,36,47Z"/><path class="cls-10" d="M30.53,46.71H23.8a1.12,1.12,0,1,0,0,2.24h6.73a1.12,1.12,0,1,0,0-2.24Z"/><path class="cls-11" d="M42.13,4.38H33.56A6.9,6.9,0,0,0,28.8,2.47h-1a4.49,4.49,0,0,0-8,0h-1a6.88,6.88,0,0,0-4.76,1.91H5.47A5.48,5.48,0,0,0,0,9.85V52a5.49,5.49,0,0,0,5.47,5.48H42.13A5.49,5.49,0,0,0,47.61,52V9.85A5.48,5.48,0,0,0,42.13,4.38Zm-23.32.34h1.75a1.13,1.13,0,0,0,1.08-.83,2.25,2.25,0,0,1,4.33,0,1.11,1.11,0,0,0,1.08.83H28.8A4.67,4.67,0,0,1,33.44,9H14.16A4.67,4.67,0,0,1,18.81,4.72ZM45.36,52a3.23,3.23,0,0,1-3.23,3.23H5.47A3.23,3.23,0,0,1,2.25,52V9.85A3.23,3.23,0,0,1,5.47,6.62h7a7.06,7.06,0,0,0-.57,2.76v.73A1.12,1.12,0,0,0,13,11.23H34.58a1.12,1.12,0,0,0,1.12-1.12V9.38a6.88,6.88,0,0,0-.57-2.76h7a3.23,3.23,0,0,1,3.23,3.23Z"/><path class="cls-12" d="M16.66,16.8a1.11,1.11,0,0,0-1.58,0l-4.81,4.8L8.8,20.12a1.12,1.12,0,1,0-1.59,1.59L9.48,24a1.12,1.12,0,0,0,1.59,0l5.59-5.6A1.11,1.11,0,0,0,16.66,16.8Z"/><path class="cls-13" d="M13.92,41.32H8.53a1.12,1.12,0,0,0-1.12,1.12v5.39A1.12,1.12,0,0,0,8.53,49h5.39a1.13,1.13,0,0,0,1.13-1.12V42.44A1.13,1.13,0,0,0,13.92,41.32ZM12.8,46.71H9.66V43.56H12.8Z"/><path class="cls-14" d="M13.92,29.19H8.53a1.13,1.13,0,0,0-1.12,1.13V35.7a1.13,1.13,0,0,0,1.12,1.13h5.39a1.14,1.14,0,0,0,1.13-1.13V30.32A1.14,1.14,0,0,0,13.92,29.19ZM12.8,34.58H9.66V31.44H12.8Z"/></g></g></svg>