<svg xmlns="http://www.w3.org/2000/svg" xmlns:xlink="http://www.w3.org/1999/xlink" viewBox="0 0 107.01 110.78"><defs><style>.cls-1{fill:url(#radial-gradient);}</style><radialGradient id="radial-gradient" cx="-864.01" cy="85" r="999.02" gradientUnits="userSpaceOnUse"><stop offset="0" stop-color="#9344ff"/><stop offset="0.52" stop-color="#0078ff"/><stop offset="1" stop-color="#00c8ff"/></radialGradient></defs><title>icon_9</title><g id="Layer_2" data-name="Layer 2"><g id="Background"><path class="cls-1" d="M24.76,40.19a4.74,4.74,0,0,0-6.65.82,1.62,1.62,0,0,0,2.56,2,1.49,1.49,0,0,1,2.09-.26,1.62,1.62,0,1,0,2-2.56Z"/><path class="cls-1" d="M41.42,38.15a4.74,4.74,0,0,0-6.65.81,1.62,1.62,0,0,0,.28,2.28A1.61,1.61,0,0,0,37.33,41a1.49,1.49,0,0,1,2.09-.26,1.62,1.62,0,1,0,2-2.55Z"/><path class="cls-1" d="M39.55,50.62l-.19-1.51A2.46,2.46,0,0,0,36.62,47L27.3,48.11a2.46,2.46,0,0,0-2.14,2.75l.18,1.51a7.16,7.16,0,0,0,14.21-1.75Zm-6.63,4.75A3.91,3.91,0,0,1,28.56,52l-.08-.73,7.76-1,.09.73A3.91,3.91,0,0,1,32.92,55.37Z"/><path class="cls-1" d="M51.27,7.48A14.3,14.3,0,0,0,43.44.12a1.63,1.63,0,0,0-2,.76c-1.74,3.4-6,5.82-11.28,6.47L20.73,8.5a1.62,1.62,0,1,0,.39,3.22l9.39-1.15c5.71-.7,10.43-3.23,13-6.87,5.29,2.83,6.57,8.75,6,13.2-.59,4.62-3,8.1-5.91,8.46L12,29.23a4.8,4.8,0,0,0-4.17,5.34l.39,3.16L5.74,38,3.28,18a4,4,0,0,1,3.49-4.47l7.87-1a1.62,1.62,0,1,0-.39-3.22l-7.88,1A7.26,7.26,0,0,0,.05,18.35L2.6,39.1A5.61,5.61,0,0,0,5.85,49.28a5.53,5.53,0,0,0,.69,0l3-.38.29,2.42a19.11,19.11,0,0,0,33.61,10A1.62,1.62,0,0,0,41,59.16a15.86,15.86,0,0,1-27.89-8.27l-.5-4a1.62,1.62,0,0,0-1.81-1.41L6.15,46h-.3A2.36,2.36,0,0,1,5,41.48H5a2.49,2.49,0,0,1,.61-.16l4.64-.57A1.61,1.61,0,0,0,11.62,39L11,34.18a1.54,1.54,0,0,1,1.35-1.72l30-3.68L44.58,47a15.81,15.81,0,0,1-.7,7,1.62,1.62,0,1,0,3.07,1,18.81,18.81,0,0,0,.85-8.43L45.54,28.2c3.66-1.3,6.45-5.45,7.15-10.89A18.06,18.06,0,0,0,51.27,7.48Z"/><path class="cls-1" d="M88.89,83.72a4.74,4.74,0,0,0-6.65-.81,1.62,1.62,0,1,0,2,2.55,1.51,1.51,0,0,1,2.1.26,1.6,1.6,0,0,0,1.28.62,1.59,1.59,0,0,0,1-.34A1.61,1.61,0,0,0,88.89,83.72Z"/><path class="cls-1" d="M72.24,81.68a4.75,4.75,0,0,0-6.66-.82,1.62,1.62,0,1,0,2,2.56,1.5,1.5,0,0,1,2.1.26A1.65,1.65,0,0,0,71,84.3,1.58,1.58,0,0,0,72,84,1.62,1.62,0,0,0,72.24,81.68Z"/><path class="cls-1" d="M79.71,90.83l-9.32-1.15a2.43,2.43,0,0,0-1.82.51c-1.16.91-.89,2.13-1.11,3.14A7.16,7.16,0,0,0,79,99.84c3-2.33,2.68-5.55,2.88-6.27A2.46,2.46,0,0,0,79.71,90.83ZM77,97.29a3.91,3.91,0,0,1-6.29-3.56l.09-.73,7.76,1A4.38,4.38,0,0,1,77,97.29Z"/><path class="cls-1" d="M105.47,55.71A7.22,7.22,0,0,0,100.63,53L78.34,50.24A3,3,0,0,1,76.25,49a14.26,14.26,0,0,0-6.08-4.81,1.62,1.62,0,0,0-1.23,3,10.87,10.87,0,0,1,4.67,3.71,6.3,6.3,0,0,0,4.33,2.56l22.3,2.74a4,4,0,0,1,3.49,4.47l-2.46,20.08-2.46-.31.38-3.16A4.78,4.78,0,0,0,95,72L63.45,68.07A10.89,10.89,0,0,1,54,55.5a10.93,10.93,0,0,1,9.46-9,1.63,1.63,0,1,0-.39-3.23A14.23,14.23,0,0,0,50.82,55,14.13,14.13,0,0,0,61.46,71L59.2,89.34a19,19,0,0,0,.5,7.24,1.62,1.62,0,0,0,1.56,1.2,1.51,1.51,0,0,0,.42,0,1.62,1.62,0,0,0,1.15-2,16,16,0,0,1-.41-6l2.24-18.24,30,3.68A1.54,1.54,0,0,1,96,76.89l-.58,4.77a1.62,1.62,0,0,0,1.41,1.81l4.64.57a2.16,2.16,0,0,1,.57.14,2.37,2.37,0,0,1-.85,4.57l-.3,0-4.64-.57a1.63,1.63,0,0,0-1.81,1.41l-.49,4a15.87,15.87,0,0,1-28.54,7.46A1.62,1.62,0,1,0,62.77,103a19.09,19.09,0,0,0,13.07,7.66,21.21,21.21,0,0,0,2.37.14A19.1,19.1,0,0,0,97.14,94l.3-2.42c2.89.34,3.12.41,3.72.41a5.61,5.61,0,0,0,3.24-10.18L107,61.06A7.21,7.21,0,0,0,105.47,55.71Z"/><path class="cls-1" d="M82.49,13.61a1.63,1.63,0,0,0-1.62,1.63v4a1.63,1.63,0,0,0,3.25,0v-4A1.63,1.63,0,0,0,82.49,13.61Z"/><path class="cls-1" d="M82.49,25.82a1.63,1.63,0,0,0-1.62,1.63v4a1.63,1.63,0,0,0,3.25,0v-4A1.63,1.63,0,0,0,82.49,25.82Z"/><path class="cls-1" d="M90.58,21.7h-4a1.63,1.63,0,0,0,0,3.25h4a1.63,1.63,0,1,0,0-3.25Z"/><path class="cls-1" d="M78.37,21.7h-4a1.63,1.63,0,0,0,0,3.25h4a1.63,1.63,0,1,0,0-3.25Z"/><path class="cls-1" d="M24.51,77.74a1.63,1.63,0,0,0-1.62,1.62v4a1.63,1.63,0,1,0,3.25,0v-4A1.63,1.63,0,0,0,24.51,77.74Z"/><path class="cls-1" d="M24.51,90a1.63,1.63,0,0,0-1.62,1.62v4a1.63,1.63,0,0,0,3.25,0v-4A1.63,1.63,0,0,0,24.51,90Z"/><path class="cls-1" d="M32.6,85.83h-4a1.63,1.63,0,0,0,0,3.25h4a1.63,1.63,0,1,0,0-3.25Z"/><path class="cls-1" d="M20.39,85.83h-4a1.63,1.63,0,0,0,0,3.25h4a1.63,1.63,0,1,0,0-3.25Z"/></g></g></svg>