<svg xmlns="http://www.w3.org/2000/svg" xmlns:xlink="http://www.w3.org/1999/xlink" viewBox="0 0 79.45 79.45"><defs><style>.cls-1{fill:url(#linear-gradient);}.cls-2{fill:url(#linear-gradient-2);}.cls-3{fill:url(#linear-gradient-3);}.cls-4{fill:url(#linear-gradient-4);}.cls-5{fill:url(#linear-gradient-6);}.cls-6{fill:url(#linear-gradient-7);}.cls-7{fill:url(#linear-gradient-8);}.cls-8{fill:url(#linear-gradient-9);}</style><linearGradient id="linear-gradient" x1="-675.48" y1="39.72" x2="453.55" y2="39.72" gradientUnits="userSpaceOnUse"><stop offset="0" stop-color="#73ae92"/><stop offset="1" stop-color="#d8f8ce"/></linearGradient><linearGradient id="linear-gradient-2" x1="-675.48" y1="14.1" x2="453.55" y2="14.1" xlink:href="#linear-gradient"/><linearGradient id="linear-gradient-3" x1="-675.48" y1="16.66" x2="453.55" y2="16.66" xlink:href="#linear-gradient"/><linearGradient id="linear-gradient-4" x1="-675.48" y1="19.22" x2="453.55" y2="19.22" xlink:href="#linear-gradient"/><linearGradient id="linear-gradient-6" x1="-675.48" y1="66.63" x2="453.55" y2="66.63" xlink:href="#linear-gradient"/><linearGradient id="linear-gradient-7" x1="-675.48" y1="12.81" x2="453.55" y2="12.81" xlink:href="#linear-gradient"/><linearGradient id="linear-gradient-8" x1="-675.48" y1="61.51" x2="453.55" y2="61.51" xlink:href="#linear-gradient"/><linearGradient id="linear-gradient-9" x1="-675.48" y1="64.07" x2="453.55" y2="64.07" xlink:href="#linear-gradient"/></defs><title>icon_13</title><g id="Layer_2" data-name="Layer 2"><g id="Background"><path class="cls-1" d="M52,20.5a13,13,0,0,0-3.94.62l8.5-12L52.05,0H27.4L22.86,9.08l8.49,12a12.92,12.92,0,0,0-3.94-.62A13.33,13.33,0,0,0,14.1,33.82,40.5,40.5,0,0,0,21.33,57a42.21,42.21,0,0,1,6.26,13.83L29,76.3a4.16,4.16,0,0,0,8.2-1V58.94a2.57,2.57,0,0,1,5.13,0V75.29a4.16,4.16,0,0,0,8.19,1l1.37-5.49A42.21,42.21,0,0,1,58.11,57a40.43,40.43,0,0,0,7.24-23.16A13.33,13.33,0,0,0,52,20.5Zm-9.41,3.93-.11.09,3.35-14.27h6.77Zm-2.9.73-3.5-14.91h7ZM53,7.69H47.58L51,3.61ZM48.52,2.56,45,6.83,42.12,2.56ZM42.46,7.69H37l2.73-4.1ZM37.33,2.56,34.48,6.83,30.93,2.56Zm-8.87,1,3.4,4.08H26.42Zm-1.64,6.64h6.76l3.36,14.27-.12-.1ZM56,55.52a44.66,44.66,0,0,0-6.64,14.67L48,75.67a1.6,1.6,0,0,1-3.15-.38V58.94a5.13,5.13,0,0,0-10.25,0V75.29a1.6,1.6,0,0,1-3.15.39l-1.37-5.49a44.86,44.86,0,0,0-6.64-14.67,37.9,37.9,0,0,1-6.78-21.7A10.76,10.76,0,0,1,27.41,23.07,11.14,11.14,0,0,1,33.59,25l1.32,1.13,2.15,3.05a13.35,13.35,0,0,1-4.85-2l-1.43,2.13a16.07,16.07,0,0,0,17.89,0l-1.44-2.13a13.3,13.3,0,0,1-4.84,2l2.15-3L45.86,25A11.13,11.13,0,0,1,52,23.07,10.77,10.77,0,0,1,62.79,33.82,38,38,0,0,1,56,55.52Z"/><rect class="cls-2" x="11.53" y="12.81" width="2.56" height="2.56"/><rect class="cls-3" x="8.97" y="15.38" width="2.56" height="2.56"/><rect class="cls-4" x="11.53" y="17.94" width="2.56" height="2.56"/><rect class="cls-3" x="14.1" y="15.38" width="2.56" height="2.56"/><path class="cls-5" d="M11.53,56.38H9a9,9,0,0,1-9,9v2.56a9,9,0,0,1,9,9h2.56a9,9,0,0,1,9-9V65.35A9,9,0,0,1,11.53,56.38ZM10.25,71.62a11.56,11.56,0,0,0-5-5,11.56,11.56,0,0,0,5-5,11.56,11.56,0,0,0,5,5A11.56,11.56,0,0,0,10.25,71.62Z"/><path class="cls-6" d="M70.48,2.56H67.91a9,9,0,0,1-9,9V14.1a9,9,0,0,1,9,9h2.57a9,9,0,0,1,9-9V11.53A9,9,0,0,1,70.48,2.56ZM69.2,17.8a11.75,11.75,0,0,0-5-5,11.64,11.64,0,0,0,5-5,11.56,11.56,0,0,0,5,5A11.67,11.67,0,0,0,69.2,17.8Z"/><rect class="cls-7" x="64.07" y="60.23" width="2.56" height="2.56"/><rect class="cls-8" x="61.51" y="62.79" width="2.56" height="2.56"/><rect class="cls-5" x="64.07" y="65.35" width="2.56" height="2.56"/><rect class="cls-8" x="66.63" y="62.79" width="2.56" height="2.56"/></g></g></svg>