<svg xmlns="http://www.w3.org/2000/svg" xmlns:xlink="http://www.w3.org/1999/xlink" viewBox="0 0 71.07 67.51"><defs><style>.cls-1{fill:url(#linear-gradient);}.cls-2{fill:url(#linear-gradient-2);}.cls-3{fill:url(#linear-gradient-3);}</style><linearGradient id="linear-gradient" x1="-906.72" y1="22.92" x2="143.23" y2="22.92" gradientUnits="userSpaceOnUse"><stop offset="0" stop-color="#b7e0bb"/><stop offset="1" stop-color="#73ae92"/></linearGradient><linearGradient id="linear-gradient-2" x1="-906.72" y1="33.76" x2="143.23" y2="33.76" xlink:href="#linear-gradient"/><linearGradient id="linear-gradient-3" x1="-906.72" y1="15.36" x2="143.23" y2="15.36" xlink:href="#linear-gradient"/></defs><title>icon_4</title><g id="Layer_2" data-name="Layer 2"><g id="Text"><path class="cls-1" d="M37.41,22.87,36,21a9.61,9.61,0,0,1-10.45,0l-1.39,1.91a11.16,11.16,0,0,0,6.62,2A11.15,11.15,0,0,0,37.41,22.87Z"/><path class="cls-2" d="M69.88,46.19H58a5.88,5.88,0,0,1-4.56-2.13l-.64-.79a8.31,8.31,0,0,0-6.38-3h-.23a24.55,24.55,0,0,1,2.43-4.44A12.81,12.81,0,0,0,50.83,30,15.39,15.39,0,1,0,40.27,15.4c0,.08,0,.16,0,.24-.37-.07-.74-.14-1.13-.18a12.91,12.91,0,0,0-6.71,1.15,3.87,3.87,0,0,1-3.29,0A13,13,0,0,0,13,35.83a24.55,24.55,0,0,1,2.43,4.44h-.23a8.25,8.25,0,0,0-6.38,3l-.64.77A5.88,5.88,0,0,1,3.6,46.19H1.18A1.19,1.19,0,0,0,0,47.38V66.33a1.18,1.18,0,0,0,1.18,1.18h68.7a1.18,1.18,0,0,0,1.19-1.18V47.38A1.19,1.19,0,0,0,69.88,46.19ZM55.67,2.37a13,13,0,1,1-13,13A13,13,0,0,1,55.67,2.37ZM13.11,27.05a10.67,10.67,0,0,1,15.05-8.29,6.25,6.25,0,0,0,5.28,0,10.5,10.5,0,0,1,5.49-.94,8.68,8.68,0,0,1,1.6.3,15.43,15.43,0,0,0,8,10.9,10.51,10.51,0,0,1-1.85,5.46,26.31,26.31,0,0,0-3.32,6.59,28.28,28.28,0,0,0-1.07,4.14l-1.64,9.47a1.18,1.18,0,0,1-1.17,1H37.62a1.2,1.2,0,0,1-1.19-1l-1.3-10.09a3.55,3.55,0,0,0-3.52-3.09H30a3.55,3.55,0,0,0-3.52,3.09L25.15,54.64a1.19,1.19,0,0,1-1.18,1H22.13a1.18,1.18,0,0,1-1.17-1l-1.65-9.48a28.25,28.25,0,0,0-1.06-4.14,26.58,26.58,0,0,0-3.33-6.6A10.71,10.71,0,0,1,13.11,27.05ZM68.7,65.15H2.37V48.56H3.6a8.3,8.3,0,0,0,6.4-3l.63-.77a5.9,5.9,0,0,1,4.55-2.15h1.06a25.59,25.59,0,0,1,.74,3l1.65,9.48A3.55,3.55,0,0,0,22.13,58H24A3.58,3.58,0,0,0,27.51,55l1.3-10.09a1.18,1.18,0,0,1,1.17-1h1.63a1.18,1.18,0,0,1,1.17,1L34.09,55A3.56,3.56,0,0,0,37.62,58h1.85A3.56,3.56,0,0,0,43,55.1l1.64-9.47a25.59,25.59,0,0,1,.74-3h1.06A6,6,0,0,1,51,44.77l.64.79a8.29,8.29,0,0,0,6.38,3H68.7Z"/><path class="cls-3" d="M54.83,22.16a1.2,1.2,0,0,0,1.68,0l5.86-5.86a4.74,4.74,0,0,0-6.7-6.7A4.73,4.73,0,0,0,49,16.29ZM50.64,11.27a2.38,2.38,0,0,1,3.35,0l.84.84a1.2,1.2,0,0,0,1.68,0l.83-.84a2.37,2.37,0,0,1,3.35,3.35l-5,5-5-5A2.38,2.38,0,0,1,50.64,11.27Z"/></g></g></svg>