<svg xmlns="http://www.w3.org/2000/svg" xmlns:xlink="http://www.w3.org/1999/xlink" viewBox="0 0 70.81 56.93"><defs><style>.cls-1{fill:url(#radial-gradient);}</style><radialGradient id="radial-gradient" cx="-106.69" cy="635" r="898.09" gradientTransform="matrix(1, 0, 0, -1, 0, 632.87)" gradientUnits="userSpaceOnUse"><stop offset="0" stop-color="#9344ff"/><stop offset="0.52" stop-color="#0078ff"/><stop offset="1" stop-color="#00c8ff"/></radialGradient></defs><title>icon_7</title><g id="Layer_2" data-name="Layer 2"><g id="Background"><path class="cls-1" d="M67.52,30.38a1.27,1.27,0,0,1-.18-.76,9.82,9.82,0,0,0-2.6-9,1.56,1.56,0,0,0-.64-.49L64,20c-.32-.43-.62-.86-.91-1.3a9.49,9.49,0,0,1-.12-1v-.08c-.32-3.21-2.45-5.26-4.48-6.85a3.52,3.52,0,0,1-.36-.31l-.17-.21c-1-3.08-3.23-4.89-6.92-5.54a1.16,1.16,0,0,1-.41-.12C48.85,2.16,46.12,1.5,43.93,1A27.78,27.78,0,0,0,40.87.47c-.7-.08-1.36-.17-2-.29L38.66,0l-.38.13H36.81c-1.2,0-2.44,0-3.66,0h-.41a24.83,24.83,0,0,0-9.17,2.09,5.5,5.5,0,0,0-1.73,1.27l-.37.34c-.72.35-1.42.72-2.11,1.12a7.93,7.93,0,0,0-5.92,4.87c-.32.37-.62.76-.91,1.16A10.72,10.72,0,0,0,8,18.64c-.29.51-.61,1-.92,1.51a9,9,0,0,0-3.42,9.07,1.8,1.8,0,0,1-.34,1.51,11.87,11.87,0,0,0-1.92,9.53,4.2,4.2,0,0,1-.13,2.18,16.45,16.45,0,0,0-1.13,8,7.33,7.33,0,0,0,3,4.92,8.31,8.31,0,0,0,6.3,1.45,11.37,11.37,0,0,0,4.45-1.51A9.15,9.15,0,0,0,16.1,42.72,1.2,1.2,0,0,1,16,41.9,12,12,0,0,0,16.47,33c0-.37.05-.73.08-1.09l0-.08a10.79,10.79,0,0,0,1.82-7.1l0,0a8.54,8.54,0,0,0,3.12-5.18c.22-.47.45-.92.71-1.36a8.14,8.14,0,0,0,3.42-3.54,2.22,2.22,0,0,1,.21-.32l.57-.41.13-.07a13.17,13.17,0,0,0,2.1-1.13c.27-.17.54-.35.82-.51l.07,0A15.34,15.34,0,0,1,43,13a8.37,8.37,0,0,1,3.53,3.09,4,4,0,0,0,1.83,1.72c.84.35,1.16.86,1.31,2.08a7.5,7.5,0,0,0,3,4.65.87.87,0,0,1,.16.2,11.46,11.46,0,0,0,1.67,7.35,1.76,1.76,0,0,1,0,1.09c-.57,2.15-1.06,4.43-.23,6.69.63,1.72,1,2.94-.15,4.17l-.13.14,0,.18c-1.49,5-.45,8.31,3.47,10.92a9,9,0,0,0,10.92-.39A7,7,0,0,0,70.72,50a14.49,14.49,0,0,0-1.07-7.29,3.85,3.85,0,0,1-.2-2.63A11.41,11.41,0,0,0,67.52,30.38ZM63.6,28.29c0,.14,0,.28,0,.42s-.08.52-.15.81A2.73,2.73,0,0,0,64,32.21a7.17,7.17,0,0,1,1.76,7.12A7.62,7.62,0,0,0,66,43.78a21,21,0,0,1,1,4.49c.21,2.7-.86,4.25-3.26,4.72a6.24,6.24,0,0,1-3.39-.35,9.17,9.17,0,0,1-.94-.49c-1.15-1.08-2.42-2.92-2.44-4.25a12.29,12.29,0,0,1,.86-2.44c.08-.32.16-.62.22-.9a4.31,4.31,0,0,0,.26-4.06c-.08-.17-.15-.35-.22-.52a24,24,0,0,1-.44-4v-.27a15.25,15.25,0,0,1,.45-1.87,4.25,4.25,0,0,0-.78-4.31,29.74,29.74,0,0,0-.65-3.2v-.08c0-.67,0-1.34-.11-2-.08-.85-.21-1.79-.89-2.18a6.24,6.24,0,0,1-.91-.66,26,26,0,0,0-1.61-2.68A7.94,7.94,0,0,1,53,17.38a2.74,2.74,0,0,0-1.53-2.14,5.33,5.33,0,0,1-3-3,3.4,3.4,0,0,0-2.27-1.86,7.63,7.63,0,0,1-1.71-.9c-.29-.18-.58-.36-.87-.52s-.35-.22-.53-.34a4.2,4.2,0,0,0-1.68-.78l-1.31-.2a22.06,22.06,0,0,0-7.28-.32l-.13,0c-2.23.38-4.54.77-6.43,2.53a2,2,0,0,1-1,.47,3.3,3.3,0,0,0-2.46,1.8l-.11.16a7.6,7.6,0,0,1-2.34,2.56,3.77,3.77,0,0,0-2.36,3.42,4,4,0,0,1-2.45,3.68,2.22,2.22,0,0,0-1,2.34,5.62,5.62,0,0,1,.21,1.26c-.27,1-.5,2-.7,3-.07.12-.12.23-.2.35A6.82,6.82,0,0,0,13.07,35a6.43,6.43,0,0,1,.33,1.66v.75A6.43,6.43,0,0,1,13,39.21a1.61,1.61,0,0,0-.24.6L12.7,40a4.62,4.62,0,0,0,.43,5.14,4.36,4.36,0,0,1,.68,1.62,7.64,7.64,0,0,1,0,2,.5.5,0,0,1,0,.12c0,.08,0,.17,0,.25a5.19,5.19,0,0,1-1.66,2.8,6.07,6.07,0,0,1-.73.47,7.81,7.81,0,0,1-2.77.71,4.82,4.82,0,0,1-.65,0,4.25,4.25,0,0,1-3-1.1,4.4,4.4,0,0,1-1.19-3.57,15.44,15.44,0,0,1,.88-4.06A9.34,9.34,0,0,0,5,39a7.39,7.39,0,0,1,1.83-6.7,3.55,3.55,0,0,0,.66-2.21,14.72,14.72,0,0,0-.11-1.64,8.73,8.73,0,0,1-.06-2.09,5.17,5.17,0,0,1,2.8-3.75l.17-.1a2.29,2.29,0,0,0,1.43-2.31,6.32,6.32,0,0,1,.2-2.32c.4-.79.79-1.54,1.2-2.28a10.15,10.15,0,0,1,2.23-2A3.07,3.07,0,0,0,16.64,12a4.39,4.39,0,0,1,4.1-3.47,4.87,4.87,0,0,0,3.07-1.72,4.58,4.58,0,0,1,1.44-1.22C28.32,4.42,31,3.69,33.79,3.9c1,.08,2,.06,3,0h2a20.43,20.43,0,0,1,4,.62c2,.46,3.85,1,5.13,2.72a3.91,3.91,0,0,0,2.55,1.21,4.52,4.52,0,0,1,4,3.49,3.31,3.31,0,0,0,1.3,1.65,11.83,11.83,0,0,1,2.41,2.25q.45.88.87,1.77A5.19,5.19,0,0,1,59.17,20a2,2,0,0,0,1.55,2.51A4.13,4.13,0,0,1,63.24,25a4.27,4.27,0,0,1,.32.84,3.69,3.69,0,0,1,.09.58C63.71,27,63.55,27.66,63.6,28.29Z"/></g></g></svg>