<svg xmlns="http://www.w3.org/2000/svg" xmlns:xlink="http://www.w3.org/1999/xlink" viewBox="0 0 46.49 80.07"><defs><style>.cls-1{fill:url(#linear-gradient);}.cls-2{fill:url(#linear-gradient-2);}</style><linearGradient id="linear-gradient" x1="-497.06" y1="40.04" x2="875.49" y2="40.04" gradientUnits="userSpaceOnUse"><stop offset="0" stop-color="#73ae92"/><stop offset="1" stop-color="#d8f8ce"/></linearGradient><linearGradient id="linear-gradient-2" x1="-497.06" y1="8.53" x2="875.49" y2="8.53" xlink:href="#linear-gradient"/></defs><title>icon_12</title><g id="Layer_2" data-name="Layer 2"><g id="Background"><path class="cls-1" d="M46.49,32.29V11.89A11.9,11.9,0,0,0,34.6,0a11.4,11.4,0,0,0-7.39,2.58,5.92,5.92,0,0,1-4,1.29,5.94,5.94,0,0,1-4-1.29A11.4,11.4,0,0,0,11.89,0,11.9,11.9,0,0,0,0,11.89v20.4c0,1.63,1,4,5.54,6A9.86,9.86,0,0,0,5.17,41v2.94H.9l8.6,32a5.68,5.68,0,0,0,11.16-1.48V62a2.59,2.59,0,0,1,5.17,0v12.4A5.68,5.68,0,0,0,37,75.87l8.61-32H41.33V41A9.86,9.86,0,0,0,41,38.29C45.51,36.27,46.49,33.92,46.49,32.29Zm-4.27,14.2L34.5,75.2a3.1,3.1,0,0,1-6.09-.81V62a5.17,5.17,0,1,0-10.33,0v12.4A3.09,3.09,0,0,1,12,75.2L4.27,46.49H33.58V43.91H7.75V41a7.39,7.39,0,0,1,7.39-7.39,7.17,7.17,0,0,1,3.93,1.13c2.94,1.92,5.42,1.92,8.35,0a7.2,7.2,0,0,1,3.94-1.13A7.39,7.39,0,0,1,38.74,41v2.94H36.16v2.58ZM39.93,35.91A9.94,9.94,0,0,0,31.35,31,9.75,9.75,0,0,0,26,32.55a5.32,5.32,0,0,1-2.75,1,5.35,5.35,0,0,1-2.76-1A9.73,9.73,0,0,0,15.14,31a10,10,0,0,0-8.58,4.91c-2.49-1.11-4-2.45-4-3.62,0-2.42,5.84-5.42,15.61-6.25h.12l4.94,5.64L28.18,26h.12c9.77.83,15.61,3.83,15.61,6.25C43.91,33.46,42.42,34.8,39.93,35.91Zm4-8c-3.09-2.3-8.48-3.69-13.65-4.29l4.87-5.57h-8V10.33H24.54V20.66h4.9l-6.19,7.08-6.2-7.08H22V10.33H19.37v7.75h-8l4.87,5.57c-5.17.6-10.56,2-13.65,4.29v-16a9.33,9.33,0,0,1,9.31-9.31,8.8,8.8,0,0,1,5.72,2,8.43,8.43,0,0,0,5.64,1.91,8.4,8.4,0,0,0,5.63-1.91,8.82,8.82,0,0,1,5.72-2,9.32,9.32,0,0,1,9.31,9.31Z"/><path class="cls-2" d="M5.17,11.89H7.75a4.15,4.15,0,0,1,4.14-4.14V5.17A6.72,6.72,0,0,0,5.17,11.89Z"/><path class="cls-2" d="M34.6,5.17V7.75a4.14,4.14,0,0,1,4.14,4.14h2.59A6.73,6.73,0,0,0,34.6,5.17Z"/></g></g></svg>