<svg xmlns="http://www.w3.org/2000/svg" xmlns:xlink="http://www.w3.org/1999/xlink" viewBox="0 0 70.79 51.91"><defs><style>.cls-1{fill:url(#linear-gradient);}.cls-2{fill:url(#linear-gradient-2);}.cls-3{fill:url(#linear-gradient-3);}.cls-4{fill:url(#linear-gradient-4);}.cls-5{fill:url(#linear-gradient-5);}.cls-6{fill:url(#linear-gradient-6);}</style><linearGradient id="linear-gradient" x1="-637.17" y1="7.49" x2="412.77" y2="7.49" gradientUnits="userSpaceOnUse"><stop offset="0" stop-color="#b7e0bb"/><stop offset="1" stop-color="#73ae92"/></linearGradient><linearGradient id="linear-gradient-2" x1="-637.13" y1="25.96" x2="412.82" y2="25.96" xlink:href="#linear-gradient"/><linearGradient id="linear-gradient-3" x1="-637.17" y1="9.44" x2="412.77" y2="9.44" xlink:href="#linear-gradient"/><linearGradient id="linear-gradient-4" x1="-637.17" y1="11.8" x2="412.77" y2="11.8" xlink:href="#linear-gradient"/><linearGradient id="linear-gradient-5" x1="-637.17" y1="15.34" x2="412.77" y2="15.34" xlink:href="#linear-gradient"/><linearGradient id="linear-gradient-6" x1="-637.17" y1="10.62" x2="412.77" y2="10.62" xlink:href="#linear-gradient"/></defs><title>icon_3</title><g id="Layer_2" data-name="Layer 2"><g id="Text"><path class="cls-1" d="M42,7.44,40.6,5.54a9.58,9.58,0,0,1-10.41,0L28.8,7.44a11.26,11.26,0,0,0,6.6,2A11.23,11.23,0,0,0,42,7.44Z"/><path class="cls-2" d="M69.61,30.68H62.49A5.89,5.89,0,0,1,58,28.55l-.65-.78a8.2,8.2,0,0,0-6.35-3h-.22a24.09,24.09,0,0,1,2.42-4.43A13,13,0,0,0,37,1.21a3.82,3.82,0,0,1-3.27,0A13,13,0,0,0,17.65,20.35a24.65,24.65,0,0,1,2.41,4.43h-.21a8.25,8.25,0,0,0-6.37,3l-.63.77a5.92,5.92,0,0,1-4.54,2.14H1.18A1.18,1.18,0,0,0,0,31.86V50.73a1.18,1.18,0,0,0,1.18,1.18H69.61a1.18,1.18,0,0,0,1.18-1.18V31.86A1.18,1.18,0,0,0,69.61,30.68ZM17.78,11.61a10.61,10.61,0,0,1,15-8.26,6.2,6.2,0,0,0,5.26,0A10.61,10.61,0,0,1,51.21,19a27.07,27.07,0,0,0-4.37,10.7l-1.65,9.43a1.18,1.18,0,0,1-1.16,1H42.19a1.18,1.18,0,0,1-1.17-1L39.72,29A3.54,3.54,0,0,0,36.21,26H34.59A3.54,3.54,0,0,0,31.08,29l-1.3,10.05a1.18,1.18,0,0,1-1.17,1H26.76a1.18,1.18,0,0,1-1.16-1L24,29.71A26.91,26.91,0,0,0,19.59,19,10.63,10.63,0,0,1,17.78,11.61Zm50.65,38H2.36V33h6a8.25,8.25,0,0,0,6.36-3l.63-.77a5.91,5.91,0,0,1,4.55-2.13h1.06a25.19,25.19,0,0,1,.72,3l1.64,9.44a3.54,3.54,0,0,0,3.49,2.93H28.6a3.56,3.56,0,0,0,3.51-3.09l1.3-10a1.19,1.19,0,0,1,1.18-1h1.62a1.18,1.18,0,0,1,1.17,1l1.29,10a3.57,3.57,0,0,0,3.52,3.09H44a3.55,3.55,0,0,0,3.49-2.93l1.64-9.44a24.72,24.72,0,0,1,.72-3h1.06a5.88,5.88,0,0,1,4.54,2.12l.64.79a8.29,8.29,0,0,0,6.37,3h5.94Z"/><path class="cls-3" d="M47.19,8.26h2.36v2.36H47.19Z"/><path class="cls-4" d="M42.48,10.62h2.35V13H42.48Z"/><path class="cls-5" d="M46,14.16h2.36v2.36H46Z"/><path class="cls-6" d="M23.6,9.44H26V11.8H23.6Z"/><path class="cls-5" d="M20.06,14.16h2.36v2.36H20.06Z"/></g></g></svg>