<svg xmlns="http://www.w3.org/2000/svg" xmlns:xlink="http://www.w3.org/1999/xlink" viewBox="0 0 160.48 64"><defs><style>.cls-1{fill:url(#radial-gradient);}</style><radialGradient id="radial-gradient" cx="-510.25" cy="61.9" r="1219.44" gradientUnits="userSpaceOnUse"><stop offset="0" stop-color="#9344ff"/><stop offset="0.52" stop-color="#0078ff"/><stop offset="1" stop-color="#00c8ff"/></radialGradient></defs><title>icon_8</title><g id="Layer_2" data-name="Layer 2"><g id="Background"><path class="cls-1" d="M160.43,12.66c0-1.45-.89-2.14-2-2.72-5.14-2.76-10.54-4.85-16.41-5.06a65.7,65.7,0,0,0-13.53.61,15,15,0,0,1-8.18-.64A52.46,52.46,0,0,0,89.6,3.54c-2.92.74-5.81,1.62-8.77,2.46a1.45,1.45,0,0,0-.36-.08C74.39.5,66.54,0,58.2,0S41.8.52,35.69,6.15C29.3,3.77,22.73,4,16.19,4.73A35.54,35.54,0,0,0,1.36,10,3.39,3.39,0,0,0,0,12.48c.07,5.61.17,11.25.41,16.85A53.07,53.07,0,0,0,3.08,42.91,32.89,32.89,0,0,0,8.61,53.68c5.46,6.8,14.79,6.84,20.28.1a32.31,32.31,0,0,0,5.67-11.9c.73-2.54,1.27-5.13,1.94-7.89.9,3.48,1.65,6.78,2.63,10,1.67,5.52,4,10.71,8.15,14.91,3.21,3.29,6.94,5.54,11.77,5a16.55,16.55,0,0,0,10.89-5.78c4.77-5.38,7.06-11.91,8.75-18.72.5-2,.89-4.1,1.34-6.15l.23-.06c.14.74.27,1.48.42,2.22,1.52,7.44,3.59,14.66,8.12,21,6.92,9.62,17.53,10.15,25.33,1.23a29.33,29.33,0,0,0,5.72-10.07c1.49-4.42,2.69-8.93,4-13.5.29,1.37.55,2.76.88,4.14,1.38,5.86,3.09,11.57,7,16.34a12.58,12.58,0,0,0,18.54,1c4.2-4.2,6.62-9.85,8-15.55a76.74,76.74,0,0,0,2-13.65c0-.45,0-.91.07-1.37C160.58,20.87,160.37,16.76,160.43,12.66ZM34.73,10.75a136.56,136.56,0,0,1-2.1,24.48A44,44,0,0,1,27.47,50c-4.35,7.18-12.67,6.79-16.69.9a30.8,30.8,0,0,1-2.4-4c-4-8.49-4.75-17.62-5-26.82,0-1.89.09-3.79,0-5.67A2.38,2.38,0,0,1,5,11.77a41.2,41.2,0,0,1,20.74-4A71.18,71.18,0,0,1,33.36,9C34.33,9.11,34.74,9.68,34.73,10.75ZM78.27,8.92l-.19,10.93c-.21,2.65-.42,5.3-.79,7.93-.56,3.95-1.28,7.89-2.22,11.77-1.43,5.85-3.4,11.53-7.55,16.1-5.07,5.59-12.42,7.35-18.23.27a39.14,39.14,0,0,1-5.52-9.25c-3.06-7-4.13-14.6-4.91-22.19-.15-1.5-.24-3-.33-4.56l.2-11.55C44.08,3.83,50.94,3.69,58.2,3.69,65.74,3.69,72.84,3.85,78.27,8.92Zm43.9,1.62a124.28,124.28,0,0,1-3.33,28.89c-1.46,6-3.49,11.73-7.74,16.37-5,5.45-12.09,7-18.07.28a34.78,34.78,0,0,1-6.87-12.9C83.35,34.36,82.44,25.24,82,16.05c0-1.19,0-2.38,0-3.56,0-3.17-.06-3.19,2.89-4.13,8.67-2.73,17.5-3.94,26.51-2.27,3.31.61,6.51,1.8,9.76,2.74C122,9.07,122.18,9.66,122.17,10.54ZM157,15.36c0,1.61,0,3.23,0,4.84,0,1.76-.22,3.43-.37,5.19-.33,3.77-.6,7.56-1.22,11.31A32.81,32.81,0,0,1,149.76,51c-4.55,6.2-11.64,6.26-16.25.13A29,29,0,0,1,129,40.85c-2.52-9.51-3.23-19.23-3.36-29,0-1.87.71-2.53,2.22-2.83,9.72-1.94,19.1-1.08,28.05,3.39A2.11,2.11,0,0,1,157,14.3C157,14.64,157,15,157,15.36Z"/></g></g></svg>