<svg xmlns="http://www.w3.org/2000/svg" xmlns:xlink="http://www.w3.org/1999/xlink" viewBox="0 0 96.57 43.46"><defs><style>.cls-1{fill:url(#radial-gradient);}</style><radialGradient id="radial-gradient" cx="-111.73" cy="62.3" r="915.59" gradientUnits="userSpaceOnUse"><stop offset="0" stop-color="#9344ff"/><stop offset="0.52" stop-color="#0078ff"/><stop offset="1" stop-color="#00c8ff"/></radialGradient></defs><title>icon_5</title><g id="Layer_2" data-name="Layer 2"><g id="Text"><path class="cls-1" d="M91.74,17.71H90.66a29,29,0,0,1,1.58-3.56A9.64,9.64,0,0,0,78.12,1.8a1.52,1.52,0,0,1-1.73,0A9.58,9.58,0,0,0,62.77,4.37,9.58,9.58,0,0,0,49.15,1.8a1.52,1.52,0,0,1-1.73,0A9.58,9.58,0,0,0,33.8,4.37,9.58,9.58,0,0,0,20.18,1.8a1.52,1.52,0,0,1-1.73,0A9.54,9.54,0,0,0,11.21.15a9.65,9.65,0,0,0-6.87,14,30.52,30.52,0,0,1,1.57,3.56H4.83A4.83,4.83,0,0,0,0,22.54V41.85a1.61,1.61,0,0,0,1.61,1.61H95a1.61,1.61,0,0,0,1.61-1.61V22.54A4.83,4.83,0,0,0,91.74,17.71ZM64.47,8.58a6.42,6.42,0,0,1,10-4.17,4.68,4.68,0,0,0,5.48,0,6.37,6.37,0,0,1,4.83-1.09,6.42,6.42,0,0,1,4.56,9.33A29.1,29.1,0,0,0,86,23.44l-.39,3.94a1.77,1.77,0,0,1-3.52-.18V22.54a4.83,4.83,0,1,0-9.66,0V27.2a1.77,1.77,0,0,1-3.52.17l-.38-3.94a29.35,29.35,0,0,0-3.4-10.79A6.36,6.36,0,0,1,64.47,8.58Zm-1.7,6.61a27.27,27.27,0,0,1,1.08,2.52H61.69A27.27,27.27,0,0,1,62.77,15.19ZM35.5,8.58a6.42,6.42,0,0,1,10-4.17,4.68,4.68,0,0,0,5.48,0,6.37,6.37,0,0,1,4.83-1.09,6.42,6.42,0,0,1,4.56,9.33A29.1,29.1,0,0,0,57,23.44l-.39,3.94a1.77,1.77,0,0,1-3.52-.18V22.54a4.83,4.83,0,1,0-9.66,0V27.2a1.77,1.77,0,0,1-3.52.17l-.38-3.94a29.16,29.16,0,0,0-3.4-10.79A6.36,6.36,0,0,1,35.5,8.58Zm-1.7,6.61a27.27,27.27,0,0,1,1.08,2.52H32.72A27.27,27.27,0,0,1,33.8,15.19ZM6.53,8.58a6.42,6.42,0,0,1,10-4.17,4.7,4.7,0,0,0,5.47,0,6.42,6.42,0,0,1,9.39,8.24A29.1,29.1,0,0,0,28,23.44l-.38,3.94a1.77,1.77,0,0,1-3.52-.18V22.54a4.83,4.83,0,0,0-9.66,0V27.2a1.77,1.77,0,0,1-3.52.17l-.38-3.93a29.1,29.1,0,0,0-3.4-10.79A6.39,6.39,0,0,1,6.53,8.58ZM93.35,40.24H3.22V22.54a1.61,1.61,0,0,1,1.61-1.61H6.9a22.14,22.14,0,0,1,.48,2.82l.38,3.94a5,5,0,0,0,9.94-.49V22.54a1.61,1.61,0,0,1,3.22,0V27.2a5,5,0,0,0,10,.49l.38-4a22.44,22.44,0,0,1,.48-2.82h4.13a22.47,22.47,0,0,1,.49,2.82l.38,4a5,5,0,0,0,9.94-.49V22.54a1.61,1.61,0,1,1,3.22,0V27.2a5,5,0,0,0,10,.49l.38-4a22.44,22.44,0,0,1,.48-2.82h4.13a22.44,22.44,0,0,1,.48,2.82l.39,4a5,5,0,0,0,9.94-.49V22.54a1.61,1.61,0,0,1,3.22,0V27.2a5,5,0,0,0,10,.49l.38-4a22.44,22.44,0,0,1,.48-2.82h2.07a1.61,1.61,0,0,1,1.61,1.61Z"/></g></g></svg>