<svg xmlns="http://www.w3.org/2000/svg" xmlns:xlink="http://www.w3.org/1999/xlink" viewBox="0 0 67.28 67.28"><defs><style>.cls-1{fill:url(#linear-gradient);}.cls-2{fill:url(#linear-gradient-2);}.cls-3{fill:url(#linear-gradient-3);}.cls-4{fill:url(#linear-gradient-4);}</style><linearGradient id="linear-gradient" x1="25.45" y1="48.28" x2="79.1" y2="10.94" gradientUnits="userSpaceOnUse"><stop offset="0" stop-color="#73ae92"/><stop offset="1" stop-color="#d8f8ce"/></linearGradient><linearGradient id="linear-gradient-2" x1="21.26" y1="42.26" x2="74.91" y2="4.92" xlink:href="#linear-gradient"/><linearGradient id="linear-gradient-3" x1="15.31" y1="33.7" x2="68.96" y2="-3.63" xlink:href="#linear-gradient"/><linearGradient id="linear-gradient-4" x1="23.11" y1="44.91" x2="76.76" y2="7.58" xlink:href="#linear-gradient"/></defs><title>smile_green</title><g id="Layer_2" data-name="Layer 2"><g id="Shapes"><path class="cls-1" d="M19.39,41.12a1.46,1.46,0,0,1,2.06.14,16.26,16.26,0,0,0,24.15.36,1.46,1.46,0,1,1,2.15,2,19.21,19.21,0,0,1-28.51-.43A1.47,1.47,0,0,1,19.39,41.12Z"/><path class="cls-2" d="M0,33.14A33.64,33.64,0,1,0,34.14,0,33.69,33.69,0,0,0,0,33.14Zm2.93,0A30.72,30.72,0,1,1,33.18,64.36,30.75,30.75,0,0,1,2.93,33.18Z"/><path class="cls-3" d="M22.1,23.23a7.32,7.32,0,0,1,7.2,7.42,1.47,1.47,0,0,1-2.93,0,4.39,4.39,0,1,0-8.77-.13,1.47,1.47,0,0,1-2.93-.05A7.32,7.32,0,0,1,22.1,23.23Z"/><path class="cls-4" d="M41,30.83a1.47,1.47,0,0,1-2.93,0A7.32,7.32,0,0,1,52.7,31a1.47,1.47,0,0,1-2.93,0A4.39,4.39,0,1,0,41,30.83Z"/></g></g></svg>