<svg xmlns="http://www.w3.org/2000/svg" viewBox="0 0 716.52 346.78" width="716" height="346"><defs><style>.cls-1{opacity:0.1;}.cls-2{fill:#82a79f;}</style></defs><title>arrival__decor</title><g id="Layer_2" data-name="Layer 2"><g id="Shapes"><g class="cls-1"><path class="cls-2" d="M622.61,198.68c-8.66.95-17.35,1.42-25.86,2.91-23.6,4.12-43.25,15.8-60.3,32.33-25.36,24.61-50.71,49.22-76.33,73.56-6.89,6.54-14.71,12.09-22.72,18.59,3-.82,5.47-1.38,7.91-2.21,39.6-13.4,72.29-37.2,101.39-66.68,15.86-16.06,32.56-31.21,52.81-41.86a91,91,0,0,1,38.54-10.38,19.58,19.58,0,0,1,9.32,2.2C667.65,217.45,687.8,228,708,238.5c1,.55,2.08,1.15,3.17,1.75a18.48,18.48,0,0,0,2.11-1.51c.87-.83,1.64-1.76,3.24-3.51-8.14-4.8-15.6-10-23.74-13.83-18.42-8.58-37.2-16.37-55.76-24.64a53.17,53.17,0,0,1-11-6.3,309.2,309.2,0,0,1-64.71-69.19c-18.94-27.53-42.51-50.08-69-70A558.7,558.7,0,0,0,410.08,0c7.07,6.34,14.31,12.5,21.18,19a587.66,587.66,0,0,1,64.41,72.21c29.31,38.86,66.75,68,108.91,91.49a47.5,47.5,0,0,1,8.4,5.48,29.06,29.06,0,0,1-3.5-.4c-17.6-4.18-35.22-8.31-52.78-12.69a23,23,0,0,1-8.65-4.12c-23.81-19.34-47.8-38.47-71.1-58.4C429.42,72,377.77,37.56,322.54,8.37c-.64-.33-1-1.18-1.52-1.78l-1.17,2C362.86,48.43,405.55,88.65,449,128c19.65,17.78,43.64,28.93,68.15,38.66,1.31.52,2.71.82,4.08,1.23l-.33,1.43c-7.28-.72-14.56-2.13-21.82-2-13.21.19-24.63-4.27-35.24-11.52-16.95-11.59-34.57-22.33-50.65-35-32-25.29-68-43-105.45-58.13-22.41-9.06-45.27-17-67.93-25.46-.23.47-.47.93-.71,1.39,2.24,1.34,4.5,2.63,6.7,4,41.67,26.58,83.44,53,125,79.8a306.36,306.36,0,0,0,92.45,40.27,10.25,10.25,0,0,1,3.8,1.76c-69.57-2.4-138.1,4.88-205.87,19.94l90.82-12c.17.57.35,1.14.53,1.71-30.72,19.65-47.59,51.6-70.19,78.45-15.44,18.34-30.57,37-45.83,55.44-.61.73-1.17,1.5-2.74,3.52a156.27,156.27,0,0,0,47.56-30.19c22.58-20.57,40.27-45.12,57.33-70.2,11.25-16.54,24.12-31.75,43.93-37.89,9.06-2.81,19.09-2.7,28.72-3.36a124.2,124.2,0,0,1,23.16.74c-5.08,1.29-10.25,2.3-15.22,3.91-17.59,5.69-30.43,17.65-41.11,32.14-12.41,16.85-23.64,34.67-37,50.68-14.41,17.21-30.74,32.82-45.25,48.1,20.05-7,38.43-20,55.84-34.59,20.83-17.49,37.47-38.85,55.14-59.29,12.24-14.15,25.06-27.87,41.37-37.46a26.68,26.68,0,0,1,13.68-3.63c52.66,1.89,104.44,9.35,154.78,25.45,1.74.56,3.46,1.2,5.16,1.86C622.14,197.89,622.32,198.33,622.61,198.68Z"/><path class="cls-2" d="M468,7.17c6.39,5.47,12.81,10.89,19.15,16.41A1005.15,1005.15,0,0,1,604.91,145.85c20.9,25.63,44.47,48.56,73.24,65.51,3.13,1.84,6.43,3.37,8.92,5.41-9.47-11.16-19.75-21.74-28.22-33.61-15.68-22-30.31-44.72-45.37-67.16-22.34-33.27-52.56-58-86.39-78.53C508.2,26,488.41,16.09,469,5.47Z"/><path class="cls-2" d="M595,192.69c-30.49-5.31-59.64-.33-87.44,13.14-28.24,13.69-51.49,33.7-72.41,56.79-19.34,21.35-39,42.37-57.38,62.22,41.81-18.59,81.62-42.5,111.85-81,25.75-32.79,62.14-47.22,103-51C593.42,192.77,594.2,192.74,595,192.69Z"/><path class="cls-2" d="M89.38,118.22q25.52,8.16,51,16.32c26.37,8.39,52.87,16.38,79.08,25.24,33.15,11.22,67.1,11.1,101.33,8.61A67.3,67.3,0,0,0,336,165.83c-1.37-.33-2.73-.77-4.12-1-35-5.06-69-13.25-101.79-26.83-27.35-11.34-56.55-14.86-85.73-17.68-18.15-1.75-36.37-2.66-54.56-3.95Z"/><path class="cls-2" d="M523.12,180.43c-36.13-2.9-69.45,3.31-95.37,30.95-14.86,15.85-28.48,32.86-43.23,48.82-15.69,17-32.07,33.33-48.46,50.28,16.14-4.45,31.27-10.93,43.55-21.87,19.53-17.4,38.39-35.59,57-54,20.68-20.52,42.84-38.68,70.46-49.08C512.29,183.53,517.75,182.11,523.12,180.43Z"/><path class="cls-2" d="M107.63,346.78C122.12,336.6,137,327,151,316.1a212.35,212.35,0,0,0,56.26-66.51c7.46-13.61,17.19-26.1,26.88-38.32,5.32-6.7,12.68-11.77,19-17.46-11.41.58-22.2,5.13-32.38,11-23.32,13.48-40.53,33-53.46,56.34a432.8,432.8,0,0,1-59.45,82.35c-.51.56-.92,1.21-1.37,1.81C106.87,345.81,107.25,346.29,107.63,346.78Z"/><path class="cls-2" d="M147.89,343c45.51-17.32,80.56-44.52,103.87-86,13.17-23.46,27.81-45.92,47.43-64.67,4.77-4.56,10-8.62,15.55-13.32-15.4,1.71-28.51,7.65-40.36,16.64-18.13,13.76-31,32-43.15,50.87-5.94,9.23-11.63,18.63-17.19,28.1a194.14,194.14,0,0,1-61.51,64.8C151.37,340.14,150.33,341.07,147.89,343Z"/><path class="cls-2" d="M147.19,86.58c12,2.42,23.11,4.45,34.11,6.91,42.21,9.45,82.9,23.41,122.71,40.34,30.89,13.14,63.66,19.66,96.92,23.65a11.82,11.82,0,0,0,2.05.06c-25.29-11.54-52.06-22.41-77.58-35.68-55.27-28.72-114.49-36.48-175.57-36A15.64,15.64,0,0,0,147.19,86.58Z"/><path class="cls-2" d="M193.42,196c-12.91,2.25-26,3.72-38.68,6.92-19.66,5-39.51,9.83-58.39,17-35,13.37-67.1,31.8-92.18,60.58A32,32,0,0,0,0,286.39c48.28-27.9,101.09-45.26,151.77-67.4,14.41-6.3,28.24-13.91,42.34-20.92Z"/><path class="cls-2" d="M29.72,189.35c17.86-1.18,34.82-3.12,51.79-3.26,35.1-.28,70.22,1,105.31.45,18.59-.3,37.15-3.1,55.71-4.88a38.4,38.4,0,0,0,6.33-1.64C175.3,162.71,102.72,170.77,29.72,189.35Z"/></g></g></g></svg>