<svg xmlns="http://www.w3.org/2000/svg" viewBox="0 0 114.35 127.72"><defs><style>.cls-1{fill:#84bbb3;}</style></defs><title>brain</title><g id="Layer_2" data-name="Layer 2"><g id="Text"><path class="cls-1" d="M112.78,73.63a6.16,6.16,0,0,1-.06-4.17c2.65-6.61,2.12-12.78-1.92-18.66a4.56,4.56,0,0,1-1.09-2.68c1.5-10.61-3.19-17.49-13-21.53.9-5.55.13-10.85-4.54-14.3A95.28,95.28,0,0,0,76.81,2.85C70.3-.24,63.38-1.87,57.09,3.79,53,.08,48.35-1,43.64.92,37.86,3.23,32.37,6.27,26.8,9.08c-7.22,3.64-10.71,9.37-9.22,17.44C7,31.63,3.92,36.8,4.57,47.86a5.37,5.37,0,0,1-1.11,3c-3.93,5.79-4.4,11.84-2,18.34a6.81,6.81,0,0,1,0,4.5A18.86,18.86,0,0,0,6.36,95.19a8,8,0,0,1,2.31,4.74c.72,7.54,4.41,12.95,10.86,16.73a21.06,21.06,0,0,1,4.69,3.72c6,6.43,13.3,9.07,21.61,6.16,4.26-1.5,7.89-4.82,12.06-7.48,10.1,11.56,23.26,11.54,33.27,0a12.3,12.3,0,0,1,3.41-2.32c6.68-3.71,10.42-9.24,11.1-16.94a7.27,7.27,0,0,1,2.1-4.45A18.61,18.61,0,0,0,112.78,73.63ZM44.05,120.84c-6.31,2-11.86-.21-16.63-6.47A8.36,8.36,0,0,0,24.09,112c-6.49-2.78-10-8.34-9.16-15.3.29-2.46-.59-3.72-2.59-5-5.71-3.53-7.4-8.46-5.4-14.84,3.12,1,6.21,2.08,9.38,2.82,2.09.48,4.45.19,4.79-2.5s-1.82-3.35-4-3.55c-5.16-.47-8.56-3.32-10.33-8S6.47,57,9.45,53.14a7.48,7.48,0,0,0,1.29-5.39C9.3,40.45,13.15,34,20.16,32.54s13.22,3.16,14.3,10.53c.34,2.28.65,4.68,3.74,4.19,2.78-.45,2.55-2.82,2.38-4.9A17.79,17.79,0,0,0,26.65,26.72c-2.74-.65-3.26-2-3.18-4.24a7.33,7.33,0,0,1,5.05-7c3.1-1.21,5.82-.39,8.15,1.83.64.6.93,1.7,1.64,2.09a23.21,23.21,0,0,0,3.93,1.3c.41-1.46,1.61-3.39,1.07-4.28-1.49-2.45-3.7-4.46-6.2-7.3,3.63-.95,7-2.19,10.51-2.65,3.84-.5,6.31,1.65,6.49,5.42.24,5,.06,10,.06,15.14-2-.25-3.84-.87-5.48-.57a4.53,4.53,0,0,0-3,2.66C45.5,29.8,46.91,31.6,48,32c5.81,2.21,6.26,2.68,6.26,8.84q0,32.24,0,64.48C54.24,113.3,50.67,118.71,44.05,120.84ZM57.78,119c-.28-.24-.14-.15,0,0ZM93.22,77.18c.28,2.69,2.6,3.06,4.72,2.58C101,79.06,104,78,107.4,77c2,6.12.34,11.29-5.31,14.72-2.17,1.32-3,2.69-2.64,5.29.81,6.35-2.67,11.92-8.37,14.68a14.4,14.4,0,0,0-4.9,3.89c-3.83,4.82-9.75,7.06-15.4,5.45a14.5,14.5,0,0,1-10.6-13.24c-.34-5.64,3.32-11.33,8.85-13.73.59-.25,1.49-.24,1.77-.66a38.17,38.17,0,0,0,2-4c-1.4-.56-3-1.88-4.16-1.54-2.77.84-5.31,2.43-8.17,3.84a14.37,14.37,0,0,1-.33-2.27c0-13.76,0-27.52,0-41.28,0-3.75,1.22-6.35,5.33-7.31,1.31-.3,3.14-2.14,3.18-3.32.08-2.45-2.14-2.84-4.24-2.56-1.24.17-2.46.5-4.1.85,0-8.42-.19-16.58.1-24.73A4.73,4.73,0,0,1,66,6.41c3.74.48,7.39,1.66,11.27,2.58-2.26,2.47-4.4,4.18-5.63,6.4-.71,1.26-.59,4,.32,4.92,1.8,1.86,3.32.17,4.57-1.54,2.63-3.58,5.85-4.7,9.32-3.32s5.42,4,4.92,7.79A4.71,4.71,0,0,1,88,26.42c-8.27,2.52-13.83,8.7-14.29,16.31-.13,2.17-.06,4.36,2.77,4.58,2.58.2,3-1.78,3.34-3.82,1.21-7.8,7.21-12.38,14.3-11S105,40.4,103.49,48.07a6.91,6.91,0,0,0,1.34,5C108,57,109.39,61.2,107.5,66A11.47,11.47,0,0,1,97.34,73.7C95.14,73.9,93,74.47,93.22,77.18Z"/><path class="cls-1" d="M23.63,72.76c2.78-.59,6.51-1.32,7.82-3.33C34.92,64.14,39.6,60.84,44.94,58c1.91-1,3.21-3,1.5-5.15s-3.44-.71-5.37.34c-2.51,1.35-5.37,2.69-8.13,2.79-6.22.23-10.87-4.46-11.63-11-.26-2.15-.8-4-3.32-3.79-2.8.18-3,2.31-2.84,4.52a13.07,13.07,0,0,0,.27,1.52C17,55,22,59.7,29.5,62l.44,1.45a58.21,58.21,0,0,1-7.16,3.47c-1.94.64-3.79,1.35-3,3.47C20.23,71.54,22.5,73,23.63,72.76Z"/><path class="cls-1" d="M43.94,73.55c-7.53,0-14.62,5.94-16.77,14a11,11,0,0,1-1.89,3.28c-.85,1.21-1.85,2.32-2.78,3.47,1.22.86,2.35,2.23,3.68,2.47,6.51,1.16,10.54,5,11.24,11.31.26,2.35.93,4.26,3.59,3.86s2.85-2.59,2.54-4.8c-.81-5.63-3.31-10.34-8.24-13.27-2.57-1.52-2.89-3.22-2-5.67a12.25,12.25,0,0,1,10.35-8.59c1.61-.25,3.08-1.35,4.14-1.84C47.92,74.61,46.6,73.56,43.94,73.55Z"/><path class="cls-1" d="M94.66,45c-.11-1.27-1.66-2.42-2.55-3.63-1.08,1-2.47,1.91-3.17,3.17s-.54,3-1.11,4.44c-3.14,7.77-12.19,9.87-19.17,4.43-1.71-1.34-3.32-2.25-5-.32s-.7,3.71,1,4.91c2,1.38,4.26,2.32,6.25,3.68a11.42,11.42,0,0,1,3.8,3.56c2.52,4.66,6.2,7.64,11.44,8,1.38.11,2.9-1.67,4.36-2.58-1.15-1.11-2.13-2.84-3.48-3.18-2.92-.75-5.25-1.84-6.64-5.11,1.47-.53,2.57-.87,3.62-1.33C90.43,58.25,95.16,51.34,94.66,45Z"/><path class="cls-1" d="M90.19,90.48c-2-7.85-7.74-13.24-15.7-14.38-2.36-.33-4.73-.19-5.08,2.65-.32,2.64,1.71,3.18,4,3.44,5.37.6,8.81,3.67,10.56,8.8.83,2.42.46,3.89-1.93,5.32-5.17,3.11-7.82,8-8.53,15.12.52.63,1.35,2.45,2.62,2.85.82.26,3.23-1.45,3.34-2.45.88-7.71,5.06-11.71,12.65-12.63a3.45,3.45,0,0,0,2.39-2.34c0-1.09-1.1-2.23-1.85-3.26S90.49,91.65,90.19,90.48Z"/></g></g></svg>