<svg xmlns="http://www.w3.org/2000/svg" viewBox="0 0 1583.98 683.11" width="1583" height="683"><defs><style>.cls-1{fill:#5d80b7;}.cls-1,.cls-2,.cls-3,.cls-4,.cls-5,.cls-6{opacity:0.15;}.cls-2{fill:#ffa8d6;}.cls-3{fill:#8097a6;}.cls-4{fill:#efbf36;}.cls-5{fill:#c90836;}.cls-6{fill:#7b3e26;}</style></defs><title>children__decor-center</title><g id="Layer_2" data-name="Layer 2"><g id="Text"><path class="cls-1" d="M1348.65,404.51h-41.72c-.6,7.53-4.74,12.25-10.84,12.42-5.91.17-10.17-4.23-11-11.4-3.79-.41-7.58-.91-11.39-1.15-.82-.05-1.69,1.16-2.57,1.21a46,46,0,0,1-5.49-.3,33.72,33.72,0,0,1,.76-6c.57-1.9,2-3.54,2.64-5.43,2.4-7.14,6-13.38,13.48-16,6.55-2.3,13.31-4,20-5.82,2.13-.57,3.65-1,4.5-3.52,1.88-5.59,6.33-8.28,12.64-9.45,0,5.38,0,10.3,0,15.23,0,5.49.91,6.5,6.33,7.07,1.11.12,2.25.06,3.36.19,6.92.8,12.5-.45,14.15-8.54a10.13,10.13,0,0,1,2.43-4.15c1.37-1.63,3.55-1.87,4.29.16,1.61,4.43,5,3,7.63,3.16-.56-1.17-1.8-3-1.5-3.28,1-1,2.6-2.15,3.77-2a95.87,95.87,0,0,1,13,3.12c1.23.39,2,2.1,3.76,4l-4.56.28-.31.67c1.09.56,2.14,1.2,3.28,1.66,9.82,3.93,15.54,10.85,16.25,21.68.32,4.74-1.24,6.91-6,6.76-5.06-.15-10.12-.65-15.13-1-1.4,8.69-5.82,13.25-12.07,12.89C1352.64,416.64,1348.86,412,1348.65,404.51Z"/><path class="cls-2" d="M362.08,47.55l-2.71-1.3c.23.94.4,1.66.64,2.62l-2.85,1c-.33-1.23-.66-2.42-1.14-4.17-.4,1.36-.67,2.24-.93,3.11-.26-5.73,2.62-11.51-.71-17-3.32,6.34-6.19,12.77-2.2,20.22.86,1.62.2,4.19-.18,6.24-.12.67-1.56,1.54-2.42,1.56a91.48,91.48,0,0,1-10.86-.25,4.58,4.58,0,0,1-3-2.16,42.35,42.35,0,0,1-2.36-6H310.75c.33-.39.05-.15-.13.15-1.14,2-2,5.41-3.43,5.65-4,.67-8.17,0-12.28-.1-.45-3.06-1.05-6.11-1.27-9.19-.08-1,1-2,1.29-3,.57-2.11-.3-3.38-2.54-3.4a13.89,13.89,0,0,0-4.08.35c-7.06,2.09-13.16.83-17.73-5.2-4.37-5.76-3.49-11.66.13-17.35-5.87-6.63-3-13.55,3.14-15.34a8.82,8.82,0,0,1,10.56,4.89c1.74,3.93.15,8.21-3.61,10.71A8.47,8.47,0,0,0,278,23.27c-.22.53,1.22,2.51,1.65,2.43a10.38,10.38,0,0,0,4.85-1.95c1.34-1.18,2.14-3,3-4.71,7.13-14.29,19.3-19.63,34.5-19,16.85.72,25.16,7.08,30.7,23.06,2.14,6.19,3.78,12.56,5.89,18.77C359.12,43.67,360.56,45.19,362.08,47.55Z"/><path class="cls-3" d="M68.2,210.05l-7.54,4.74c2.44,1.39,4.08,2.25,5.64,3.24,2,1.29,4.33,2.39,5.91,4.12,1.88,2.08,3.11,4.74,4.76,7.36l-13.25,8.33c-2-3.18-4.14-6.22-5.85-9.49-.62-1.18-.22-2.89-.29-4.36-.09-2-.18-4-.32-6.87l-13.39,8.42c.82,2.44,1.89,4,4.73,4.13a6.67,6.67,0,0,1,4.29,2.49c2.12,2.72,3.77,5.8,5.73,8.92l-13.68,8.6c-3.16-4.93-7.43-9.18-5.24-15.93.38-1.15-.86-2.83-1.53-4.79l-8.62,5.42C25.56,228,21.87,222,18,216.09A5.09,5.09,0,0,0,14.4,214c-.74,0-1.75,2-2.14,3.2-.76,2.45-.94,4.47,1.24,7,4.4,5.14,1,14.1-5.84,14.92l1.56-9.77-4.07-.72c-.25,3.31-.45,6.09-.71,9.65a19.1,19.1,0,0,1-2.9-2.35c-3.1-4-1.25-12.48,3.18-14.92,2.05-1.14,3.36-8.09,1.87-10-3.69-4.68-3.74-8.56-.29-13.23,1.4-1.88,2.6-3.92,4.21-6.38-1.25-2.18.24-3.67,2.1-6.1,2.42-3.17,2.82-7.88,4-11.74l5.55.27,6.29.27c.82,0,1.91.42,2.41,0,2.64-2,4.34-.67,5.74,1.2,3.76-1.1,7.37-2.28,11-3.19a9.51,9.51,0,0,1,10.82,5.42c1.67,3.42,7.74,4.81,10.78,2.48a5.35,5.35,0,0,1,1.59-.9c4.73-1.53,12.27,3.2,13.17,8.83l-8.63-3.27c-.58,1.43-1.18,2.93-1.61,4l9.74,2.58c-2.73,4.53-5.08,5.44-9,3.84-3.48-1.41-6.56-3-8.35-6.91-.74-1.62-4.43-2.35-6.86-2.54-1.05-.08-2.54,2.08-3.32,3.5-.34.62.43,2,1,2.93C60.53,197.91,64.2,203.69,68.2,210.05Z"/><path class="cls-4" d="M1046.85,371.84c-8.06,1.83-13,.15-15.88-5.78,5.79-4.07,11.83-4.67,19.15-.79l-7-13.33c-.86,1.62-1.49,4.32-3.2,5.61s-4.45,1.52-6.66,1.32c-4.79-.42-6.31-2.79-7.11-9.9-2.74,2.4-5.39,5.06-9,1.54s-4.23-7.79-1.66-12.13c-4-2.06-4.91-5.08-3.27-11.09,1.36-5,2.72-6.05,8.11-5.73-2.88-2.83-2.11-5.44.17-7.54a35.68,35.68,0,0,1,6.89-5.09c4.12-2.26,6-1.68,8.22,2.24.81-4.09,2.79-6.44,7.09-6,5.24.56,9.6,3.62,10.67,7.75,4.71-1,7.87.45,10.41,5,1.49,2.67,2.29,5.41-.92,7.59,4.21,2,5.36,4.7,4.25,9.69-1,4.5-3.24,6.35-8.11,6.39,2.35,3.38,2.24,6.77-.65,9.37-2.5,2.26-5.57,3.89-8.73,6l3.48,6.57c2-8.31,6.76-13,14.71-14.29,2.43,8.18-2.44,14.25-13,16.93.59.18,1.23.63,1.76.52,2.31-.49,4.56-1.38,6.88-1.65a6.35,6.35,0,0,1,6.83,5.56,16.85,16.85,0,0,0,1.14,5.35c1.46,3,.54,5.09-1.84,6.81a31.51,31.51,0,0,1-5.73,3.5c-6.43,2.78-6.84,2.43-10.46-3.46-1.54-2.51-4-4.42-5.74-6.84C1046.87,375.06,1047.09,373.42,1046.85,371.84Z"/><path class="cls-5" d="M958.81,584.42c-1.6,5.28-4.8,8.25-9.85,8.47-4.63.2-8.23-2.57-10.29-7.63-1.66-.75-3-1.77-4.4-1.88-2.08-.16-4.2.42-6.31.5-1.9.07-4.15.47-5.58-.39-.9-.53-1-3.2-.72-4.77,1-5.09,2.36-10.11,3.38-15.2.56-2.78,1.86-4.55,4.74-5s4-2,4.82-4.78a17.25,17.25,0,0,1,23.76-11c1.47.64,2.62,2.84,3.19,4.56.82,2.45,1,5.12,1.53,8.51,4.8-.24,9.62-.52,14.44-.71,5.37-.21,10.74-.34,16.1-.49,4.62-.12,9.64,6.38,8.53,10.85a19.17,19.17,0,0,0-.71,5.81c.07,1.15,1.25,2.19,1.81,3.34a6.15,6.15,0,0,1,.94,3c-.06.65-1.14,1.35-1.91,1.73-2,1-4,1.84-6.35,2.86-2.12,6.19-4.93,8.75-10,8.91-5,.16-8.47-2.51-10.58-7.73C969.84,580.39,964.59,580.58,958.81,584.42Z"/><path class="cls-3" d="M1061.93,29.2c-2.36.43-4.28,1.25-6.06,1a11,11,0,0,0-8.61,2.47,59.84,59.84,0,0,1-6.5,3.82c7.17,6,15.64,10.79,18.91,21.66-5.81-1.2-10.62-2.12-15.39-3.21-1.74-.41-3-.63-4.58.87s-4,2.37-6.18,3.35c-2,.9-4.17,1.78-5.5-.89a5,5,0,0,1,1.48-6.67,11.12,11.12,0,0,1,1.55-.88c-3-1.9-5.89-2.92-8.76,0a4.48,4.48,0,0,1-1.34.63c-6.05,2.79-7.54,1.8-7.2-4-6.86.2-13.79.71-20.7.45-2.82-.11-5.81-1.5-8.32-3-4.2-2.5-4.75-6.55-2.1-10.6.9-1.38,1.52-3,2.62-5.14-2.11,1-3.35,1.92-4.72,2.21-1.16.25-2.47-.19-3.71-.32.35-1.32.63-2.65,1.07-3.93.13-.38.69-.61,1.46-1.25A26.77,26.77,0,0,1,975.63,23c-.77-.83-1.73-2.26-1.47-3.07s1.9-1.71,2.93-1.7A142.42,142.42,0,0,1,992,19a10.85,10.85,0,0,0,8-1.6c5.86-3.83,12.55-3.7,19.2-2.64,2.46.39,4.83,1.31,7.29,1.64,4.35.59,8.73,1,13.1,1.25.72,0,1.58-1,2.24-1.69,1.56-1.61,2.9-3.46,4.59-4.91,2.27-2,4.65-1.41,4.56,1.3-.25,7.58,2.8,12.49,9.89,15C1061.09,27.42,1061.2,27.94,1061.93,29.2Z"/><path class="cls-6" d="M1543.35,599.58c-.27-2.21-1.25-4.63-.66-6.58a6.37,6.37,0,0,1,7.31-4.56c2,.34,3.74,2.34,5.33,4,2.85.91,5.58,1.12,8.24-1.78s8-1.6,10.58,1.71c2.7,3.52,2.09,7.69-1.32,10.56a4.08,4.08,0,0,0-1.43,2.9c.39,5.07-.82,9.41-5,12.6,1.14,1.05,2.28,1.94,3.22,3,4,4.58,8,9.24,12,13.82,3.55,4,3,8.43-1.43,9.44a23.26,23.26,0,0,1-5,.06c.21,2.72-1,4.38-4.14,4.4-6.07.06-10.87,3.35-15.28,6.85-5.63,4.48-9.81,4.1-13.57-2.1-.19-.31-.41-.6-.94-1.34-2.18.84-4.49,1.61-6.7,2.63a6,6,0,0,1-7.49-1.38c-4.25-4.37-1.91-14.51,1.46-19.21,4.44-6.17,12.48-7.23,16-13.59a56.39,56.39,0,0,1-5.45-5.86c-2.56-3.61-1.87-6.46,1.34-9.56a45,45,0,0,0,4.25-5.57Z"/><path class="cls-2" d="M1190.91,588.72a10,10,0,0,1-1.31,3.09c-1.08,1.26-2.55,3-3.88,3.07-3.23.06-5.22-2.45-5.9-5.34a4.8,4.8,0,0,1,1.94-4.1c5.27-2.82,8.88-6.68,12.25-11.84,6.55-10,21.86-8,27,2.93a4.2,4.2,0,0,0,3.81,2.7,26.07,26.07,0,0,1,7.17,1.89c1.29.59,3.13,2.78,2.84,3.46a21.09,21.09,0,0,1-4.56,6.69c-.42.41-3.19-1-4.37-2-1.41-1.32-2.28-3.23-3.29-4.75l-5.7,9.53c3.51,7.31,7.31,14.71,10.61,22.33a34.76,34.76,0,0,1,2.32,10.18c1,9.65-4,16.36-13,17.88-10,1.68-18-3.29-20.23-12.71-2.32-9.78-.59-19.33,1.85-28.82.53-2,1.22-4,1.71-5.62Z"/><path class="cls-1" d="M662.07,48.44,658,55.06c-.61-1.27-1.05-1.74-1-2.07,1.16-4.59-1.07-6-5.27-7.08A136.38,136.38,0,0,1,633,39.58C627,37.12,621.3,34,615.18,31l-4.47,4.72-1.28-.52L611,27.47,600.11,16.8c2.38-1.71,4.24-2.87,5.9-4.27,4.06-3.42,8.86-2.53,13.47-2.34a6.4,6.4,0,0,0,5.75-2.33,23,23,0,0,1,25.95-6.15c9.63,4,15.06,12.58,15,23a7.54,7.54,0,0,0,2.19,4.95c4.06,3.85,7.57,8,8.76,13.58,1.08,5.09.25,6.1-4.93,5.92C668.67,49,665.2,48.66,662.07,48.44Z"/><path class="cls-4" d="M53,663.4c-.13-2.82-.21-4.55-.29-6.25L48,652.61c2.15-.23,3-.26,3.76-.42,2.94-.61,5.15-1.46,5.49-5.33.65-7.38,7.28-12.45,14.68-11.92a10.92,10.92,0,0,1,10.52,9.82c.69,5,1.74,6,6.78,5.69a66.21,66.21,0,0,0,8.52-1.22c5.4-1,7-2.55,7.89-7.94.51-3.27,3.15-3.84,5.18-3.57,3,.4,6.15,1.42,7.43,5.08a28.71,28.71,0,0,1-4,27.68c-8.73,12.08-28.51,16.27-41.63,9.18-6.3-3.4-8.57-7.42-7.51-14.34.45-2.92-.31-4.62-2.81-6.15-2.7-1.65-4.16.32-6,1.44A40.13,40.13,0,0,0,53,663.4Z"/><path class="cls-5" d="M133.15,362l-11.83,7.77c.82-8.08,14.19-17.83,18.78-14.94,7.6-6.22,14.72-12.92,22.73-18.31,6.1-4.13,13.14-7.09,20.1-9.66,6-2.22,7.76-.33,6.66,6.1-2,11.55-7.2,21.72-13.75,31.27-1.9,2.78-4,5.4-6,8.12a15,15,0,0,0-3.36,8.35c-.63,7.85-6.16,13.17-12.17,17.68l-1.37-.72,5.64-11.25c-5.91,3.28-9.93-.77-14.69-2.77a46.14,46.14,0,0,1-4.8,2.92,3.07,3.07,0,0,1-2.72-.07,2.9,2.9,0,0,1-.29-2.65,9.55,9.55,0,0,0-1.49-10.2,21.86,21.86,0,0,1-1.86-3.23c-1.47-2.74-2.06-5.4,1.14-7.63Z"/><path class="cls-6" d="M816.7,306.6a7.81,7.81,0,0,0-2.61-4.39c-3.54-2.94-7.48-5.41-11-8.33-4.24-3.49-8.26-7.25-12.72-11.19,8.71-4.88,12.13-11.26,9.68-20.12,4.41-2.39,6.21-5.39,5.63-9.24a7.8,7.8,0,0,0-6.72-6.64c-4.34-.53-7,1.76-8.54,5.79a22.48,22.48,0,0,0-20.55.5c-.29-3.93-1.4-6.79-5.69-6.78a8.89,8.89,0,0,0-8.55,6.6c-1.29,4.53,0,6.84,4.32,9.32.25,4.52-.44,8.78.94,12.19s4.87,6.16,8.19,10.09c-3.84,3.73-8.28,8-12.66,12.36-1.18,1.16-2.17,2.5-3.4,3.94-5-1.12-9.1.51-10.08,5-1.56,7.09-.19,13.72,5.12,19,2.9,2.89,6.45,2.54,9.22-.44,3.57-3.82,7.19-7.6,10.84-11.46,7.75,3.55,15.4,2.37,21,.55,4.64,3.83,8.8,6.71,12.28,10.27,3.66,3.74,7.36,4.19,10.81.16C816.47,318.83,817.65,312.9,816.7,306.6Zm-58.12,2.67-1.21-3.41c2.48-1.76,4.69-3.33,6.84-4.84C765.67,305.68,761.77,307,758.58,309.27Zm42.25-.23c-3.38-1.46-5.87-3.35-5.57-7.68.15-2-.69-4.13-1.15-6.59l8.92,8.54C802.35,305.08,801.6,307,800.83,309Z"/></g></g></svg>