<?xml version="1.0" encoding="utf-8"?>
<!-- Generator: Adobe Illustrator 22.1.0, SVG Export Plug-In . SVG Version: 6.00 Build 0)  -->
<svg version="1.1" id="Layer_1" xmlns="http://www.w3.org/2000/svg" xmlns:xlink="http://www.w3.org/1999/xlink" x="0px" y="0px"
	 viewBox="0 0 1161 1869" style="enable-background:new 0 0 1161 1869;" xml:space="preserve" width="1161" height="1869">
<style type="text/css">
	.st0{opacity:0.1;fill:#82A79F;enable-background:new    ;}
	.st1{fill:url(#SVGID_1_);}
	.st2{fill:url(#SVGID_2_);}
	.st3{fill:url(#SVGID_3_);}
	.st4{fill:url(#SVGID_4_);}
	.st5{fill:url(#SVGID_5_);}
	.st6{fill:url(#SVGID_6_);}
	.st7{fill:url(#SVGID_7_);}
	.st8{fill:url(#SVGID_8_);}
	.st9{fill:url(#SVGID_9_);}
	.st10{fill:url(#SVGID_10_);}
</style>
<title>doctors__decor-2</title>
<g id="Layer_2_1_">
	<g id="Background">
		<path class="st0" d="M630,934.2c-251.5,331.9,160.1,538.9,251.9,781.6c204.2,539.8,327.4-500.2,260.7-758.8S973.8,280,973.8,61.3
			C973.8-238.9,848.5,645.7,630,934.2z"/>
	</g>
	<g id="Shapes">
		
			<linearGradient id="SVGID_1_" gradientUnits="userSpaceOnUse" x1="282.4248" y1="835.61" x2="929.6949" y2="835.61" gradientTransform="matrix(0.9995 0 0 -0.9995 0.4 1869.395)">
			<stop  offset="0" style="stop-color:#87A9A2"/>
			<stop  offset="0.12" style="stop-color:#87A9A2;stop-opacity:0.96"/>
			<stop  offset="0.29" style="stop-color:#94B0A9;stop-opacity:0.86"/>
			<stop  offset="0.48" style="stop-color:#AABCB5;stop-opacity:0.68"/>
			<stop  offset="0.69" style="stop-color:#C9CCC7;stop-opacity:0.43"/>
			<stop  offset="0.92" style="stop-color:#EFE0DC;stop-opacity:0.13"/>
			<stop  offset="1" style="stop-color:#FFE8E5;stop-opacity:0"/>
		</linearGradient>
		<path class="st1" d="M829.4,1183.2c-11.4-3.1-22.6-6.9-34.1-9.2c-31.8-6.6-62.4-1.6-92.2,10.8c-44.2,18.4-88.5,36.8-132.9,54.8
			c-12,4.8-24.6,7.9-38,12.1c4.1,0.4,7.6,1,11.1,1.1c56.6,2.8,109.7-10.9,161.1-33.6c28-12.4,56.6-23.1,87.5-26.5
			c18.2-2,36.5,0.1,53.8,6.1c4.1,1.6,7.8,4.1,10.7,7.4c20.5,23.1,40.6,46.5,60.9,69.8c1.1,1.2,2.1,2.5,3.1,3.8
			c1.2-0.2,2.3-0.5,3.4-0.9c1.5-0.6,2.9-1.4,5.8-2.8c-7.9-10.1-14.7-20.4-23.1-29.3c-19-20-38.8-39.2-58.1-58.9
			c-4.1-4-7.7-8.5-10.7-13.4c-22-37.3-37.5-77.5-47.2-119.5c-10.2-44.2-28.7-84.4-52.2-122.6c-23-37.4-49.1-72.8-78.2-105.7
			c5.8,11.5,11.8,22.9,17.2,34.6c18.5,39.7,33.6,80.9,45.3,123.2c17.6,63.6,50.3,119,91.8,169.7c3,3.4,5.6,7.1,7.9,11.1
			c-1.4-0.7-2.9-1.4-4.2-2.2c-20.1-14.1-40.3-28-60.3-42.3c-3.6-2.5-6.6-5.7-8.9-9.5c-20.4-36.3-41.1-72.3-60.6-109.1
			c-39.7-75-87.7-144.1-142.9-208.4c-0.6-0.7-0.7-2-1-3l-2.5,1.9c34.4,71.7,68.2,143.7,103.5,215c15.9,32.2,40.6,58.2,66.7,82.7
			c1.4,1.3,3,2.4,4.5,3.6l-1.1,1.6c-8.8-4.5-17.3-10-26.5-13.4c-16.8-6.3-29-17.7-38.7-32.1c-15.7-23.1-32.5-45.4-46.5-69.5
			c-27.8-47.8-64.4-88.1-104.1-125.9c-23.8-22.6-48.6-44-73-66l-1.6,1.4c2.1,2.8,4.4,5.6,6.4,8.4c39.3,54.3,78.8,108.5,117.9,162.9
			c26.6,37.4,59.3,70.1,96.6,96.9c1.6,1.1,2.9,2.5,3.9,4.1c-86.6-37.7-176.7-62.6-269.7-77.4l120.5,30.2l-0.2,2.4
			c-48.5,9.5-85.7,41.4-127.6,64c-28.6,15.5-57,31.4-85.4,47.1c-1.1,0.6-2.2,1.3-5.2,3.1c25.7-0.2,51.1-5.1,75-14.4
			c38.7-14.7,73.3-36.9,107.3-60c22.4-15.3,46.2-28,74.3-25.9c12.8,1,25.4,6.1,37.9,10.1c10,3.2,19.6,7.4,28.8,12.5
			c-7-0.9-14.1-2.2-21.2-2.6c-25-1.6-47.2,7.1-67.9,20.1c-24.1,15.1-47.1,32-72,45.5c-26.8,14.5-55.1,26.1-81,38.2
			c28.8,1.2,58.4-6.1,87.7-15.8c35-11.7,66.6-30.3,99.1-47.3c22.5-11.8,45.5-22.7,70.9-26.7c6.4-1,13-0.2,19.1,2.2
			c65.5,28.6,127.1,63.8,182.6,109.2c1.9,1.6,3.8,3.2,5.6,4.9C829.2,1181.9,829.2,1182.6,829.4,1183.2z"/>
		
			<linearGradient id="SVGID_2_" gradientUnits="userSpaceOnUse" x1="729.7048" y1="819.3151" x2="901.7848" y2="819.3151" gradientTransform="matrix(0.9995 0 0 -0.9995 0.4 1869.395)">
			<stop  offset="0" style="stop-color:#87A9A2"/>
			<stop  offset="0.12" style="stop-color:#87A9A2;stop-opacity:0.96"/>
			<stop  offset="0.29" style="stop-color:#94B0A9;stop-opacity:0.86"/>
			<stop  offset="0.48" style="stop-color:#AABCB5;stop-opacity:0.68"/>
			<stop  offset="0.69" style="stop-color:#C9CCC7;stop-opacity:0.43"/>
			<stop  offset="0.92" style="stop-color:#EFE0DC;stop-opacity:0.13"/>
			<stop  offset="1" style="stop-color:#FFE8E5;stop-opacity:0"/>
		</linearGradient>
		<path class="st2" d="M729.7,864.6c5.3,10.1,10.7,20.1,16,30.2c35.2,68.4,64.5,139.6,87.7,212.9c13.6,42.7,31.9,83.4,59.8,119.1
			c3,3.9,6.4,7.4,8.6,11.3c-6.4-18.8-14.1-37.3-18.9-56.5c-8.8-35.6-16-71.5-23.8-107.3c-11.6-53.1-37.4-99.4-69.9-142.1
			c-18.1-23.8-38.2-46.2-57.3-69.3L729.7,864.6z"/>
		
			<linearGradient id="SVGID_3_" gradientUnits="userSpaceOnUse" x1="457.4748" y1="692.4589" x2="797.5349" y2="692.4589" gradientTransform="matrix(0.9995 0 0 -0.9995 0.4 1869.395)">
			<stop  offset="0" style="stop-color:#87A9A2"/>
			<stop  offset="0.12" style="stop-color:#87A9A2;stop-opacity:0.96"/>
			<stop  offset="0.29" style="stop-color:#94B0A9;stop-opacity:0.86"/>
			<stop  offset="0.48" style="stop-color:#AABCB5;stop-opacity:0.68"/>
			<stop  offset="0.69" style="stop-color:#C9CCC7;stop-opacity:0.43"/>
			<stop  offset="0.92" style="stop-color:#EFE0DC;stop-opacity:0.13"/>
			<stop  offset="1" style="stop-color:#FFE8E5;stop-opacity:0"/>
		</linearGradient>
		<path class="st3" d="M797.5,1161.9c-35.8-21.9-75.1-30.1-116.9-27c-42.4,3.2-81.7,16.9-119.6,35.6c-35,17.3-70.4,34-103.4,49.9
			c62-2.6,124.1-13,181.4-46.4c48.8-28.5,101.9-28.6,155.4-13C795.5,1161.2,796.5,1161.5,797.5,1161.9z"/>
		
			<linearGradient id="SVGID_4_" gradientUnits="userSpaceOnUse" x1="196.4748" y1="963.4852" x2="483.9748" y2="963.4852" gradientTransform="matrix(0.9995 0 0 -0.9995 0.4 1869.395)">
			<stop  offset="0" style="stop-color:#87A9A2"/>
			<stop  offset="0.12" style="stop-color:#87A9A2;stop-opacity:0.96"/>
			<stop  offset="0.29" style="stop-color:#94B0A9;stop-opacity:0.86"/>
			<stop  offset="0.48" style="stop-color:#AABCB5;stop-opacity:0.68"/>
			<stop  offset="0.69" style="stop-color:#C9CCC7;stop-opacity:0.43"/>
			<stop  offset="0.92" style="stop-color:#EFE0DC;stop-opacity:0.13"/>
			<stop  offset="1" style="stop-color:#FFE8E5;stop-opacity:0"/>
		</linearGradient>
		<path class="st4" d="M196.8,816c18.8,15.3,37.5,30.7,56.3,46c29.1,23.7,58.5,47,87.2,71.2c36.2,30.7,79.1,47.4,123.5,61.3
			c6.6,2.2,13.4,3.7,20.4,4.3c-1.6-1.1-3.1-2.3-4.7-3.3c-41.6-23.8-80.5-51.1-115-84.6c-28.9-27.9-64-46.9-99.4-65
			c-22-11.2-44.5-21.5-66.8-32.2L196.8,816z"/>
		
			<linearGradient id="SVGID_5_" gradientUnits="userSpaceOnUse" x1="412.0048" y1="733.7112" x2="712.9348" y2="733.7112" gradientTransform="matrix(0.9995 0 0 -0.9995 0.4 1869.395)">
			<stop  offset="0" style="stop-color:#87A9A2"/>
			<stop  offset="0.12" style="stop-color:#87A9A2;stop-opacity:0.96"/>
			<stop  offset="0.29" style="stop-color:#94B0A9;stop-opacity:0.86"/>
			<stop  offset="0.48" style="stop-color:#AABCB5;stop-opacity:0.68"/>
			<stop  offset="0.69" style="stop-color:#C9CCC7;stop-opacity:0.43"/>
			<stop  offset="0.92" style="stop-color:#EFE0DC;stop-opacity:0.13"/>
			<stop  offset="1" style="stop-color:#FFE8E5;stop-opacity:0"/>
		</linearGradient>
		<path class="st5" d="M713,1110.6c-44.1-21.7-89.3-30.4-135.7-8.5c-26.6,12.6-52.3,27.3-78.8,40c-28.3,13.6-57.1,26.1-86.2,39.3
			c22.6,2.4,44.9,1.8,65.8-5.9c33.3-12.2,66.1-25.8,98.8-39.8c36.3-15.6,73.3-27.5,113.4-26.8C697.8,1109.1,705.4,1110,713,1110.6z"
			/>
		
			<linearGradient id="SVGID_6_" gradientUnits="userSpaceOnUse" x1="104.8848" y1="818.592" x2="365.4848" y2="818.592" gradientTransform="matrix(0.9995 0 0 -0.9995 0.4 1869.395)">
			<stop  offset="0" style="stop-color:#87A9A2"/>
			<stop  offset="0.12" style="stop-color:#87A9A2;stop-opacity:0.96"/>
			<stop  offset="0.29" style="stop-color:#94B0A9;stop-opacity:0.86"/>
			<stop  offset="0.48" style="stop-color:#AABCB5;stop-opacity:0.68"/>
			<stop  offset="0.69" style="stop-color:#C9CCC7;stop-opacity:0.43"/>
			<stop  offset="0.92" style="stop-color:#EFE0DC;stop-opacity:0.13"/>
			<stop  offset="1" style="stop-color:#FFE8E5;stop-opacity:0"/>
		</linearGradient>
		<path class="st6" d="M105.9,1113.4c23.4-5.6,47-10.4,70-17.1c38.5-11.2,73-30.1,104.1-55.9c16.2-13.5,34.7-24.4,53-35
			c10-5.8,21.8-8.5,32.7-12.6c-14.7-5-30.6-4.6-46.3-2.2c-36.1,5.4-67.6,21.5-95.5,44.4c-35.6,29.2-74.5,54.2-116,74.3
			c-0.9,0.4-1.7,1.1-2.6,1.6C105.5,1111.9,105.7,1112.7,105.9,1113.4z"/>
		
			<linearGradient id="SVGID_7_" gradientUnits="userSpaceOnUse" x1="158.3048" y1="804.8101" x2="450.6748" y2="804.8101" gradientTransform="matrix(0.9995 0 0 -0.9995 0.4 1869.395)">
			<stop  offset="0" style="stop-color:#87A9A2"/>
			<stop  offset="0.12" style="stop-color:#87A9A2;stop-opacity:0.96"/>
			<stop  offset="0.29" style="stop-color:#94B0A9;stop-opacity:0.86"/>
			<stop  offset="0.48" style="stop-color:#AABCB5;stop-opacity:0.68"/>
			<stop  offset="0.69" style="stop-color:#C9CCC7;stop-opacity:0.43"/>
			<stop  offset="0.92" style="stop-color:#EFE0DC;stop-opacity:0.13"/>
			<stop  offset="1" style="stop-color:#FFE8E5;stop-opacity:0"/>
		</linearGradient>
		<path class="st7" d="M158.6,1128.7c66,0.8,123.8-16,173.9-56.8c28.3-23,58-44.1,92.1-58c8.3-3.4,17-5.9,26.3-9.1
			c-20.3-5.5-39.8-4.6-59.2,0.9c-29.7,8.3-55.1,24.9-79.8,42.7c-12.1,8.7-24,17.7-35.7,26.9c-32.2,25.4-69.8,42.8-109.9,51.1
			C164.4,1126.9,162.6,1127.5,158.6,1128.7z"/>
		
			<linearGradient id="SVGID_8_" gradientUnits="userSpaceOnUse" x1="285.2148" y1="956.4951" x2="572.7048" y2="956.4951" gradientTransform="matrix(0.9995 0 0 -0.9995 0.4 1869.395)">
			<stop  offset="0" style="stop-color:#87A9A2"/>
			<stop  offset="0.12" style="stop-color:#87A9A2;stop-opacity:0.96"/>
			<stop  offset="0.29" style="stop-color:#94B0A9;stop-opacity:0.86"/>
			<stop  offset="0.48" style="stop-color:#AABCB5;stop-opacity:0.68"/>
			<stop  offset="0.69" style="stop-color:#C9CCC7;stop-opacity:0.43"/>
			<stop  offset="0.92" style="stop-color:#EFE0DC;stop-opacity:0.13"/>
			<stop  offset="1" style="stop-color:#FFE8E5;stop-opacity:0"/>
		</linearGradient>
		<path class="st8" d="M285.5,804.9c14,9,26.9,17.1,39.6,25.7c48.5,33,93,70.8,134.7,112c32.4,32,70.5,56.5,110.5,78.1
			c0.8,0.4,1.7,0.8,2.6,1.1c-26.2-27.2-54.5-54.2-80.1-83.7c-55.4-63.8-126.3-103.1-203.5-132.9C287.9,805,286.7,804.9,285.5,804.9z
			"/>
		
			<linearGradient id="SVGID_9_" gradientUnits="userSpaceOnUse" x1="-0.1652" y1="904.1111" x2="386.2548" y2="904.1111" gradientTransform="matrix(0.9995 0 0 -0.9995 0.4 1869.395)">
			<stop  offset="0" style="stop-color:#87A9A2"/>
			<stop  offset="0.12" style="stop-color:#87A9A2;stop-opacity:0.96"/>
			<stop  offset="0.29" style="stop-color:#94B0A9;stop-opacity:0.86"/>
			<stop  offset="0.48" style="stop-color:#AABCB5;stop-opacity:0.68"/>
			<stop  offset="0.69" style="stop-color:#C9CCC7;stop-opacity:0.43"/>
			<stop  offset="0.92" style="stop-color:#EFE0DC;stop-opacity:0.13"/>
			<stop  offset="1" style="stop-color:#FFE8E5;stop-opacity:0"/>
		</linearGradient>
		<path class="st9" d="M289.3,966c-17.4-3.6-34.7-8.3-52.3-10.5c-27.3-3.5-54.7-7.3-82.1-7.6c-50.8-0.6-100.5,6.7-146.5,30.5
			c-2.9,1.5-5.7,3.2-8.2,5.3c74.8-11.1,150.1-6.7,225-9.4c21.3-0.8,42.6-3.5,63.8-5.3L289.3,966z"/>
		
			<linearGradient id="SVGID_10_" gradientUnits="userSpaceOnUse" x1="85.7148" y1="945.1601" x2="366.9648" y2="945.1601" gradientTransform="matrix(0.9995 0 0 -0.9995 0.4 1869.395)">
			<stop  offset="0" style="stop-color:#87A9A2"/>
			<stop  offset="0.12" style="stop-color:#87A9A2;stop-opacity:0.96"/>
			<stop  offset="0.29" style="stop-color:#94B0A9;stop-opacity:0.86"/>
			<stop  offset="0.48" style="stop-color:#AABCB5;stop-opacity:0.68"/>
			<stop  offset="0.69" style="stop-color:#C9CCC7;stop-opacity:0.43"/>
			<stop  offset="0.92" style="stop-color:#EFE0DC;stop-opacity:0.13"/>
			<stop  offset="1" style="stop-color:#FFE8E5;stop-opacity:0"/>
		</linearGradient>
		<path class="st10" d="M86.1,876c23.1,7.4,45.5,13.4,67,21.7c44.4,17.1,88.1,36.3,132.6,53c23.6,8.9,48.4,14.6,72.7,21.6
			c3,0.9,6.2,0.8,8.8,1.1C283,915,187.4,889,86.1,876z"/>
	</g>
</g>
</svg>
