<svg xmlns="http://www.w3.org/2000/svg" viewBox="0 0 891.58 406.17" width="891" height="406"><defs><style>.cls-1{opacity:0.1;}.cls-2{fill:gray;}</style></defs><title>guest-comfort__decor-right</title><g id="Layer_2" data-name="Layer 2"><g id="Text"><g class="cls-1"><path class="cls-2" d="M778.72,265.57c-10.81.37-21.61.16-32.28,1.21-29.58,2.93-55,15.57-77.61,34.47-33.66,28.11-67.31,56.24-101.26,84-9.13,7.46-19.33,13.61-29.84,20.92,3.72-.74,6.9-1.21,10-2C598,391.23,640.64,364.78,679.37,331c21.11-18.42,43.18-35.62,69.23-46.94a112.79,112.79,0,0,1,48.65-9.3,24.31,24.31,0,0,1,11.33,3.58c24.15,14.64,48.13,29.57,72.15,44.41,1.26.77,2.48,1.61,3.78,2.46a24.57,24.57,0,0,0,2.74-1.68c1.16-.94,2.19-2,4.33-4-9.63-6.7-18.38-13.87-28.11-19.32-22-12.31-44.53-23.68-66.74-35.63a65.85,65.85,0,0,1-13-8.81A383.52,383.52,0,0,1,710,164.11c-20.91-35.83-48-65.91-78.92-93A692,692,0,0,0,534,.06c8.17,8.49,16.55,16.79,24.46,25.52a729,729,0,0,1,73.07,95.31c32.69,50.8,76.34,90.29,126.36,123.29a58.4,58.4,0,0,1,9.89,7.56,38.21,38.21,0,0,1-4.29-.82c-21.4-6.8-42.83-13.53-64.16-20.58a28.42,28.42,0,0,1-10.33-5.9c-27.68-26.12-55.61-52-82.62-78.83C551.28,90.92,490.52,43.56,424.86,2.35,424.1,1.87,423.71.8,423.14,0l-1.63,2.34c49.56,53.31,98.69,107,148.88,159.73,22.68,23.82,51.34,39.83,80.78,54.13,1.58.77,3.29,1.27,4.94,1.9l-.54,1.74c-8.94-1.57-17.82-4-26.82-4.52-16.36-1-30.08-7.55-42.55-17.51-19.91-15.91-40.74-30.82-59.46-48-37.29-34.25-80.22-59.49-125.16-81.67-26.91-13.27-54.47-25.23-81.74-37.77l-1,1.65c2.64,1.87,5.32,3.67,7.91,5.61,49.14,36.73,98.39,73.31,147.34,110.29a380.55,380.55,0,0,0,110.72,58.37,12.63,12.63,0,0,1,4.53,2.53c-85.88-9.39-171.38-6.69-256.65,5.7l113.52-6.43c.16.72.33,1.44.5,2.17-39.84,21.48-63.66,59.47-94.11,90.62-20.8,21.28-41.24,42.92-61.84,64.4-.82.85-1.59,1.75-3.71,4.1a194.18,194.18,0,0,0,61.65-33c29.84-23.38,54-52.13,77.43-81.61,15.45-19.43,32.78-37.07,57.86-42.85,11.47-2.64,23.89-1.58,35.87-1.5a153.23,153.23,0,0,1,28.59,3.05c-6.41,1.12-12.9,1.9-19.2,3.44-22.29,5.42-39.29,19-53.84,36-16.92,19.71-32.46,40.73-50.52,59.31-19.41,20-41.06,37.79-60.44,55.37,25.47-6.81,49.41-21.19,72.31-37.67,27.4-19.73,50-44.63,73.72-68.3,16.45-16.4,33.58-32.19,54.66-42.56a33,33,0,0,1,17.27-3.23c65,7.2,128.41,21.2,189.23,45.78,2.1.85,4.16,1.79,6.21,2.77C778.22,264.55,778.39,265.1,778.72,265.57Z"/><path class="cls-2" d="M605,14.27c7.4,7.36,14.85,14.66,22.18,22.08a1246,1246,0,0,1,134.51,162.2c23.51,33.64,50.57,64.2,84.62,87.84,3.69,2.56,7.64,4.75,10.54,7.51-10.69-14.68-22.45-28.72-31.83-44.2-17.39-28.66-33.4-58.15-50-87.3-24.58-43.25-59.7-76.69-99.69-105.18-22.32-15.9-45.9-30-68.92-44.95Z"/><path class="cls-2" d="M745.08,255.61c-37.25-9.39-73.8-5.91-109.45,8.2-36.21,14.34-66.84,37-94.86,63.61-25.91,24.64-52.23,48.84-76.75,71.72C517.47,380,569,354.07,609.92,309.22c34.89-38.22,81.26-52.72,132.24-53.64C743.13,255.56,744.1,255.6,745.08,255.61Z"/><path class="cls-2" d="M126.13,116.81Q157,129.26,187.8,141.72c31.86,12.82,63.93,25.14,95.55,38.54,40,16.94,82,19.92,124.62,20a83.47,83.47,0,0,0,19-1.77c-1.67-.54-3.31-1.21-5-1.58-42.8-9.48-84.2-22.77-123.51-42.6-32.8-16.55-68.62-23.61-104.49-29.78-22.29-3.84-44.76-6.65-67.15-9.93Z"/><path class="cls-2" d="M657.25,233.81c-44.44-6.92-86.26-2.31-120.89,29.52-19.86,18.24-38.28,38-58,56.43-21,19.57-42.76,38.3-64.62,57.77,20.4-4,39.71-10.64,55.93-23.06,25.77-19.73,50.79-40.51,75.48-61.6,27.49-23.5,56.59-43.94,91.74-54.26C643.56,236.64,650.46,235.39,657.25,233.81Z"/><path class="cls-2" d="M127.65,401.4c18.88-11.27,38.23-21.83,56.53-34,30.59-20.3,55.61-46.13,75.77-77.14,10.5-16.16,23.69-30.73,36.81-45,7.19-7.8,16.77-13.4,25.12-19.87-14.17-.33-27.95,4.31-41.09,10.65-30.11,14.53-53.22,37.15-71.37,64.81a537,537,0,0,1-81.17,96.45c-.68.64-1.25,1.4-1.87,2.1Z"/><path class="cls-2" d="M177.83,400.4c57.93-17.25,103.82-47.69,136.49-96.89C332.8,275.69,353,249.23,379,227.84c6.33-5.21,13.22-9.74,20.48-15.05-19.21.69-36,6.84-51.48,16.87-23.72,15.36-41.35,36.77-58.1,59-8.21,10.88-16.12,22-23.87,33.21a241,241,0,0,1-82.12,74.53C182.4,397.21,181,398.27,177.83,400.4Z"/><path class="cls-2" d="M200.61,83c14.65,4.11,28.19,7.64,41.57,11.7,51.38,15.59,100.45,36.62,148.18,61.25,37,19.1,77,30.19,117.77,38.2a14.06,14.06,0,0,0,2.54.27c-30.24-16.62-62.37-32.54-92.74-51.31-65.76-40.66-138.35-55.72-214-60.77A18.08,18.08,0,0,0,200.61,83Z"/><path class="cls-2" d="M247.74,222.68c-16.19,1.59-32.54,2.21-48.52,5-24.79,4.34-49.8,8.52-73.84,15.71-44.55,13.31-86,33.17-119.67,66.47A39.85,39.85,0,0,0,0,316.73c62.34-30.08,129.29-46.7,194.07-69.44,18.41-6.46,36.23-14.61,54.33-22Z"/><path class="cls-2" d="M45.73,199.35c22.21.19,43.39-.65,64.41.75,43.47,2.89,86.82,7.73,130.3,10.26,23,1.34,46.27-.41,69.41-.9,2.82-.06,5.62-1,8-1.45C228.38,179.81,137.8,183.09,45.73,199.35Z"/></g></g></g></svg>