<svg xmlns="http://www.w3.org/2000/svg" xmlns:xlink="http://www.w3.org/1999/xlink" viewBox="0 0 224.46 112.42"><defs><style>.cls-1{fill:url(#linear-gradient);}.cls-2{fill:url(#linear-gradient-2);}.cls-3{fill:url(#linear-gradient-3);}.cls-4{fill:url(#linear-gradient-4);}.cls-5{fill:url(#linear-gradient-5);}.cls-6{fill:url(#linear-gradient-6);}.cls-7{fill:url(#linear-gradient-7);}.cls-8{fill:url(#linear-gradient-8);}.cls-9{fill:url(#linear-gradient-9);}.cls-10{fill:url(#linear-gradient-10);}</style><linearGradient id="linear-gradient" x1="419.73" y1="56.84" x2="566.63" y2="56.84" gradientTransform="matrix(-0.88, -0.47, -0.47, 0.88, 555.14, 233.58)" gradientUnits="userSpaceOnUse"><stop offset="0" stop-color="#2082ba"/><stop offset="0.11" stop-color="#2885bb" stop-opacity="0.97"/><stop offset="0.27" stop-color="#3d8fbf" stop-opacity="0.87"/><stop offset="0.45" stop-color="#609fc6" stop-opacity="0.71"/><stop offset="0.64" stop-color="#91b5cf" stop-opacity="0.49"/><stop offset="0.86" stop-color="#cfd1db" stop-opacity="0.21"/><stop offset="1" stop-color="#ffe7e4" stop-opacity="0"/></linearGradient><linearGradient id="linear-gradient-2" x1="527.79" y1="63.17" x2="560.85" y2="63.17" xlink:href="#linear-gradient"/><linearGradient id="linear-gradient-3" x1="458.57" y1="88.15" x2="538.14" y2="88.15" xlink:href="#linear-gradient"/><linearGradient id="linear-gradient-4" x1="405.53" y1="21.37" x2="468.65" y2="21.37" xlink:href="#linear-gradient"/><linearGradient id="linear-gradient-5" x1="448.76" y1="77.88" x2="519.52" y2="77.88" xlink:href="#linear-gradient"/><linearGradient id="linear-gradient-6" x1="379.1" y1="52.69" x2="441.4" y2="52.69" xlink:href="#linear-gradient"/><linearGradient id="linear-gradient-7" x1="391.12" y1="57.24" x2="460.84" y2="57.24" xlink:href="#linear-gradient"/><linearGradient id="linear-gradient-8" x1="426.22" y1="24.56" x2="488.73" y2="24.56" xlink:href="#linear-gradient"/><linearGradient id="linear-gradient-9" x1="357.12" y1="31.13" x2="424.22" y2="31.13" xlink:href="#linear-gradient"/><linearGradient id="linear-gradient-10" x1="378.88" y1="23.56" x2="442.08" y2="23.56" xlink:href="#linear-gradient"/></defs><title>healing__decor-left-mobile</title><g id="Layer_2" data-name="Layer 2"><g id="Layer_1-2" data-name="Layer 1"><path class="cls-1" d="M29.92,60c2.71.39,5.43.64,8.09,1.21,7.36,1.57,13.4,5.46,18.56,10.85,7.68,8,15.36,16,23.13,24,2.08,2.13,4.48,4,6.92,6.1-.92-.29-1.7-.5-2.46-.78C71.88,96.65,61.88,88.79,53.09,79.2,48.29,74,43.22,69,37,65.44a28.62,28.62,0,0,0-12-3.71,6.17,6.17,0,0,0-2.95.59c-6.49,3-12.95,6.09-19.41,9.15-.34.16-.67.33-1,.51a5.3,5.3,0,0,1-.64-.5c-.27-.27-.5-.57-1-1.14,2.61-1.41,5-3,7.62-4.07,5.88-2.48,11.87-4.71,17.79-7.09a16.71,16.71,0,0,0,3.53-1.85,97.15,97.15,0,0,0,21.13-21A95,95,0,0,1,72.54,15.16,175.9,175.9,0,0,1,99,0c-2.29,1.91-4.64,3.76-6.87,5.74A184.23,184.23,0,0,0,71,27.67C61.38,39.54,49.28,48.25,35.77,55.15a15,15,0,0,0-2.71,1.62,8.17,8.17,0,0,0,1.11-.08c5.58-1.11,11.16-2.2,16.72-3.38a7.07,7.07,0,0,0,2.77-1.19c7.7-5.8,15.46-11.53,23-17.52a264,264,0,0,1,49.7-31c.2-.1.33-.36.5-.54l.34.63c-14,12-27.84,24.17-41.95,36-6.38,5.36-14,8.58-21.85,11.36-.42.14-.87.22-1.3.33l.09.46a61,61,0,0,1,6.87-.39,18.69,18.69,0,0,0,11.2-3.21c5.46-3.44,11.12-6.61,16.32-10.41,10.34-7.58,21.86-12.72,33.79-17C137.53,18.26,144.8,16,152,13.64l.21.44c-.72.4-1.44.78-2.15,1.19-13.4,7.87-26.82,15.69-40.18,23.62a96.44,96.44,0,0,1-29.5,11.58,3.35,3.35,0,0,0-1.22.51,256.64,256.64,0,0,1,64.44,8.64l-28.39-4.8-.19.53c9.42,6.52,14.35,16.75,21.14,25.45,4.64,5.94,9.17,12,13.75,17.94.19.24.35.49.82,1.14a49.45,49.45,0,0,1-14.59-10C129.3,83.13,124,75.21,119,67.13c-3.34-5.32-7.21-10.25-13.36-12.41-2.81-1-6-1.07-9-1.38a39.42,39.42,0,0,0-7.29,0c1.58.47,3.2.84,4.74,1.41,5.46,2,9.35,5.89,12.54,10.57,3.7,5.43,7,11.16,11,16.34,4.32,5.58,9.27,10.67,13.65,15.64-6.22-2.43-11.84-6.72-17.14-11.52C107.83,80,102.85,73.11,97.54,66.49,93.86,61.9,90,57.44,85,54.24a8.34,8.34,0,0,0-4.26-1.3,179.92,179.92,0,0,0-48.91,6.21c-.55.15-1.1.33-1.64.52C30.07,59.7,30,59.84,29.92,60Z"/><path class="cls-2" d="M80.7,1.58c-2.07,1.65-4.15,3.27-6.2,4.94a314.84,314.84,0,0,0-38.41,37c-6.86,7.8-14.53,14.73-23.76,19.73a22.7,22.7,0,0,0-2.87,1.59c3.1-3.39,6.46-6.6,9.25-10.23,5.19-6.72,10-13.69,15-20.57,7.4-10.19,17.18-17.62,28.05-23.67C67.85,7,74.18,4.15,80.39,1Z"/><path class="cls-3" d="M38.66,58.39A44.3,44.3,0,0,1,66,63.52C74.69,68.15,81.76,74.7,88.07,82.2c5.82,6.93,11.77,13.76,17.3,20.2C92.45,96.08,80.22,88.11,71.18,75.67c-7.71-10.59-19-15.55-31.78-17.21Z"/><path class="cls-4" d="M198.33,40.84l-16.21,4.54c-8.38,2.33-16.8,4.53-25.13,7-10.55,3.14-21.21,2.71-31.93,1.53a20.46,20.46,0,0,1-4.72-1c.43-.08.86-.21,1.3-.25a133,133,0,0,0,32.28-7.25c8.72-3.25,17.94-4,27.14-4.56,5.72-.34,11.45-.42,17.18-.62Z"/><path class="cls-5" d="M61.38,55.37c11.38-.5,21.77,1.84,29.6,10.82,4.48,5.15,8.56,10.65,13,15.83,4.73,5.52,9.69,10.84,14.64,16.36-5-1.59-9.69-3.8-13.43-7.38-5.93-5.69-11.64-11.62-17.26-17.62-6.26-6.69-13-12.65-21.57-16.23C64.75,56.46,63.05,56,61.38,55.37Z"/><path class="cls-6" d="M190,112.42c-4.44-3.37-9-6.57-13.27-10.14a66.72,66.72,0,0,1-16.91-21.54,86.53,86.53,0,0,0-8-12.35c-1.59-2.16-3.84-3.84-5.76-5.7a23,23,0,0,1,10,3.83A45.07,45.07,0,0,1,172.2,84.84a136.38,136.38,0,0,0,17.72,26.55c.15.18.27.39.41.58Z"/><path class="cls-7" d="M177.36,110.76c-14.1-6-24.79-14.92-31.63-28.22-3.87-7.52-8.21-14.75-14.15-20.86-1.45-1.49-3.05-2.82-4.73-4.36A25.15,25.15,0,0,1,139.33,63c5.54,4.53,9.37,10.41,13,16.48,1.76,3,3.44,6,5.08,9a61.07,61.07,0,0,0,18.57,21.07C176.3,109.83,176.61,110.13,177.36,110.76Z"/><path class="cls-8" d="M180.54,30.23c-3.8.63-7.31,1.13-10.79,1.78a222.69,222.69,0,0,0-39,11.25C120.89,47,110.52,48.7,100,49.57a2.9,2.9,0,0,1-.64,0c8.08-3.33,16.61-6.43,24.78-10.3,17.69-8.39,36.38-10.14,55.56-9.29A5.68,5.68,0,0,1,180.54,30.23Z"/><path class="cls-9" d="M164.76,64.07c4,.85,8.12,1.47,12.07,2.62a163.36,163.36,0,0,1,18.14,6c10.84,4.6,20.71,10.76,28.25,20.09a9.79,9.79,0,0,1,1.24,1.89c-14.84-9.32-31.22-15.39-46.89-22.93-4.45-2.14-8.71-4.69-13-7.06Z"/><path class="cls-10" d="M216.25,63.87c-5.59-.58-10.9-1.38-16.23-1.62-11-.49-22.07-.49-33.08-1.08-5.84-.31-11.63-1.4-17.44-2.17a12.38,12.38,0,0,1-2-.59C170.83,53.82,193.54,57.19,216.25,63.87Z"/></g></g></svg>