<svg xmlns="http://www.w3.org/2000/svg" xmlns:xlink="http://www.w3.org/1999/xlink" viewBox="0 0 253.98 1000.77" width="253" height="1000"><defs><style>.cls-1{fill:url(#radial-gradient);}</style><radialGradient id="radial-gradient" cx="77.74" cy="452.31" r="526.73" gradientUnits="userSpaceOnUse"><stop offset="0" stop-color="#ff542a"/><stop offset="0.11" stop-color="#ff5930"/><stop offset="0.27" stop-color="#ff6742"/><stop offset="0.45" stop-color="#ff7f60"/><stop offset="0.65" stop-color="#ffa08a" stop-opacity="0.99"/><stop offset="0.86" stop-color="#ffc9be" stop-opacity="0.99"/><stop offset="1" stop-color="#ffe8e5" stop-opacity="0.99"/></radialGradient></defs><title>history-cont__decor-3</title><g id="Layer_2" data-name="Layer 2"><g id="Shapes"><path class="cls-1" d="M251.85,806.23C247,787.85,250.22,790,231,791.3c-12.13.84-24,3.63-36.26,3.76A15.26,15.26,0,0,1,181.24,788c-1-1.52-1.88-3.32-.61-5.12a4.53,4.53,0,0,1,5.36-1.6c2.7.79,5.31,2.16,8,2.5,13.4,1.64,26.57.06,39.59-3.26,4.39-1.12,5.85-3.88,5-8.23-1.5-7.39-4.5-14.27-7-21.34-1.13-3.21-2.81-4.2-6.35-3.69-14.33,2.07-28.69,4-43.09,5.53-9.26,1-12.46-1.24-16.4-9.7-2-4.32-.91-6.3,3.75-5.48,7.51,1.32,14.92.88,22.39.08a187.69,187.69,0,0,0,29.94-5.36c3.58-1,5.47-2.62,4.31-6.78-1.3-4.62-1.84-9.45-4-13.83-2.82-2.09-5.8-4.14-9.49-3.21-5.54,1.41-10.66.25-15.74-1.83-10.83,1.55-21.65,3.2-32.5,4.62-7.2.94-14.36,1.27-19.49-5.44-1.3-3,.23-4.53,3-4.78a27.41,27.41,0,0,1,7.94.23c16.86,3.48,31.46-2.32,45.58-10.57,3-1.76,3.36-3.65,1.57-6.48-3.47-5.49-7-10.94-10.13-16.62-6.5-11.83-6.39-11.89-19.22-7.28-.78.28-1.58.5-2.36.81-9.46,3.71-19,7.2-29.23,8.12-5.72.52-11.41.37-16.33-3-2-1.39-4-3.51-3.13-6.26,1-3,3.94-2.46,6.42-2.37a17.37,17.37,0,0,1,7.08,2.29c2.71,1.36,5.55,2.66,8.56,2.43,11.07-.85,21.72-3.48,31.16-9.55,4.89-3.15,5.32-6.71,1.83-11.42a64.22,64.22,0,0,1-8.18-13.67c-1.46-3.54-4.16-4.48-7.73-3.55-4.35,1.13-8.68,2.34-13.08,3.24-12.08,2.46-24.2,4.69-36.59,4.64-4.65,0-8.49-3.28-8-7,.67-5.14,4.83-3.55,7.87-3.38,5.81.33,11.57,1.53,17.43,1,9.31-.88,18.53-2.06,26.58-7.52,3.45-2.34,4.49-5.17,2.61-8.95-1.78-3.58-3.58-7.14-5.36-10.72-2-4.12-5.31-5.67-9.85-4.95-7.23,1.13-14.46,2.47-21.74,3.08-9.94.82-19.94,1.65-29.82-.79-1.77-.43-4-1.07-3.63-3.36.41-2.6,2.94-1.85,4.52-1.56a65,65,0,0,0,20.87.09c8.59-1.23,17.11-2.69,25.18-6,2.57-1.06,5-2.32,4.08-5.82a41.49,41.49,0,0,0-7.33-15.73A6.48,6.48,0,0,0,128,558c-12.38,3.63-25.2,4.48-37.95,5.64a106.89,106.89,0,0,1-14,.19c-3.22-.13-4.76-2.24-4.32-5.45s2.78-3.37,5.25-2.5c12.79,4.53,25.57,3.23,38.34,0,5.28-1.36,12.75-.48,15.3-4.38s-1.14-10.44-1.74-15.88a7.55,7.55,0,0,0-.71-1.82h0a10.74,10.74,0,0,1-.76-2.26c-1.06-10.5-5.74-11.46-15.71-8.55a95,95,0,0,1-19.77,3.62,275.42,275.42,0,0,1-33,0c-2.95-.13-8.59-.34-8.17-4.21.34-3.23,5.53-2.18,8.76-2,10.95.77,21.88,2.08,32.88,1.18,8-.66,15.94-1.53,23.34-4.92,7.93-3.62,9.93-9.18,6.24-17-1.42-3-2.88-6-4.26-9-.84-1.87-1.45-4.09-.37-5.81,4.62-7.31,2.49-15.15,2.25-22.88-.11-3.44-1.48-4.33-4.88-4.17q-21.72,1-43.46,1.38a148.16,148.16,0,0,1-16.45-.68,11.58,11.58,0,0,1-9.71-6.95c-.71-1.49.07-2.59,1.37-3.3,4.12-2.27,8.14-1.53,11.8.92a22,22,0,0,0,9.29,3.39,129.56,129.56,0,0,0,37.36,0c13.53-1.94,16.42-7.16,12.47-20.38-1.67-5.57-5.55-6.91-10.53-7.32-13.12-1.07-26.33-.18-39.41-1.9-5.15-.68-10.34-1.49-13.91-5.83-1.53-1.85-3.82-3.95-2-6.57,1.68-2.46,4.48-1.71,6.89-1,5.26,1.58,10.15,4.12,15.54,5.42,14,3.36,28.33,3.9,42.59,5,2.79.22,3.32-1.1,3.76-3.33,2.41-12.08,5.14-24.09,7.37-36.2,2.11-11.45-.08-15.13-10.9-19.73-3.19-1.36-6.24-3.11-9.72-3.68h0c-6.81-3.31-14.14-5.6-20.25-10.29-4.88-3.74-7-7.95-5-13.08.53-1.32.15-3.17,2-3.6,2-.47,3.09,1.21,4,2.47,9.53,13.25,23.83,18.24,38.65,22.09,2.73.71,6.23.4,8.14-2.69a80.57,80.57,0,0,0,6.94-14.55c.66-1.8.93-3.4-.48-5.09-3.89-4.66-9-7.56-14.5-9.61-10.33-3.84-18.23-10.61-24.67-19.35-1-1.38-1.48-2.45.21-3.74s3.27-2.62,5.27-.91a19.83,19.83,0,0,1,3.68,4c4.76,7.16,11.39,12.07,18.94,15.82,10.79,5.36,15.83,3.61,21.25-7.15,3.71-7.39,3.33-9.74-2.77-15.19-3.31-2.95-6.76-5.75-10.14-8.62a43.73,43.73,0,0,1,8.74,2.7c7.3,2.68,12.73.68,15.84-5.78,2.77-5.75.91-11.44-5.15-15.37a17.6,17.6,0,0,1-5.56-4.91c-.7-1.1-1.75-2.34-.77-3.64s2.42-1,3.7-.49a61.79,61.79,0,0,1,6.91,2.76c7.21,3.68,7.58.81,11.93-3.64,1.16-1.19,1.44-3.23,2.13-4.88h0c1.79-3.65-1-5.55-3.07-7.54-3.21-3.11-6.76-5.88-10-9-2.52-2.46-1.62-4.17,1.71-4.47,3-.26,6,0,8.94-.3,4.4-.49,7.84-2.63,9.59-6.91,1.62-4-.85-6.75-3-9.39-2.92-3.52-6.16-6.78-10.29-11.27,3.72,1.36,6,2.21,8.3,3,13.12,4.69,16.42,2.27,16.45-11.62,0-7.55-2.37-13.28-9.94-16A17.55,17.55,0,0,1,178,175.8h0c1.23-3.53,4.2-2.7,6.72-2.51,3.64.29,7.26.93,10.89,1.34a5.11,5.11,0,0,0,5.16-2.3c5.82-8.43,3.64-17.94-5.41-22.83-3.89-2.11-7.92-3.94-11.89-5.9,3.79-.23,7.35.43,10.91.37,8.95-.13,14.49-6.47,13.66-15.37-.64-6.78-4.56-11.64-9.51-15.85-2.48-2.1-5-4.14-8.31-6.87,6-.41,11-.5,15.83-1.13,5.11-.66,7.71-3.67,7.78-8.2.16-10.42-5.87-17.4-16.18-18.66a23.55,23.55,0,0,1-9.91-3.15c-1.59-1-3.2-2.33-2.54-4.41s2.7-1.71,4.3-1.57c4.48.42,8.93,1.07,13.41,1.5,7.4.72,10.21-1.78,10.37-9.12.16-8-1.66-15.89-2.41-23.84-.27-2.84-1.89-2.45-3.85-2.08-11,2.12-22.06,3.89-32.79-1.45a6.66,6.66,0,0,0-3.43-.51c-18.43,1.73-32.85,11-44.85,24.42-3,3.33-1.42,6.87,2.56,9,2.42,1.29,6.7.55,7.14,3.52s-3.34,4.65-5.13,7c-.1.14-.24.24-.34.37-2.4,3.26-6.73,6.5-3.9,10.81,2.66,4.07,7.33,1.89,11.06.72,6.06-1.9,12.16-3.57,18.52-3.89,2.92-.14,6.49-.57,7.77,2.94,1.22,3.33.12,6.62-2.44,9.16-2.91,2.89-6.65,4.34-10.39,5.81-8,3.14-16.56,5.15-24.28,9.11-3.1,1.59-7.89,2.84-7,7.29.94,4.82,5.84,3.11,9.29,3.49a13.82,13.82,0,0,0,2.49,0c7.81-.58,15.61-1.27,23.42-1.71,1.7-.1,4.24-.22,4.69,1.9.35,1.64-1.73,2.66-3.14,3.52-6,3.68-12.76,5.64-19.33,8s-12.86,4.77-17.73,9.85c-3.48,3.61-2.57,6.77,2.29,8a30.43,30.43,0,0,0,9.91.71c6.8-.52,13.46-2.63,20.34-2,2.24.21,5,.39,5.44,3.4S155.49,159,153,160c-5.45,2.15-11.15,3.35-16.81,4.7-8.26,2-16.62,3.51-24.56,6.63-1.89.74-4,1.72-4,4s2,3.23,4.17,3.54c6.87,3,14.06,1.89,21.13,1.38a131.73,131.73,0,0,1,13.46-.68c2.14.07,4.07.63,4.48,3.09a4.32,4.32,0,0,1-3.07,5.08,17.36,17.36,0,0,1-4.86.93c-14.31.8-27.81,4.91-41,10.07-2.53,1-6.66,1.8-6.36,4.61s4.48,2.9,7.19,3.3c7.08,1.05,14.21,1.69,21.29,2.71,2.21.32,5.68.45,5.8,2.92.15,3-3.45,3.11-5.76,3.59-11.73,2.43-23.54,4.46-35.23,7.07-9.9,2.22-19.81,4.61-28.68,9.86-2.86,1.69-5.49,4.51-4.82,7.57.73,3.37,4.71,1.9,7.36,2.26a20.67,20.67,0,0,0,2.49,0c9.82.12,19.64-1.35,29.45,0,2.11.29,4.83.1,5.61,2.44s-2.14,3.06-3.12,4.72c-11.47,6.61-23.41,11.44-36.82,13-10.15,1.19-18.6,6.93-25.69,14.32a15,15,0,0,0-3,4.57c-1.39,3.38,0,5.22,3.57,4.81,2.47-.29,4.89-1,7.33-1.45,10.91-2.22,21.29-6.69,32.5-7.64,3.18-.27,6.72-.53,7.78,3.52,1,3.9-1.88,5.81-4.83,7.12-7.53,3.32-15.2,6.31-22.72,9.65a116.85,116.85,0,0,0-27.32,16.62c-2.79,2.31-5.27,5.17-3.59,9s5.41,3.92,9,3.79a14.11,14.11,0,0,0,4.84-.91c2.84-1.14,5.86-1.87,8.8-2.77,1.93-.6,4.2-1.4,5.47.6,1.4,2.2-.89,3.54-2.19,4.92-8.19,8.71-18.31,14.63-28.89,19.9-5,2.5-10.2,4.85-13.39,9.86a11.53,11.53,0,0,0-3.43,5.41c-1.11,3.39-.88,6.6,1.86,9.23s5.55,1.85,8.37.56c3-1.38,5.89-3.11,8.9-4.52,2.62-1.22,5.15-3,8.32-2.41.21,2.28-1.09,3.71-2.15,5.14-4.15,5.62-8.35,11.21-12.65,16.73-4.51,5.77-9.49,11.17-13.36,17.44C1.68,409.8,2,412.7,5,415.67s6.12,3.67,9.73,1.14c3.41-2.39,6.84-4.76,10.35-7,1.19-.76,2.75-2.25,4-1.1,1.67,1.52-.25,3-1.05,4.27-4.65,7.37-10.91,13.43-16.56,20-4.14,4.79-8.25,9.63-10.58,15.65-.77,2-1.65,4.2.32,6s4.31,1.37,6.6.69c2.54-.76,3.92-3,5.81-4.6,1.47-1.25,3.28-1.88,5.07-.8,2,1.21,1.47,3.15.87,4.91a25.46,25.46,0,0,1-6.28,9.5,43.87,43.87,0,0,0-6.48,7.58c-5.27,8.64-2.95,14.48,6.76,17,6.82,1.75,8.26,6.42,3.57,11.82-2.39,2.74-5.53,4.84-6.59,8.62-1.49,5.27.72,9.28,5.73,10.13C25,521,26.65,523.28,25,531.78c-1.5,2-3,3.94-4.5,5.94C16,543.8,17.72,548,25.21,549.28c1.95.34,4,.26,6,.41,7,.52,8.88,3.91,5.2,9.91-2.25,3.67-5,7-7.4,10.64-2.53,3.77-2.46,7.32.76,10.87,3.09,3.39,6.41,3.67,10.33,1.82a23.87,23.87,0,0,1,5.58-2c5.29-1,8.16,2.48,6,7.38-1,2.23-2.75,4.13-4.22,6.13-5.6,7.6-2.93,13.93,6.46,15.12,2.31.29,4.67.1,7,.33,2.62.25,5.76.21,6.92,3s-1.21,4.93-3,6.84c-2.78,2.87-5.8,5.51-8.42,8.51-3.94,4.54-3.16,8.44,2.21,11.25,5.07,2.67,10.54,2.75,16.06,1.8a30.51,30.51,0,0,1,8.93-.56c3.25.39,4.27,2.34,3.14,5.32-1,2.68-2.89,4.82-4.7,7a61.82,61.82,0,0,0-5.84,7.44c-3.17,5.31-1.65,9.69,4,12.07a34.48,34.48,0,0,0,12.21,2.23c3.65.12,7.3-.09,10.91.85,7.12,1.86,8.69,5.58,4.29,11.54-2.45,3.33-5.71,6.05-8.33,9.27-3.62,4.44-7,9.1-4,15.33h0c3,9,17.78,9.89,24.13,4.78,4.54-3.66,8.67-2.8,11.91,2.32,3,4.75-1.08,6.52-4.06,8.47a50.89,50.89,0,0,1-6.69,3.34c-3.79,1.73-7.59,3.43-10.62,6.42-1.73,1.69-3.11,3.49-2.32,6.15,2,6.75,7,10.29,13.2,12.53,5.13,1.84,9.38.91,12.8-3.67a5.2,5.2,0,0,1,6.74-1.61,6.29,6.29,0,0,1,3.8,6c.12,4.19-2.2,6.88-5.62,8.72-2.34,1.26-4.9,2.09-7.26,3.31-8.53,4.39-10,12.89-3.21,19.72,5.71,5.78,12.87,7.22,20.71,6.33a47.13,47.13,0,0,1,8.45-.56c5.62.37,7.28,3.77,4.24,8.47-2.47,3.82-6,6.64-9.47,9.54-4.36,3.68-8.48,7.61-10.43,13.15-2.2,6.27.71,10.55,7.27,10.77a117,117,0,0,0,28.32-2.37c5.77-1.22,11.12-3.17,15.07-8.09,4.52-5.63,5.33-5.8,11.53-1.6a31.45,31.45,0,0,0,20.35,5.26A125.21,125.21,0,0,0,254,823.77v-8C252.53,812.75,252.68,809.38,251.85,806.23Zm-184-424.69c-.81-.13-1.65-.16-2.46-.3-7.29-1.33-8.93-5.55-4.64-11.66,1.37-2,3.7-3.24,4.37-5.69a.84.84,0,0,0,.56.05c4.71,8.27,10.87,15.1,19.55,19.5C79.38,382.79,73.59,382.45,67.87,381.54Zm41.05-21.77c.26-.44.19.21.17.55l-.26-.42A.48.48,0,0,0,108.92,359.77Z"/><path class="cls-1" d="M243.83,840.74c-10.38-1.57-20.89-2-31.25-3.36-15.58-2.12-27.44,4.59-38.55,14-3.83,3.25-6.27,7.14-6.34,12.46A19.1,19.1,0,0,1,164,875.08,26.43,26.43,0,0,0,159.43,886a237.6,237.6,0,0,0-4.35,49.15,12.22,12.22,0,0,0,5.46,10.6c3,2.12,5.86,4.69,6.72,8.43.91,3.91,3,7,5.54,9.89,12.09,14,25.48,26.67,41.18,36.67h2c.65-2.93-1-5.13-2.43-7.35a201.08,201.08,0,0,1-11.87-20.22c-6.86-14-7.18-27.67.31-41.58,7.67-14.27,16.82-27.18,30.57-36.25,5.7-3.76,8.92-8.8,8.92-15.75,0-11.41,1.36-22.57,6-33.18C248.9,843,247.63,841.31,243.83,840.74Z"/><path class="cls-1" d="M148.11,26.93c5.38-1,10.63-2.89,15.59-2.41a62.85,62.85,0,0,1,16.48,2c12.32,3.38,22.18-.54,30.8-9.22,1.2-1.2,2.13-1.86.45-3.45-3.61-3.45-6.89-7.25-10.59-10.59A11.12,11.12,0,0,0,189.26.65c-4.46,1.47-9.17,1.42-13.82,1.79-12.32,1-24,4.16-33.63,12.37-2.95,2.51-4.63,6-2.62,9.83S144.82,27.57,148.11,26.93Z"/></g></g></svg>