<svg xmlns="http://www.w3.org/2000/svg" viewBox="0 0 422.48 1664.67" width="422" height="1664"><defs><style>.cls-1{opacity:0.05;}.cls-2{fill:#383838;}</style></defs><title>history-cont__decor-1</title><g id="Layer_2" data-name="Layer 2"><g id="Shapes"><g class="cls-1"><path class="cls-2" d="M418.92,1341.07c-8-30.56-2.71-27-34.66-24.83-20.17,1.39-40,6-60.31,6.25-9.78.09-17.1-3.94-22.48-11.77-1.73-2.52-3.13-5.52-1-8.51s5.44-3.69,8.91-2.67c4.49,1.32,8.83,3.59,13.4,4.15,22.28,2.74,44.2.1,65.85-5.42,7.31-1.86,9.73-6.44,8.25-13.69-2.5-12.29-7.48-23.74-11.6-35.49-1.88-5.34-4.67-7-10.56-6.14-23.83,3.44-47.72,6.65-71.67,9.2-15.4,1.65-20.74-2.07-27.29-16.13-3.35-7.18-1.51-10.48,6.24-9.12,12.5,2.19,24.83,1.46,37.24.13,16.82-1.8,33.48-4.42,49.82-8.91,5.95-1.63,9.09-4.36,7.15-11.28-2.15-7.69-3.06-15.72-6.62-23-4.7-3.47-9.65-6.89-15.79-5.33-9.22,2.35-17.74.4-26.18-3-18,2.58-36,5.33-54.06,7.68-12,1.57-23.9,2.12-32.43-9-2.15-5,.39-7.54,5-8a46.05,46.05,0,0,1,13.22.38c28,5.8,52.33-3.85,75.81-17.57,5-2.92,5.59-6.08,2.62-10.78-5.77-9.13-11.67-18.2-16.86-27.65-10.8-19.68-10.63-19.77-32-12.11-1.3.47-2.64.84-3.92,1.35-15.75,6.18-31.61,12-48.64,13.51-9.51.86-19,.61-27.15-5.07-3.36-2.32-6.75-5.84-5.22-10.41,1.68-5,6.56-4.11,10.69-4,4.28.16,8.06,2,11.77,3.81,4.52,2.26,9.24,4.42,14.24,4,18.42-1.42,36.13-5.78,51.83-15.89,8.14-5.24,8.85-11.16,3-19-5.3-7.15-10.19-14.47-13.6-22.74-2.42-5.87-6.91-7.44-12.86-5.89-7.23,1.88-14.44,3.89-21.76,5.38-20.08,4.1-40.24,7.81-60.85,7.73-7.74,0-14.13-5.47-13.32-11.68,1.11-8.56,8-5.91,13.09-5.62,9.66.54,19.24,2.54,29,1.62,15.5-1.45,30.82-3.42,44.21-12.5,5.75-3.89,7.47-8.6,4.34-14.89-3-6-5.94-11.89-8.9-17.83-3.41-6.85-8.83-9.43-16.39-8.24-12,1.89-24.05,4.12-36.16,5.12-16.53,1.36-33.18,2.75-49.6-1.3-2.94-.73-6.65-1.79-6.05-5.59.68-4.33,4.9-3.09,7.52-2.61,11.6,2.11,23.13,1.81,34.72.15,14.28-2,28.46-4.46,41.88-10,4.28-1.77,8.23-3.86,6.79-9.69a69,69,0,0,0-12.19-26.16q-4.83-6.21-12.56-3.94c-20.6,6-41.92,7.46-63.13,9.4a178.55,178.55,0,0,1-23.25.31c-5.36-.21-7.92-3.73-7.19-9.06.76-5.54,4.62-5.61,8.73-4.16,21.28,7.53,42.54,5.36,63.78-.08,8.78-2.25,21.21-.79,25.45-7.27s-1.89-17.38-2.9-26.42a12.19,12.19,0,0,0-1.18-3h0a17.76,17.76,0,0,1-1.25-3.75c-1.77-17.48-9.56-19.07-26.14-14.22a159.34,159.34,0,0,1-32.89,6c-18.22,1.33-36.63.84-54.91,0-4.9-.23-14.28-.58-13.59-7,.57-5.36,9.2-3.63,14.57-3.25,18.21,1.28,36.41,3.46,54.7,1.95,13.26-1.09,26.52-2.54,38.83-8.17,13.19-6,16.51-15.28,10.37-28.36-2.36-5-4.8-10-7.08-15-1.41-3.11-2.42-6.8-.62-9.66,7.68-12.16,4.13-25.21,3.73-38.07-.17-5.71-2.45-7.19-8.11-6.93q-36.12,1.62-72.28,2.3a243.14,243.14,0,0,1-27.38-1.14c-7.34-.68-12.9-4.77-16.14-11.55-1.18-2.47.12-4.31,2.28-5.5,6.85-3.76,13.54-2.53,19.62,1.54a36.9,36.9,0,0,0,15.46,5.64,215.29,215.29,0,0,0,62.14-.06c22.51-3.23,27.31-11.92,20.74-33.9-2.77-9.28-9.23-11.51-17.51-12.18-21.82-1.78-43.8-.31-65.55-3.17-8.58-1.13-17.2-2.47-23.14-9.7-2.54-3.08-6.36-6.56-3.37-10.93,2.79-4.08,7.45-2.84,11.46-1.64,8.74,2.62,16.88,6.86,25.84,9,23.31,5.6,47.12,6.49,70.85,8.33,4.64.36,5.51-1.83,6.25-5.55,4-20.08,8.55-40.07,12.27-60.22,3.5-19-.15-25.15-18.14-32.81-5.3-2.26-10.37-5.17-16.18-6.12h0c-11.32-5.51-23.52-9.32-33.67-17.11-8.12-6.23-11.63-13.22-8.25-21.76.87-2.2.25-5.27,3.36-6,3.37-.79,5.14,2,6.65,4.1,15.85,22.05,39.63,30.34,64.29,36.75,4.54,1.18,10.37.67,13.54-4.48A133.19,133.19,0,0,0,235.45,561c1.09-3,1.56-5.67-.79-8.48-6.47-7.75-14.94-12.57-24.12-16-17.19-6.39-30.33-17.64-41-32.18-1.7-2.3-2.46-4.08.36-6.22s5.43-4.36,8.76-1.52a33,33,0,0,1,6.11,6.71c7.92,11.9,19,20.08,31.51,26.32,17.95,8.91,26.34,6,35.35-11.91,6.17-12.28,5.53-16.2-4.62-25.26-5.5-4.91-11.23-9.57-16.86-14.34,5.37.84,9.91,2.78,14.54,4.49,12.14,4.47,21.18,1.13,26.35-9.6,4.61-9.57,1.51-19-8.56-25.58-3.52-2.28-6.95-4.6-9.25-8.17-1.17-1.82-2.92-3.88-1.28-6s4-1.59,6.14-.82a100.6,100.6,0,0,1,11.5,4.6c12,6.12,12.61,1.34,19.84-6.07,1.93-2,2.41-5.37,3.55-8.11h0c3-6.07-1.7-9.23-5.12-12.54-5.34-5.18-11.24-9.79-16.57-15-4.2-4.09-2.7-6.94,2.83-7.43,4.93-.43,10,.06,14.88-.5,7.32-.82,13-4.38,15.94-11.5,2.69-6.57-1.4-11.21-5.05-15.62C295,354.4,289.61,349,282.74,341.51c6.19,2.26,10,3.68,13.81,5,21.83,7.8,27.31,3.78,27.36-19.33,0-12.56-3.93-22.08-16.53-26.68A29,29,0,0,1,296,292.43h0c2-5.88,7-4.5,11.18-4.17,6.06.47,12.07,1.54,18.11,2.22a8.5,8.5,0,0,0,8.59-3.84c9.68-14,6.05-29.83-9-38-6.47-3.5-13.18-6.55-19.78-9.8,6.3-.38,12.23.7,18.14.61,14.9-.21,24.1-10.76,22.72-25.57-1.06-11.27-7.58-19.36-15.82-26.36-4.11-3.5-8.32-6.89-13.81-11.43,10-.67,18.25-.83,26.33-1.87,8.5-1.1,12.82-6.12,12.93-13.64.27-17.34-9.76-29-26.9-31.06-5.84-.71-11.47-2.05-16.5-5.22-2.64-1.67-5.32-3.88-4.22-7.34,1.05-3.3,4.49-2.86,7.16-2.61,7.44.69,14.85,1.77,22.3,2.49,12.31,1.19,17-3,17.24-15.17.28-13.38-2.75-26.43-4-39.65-.44-4.73-3.13-4.09-6.41-3.46-18.35,3.52-36.68,6.46-54.53-2.42a11.09,11.09,0,0,0-5.72-.85c-30.64,2.88-54.63,18.36-74.59,40.62-5,5.55-2.37,11.42,4.25,15,4,2.15,11.16.92,11.89,5.86.7,4.78-5.56,7.73-8.55,11.65-.16.22-.4.39-.56.61-4,5.43-11.18,10.81-6.49,18,4.43,6.76,12.2,3.13,18.4,1.19,10.09-3.17,20.23-5.94,30.8-6.47,4.87-.24,10.8-.95,12.94,4.89,2,5.55.2,11-4.06,15.24-4.84,4.8-11.06,7.23-17.28,9.66-13.4,5.23-27.55,8.56-40.39,15.16-5.16,2.64-13.13,4.71-11.7,12.12,1.56,8,9.72,5.18,15.45,5.8a22.14,22.14,0,0,0,4.15-.05c13-1,26-2.1,39-2.84,2.84-.16,7.06-.36,7.81,3.16.58,2.73-2.88,4.43-5.22,5.86-10,6.11-21.23,9.37-32.15,13.32-10.72,3.87-21.4,7.94-29.51,16.38-5.78,6-4.28,11.26,3.81,13.32a50.84,50.84,0,0,0,16.49,1.18c11.32-.87,22.39-4.37,33.83-3.32,3.73.35,8.29.66,9,5.66s-2.7,7.28-6.92,8.95c-9.06,3.57-18.55,5.58-28,7.82-13.73,3.27-27.65,5.84-40.85,11-3.15,1.23-6.67,2.87-6.64,6.63s3.37,5.37,6.93,5.88c11.45,4.9,23.39,3.15,35.17,2.31,7.46-.54,14.89-1.37,22.38-1.14,3.55.11,6.76,1,7.45,5.13s-1.35,7.09-5.11,8.46a28.76,28.76,0,0,1-8.08,1.54c-23.8,1.34-46.25,8.17-68.25,16.75-4.21,1.64-11.08,3-10.58,7.67s7.45,4.83,12,5.5c11.77,1.74,23.64,2.8,35.41,4.51,3.67.53,9.46.74,9.66,4.84.24,5-5.75,5.19-9.58,6-19.51,4-39.17,7.41-58.61,11.76-16.46,3.69-32.95,7.67-47.71,16.4-4.75,2.81-9.13,7.5-8,12.59,1.22,5.6,7.85,3.17,12.24,3.76a33.94,33.94,0,0,0,4.16,0c16.32.19,32.65-2.24,49,0,3.51.49,8,.17,9.32,4.06,1.23,3.7-3.55,5.09-5.18,7.85-19.07,11-38.94,19-61.25,21.65-16.89,2-30.93,11.54-42.73,23.82a24.94,24.94,0,0,0-4.92,7.61c-2.31,5.61,0,8.69,5.93,8,4.11-.48,8.14-1.59,12.2-2.41,18.15-3.7,35.42-11.14,54.05-12.71,5.29-.44,11.19-.88,12.95,5.86,1.7,6.48-3.13,9.66-8,11.83-12.52,5.53-25.28,10.51-37.79,16.06a193.94,193.94,0,0,0-45.44,27.65c-4.64,3.83-8.76,8.59-6,15,2.73,6.2,9,6.52,14.95,6.3a23.15,23.15,0,0,0,8.05-1.52c4.73-1.89,9.74-3.1,14.64-4.6,3.21-1,7-2.33,9.1,1,2.33,3.66-1.49,5.89-3.64,8.17C70,561.7,53.12,571.56,35.52,580.32c-8.35,4.16-17,8.07-22.26,16.41a19.19,19.19,0,0,0-5.71,9c-1.84,5.64-1.46,11,3.09,15.36,4.34,4.16,9.24,3.08,13.93.93,5-2.29,9.79-5.17,14.8-7.52,4.36-2,8.56-5,13.85-4,.35,3.78-1.83,6.16-3.58,8.54q-10.35,14-21,27.82c-7.49,9.61-15.79,18.59-22.22,29-3.58,5.81-3.08,10.62,1.91,15.57,5.16,5.11,10.18,6.09,16.19,1.88,5.68-4,11.38-7.9,17.21-11.63,2-1.27,4.58-3.75,6.67-1.84,2.78,2.53-.4,5-1.74,7.11-7.74,12.26-18.15,22.33-27.55,33.23-6.88,8-13.72,16-17.59,26-1.29,3.34-2.76,7,.53,10s7.17,2.28,11,1.15c4.23-1.27,6.53-5,9.66-7.65,2.46-2.08,5.46-3.13,8.45-1.33,3.36,2,2.44,5.23,1.44,8.16-2.09,6.16-6,11.21-10.45,15.81-3.87,4-7.85,7.82-10.77,12.61-8.76,14.36-4.92,24.08,11.24,28.24,11.35,2.92,13.74,10.68,5.93,19.66-4,4.55-9.18,8-11,14.34C15,856,18.72,862.69,27.05,864.11c14.55,2.46,17.28,6.3,14.52,20.44-2.5,3.3-5,6.56-7.49,9.89-7.42,10.11-4.61,17.1,7.85,19.23,3.25.56,6.61.44,9.92.68,11.68.87,14.77,6.51,8.65,16.48-3.75,6.11-8.3,11.74-12.31,17.7-4.21,6.27-4.09,12.18,1.27,18.08,5.13,5.64,10.65,6.12,17.17,3a39.26,39.26,0,0,1,9.29-3.43c8.79-1.64,13.58,4.14,10,12.29-1.63,3.71-4.57,6.86-7,10.19-9.31,12.64-4.87,23.18,10.76,25.15,3.83.48,7.75.17,11.6.55,4.36.42,9.58.35,11.5,5s-2,8.21-5,11.37c-4.61,4.78-9.65,9.17-14,14.17-6.57,7.55-5.26,14,3.66,18.72,8.44,4.43,17.54,4.56,26.72,3,4.93-.84,9.88-1.54,14.86-.93,5.39.66,7.09,3.9,5.22,8.84-1.68,4.46-4.81,8-7.83,11.66-3.35,4-7,7.9-9.7,12.36-5.29,8.85-2.75,16.13,6.72,20.09,6.45,2.69,13.34,3.46,20.31,3.7,6.06.21,12.14-.15,18.15,1.42,11.84,3.09,14.44,9.27,7.12,19.2-4.08,5.53-9.49,10.06-13.85,15.41-6,7.39-11.59,15.15-6.66,25.51h0c5,14.93,29.59,16.45,40.15,7.94,7.56-6.08,14.42-4.66,19.8,3.86,5,7.91-1.8,10.86-6.74,14.09a83.07,83.07,0,0,1-11.13,5.55c-6.31,2.88-12.63,5.72-17.68,10.68-2.87,2.82-5.15,5.81-3.86,10.24,3.29,11.22,11.62,17.12,22,20.84,8.51,3.06,15.6,1.51,21.29-6.1,2.68-3.6,6.8-4.71,11.19-2.68,4.2,1.93,6.19,5.35,6.33,9.91.21,7-3.66,11.45-9.35,14.51-3.89,2.1-8.15,3.48-12.08,5.5-14.18,7.31-16.56,21.44-5.33,32.8,9.5,9.62,21.41,12,34.45,10.53,4.67-.53,9.4-1.24,14-.93,9.36.61,12.11,6.27,7.06,14.09-4.11,6.36-10,11-15.74,15.87-7.26,6.12-14.11,12.66-17.35,21.88-3.67,10.43,1.17,17.55,12.09,17.91a195,195,0,0,0,47.11-3.94c9.59-2,18.49-5.28,25-13.45,7.53-9.38,8.88-9.66,19.19-2.67s21.53,9.5,33.86,8.75a208.28,208.28,0,0,0,49.72-8.87v-13.31C420.05,1351.93,420.3,1346.31,418.92,1341.07Zm-306-706.42c-1.36-.22-2.74-.26-4.1-.5-12.12-2.2-14.85-9.23-7.72-19.4,2.28-3.26,6.16-5.38,7.27-9.46a1.37,1.37,0,0,0,.93.08c7.84,13.76,18.09,25.12,32.52,32.45C132,636.72,122.41,636.17,112.9,634.65Zm68.28-36.2c.43-.74.31.34.28.91l-.44-.71A2,2,0,0,0,181.18,598.45Z"/><path class="cls-2" d="M405.59,1398.48c-17.27-2.61-34.76-3.24-52-5.59-25.9-3.53-45.64,7.63-64.12,23.29-6.37,5.4-10.43,11.87-10.54,20.73a31.64,31.64,0,0,1-6.15,18.68c-4.13,5.52-6.27,11.69-7.6,18.22-5.48,27-7.41,54.27-7.24,81.75.05,7.48,2.89,13.23,9.09,17.64,5,3.54,9.74,7.8,11.18,14,1.51,6.5,5.06,11.62,9.22,16.45,20.11,23.38,42.37,44.37,68.5,61h3.33c1.07-4.87-1.66-8.52-4-12.22-7.06-10.93-14-21.9-19.74-33.63-11.42-23.26-12-46,.5-69.17,12.77-23.73,28-45.22,50.85-60.3,9.48-6.25,14.85-14.64,14.85-26.2,0-19,2.25-37.54,9.89-55.19C414,1402.28,411.91,1399.43,405.59,1398.48Z"/><path class="cls-2" d="M246.37,44.8c8.95-1.73,17.68-4.82,25.92-4,10,0,18.91.95,27.41,3.28,20.5,5.62,36.9-.9,51.24-15.33,2-2,3.54-3.09.76-5.75-6-5.73-11.47-12.06-17.63-17.61C328.66.5,322.26-1.38,314.81,1.08s-15.25,2.36-23,3C271.32,5.7,252,11,235.89,24.63c-4.92,4.18-7.7,10.06-4.36,16.36C234.76,47.08,240.88,45.86,246.37,44.8Z"/></g></g></g></svg>