<svg xmlns="http://www.w3.org/2000/svg" viewBox="0 0 242.02 233.93"><defs><style>.cls-1{fill:#2080b8;}</style></defs><title>meals__icon</title><g id="Layer_2" data-name="Layer 2"><g id="Layer_2-2" data-name="Layer 2"><path class="cls-1" d="M1.87,233.4a3.87,3.87,0,0,0,2,.53,3.78,3.78,0,0,0,1.71-.41l77-39.83,74.48,39.81a3.69,3.69,0,0,0,3.39,0l79.47-40.72a3.77,3.77,0,0,0,2.11-3.25V3.64A3.83,3.83,0,0,0,240.15.53,3.78,3.78,0,0,0,236.52.4L158.83,40.25,84.32,1.05A3.66,3.66,0,0,0,81,1L2.12,41.11A3.76,3.76,0,0,0,0,44.36V230.28A3.77,3.77,0,0,0,1.87,233.4Zm153-9.4L86.06,187.35V10.3l68.85,36.08Zm79.81-36.67-72.5,37.15V46.77l72.5-37.15ZM7.3,46.6,78.76,10.26V187.37L7.3,224.28Z"/><path class="cls-1" d="M176.8,84.05a3.72,3.72,0,0,0,1.66-.4l44.3-22.73a3.65,3.65,0,1,0-3.33-6.5l-44.3,22.73a3.65,3.65,0,0,0,1.67,6.9Z"/><path class="cls-1" d="M176.8,109.79a3.61,3.61,0,0,0,1.66-.41l44.3-22.73a3.65,3.65,0,1,0-3.33-6.49l-44.3,22.73a3.65,3.65,0,0,0,1.67,6.9Z"/><path class="cls-1" d="M219.43,105.9l-44.3,22.73a3.65,3.65,0,1,0,3.33,6.49l44.3-22.73a3.65,3.65,0,1,0-3.33-6.49Z"/><path class="cls-1" d="M63.25,116.71,18.94,139.44a3.65,3.65,0,1,0,3.34,6.5l44.3-22.74a3.65,3.65,0,1,0-3.33-6.49Z"/><path class="cls-1" d="M63.25,142.45,18.94,165.18a3.65,3.65,0,1,0,3.34,6.49l44.3-22.73a3.65,3.65,0,1,0-3.33-6.49Z"/><path class="cls-1" d="M143.2,103.92l-41-21.56a3.65,3.65,0,0,0-3.4,6.46l41,21.56a3.65,3.65,0,0,0,5.37-3.36A3.65,3.65,0,0,0,143.2,103.92Z"/><path class="cls-1" d="M98.82,57.93l41,21.57A3.65,3.65,0,1,0,143.2,73l-41-21.56a3.65,3.65,0,1,0-3.4,6.46Z"/><path class="cls-1" d="M66.7,44.77a3.52,3.52,0,0,0-3.51-.13L19,67.37a3.51,3.51,0,0,0-1.83,3.24V101.5a3.55,3.55,0,0,0,1.62,3.12,3.43,3.43,0,0,0,1.84.53,3.61,3.61,0,0,0,1.64-.4L66.48,82a3.55,3.55,0,0,0,1.85-3.25V47.88A3.57,3.57,0,0,0,66.7,44.77ZM61,76.54l-36.52,19V72.85L61,53.86Z"/><path class="cls-1" d="M143.12,140l-40.93-21.57a3.5,3.5,0,0,0-3.5.11A3.56,3.56,0,0,0,97,121.62v36a3.58,3.58,0,0,0,1.87,3.23l40.94,21.57a3.66,3.66,0,0,0,1.68.41,3.4,3.4,0,0,0,1.81-.52,3.55,3.55,0,0,0,1.68-3.13v-36A3.56,3.56,0,0,0,143.12,140Zm-5.42,33.22-33.38-17.72V127.67l33.38,17.72Z"/></g></g></svg>