<svg xmlns="http://www.w3.org/2000/svg" viewBox="0 0 453.97 893.66" width="453" height="893"><defs><style>.cls-1{fill:#2083bb;opacity:0.05;}</style></defs><title>menu__decor-1</title><g id="Layer_2" data-name="Layer 2"><g id="Shapes"><path class="cls-1" d="M407.81,638.54a9,9,0,0,0-2.34,1.65q-18.63,25.72-37.16,51.52c-2.43,3.4-5,6.8-6.78,10.55a23.24,23.24,0,0,0-1.76,9.13,95.83,95.83,0,0,0,.75,13A23.37,23.37,0,0,1,356.2,741c-6.6,9.48-12.84,19.22-19.21,28.86Q312.85,806.4,288.75,843q-10.22,15.48-20.48,30.92a17.87,17.87,0,0,0-2.85,10.86c.28,7.29,7,11.06,13.44,7.65a20.3,20.3,0,0,0,8.27-8.48Q302.52,856,318,828.12c7.14-12.85,14.37-25.65,21.53-38.49,7.56-13.53,15.06-27.1,22.63-40.63a79.31,79.31,0,0,1,4.28-6.76c2.39-3.4,5.78-5.41,9.64-6.83a115,115,0,0,0,12.79-5.21c2.85-1.47,5.22-3.85,7.81-5.83l1.07-.83,2.93-4.79a7.09,7.09,0,0,1,.39-1.31q4.75-9,9.55-18,11.35-21.36,22.7-42.73a9.19,9.19,0,0,0,.54-2.27l-1.37-.83a7.51,7.51,0,0,0-1.79,1.43c-5,7.62-10,15.31-15,22.94-4.41,6.68-8.89,13.32-13.34,20-.77,1.15-1.59,2-3.13,1.14-1.87-1-2.06-1.72-.77-3.83q12.94-21.18,25.87-42.37a20.11,20.11,0,0,0,1.34-3.47l-1.71-1a23.45,23.45,0,0,0-3.11,3.2c-7.52,11.27-15,22.59-22.43,33.89-1.73,2.62-3.5,5.21-5.24,7.82-.59.88-1.26,1.36-2.32.66s-1-1.49-.35-2.39c.23-.33.41-.69.61-1q12.22-21.15,24.43-42.31a28.48,28.48,0,0,0,1.56-4l-1.37-.84a11,11,0,0,0-2.35,1.93c-3.09,4.61-6.08,9.28-9.09,13.94L385.5,688.15c-1,1.54-2.28,1.82-3.14.49a3.12,3.12,0,0,1,.25-2.62c8.46-14.71,17-29.37,25.47-44.08a11.2,11.2,0,0,0,.76-2.77Z"/><path class="cls-1" d="M404.93,461.59a53.29,53.29,0,0,1-4.59-25.82,81,81,0,0,1,2.72-13.36A17.4,17.4,0,0,0,401.51,409c-5.86-10.94-11.38-22.08-17-33.14q-14.34-28-28.68-56c-1.74-3.39-3.46-6.78-5.12-10.21a11.22,11.22,0,0,1-.54-8.21,6.71,6.71,0,0,1,10.13-3.89,12.52,12.52,0,0,1,5.26,6.18c2.32,5.59,4.65,11.19,7,16.8q6.81,16.6,13.61,33.23,8.58,20.93,17.2,41.83,2.52,6.12,5.2,12.16a13.89,13.89,0,0,0,7.54,7.16c5.78,2.53,11.51,5.2,16.33,9.4,8,7,13.51,15.76,17.34,25.61a56.64,56.64,0,0,1,4.19,23.92,27.71,27.71,0,0,1-2.69,11c-3.44,6.9-9.63,9.76-17.11,7.85-5.76-1.47-10.38-4.86-14.57-8.91C414.26,478.63,409.76,472.08,404.93,461.59Z"/><path class="cls-1" d="M385.31,141.13c-13.53,12.75-35.7,28.33-62.74,35-12,3-24.62,4-37,4.92-13.46,1-24.05,6-33.37,16.06-23.09,25-47,49.24-70.53,73.8q-59.7,62.25-119.4,124.5c-7.23,7.52-14.48,15-21.86,22.39-5.69,5.69-12.91,8.36-20.77,8.77C6.93,427.27-2.15,416.31.44,403.85a34.52,34.52,0,0,1,11.29-19.16q18.62-16.53,37.27-33,36.9-32.55,73.85-65,46.47-41,92.88-82,13.56-12,26.8-24.37c7.45-7,11-15.72,11.79-25.92,1.37-17.24,3.13-34.48,9.69-50.72,10.93-27.08,28.7-49.12,50.78-67.84C332,21.14,351.05,9.65,373,3.44,383.07.58,393.37-.85,403.89.53c20.95,2.75,33.91,16.19,35.66,37.28,1.35,16.22-3.28,31.22-10,45.7C421.06,101.71,408.13,119.23,385.31,141.13Z"/></g></g></svg>