<svg xmlns="http://www.w3.org/2000/svg" viewBox="0 0 1432.49 3085.31" width="1432" height="3085"><defs><style>.cls-1{fill:#2083bb;opacity:0.05;}</style></defs><title>menu__decor-2</title><g id="Layer_2" data-name="Layer 2"><g id="Shapes"><path class="cls-1" d="M609.73,1587.82C268.8,1911,804.15,2005.49,867.16,3047.93c22.21,367.57,581.53-2090.63,565-2357.27-87.93-1416.41-816.84-266.33-929.75,48C400.85,1021.3,941.17,1273.66,609.73,1587.82Z"/><path class="cls-1" d="M0,781a8.87,8.87,0,0,0,1.64,2.35Q27.32,802,53.08,820.61c3.4,2.44,6.79,5,10.54,6.81a23.53,23.53,0,0,0,9.12,1.78,97.44,97.44,0,0,0,13-.72,23.33,23.33,0,0,1,16.6,4.35c9.46,6.62,19.19,12.88,28.82,19.27q36.49,24.21,73,48.4Q219.61,910.75,235,921a17.83,17.83,0,0,0,10.85,2.88c7.29-.26,11.07-7,7.67-13.43a20.16,20.16,0,0,0-8.46-8.28q-27.87-15.45-55.72-31c-12.83-7.16-25.62-14.42-38.44-21.61-13.52-7.58-27.07-15.11-40.58-22.71-2.32-1.31-4.57-2.77-6.75-4.3-3.4-2.4-5.4-5.79-6.82-9.66a114.71,114.71,0,0,0-5.17-12.79c-1.46-2.86-3.85-5.24-5.82-7.82-.27-.37-.55-.72-.83-1.08l-4.78-2.94a6.76,6.76,0,0,1-1.3-.39q-9-4.77-18-9.59Q39.56,767,18.22,755.57a9.75,9.75,0,0,0-2.28-.55l-.84,1.37a7.56,7.56,0,0,0,1.43,1.79c7.62,5.05,15.29,10,22.91,15.07,6.68,4.43,13.3,8.92,20,13.39,1.14.77,2,1.6,1.13,3.12-1,1.87-1.73,2.06-3.83.77q-21.15-13-42.32-26a20.85,20.85,0,0,0-3.46-1.34l-1.05,1.71a24.06,24.06,0,0,0,3.19,3.12c11.26,7.54,22.56,15,33.85,22.5,2.61,1.74,5.2,3.51,7.8,5.26.88.59,1.37,1.26.66,2.32s-1.49,1-2.39.34c-.33-.23-.69-.41-1-.61Q30.81,785.59,9.67,773.34a26.92,26.92,0,0,0-4-1.57l-.83,1.36a10.47,10.47,0,0,0,1.92,2.36c4.6,3.11,9.27,6.1,13.92,9.12l28.89,18.81c1.53,1,1.81,2.28.48,3.13a3.08,3.08,0,0,1-2.62-.25c-14.69-8.49-29.34-17.06-44-25.56A11.21,11.21,0,0,0,.63,780Z"/><path class="cls-1" d="M308.14,741.62c-11.62-2.28-23.27-4.44-35.14-4.54-8.87-.08-17.76.2-26.61.71a173,173,0,0,1-37.17-1.64c-16.36-2.6-32.75-5.23-48.89-8.91-13.45-3.07-26.64-7.51-38.45-15a39.42,39.42,0,0,1-7-6.21,6.51,6.51,0,0,1-1.52-6.37,5.74,5.74,0,0,1,4.37-4.49c6.11-1.49,12.18-.81,18.23.45.46.09.92.2,1.38.27,15.9,2.52,31.86,4.79,47.71,7.6,21.38,3.79,42.79,7.52,64,12.16a491.14,491.14,0,0,0,54.33,9.13c12.16,1.24,24.37,1.92,36.58,2.7,11.86.75,23.74,1.32,35.61,2,3.47.19,6.94.52,10.41.51,6.31,0,10.25,2.35,10.51,10.46.14,4.56-.58,9.08-3.25,13-2.38,3.52-5.4,4.64-9.53,3.76-13.07-2.79-26.14-5.58-39.22-8.27C332.4,746.41,320.27,744,308.14,741.62Z"/><path class="cls-1" d="M256.76,598.07c6.44-3.56,12.24-5.8,18.59-5.78a39,39,0,0,1,9.91,1.36c4.65,1.26,8.38,0,12.26-2.53,11.71-7.7,23.61-15.13,35.42-22.69q12.72-8.13,25.39-16.36a9,9,0,0,1,5.49-1.64c4.45.2,7,4.62,4.61,8.39a10.12,10.12,0,0,1-3.64,3.42c-12,6.3-24,12.48-36,18.69C318.87,586.06,309,591.24,299,596.3a11.35,11.35,0,0,0-6.28,7.88C288.57,620.76,273,633,256.29,633.05a23.88,23.88,0,0,1-4.62-.45c-8.84-1.73-12.88-8.82-9.92-17.33,1.92-5.51,5.51-9.82,9.95-13.47C253.58,600.24,255.64,598.89,256.76,598.07Z"/></g></g></svg>