<svg xmlns="http://www.w3.org/2000/svg" viewBox="0 0 465.98 227.09" width="465" height="227"><defs><style>.cls-1{opacity:0.18;}.cls-2{fill:gray;}.cls-3{opacity:0.16;}.cls-4{opacity:0.1;}.cls-5{opacity:0.05;}</style></defs><title>nuance__texts</title><g id="Layer_2" data-name="Layer 2"><g id="Text"><g class="cls-1"><path class="cls-2" d="M35.71,64.85q-5.05,3.93-13.13,3.93T9.46,64.86a12.31,12.31,0,0,1-5-10.18,12.17,12.17,0,0,1,2.8-8,12.59,12.59,0,0,1,7.45-4.32v-.57a10.84,10.84,0,0,1-6-3.87,10.68,10.68,0,0,1-2.26-6.78,11.47,11.47,0,0,1,4.55-9.38q4.56-3.66,11.66-3.65t11.66,3.65a11.49,11.49,0,0,1,4.55,9.38,10.65,10.65,0,0,1-8.3,10.65v.57A12.35,12.35,0,0,1,38,46.59a12.18,12.18,0,0,1,2.81,8.06A12.36,12.36,0,0,1,35.71,64.85ZM15,60.19a11.65,11.65,0,0,0,7.57,2.36,11.67,11.67,0,0,0,7.57-2.36,8,8,0,0,0,0-12.31,11.57,11.57,0,0,0-7.57-2.38A11.55,11.55,0,0,0,15,47.88a7.95,7.95,0,0,0,0,12.31Zm1.19-22.9a9.44,9.44,0,0,0,6.38,2.08A9.53,9.53,0,0,0,29,37.29a6.77,6.77,0,0,0,2.44-5.43A6.91,6.91,0,0,0,29,26.37a9.44,9.44,0,0,0-6.4-2.11,9.36,9.36,0,0,0-6.38,2.11,6.94,6.94,0,0,0-2.43,5.49A6.79,6.79,0,0,0,16.2,37.29Z" transform="translate(-4.42 -10.36)"/><path class="cls-2" d="M59.53,35.62a5,5,0,0,1-7,0,5.2,5.2,0,0,1,0-7.12,5.06,5.06,0,0,1,7,0,5.23,5.23,0,0,1,0,7.12Zm0,25.29a5,5,0,0,1-7,0,5.17,5.17,0,0,1,0-7.1,5,5,0,0,1,7,0,5.17,5.17,0,0,1,0,7.1Z" transform="translate(-4.42 -10.36)"/><path class="cls-2" d="M83.62,67.61V27.34h-.57L70.92,35.92V28.25l12.73-9h7.47V67.61Z" transform="translate(-4.42 -10.36)"/><path class="cls-2" d="M121.91,68.78a17.5,17.5,0,0,1-11.86-4,14.09,14.09,0,0,1-5-10.38h7.13A8.27,8.27,0,0,0,115.31,60,10.34,10.34,0,0,0,122,62.18a10,10,0,0,0,7.3-2.74,9.8,9.8,0,0,0,2.78-7.27,10.07,10.07,0,0,0-2.78-7.36,9.7,9.7,0,0,0-7.2-2.83,11.55,11.55,0,0,0-5.53,1.31,9.73,9.73,0,0,0-3.85,3.65h-6.87l2.54-27.67h28.21V26H114.24L113,40.14h.57q3.42-4.39,10.22-4.39A14.93,14.93,0,0,1,135,40.29,16.13,16.13,0,0,1,139.4,52a16.15,16.15,0,0,1-4.84,12.16Q129.72,68.78,121.91,68.78Z" transform="translate(-4.42 -10.36)"/></g><g class="cls-3"><path class="cls-2" d="M100.9,236.75v-24h-.34l-7.21,5.11v-4.57l7.57-5.34h4.45v28.76Z" transform="translate(-4.42 -10.36)"/><path class="cls-2" d="M123.88,237.45a9.06,9.06,0,0,1-7.84-4q-2.81-4-2.8-11.14t2.81-11.08a9.66,9.66,0,0,1,15.62,0q2.81,4,2.81,11.11t-2.79,11.11A9,9,0,0,1,123.88,237.45Zm-4.55-6.8a5,5,0,0,0,9.07,0q1.57-2.88,1.58-8.32c0-3.59-.54-6.34-1.6-8.26a4.93,4.93,0,0,0-4.5-2.88,5,5,0,0,0-4.53,2.89q-1.6,2.9-1.61,8.25T119.33,230.65Z" transform="translate(-4.42 -10.36)"/><path class="cls-2" d="M145.54,217.72a3,3,0,0,1-4.19,0,3.12,3.12,0,0,1,0-4.24,2.85,2.85,0,0,1,2.1-.84,2.82,2.82,0,0,1,2.1.84,3.11,3.11,0,0,1,0,4.24Zm0,15a3,3,0,0,1-4.19,0,3.1,3.1,0,0,1,0-4.22,3,3,0,0,1,4.19,0,3.07,3.07,0,0,1,0,4.22Z" transform="translate(-4.42 -10.36)"/><path class="cls-2" d="M159.09,223.83v-3.68h3.49a5.49,5.49,0,0,0,3.76-1.28,4.19,4.19,0,0,0,1.46-3.31,4,4,0,0,0-1.42-3.21,5.57,5.57,0,0,0-3.76-1.21,5.7,5.7,0,0,0-3.8,1.22,4.68,4.68,0,0,0-1.62,3.34H153a8.35,8.35,0,0,1,2.85-6.15,11.63,11.63,0,0,1,13.68-.07,6.67,6.67,0,0,1,2.72,5.43,6.87,6.87,0,0,1-1.38,4.32,6.37,6.37,0,0,1-3.76,2.33v.34a7.07,7.07,0,0,1,4.62,2.22,6.89,6.89,0,0,1,1.7,4.78,7.39,7.39,0,0,1-1.38,4.36,9.21,9.21,0,0,1-3.79,3.07,12.78,12.78,0,0,1-5.37,1.12,11.3,11.3,0,0,1-7.39-2.34,8.18,8.18,0,0,1-3.06-6.17h4.29a4.52,4.52,0,0,0,1.88,3.32,7,7,0,0,0,4.28,1.24,6.59,6.59,0,0,0,4.3-1.36,4.55,4.55,0,0,0,0-7,7,7,0,0,0-4.46-1.3Z" transform="translate(-4.42 -10.36)"/><path class="cls-2" d="M189.1,237.45a9.07,9.07,0,0,1-7.84-4q-2.81-4-2.8-11.14t2.81-11.08a9.66,9.66,0,0,1,15.62,0q2.82,4,2.81,11.11t-2.79,11.11A9,9,0,0,1,189.1,237.45Zm-4.54-6.8a5,5,0,0,0,9.07,0c1-1.92,1.57-4.69,1.57-8.32s-.53-6.34-1.6-8.26a5,5,0,0,0-9,0Q183,217,183,222.34C183,226,183.5,228.72,184.56,230.65Z" transform="translate(-4.42 -10.36)"/></g><g class="cls-4"><path class="cls-2" d="M131.76,165.75V111.2H131l-16.43,11.62V112.43l17.25-12.17h10.12v65.49Z" transform="translate(-4.42 -10.36)"/><path class="cls-2" d="M191.07,165.75V153.09H159.13v-9.44q7.62-13.93,27.27-43.39h14.48V144h9v9.08h-9v12.66ZM168.88,143.6v.64h22.33v-35h-.59Q179.1,125.91,168.88,143.6Z" transform="translate(-4.42 -10.36)"/><path class="cls-2" d="M234.59,122.41a6.8,6.8,0,0,1-9.53,0,7.06,7.06,0,0,1,0-9.64,6.88,6.88,0,0,1,9.56,0,7.08,7.08,0,0,1,0,9.64Zm0,34.26a6.8,6.8,0,0,1-9.53,0,7,7,0,0,1,0-9.62,6.8,6.8,0,0,1,9.53,0,7,7,0,0,1,0,9.62Z" transform="translate(-4.42 -10.36)"/><path class="cls-2" d="M251.34,119.19a19.27,19.27,0,0,1,6.17-14.77q6.17-5.74,15.84-5.74,9.34,0,15.47,5.3A17,17,0,0,1,295,117.37a19.93,19.93,0,0,1-3.06,10.33q-3.08,5.1-11.28,13.41L266,155.85v.78H296v9.12H251.88V158.4L274,135.34a74.18,74.18,0,0,0,8.71-10.28,13.22,13.22,0,0,0,2.18-7.1,9.57,9.57,0,0,0-3.4-7.49,12.42,12.42,0,0,0-8.49-3,12.06,12.06,0,0,0-8.74,3.22,11.28,11.28,0,0,0-3.33,8.49v.13h-9.62Z" transform="translate(-4.42 -10.36)"/><path class="cls-2" d="M332.48,167.34q-11.49,0-17.86-9t-6.37-25.36q0-16.2,6.39-25.23t17.84-9q11.34,0,17.74,9t6.4,25.3q0,16.29-6.35,25.3T332.48,167.34Zm-10.35-15.48q3.63,6.58,10.35,6.58t10.3-6.56q3.59-6.56,3.58-18.94t-3.63-18.81q-3.63-6.55-10.25-6.56t-10.3,6.58q-3.68,6.59-3.68,18.79T322.13,151.86Z" transform="translate(-4.42 -10.36)"/></g><g class="cls-5"><path class="cls-2" d="M220.67,53.61V18.44h-.49l-10.6,7.49v-6.7l11.12-7.85h6.53V53.61Z" transform="translate(-4.42 -10.36)"/><path class="cls-2" d="M241.27,53.61l18.62-35.94v-.46H237.76V11.38h28.77v5.94L248.15,53.61Z" transform="translate(-4.42 -10.36)"/><path class="cls-2" d="M281.77,25.66a4.37,4.37,0,0,1-6.14,0,4.25,4.25,0,0,1-1.23-3.1,4.22,4.22,0,0,1,1.23-3.11,4.42,4.42,0,0,1,6.16,0A4.24,4.24,0,0,1,283,22.56,4.25,4.25,0,0,1,281.77,25.66Zm0,22.1a4.37,4.37,0,0,1-6.14,0,4.53,4.53,0,0,1,0-6.21,4.39,4.39,0,0,1,6.14,0,4.53,4.53,0,0,1,0,6.21Z" transform="translate(-4.42 -10.36)"/><path class="cls-2" d="M307.47,54.63A13.3,13.3,0,0,1,296,48.81q-4.11-5.82-4.11-16.36T296,16.18a14.2,14.2,0,0,1,22.94,0Q323,22,323,32.51t-4.09,16.32A13.24,13.24,0,0,1,307.47,54.63Zm-6.68-10c1.57,2.82,3.79,4.24,6.68,4.24s5.1-1.41,6.64-4.23,2.31-6.89,2.31-12.22-.78-9.31-2.34-12.13-3.77-4.23-6.61-4.23-5.07,1.42-6.65,4.25-2.37,6.87-2.37,12.11S299.23,41.83,300.79,44.66Z" transform="translate(-4.42 -10.36)"/><path class="cls-2" d="M346.39,54.63a13.3,13.3,0,0,1-11.52-5.82q-4.11-5.82-4.11-16.36t4.13-16.27a14.2,14.2,0,0,1,22.94,0Q362,22,362,32.51t-4.09,16.32A13.24,13.24,0,0,1,346.39,54.63Zm-6.68-10c1.57,2.82,3.79,4.24,6.68,4.24s5.1-1.41,6.64-4.23,2.31-6.89,2.31-12.22-.78-9.31-2.34-12.13-3.77-4.23-6.61-4.23-5.07,1.42-6.65,4.25-2.37,6.87-2.37,12.11S338.15,41.83,339.71,44.66Z" transform="translate(-4.42 -10.36)"/></g><g class="cls-5"><path class="cls-2" d="M368,181a5.92,5.92,0,0,1,1.9-4.55,6.9,6.9,0,0,1,4.89-1.77,7,7,0,0,1,4.77,1.63,5.23,5.23,0,0,1,1.89,4.13,6.17,6.17,0,0,1-.95,3.19,24.62,24.62,0,0,1-3.48,4.13l-4.49,4.55v.24h9.24v2.81h-13.6V193l6.83-7.11a23,23,0,0,0,2.68-3.17,4,4,0,0,0,.67-2.19,3,3,0,0,0-1.05-2.31,3.83,3.83,0,0,0-2.61-.92,3.74,3.74,0,0,0-2.7,1,3.52,3.52,0,0,0-1,2.62v0h-3Z" transform="translate(-4.42 -10.36)"/><path class="cls-2" d="M393,195.8a6.36,6.36,0,0,1-5.51-2.79q-2-2.77-2-7.82c0-3.33.65-5.92,2-7.78a6.79,6.79,0,0,1,11,0c1.32,1.86,2,4.46,2,7.8s-.65,5.95-1.95,7.8A6.35,6.35,0,0,1,393,195.8ZM389.83,191a3.51,3.51,0,0,0,6.37,0,12.47,12.47,0,0,0,1.1-5.84,12.13,12.13,0,0,0-1.12-5.8,3.46,3.46,0,0,0-3.16-2,3.52,3.52,0,0,0-3.18,2,12.1,12.1,0,0,0-1.13,5.79A12.28,12.28,0,0,0,389.83,191Z" transform="translate(-4.42 -10.36)"/><path class="cls-2" d="M408.23,181.94a1.94,1.94,0,0,1-1.47.61,2,2,0,0,1-1.47-.61,2.19,2.19,0,0,1,0-3,2,2,0,0,1,1.47-.59,2,2,0,0,1,1.48.59,2.18,2.18,0,0,1,0,3Zm0,10.57a2,2,0,0,1-1.47.6,2,2,0,0,1-1.47-.6,2,2,0,0,1-.58-1.48,2.07,2.07,0,0,1,.58-1.49,2,2,0,0,1,1.47-.6,2,2,0,0,1,1.47.6,2.08,2.08,0,0,1,.59,1.49A2,2,0,0,1,408.23,192.51Z" transform="translate(-4.42 -10.36)"/><path class="cls-2" d="M420.52,195.8A6.36,6.36,0,0,1,415,193q-2-2.77-2-7.82c0-3.33.65-5.92,2-7.78a6.79,6.79,0,0,1,11,0c1.32,1.86,2,4.46,2,7.8s-.65,5.95-2,7.8A6.32,6.32,0,0,1,420.52,195.8ZM417.33,191a3.51,3.51,0,0,0,6.37,0,12.47,12.47,0,0,0,1.1-5.84,12.13,12.13,0,0,0-1.12-5.8,3.46,3.46,0,0,0-3.16-2,3.52,3.52,0,0,0-3.18,2,12.1,12.1,0,0,0-1.13,5.79A12.28,12.28,0,0,0,417.33,191Z" transform="translate(-4.42 -10.36)"/><path class="cls-2" d="M439.13,195.8a6.34,6.34,0,0,1-5.5-2.79c-1.32-1.85-2-4.46-2-7.82s.66-5.92,2-7.78a6.79,6.79,0,0,1,11,0q2,2.79,2,7.8c0,3.35-.66,5.95-2,7.8A6.35,6.35,0,0,1,439.13,195.8ZM435.94,191a3.51,3.51,0,0,0,6.37,0,12.34,12.34,0,0,0,1.1-5.84,12.13,12.13,0,0,0-1.12-5.8,3.49,3.49,0,0,0-6.33,0,12,12,0,0,0-1.14,5.79A12.28,12.28,0,0,0,435.94,191Z" transform="translate(-4.42 -10.36)"/></g><g class="cls-5"><path class="cls-2" d="M241.76,216V194h-.32l-6.64,4.7v-4.21l7-4.92h4.1V216Z" transform="translate(-4.42 -10.36)"/><path class="cls-2" d="M262.47,216.66a9.35,9.35,0,0,1-6-1.95,8.29,8.29,0,0,1-3.06-5.19h4.15a4.53,4.53,0,0,0,1.8,2.55,5.62,5.62,0,0,0,7.88-1.7c1.14-1.75,1.72-4.23,1.76-7.43h-.31a6.94,6.94,0,0,1-2.78,3,8.18,8.18,0,0,1-4.17,1.06,8.45,8.45,0,0,1-6.25-2.5,8.64,8.64,0,0,1-2.47-6.34,8.85,8.85,0,0,1,2.69-6.65,9.73,9.73,0,0,1,15.62,2.87,17.69,17.69,0,0,1,1.63,8.06q0,6.74-2.76,10.5A9.06,9.06,0,0,1,262.47,216.66Zm.18-13.18a5.54,5.54,0,0,0,4-1.53,5.16,5.16,0,0,0,1.58-3.87,5.45,5.45,0,0,0-1.6-4,5.73,5.73,0,0,0-7.92,0,5.72,5.72,0,0,0-.05,7.86A5.38,5.38,0,0,0,262.65,203.48Z" transform="translate(-4.42 -10.36)"/><path class="cls-2" d="M283.06,198.48a2.75,2.75,0,0,1-3.86,0,2.85,2.85,0,0,1,0-3.9,2.6,2.6,0,0,1,1.93-.78,2.57,2.57,0,0,1,1.93.78,2.85,2.85,0,0,1,0,3.9Zm0,13.87a2.75,2.75,0,0,1-3.86,0,2.85,2.85,0,0,1,0-3.9,2.75,2.75,0,0,1,3.86,0,2.85,2.85,0,0,1,0,3.9Z" transform="translate(-4.42 -10.36)"/><path class="cls-2" d="M302.1,216V210.9H289.17v-3.82q3.09-5.64,11-17.56h5.86v17.7h3.65v3.68h-3.65V216Zm-9-9v.25h9V193.14h-.23Q297.26,199.89,293.12,207.06Z" transform="translate(-4.42 -10.36)"/><path class="cls-2" d="M324.08,216.66a8.36,8.36,0,0,1-7.23-3.65q-2.58-3.66-2.58-10.27t2.59-10.21a8.92,8.92,0,0,1,14.4,0q2.6,3.66,2.59,10.24T331.28,213A8.31,8.31,0,0,1,324.08,216.66Zm-4.19-6.26a4.59,4.59,0,0,0,4.19,2.66,4.54,4.54,0,0,0,4.17-2.65q1.46-2.66,1.45-7.67a16,16,0,0,0-1.47-7.61,4.59,4.59,0,0,0-8.32,0,15.81,15.81,0,0,0-1.49,7.6A16.14,16.14,0,0,0,319.89,210.4Z" transform="translate(-4.42 -10.36)"/></g><g class="cls-5"><path class="cls-2" d="M386.2,108.75V86.67h-.31l-6.65,4.71V87.17l7-4.92h4.09v26.5Z" transform="translate(-4.42 -10.36)"/><path class="cls-2" d="M397.79,89.91a7.78,7.78,0,0,1,2.5-6,9,9,0,0,1,6.41-2.32A9.19,9.19,0,0,1,413,83.76a6.85,6.85,0,0,1,2.48,5.41,8.11,8.11,0,0,1-1.24,4.18,32.15,32.15,0,0,1-4.57,5.43l-5.89,6v.32h12.12v3.69H398v-3l9-9.33a30.91,30.91,0,0,0,3.53-4.15,5.44,5.44,0,0,0,.88-2.88,3.87,3.87,0,0,0-1.38-3,5,5,0,0,0-3.43-1.21,4.88,4.88,0,0,0-3.54,1.3,4.57,4.57,0,0,0-1.35,3.44v0h-3.89Z" transform="translate(-4.42 -10.36)"/><path class="cls-2" d="M426.25,91.21a2.74,2.74,0,0,1-3.85,0,2.85,2.85,0,0,1,0-3.9,2.78,2.78,0,0,1,3.86,0,2.87,2.87,0,0,1,0,3.9Zm0,13.87a2.77,2.77,0,0,1-3.85,0,2.85,2.85,0,0,1,0-3.9,2.74,2.74,0,0,1,3.85,0,2.85,2.85,0,0,1,0,3.9Z" transform="translate(-4.42 -10.36)"/><path class="cls-2" d="M439.46,108.75V86.67h-.32l-6.64,4.71V87.17l7-4.92h4.1v26.5Z" transform="translate(-4.42 -10.36)"/><path class="cls-2" d="M460.63,109.39a8.36,8.36,0,0,1-7.23-3.65q-2.58-3.66-2.58-10.27t2.59-10.21a8.92,8.92,0,0,1,14.4,0q2.6,3.66,2.59,10.24t-2.57,10.24A8.32,8.32,0,0,1,460.63,109.39Zm-4.19-6.26a4.59,4.59,0,0,0,4.19,2.66,4.54,4.54,0,0,0,4.17-2.65,16.4,16.4,0,0,0,1.45-7.67,16,16,0,0,0-1.47-7.61,4.59,4.59,0,0,0-8.32,0,15.81,15.81,0,0,0-1.49,7.6A16.14,16.14,0,0,0,456.44,103.13Z" transform="translate(-4.42 -10.36)"/></g></g></g></svg>