<svg xmlns="http://www.w3.org/2000/svg" viewBox="0 0 501.61 154.69"><defs><style>.cls-1{opacity:0.1;}.cls-2{fill:#2080b8;}</style></defs><title>professional__numbers</title><g id="Layer_2" data-name="Layer 2"><g id="Layer_2-2" data-name="Layer 2"><g class="cls-1"><path class="cls-2" d="M32.33,32.6H30.66L0,53.3V25.46l32.33-22H64.66V130.56H32.33Z"/><path class="cls-2" d="M111.44,116.11Q97.18,98.23,97.17,66.69q0-31.36,14.45-49.16Q125.79,0,150.55,0t38.94,17.53q14.44,17.8,14.45,49.25t-14.36,49.33Q175.32,134,150.55,134T111.44,116.11Zm54.09-17.62q5.64-11.19,5.64-31.8,0-20.44-5.64-31.36-5.46-10.48-15-10.49T135.67,35.33Q130,46.25,130,66.69q0,20.61,5.64,31.8,5.37,10.67,14.88,10.66T165.53,98.49Z"/><path class="cls-2" d="M217.68,154.69,253,3.44H282.7L246.84,154.69Z"/><path class="cls-2" d="M330,32.6h-1.67L297.67,53.3V25.46L330,3.44h32.33V130.56H330Z"/><path class="cls-2" d="M409.11,116.11q-14.26-17.88-14.27-49.42,0-31.36,14.45-49.16Q423.47,0,448.23,0t38.93,17.53q14.44,17.8,14.45,49.25t-14.36,49.33Q473,134,448.23,134T409.11,116.11ZM463.2,98.49q5.64-11.19,5.64-31.8,0-20.44-5.64-31.36-5.46-10.48-15-10.49T433.34,35.33q-5.64,10.92-5.64,31.36,0,20.61,5.64,31.8,5.37,10.67,14.89,10.66T463.2,98.49Z"/></g></g></g></svg>