<svg xmlns="http://www.w3.org/2000/svg" viewBox="0 0 67.33 147.54" width="67" height="147"><defs><style>.cls-1{fill:#1980ba;}</style></defs><title>school__decor-left</title><g id="Layer_2" data-name="Layer 2"><g id="Text"><path class="cls-1" d="M15.51,24.59c-1.66,2-3.17,3.89-4.85,5.67-1.89,2-3.89,3.91-5.91,5.79a5.78,5.78,0,0,1-1.88,1c-.33.13-.77,0-1.16-.07A3.19,3.19,0,0,1,2,35.88c1-1.23,2-2.41,3-3.61,5-6.17,9.81-12.5,13.31-19.71.64-1.32,1.25-2.67,1.87-4a5.14,5.14,0,0,0,.14-4.29,4.77,4.77,0,0,1-.28-1c-.19-1.13.22-1.63,1.36-1.43A8.52,8.52,0,0,1,27.29,6,2.55,2.55,0,0,1,27,8.29C24.05,12.7,21,17,17.86,21.42c.83.93,1.54,1.82,2.34,2.6a3.33,3.33,0,0,1,.92,2.9q-.71,9.86-1.35,19.7c-.25,3.82-.42,7.64-.73,11.44a9.31,9.31,0,0,1-.9,3c-.6,1.34-1.71,1.44-2.49.19-1.44-2.3-2.4-4.8-1.65-7.54a90.59,90.59,0,0,0,2.91-23.46A12.2,12.2,0,0,0,15.51,24.59Z"/><path class="cls-1" d="M53.65,29.46a3.82,3.82,0,0,1,.08-1.13c.71-1.84,1.46-3.65,2.19-5.48.58-1.47-.13-2.66-1.73-2.57a20.4,20.4,0,0,0-4.77.84c-2.68.8-5.3,1.78-7.93,2.73-2.83,1-3,1-5.48-.65-1.29,1.72-2.55,3.46-3.88,5.14a34.69,34.69,0,0,1-2.48,2.8,6.62,6.62,0,0,1-1.57,1.1.92.92,0,0,1-.8-.11c-.13-.09-.12-.49,0-.71a5.59,5.59,0,0,1,.52-1C32,23.37,36,16.24,38.33,8.28c.12-.44.2-.89.36-1.31a5.49,5.49,0,0,0-.36-4.8C37.49.62,38.07-.17,39.81,0a9.73,9.73,0,0,1,5.84,3.2,2,2,0,0,1,.12,2.52C43,10.93,40.18,16.12,37.35,21.36a5.3,5.3,0,0,0,.66-.07A104.72,104.72,0,0,0,55.94,16a3.92,3.92,0,0,1,2.82.05A49.68,49.68,0,0,1,64.6,19.3c1.47.92,1.3,1.56-.13,2.56-3.26,2.27-6.43,4.66-9.63,7l-.86.68Z"/><path class="cls-1" d="M33.86,56.11a12.55,12.55,0,0,1,1.38.31c1.47.5,2.92,1,4.38,1.57,1.77.62,2.37.3,2.7-1.51a20.23,20.23,0,0,0,.39-3.38c0-5.41,0-10.82,0-16.24a13.57,13.57,0,0,0-1.81-6.6,4.86,4.86,0,0,1-.28-1.47c.57-.06,1.26-.36,1.7-.15A49.86,49.86,0,0,1,47,31.26a1.67,1.67,0,0,1,.6,2.21,16.8,16.8,0,0,0-.94,6.7c.11,5.26.18,10.52.39,15.78.08,2.16.37,4.34-.43,6.39a20.79,20.79,0,0,1-2.14,4.07c-.92,1.38-2,1.25-3-.16a20.82,20.82,0,0,0-1.38-2.08c-1.83-2.16-3.73-4.27-5.58-6.42-.36-.41-.65-.88-1-1.32Z"/><path class="cls-1" d="M52.86,38.55c4,2.11,8,4.06,10.93,7.67a7.17,7.17,0,0,1,1.36,5.24c-.07.89-.41,1.91-1.4,1.93a2.83,2.83,0,0,1-1.91-1.07c-2.55-3.19-5-6.44-7.52-9.67a16.86,16.86,0,0,1-1.62-2.18,5.24,5.24,0,0,1-.31-1.71Z"/><path class="cls-1" d="M32.25,43.32c-.23,2.88-.68,5.66-2.33,8.1a9.87,9.87,0,0,1-1.8,2c-1,.82-1.82.56-2.32-.61a5,5,0,0,1,.07-4.37c1.4-2.84,2.72-5.72,4.14-8.56.2-.4.73-.63,1.11-.94.28.36.74.7.82,1.11C32.13,41.14,32.16,42.23,32.25,43.32Z"/><path class="cls-1" d="M36.09,139.93c1.3.23,2.59.43,3.88.69,3.05.59,4.23.06,5.11-2.93a43.51,43.51,0,0,0,1.42-7.43,44.21,44.21,0,0,0-.75-11.65c-.57.07-1.08.11-1.58.21-3.34.64-6.67,1.31-10,2a5.27,5.27,0,0,1-4.86-1.23,3.22,3.22,0,0,1-.51-.93,3.5,3.5,0,0,1,.89-.39c4.23-.61,8.46-1.2,12.69-1.8l2.78-.4c-.56-2.86-1-5.62-3.2-7.67a5.4,5.4,0,0,1-.84-1.66c.7-.1,1.53-.47,2.09-.22,1.14.51,1.64.1,2.26-.78,1.53-2.15,3.2-4.22,4.75-6.37.3-.43.58-1.4.4-1.55a2.43,2.43,0,0,0-1.86-.65,61.31,61.31,0,0,0-6,2.13c-2,.81-3.89,1.86-5.9,2.6-2.2.8-4.21-.89-5.2-2.19-.55-.74-.23-1.4.72-1.53s1.9,0,2.83-.15a23.91,23.91,0,0,0,4.33-.75c3.35-1.07,6.66-2.26,9.94-3.52a4.78,4.78,0,0,1,4.83.42c1.27.9,2.63,1.67,3.82,2.65,1.48,1.24,1.12,2.12-.57,3-2.76,1.46-5.41,3.14-8.05,4.82-1.36.88-2.59,2-3.93,3A11.6,11.6,0,0,1,48.93,114c.23,1.1.59,1.47,1.82,1.17,2.93-.71,5.91-1.28,8.88-1.81a8.39,8.39,0,0,1,7.29,2.34,1.31,1.31,0,0,1,.37,1.16,1.57,1.57,0,0,1-1.18.63c-3,.12-6,.13-9.08.24-2.37.08-4.74.25-7.17.38.27,2.72.59,5.23.74,7.74.31,5,.35,10.06-1.25,15A11.85,11.85,0,0,1,44.67,147c-1.24.86-2.09.62-3-.49-1.46-1.72-3-3.34-4.59-5-.39-.43-.8-.83-1.2-1.24Z"/><path class="cls-1" d="M18.13,111l6.67-1.07c-.21-1-.36-1.84-.59-2.69-.39-1.43.1-2,1.58-1.81a7.68,7.68,0,0,1,4.46,2.71,1.48,1.48,0,0,1,.16,1.26c-1.35,3.91-2.72,7.82-4.17,11.7-.92,2.47-2,4.88-3,7.37,1.29.93,2.64,1.87,4,2.85a5.05,5.05,0,0,1,2.21,4.91,3,3,0,0,1-.32,1.18c-.44.72-.93,1-1.7.24-2.1-2-4.26-3.85-6.42-5.79-4.43,3.82-8.52,8.19-14.9,8.21l-.25-.35c.34-.3.66-.61,1-.88,2.87-2.16,5.75-4.3,8.61-6.48,1-.78,2-1.64,3.18-2.64-1.86-1.36-3.27-2.4-4.7-3.43-.58-.41-1.22-.76-1.8-1.18a2.54,2.54,0,0,1-.82-3.48c1-2.23,1.79-4.52,2.67-6.78l-.34-.37c-2.44.86-4.94,1.57-7.29,2.64-1.65.74-2.9.81-4.14-.59-.58-.64-1.35-1.12-1.87-1.81a1.83,1.83,0,0,1-.26-1.53,1.51,1.51,0,0,1,1.29-.59c3.11.59,6.1-.3,9.13-.62,1.13-.11,2.25-.27,3.38-.39a1,1,0,0,0,1-.94c.74-5,1.6-9.91,2.3-14.88a9.77,9.77,0,0,0-.78-5.65c-.46-1-.16-1.55.9-1.67a2.78,2.78,0,0,1,1.63.23,36.56,36.56,0,0,1,4,2.76c1.21,1,1.24,1.66.52,3.08a23.12,23.12,0,0,0-1.8,3.76C20.43,102.44,19.34,106.63,18.13,111Zm6.43.85c-2.31.61-4.54,1.17-6.75,1.82a1.58,1.58,0,0,0-.82.91c-.83,2.35-1.59,4.72-2.41,7.06a2,2,0,0,0,.85,2.55c1.48.9,3,1.71,4.58,2.61A37.9,37.9,0,0,0,24.56,111.86Z"/></g></g></svg>