<svg xmlns="http://www.w3.org/2000/svg" viewBox="0 0 237.44 487.67" width="237" height="487"><defs><style>.cls-1{opacity:0.05;}.cls-2{fill:#fff;}</style></defs><title>school__decor-right</title><g id="Layer_2" data-name="Layer 2"><g id="Text"><g class="cls-1"><path class="cls-2" d="M54.71,86.72c-5.86,6.89-11.2,13.71-17.11,20-6.66,7.08-13.74,13.77-20.85,20.41a19.92,19.92,0,0,1-6.63,3.56c-1.17.44-2.72-.13-4.1-.24.34-1.33.32-2.94,1.08-3.94,3.34-4.33,6.92-8.48,10.38-12.72C35.24,92.06,52.1,69.71,64.42,44.3c2.27-4.67,4.42-9.41,6.61-14.12a18.11,18.11,0,0,0,.48-15.12,15.93,15.93,0,0,1-1-3.45c-.67-4,.77-5.75,4.77-5.06,9.2,1.59,16.16,6.93,20.93,14.66,1.14,1.85.47,6-.92,8C84.79,44.78,73.87,60.07,63,75.55c2.92,3.27,5.41,6.4,8.26,9.17,3,2.92,3.51,6.3,3.23,10.22Q72,129.68,69.71,164.41c-.89,13.45-1.46,26.92-2.56,40.34A33.6,33.6,0,0,1,64,215.4c-2.11,4.71-6,5.06-8.8.66-5.05-8.1-8.45-16.94-5.79-26.58,7.49-27.1,10-54.78,10.24-82.75A42.88,42.88,0,0,0,54.71,86.72Z"/><path class="cls-2" d="M189.18,103.88c.09-1.33-.15-2.79.3-4,2.48-6.47,5.16-12.86,7.71-19.31,2.05-5.18-.45-9.41-6.08-9.08a74.06,74.06,0,0,0-16.84,3c-9.44,2.83-18.69,6.28-28,9.65-10,3.62-10.68,3.62-19.33-2.29-4.53,6-9,12.17-13.66,18.12a117.29,117.29,0,0,1-8.78,9.86A23.34,23.34,0,0,1,99,113.7a3.25,3.25,0,0,1-2.84-.41c-.44-.32-.4-1.73-.14-2.5a20,20,0,0,1,1.86-3.51c14.82-24.89,29.15-50,37.24-78.09.45-1.54.72-3.13,1.28-4.62a19.31,19.31,0,0,0-1.27-16.92c-3-5.45-.92-8.25,5.21-7.54,8.36,1,14.94,5.48,20.63,11.3,2.52,2.58,2.13,5.71.41,8.87-9.91,18.25-19.72,36.55-29.68,55.05a20.1,20.1,0,0,0,2.32-.24c21.54-4.59,42.75-10.25,63.21-18.59a14,14,0,0,1,9.94.15,179.43,179.43,0,0,1,20.61,11.42c5.18,3.24,4.56,5.5-.47,9-11.47,8-22.65,16.42-33.94,24.69-1.05.76-2,1.6-3.05,2.4Z"/><path class="cls-2" d="M119.39,197.85a44.25,44.25,0,0,1,4.88,1.11c5.17,1.78,10.28,3.71,15.44,5.52,6.23,2.19,8.35,1.09,9.52-5.3a68.59,68.59,0,0,0,1.38-11.91c.08-19.09-.05-38.19-.14-57.28a47.48,47.48,0,0,0-6.4-23.27c-.81-1.46-.66-3.44-1-5.18,2-.23,4.42-1.29,6-.55a180.06,180.06,0,0,1,16.71,9.23c2.82,1.74,3.37,4.72,2.13,7.81-3,7.61-3.5,15.57-3.33,23.61.4,18.56.64,37.12,1.37,55.66.31,7.63,1.32,15.29-1.51,22.54a74.11,74.11,0,0,1-7.52,14.36c-3.28,4.85-7.1,4.4-10.41-.57a74.39,74.39,0,0,0-4.87-7.32c-6.47-7.63-13.15-15.08-19.7-22.65-1.25-1.45-2.27-3.1-3.39-4.66Z"/><path class="cls-2" d="M186.41,136c13.92,7.44,28.25,14.31,38.53,27,4.36,5.39,5.3,11.85,4.79,18.5-.23,3.12-1.44,6.71-4.93,6.81-2.24.06-5.17-1.88-6.71-3.8-9-11.22-17.73-22.7-26.54-34.1-2-2.53-4.2-4.9-5.72-7.66-.94-1.7-.75-4-1.07-6.06Z"/><path class="cls-2" d="M113.73,152.76c-.82,10.16-2.42,20-8.2,28.57a34.51,34.51,0,0,1-6.37,7.11c-3.49,2.91-6.42,2-8.17-2.14a17.63,17.63,0,0,1,.23-15.41c4.94-10,9.61-20.18,14.6-30.18.71-1.41,2.58-2.24,3.91-3.34,1,1.3,2.63,2.49,2.89,3.93C113.3,145.06,113.4,148.93,113.73,152.76Z"/><path class="cls-2" d="M127.28,460.84c4.56.81,9.13,1.54,13.68,2.43,10.74,2.1,14.92.22,18-10.31a152.3,152.3,0,0,0,5-26.22c1.46-13.61-.4-27.14-2.64-41.09-2,.26-3.81.4-5.58.74q-17.64,3.44-35.28,6.92c-6.38,1.25-12.25.22-17.14-4.32-.87-.81-1.22-2.18-1.82-3.3a13.41,13.41,0,0,1,3.16-1.36c14.91-2.16,29.83-4.23,44.75-6.34,3.13-.44,6.26-.92,9.79-1.44-2-10.08-3.38-19.79-11.27-27-1.51-1.39-2-3.88-3-5.86,2.49-.33,5.41-1.64,7.37-.77,4,1.79,5.78.35,8-2.73,5.42-7.62,11.3-14.9,16.75-22.49,1.08-1.5,2-4.94,1.4-5.47-1.7-1.42-4.64-2.83-6.53-2.29a214,214,0,0,0-21,7.53c-7,2.85-13.71,6.55-20.81,9.14-7.74,2.82-14.84-3.14-18.31-7.72-2-2.58-.84-4.92,2.53-5.36s6.68-.13,10-.56c5.12-.65,10.4-1.06,15.28-2.62,11.79-3.79,23.47-8,35-12.42,6.12-2.35,11.61-2.37,17,1.49,4.45,3.16,9.27,5.86,13.44,9.34,5.23,4.37,4,7.46-2,10.6-9.75,5.14-19.1,11.07-28.4,17-4.81,3.07-9.14,6.88-13.85,10.48,6.72,6.22,9.88,14.07,11.69,22.5.84,3.88,2.08,5.2,6.43,4.14,10.34-2.52,20.83-4.51,31.32-6.38,9.92-1.78,18.4,1.72,25.71,8.25,1,.87,1.79,3.23,1.29,4.09a5.67,5.67,0,0,1-4.14,2.23c-10.68.41-21.37.46-32,.83-8.36.29-16.71.88-25.27,1.35.94,9.58,2.06,18.43,2.61,27.3,1.09,17.77,1.23,35.48-4.43,52.72a41.89,41.89,0,0,1-16.49,22c-4.39,3-7.36,2.17-10.67-1.73-5.14-6.08-10.74-11.77-16.17-17.61-1.38-1.48-2.81-2.91-4.23-4.37Z"/><path class="cls-2" d="M63.94,358.88l23.53-3.79c-.74-3.4-1.27-6.49-2.09-9.5-1.37-5,.33-7.07,5.58-6.37,6.64.88,11.35,5.06,15.73,9.57.85.87,1,3.13.57,4.43-4.79,13.8-9.61,27.58-14.73,41.26-3.25,8.71-7,17.22-10.64,26,4.55,3.26,9.31,6.6,14,10,5.82,4.29,8.65,10,7.81,17.32a10.56,10.56,0,0,1-1.15,4.15c-1.53,2.56-3.28,3.41-6,.87-7.39-6.92-15-13.6-22.63-20.44-15.64,13.48-30,28.88-52.55,28.95l-.87-1.23c1.19-1,2.33-2.15,3.59-3.1,10.11-7.62,20.28-15.16,30.35-22.84,3.61-2.74,7-5.78,11.22-9.31-6.56-4.8-11.53-8.49-16.56-12.09-2.06-1.48-4.31-2.68-6.35-4.18-4.5-3.29-5.08-7.14-2.89-12.26,3.37-7.87,6.3-15.94,9.42-23.92l-1.21-1.32c-8.6,3.05-17.44,5.56-25.72,9.32-5.8,2.63-10.23,2.85-14.59-2.06-2-2.28-4.78-4-6.59-6.39a6.45,6.45,0,0,1-.91-5.39c.46-1.16,3.12-2.35,4.53-2.09,11,2.08,21.5-1.06,32.2-2.17,4-.41,7.94-1,11.92-1.4,2.07-.22,3.22-.89,3.58-3.32,2.64-17.5,5.65-34.94,8.14-52.45a34.77,34.77,0,0,0-2.78-19.95c-1.62-3.45-.55-5.43,3.2-5.87a9.65,9.65,0,0,1,5.74.81,129.24,129.24,0,0,1,14.14,9.72c4.28,3.46,4.37,5.85,1.84,10.86-2.21,4.38-5,8.62-6.36,13.26C72,328.64,68.19,343.44,63.94,358.88Zm22.67,3c-8.16,2.17-16,4.14-23.79,6.42a5.55,5.55,0,0,0-2.89,3.24c-3,8.26-5.63,16.61-8.52,24.9-1.34,3.85-.35,6.92,3,9,5.21,3.17,10.58,6.05,16.15,9.21C79.21,398,85.21,381,86.61,361.85Z"/></g></g></g></svg>