<svg xmlns="http://www.w3.org/2000/svg" viewBox="0 0 196.32 192.18" width="196" height="192"><defs><style>.cls-1{fill:#1980ba;}.cls-2{opacity:0.15;}</style></defs><title>smile</title><g id="Layer_2" data-name="Layer 2"><g id="Text"><path class="cls-1" d="M85.38,162.14a2.06,2.06,0,0,0-2.77-.89A22.87,22.87,0,0,1,51,149a2.05,2.05,0,1,0-3.84,1.45,27,27,0,0,0,37.36,14.44A2.07,2.07,0,0,0,85.38,162.14Z"/><path class="cls-1" d="M87.78,100.81A47.27,47.27,0,1,0,114.83,162,47.33,47.33,0,0,0,87.78,100.81Zm-32.6,84.36A43.16,43.16,0,1,1,111,160.47,43.21,43.21,0,0,1,55.18,185.17Z"/><path class="cls-1" d="M91.26,137.41A10.29,10.29,0,0,0,78,143.3a2.06,2.06,0,0,0,3.84,1.48,6.16,6.16,0,1,1,11.5,4.44,2.05,2.05,0,1,0,3.83,1.48A10.28,10.28,0,0,0,91.26,137.41Z"/><path class="cls-1" d="M62.63,137.37a2.06,2.06,0,1,0,3.84,1.48,10.28,10.28,0,1,0-19.17-7.41,2.05,2.05,0,1,0,3.83,1.48,6.17,6.17,0,0,1,11.5,4.45Z"/><rect class="cls-1" x="162.88" y="113.77" width="27.57" height="3.52"/><rect class="cls-1" x="174.9" y="101.74" width="3.52" height="27.57"/><rect class="cls-1" x="110.12" y="93.03" width="41.48" height="3.52"/><rect class="cls-1" x="129.1" y="74.05" width="3.52" height="41.48"/><g class="cls-2"><rect class="cls-1" y="99.99" width="27.57" height="3.52"/><rect class="cls-1" x="12.03" y="87.96" width="3.52" height="27.57"/></g><g class="cls-2"><rect class="cls-1" x="140.01" y="150.26" width="19.66" height="3.52"/><rect class="cls-1" x="148.08" y="142.19" width="3.52" height="19.66"/></g><g class="cls-2"><rect class="cls-1" x="176.66" y="8.07" width="19.66" height="3.52"/><rect class="cls-1" x="184.74" width="3.52" height="19.66"/></g><g class="cls-2"><rect class="cls-1" x="40.85" y="66.26" width="19.66" height="3.52"/><rect class="cls-1" x="48.92" y="58.18" width="3.52" height="19.66"/></g><g class="cls-2"><rect class="cls-1" x="133.4" y="50.05" width="56.05" height="3.52"/><rect class="cls-1" x="159.67" y="23.78" width="3.52" height="56.05"/></g></g></g></svg>