<svg xmlns="http://www.w3.org/2000/svg" xmlns:xlink="http://www.w3.org/1999/xlink" viewBox="0 0 36.08 36.08"><defs><style>.cls-1{fill:url(#radial-gradient);}.cls-2{fill:url(#radial-gradient-4);}.cls-3{fill:url(#radial-gradient-6);}.cls-4{fill:#fff;}.cls-5{fill:url(#radial-gradient-8);}</style><radialGradient id="radial-gradient" cx="25.33" cy="23.96" r="144.33" gradientUnits="userSpaceOnUse"><stop offset="0" stop-color="#9344ff"/><stop offset="0.52" stop-color="#0078ff"/><stop offset="1" stop-color="#00c8ff"/></radialGradient><radialGradient id="radial-gradient-4" cx="345.42" cy="402.95" r="144.33" gradientTransform="translate(-378.99 356.17) rotate(-90)" xlink:href="#radial-gradient"/><radialGradient id="radial-gradient-6" cx="266.7" cy="596.43" r="144.33" gradientTransform="matrix(0.7, -0.72, -0.72, -0.7, 259.73, 616.01)" xlink:href="#radial-gradient"/><radialGradient id="radial-gradient-8" cx="26.83" cy="25.18" r="173.97" gradientTransform="matrix(0, -1, -1, 0, 52, 52)" xlink:href="#radial-gradient"/></defs><title>icon_3</title><g id="Layer_2" data-name="Layer 2"><g id="Shapes"><path class="cls-1" d="M18,36.08a18,18,0,1,1,18-18A18.06,18.06,0,0,1,18,36.08Zm0-34A16,16,0,1,0,34,18,16,16,0,0,0,18,2.08Z"/><path class="cls-1" d="M18,36.08a1,1,0,0,1-1-1V32.63a1,1,0,1,1,2.08,0V35A1,1,0,0,1,18,36.08Z"/><path class="cls-1" d="M18,4.49a1,1,0,0,1-1-1V1a1,1,0,1,1,2.08,0V3.45A1,1,0,0,1,18,4.49Z"/><path class="cls-2" d="M35,19.08H32.63a1,1,0,0,1,0-2.08H35a1,1,0,0,1,0,2.08Z"/><path class="cls-2" d="M3.46,19.08H1A1,1,0,1,1,1,17H3.46a1,1,0,1,1,0,2.08Z"/><path class="cls-3" d="M17.29,17.3a1,1,0,0,0,0,1.47l7.12,6.94a1,1,0,1,0,1.45-1.48l-7.12-6.95A1,1,0,0,0,17.29,17.3Z"/><path class="cls-3" d="M21.56,12.92,17.29,17.3a1,1,0,0,0,1.49,1.46l4.27-4.38a1.05,1.05,0,0,0,0-1.48A1,1,0,0,0,21.56,12.92Z"/><circle class="cls-4" cx="18.04" cy="18.04" r="1.82"/><path class="cls-5" d="M18,20.17A2.13,2.13,0,1,1,20.17,18,2.13,2.13,0,0,1,18,20.17Zm0-3.63a1.5,1.5,0,1,0,1.5,1.5A1.5,1.5,0,0,0,18,16.54Z"/></g></g></svg>