<svg xmlns="http://www.w3.org/2000/svg" xmlns:xlink="http://www.w3.org/1999/xlink" viewBox="0 0 33.92 38.63"><defs><style>.cls-1{fill:url(#radial-gradient);}</style><radialGradient id="radial-gradient" cx="16.27" cy="93.18" r="144.65" gradientUnits="userSpaceOnUse"><stop offset="0" stop-color="#9344ff"/><stop offset="0.52" stop-color="#0078ff"/><stop offset="1" stop-color="#00c8ff"/></radialGradient></defs><title>icon_2</title><g id="Layer_2" data-name="Layer 2"><g id="Shapes"><path class="cls-1" d="M17.4,38.63a1.18,1.18,0,0,1-.62-.19C2.75,28.8-2.67,12.89,1.23,4.64,3.13.63,6.93-.88,11.65.5h0c5.76,2,6.79,1.66,9.05.87A27.57,27.57,0,0,1,23.67.49h0c4.08-1,7.37.5,9,4.05,3.77,8-1.32,23.91-14.65,33.87A1.16,1.16,0,0,1,17.4,38.63ZM8.4,2.18a5.43,5.43,0,0,0-5.19,3.4c-3,6.34.36,20.76,14.17,30.6C30,26.37,33.69,11.78,30.73,5.47c-1.22-2.61-3.49-3.59-6.55-2.86h0a25.35,25.35,0,0,0-2.71.83c-2.78,1-4.27,1.31-10.46-.86A9.48,9.48,0,0,0,8.4,2.18Zm15.53-.63Z"/><path class="cls-1" d="M17.46,10.08a16.21,16.21,0,0,1-6.87-1.56,1.09,1.09,0,1,1,.92-2A13.21,13.21,0,0,0,23,6.68a.94.94,0,0,1,.31-.17,1.11,1.11,0,0,1,1.28.4,1.1,1.1,0,0,1-.07,1.33,2.05,2.05,0,0,1-.48.33h0A14.23,14.23,0,0,1,17.46,10.08Z"/></g></g></svg>