<svg xmlns="http://www.w3.org/2000/svg" xmlns:xlink="http://www.w3.org/1999/xlink" viewBox="0 0 34.08 34.06"><defs><style>.cls-1{fill:url(#radial-gradient);}</style><radialGradient id="radial-gradient" cx="15.4" cy="146.33" r="144.65" gradientUnits="userSpaceOnUse"><stop offset="0" stop-color="#9344ff"/><stop offset="0.52" stop-color="#0078ff"/><stop offset="1" stop-color="#00c8ff"/></radialGradient></defs><title>icon_1</title><g id="Layer_2" data-name="Layer 2"><g id="Shapes"><path class="cls-1" d="M25.64,34.06a17.21,17.21,0,0,1-2.24-.23,16.8,16.8,0,0,1-3.76-1.15A30.15,30.15,0,0,1,14.74,30a35.5,35.5,0,0,1-5.8-4.88,38.92,38.92,0,0,1-4-4.59,32.29,32.29,0,0,1-2.58-4.07A22.17,22.17,0,0,1,.84,13a17.59,17.59,0,0,1-.69-2.7A9.37,9.37,0,0,1,0,8.4q0-.54,0-.63V7.63a4.24,4.24,0,0,1,.4-1.27,3.73,3.73,0,0,1,.79-1.09L5.73.78A2.54,2.54,0,0,1,7.55,0,2.33,2.33,0,0,1,9,.46a3.39,3.39,0,0,1,.83.9l.05.08,3.62,6.87a2.72,2.72,0,0,1,.27,1.89,3.13,3.13,0,0,1-.86,1.6l-1.48,1.48a5.9,5.9,0,0,0,.45,1.07A13.87,13.87,0,0,0,13,16.2a21.3,21.3,0,0,0,2.29,2.56,21,21,0,0,0,2.6,2.32,14.23,14.23,0,0,0,1.84,1.19,4.21,4.21,0,0,0,.95.4l.1,0,1.8-1.83a3.11,3.11,0,0,1,2.11-.81,2.91,2.91,0,0,1,1.15.21h.05l.28.14,6.54,3.86A2.75,2.75,0,0,1,34,26.07l0,.07a2.6,2.6,0,0,1-.77,2.23L28.8,32.82a3.51,3.51,0,0,1-1.1.8,4.13,4.13,0,0,1-1.27.39l-.15,0h-.1ZM2.12,7.88c0,.12,0,.33,0,.64A7.29,7.29,0,0,0,2.21,10a15.85,15.85,0,0,0,.61,2.39,19.87,19.87,0,0,0,1.35,3.12A32.1,32.1,0,0,0,6.59,19.3a37.34,37.34,0,0,0,3.82,4.34,33.81,33.81,0,0,0,5.47,4.61,28.22,28.22,0,0,0,4.55,2.5,14.39,14.39,0,0,0,3.28,1,14.84,14.84,0,0,0,1.93.21H26l.19,0a2.12,2.12,0,0,0,.63-.21,1.45,1.45,0,0,0,.47-.33l0,0,4.51-4.48a.51.51,0,0,0,.18-.44c0-.08-.09-.23-.37-.41l-6.56-3.85a.77.77,0,0,0-.38-.06,1.07,1.07,0,0,0-.71.26l-1.9,1.94a1.59,1.59,0,0,1-.63.38,1.79,1.79,0,0,1-.55.1l-.21,0-.42-.08a6.24,6.24,0,0,1-1.49-.59,17.08,17.08,0,0,1-2.12-1.35,24.49,24.49,0,0,1-2.84-2.54,22.13,22.13,0,0,1-2.5-2.81A15.13,15.13,0,0,1,10,15.29a6.9,6.9,0,0,1-.7-1.89l0-.2a1.85,1.85,0,0,1,.11-.58A1.57,1.57,0,0,1,9.73,12l1.66-1.66a1.08,1.08,0,0,0,.29-.56.6.6,0,0,0-.06-.46L8,2.45a1.18,1.18,0,0,0-.31-.32c-.08-.06-.22-.15-.5.12L2.66,6.79a1.41,1.41,0,0,0-.34.48A2.28,2.28,0,0,0,2.12,7.88Z"/></g></g></svg>