<svg xmlns="http://www.w3.org/2000/svg" xmlns:xlink="http://www.w3.org/1999/xlink" viewBox="0 0 47.59 47.59"><defs><style>.cls-1{fill:url(#radial-gradient);}.cls-2{fill:url(#linear-gradient);}.cls-3{fill:url(#linear-gradient-2);}.cls-4{fill:url(#linear-gradient-3);}.cls-5{fill:url(#linear-gradient-4);}.cls-6{fill:url(#linear-gradient-5);}.cls-7{fill:url(#linear-gradient-6);}.cls-8{fill:url(#linear-gradient-7);}.cls-9{fill:#fff;}</style><radialGradient id="radial-gradient" cx="9.76" cy="-13343.13" r="52.49" gradientTransform="matrix(1, 0, 0, -1, 0, -13301.53)" gradientUnits="userSpaceOnUse"><stop offset="0" stop-color="#fae100"/><stop offset="0.05" stop-color="#fadc04"/><stop offset="0.12" stop-color="#fbce0e"/><stop offset="0.18" stop-color="#fcb720"/><stop offset="0.25" stop-color="#fe9838"/><stop offset="0.31" stop-color="#ff7950"/><stop offset="0.49" stop-color="#ff1c74"/><stop offset="1" stop-color="#6c1cd1"/></radialGradient><linearGradient id="linear-gradient" x1="18.25" y1="-13322.21" x2="-62.37" y2="-13276.86" gradientTransform="matrix(1, 0, 0, -1, 0, -13301.53)" gradientUnits="userSpaceOnUse"><stop offset="0" stop-color="#a1b5d8" stop-opacity="0"/><stop offset="0.31" stop-color="#90a2bd" stop-opacity="0.31"/><stop offset="0.76" stop-color="#7c8b9c" stop-opacity="0.76"/><stop offset="1" stop-color="#748290"/></linearGradient><linearGradient id="linear-gradient-2" x1="23.8" y1="-13343.55" x2="23.8" y2="-13350.96" gradientTransform="matrix(1, 0, 0, -1, 0, -13301.53)" gradientUnits="userSpaceOnUse"><stop offset="0" stop-color="#fae100" stop-opacity="0"/><stop offset="0.31" stop-color="#fca800" stop-opacity="0.31"/><stop offset="0.63" stop-color="#fe7300" stop-opacity="0.63"/><stop offset="0.87" stop-color="#ff5200" stop-opacity="0.87"/><stop offset="1" stop-color="#ff4500"/></linearGradient><linearGradient id="linear-gradient-3" x1="21.09" y1="-13322.55" x2="9.31" y2="-13310.78" gradientTransform="matrix(1, 0, 0, -1, 0, -13301.53)" gradientUnits="userSpaceOnUse"><stop offset="0" stop-color="#833ab4" stop-opacity="0"/><stop offset="1" stop-color="#833ab4"/></linearGradient><linearGradient id="linear-gradient-4" x1="32.62" y1="-13345.06" x2="26.74" y2="-13317.35" xlink:href="#linear-gradient-3"/><linearGradient id="linear-gradient-5" x1="34.85" y1="-13336.39" x2="11.24" y2="-13312.78" xlink:href="#linear-gradient-3"/><linearGradient id="linear-gradient-6" x1="36.61" y1="-13322.1" x2="28.8" y2="-13314.29" xlink:href="#linear-gradient-3"/><linearGradient id="linear-gradient-7" x1="33.25" y1="-13315.95" x2="13.99" y2="-13335.2" gradientTransform="matrix(1, 0, 0, -1, 0, -13301.53)" gradientUnits="userSpaceOnUse"><stop offset="0" stop-color="#833ab4"/><stop offset="0.09" stop-color="#9c3495"/><stop offset="0.29" stop-color="#dc2546"/><stop offset="0.39" stop-color="#fd1d1d"/><stop offset="0.56" stop-color="#fc6831"/><stop offset="0.69" stop-color="#fc9b40"/><stop offset="0.75" stop-color="#fcaf45"/><stop offset="0.78" stop-color="#fdb750"/><stop offset="0.87" stop-color="#fecb6a"/><stop offset="0.94" stop-color="#ffd87a"/><stop offset="1" stop-color="#ffdc80"/></linearGradient></defs><title>instagram</title><g id="Layer_2" data-name="Layer 2"><g id="Shapes"><path class="cls-1" d="M46.78,8.51a8.67,8.67,0,0,0-7.7-7.7A144.62,144.62,0,0,0,8.51.81a8.68,8.68,0,0,0-7.7,7.7,144.62,144.62,0,0,0,0,30.57,8.67,8.67,0,0,0,7.7,7.7,144.62,144.62,0,0,0,30.57,0,8.66,8.66,0,0,0,7.7-7.7A144.62,144.62,0,0,0,46.78,8.51Z"/><path class="cls-2" d="M44.19,10.23A7.69,7.69,0,0,0,37.36,3.4a128.14,128.14,0,0,0-27.13,0A7.7,7.7,0,0,0,3.4,10.23a128.14,128.14,0,0,0,0,27.13,7.69,7.69,0,0,0,6.83,6.83,128.14,128.14,0,0,0,27.13,0,7.68,7.68,0,0,0,6.83-6.83A128.14,128.14,0,0,0,44.19,10.23Z"/><path class="cls-3" d="M.71,38.09c0,.33.07.66.1,1a8.67,8.67,0,0,0,7.7,7.7,144.62,144.62,0,0,0,30.57,0,8.66,8.66,0,0,0,7.7-7.7c0-.33.07-.66.1-1Z"/><path class="cls-4" d="M46.78,39.08a145.6,145.6,0,0,0,.81-16.42L36.71,11.78A7.78,7.78,0,0,0,31,9.17c-4.79-.17-9.61-.16-14.4,0-4,.14-6.78,2.82-7.49,6.76-.13.69-.2,1.39-.3,2.09V29.56c.05.38.13.75.16,1.13a8.38,8.38,0,0,0,2.72,5.83L22.79,47.59a143.2,143.2,0,0,0,16.29-.81A8.66,8.66,0,0,0,46.78,39.08Z"/><path class="cls-5" d="M46.78,39.08a8.66,8.66,0,0,1-7.7,7.7,143.2,143.2,0,0,1-16.29.81l-11-11.05a7.73,7.73,0,0,0,4.89,1.87c4.79.18,9.61.18,14.4,0a7.72,7.72,0,0,0,7.62-7.71q.21-6.91,0-13.83a8.14,8.14,0,0,0-1.93-5.1L47.59,22.66A145.6,145.6,0,0,1,46.78,39.08Z"/><path class="cls-6" d="M29.41,18.64A7.62,7.62,0,1,0,18.64,29.41L36.28,47.05c.93-.08,1.87-.17,2.8-.27a8.66,8.66,0,0,0,7.7-7.7c.1-.93.19-1.87.27-2.8Z"/><path class="cls-7" d="M47.5,28.92,33.31,14.73a1.81,1.81,0,1,0-2.54,2.54L47.25,33.75C47.36,32.14,47.44,30.53,47.5,28.92Z"/><path class="cls-8" d="M8.84,18c.1-.7.17-1.4.3-2.09.71-3.94,3.5-6.62,7.49-6.76C21.42,9,26.24,9,31,9.17a7.72,7.72,0,0,1,7.62,7.71q.21,6.91,0,13.83A7.72,7.72,0,0,1,31,38.42c-4.79.17-9.61.17-14.4,0C12.29,38.25,9.29,35,9,30.69c0-.38-.11-.75-.16-1.13Zm15,17.82c2.2,0,4.39.07,6.59,0,3.43-.13,5.55-2.18,5.63-5.61q.15-6.42,0-12.85a5.32,5.32,0,0,0-5.63-5.6q-6.55-.15-13.09,0c-3.41.07-5.53,2.12-5.63,5.52q-.16,6.5,0,13c.1,3.39,2.22,5.4,5.63,5.53C19.46,35.91,21.63,35.84,23.8,35.84Z"/><path class="cls-9" d="M8.84,18c.1-.7.17-1.4.3-2.09.71-3.94,3.5-6.62,7.49-6.76C21.42,9,26.24,9,31,9.17a7.72,7.72,0,0,1,7.62,7.71q.21,6.91,0,13.83A7.72,7.72,0,0,1,31,38.42c-4.79.17-9.61.17-14.4,0C12.29,38.25,9.29,35,9,30.69c0-.38-.11-.75-.16-1.13Zm15,17.82c2.2,0,4.39.07,6.59,0,3.43-.13,5.55-2.18,5.63-5.61q.15-6.42,0-12.85a5.32,5.32,0,0,0-5.63-5.6q-6.55-.15-13.09,0c-3.41.07-5.53,2.12-5.63,5.52q-.16,6.5,0,13c.1,3.39,2.22,5.4,5.63,5.53C19.46,35.91,21.63,35.84,23.8,35.84Z"/><path class="cls-9" d="M23.8,16.17a7.63,7.63,0,1,0,7.62,7.63A7.64,7.64,0,0,0,23.8,16.17Zm0,12.63a5,5,0,1,1,5-5A5,5,0,0,1,23.8,28.8Z"/><path class="cls-9" d="M33.68,15.83A1.82,1.82,0,1,1,31.86,14,1.81,1.81,0,0,1,33.68,15.83Z"/></g></g></svg>