<svg xmlns="http://www.w3.org/2000/svg" viewBox="0 0 496.65 355.83"><defs><style>.cls-1,.cls-5{opacity:0.2;}.cls-2,.cls-5,.cls-7{fill:#049ae4;}.cls-10,.cls-3,.cls-6{fill:none;}.cls-10,.cls-11,.cls-3,.cls-4,.cls-6{stroke:#049ae4;}.cls-3,.cls-4,.cls-6{stroke-miterlimit:10;}.cls-10,.cls-11,.cls-3,.cls-4{stroke-width:2px;}.cls-11,.cls-12,.cls-4{fill:#fff;}.cls-5{isolation:isolate;}.cls-10,.cls-11,.cls-6{stroke-linecap:round;}.cls-6{stroke-width:5px;}.cls-7{opacity:0.8;}.cls-8{opacity:0.25;}.cls-9{opacity:0.1;}.cls-10,.cls-11{stroke-linejoin:round;}</style></defs><title>variants__teeth</title><g id="Layer_2" data-name="Layer 2"><g id="_1" data-name="1"><g class="cls-1"><path class="cls-2" d="M248.19,276.62s2.65,79.83-15.22,79.21-23.83-59-22.84-77.35c.24-1.63,1.73-2.88,4-3.83a31.42,31.42,0,0,1,8.06-1.83,68.26,68.26,0,0,1,7-.39C238.66,272.36,248.14,274.09,248.19,276.62Z"/><path class="cls-2" d="M187.1,268.27c-2.59-2.3-9-3.46-16.74,4.16s-2.8,57.61,0,68.49,10.25,9.63,14.3,11.18c0,0,13.34.31,14.91-7.77,1.33-6.93,8.4-49.83,8.4-64.95a5.77,5.77,0,0,0-4.71-5.65C198.23,272.77,189.93,270.84,187.1,268.27Z"/><path class="cls-2" d="M82.82,241.18c-1.09-3.42-4.24-11-17.71-9.48-7.11.83-4.81-3.52-9.78-5s-10.77,1.65-10.77,1.65S34,234.06,32.76,241.52s-1.86,36.44,2.18,40,9.22,1.65,11.44,2.89,17.87,1.52,21.12.13c0,0,9.94-11.78,12.43-26.32S82.82,241.18,82.82,241.18Z"/><path class="cls-2" d="M32.13,268.24l-4.52-.63c-4.54-.62-3.49-3.42-7.53-3.11s-6.52,0-9.8-5.68-6.35-20.41-3.87-33.31S14,214.78,16.72,215c3,.85,3.42,4.58,7.77,6.6,6.42,2.95,7.59-1.51,14-1.94s11,4.45,12.25,6.8"/><path class="cls-2" d="M248.79,276.62s-2.65,79.83,15.23,79.21,23.83-59,22.84-77.35c-.25-1.63-1.74-2.88-4-3.83a31.33,31.33,0,0,0-8.06-1.83,67.87,67.87,0,0,0-7-.39C258.27,272.36,248.83,274.09,248.79,276.62Z"/><path class="cls-2" d="M309.88,268.27c2.58-2.3,9-3.46,16.74,4.16s2.79,57.61,0,68.49-10.26,9.63-14.31,11.18c0,0-13.34.31-14.91-7.77-1.33-6.93-8.38-49.83-8.4-64.95a5.78,5.78,0,0,1,4.71-5.65C298.76,272.77,307,270.84,309.88,268.27Z"/><path class="cls-2" d="M330.69,291.2s7.46,55,28.69,52.51,14.45-37.27,14.45-48.77-2.48-22.67-8.7-26.71a70.65,70.65,0,0,0-6.59-3.79,15.4,15.4,0,0,0-9.27-1.49c-8.7,1.38-21,5.93-20.94,12.29"/><path class="cls-2" d="M374,299s15.36,35.11,26.54,31.39,11.19-50.95,9-59.33a15.87,15.87,0,0,0-17.21-11.71c-3.86.55-15.54-.81-19.58,2.88a16.21,16.21,0,0,0-4.67,8.83"/><path class="cls-2" d="M410.25,299.93s8.31,19.24,17.94,18,14.91-8.11,14.29-14.77,1.24-38-2-42.38A98.81,98.81,0,0,0,424.76,245s-7.09-6-13.38-3.5c-2.83,1.24-4.85,6.67-6.92,8.86-1.24,1.3-7.52.79-8.7,1.86a5.75,5.75,0,0,0-1.44,7"/><path class="cls-2" d="M442.53,286.25c.07.62,5.85-.62,8.07-1.87s7.46.62,11.45-2.89,3.41-32.52,2.17-40-11.78-13.14-11.78-13.14-5.82-3.09-10.79-1.65-2.66,5.8-9.78,5c-13.47-1.55-16.63,6.06-17.71,9.48"/><path class="cls-2" d="M464.91,268.24l4.52-.63c4.53-.62,3.49-3.42,7.53-3.11s6.52,0,9.8-5.68,6.34-20.41,3.85-33.31S483,214.78,480.31,215c-3,.85-3.41,4.58-7.76,6.6-6.43,2.95-7.61-1.51-14-1.94s-11,4.45-12.26,6.8"/></g><path class="cls-2" d="M8.37,251.5a47.78,47.78,0,0,0-3.26,9.71c-.82,3.38-1.46,6.8-2,10.25C2,278.35,1.35,285.31.83,292.29c.18-7,.54-14,1.29-21,.38-3.49.85-7,1.52-10.43a49.3,49.3,0,0,1,2.93-10.28Z"/><path class="cls-3" d="M248,275.49s2.64,79.83-15.24,79.21S209,295.68,210,277.35c.25-1.63,1.74-2.88,4-3.83a31.77,31.77,0,0,1,8.06-1.84,67.86,67.86,0,0,1,7-.38C238.5,271.24,248,273,248,275.49Z"/><path class="cls-3" d="M186.93,267.15c-2.58-2.31-9-3.47-16.73,4.15s-2.8,57.61,0,68.49,10.25,9.63,14.3,11.18c0,0,13.34.31,14.91-7.77,1.33-6.93,8.4-49.83,8.4-65a5.78,5.78,0,0,0-4.71-5.64C198.05,271.63,189.82,269.71,186.93,267.15Z"/><path class="cls-3" d="M82.65,240.05c.21-3.58-4.24-11-17.7-9.47-7.12.82-4.81-3.53-9.78-5s-10.79,1.64-10.79,1.64-10.55,5.68-11.79,13.14-1.86,36.44,2.18,40S44,282,46.21,283.25a23.06,23.06,0,0,0,8.8,2.41s9.23,1,12.49-1.15S81.2,265.32,82.65,240.05Z"/><path class="cls-3" d="M31.91,267.11l-4.53-.63c-4.53-.62-3.49-3.42-7.52-3.11s-6.53,0-9.81-5.68S3.7,237.28,6.19,224.38s7.59-10.73,10.3-10.5c3,.86,3.41,4.59,7.76,6.6,6.44,3,7.61-1.51,14-1.92s11,4.43,12.26,6.78"/><path class="cls-2" d="M490.08,250.62A49.3,49.3,0,0,1,493,260.9c.67,3.46,1.14,6.94,1.52,10.43.75,7,1.11,14,1.29,21-.51-7-1.2-13.94-2.28-20.83-.54-3.45-1.17-6.87-2-10.25a48.42,48.42,0,0,0-3.27-9.71Z"/><path class="cls-3" d="M248.62,275.49S246,355.32,263.86,354.7s23.82-59,22.83-77.35c-.24-1.63-1.74-2.88-4-3.83a31.77,31.77,0,0,0-8.06-1.84,67.86,67.86,0,0,0-7-.38C258.15,271.24,248.67,273,248.62,275.49Z"/><path class="cls-3" d="M309.72,267.15c2.58-2.31,9-3.47,16.73,4.15s2.8,57.61,0,68.49-10.25,9.63-14.3,11.18c0,0-13.34.31-14.91-7.77-1.33-6.93-8.4-49.83-8.4-65a5.78,5.78,0,0,1,4.71-5.64C298.6,271.63,306.83,269.71,309.72,267.15Z"/><path class="cls-3" d="M330.53,290.07s7.45,55,28.69,52.51,14.45-37.27,14.45-48.77-2.49-22.67-8.7-26.71a69.54,69.54,0,0,0-6.6-3.79,15.39,15.39,0,0,0-9.27-1.49c-8.69,1.38-21,5.93-20.93,12.29"/><path class="cls-3" d="M373.82,297.84s15.37,35.11,26.55,31.38,11.18-50.94,9-59.32a15.87,15.87,0,0,0-17.21-11.71c-3.86.55-15.54-.81-19.58,2.88a16.15,16.15,0,0,0-4.67,8.83"/><path class="cls-3" d="M410.09,298.8S418.4,318,428,316.8s14.91-8.11,14.29-14.77,1.24-38-2-42.39a98.36,98.36,0,0,0-15.74-15.79s-7.09-6-13.38-3.5c-2.83,1.24-4.86,6.67-6.92,8.87-1.24,1.24-7.52.78-8.7,1.86a5.74,5.74,0,0,0-1.44,7"/><path class="cls-3" d="M442.37,285.12c.07.62,5.85-.63,8.07-1.87s7.46.62,11.45-2.89,3.41-32.52,2.17-40-11.79-13.14-11.79-13.14-5.82-3.09-10.79-1.64-2.65,5.79-9.77,5c-13.47-1.55-16.63,6-17.71,9.47"/><path class="cls-3" d="M464.74,267.11l4.53-.63c4.53-.62,3.49-3.42,7.53-3.11s6.52,0,9.8-5.68,6.35-20.41,3.86-33.31-7.59-10.73-10.3-10.5c-3,.86-3.41,4.59-7.76,6.6-6.44,3-7.61-1.51-14-1.92s-11,4.43-12.25,6.78"/><path class="cls-4" d="M181.85,143.86s1.56,13.35,27.65,13.35,38.2-9,38.2-17.39c0-7.63-4.62-46.86-16.67-70.25a18.63,18.63,0,0,0-14.44-10.09,22.85,22.85,0,0,0-7.86.52A25.17,25.17,0,0,0,191,76.72C186.87,89,179.84,115,181.85,143.86Z"/><path class="cls-3" d="M184,148.52s-3.12.93-27,0-20.42-7.77-18.95-51c1.25-36.23,13-37.2,13-37.2S170,52,182.47,115.59"/><path class="cls-3" d="M137.74,106s-7.45-53.43-25.46-53.12S92.72,87.94,90.54,118.7s41.33,31.68,46.45,18.63"/><path class="cls-3" d="M93,89.42S85.25,63.09,80.59,57.5s-10.25-.35-10.87,1.85-6.53,32.31-5,47.22,6.52,24.54,16.15,28.27,12.11-3,12.11-3"/><path class="cls-3" d="M66,81.12S63.19,60.3,57.6,57.81,47.59,75,46.71,82.09c-1,7.87-3.4,26.09,2.48,31.33s14.15,1.24,15.66-5.72"/><path class="cls-3" d="M48.44,73s.78-24.53-4.19-25.77-5,3.11-7.46,3.11-5-4.18-6.21-3.33-9,43.4-3.11,58.93c2.8,6.21,6.76,1.33,8,2s2.56,3.42,5.67,3.49a16.3,16.3,0,0,0,6-1.24"/><path class="cls-3" d="M26.92,66.1s-1.41-22.58-6-24-4.76,2.9-9.32,3.73-3.11,3.63-4.76,8.13S-.8,84.74,4.8,92.81c3.31,4.14,3.51,1,6.62,2.69s3.94,4.43,6.42,3.56,7.46-.23,7.46-6.46"/><path class="cls-3" d="M358.17,106s7.46-53.42,25.46-53.1S403.2,88,405.38,118.72s-41.33,31.68-46.45,18.64"/><path class="cls-3" d="M402.94,89.43s7.72-26.31,12.43-31.9,10.25-.36,10.87,1.84,6.52,32.3,5,47.21-6.52,24.54-16.15,28.27-12.07-3-12.07-3"/><path class="cls-3" d="M429.88,81.14s2.83-20.82,8.42-23.3,10,17.18,10.89,24.26c1,7.87,3.4,26.1-2.49,31.34s-14.15,1.24-15.65-5.72"/><path class="cls-3" d="M447.46,73s-.77-24.51,4.2-25.75,5,3.1,7.46,3.1,5-4.17,6.21-3.33,9,43.4,3.1,58.94c-2.79,6.21-6.76,1.31-8,1.93s-2.56,3.42-5.66,3.49a16.42,16.42,0,0,1-6-1.24"/><path class="cls-3" d="M469,66.1s1.42-22.56,6-24,4.76,2.9,9.32,3.73,3.1,3.64,4.75,8.14,7.67,30.79,2.08,38.88c-3.32,4.15-3.52,1-6.62,2.68s-3.94,4.44-6.43,3.57-7.45-.24-7.45-6.45"/><path class="cls-4" d="M314.05,143.88s-1.55,13.36-27.64,13.36-38.21-9-38.21-17.4c0-7.63,4.62-46.86,16.68-70.26a18.63,18.63,0,0,1,14.43-10.09,23.4,23.4,0,0,1,7.87.52A25.2,25.2,0,0,1,305,76.74C309,89,316.07,115,314.05,143.88Z"/><path class="cls-3" d="M311.87,148.54s3.12.93,27,0,20.43-7.78,19-50.94c-1.24-36.25-13-37.21-13-37.21S326,52,313.42,115.61"/><path class="cls-5" d="M490.2,53.27a18.46,18.46,0,0,1-.83-3.45c-.43-2.48-.84-4.75-4.86-5.49a6.78,6.78,0,0,1-3.58-2c-1.45-1.24-3.09-2.72-6.33-1.69s-4.89,8.49-5.86,15.27c-.88-5.13-1.87-9.59-2.7-10.15-1.4-.94-2.81.27-4.07,1.36-.9.78-2,1.75-2.84,1.75-.38,0-.67-.28-1.24-1a5.74,5.74,0,0,0-6.47-2.09c-3.82,1-5,10.67-5.15,18.55-1.37-3.59-3.06-6.59-5.06-7.72a3.64,3.64,0,0,0-3.35-.2c-3.84,1.71-6.37,10.14-7.78,16.63-1.24-7.7-2.49-13.58-2.64-14.3a8.67,8.67,0,0,0-6-5.1c-1.82-.38-4.49-.2-7,2.8-3.46,4.16-8.37,18.76-10.92,26.87-2.68-18.06-7.78-31.77-19.78-32h-.17c-13.55,0-21.2,27-24.53,42.94-1.76-31.92-12.2-35.07-13.9-35.37a10,10,0,0,0-8,1c-6.69,3.48-16,14.72-23.44,48a192,192,0,0,0-7.58-31.81A26.5,26.5,0,0,0,287.5,58.55a24.14,24.14,0,0,0-8.3-.55,19.67,19.67,0,0,0-15.39,10.75c-9.15,17.74-13.93,44-15.83,59.38-1.89-15.37-6.69-41.65-15.83-59.4A19.76,19.76,0,0,0,216.75,58a25.21,25.21,0,0,0-8.3.55,26.57,26.57,0,0,0-18.63,17.55,190.83,190.83,0,0,0-7.58,31.82c-7.46-33.23-16.75-44.47-23.45-47.95a10.15,10.15,0,0,0-8-1c-1.69.32-12.13,3.46-13.83,35.39-3.33-15.9-11-42.94-24.53-42.94h-.17c-12,.21-17.1,13.92-19.78,32-2.49-8.1-7.46-22.7-10.93-26.86-2.48-3-5.18-3.18-7-2.8a8.7,8.7,0,0,0-6,5.1c-.2.72-1.41,6.59-2.63,14.3-1.5-6.5-4-14.93-7.83-16.63a3.58,3.58,0,0,0-3.35.2c-2,1.12-3.73,4.13-5.06,7.72-.25-7.88-1.33-17.6-5.16-18.55a5.74,5.74,0,0,0-6.46,2.08c-.62.7-.92,1-1.24,1-.82,0-1.94-1-2.86-1.76-1.24-1.08-2.66-2.3-4-1.35-.83.56-1.82,5-2.71,10.15-1-6.8-2.72-14.28-5.85-15.27S16.49,41,15,42.31a7,7,0,0,1-3.57,2c-4,.73-4.43,3-4.86,5.49a18.4,18.4,0,0,1-.85,3.44c-1.58,4.15-8,31.26-1.92,40.07,2.23,2.81,3.54,2.87,5,2.68a2.58,2.58,0,0,1,2,.33,11.47,11.47,0,0,1,2.49,2,5.36,5.36,0,0,0,3.58,1.93,3.79,3.79,0,0,0,1.24-.24,14.25,14.25,0,0,1,1.73-.32,9.48,9.48,0,0,0,4.69-1.89,35.27,35.27,0,0,0,1.84,8.49A6.23,6.23,0,0,0,29.68,110a6,6,0,0,0,4.68-.67c.23-.11.53-.26.73-.33.21.17.48.46.74.72a7.43,7.43,0,0,0,5.27,2.79h.31a16.66,16.66,0,0,0,5.05-.85,9.39,9.39,0,0,0,1.92,2.56,10.32,10.32,0,0,0,6.9,2.73,9.9,9.9,0,0,0,3.15-.51A11.23,11.23,0,0,0,64.27,112c2.29,12.7,7.61,20.52,16.16,23.84a15.78,15.78,0,0,0,5.75,1.24,9.26,9.26,0,0,0,3.88-.79,8,8,0,0,0,2.83-2.19c3.55,5.57,9.55,9.55,17.54,11.36a38.43,38.43,0,0,0,8.41.93c8,0,15-2.48,18.12-6.71a12.46,12.46,0,0,0,2.71,5c3.4,3.73,9.12,4.65,17.26,5s13.66.42,17.68.42a79.51,79.51,0,0,0,8.86-.32c3.34,4,10.53,8.6,26,8.6,22.69,0,35-6.77,38.46-14.24,3.4,7.45,15.74,14.25,38.52,14.25,15.46,0,22.66-4.58,26-8.6a77.1,77.1,0,0,0,8.86.33c4,0,9.72-.12,17.68-.43s13.85-1.24,17.26-5a12.4,12.4,0,0,0,2.71-5c3.1,4.19,10.16,6.71,18.11,6.71a38.36,38.36,0,0,0,8.41-.93c8-1.81,14-5.79,17.55-11.34a8.13,8.13,0,0,0,2.83,2.17,9.24,9.24,0,0,0,3.88.8,16,16,0,0,0,5.75-1.25c8.57-3.31,13.89-11.18,16.15-23.85a11.27,11.27,0,0,0,5.84,4.41,10,10,0,0,0,3.16.51,10.32,10.32,0,0,0,6.9-2.73,9.7,9.7,0,0,0,1.92-2.49,17.3,17.3,0,0,0,5.05.85h.31a7.49,7.49,0,0,0,5.25-3,10,10,0,0,1,.75-.71,6.73,6.73,0,0,1,.73.32,6,6,0,0,0,4.67.69,6.42,6.42,0,0,0,3.37-3.73,34.68,34.68,0,0,0,1.83-8.43,9.33,9.33,0,0,0,4.67,1.92,10.41,10.41,0,0,1,1.56.37,4.16,4.16,0,0,0,1.31.24,5.43,5.43,0,0,0,3.58-1.94A11.41,11.41,0,0,1,485,96.37a2.65,2.65,0,0,1,2-.34c1.48.2,2.79.14,5.08-2.73C498.19,84.53,491.73,57.4,490.2,53.27Z"/><line class="cls-6" x1="297.12" y1="169.05" x2="380.86" y2="216.57"/><path class="cls-4" d="M326.24,171.55s-1.55,13.36-27.64,13.36-38.21-9-38.21-17.4c0-7.63,4.62-46.85,16.67-70.25a18.67,18.67,0,0,1,14.44-10,22.91,22.91,0,0,1,7.87.53,25.16,25.16,0,0,1,17.78,16.72C321.22,116.67,328.26,142.65,326.24,171.55Z"/><polyline class="cls-6" points="305.19 158.21 337.57 158.21 381.81 204.68"/><path class="cls-2" d="M488,46.59a.24.24,0,0,0-.12-.05h0s0,0,0,0,0,0,.09,0l.16-.06.2-.17c.06-.06.14-.1.21-.17l.2-.25a4.32,4.32,0,0,0,.4-.53c.23-.42.5-.79.7-1.25l.6-1.36c.32-1,.69-1.89,1-2.87s.56-2,.78-3l.67-3c.2-1,.37-2,.55-3,.4-2,.64-4.07.95-6.12.54-4.09,1-8.2,1.37-12.33s.64-8.25,1-12.38c-.15,4.14-.21,8.28-.47,12.42s-.49,8.28-.87,12.41c-.22,2.06-.39,4.13-.7,6.19-.15,1-.27,2.07-.44,3.09l-.55,3.09a53.89,53.89,0,0,1-1.57,6.12l-.6,1.51a13.07,13.07,0,0,1-.76,1.49,5.57,5.57,0,0,1-.5.73l-.28.36a3,3,0,0,1-.37.34,4,4,0,0,1-.39.33,5.44,5.44,0,0,1-.54.27,1.89,1.89,0,0,1-.67.16,1.06,1.06,0,0,1-.39,0l-.21,0a1.44,1.44,0,0,1-.3-.12Z"/><path class="cls-2" d="M0,0C.32,4.14.54,8.28,1,12.39s.82,8.24,1.36,12.33c.31,2,.55,4.09.95,6.12.18,1,.35,2,.55,3l.67,3a51.14,51.14,0,0,0,1.74,5.84l.6,1.35c.2.46.47.83.7,1.25a3.67,3.67,0,0,0,.4.53l.2.25c.07.07.15.11.21.17l.2.17.16.07c.07.05.07,0,.09,0h0a.24.24,0,0,0-.12.05l1,1.75-.3.12-.21,0a1.12,1.12,0,0,1-.4,0A2.13,2.13,0,0,1,8,48.36l-.54-.27-.39-.33-.37-.34-.28-.37a6.65,6.65,0,0,1-.5-.72,15,15,0,0,1-.76-1.49l-.6-1.51A54.05,54.05,0,0,1,3,37.2l-.55-3.08c-.16-1-.29-2.06-.44-3.09-.31-2.06-.47-4.13-.7-6.19C1,20.7.66,16.57.47,12.43S.15,4.15,0,0Z"/><path class="cls-4" d="M98,209.68s-8.3,19.25-17.93,18-14.91-8.12-14.28-14.78-1.25-38,2-42.38a98.36,98.36,0,0,1,15.74-15.79s7.09-6,13.39-3.49c2.84,1.18,4.85,6.66,6.91,8.86,1.24,1.24,7.46.78,8.7,1.86a5.78,5.78,0,0,1,1.45,7"/><path class="cls-4" d="M134.28,208.73s-15.36,35.11-26.54,31.38-11.19-50.94-9-59.33a15.87,15.87,0,0,1,17.21-11.7c3.86.55,15.53-.81,19.58,2.88a16.07,16.07,0,0,1,4.66,8.82"/><path class="cls-4" d="M177.59,201s-7.45,55-28.69,52.51-14.45-37.28-14.45-48.77,2.49-22.67,8.7-26.71a71.79,71.79,0,0,1,6.41-3.73,15.71,15.71,0,0,1,9.45-1.58,33.2,33.2,0,0,1,14.37,6.07,12.78,12.78,0,0,1,5.07,11.18Z"/><polygon class="cls-7" points="120.73 270.08 120.73 259.51 109.59 259.51 109.59 270.07 104.87 270.07 115.17 280.37 125.46 270.08 120.73 270.08"/><g class="cls-8"><polygon class="cls-7" points="120.73 263.1 120.73 252.52 109.59 252.52 109.59 263.09 104.87 263.09 115.17 273.38 125.46 263.1 120.73 263.1"/></g><g class="cls-9"><polygon class="cls-7" points="120.73 255.39 120.73 244.82 109.59 244.82 109.59 255.38 104.87 255.38 115.17 265.68 125.46 255.39 120.73 255.39"/></g><path class="cls-10" d="M72.45,277.82s15.71,1.92,20.48,6.48c8.27,2.27,22.36-2.49,36,10.77,18-.21,37.27,8.29,37.27,8.29"/><path class="cls-11" d="M78.39,263c7.26,0,13.16,2.31,13.16,5.14s-5.9,5.14-13.16,5.14S65.23,271,65.23,268.13,71.13,263,78.39,263Z"/><path class="cls-12" d="M91.55,268.13v19.36c0,2.83-5.9,5.14-13.16,5.14s-13.16-2.31-13.16-5.14V268.13c0,2.83,5.9,5.14,13.16,5.14S91.55,271,91.55,268.13Z"/><path class="cls-10" d="M91.55,268.13v19.36c0,2.83-5.9,5.14-13.16,5.14s-13.16-2.31-13.16-5.14V268.13c0,2.83,5.9,5.14,13.16,5.14S91.55,271,91.55,268.13Z"/><path class="cls-11" d="M148.45,283.35c7.25,0,13.15,2.31,13.15,5.15s-5.9,5.14-13.15,5.14-13.19-2.31-13.19-5.13S141.18,283.35,148.45,283.35Z"/><path class="cls-12" d="M161.6,288.51v19.36c0,2.83-5.9,5.14-13.15,5.14s-13.17-2.31-13.17-5.14V288.51c0,2.83,5.9,5.14,13.17,5.14S161.6,291.33,161.6,288.51Z"/><path class="cls-10" d="M161.6,288.51v19.36c0,2.83-5.9,5.14-13.15,5.14s-13.17-2.31-13.17-5.14V288.51c0,2.83,5.9,5.14,13.17,5.14S161.6,291.33,161.6,288.51Z"/></g></g></svg>