<svg xmlns="http://www.w3.org/2000/svg" viewBox="0 0 47.66 92.36"><defs><style>.cls-1,.cls-2{fill:none;stroke-width:4px;}.cls-1{stroke:#9c9c9c;stroke-linecap:round;stroke-linejoin:round;opacity:0.6;}.cls-2{stroke:#66acff;stroke-miterlimit:10;}</style></defs><title>variants__vinir</title><g id="Layer_2" data-name="Layer 2"><g id="_1" data-name="1"><path class="cls-1" d="M5.85,51.13c0,6.87-.06,21.37,6.43,26.7,1.38,1.13,3.29-1.08,5.92-.59,1.59.3,3.45,1.87,5.61,1.87,2.43,0,4.49-1.58,6.24-1.88,2.92-.51,4.95,1.64,6.33.44,5.81-5.07,5.28-18.39,5.52-26.09.11-3.52-7.61-7.5-8.81-17C31.16,19.34,29,2,23.81,2s-7.24,17.26-9.14,32.43C13.5,43.79,5.85,47.62,5.85,51.13Z"/><path class="cls-2" d="M5.71,55.85c0,7.92-10,26,2.79,32.72,2.07,1.09,4.73-1,8.13-.51,2.1.29,4.48,2.3,7.17,2.3s5.3-2,7.47-2.34c3.47-.5,6.17,1.52,8.23.37,12.29-6.85,2.4-24.69,2.4-32.54,0-10-8.1-17.54-18.1-17.54S5.71,45.86,5.71,55.85Z"/></g></g></svg>