<svg xmlns="http://www.w3.org/2000/svg" viewBox="0 0 319.79 241.37"><defs><style>.cls-1,.cls-5{opacity:0.2;}.cls-2,.cls-5,.cls-7{fill:#049ae4;}.cls-10,.cls-3,.cls-6{fill:none;}.cls-10,.cls-11,.cls-3,.cls-4,.cls-6{stroke:#049ae4;}.cls-3,.cls-4,.cls-6{stroke-miterlimit:10;}.cls-10,.cls-11,.cls-3,.cls-4{stroke-width:2px;}.cls-11,.cls-12,.cls-4{fill:#fff;}.cls-5{isolation:isolate;}.cls-10,.cls-11,.cls-6{stroke-linecap:round;}.cls-6{stroke-width:5px;}.cls-7{opacity:0.8;}.cls-8{opacity:0.25;}.cls-9{opacity:0.1;}.cls-10,.cls-11{stroke-linejoin:round;}</style></defs><title>variants__teeth_mobile</title><g id="Layer_2" data-name="Layer 2"><g id="Photo"><g class="cls-1"><path class="cls-2" d="M159.81,190.09s1.7,51.4-9.8,51-15.35-38-14.71-49.8c.16-1,1.12-1.86,2.57-2.47a20.15,20.15,0,0,1,5.19-1.18c1.5-.16,3-.24,4.51-.25C153.67,187.34,159.78,188.46,159.81,190.09Z"/><path class="cls-2" d="M120.47,184.71c-1.66-1.48-5.78-2.22-10.78,2.68s-1.8,37.1,0,44.1,6.6,6.2,9.21,7.2c0,0,8.6.2,9.6-5,.86-4.46,5.41-32.09,5.41-41.83a3.72,3.72,0,0,0-3-3.63C127.64,187.61,122.29,186.37,120.47,184.71Z"/><path class="cls-2" d="M53.33,167.27c-.7-2.2-2.74-7.1-11.41-6.1-4.57.53-3.09-2.27-6.29-3.2S28.69,159,28.69,159s-6.79,3.66-7.59,8.46S19.9,191,22.5,193.22s5.93,1.07,7.37,1.87,11.5,1,13.6.08c0,0,6.4-7.59,8-16.95S53.33,167.27,53.33,167.27Z"/><path class="cls-2" d="M20.69,184.7l-2.91-.41c-2.92-.4-2.25-2.2-4.85-2s-4.2,0-6.31-3.66-4.09-13.14-2.49-21.45,4.89-6.91,6.64-6.76c1.94.55,2.2,3,5,4.25,4.14,1.9,4.89-1,9-1.25a9,9,0,0,1,7.89,4.38"/><path class="cls-2" d="M160.19,190.09s-1.7,51.4,9.81,51,15.35-38,14.71-49.8c-.16-1-1.12-1.86-2.58-2.47a20.15,20.15,0,0,0-5.19-1.18c-1.5-.16-3-.24-4.5-.25C166.3,187.34,160.22,188.46,160.19,190.09Z"/><path class="cls-2" d="M199.53,184.71c1.67-1.48,5.78-2.22,10.78,2.68s1.8,37.1,0,44.1-6.6,6.2-9.21,7.2c0,0-8.59.2-9.6-5-.86-4.46-5.4-32.09-5.41-41.83a3.72,3.72,0,0,1,3-3.63C192.37,187.61,197.68,186.37,199.53,184.71Z"/><path class="cls-2" d="M212.93,199.48s4.8,35.41,18.47,33.81,9.31-24,9.31-31.4-1.6-14.6-5.6-17.2a43.64,43.64,0,0,0-4.25-2.44,9.86,9.86,0,0,0-6-1c-5.6.89-13.53,3.81-13.48,7.91"/><path class="cls-2" d="M240.82,204.48s9.89,22.61,17.09,20.21,7.2-32.8,5.8-38.2A10.22,10.22,0,0,0,252.63,179c-2.49.35-10-.52-12.61,1.86a10.38,10.38,0,0,0-3,5.68"/><path class="cls-2" d="M264.16,205.1s5.35,12.39,11.55,11.59,9.6-5.22,9.2-9.51.8-24.49-1.29-27.29a63.5,63.5,0,0,0-10.12-10.15s-4.56-3.88-8.61-2.25c-1.83.8-3.12,4.29-4.46,5.7-.8.84-4.84.51-5.6,1.2a3.71,3.71,0,0,0-.93,4.51"/><path class="cls-2" d="M284.94,196.29c.05.4,3.77-.4,5.2-1.2s4.8.4,7.37-1.87,2.2-20.93,1.4-25.73-7.58-8.46-7.58-8.46-3.75-2-6.95-1.06-1.72,3.73-6.3,3.2c-8.67-1-10.71,3.9-11.4,6.1"/><path class="cls-2" d="M299.35,184.7l2.91-.41c2.93-.4,2.25-2.2,4.85-2s4.2,0,6.32-3.66,4.08-13.14,2.48-21.45-4.89-6.91-6.64-6.76c-1.95.55-2.2,3-5,4.25-4.13,1.9-4.89-1-9-1.25a9,9,0,0,0-7.89,4.38"/></g><path class="cls-2" d="M5.39,173.91a30.11,30.11,0,0,0-2.1,6.26c-.53,2.17-.94,4.38-1.29,6.6C1.31,191.2.87,195.69.54,200.18c.11-4.5.34-9,.83-13.5.24-2.24.54-4.49,1-6.71a31.86,31.86,0,0,1,1.89-6.62Z"/><path class="cls-3" d="M159.7,189.36s1.71,51.4-9.8,51-15.34-38-14.71-49.8c.16-1.05,1.12-1.86,2.58-2.46a20.07,20.07,0,0,1,5.19-1.19,44.9,44.9,0,0,1,4.5-.25C153.57,186.62,159.67,187.74,159.7,189.36Z"/><path class="cls-3" d="M120.37,184c-1.67-1.49-5.78-2.23-10.78,2.67s-1.8,37.1,0,44.1,6.6,6.2,9.21,7.2c0,0,8.59.2,9.6-5,.86-4.46,5.41-32.09,5.41-41.82a3.73,3.73,0,0,0-3-3.64C127.53,186.88,122.22,185.64,120.37,184Z"/><path class="cls-3" d="M53.22,166.54c.13-2.3-2.73-7.09-11.4-6.09-4.59.52-3.1-2.28-6.3-3.2s-6.94,1.05-6.94,1.05S21.79,162,21,166.76s-1.2,23.46,1.4,25.74,5.93,1.06,7.36,1.86a14.8,14.8,0,0,0,5.67,1.55s5.94.66,8-.74S52.28,182.82,53.22,166.54Z"/><path class="cls-3" d="M20.55,184l-2.92-.41c-2.92-.4-2.25-2.2-4.85-2s-4.2,0-6.31-3.66S2.38,164.76,4,156.45s4.89-6.91,6.64-6.76c2,.56,2.2,3,5,4.25,4.14,1.91,4.89-1,9-1.24a9,9,0,0,1,7.88,4.37"/><path class="cls-2" d="M315.56,173.35a31.86,31.86,0,0,1,1.89,6.62c.43,2.22.74,4.47,1,6.71.48,4.49.71,9,.83,13.5-.33-4.49-.78-9-1.47-13.41-.35-2.22-.76-4.43-1.28-6.6a30.73,30.73,0,0,0-2.11-6.26Z"/><path class="cls-3" d="M160.09,189.36s-1.71,51.4,9.81,51,15.33-38,14.7-49.8c-.16-1.05-1.12-1.86-2.57-2.46a20.14,20.14,0,0,0-5.2-1.19,44.87,44.87,0,0,0-4.49-.25C166.23,186.62,160.12,187.74,160.09,189.36Z"/><path class="cls-3" d="M199.43,184c1.66-1.49,5.77-2.23,10.77,2.67s1.8,37.1,0,44.1-6.6,6.2-9.2,7.2c0,0-8.6.2-9.61-5-.85-4.46-5.4-32.09-5.4-41.82a3.72,3.72,0,0,1,3-3.64C192.27,186.88,197.57,185.64,199.43,184Z"/><path class="cls-3" d="M212.83,198.75s4.8,35.41,18.47,33.81,9.31-24,9.31-31.4S239,186.56,235,184a44.86,44.86,0,0,0-4.25-2.44,9.86,9.86,0,0,0-6-1c-5.6.89-13.54,3.82-13.48,7.91"/><path class="cls-3" d="M240.7,203.75s9.9,22.61,17.1,20.21,7.2-32.8,5.8-38.2a10.22,10.22,0,0,0-11.08-7.54c-2.49.36-10-.52-12.61,1.86a10.42,10.42,0,0,0-3,5.68"/><path class="cls-3" d="M264.05,204.37s5.36,12.39,11.56,11.59,9.6-5.22,9.2-9.51.8-24.49-1.3-27.29A63.69,63.69,0,0,0,273.38,169s-4.57-3.88-8.62-2.25c-1.83.8-3.13,4.29-4.46,5.71-.8.8-4.84.5-5.6,1.2a3.68,3.68,0,0,0-.93,4.49"/><path class="cls-3" d="M284.84,195.56c.05.4,3.77-.4,5.2-1.2s4.8.4,7.37-1.86,2.2-20.94,1.4-25.74-7.59-8.46-7.59-8.46-3.75-2-7-1.05-1.71,3.72-6.29,3.2c-8.68-1-10.71,3.89-11.41,6.09"/><path class="cls-3" d="M299.25,184l2.91-.41c2.92-.4,2.25-2.2,4.85-2s4.2,0,6.31-3.66,4.09-13.14,2.49-21.45-4.89-6.91-6.63-6.76c-1.95.56-2.2,3-5,4.25-4.15,1.91-4.9-1-9-1.24a9,9,0,0,0-7.89,4.37"/><path class="cls-4" d="M117.09,104.6s1,8.6,17.81,8.6,24.6-5.8,24.6-11.2c0-4.91-3-30.17-10.74-45.23a12,12,0,0,0-9.3-6.5,14.87,14.87,0,0,0-5.06.34A16.2,16.2,0,0,0,123,61.38C120.33,69.27,115.8,86,117.09,104.6Z"/><path class="cls-3" d="M118.5,107.6s-2,.6-17.41,0-13.15-5-12.2-32.8c.8-23.33,8.4-23.95,8.4-23.95s12.14-5.38,20.2,35.55"/><path class="cls-3" d="M88.69,80.2S83.89,45.8,72.3,46s-12.6,22.6-14,42.4,26.61,20.4,29.9,12"/><path class="cls-3" d="M59.89,69.55s-5-16.95-8-20.55-6.6-.22-7,1.19-4.2,20.8-3.2,30.4,4.2,15.81,10.4,18.21,7.8-1.92,7.8-1.92"/><path class="cls-3" d="M42.51,64.21s-1.82-13.41-5.42-15-6.45,11.07-7,15.63c-.62,5.07-2.18,16.8,1.6,20.17s9.12.8,10.08-3.68"/><path class="cls-3" d="M31.19,59s.5-15.79-2.7-16.59-3.2,2-4.8,2-3.2-2.69-4-2.14-5.8,27.94-2,37.94c1.8,4,4.35.86,5.15,1.26s1.65,2.2,3.65,2.25a10.65,10.65,0,0,0,3.89-.8"/><path class="cls-3" d="M17.34,54.54S16.42,40,13.49,39.07s-3.07,1.87-6,2.4-2,2.34-3.07,5.23-4.93,19.84-1.33,25c2.13,2.66,2.26.65,4.26,1.73s2.54,2.85,4.14,2.29,4.8-.15,4.8-4.16"/><path class="cls-3" d="M230.63,80.21S235.43,45.81,247,46s12.6,22.6,14,42.4-26.61,20.4-29.9,12"/><path class="cls-3" d="M259.45,69.56s5-16.94,8-20.54,6.61-.24,7,1.18,4.2,20.8,3.2,30.4-4.2,15.8-10.41,18.2-7.76-1.93-7.76-1.93"/><path class="cls-3" d="M276.8,64.22s1.82-13.4,5.42-15,6.45,11.06,7,15.62c.63,5.07,2.19,16.8-1.6,20.18s-9.11.8-10.08-3.68"/><path class="cls-3" d="M288.12,59s-.5-15.78,2.7-16.58,3.2,2,4.8,2,3.2-2.69,4-2.15,5.81,27.95,2,37.95c-1.8,4-4.35.85-5.15,1.25s-1.65,2.2-3.65,2.24a10.36,10.36,0,0,1-3.88-.8"/><path class="cls-3" d="M302,54.54s.91-14.53,3.85-15.47,3.06,1.87,6,2.4,2,2.35,3.06,5.24,4.94,19.83,1.34,25c-2.14,2.67-2.27.65-4.27,1.72s-2.53,2.86-4.13,2.3S303,75.62,303,71.62"/><path class="cls-4" d="M202.22,104.62s-1,8.6-17.8,8.6-24.6-5.8-24.6-11.2c0-4.91,3-30.18,10.73-45.24a12,12,0,0,1,9.3-6.5,14.86,14.86,0,0,1,5.06.34,16.18,16.18,0,0,1,11.45,10.77C199,69.27,203.52,86,202.22,104.62Z"/><path class="cls-3" d="M200.81,107.62s2,.6,17.41,0,13.15-5,12.2-32.8c-.8-23.34-8.4-24-8.4-24s-12.14-5.38-20.21,35.56"/><path class="cls-5" d="M315.64,46.27a11.29,11.29,0,0,1-.53-2.21c-.28-1.6-.55-3.07-3.13-3.54a4.38,4.38,0,0,1-2.31-1.29,3.75,3.75,0,0,0-4.08-1.09c-2.09.67-3.14,5.47-3.77,9.84-.56-3.31-1.2-6.18-1.74-6.54-.9-.61-1.81.18-2.62.87-.58.51-1.3,1.13-1.83,1.13-.24,0-.43-.18-.8-.63a3.69,3.69,0,0,0-4.16-1.35c-2.46.62-3.2,6.88-3.32,11.95-.88-2.31-2-4.24-3.25-5a2.36,2.36,0,0,0-2.16-.13c-2.48,1.1-4.1,6.53-5,10.71-.8-5-1.6-8.75-1.7-9.21a5.6,5.6,0,0,0-3.88-3.28,4.43,4.43,0,0,0-4.5,1.8c-2.24,2.68-5.4,12.08-7,17.3-1.72-11.63-5-20.45-12.73-20.59H247c-8.72,0-13.65,17.41-15.8,27.65-1.13-20.55-7.85-22.59-8.95-22.78a6.44,6.44,0,0,0-5.12.67c-4.31,2.24-10.3,9.48-15.1,30.87A123,123,0,0,0,197.12,61a17.1,17.1,0,0,0-12-11.3,15.73,15.73,0,0,0-5.34-.35,12.68,12.68,0,0,0-9.91,6.92c-5.89,11.43-9,28.34-10.2,38.24-1.21-9.9-4.3-26.82-10.19-38.25a12.72,12.72,0,0,0-9.91-6.93,16.05,16.05,0,0,0-5.35.36,17.11,17.11,0,0,0-12,11.29,124.39,124.39,0,0,0-4.88,20.49c-4.8-21.39-10.78-28.63-15.09-30.87a6.54,6.54,0,0,0-5.13-.67c-1.09.2-7.81,2.22-8.91,22.78C86.07,62.44,81.14,45,72.42,45h-.11c-7.73.14-11,9-12.74,20.59-1.6-5.22-4.8-14.62-7-17.3A4.42,4.42,0,0,0,48,46.52a5.62,5.62,0,0,0-3.88,3.28c-.12.46-.91,4.25-1.69,9.21-1-4.19-2.57-9.61-5-10.71a2.33,2.33,0,0,0-2.16.13c-1.29.72-2.4,2.66-3.26,5-.16-5.07-.85-11.33-3.32-11.94a3.69,3.69,0,0,0-4.16,1.34c-.4.45-.59.63-.8.63-.53,0-1.25-.62-1.84-1.13-.8-.69-1.71-1.48-2.61-.87-.53.36-1.17,3.2-1.74,6.54-.63-4.38-1.75-9.19-3.77-9.83a3.79,3.79,0,0,0-4.08,1.08,4.49,4.49,0,0,1-2.3,1.29c-2.59.47-2.85,2-3.13,3.54a11.17,11.17,0,0,1-.55,2.21c-1,2.68-5.17,20.13-1.24,25.81,1.44,1.8,2.28,1.84,3.2,1.72A1.74,1.74,0,0,1,6.94,74a8.08,8.08,0,0,1,1.6,1.26,3.45,3.45,0,0,0,2.3,1.24,2.76,2.76,0,0,0,.8-.15,7.23,7.23,0,0,1,1.11-.21,6.21,6.21,0,0,0,3-1.22A22.26,22.26,0,0,0,17,80.39a4,4,0,0,0,2.15,2.4,3.84,3.84,0,0,0,3-.44l.47-.21a5,5,0,0,1,.48.46,4.78,4.78,0,0,0,3.4,1.8h.2a10.49,10.49,0,0,0,3.24-.55,6.11,6.11,0,0,0,1.24,1.65,6.66,6.66,0,0,0,4.44,1.76,6.45,6.45,0,0,0,2-.33,7.29,7.29,0,0,0,3.76-2.84c1.47,8.18,4.89,13.22,10.4,15.35a10.24,10.24,0,0,0,3.7.8,5.83,5.83,0,0,0,2.5-.51,5,5,0,0,0,1.82-1.41c2.29,3.59,6.15,6.15,11.3,7.32a25.92,25.92,0,0,0,5.41.6c5.12,0,9.67-1.6,11.67-4.32a8.08,8.08,0,0,0,1.74,3.2c2.2,2.4,5.88,3,11.12,3.2s8.8.27,11.38.27a54.2,54.2,0,0,0,5.7-.21c2.16,2.58,6.79,5.54,16.75,5.54,14.61,0,22.56-4.36,24.76-9.17,2.19,4.8,10.14,9.17,24.8,9.17,10,0,14.6-3,16.75-5.53a51.63,51.63,0,0,0,5.7.21c2.6,0,6.26-.08,11.39-.28s8.92-.8,11.11-3.2a7.83,7.83,0,0,0,1.74-3.2c2,2.7,6.55,4.32,11.67,4.32a24.58,24.58,0,0,0,5.41-.6c5.15-1.16,9-3.72,11.3-7.3a5.29,5.29,0,0,0,1.82,1.4,6,6,0,0,0,2.5.51,10.45,10.45,0,0,0,3.7-.8c5.53-2.13,9-7.2,10.41-15.36a7.21,7.21,0,0,0,3.76,2.84,6.35,6.35,0,0,0,2,.33,6.64,6.64,0,0,0,4.44-1.76,6,6,0,0,0,1.24-1.6,10.85,10.85,0,0,0,3.25.54h.2a4.81,4.81,0,0,0,3.38-1.9c.15-.16.31-.31.48-.46a4,4,0,0,1,.47.21,3.88,3.88,0,0,0,3,.44,4.14,4.14,0,0,0,2.17-2.4,22.82,22.82,0,0,0,1.18-5.42,6.12,6.12,0,0,0,3,1.23,5.93,5.93,0,0,1,1,.24,2.65,2.65,0,0,0,.84.15,3.51,3.51,0,0,0,2.31-1.25,7.19,7.19,0,0,1,1.6-1.25,1.66,1.66,0,0,1,1.27-.22c.95.13,1.8.09,3.27-1.76C320.79,66.4,316.63,48.94,315.64,46.27Z"/><line class="cls-6" x1="191.31" y1="120.83" x2="245.24" y2="151.43"/><path class="cls-4" d="M210.07,122.44s-1,8.6-17.8,8.6-24.6-5.8-24.6-11.2c0-4.92,3-30.17,10.73-45.24a12,12,0,0,1,9.3-6.46,14.85,14.85,0,0,1,5.06.33,16.22,16.22,0,0,1,11.45,10.77C206.84,87.1,211.36,103.83,210.07,122.44Z"/><path class="cls-6" d="M196.52,113.84h9.53a26.39,26.39,0,0,1,19.11,8.2l20.69,21.73"/><path class="cls-2" d="M314.22,42l-.07,0h0s0,0,.05,0l.11,0,.12-.11.14-.11.13-.17a2.91,2.91,0,0,0,.26-.33c.14-.27.32-.51.45-.81l.38-.87c.21-.62.45-1.22.62-1.85s.37-1.26.51-1.91l.43-1.94c.13-.65.23-1.3.35-2,.26-1.31.41-2.63.61-3.94.35-2.64.65-5.29.88-7.94s.42-5.32.62-8c-.1,2.67-.13,5.34-.3,8s-.31,5.33-.56,8c-.14,1.33-.25,2.66-.45,4-.1.66-.18,1.33-.28,2l-.36,2a33,33,0,0,1-1,3.94l-.39,1a9.55,9.55,0,0,1-.48,1,3.63,3.63,0,0,1-.33.47l-.18.23a1.61,1.61,0,0,1-.23.22l-.26.22-.34.17a1.36,1.36,0,0,1-.43.1,1.17,1.17,0,0,1-.26,0l-.13,0-.2-.08Z"/><path class="cls-2" d="M0,12c.21,2.66.35,5.32.62,8s.53,5.31.88,7.94c.2,1.32.36,2.64.61,3.94.12.65.23,1.31.36,2l.43,1.93A32.7,32.7,0,0,0,4,39.48l.39.87a8.88,8.88,0,0,0,.44.81c.08.14.18.22.26.34l.13.16.14.11.13.11.1,0s0,0,0,0h0l-.07,0,.62,1.13L6,43.17l-.14,0a1.09,1.09,0,0,1-.25,0,1.3,1.3,0,0,1-.43-.1l-.35-.17-.25-.21-.24-.22-.18-.24a2.79,2.79,0,0,1-.32-.47,7.9,7.9,0,0,1-.49-1l-.39-1a34.51,34.51,0,0,1-1-3.94l-.35-2c-.11-.66-.19-1.32-.28-2C1.11,30.63,1,29.3.86,28,.62,25.31.42,22.64.3,20S.1,14.65,0,12Z"/><path class="cls-4" d="M63.09,147s-5.34,12.39-11.54,11.59-9.6-5.22-9.2-9.51-.8-24.49,1.28-27.29a64.17,64.17,0,0,1,10.14-10.17s4.57-3.88,8.63-2.25c1.82.76,3.12,4.29,4.44,5.71.8.8,4.8.5,5.6,1.2a3.7,3.7,0,0,1,.94,4.5"/><path class="cls-4" d="M86.46,146.37S76.57,169,69.37,166.58s-7.2-32.8-5.8-38.2a10.23,10.23,0,0,1,11.08-7.54c2.49.36,10-.52,12.61,1.86a10.34,10.34,0,0,1,3,5.68"/><path class="cls-4" d="M114.35,141.37s-4.8,35.41-18.47,33.81-9.31-24-9.31-31.4,1.6-14.6,5.6-17.2q2-1.31,4.13-2.4a10.19,10.19,0,0,1,6.09-1,21.37,21.37,0,0,1,9.25,3.91,8.25,8.25,0,0,1,3.26,7.2Z"/><polygon class="cls-7" points="77.74 185.88 77.74 179.07 70.57 179.07 70.57 185.88 67.52 185.88 74.16 192.51 80.78 185.88 77.74 185.88"/><g class="cls-8"><polygon class="cls-7" points="77.74 181.38 77.74 174.57 70.57 174.57 70.57 181.38 67.52 181.38 74.16 188.01 80.78 181.38 77.74 181.38"/></g><g class="cls-9"><polygon class="cls-7" points="77.74 176.42 77.74 169.61 70.57 169.61 70.57 176.42 67.52 176.42 74.16 183.05 80.78 176.42 77.74 176.42"/></g><path class="cls-10" d="M46.65,190.86S56.76,192.1,59.84,195c5.32,1.47,14.4-1.6,23.2,6.94,11.59-.14,24,5.34,24,5.34"/><path class="cls-11" d="M50.47,181.31c4.68,0,8.48,1.49,8.48,3.31s-3.8,3.32-8.48,3.32S42,186.45,42,184.62,45.8,181.31,50.47,181.31Z"/><path class="cls-12" d="M59,184.62v12.47c0,1.82-3.8,3.31-8.48,3.31S42,198.91,42,197.09V184.62c0,1.83,3.8,3.32,8.47,3.32S59,186.45,59,184.62Z"/><path class="cls-10" d="M59,184.62v12.47c0,1.82-3.8,3.31-8.48,3.31S42,198.91,42,197.09V184.62c0,1.83,3.8,3.32,8.47,3.32S59,186.45,59,184.62Z"/><path class="cls-11" d="M95.59,194.42c4.66,0,8.46,1.49,8.46,3.32s-3.8,3.31-8.46,3.31-8.5-1.49-8.5-3.31S90.91,194.42,95.59,194.42Z"/><path class="cls-12" d="M104.05,197.74v12.47c0,1.82-3.8,3.31-8.46,3.31s-8.48-1.49-8.48-3.31V197.74c0,1.83,3.8,3.32,8.48,3.32S104.05,199.56,104.05,197.74Z"/><path class="cls-10" d="M104.05,197.74v12.47c0,1.82-3.8,3.31-8.46,3.31s-8.48-1.49-8.48-3.31V197.74c0,1.83,3.8,3.32,8.48,3.32S104.05,199.56,104.05,197.74Z"/><path class="cls-2" d="M62.13,0A77.41,77.41,0,0,0,45.61,10.88a66,66,0,0,0-12.81,15c-7,11.24-10.39,24.49-10.65,37.66a93.43,93.43,0,0,0,7.62,38.53,80.73,80.73,0,0,0,9.89,17,59.46,59.46,0,0,0,14.17,13.52l-.54.83A60.15,60.15,0,0,1,39,119.66a82.39,82.39,0,0,1-9.88-17.27,94,94,0,0,1-7.42-38.84C22,50.31,25.49,37,32.59,25.77a65.93,65.93,0,0,1,12.94-15A77.29,77.29,0,0,1,62.13,0Z"/><polygon class="cls-2" points="47.53 134.84 47.35 133.65 53.21 132.78 51.91 127 53.08 126.74 54.66 133.77 47.53 134.84"/><path class="cls-2" d="M257.7,0a77.29,77.29,0,0,1,16.6,10.79,66.43,66.43,0,0,1,12.94,15c7.09,11.25,10.58,24.54,10.93,37.78a93.85,93.85,0,0,1-7.43,38.84,82,82,0,0,1-9.88,17.27,60.15,60.15,0,0,1-14.33,13.83l-.54-.83a59.32,59.32,0,0,0,14.18-13.52,81.6,81.6,0,0,0,9.89-17,93.26,93.26,0,0,0,7.61-38.53C297.41,50.4,294,37.15,287,25.91a66.3,66.3,0,0,0-12.81-15A77.67,77.67,0,0,0,257.7,0Z"/><polygon class="cls-2" points="266.75 126.74 267.92 127 266.62 132.78 272.47 133.65 272.29 134.84 265.16 133.77 266.75 126.74"/></g></g></svg>