<svg xmlns="http://www.w3.org/2000/svg" viewBox="0 0 235.77 56.31"><defs><style>.cls-1{fill:#049ae4;}</style></defs><title>variants__arrow_right</title><g id="Layer_2" data-name="Layer 2"><g id="_1" data-name="1"><path class="cls-1" d="M235.77,0a29.41,29.41,0,0,1-3.1,7.17,29.65,29.65,0,0,1-5,5.95,38.27,38.27,0,0,1-6.39,4.53,54.46,54.46,0,0,1-7.11,3.28A89.41,89.41,0,0,1,199,25c-5.13,1-10.32,1.66-15.51,2.17-10.4,1-20.85,1.39-31.29,1.63s-20.88.28-31.32.42-20.88.35-31.3.88S68.78,31.53,58.46,33A159.24,159.24,0,0,0,28.1,40.2C18.33,43.69,8.94,48.58,1.29,55.6l-.68-.73c7.82-7.11,17.34-12,27.2-15.49a160.22,160.22,0,0,1,30.54-7.09C68.71,30.83,79.14,30,89.57,29.52s20.88-.66,31.32-.76,20.89-.11,31.32-.29,20.88-.54,31.27-1.51c5.2-.49,10.38-1.15,15.51-2.1a89.38,89.38,0,0,0,15.09-4.05,54.29,54.29,0,0,0,7.11-3.25,37.7,37.7,0,0,0,6.39-4.49,29.58,29.58,0,0,0,5.07-5.92A29.55,29.55,0,0,0,235.77,0Z"/><polygon class="cls-1" points="0.71 48.95 1.9 49.07 1.32 54.96 7.24 55.11 7.2 56.31 0 56.13 0.71 48.95"/></g></g></svg>