<svg xmlns="http://www.w3.org/2000/svg" viewBox="0 0 240.04 151.47"><defs><style>.cls-1{fill:#049ae4;}</style></defs><title>variants__arrow_left</title><g id="Layer_2" data-name="Layer 2"><g id="_1" data-name="1"><path class="cls-1" d="M0,0A153.53,153.53,0,0,0,5.32,40.3a136,136,0,0,0,16.5,37.1A142.15,142.15,0,0,0,48.45,108a164.32,164.32,0,0,0,33.81,22.53,191.42,191.42,0,0,0,78.31,20A166.29,166.29,0,0,0,201,147.26a117.56,117.56,0,0,0,37.66-14.67l.53.84a118.3,118.3,0,0,1-38,14.68,167.06,167.06,0,0,1-40.65,3.22A192.19,192.19,0,0,1,82,131a165.17,165.17,0,0,1-33.83-22.69,142.27,142.27,0,0,1-26.6-30.8A136.24,136.24,0,0,1,5.2,40.34,153.88,153.88,0,0,1,0,0Z"/><polygon class="cls-1" points="238.08 139.25 236.93 138.93 238.53 133.24 232.73 132.05 232.97 130.87 240.03 132.32 238.08 139.25"/></g></g></svg>