<svg xmlns="http://www.w3.org/2000/svg" viewBox="0 0 62.18 81.38"><defs><style>.cls-1,.cls-2{fill:none;stroke-linecap:round;stroke-linejoin:round;stroke-width:4px;opacity:0.6;}.cls-1{stroke:#9c9c9c;}.cls-2{stroke:#0078ff;}</style></defs><title>variants__crown</title><g id="Layer_2" data-name="Layer 2"><g id="_1" data-name="1"><path class="cls-1" d="M48.08,79.38c-10-.33-5.2-27.43-14.2-29.35-15-3.21-5.62,28.38-17.13,29.32-3.76.31-5.53-2.42-6.41-5.71S5.71,38.39,6.15,37.73c1.49-2.2,10.65-.29,12.07-1.77,6.49-6.75,5-10.41,14.66-10.41,8.89,0,9.64,7.13,13.5,9,5.6,2.75,12.07.68,12,1.61-.26,5-1.06,9.94-1.6,14.9C54.81,69.39,55.27,79.62,48.08,79.38Z"/><path class="cls-2" d="M3.44,27.51C2.08,18.92,1.87,18.31,2.06,15,2.52,7.18,10-.23,18.17,2.63l5.5,1.92C34.19,8.23,39.83,4.07,45,2.64c2.68-.74,8.34-.53,11,1.65,5,4.1,4.85,9.17,3.08,23.22"/><path class="cls-2" d="M18.17,12.27c15.18,7.09,27.48-.21,26.82,0"/></g></g></svg>