<svg xmlns="http://www.w3.org/2000/svg" viewBox="0 0 511.997 511.997"><path d="M511.323 241.582l-50.073-133.51c-9.896-26.406-27.542-48.635-51.01-64.292-22.031-14.688-47.677-22.448-74.146-22.448H42.667C19.135 21.332 0 40.467 0 63.999v384c0 23.531 19.135 42.667 42.667 42.667h247.031c5.302 0 9.802-3.896 10.563-9.156 9.708-67.75 68.646-118.844 137.073-118.844 6.24 0 12.333.563 18.365 1.365 4.729.667 9.448-2.052 11.281-6.531l44.229-108.125c1.01-2.491 1.051-5.272.114-7.793zM288 405.332H53.333c-5.896 0-10.667-4.771-10.667-10.667s4.771-10.667 10.667-10.667H288c5.896 0 10.667 4.771 10.667 10.667s-4.771 10.667-10.667 10.667zM64 255.999V85.332h272.094c13.802 0 27.167 4.042 38.646 11.698 12.229 8.156 21.427 19.74 26.583 33.51l42.854 114.281-3.802 11.156L64 255.999zm373.333 64h-64c-5.896 0-10.667-4.771-10.667-10.667s4.771-10.667 10.667-10.667h64c5.896 0 10.667 4.771 10.667 10.667s-4.771 10.667-10.667 10.667z" fill="#277eea"/><path d="M146.208 109.79c-4.167-4.167-10.917-4.167-15.083 0l-42.667 42.667c-4.167 4.167-4.167 10.917 0 15.083 2.083 2.083 4.813 3.125 7.542 3.125s5.458-1.042 7.542-3.125l42.667-42.667c4.166-4.166 4.166-10.916-.001-15.083zM173.792 120.457l-64 64c-4.167 4.167-4.167 10.917 0 15.083 2.083 2.083 4.813 3.125 7.542 3.125s5.458-1.042 7.542-3.125l64-64c4.167-4.167 4.167-10.917 0-15.083-4.168-4.167-10.918-4.167-15.084 0z" fill="#277eea"/></svg>