<svg xmlns="http://www.w3.org/2000/svg" viewBox="0 0 512.00002 512"><path d="M429.617188 218.304688h27.292968v30h-27.292968zm0 0M468.195312 218.304688H512v30h-43.804688zm0 0M420.453125 178.257812l25.992187-8.324218 9.152344 28.570312-25.996094 8.324219zm0 0M457.148438 166.507812l41.714843-13.363281 9.148438 28.570313-41.710938 13.359375zm0 0M420.445312 288.324219L429.597656 259.75l25.992188 8.324219-9.148438 28.574219zm0 0M457.203125 300.101562l9.152344-28.570312 41.714843 13.359375-9.148437 28.570313zm0 0M375.011719 248.5625h39.949219v-30h-39.949219v-49.328125h-61.300781v128.144531h61.300781zm0 0" fill="#277eea"/><path d="M116 435.945312v-4.765624h29.753906l23.417969-66.902344h70.539063l22.882812-66.898438h21.117188V169.234375h-90.542969v-17.992187c27.078125-6.539063 47.257812-30.957032 47.257812-60.015626v-6.894531H115.910156v6.894531c0 29.058594 20.179688 53.476563 47.257813 60.015626v17.992187H55.933594V189.25H0v88.628906h55.933594v19.5h30.070312L39.164062 431.179688H86v4.765624C86 477.882812 120.117188 512 162.054688 512H512v-30H162.054688C136.660156 482 116 461.339844 116 435.945312zm76.589844-138.566406h38.300781l-12.625 36.898438h-38.589844zm0 0M115.910156 0h124.515625v54.332031H115.910156zm0 0" fill="#277eea"/></svg>