<svg xmlns="http://www.w3.org/2000/svg" viewBox="0 0 512 512"><path d="M509.365 174.313c-3.188-3.635-79.854-88.979-253.365-88.979S5.823 170.677 2.636 174.313c-2.354 2.688-3.198 6.375-2.26 9.823l64 234.667c.938 3.427 3.521 6.146 6.885 7.281 3.323 1.156 7.073.521 9.896-1.615C81.688 424.063 135.75 384 256 384c10.285 0 19.909.383 29.234.919l-9.323 20.414h-3.818c-5.896 0-10.667 4.771-10.667 10.667s4.771 10.667 10.667 10.667h42.667c5.896 0 10.667-4.771 10.667-10.667s-4.771-10.667-10.667-10.667h-15.409l8.483-18.574c83.954 8.975 122.561 37.367 123.009 37.71 1.885 1.427 4.177 2.177 6.49 2.177 1.146 0 2.302-.177 3.406-.563 3.365-1.135 5.948-3.854 6.885-7.281l64-234.667c.939-3.447.095-7.135-2.259-9.822zm-92.448 194.958c-21.677-8.932-51.652-17.987-90.462-23.279l37.827-82.826h18.35l-20.402 74.823c-1.552 5.677 1.802 11.542 7.49 13.094.938.26 1.875.375 2.813.375 4.688 0 8.99-3.115 10.281-7.865l43.479-159.458c1.552-5.677-1.802-11.542-7.49-13.094-5.656-1.583-11.542 1.792-13.094 7.49l-17.26 63.302h-31.021c-4.177 0-7.969 2.438-9.698 6.24l-43.573 95.411c-14.935-1.328-30.885-2.151-48.156-2.151-74.969 0-127.573 14.198-160.906 27.938L46.667 191.719C73.99 169.615 140.771 128 256 128c116.198 0 182.417 41.531 209.375 63.583l-48.458 177.688z" fill="#277eea"/><path d="M122.104 182.458c-5.26-2.625-11.667-.51-14.313 4.771l-21.333 42.667c-2.635 5.271-.5 11.677 4.771 14.313 1.531.76 3.156 1.125 4.76 1.125 3.917 0 7.677-2.156 9.552-5.896l21.333-42.667c2.637-5.271.501-11.677-4.77-14.313zM164.771 182.458c-5.26-2.625-11.656-.51-14.313 4.771l-42.667 85.333c-2.635 5.271-.5 11.677 4.771 14.313 1.531.76 3.156 1.125 4.76 1.125 3.917 0 7.677-2.156 9.552-5.896l42.667-85.333c2.636-5.271.501-11.677-4.77-14.313z" fill="#277eea"/></svg>