<svg xmlns="http://www.w3.org/2000/svg" viewBox="0 0 223.44 15.94"><defs><style>.cls-1{fill:#ffce57;}</style></defs><title>arrows</title><g id="Layer_2" data-name="Layer 2"><g id="Shapes_icons" data-name="Shapes&amp;icons"><path class="cls-1" d="M0,15.69A52.92,52.92,0,0,1,73.65,14.2l-.67.71a52.45,52.45,0,0,0-73,.78Z"/><polygon class="cls-1" points="65.47 15.83 65.45 14.33 72.84 14.21 72.19 6.85 73.69 6.71 74.48 15.69 65.47 15.83"/><path class="cls-1" d="M74.48.25A53,53,0,0,0,91.24,11.4a52.36,52.36,0,0,0,19.67,4,52.21,52.21,0,0,0,19.7-3.65A52.49,52.49,0,0,0,147.46,1l.67.71a53.33,53.33,0,0,1-17.25,10.73,52.83,52.83,0,0,1-20,3.45,52.85,52.85,0,0,1-19.76-4.3A52.93,52.93,0,0,1,74.48.25Z"/><polygon class="cls-1" points="148.17 9.22 146.68 9.09 147.33 1.73 139.93 1.61 139.96 0.11 148.97 0.25 148.17 9.22"/><path class="cls-1" d="M149,15.69a52.92,52.92,0,0,1,73.65-1.49l-.67.71a52.45,52.45,0,0,0-73,.78Z"/><polygon class="cls-1" points="214.44 15.83 214.41 14.33 221.81 14.21 221.16 6.85 222.65 6.71 223.44 15.69 214.44 15.83"/></g></g></svg>