<svg xmlns="http://www.w3.org/2000/svg" viewBox="0 0 35.61 36.37"><defs><style>.cls-1,.cls-2,.cls-3{fill:#0078ff;}.cls-1{opacity:0.15;}.cls-2{opacity:0.5;}</style></defs><title>arrow__down</title><g id="Layer_2" data-name="Layer 2"><g id="_4" data-name="4"><path class="cls-1" d="M35.17.44a1.49,1.49,0,0,0-2.12,0L17.81,15.68,2.56.44A1.5,1.5,0,0,0,.44,2.56l16.3,16.31a1.51,1.51,0,0,0,2.13,0L35.17,2.56A1.49,1.49,0,0,0,35.17.44Z"/><path class="cls-2" d="M35.17,9a1.51,1.51,0,0,0-2.12,0L17.81,24.21,2.56,9A1.5,1.5,0,0,0,.44,11.1l16.3,16.3a1.51,1.51,0,0,0,2.13,0l16.3-16.3A1.5,1.5,0,0,0,35.17,9Z"/><path class="cls-3" d="M35.17,17.51a1.49,1.49,0,0,0-2.12,0L17.81,32.75,2.56,17.51A1.5,1.5,0,0,0,.44,19.63l16.3,16.3a1.51,1.51,0,0,0,2.13,0l16.3-16.3A1.49,1.49,0,0,0,35.17,17.51Z"/></g></g></svg>