<svg xmlns="http://www.w3.org/2000/svg" viewBox="0 0 19.73 11.58"><defs><style>.cls-1,.cls-2,.cls-3{fill:#0078ff;}.cls-2{opacity:0.5;}.cls-3{opacity:0.15;}</style></defs><title>arrow__sideways</title><g id="Layer_2" data-name="Layer 2"><g id="_4" data-name="4"><path class="cls-1" d="M6.14,11.44a.49.49,0,0,0,0-.69l-5-5,5-5A.49.49,0,1,0,5.45.14L.14,5.45A.49.49,0,0,0,0,5.79a.52.52,0,0,0,.14.35l5.31,5.3A.49.49,0,0,0,6.14,11.44Z"/><path class="cls-2" d="M6.77,9.87a.35.35,0,0,0,0-.5L3.2,5.79,6.77,2.21a.35.35,0,0,0,0-.5.36.36,0,0,0-.49,0L2.45,5.54a.36.36,0,0,0,0,.5L6.28,9.87A.36.36,0,0,0,6.77,9.87Z"/><path class="cls-3" d="M7.41,8.8a.25.25,0,0,0,0-.36L4.77,5.79,7.41,3.15A.26.26,0,0,0,7,2.78L4.21,5.61a.24.24,0,0,0-.07.18A.28.28,0,0,0,4.21,6L7,8.8A.25.25,0,0,0,7.41,8.8Z"/><path class="cls-1" d="M13.6,11.44a.47.47,0,0,1,0-.69l5-5-5-5a.47.47,0,0,1,0-.69.49.49,0,0,1,.69,0l5.3,5.31a.49.49,0,0,1,.14.34.52.52,0,0,1-.14.35l-5.3,5.3A.49.49,0,0,1,13.6,11.44Z"/><path class="cls-2" d="M12.86,9.87a.35.35,0,0,1,0-.5l3.57-3.58L12.86,2.21a.35.35,0,0,1,0-.5.36.36,0,0,1,.49,0l3.83,3.83a.36.36,0,0,1,0,.5L13.35,9.87A.36.36,0,0,1,12.86,9.87Z"/><path class="cls-3" d="M12.22,8.8a.25.25,0,0,1,0-.36l2.64-2.65L12.22,3.15a.26.26,0,0,1,.37-.37l2.83,2.83a.24.24,0,0,1,.07.18.28.28,0,0,1-.07.19L12.59,8.8A.25.25,0,0,1,12.22,8.8Z"/></g></g></svg>