<svg xmlns="http://www.w3.org/2000/svg" xmlns:xlink="http://www.w3.org/1999/xlink" viewBox="0 0 19.34 20"><defs><style>.cls-1{fill:url(#radial-gradient);}</style><radialGradient id="radial-gradient" cx="-0.1" cy="19.85" r="26.43" gradientUnits="userSpaceOnUse"><stop offset="0" stop-color="#9344ff"/><stop offset="0.52" stop-color="#0078ff"/><stop offset="1" stop-color="#00c8ff"/></radialGradient></defs><title>check</title><g id="Layer_2" data-name="Layer 2"><g id="_1" data-name="1"><path class="cls-1" d="M7.16,20A1.31,1.31,0,0,1,6,19.35,45.61,45.61,0,0,0,.36,11.83,1.32,1.32,0,1,1,2.29,10,48.15,48.15,0,0,1,6.6,15.37,29.22,29.22,0,0,1,17.24.26,1.32,1.32,0,1,1,18.8,2.39,26.63,26.63,0,0,0,8.46,18.91,1.31,1.31,0,0,1,7.4,20,1,1,0,0,1,7.16,20Z"/></g></g></svg>