<svg xmlns="http://www.w3.org/2000/svg" xmlns:xlink="http://www.w3.org/1999/xlink" viewBox="0 0 21.78 23"><defs><style>.cls-1{fill:url(#radial-gradient);}.cls-2{fill:none;stroke:#737373;stroke-linecap:round;stroke-linejoin:round;}</style><radialGradient id="radial-gradient" cx="-0.11" cy="22.34" r="29.74" gradientUnits="userSpaceOnUse"><stop offset="0" stop-color="#9344ff"/><stop offset="0.58" stop-color="#9146ff"/><stop offset="0.79" stop-color="#8a4cff"/><stop offset="0.94" stop-color="#7f56ff"/><stop offset="1" stop-color="#775dff"/></radialGradient></defs><title>check_purple</title><g id="Layer_2" data-name="Layer 2"><g id="Shapes"><path class="cls-1" d="M8.06,22.5a1.49,1.49,0,0,1-1.28-.72A50.58,50.58,0,0,0,.4,13.32a1.49,1.49,0,0,1,2.18-2,54.85,54.85,0,0,1,4.84,6,32.92,32.92,0,0,1,12-17,1.49,1.49,0,1,1,1.76,2.4A29.94,29.94,0,0,0,9.52,21.28a1.5,1.5,0,0,1-1.2,1.2Z"/><polyline class="cls-2" points="5.25 22.5 2.54 22.5 2.54 18.28"/><polyline class="cls-2" points="21.28 4.51 21.28 22.5 10.88 22.5"/><polyline class="cls-2" points="2.54 9.39 2.54 3.76 13.13 3.76"/></g></g></svg>