<svg xmlns="http://www.w3.org/2000/svg" viewBox="0 0 20.6 20.6"><defs><style>.cls-1{fill:#2b2b2b;}</style></defs><title>clock</title><g id="Layer_2" data-name="Layer 2"><g id="_1" data-name="1"><path class="cls-1" d="M10.3,20.6A10.3,10.3,0,1,1,20.6,10.3,10.31,10.31,0,0,1,10.3,20.6Zm0-19.41a9.12,9.12,0,1,0,9.12,9.11A9.12,9.12,0,0,0,10.3,1.19Z"/><path class="cls-1" d="M10.3,20.6A.58.58,0,0,1,9.71,20V18.63A.58.58,0,0,1,10.3,18a.59.59,0,0,1,.6.59V20A.59.59,0,0,1,10.3,20.6Z"/><path class="cls-1" d="M10.3,2.57A.59.59,0,0,1,9.71,2V.59A.59.59,0,0,1,10.3,0a.6.6,0,0,1,.6.59V2A.6.6,0,0,1,10.3,2.57Z"/><path class="cls-1" d="M20,10.9H18.63a.59.59,0,0,1-.59-.6.58.58,0,0,1,.59-.59H20a.58.58,0,0,1,.59.59A.59.59,0,0,1,20,10.9Z"/><path class="cls-1" d="M2,10.9H.59A.6.6,0,0,1,0,10.3a.59.59,0,0,1,.59-.59H2a.59.59,0,0,1,.6.59A.6.6,0,0,1,2,10.9Z"/><path class="cls-1" d="M9.87,9.88a.6.6,0,0,0,0,.84l4.07,4a.59.59,0,0,0,.84,0,.6.6,0,0,0,0-.84l-4.07-4A.6.6,0,0,0,9.87,9.88Z"/><path class="cls-1" d="M12.31,7.38,9.87,9.88a.59.59,0,0,0,.85.83l2.44-2.5a.59.59,0,0,0-.85-.83Z"/><circle class="cls-1" cx="10.3" cy="10.3" r="1.04"/><path class="cls-1" d="M10.3,11.52a1.22,1.22,0,1,1,1.22-1.22A1.22,1.22,0,0,1,10.3,11.52Zm0-2.08a.86.86,0,1,0,0,1.72.86.86,0,1,0,0-1.72Z"/></g></g></svg>