<svg xmlns="http://www.w3.org/2000/svg" viewBox="0 0 19.37 22.06"><defs><style>.cls-1{fill:#2b2b2b;}</style></defs><title>heart</title><g id="Layer_2" data-name="Layer 2"><g id="_1" data-name="1"><path class="cls-1" d="M9.94,22.06A.66.66,0,0,1,9.58,22C1.57,16.45-1.53,7.36.7,2.65,1.79.36,4-.5,6.65.28h0c3.29,1.15,3.88,1,5.17.5A16,16,0,0,1,13.52.28h0A4.19,4.19,0,0,1,18.68,2.6c2.15,4.58-.76,13.65-8.37,19.33A.58.58,0,0,1,9.94,22.06ZM4.79,1.25a3.1,3.1,0,0,0-3,1.93C.12,6.81,2,15,9.92,20.66c7.21-5.6,9.32-13.93,7.63-17.53a3,3,0,0,0-3.74-1.64h0c-.65.16-1.13.33-1.55.47-1.58.56-2.44.75-6-.48A5.27,5.27,0,0,0,4.79,1.25ZM13.66.89h0Z"/><path class="cls-1" d="M10,5.76a9.13,9.13,0,0,1-3.92-.9.62.62,0,0,1,.52-1.13,7.51,7.51,0,0,0,6.54.08.51.51,0,0,1,.18-.09.62.62,0,0,1,.69,1,1.19,1.19,0,0,1-.28.18h0A8.08,8.08,0,0,1,10,5.76Z"/></g></g></svg>