<svg xmlns="http://www.w3.org/2000/svg" viewBox="0 0 12.71 12.7"><defs><style>.cls-1{fill:#fff;}</style></defs><title>phone_fill</title><g id="Layer_2" data-name="Layer 2"><g id="Layer_1-2" data-name="Layer 1"><path class="cls-1" d="M12.7,10a.59.59,0,0,1-.19.54l-1.79,1.78a1.09,1.09,0,0,1-.31.23,1.51,1.51,0,0,1-.38.12H9.77a6.05,6.05,0,0,1-.83-.09,6.3,6.3,0,0,1-1.4-.43,11.71,11.71,0,0,1-1.87-1A13.52,13.52,0,0,1,3.43,9.27,14.92,14.92,0,0,1,1.87,7.49a12.31,12.31,0,0,1-1-1.56A9.15,9.15,0,0,1,.31,4.62a7,7,0,0,1-.25-1A2.94,2.94,0,0,1,0,3c0-.17,0-.25,0-.27a1,1,0,0,1,.12-.39A.93.93,0,0,1,.37,2L2.15.19A.59.59,0,0,1,2.59,0a.45.45,0,0,1,.3.1.92.92,0,0,1,.23.25L4.56,3.08a.63.63,0,0,1,.07.47A.82.82,0,0,1,4.4,4l-.66.66a.19.19,0,0,0,0,.09.2.2,0,0,0,0,.1,2.18,2.18,0,0,0,.24.65,5.09,5.09,0,0,0,.5.78,8.22,8.22,0,0,0,1,1.07,7.78,7.78,0,0,0,1.08,1,6.25,6.25,0,0,0,.78.51A1.88,1.88,0,0,0,7.72,9l.17,0L8,9l.09,0,.77-.78A.84.84,0,0,1,9.39,8a.65.65,0,0,1,.37.09h0l2.6,1.53A.67.67,0,0,1,12.7,10Z"/></g></g></svg>