<svg xmlns="http://www.w3.org/2000/svg" viewBox="0 0 21.78 21.76"><defs><style>.cls-1{fill:#2b2b2b;}</style></defs><title>phone</title><g id="Layer_2" data-name="Layer 2"><g id="_1" data-name="1"><path class="cls-1" d="M16.38,21.76A10.16,10.16,0,0,1,15,21.62a11.1,11.1,0,0,1-2.4-.74,19.69,19.69,0,0,1-3.13-1.71,23.14,23.14,0,0,1-3.7-3.12,23.48,23.48,0,0,1-2.58-2.94,19.92,19.92,0,0,1-1.65-2.6,15.12,15.12,0,0,1-1-2.21A11.94,11.94,0,0,1,.1,6.58,6.62,6.62,0,0,1,0,5.37C0,5.14,0,5,0,5V4.88a2.83,2.83,0,0,1,.26-.81,2.16,2.16,0,0,1,.5-.7L3.66.5A1.62,1.62,0,0,1,4.82,0a1.49,1.49,0,0,1,.9.29,2.25,2.25,0,0,1,.53.58l0,.05L8.59,5.31a1.73,1.73,0,0,1,.18,1.21,2,2,0,0,1-.55,1l-1,1a4.05,4.05,0,0,0,.29.68,9,9,0,0,0,.75,1.18A12.8,12.8,0,0,0,9.77,12a13.16,13.16,0,0,0,1.66,1.48,8.85,8.85,0,0,0,1.18.76,2.37,2.37,0,0,0,.6.25l.07,0,1.15-1.17a2,2,0,0,1,1.35-.51,2,2,0,0,1,.73.12h0l.18.1,4.18,2.47a1.7,1.7,0,0,1,.85,1.15v.05a1.66,1.66,0,0,1-.49,1.42L18.4,21a2,2,0,0,1-.7.51,2.83,2.83,0,0,1-.81.26h-.51ZM1.35,5c0,.07,0,.21,0,.4a4.48,4.48,0,0,0,.08.93A11.48,11.48,0,0,0,1.8,7.9a13.14,13.14,0,0,0,.86,2,20.43,20.43,0,0,0,1.55,2.44,22.49,22.49,0,0,0,2.45,2.78,21,21,0,0,0,3.49,2.94,17.87,17.87,0,0,0,2.91,1.6,9,9,0,0,0,2.09.65,8.9,8.9,0,0,0,1.23.13h.34a1.37,1.37,0,0,0,.4-.14.93.93,0,0,0,.31-.21l0,0,2.88-2.85a.32.32,0,0,0,.12-.29.5.5,0,0,0-.24-.26L16,14.18a.48.48,0,0,0-.24,0,.71.71,0,0,0-.46.17l-1.21,1.24a1.22,1.22,0,0,1-.4.24,1.34,1.34,0,0,1-.36.06h-.13L13,15.79a3.84,3.84,0,0,1-.95-.38,10.21,10.21,0,0,1-1.35-.86,15.1,15.1,0,0,1-1.82-1.62,13.93,13.93,0,0,1-1.6-1.8,9.61,9.61,0,0,1-.86-1.36,4.37,4.37,0,0,1-.44-1.21l0-.12A1.4,1.4,0,0,1,6,8.06a1,1,0,0,1,.24-.4L7.28,6.6a.68.68,0,0,0,.18-.36.36.36,0,0,0,0-.29L5.12,1.56a.76.76,0,0,0-.2-.2s-.14-.1-.32.08L1.7,4.34a1.06,1.06,0,0,0-.22.3A1.69,1.69,0,0,0,1.35,5Z"/></g></g></svg>