<svg xmlns="http://www.w3.org/2000/svg" xmlns:xlink="http://www.w3.org/1999/xlink" viewBox="0 0 120.91 110.53"><defs><style>.cls-1{fill:url(#radial-gradient);}</style><radialGradient id="radial-gradient" cx="-31" cy="137.34" r="186.58" gradientUnits="userSpaceOnUse"><stop offset="0" stop-color="#9344ff"/><stop offset="0.52" stop-color="#0078ff"/><stop offset="1" stop-color="#00c8ff"/></radialGradient></defs><title>price__icon</title><g id="Layer_2" data-name="Layer 2"><g id="_1" data-name="1"><path class="cls-1" d="M0,27.79a3.06,3.06,0,0,0,.3-.6,7.2,7.2,0,0,1,5.82-5.84,7.41,7.41,0,0,1,8.05,3.19c5.3,7.63,10.63,15.25,15.89,22.9a2.4,2.4,0,0,0,2.39,1.27c1.34-.1,2.68,0,4,0,.31,0,.86-.3.87-.47A3.73,3.73,0,0,0,37,46.7c-.08-.19-.49-.21-.73-.34a4.57,4.57,0,0,1-2.68-4.48,4.45,4.45,0,0,1,2.84-4.25,2.09,2.09,0,0,0,1.3-1.46,6.55,6.55,0,0,1,7.5-4.49,6.48,6.48,0,0,1,5.27,6.49c0,.35,0,.7,0,1.06,0,1.17-.66,1.94-1.6,1.93s-1.54-.75-1.6-1.95a10.68,10.68,0,0,0-.19-1.87,3.26,3.26,0,0,0-2.84-2.48,3.43,3.43,0,0,0-3.2,1.82,1.14,1.14,0,0,0,.29,1.63,4.73,4.73,0,0,1,.08,7.41,2.35,2.35,0,0,0-.76,1c-.41,1.49,0,2,1.55,2,4,0,8,0,11.94,0,.86,0,1.25-.16,1.25-1.16q-.06-12.58,0-25.17a1.35,1.35,0,0,0-.8-1.4,3.69,3.69,0,0,1-2.11-3.54c0-.83,0-1.66,0-2.48a3.87,3.87,0,0,1,5.27-3.68c2.51.92,5,2,7.41,3.06a4,4,0,0,1,2.28,3.95c0,.73.18,1.17.92,1.41s1.74.72,2.62,1.06c1.18.45,1.62.17,1.62-1.09,0-3.19,0-6.38,0-9.57a10.07,10.07,0,0,1,20.14-.43c0,.77.19,1.3,1,1.48a1.59,1.59,0,0,1,.73.37c1.37,1.43,3.13,1.36,4.84,1.2A4.16,4.16,0,0,1,104,17.26c-.11,1.68,0,3.38,0,5.08a4.17,4.17,0,0,1-4.35,4.4c-.4,0-.79,0-1.18,0a6,6,0,0,0-3.76.95c-2.47,1.55-5.06,1.32-7.56-.27a5.07,5.07,0,0,0-2-.66c-1.17-.15-2.37,0-3.52-.25a4,4,0,0,1-3.23-4c0-1.89,0-3.78,0-5.67a4.08,4.08,0,0,1,4.21-4.14,1,1,0,0,1,.24,0c2.46.58,4.36-.78,6.33-1.85a1,1,0,0,0,.43-.74,6.89,6.89,0,0,0-6.38-6.79A6.7,6.7,0,0,0,76,9.78c0,3.31,0,6.62,0,9.92,0,2.5-1.24,4.13-3.58,4.55A5.44,5.44,0,0,1,70.25,24a7.71,7.71,0,0,1-1.75-.7,2.13,2.13,0,0,0-2.82.29A3.44,3.44,0,0,1,61.8,24c-.93-.4-1.88-.75-2.95-1.18V48.69H81.08c3.07,0,4.44,1.2,4.9,4.22a1,1,0,0,0,.79.67c2.53-.29,4.57.78,6.6,2.08,2.72,1.74,5.5,3.39,8.25,5.07a9.07,9.07,0,0,1,.89.58,1.53,1.53,0,0,1,.39,2.2,1.48,1.48,0,0,1-2.14.55c-1.76-1-3.5-2.12-5.25-3.19s-3.5-2.12-5.24-3.2a5.57,5.57,0,0,0-3.82-.76c-3.12.36-6.26.54-9.39.81L64.15,58.84l-9.28.77c-4.38.37-8.76.77-13.14,1.14-1.53.13-3.07.16-4.59.32a2.42,2.42,0,0,1-2.47-1.2Q23.45,43.66,12.16,27.47a11.32,11.32,0,0,0-1.44-1.85A4.25,4.25,0,0,0,5,25.44a4.32,4.32,0,0,0-.84,5.75c1.63,2.46,3.35,4.86,5,7.29L16.48,49c.14.2.28.38.4.58A1.72,1.72,0,0,1,16.56,52a1.56,1.56,0,0,1-2.35-.51c-1-1.39-2-2.82-3-4.25-3.15-4.52-6.33-9-9.41-13.6A27.3,27.3,0,0,1,0,29.68ZM33.37,52.13a34.41,34.41,0,0,1,2.57,3.79,3,3,0,0,0,3.76,1.7l.24,0c4.26-.37,8.52-.75,12.79-1.11l9.51-.78,12.91-1.12c2.15-.18,4.3-.36,6.46-.51.92-.07,1.22-.66.9-1.34a1.75,1.75,0,0,0-1.38-.66q-23.22,0-46.43,0C34.39,52.05,34.08,52.08,33.37,52.13ZM94.94,19.76h-.1c0-.75,0-1.5,0-2.24A3.62,3.62,0,0,0,91.05,14a3.53,3.53,0,0,0-3.46,3.68c0,1.38,0,2.75,0,4.12a3.54,3.54,0,0,0,3.22,3.59,3.47,3.47,0,0,0,3.81-2.61A20.08,20.08,0,0,0,94.94,19.76Zm-30.81-.61.29-.16c-.34-.62-.54-1.55-1.07-1.81-2-1-4.18-1.81-6.29-2.65a1.25,1.25,0,0,0-1,0c-.73.48-.47,3.24.35,3.6,2.16.94,4.34,1.83,6.53,2.72.74.3,1.12,0,1.18-.8C64.15,19.78,64.13,19.46,64.13,19.15Zm33.92.61v2.47c0,.53-.19,1.18.7,1.15s1.87.25,2-.94a42.52,42.52,0,0,0,0-5.53c-.06-1.07-1-.95-1.84-.95s-.84.58-.82,1.2C98.07,18,98.05,18.89,98.05,19.76ZM84.19,23.38V16.14c-1.77-.41-2.47-.14-2.5,1,0,1.73-.06,3.46,0,5.19,0,.37.56.86,1,1A4.09,4.09,0,0,0,84.19,23.38ZM39.81,42.12a1.41,1.41,0,0,0-1.45-1.58A1.4,1.4,0,0,0,36.85,42a1.48,1.48,0,0,0,3,.12Z"/><path class="cls-1" d="M44.66,72.53c-2.12.2-4.12.36-6.1.59-.26,0-.53.38-.72.64a1.73,1.73,0,0,1-2.75.22,2.28,2.28,0,0,0-1.4-.57,7.63,7.63,0,0,1-6.76-3.63Q23,64,19,58.34c-.52-.74-.8-1.59-.12-2.25a2.45,2.45,0,0,1,1.78-.49c.43.06.88.61,1.18,1q4,5.74,8,11.53a4.52,4.52,0,0,0,3.81,2c.76,0,1.15-.23,1.16-1.08,0-1.32.54-2,1.52-2A1.55,1.55,0,0,1,38,68.86c0,.88.57.9,1.2.85l9.4-.79,9.62-.85L71.5,66.92a22.1,22.1,0,0,0,2.69-.28,1.25,1.25,0,0,0,.77-.86c.07-1,.47-1.67,1.52-1.73a1.48,1.48,0,0,1,1.7,1.54c.06.68.46.81,1.07.74,2.11-.22,4.22-.49,6.33-.58a4.25,4.25,0,0,1,2.19.64c7.64,4.63,15.24,9.32,22.87,14,2.2,1.35,4.5,1,5.93-.73A4.3,4.3,0,0,0,115.31,73c-2.59-1.64-5.25-3.18-7.82-4.87a2.39,2.39,0,0,1-.94-1.71c0-.44.63-1,1.12-1.3a1.77,1.77,0,0,1,1.42.19c2.87,1.71,5.77,3.4,8.54,5.26a7.65,7.65,0,0,1-8.41,12.77c-6.84-4.14-13.72-8.21-20.4-12.59a9.9,9.9,0,0,0-7.34-1.41,14.92,14.92,0,0,1-1.64.16c-.85,0-1.52.08-1.91,1.12s-1.89,1-2.74.09a1.91,1.91,0,0,0-1.29-.69c-4.74.35-9.47.77-14.21,1.16-.67.06-1,.32-.94,1a15.1,15.1,0,0,0,0,1.65A2.05,2.05,0,0,0,59.36,75a1.66,1.66,0,0,1,0,2.86A1.53,1.53,0,0,0,58.82,79c0,.28.52.62.87.73,3,.93,5.94,1.79,8.9,2.71A1.35,1.35,0,0,0,70.13,82c3.83-3.83,8.43-5.18,13.62-3.72a12.9,12.9,0,0,1,9.56,10,25.6,25.6,0,0,1,.4,5.62c0,1,.35,1.36,1.36,1.35,4.14,0,8.28,0,12.41,0,3,0,4.37,1.3,4.5,4.23,0,.87.27,1.25,1.22,1.27a3.81,3.81,0,0,1,3.72,3.69c.31,4.45-1,6.18-5.85,6.15-18-.12-36,0-54,0-.52,0-1,0-1.54,0A1.5,1.5,0,0,1,54,108.77a1.45,1.45,0,0,1,1.62-1.48h8.86c1.82,0,1.82,0,1.82-1.75s0-1.66-1.7-1.66h-52c-1.68,0-1.91.17-2,1.47-.07,1.62.22,1.94,1.86,1.94H47a9.3,9.3,0,0,1,1.18,0,1.59,1.59,0,0,1,0,3.13,6.18,6.18,0,0,1-1.06,0q-17.6,0-35.21,0c-1.7,0-3.21-.38-4-2a6.72,6.72,0,0,1,0-5.81,3.22,3.22,0,0,1,3.1-2c1.1,0,1.23-.48,1.36-1.41a5.44,5.44,0,0,1,1-2.76,5.44,5.44,0,0,1,4.29-1.34h46.8c1.79,0,1.79,0,1.79-1.8,0-3.08,0-3.08-2.94-3.95-2.29-.69-4.58-1.41-6.89-2a2.73,2.73,0,0,0-1.67.12,7,7,0,0,1-10-6.57c0-.51,0-1,0-1.53A1.53,1.53,0,0,0,44,77.77a1.48,1.48,0,0,1-.12-2.49C45,74.61,44.76,73.73,44.66,72.53ZM80,107.28c2.95,0,5.91,0,8.86,0,1.15,0,1.57-.25,1.55-1.5-.08-4.76-.17-9.53,0-14.29a10.39,10.39,0,0,0-20.78-.27c0,4.93,0,9.85,0,14.77,0,1,.34,1.29,1.3,1.28C73.94,107.25,77,107.28,80,107.28Zm-39.13-6.62h24.2c.8,0,1.23-.13,1.23-1.08s-.3-1.22-1.22-1.22q-24,0-47.94,0c-1,0-1.62.22-1.62,1.35s1,.92,1.61.92C25.05,100.67,33,100.66,40.88,100.66Zm62.68,6.62c2.87,0,5.74,0,8.61,0a1.8,1.8,0,0,0,1.31-.52,1.78,1.78,0,0,0-1.58-2.87c-5.35,0-10.7,0-16,0-2.16,0-2.12,0-2.14,2.2,0,.93.3,1.24,1.22,1.23C97.81,107.25,100.68,107.28,103.56,107.28ZM51.7,78.07h-2c-1.58,0-1.58,0-1.58,1.52,0,.55,0,1.1,0,1.65a3.54,3.54,0,0,0,2.93,3.6,3.46,3.46,0,0,0,4.06-2.43,15,15,0,0,0,.23-3.73c0-.2-.51-.55-.81-.57C53.59,78,52.65,78.07,51.7,78.07Zm49.51,22.59c2.17,0,4.33,0,6.5,0,1.05,0,1.18-.54,1.05-1.35s-.71-.94-1.4-.93c-4.17,0-8.35,0-12.52,0-.79,0-1.12.24-1.12,1.08s.19,1.24,1.11,1.22C97,100.63,99.09,100.66,101.21,100.66ZM51.76,74.85h1.65c2,0,2,0,2-2,0-1-.35-1.3-1.31-1.2-1.67.2-3.35.38-5,.45-1.14.05-.92.8-1,1.48s0,1.28.94,1.24S50.86,74.85,51.76,74.85Zm6.37,9.46c.28.11.55.26.83.34,2.4.73,4.81,1.43,7.2,2.18.61.19,1,.09,1.18-.52.29-.76-.22-.87-.73-1-2.33-.69-4.67-1.34-7-2.11C58.53,82.82,58.22,83.26,58.13,84.31Z"/><path class="cls-1" d="M75,90a5.07,5.07,0,0,1,5-5.13A5.35,5.35,0,0,1,85.22,90,5.11,5.11,0,0,1,80,95.08,4.88,4.88,0,0,1,75,90Zm6.86,0a1.81,1.81,0,0,0-3.62.08A1.81,1.81,0,1,0,81.86,90Z"/></g></g></svg>