<svg xmlns="http://www.w3.org/2000/svg" viewBox="0 0 92.81 92.81"><defs><style>.cls-1{fill:#0079ff;}</style></defs><title>smile_life</title><g id="Layer_2" data-name="Layer 2"><g id="Shapes"><path class="cls-1" d="M0,46.88A46.41,46.41,0,1,0,45.94,0,46.46,46.46,0,0,0,0,46.88Zm4-.05a42.37,42.37,0,1,1,42.79,42A42.41,42.41,0,0,1,4,46.83Z"/><path class="cls-1" d="M30.12,32.45a10.09,10.09,0,0,1,10.19,10,2,2,0,1,1-4,0,6.06,6.06,0,0,0-12.11.13,2,2,0,0,1-4,0A10.09,10.09,0,0,1,30.12,32.45Z"/><path class="cls-1" d="M56.45,42.27a2,2,0,1,1-4,0,10.09,10.09,0,1,1,20.17-.2,2,2,0,0,1-4,0,6.06,6.06,0,0,0-12.11.12Z"/><path class="cls-1" d="M72.24,59.53a.45.45,0,0,0,0-.11.25.25,0,0,0,0-.08,1.82,1.82,0,0,0,0-.32h0s0-.06,0-.09a2.58,2.58,0,0,0,0-.29,1.21,1.21,0,0,1,0-.18l-.06-.19-.09-.17L72,57.92c0-.06-.08-.1-.12-.15a1.83,1.83,0,0,0-.13-.16l-.14-.12-.15-.13-.23-.12a.6.6,0,0,0-.11-.06h0l-.23-.07-.15-.05h0a1.55,1.55,0,0,0-.37,0H22.43l-.24,0-.19,0-.08,0-.09,0-.2.09-.17.09-.16.11-.15.12-.13.13a1.58,1.58,0,0,0-.12.15l-.11.16-.09.17a1.34,1.34,0,0,0-.07.18.6.6,0,0,0-.06.19,1.16,1.16,0,0,0,0,.18,1.5,1.5,0,0,0,0,.22s0,.06,0,.09,0,.06,0,.09a1.49,1.49,0,0,0,0,.21,1.77,1.77,0,0,0,0,.2s0,.05,0,.08c3.83,12.58,13.24,19.8,25.83,19.8,15.13,0,21.31-9.41,25.74-19.58h0A2.14,2.14,0,0,0,72.24,59.53ZM46.41,75.39c-12.8,0-18.55-8.11-21.09-14.38H67.19C62.83,70,57.45,75.39,46.41,75.39Z"/></g></g></svg>