<svg xmlns="http://www.w3.org/2000/svg" viewBox="0 0 92.82 92.82"><defs><style>.cls-1{fill:#a5a5a5;}</style></defs><title>smile_gray</title><g id="Layer_2" data-name="Layer 2"><g id="_1" data-name="1"><path class="cls-1" d="M29.41,60.69a2,2,0,0,1,2.82-.42,22.44,22.44,0,0,0,32.65-6.63,2,2,0,1,1,3.48,2,26.49,26.49,0,0,1-38.54,7.83A2,2,0,0,1,29.41,60.69Z"/><path class="cls-1" d="M.93,55.65A46.41,46.41,0,1,0,37.17.93,46.46,46.46,0,0,0,.93,55.65Zm4-.8a42.37,42.37,0,1,1,50,33.08A42.42,42.42,0,0,1,4.89,54.85Z"/><path class="cls-1" d="M27.78,35.79a10.1,10.1,0,0,1,11.9,7.87,2,2,0,0,1-4,.81,6.05,6.05,0,1,0-11.86,2.41,2,2,0,1,1-4,.8A10.1,10.1,0,0,1,27.78,35.79Z"/><path class="cls-1" d="M55.49,40.45a2,2,0,1,1-4,.8,10.09,10.09,0,0,1,19.77-4,2,2,0,1,1-4,.81,6.06,6.06,0,0,0-11.87,2.41Z"/></g></g></svg>