<svg xmlns="http://www.w3.org/2000/svg" viewBox="0 0 92.81 92.81"><defs><style>.cls-1{fill:#0079ff;}</style></defs><title>smile_blue</title><g id="Layer_2" data-name="Layer 2"><g id="_1" data-name="1"><path class="cls-1" d="M0,45.41A46.41,46.41,0,1,0,47.4,0,46.46,46.46,0,0,0,0,45.41Zm4,.09A42.37,42.37,0,1,1,45.5,88.77,42.41,42.41,0,0,1,4.05,45.5Z"/><circle class="cls-1" cx="27.4" cy="41.69" r="2.28"/><circle class="cls-1" cx="59.77" cy="41.69" r="2.28"/><path class="cls-1" d="M43.05,63a23.66,23.66,0,0,1-8.93-1.6,1.5,1.5,0,0,1,1.22-2.74h0A21.12,21.12,0,0,0,43.05,60a21.05,21.05,0,0,0,7.71-1.34A1.5,1.5,0,0,1,52,61.42,23.82,23.82,0,0,1,43.05,63Z"/></g></g></svg>