<svg xmlns="http://www.w3.org/2000/svg" xmlns:xlink="http://www.w3.org/1999/xlink" viewBox="0 0 92.81 92.81"><defs><style>.cls-1{fill:url(#radial-gradient);}</style><radialGradient id="radial-gradient" cx="-101.59" cy="91.88" r="184.23" gradientUnits="userSpaceOnUse"><stop offset="0" stop-color="#9344ff"/><stop offset="0.52" stop-color="#0078ff"/><stop offset="1" stop-color="#00c8ff"/></radialGradient></defs><title>smile_happy</title><g id="Layer_2" data-name="Layer 2"><g id="_1" data-name="1"><path class="cls-1" d="M0,45.41A46.41,46.41,0,1,0,47.4,0,46.46,46.46,0,0,0,0,45.41Zm4,.09A42.37,42.37,0,1,1,45.5,88.77,42.41,42.41,0,0,1,4.05,45.5Z"/><circle class="cls-1" cx="27.4" cy="41.69" r="2.28"/><path class="cls-1" d="M27.4,44.47a2.79,2.79,0,1,1,2.78-2.78A2.79,2.79,0,0,1,27.4,44.47Zm0-4.57a1.79,1.79,0,1,0,1.78,1.79A1.79,1.79,0,0,0,27.4,39.9Z"/><circle class="cls-1" cx="59.77" cy="41.69" r="2.28"/><path class="cls-1" d="M59.77,44.47a2.79,2.79,0,1,1,2.79-2.78A2.79,2.79,0,0,1,59.77,44.47Zm0-4.57a1.79,1.79,0,1,0,1.79,1.79A1.79,1.79,0,0,0,59.77,39.9Z"/><path class="cls-1" d="M43.39,72.49A12.52,12.52,0,0,1,30.89,60a5.88,5.88,0,0,1,1.59-4.56c1.74-1.63,4.37-1.44,7.41-1.24a51.25,51.25,0,0,0,7,0c3-.2,5.67-.39,7.41,1.24A5.87,5.87,0,0,1,55.89,60,12.51,12.51,0,0,1,43.39,72.49ZM37.05,57.06a4,4,0,0,0-2.53.56A3.33,3.33,0,0,0,33.89,60a9.5,9.5,0,0,0,19,0,3.28,3.28,0,0,0-.63-2.37c-.78-.74-2.91-.59-5.15-.43-1.13.08-2.4.16-3.72.16s-2.59-.08-3.71-.16C38.75,57.12,37.85,57.06,37.05,57.06Z"/><path class="cls-1" d="M43.39,72.74A12.76,12.76,0,0,1,30.64,60a6.12,6.12,0,0,1,1.67-4.74c1.81-1.7,4.48-1.52,7.57-1.31a51.1,51.1,0,0,0,7,0c3.12-.21,5.79-.39,7.6,1.31A6.12,6.12,0,0,1,56.14,60,12.76,12.76,0,0,1,43.39,72.74ZM37.05,54.31a6.12,6.12,0,0,0-4.4,1.3A5.69,5.69,0,0,0,31.14,60a12.25,12.25,0,0,0,24.5,0,5.68,5.68,0,0,0-1.5-4.38c-1.66-1.55-4.22-1.37-7.2-1.17a52.13,52.13,0,0,1-7.07,0C38.88,54.38,37.93,54.31,37.05,54.31Zm6.34,15.43A9.76,9.76,0,0,1,33.64,60a3.48,3.48,0,0,1,.71-2.55,4,4,0,0,1,2.7-.63c.8,0,1.69.06,2.62.13,1.14.07,2.41.16,3.72.16s2.59-.09,3.7-.16c2.42-.17,4.48-.31,5.35.5a3.49,3.49,0,0,1,.7,2.55A9.76,9.76,0,0,1,43.39,69.74ZM37.05,57.31a3.71,3.71,0,0,0-2.36.49A3.14,3.14,0,0,0,34.14,60a9.25,9.25,0,0,0,18.5,0,3.14,3.14,0,0,0-.55-2.19c-.7-.65-2.85-.51-4.93-.37-1.16.08-2.43.17-3.77.17s-2.6-.09-3.73-.16C38.71,57.37,37.84,57.31,37.05,57.31Z"/></g></g></svg>