<svg xmlns="http://www.w3.org/2000/svg" xmlns:xlink="http://www.w3.org/1999/xlink" viewBox="0 0 92.81 92.81"><defs><style>.cls-1{fill:url(#radial-gradient);}</style><radialGradient id="radial-gradient" cx="-120.13" cy="155.39" r="256.86" gradientUnits="userSpaceOnUse"><stop offset="0" stop-color="#9344ff"/><stop offset="0.52" stop-color="#0078ff"/><stop offset="1" stop-color="#00c8ff"/></radialGradient></defs><title>smile_contact</title><g id="Layer_2" data-name="Layer 2"><g id="_1" data-name="1"><path class="cls-1" d="M26.75,56.72a2,2,0,0,1,2.84.2,22.46,22.46,0,0,0,33.31.49,2,2,0,0,1,3,2.74,26.47,26.47,0,0,1-39.32-.59A2,2,0,0,1,26.75,56.72Z"/><path class="cls-1" d="M0,45.71A46.41,46.41,0,1,0,47.1,0,46.45,46.45,0,0,0,0,45.71Zm4,.06a42.37,42.37,0,1,1,41.73,43A42.42,42.42,0,0,1,4,45.77Z"/><path class="cls-1" d="M30.48,32a10.1,10.1,0,0,1,9.93,10.24,2,2,0,1,1-4-.06A6.05,6.05,0,0,0,24.28,42a2,2,0,1,1-4-.06A10.11,10.11,0,0,1,30.48,32Z"/><path class="cls-1" d="M56.55,42.52a2,2,0,1,1-4-.06,10.09,10.09,0,0,1,20.17.3,2,2,0,1,1-4-.06,6.06,6.06,0,0,0-12.11-.18Z"/></g></g></svg>