<svg xmlns="http://www.w3.org/2000/svg" viewBox="0 0 92.81 92.81"><defs><style>.cls-1{fill:#0079ff;}.cls-2,.cls-3{fill:none;stroke:#0079ff;stroke-width:4px;}.cls-2{stroke-miterlimit:10;}.cls-3{stroke-linecap:round;stroke-linejoin:round;}</style></defs><title>smile_reason</title><g id="Layer_2" data-name="Layer 2"><g id="Shapes"><path class="cls-1" d="M0,46.88A46.41,46.41,0,1,0,45.94,0,46.46,46.46,0,0,0,0,46.88Zm4-.05a42.37,42.37,0,1,1,42.79,42A42.41,42.41,0,0,1,4,46.83Z"/><path class="cls-2" d="M33.48,67.11c0,5.74,4.65,1.74,10.39,1.74s10.39,4,10.39-1.74a10.39,10.39,0,0,0-20.78,0Z"/><circle class="cls-1" cx="24.63" cy="46.15" r="2.54"/><circle class="cls-1" cx="60.63" cy="46.15" r="2.54"/><path class="cls-3" d="M65.7,38.19a5.42,5.42,0,0,0,5.43,5.42"/><path class="cls-3" d="M20.64,37.49a5.42,5.42,0,0,1-5.43,5.43"/></g></g></svg>