<svg xmlns="http://www.w3.org/2000/svg" viewBox="0 0 512 512"><path d="M44.07 403.93C42.21 402.07 39.63 401 37 401s-5.21 1.069-7.07 2.93C28.07 405.79 27 408.37 27 411s1.07 5.21 2.93 7.069C31.79 419.93 34.37 421 37 421s5.21-1.07 7.07-2.931C45.93 416.21 47 413.63 47 411s-1.07-5.21-2.93-7.07z" fill="#caac7d"/><path d="M445.627 115.988c-.004-.003-.008-.007-.013-.01l-66.666-45.032c-12.782-8.634-28.008-11.83-42.585-9.68.651-3.141.992-6.369.992-9.651 0-12.579-4.899-24.405-13.794-33.301l-4.521-4.521C310.146 4.898 298.319 0 285.74 0c-12.579 0-24.406 4.898-33.302 13.794-8.895 8.896-13.793 20.722-13.793 33.302 0 12.579 4.899 24.405 13.793 33.3l4.521 4.522c5.665 5.664 12.521 9.7 20 11.89l-67.283 50.694c-4.282 3.226-7.391 7.463-9.218 12.145-4.842-.978-9.974-.704-14.882 1.049l-65.179 23.26c2.381-5.627 3.698-11.809 3.698-18.293v-6.394c0-25.968-21.127-47.095-47.095-47.095s-47.095 21.127-47.095 47.095v6.394c0 18.069 10.234 33.785 25.205 41.68C38.195 214.491 27 231.198 27 249.722V369c0 5.522 4.477 10 10 10s10-4.478 10-10v-18.3h39.443c2.082 0 4.015-.638 5.616-1.727l45.219-30.695c4.445-3.017 9.634-4.611 15.005-4.611 14.731 0 26.716 11.984 26.716 26.715v61.974l-28 11.205V363.5c0-3.601-1.936-6.923-5.067-8.699-3.131-1.775-6.976-1.731-10.066.117L85.2 385.228c-6.292 3.764-10.2 10.657-10.2 17.989V492H47v-41.98c0-5.522-4.477-10-10-10s-10 4.478-10 10V502c0 5.522 4.477 10 10 10h48c5.523 0 10-4.478 10-10v-98.783c0-.337.18-.654.468-.826L131 381.135V502c0 5.522 4.477 10 10 10h334c5.523 0 10-4.478 10-10V188.722c0-29.459-14.716-56.633-39.373-72.734zM271.102 70.777l-4.521-4.523c-5.118-5.117-7.936-11.921-7.936-19.158 0-7.238 2.818-14.042 7.936-19.159C271.698 22.818 278.502 20 285.74 20s14.041 2.818 19.159 7.937l4.521 4.521c10.564 10.563 10.564 27.754 0 38.318-10.565 10.564-27.755 10.564-38.318.001zm-49.39 92.698l99.208-74.748c13.748-10.357 32.569-10.842 46.833-1.208l55.437 37.447-48.926 39.357-38.37-25.919c-2.77-1.872-6.292-2.236-9.387-.968l-97.01 39.726c-3.602 1.472-7.809.071-9.808-3.262-.009-.016-.019-.031-.028-.047-2.063-3.481-1.182-7.943 2.051-10.378zm-171.807 2.188v-6.394c0-14.94 12.155-27.095 27.095-27.095s27.095 12.154 27.095 27.095v6.394c0 14.94-12.155 27.096-27.095 27.096s-27.095-12.155-27.095-27.096zM107 262.333v52.327L83.371 330.7H47V249.722c0-10.97 6.941-20.816 17.272-24.503l128.025-45.688c3.565-1.271 7.557.168 9.487 3.425 2.121 3.578 1.097 8.226-2.33 10.581l-88.118 60.555c-2.714 1.865-4.336 4.947-4.336 8.241zm45.284 31.334c-9.012 0-17.726 2.574-25.284 7.442v-33.515l83.782-57.575c4.767-3.276 8.207-7.813 10.173-12.877 1.854.38 3.748.583 5.655.583 3.516 0 7.068-.664 10.467-2.056l92.058-37.697 39.736 26.841c8.849 6.784 14.13 17.469 14.13 28.625V292h-19.667c-2.213 0-4.363.734-6.115 2.087L257.817 370.9 199 394.395v-54.013c0-25.759-20.957-46.715-46.716-46.715zM465 492H151v-56.894l115.534-46.153c.862-.344 1.671-.806 2.405-1.373L366.747 312H465v180zm0-200h-20v-78.867c0-5.522-4.477-10-10-10s-10 4.478-10 10V292h-22v-78.562c0-13.213-4.771-25.998-13.125-36.005l50.453-40.585C455.89 149.477 465 168.391 465 188.722V292z" fill="#caac7d"/><path d="M427 352.333h-23.333c-5.523 0-10 4.478-10 10s4.477 10 10 10H417V411c0 5.522 4.477 10 10 10s10-4.478 10-10v-48.667c0-5.522-4.477-10-10-10zM434.07 442.951c-1.86-1.861-4.44-2.931-7.07-2.931s-5.21 1.07-7.07 2.931c-1.86 1.859-2.93 4.439-2.93 7.069s1.07 5.21 2.93 7.07 4.44 2.93 7.07 2.93 5.21-1.069 7.07-2.93c1.86-1.861 2.93-4.44 2.93-7.07s-1.07-5.21-2.93-7.069z" fill="#caac7d"/></svg>