<svg xmlns="http://www.w3.org/2000/svg" viewBox="0 0 402.28 402.28"><path d="M394.099 216.383c-2.568-16.995-15.908-30.335-32.903-32.903l-.16-.08v-7.6c0-8.439-6.841-15.28-15.28-15.28h-13.68v-29.6C332.075 58.615 273.461 0 201.155 0S70.235 58.615 70.235 130.92v29.68h-13.6c-8.439 0-15.28 6.841-15.28 15.28v7.52c-21.429 3.085-36.299 22.957-33.214 44.386 2.478 17.213 16.001 30.736 33.214 33.214v7.52c0 8.439 6.841 15.28 15.28 15.28h39.36c8.345-.131 15.041-6.934 15.04-15.28v-92.64c0-8.439-6.841-15.28-15.28-15.28h-13.44v-29.68C82.315 65.242 135.558 12 201.235 12c65.678 0 118.92 53.242 118.92 118.92v29.68h-13.76c-8.439 0-15.28 6.841-15.28 15.28v92.64c0 8.439 6.841 15.28 15.28 15.28h13.44c-1.68 34.16-14.56 84.08-74.24 87.28v-3.2c0-8.439-6.841-15.28-15.28-15.28h-40.48c-8.439 0-15.28 6.841-15.28 15.28V387c0 8.439 6.841 15.28 15.28 15.28h40.56c8.439 0 15.28-6.841 15.28-15.28v-3.84c52.4-2.56 83.44-38.32 86.24-99.36h14c8.439 0 15.28-6.841 15.28-15.28V261c21.407-3.235 36.138-23.21 32.904-44.617zM41.355 249.32c-12.627-2.868-21.531-14.173-21.36-27.12.018-12.798 8.88-23.884 21.36-26.72v53.84zm54.64-76.72c1.811 0 3.28 1.469 3.28 3.28v92.64c0 1.811-1.469 3.28-3.28 3.28h-39.36c-1.811 0-3.28-1.469-3.28-3.28v-92.64c0-1.812 1.469-3.28 3.28-3.28h39.36zM233.675 387c0 1.811-1.469 3.28-3.28 3.28h-40.56c-1.811 0-3.28-1.469-3.28-3.28v-19.12c0-1.812 1.469-3.28 3.28-3.28h40.56c1.811 0 3.28 1.469 3.28 3.28V387zm112.08-115.2h-39.36c-1.811.044-3.315-1.388-3.359-3.199-.001-.027-.001-.054-.001-.081v-92.64c0-1.812 1.469-3.28 3.28-3.28h39.36c1.812 0 3.28 1.469 3.28 3.28v92.64h.08c0 1.811-1.468 3.28-3.28 3.28zm36.117-43.717c-2.293 10.412-10.425 18.544-20.837 20.837v-53.44c14.757 3.249 24.086 17.846 20.837 32.603z" fill="#caac7d"/></svg>