<svg xmlns="http://www.w3.org/2000/svg" viewBox="0 0 1000.65 163.03"><defs><style>.cls-1{fill:#129fe1;}</style></defs><title>decor</title><g id="Layer_2" data-name="Layer 2"><g id="Shapes_icons" data-name="Shapes&amp;icons"><g id="Lines-b1"><polygon class="cls-1" points="0.61 0 0.64 6 0.58 6 0.61 0"/><polygon class="cls-1" points="0.67 12 0.7 18 0.52 18 0.55 12 0.67 12"/><polygon class="cls-1" points="0.73 24 0.76 30 0.46 30 0.49 24 0.73 24"/><polygon class="cls-1" points="0.79 36 0.82 42 0.4 42 0.42 36 0.79 36"/><polygon class="cls-1" points="0.85 48 0.89 54 0.33 54 0.36 48 0.85 48"/><polygon class="cls-1" points="0.92 60 0.95 66 0.27 66 0.3 60 0.92 60"/><polygon class="cls-1" points="0.98 72 1.01 78 0.21 78 0.24 72 0.98 72"/><polygon class="cls-1" points="1.04 84 1.07 90 0.15 90 0.18 84 1.04 84"/><polygon class="cls-1" points="1.1 96 1.13 102 0.09 102 0.12 96 1.1 96"/><polygon class="cls-1" points="1.16 108 1.19 114 0.03 114 0.06 108 1.16 108"/><path class="cls-1" d="M1.22,120a43,43,0,0,0,.52,5.89l-1.27.2A42.56,42.56,0,0,1,0,120Z"/><path class="cls-1" d="M3.09,131.63a41.57,41.57,0,0,0,2.16,5.48L4,137.72A41.77,41.77,0,0,1,1.81,132Z"/><path class="cls-1" d="M8.17,142.23a41.71,41.71,0,0,0,3.61,4.66l-1.14,1A41.51,41.51,0,0,1,6.94,143Z"/><path class="cls-1" d="M16,151a42.37,42.37,0,0,0,4.75,3.46l-.84,1.34A43.54,43.54,0,0,1,15,152.17Z"/><path class="cls-1" d="M26,157.19a40.47,40.47,0,0,0,5.53,2L31,160.76a41.5,41.5,0,0,1-5.75-2.08Z"/><path class="cls-1" d="M37.24,160.33a42.68,42.68,0,0,0,5.88.34v1.72A44.61,44.61,0,0,1,37,162Z"/><polygon class="cls-1" points="49.12 160.65 55.12 160.63 55.12 162.43 49.12 162.41 49.12 160.65"/><polygon class="cls-1" points="61.12 160.62 67.12 160.6 67.12 162.46 61.12 162.44 61.12 160.62"/><polygon class="cls-1" points="73.12 160.58 79.12 160.56 79.12 162.49 73.12 162.48 73.12 160.58"/><polygon class="cls-1" points="85.12 160.55 91.12 160.53 91.12 162.53 85.12 162.51 85.12 160.55"/><polygon class="cls-1" points="97.12 160.51 103.12 160.5 103.12 162.56 97.12 162.55 97.12 160.51"/><polygon class="cls-1" points="109.12 160.48 115.12 160.46 115.12 162.6 109.12 162.58 109.12 160.48"/><polygon class="cls-1" points="121.12 160.44 127.12 160.43 127.12 162.63 121.12 162.62 121.12 160.44"/><polygon class="cls-1" points="133.12 160.41 139.12 160.39 139.12 162.67 133.12 162.65 133.12 160.41"/><polygon class="cls-1" points="145.12 160.37 151.12 160.36 151.12 162.7 145.12 162.68 145.12 160.37"/><polygon class="cls-1" points="157.12 160.34 163.12 160.32 163.12 162.74 157.12 162.72 157.12 160.34"/><polygon class="cls-1" points="169.12 160.31 175.12 160.29 175.12 162.77 169.12 162.75 169.12 160.31"/><polygon class="cls-1" points="181.12 160.27 187.12 160.26 187.12 162.8 181.12 162.79 181.12 160.27"/><polygon class="cls-1" points="193.12 160.25 199.12 160.25 199.12 162.81 193.12 162.8 193.12 160.25"/><polygon class="cls-1" points="205.12 160.24 211.12 160.24 211.12 162.82 205.12 162.81 205.12 160.24"/><polygon class="cls-1" points="217.12 160.23 223.12 160.23 223.12 162.83 217.12 162.83 217.12 160.23"/><polygon class="cls-1" points="229.12 160.22 235.12 160.22 235.12 162.84 229.12 162.84 229.12 160.22"/><polygon class="cls-1" points="241.12 160.21 247.12 160.2 247.12 162.85 241.12 162.85 241.12 160.21"/><polygon class="cls-1" points="253.12 160.2 259.12 160.19 259.12 162.87 253.12 162.86 253.12 160.2"/><polygon class="cls-1" points="265.12 160.19 271.12 160.18 271.12 162.88 265.12 162.87 265.12 160.19"/><polygon class="cls-1" points="277.12 160.18 283.12 160.17 283.12 162.89 277.12 162.88 277.12 160.18"/><polygon class="cls-1" points="289.12 160.16 295.12 160.16 295.12 162.9 289.12 162.9 289.12 160.16"/><polygon class="cls-1" points="301.12 160.15 307.12 160.15 307.12 162.91 301.12 162.91 301.12 160.15"/><polygon class="cls-1" points="313.12 160.14 319.12 160.13 319.12 162.92 313.12 162.92 313.12 160.14"/><polygon class="cls-1" points="325.12 160.13 331.12 160.12 331.12 162.93 325.12 162.93 325.12 160.13"/><polygon class="cls-1" points="337.12 160.12 343.12 160.11 343.12 162.95 337.12 162.94 337.12 160.12"/><polygon class="cls-1" points="349.12 160.11 355.12 160.1 355.12 162.96 349.12 162.95 349.12 160.11"/><polygon class="cls-1" points="361.12 160.09 367.12 160.09 367.12 162.97 361.12 162.96 361.12 160.09"/><polygon class="cls-1" points="373.12 160.08 379.12 160.08 379.12 162.98 373.12 162.97 373.12 160.08"/><polygon class="cls-1" points="385.12 160.07 391.12 160.07 391.12 162.99 385.12 162.99 385.12 160.07"/><polygon class="cls-1" points="397.12 160.06 403.12 160.06 403.12 163 397.12 163 397.12 160.06"/><polygon class="cls-1" points="409.12 160.05 415.12 160.04 415.12 163.01 409.12 163.01 409.12 160.05"/><polygon class="cls-1" points="421.12 160.04 427.12 160.03 427.12 163.03 421.12 163.02 421.12 160.04"/><polygon class="cls-1" points="433.12 160.03 439.12 160.04 439.12 163.02 433.12 163.03 433.12 160.03"/><polygon class="cls-1" points="445.12 160.04 451.12 160.05 451.12 163.01 445.12 163.01 445.12 160.04"/><polygon class="cls-1" points="457.12 160.05 463.12 160.06 463.12 163 457.12 163 457.12 160.05"/><polygon class="cls-1" points="469.12 160.07 475.12 160.07 475.12 162.99 469.12 162.99 469.12 160.07"/><polygon class="cls-1" points="481.12 160.08 487.12 160.08 487.12 162.97 481.12 162.98 481.12 160.08"/><polygon class="cls-1" points="493.12 160.09 499.12 160.09 499.12 162.96 493.12 162.97 493.12 160.09"/><polygon class="cls-1" points="505.12 160.1 511.12 160.11 511.12 162.95 505.12 162.96 505.12 160.1"/><polygon class="cls-1" points="517.12 160.11 523.12 160.12 523.12 162.94 517.12 162.95 517.12 160.11"/><polygon class="cls-1" points="529.12 160.12 535.12 160.13 535.12 162.93 529.12 162.94 529.12 160.12"/><polygon class="cls-1" points="541.12 160.13 547.12 160.14 547.12 162.92 541.12 162.92 541.12 160.13"/><polygon class="cls-1" points="553.12 160.15 559.12 160.15 559.12 162.91 553.12 162.91 553.12 160.15"/><polygon class="cls-1" points="565.12 160.16 571.12 160.16 571.12 162.9 565.12 162.9 565.12 160.16"/><polygon class="cls-1" points="577.12 160.17 583.12 160.18 583.12 162.88 577.12 162.89 577.12 160.17"/><polygon class="cls-1" points="589.12 160.18 595.12 160.19 595.12 162.87 589.12 162.88 589.12 160.18"/><polygon class="cls-1" points="601.12 160.19 607.12 160.2 607.12 162.86 601.12 162.87 601.12 160.19"/><polygon class="cls-1" points="613.12 160.2 619.12 160.21 619.12 162.85 613.12 162.85 613.12 160.2"/><polygon class="cls-1" points="625.12 160.22 631.12 160.22 631.12 162.84 625.12 162.84 625.12 160.22"/><polygon class="cls-1" points="637.12 160.23 643.12 160.23 643.12 162.83 637.12 162.83 637.12 160.23"/><polygon class="cls-1" points="649.12 160.24 655.12 160.24 655.12 162.81 649.12 162.82 649.12 160.24"/><polygon class="cls-1" points="661.12 160.25 667.12 160.25 667.12 162.8 661.12 162.81 661.12 160.25"/><polygon class="cls-1" points="673.12 160.26 679.12 160.27 679.12 162.79 673.12 162.8 673.12 160.26"/><polygon class="cls-1" points="685.12 160.29 691.12 160.31 691.12 162.75 685.12 162.77 685.12 160.29"/><polygon class="cls-1" points="697.12 160.32 703.12 160.34 703.12 162.72 697.12 162.73 697.12 160.32"/><polygon class="cls-1" points="709.12 160.36 715.12 160.38 715.12 162.68 709.12 162.7 709.12 160.36"/><polygon class="cls-1" points="721.12 160.39 727.12 160.41 727.12 162.65 721.12 162.66 721.12 160.39"/><polygon class="cls-1" points="733.12 160.43 739.12 160.44 739.12 162.61 733.12 162.63 733.12 160.43"/><polygon class="cls-1" points="745.12 160.46 751.12 160.48 751.12 162.58 745.12 162.59 745.12 160.46"/><polygon class="cls-1" points="757.12 160.5 763.12 160.51 763.12 162.54 757.12 162.56 757.12 160.5"/><polygon class="cls-1" points="769.12 160.53 775.12 160.55 775.12 162.51 769.12 162.53 769.12 160.53"/><polygon class="cls-1" points="781.12 160.57 787.12 160.58 787.12 162.47 781.12 162.49 781.12 160.57"/><polygon class="cls-1" points="793.12 160.6 799.12 160.62 799.12 162.44 793.12 162.46 793.12 160.6"/><polygon class="cls-1" points="805.12 160.64 811.12 160.65 811.12 162.4 805.12 162.42 805.12 160.64"/><polygon class="cls-1" points="817.12 160.67 823.12 160.69 823.12 162.37 817.12 162.39 817.12 160.67"/><polygon class="cls-1" points="829.12 160.71 835.12 160.72 835.12 162.34 829.12 162.35 829.12 160.71"/><polygon class="cls-1" points="841.12 160.74 847.12 160.76 847.12 162.3 841.12 162.32 841.12 160.74"/><polygon class="cls-1" points="853.12 160.78 859.12 160.8 859.12 162.26 853.12 162.28 853.12 160.78"/><polygon class="cls-1" points="865.12 160.83 871.12 160.86 871.12 162.19 865.12 162.22 865.12 160.83"/><polygon class="cls-1" points="877.12 160.9 883.12 160.93 883.12 162.13 877.12 162.16 877.12 160.9"/><polygon class="cls-1" points="889.12 160.96 895.12 160.99 895.12 162.07 889.12 162.1 889.12 160.96"/><polygon class="cls-1" points="901.12 161.02 907.12 161.05 907.12 162.01 901.12 162.04 901.12 161.02"/><polygon class="cls-1" points="913.12 161.08 919.12 161.11 919.12 161.95 913.12 161.98 913.12 161.08"/><polygon class="cls-1" points="925.12 161.14 931.12 161.17 931.12 161.89 925.12 161.92 925.12 161.14"/><polygon class="cls-1" points="937.12 161.2 943.12 161.23 943.12 161.82 937.12 161.85 937.12 161.2"/><polygon class="cls-1" points="949.12 161.26 955.12 161.29 955.12 161.76 949.12 161.79 949.12 161.26"/><polygon class="cls-1" points="961.12 161.33 967.12 161.36 967.12 161.7 961.12 161.73 961.12 161.33"/><polygon class="cls-1" points="973.12 161.39 979.12 161.42 979.12 161.64 973.12 161.67 973.12 161.39"/><polygon class="cls-1" points="985.12 161.45 991.12 161.48 991.12 161.58 985.12 161.61 985.12 161.45"/><polygon class="cls-1" points="997.12 161.51 1000.65 161.53 997.12 161.55 997.12 161.51"/></g></g></g></svg>