<svg xmlns="http://www.w3.org/2000/svg" viewBox="0 0 45.1 36.9"><defs><style>.cls-1{fill:#fff;}</style></defs><title>icon_2</title><g id="Layer_2" data-name="Layer 2"><g id="_1" data-name="1"><path class="cls-1" d="M33.87,30.61a20.45,20.45,0,0,0,8.22-6,12.76,12.76,0,0,0,0-16.46,20.45,20.45,0,0,0-8.22-6A28.88,28.88,0,0,0,22.55,0,28.88,28.88,0,0,0,11.23,2.19,20.45,20.45,0,0,0,3,8.17,12.91,12.91,0,0,0,0,16.4a12.66,12.66,0,0,0,2.27,7.18,18.41,18.41,0,0,0,5,4.91,1.67,1.67,0,0,1,.57,2.15h0a7.92,7.92,0,0,1-.8,1.24q-.46.59-.72.93c-.17.22-.45.54-.83.94s-.63.67-.74.8c0,0,0,0-.13.15s-.13.17-.14.16,0,0-.13.16l-.11.17-.08.16a.82.82,0,0,0-.06.19,1.49,1.49,0,0,0,0,.21.66.66,0,0,0,0,.21,1,1,0,0,0,.37.67,1,1,0,0,0,.66.26h.09A27.83,27.83,0,0,0,8,36.39a27,27,0,0,0,8.35-3.73,1.73,1.73,0,0,1,1.21-.26,32.85,32.85,0,0,0,5,.4A28.88,28.88,0,0,0,33.87,30.61ZM16.66,28.07a1.68,1.68,0,0,0-1.3.28l-.82.57c-.6.41-1.26.83-2,1.25h0A3.3,3.3,0,0,0,11.15,26l-.58-.34A14.79,14.79,0,0,1,5.8,21.46,8.74,8.74,0,0,1,4.1,16.4a9.09,9.09,0,0,1,2.52-6.12,17.09,17.09,0,0,1,6.77-4.51A24.93,24.93,0,0,1,22.55,4.1a24.93,24.93,0,0,1,9.16,1.67,17.2,17.2,0,0,1,6.78,4.51A9.13,9.13,0,0,1,41,16.4a9.13,9.13,0,0,1-2.51,6.12A17.2,17.2,0,0,1,31.71,27a24.93,24.93,0,0,1-9.16,1.67,27.66,27.66,0,0,1-4.9-.45Z"/></g></g></svg>