<svg xmlns="http://www.w3.org/2000/svg" viewBox="0 0 32.78 42.07"><defs><style>.cls-1{fill:#fff;}</style></defs><title>icon_1</title><g id="Layer_2" data-name="Layer 2"><g id="_1" data-name="1"><path class="cls-1" d="M18,16.94a5.1,5.1,0,0,1,4.26,5,5.12,5.12,0,0,1-1.77,4.11,6.42,6.42,0,0,1-4.33,1.49,6.1,6.1,0,0,1-5.4-2.71,1,1,0,0,1,.35-1.36l.73-.42a1,1,0,0,1,1.35.35,3.33,3.33,0,0,0,3,1.36c2,0,3.24-1.1,3.24-2.82s-1.25-2.78-3.24-2.78h-.65l-.82-1.24a.83.83,0,0,1,0-.94l3.42-4.49H11.82a1,1,0,0,1-1-1v-.71a1,1,0,0,1,1-1h8.73a1,1,0,0,1,1,1v1.12a1,1,0,0,1-.2.59Z"/><path class="cls-1" d="M16.39,0A42.9,42.9,0,0,0,4,1.85,5.58,5.58,0,0,0,0,7.18V15.4A31.52,31.52,0,0,0,13.18,41a5.5,5.5,0,0,0,6.42,0A31.52,31.52,0,0,0,32.78,15.4V7.18a5.58,5.58,0,0,0-4-5.33A42.9,42.9,0,0,0,16.39,0ZM28.78,15.4A27.54,27.54,0,0,1,18.25,37.06a3,3,0,0,1-3.72,0A27.54,27.54,0,0,1,4,15.4V8.28A3,3,0,0,1,6.24,5.35a38.83,38.83,0,0,1,20.3,0,3,3,0,0,1,2.24,2.93Z"/></g></g></svg>