<svg xmlns="http://www.w3.org/2000/svg" viewBox="0 0 47.02 47.02"><defs><style>.cls-1{fill:#fff;}</style></defs><title>icon_3</title><g id="Layer_2" data-name="Layer 2"><g id="_1" data-name="1"><path class="cls-1" d="M33,28.65a1,1,0,0,0-1.38.08,10.89,10.89,0,0,1-16.16,0,1,1,0,0,0-1.38-.08A1,1,0,0,0,14,30a12.85,12.85,0,0,0,19.08,0A1,1,0,0,0,33,28.65Z"/><path class="cls-1" d="M23.51,35.28A13.8,13.8,0,0,1,13.23,30.7a2,2,0,0,1,.15-2.79,2,2,0,0,1,2.8.15,9.88,9.88,0,0,0,14.67,0,2,2,0,0,1,2.79-.15,2,2,0,0,1,.15,2.79A13.78,13.78,0,0,1,23.51,35.28Z"/><path class="cls-1" d="M23.51,1A22.51,22.51,0,1,0,46,23.51,22.54,22.54,0,0,0,23.51,1Zm0,43.06A20.55,20.55,0,1,1,44.06,23.51,20.57,20.57,0,0,1,23.51,44.06Z"/><path class="cls-1" d="M23.51,47A23.51,23.51,0,1,1,47,23.51,23.54,23.54,0,0,1,23.51,47ZM23.51,4A19.55,19.55,0,1,0,43.06,23.51,19.57,19.57,0,0,0,23.51,4Z"/><path class="cls-1" d="M31.34,16.66a4.89,4.89,0,0,0-4.89,4.89,1,1,0,1,0,1.95,0,2.94,2.94,0,0,1,5.88,0,1,1,0,1,0,1.95,0A4.89,4.89,0,0,0,31.34,16.66Z"/><path class="cls-1" d="M35.26,23.53a2,2,0,0,1-2-2,1.94,1.94,0,0,0-3.87,0,2,2,0,0,1-4,0,5.89,5.89,0,1,1,11.78,0A2,2,0,0,1,35.26,23.53Z"/><path class="cls-1" d="M18.62,21.55a1,1,0,1,0,1.95,0,4.89,4.89,0,0,0-9.78,0,1,1,0,0,0,2,0,2.94,2.94,0,0,1,5.87,0Z"/><path class="cls-1" d="M19.6,23.53a2,2,0,0,1-2-2,1.94,1.94,0,0,0-3.87,0,2,2,0,0,1-4,0,5.9,5.9,0,0,1,11.79,0A2,2,0,0,1,19.6,23.53Zm-1-2h0Z"/></g></g></svg>