<svg xmlns="http://www.w3.org/2000/svg" viewBox="0 0 37.02 40.05"><defs><style>.cls-1{fill:#fff;}</style></defs><title>icon_4</title><g id="Layer_2" data-name="Layer 2"><g id="_1" data-name="1"><path class="cls-1" d="M7.38,4h0a14.36,14.36,0,0,1,4.29,1.24,18,18,0,0,0,6.5,1.65,8.19,8.19,0,0,0,1.73-.18,34.18,34.18,0,0,0,4.49-1.38,15,15,0,0,1,4.4-1.18c.59,0,1.25.1,2.21,1.27,2.14,2.61,2.62,8.65,1.26,15.76s-4,12.39-5.62,14.14c-.31-1.16-.58-2.79-.76-3.82-.42-2.55-.82-5-1.91-6.72a6.9,6.9,0,0,0-11.83,0c-.9,1.51-1.26,3.51-1.71,6a44.65,44.65,0,0,1-.93,4.37C6.66,31.71,2.8,18.32,4.34,9.09c.48-2.85,1.44-4.73,2.57-5a2.12,2.12,0,0,1,.47,0m0-4A6,6,0,0,0,5.86.19C-4.78,3.06,1,34.51,7.94,39.21a4.14,4.14,0,0,0,2.24.84c4.06,0,3.85-10.6,5.39-13.17a2.87,2.87,0,0,1,2.48-1.43,3,3,0,0,1,2.52,1.43c1.86,3,1.15,13.13,5.32,13.13a4.28,4.28,0,0,0,2.05-.63c6.24-3.47,13.12-28,6.15-36.5A6.55,6.55,0,0,0,28.79.15c-3.11,0-6.41,2-9.71,2.64a4,4,0,0,1-.91.1C15,2.89,11,0,7.38,0Z"/></g></g></svg>