<svg xmlns="http://www.w3.org/2000/svg" viewBox="0 0 2123 1079">
  <defs>
    <style>
      .cls-2{opacity:.5}.cls-3{fill:#e9e9e9}.cls-7{fill:#005e53}
    </style>
    <radialGradient id="radial-gradient" cx="1154.26" cy="544.89" r="1294.01" gradientUnits="userSpaceOnUse">
      <stop offset="0" stop-color="#e2f9c5"/>
      <stop offset="0.41" stop-color="#d8f8ce"/>
      <stop offset="1" stop-color="#c5f8ce"/>
    </radialGradient>
    <clipPath id="clip-path">
      <path fill="none" d="M2009 1079s-224-210-500-210c-324 0-720 188-910 188-334 0-510-103-510-103V172s218-84 456-22c379 98 772 227 1074 135 232-70 390-224 390-224z"/>
    </clipPath>
  </defs>
  <g id="Layer_2" data-name="Layer 2">
    <g id="_6" data-name="6">
      <g class="cls-2">
        <path d="M1534 352h-1l29-87a11 11 0 0 0-1-10A172 172 0 0 1 1729 1a168 168 0 0 1 86 33c36 27 59 63 67 108l3 19v21l-1 3c-2 11-3 22-6 32a172 172 0 0 1-150 125c-34 3-66-3-96-18a9 9 0 0 0-8-1l-72 23-18 6zm42-42l53-17a7 7 0 0 1 6 1c30 18 62 25 96 20 38-5 69-22 93-51 26-32 37-69 32-110-5-38-23-69-52-93-26-21-57-32-91-33a146 146 0 0 0-128 75c-17 30-22 61-16 95a139 139 0 0 0 24 57 5 5 0 0 1 0 5l-12 36-5 15z" class="cls-3"/>
        <path d="M1659 94c8-2 11 2 13 9l12 27c2 5 2 9-2 14l-9 10c-2 3-2 6 0 9 14 23 33 40 59 50 3 1 6 0 8-3l12-15c3-4 5-5 10-2l34 16c3 1 4 3 4 6 0 19-10 30-31 36-9 2-17 1-25-1-19-6-38-13-55-25a193 193 0 0 1-39-41c-8-11-15-21-19-33-6-20-4-37 11-52 4-5 10-7 17-5z" class="cls-3"/>
      </g>
      <g class="cls-2">
        <path d="M1574 1027h-1l30-87a11 11 0 0 0-1-10 172 172 0 0 1 168-254 168 168 0 0 1 85 33c37 27 59 63 68 108l2 19v24c-2 11-3 22-6 32a172 172 0 0 1-150 125c-34 3-66-3-96-18a10 10 0 0 0-8-1l-72 23-19 6zm43-42l52-17a7 7 0 0 1 6 1c30 18 62 25 97 20 37-5 68-22 93-51 26-32 37-69 31-110-4-38-22-69-51-93-27-21-57-32-92-33a146 146 0 0 0-128 75c-16 30-21 61-16 95a139 139 0 0 0 24 57 5 5 0 0 1 1 5l-13 36-4 15z" class="cls-3"/>
        <path d="M1699 769c8-2 11 2 14 9l11 27c3 5 2 9-1 14l-9 10c-2 3-3 6-1 9 14 23 34 40 59 50 4 1 6 0 8-2l13-16c3-4 5-5 10-2l34 16c2 1 3 3 3 6 0 19-10 30-31 36-8 2-16 1-25-1-19-6-38-13-54-25a193 193 0 0 1-40-41c-7-11-15-21-19-33-6-20-3-37 11-52 5-5 10-6 17-5z" class="cls-3"/>
      </g>
      <g class="cls-2">
        <path d="M383 407h-2l30-87a11 11 0 0 0-1-10A172 172 0 0 1 578 56a168 168 0 0 1 85 32c37 27 60 63 68 108l3 19v22l-1 3-6 32a172 172 0 0 1-150 125c-34 3-66-3-96-19a10 10 0 0 0-8-1l-72 23-18 7zm42-43l52-17a7 7 0 0 1 7 1c29 18 61 25 96 21 38-5 69-23 93-52 26-31 37-68 32-109-5-38-23-69-52-93-27-22-57-33-91-33a146 146 0 0 0-129 74c-16 30-21 62-15 95a139 139 0 0 0 23 57 5 5 0 0 1 1 5l-12 36-5 15z" class="cls-3"/>
        <path d="M508 148c7-2 11 3 13 9l12 27c2 5 1 10-2 14l-9 11c-2 2-2 5-1 8 14 23 34 40 60 50 3 1 5 0 7-2l13-15c3-4 5-5 10-3l34 16c3 1 3 3 3 6 0 19-9 30-30 36-9 3-17 2-25-1-20-6-39-12-55-25a193 193 0 0 1-40-41c-7-10-15-21-19-33-6-19-3-37 11-52 5-4 11-6 18-5z" class="cls-3"/>
      </g>
      <path fill="url(#radial-gradient)" d="M2009 1079s-224-210-500-210c-324 0-720 188-910 188-334 0-510-103-510-103V172s218-84 456-22c379 98 772 227 1074 135 232-70 390-224 390-224z"/>
      <g clip-path="url(#clip-path)" opacity=".03">
        <path d="M2043 240l7-19a3 3 0 0 0 0-3 38 38 0 0 1-5-27 39 39 0 0 1 43-30 39 39 0 0 1 34 32l1 4v5l-2 8a39 39 0 0 1-55 24 2 2 0 0 0-2 0l-17 5-4 1zm10-9l12-4a2 2 0 0 1 1 0 32 32 0 0 0 22 5 32 32 0 0 0 21-12 32 32 0 0 0-5-46 32 32 0 0 0-20-7 33 33 0 0 0-29 17 32 32 0 0 0 2 34 1 1 0 0 1 0 1l-3 8-1 4z" class="cls-7"/>
        <path d="M2072 182c1-1 2 0 3 2l2 6a3 3 0 0 1 0 3l-2 2a1 1 0 0 0 0 2 26 26 0 0 0 13 12 1 1 0 0 0 2-1l3-3 2-1 8 4a1 1 0 0 1 0 1c0 4-2 7-7 8a10 10 0 0 1-5 0c-5-1-9-3-13-6a44 44 0 0 1-9-9 27 27 0 0 1-4-7c-1-5-1-9 3-12a4 4 0 0 1 4-1zM1921 240h-1l7-19a3 3 0 0 0 0-3 38 38 0 0 1-4-27 39 39 0 0 1 42-30 39 39 0 0 1 34 32l1 4v5a73 73 0 0 1-1 8 39 39 0 0 1-56 24 2 2 0 0 0-2 0l-16 5-4 1zm9-9l12-4a2 2 0 0 1 2 0 32 32 0 0 0 21 5 32 32 0 0 0 21-12 32 32 0 0 0-4-46 32 32 0 0 0-21-7 33 33 0 0 0-29 17 32 32 0 0 0 2 34 1 1 0 0 1 0 1l-3 8z" class="cls-7"/>
        <path d="M1949 182c2-1 2 0 3 2l2 6a3 3 0 0 1 0 3l-2 2a1 1 0 0 0 0 2 26 26 0 0 0 13 12 1 1 0 0 0 2-1l3-3 2-1 8 4a1 1 0 0 1 1 1c0 4-3 7-7 8a10 10 0 0 1-6 0c-4-1-9-3-12-6a44 44 0 0 1-9-9 27 27 0 0 1-5-7c-1-5 0-9 3-12a4 4 0 0 1 4-1zM1798 240l6-19a3 3 0 0 0 0-3 38 38 0 0 1-4-27 39 39 0 0 1 42-30 39 39 0 0 1 35 32v9a73 73 0 0 1-1 8 39 39 0 0 1-56 24 2 2 0 0 0-2 0l-16 5-4 1zm10-9l11-4a2 2 0 0 1 2 0 32 32 0 0 0 22 5 32 32 0 0 0 21-12 32 32 0 0 0-5-46 32 32 0 0 0-21-7 33 33 0 0 0-29 17 32 32 0 0 0 2 34 1 1 0 0 1 0 1l-2 8-2 4z" class="cls-7"/>
        <path d="M1826 182c2-1 3 0 3 2l3 6a3 3 0 0 1-1 3l-2 2a1 1 0 0 0 0 2 26 26 0 0 0 14 12 1 1 0 0 0 1-1l3-3 2-1 8 4a1 1 0 0 1 1 1c0 4-2 7-7 8a10 10 0 0 1-6 0l-12-6a44 44 0 0 1-9-9 27 27 0 0 1-4-7c-2-5-1-9 2-12a4 4 0 0 1 4-1zM1675 240l7-19a3 3 0 0 0-1-3 38 38 0 0 1-4-27 39 39 0 0 1 42-30 39 39 0 0 1 35 32l1 4v5h-1l-1 8a39 39 0 0 1-56 24 2 2 0 0 0-1 0l-17 5-4 1zm10-9l12-4a2 2 0 0 1 1 0 32 32 0 0 0 22 5 32 32 0 0 0 21-12 32 32 0 0 0-5-46 32 32 0 0 0-20-7 33 33 0 0 0-29 17 32 32 0 0 0-4 21 31 31 0 0 0 5 13 1 1 0 0 1 1 1l-3 8z" class="cls-7"/>
        <path d="M1703 182c2-1 3 0 3 2l3 6a3 3 0 0 1 0 3l-2 2a1 1 0 0 0 0 2 26 26 0 0 0 13 12 1 1 0 0 0 2-1l3-3 2-1 8 4a1 1 0 0 1 0 1c0 4-2 7-7 8a10 10 0 0 1-5 0c-5-1-9-3-13-6a44 44 0 0 1-9-9 27 27 0 0 1-4-7c-1-5-1-9 3-12a4 4 0 0 1 3-1zM1553 240h-1l7-19a3 3 0 0 0 0-3 38 38 0 0 1-4-27 39 39 0 0 1 42-30 39 39 0 0 1 34 32l1 4v5a73 73 0 0 1-2 8 39 39 0 0 1-55 24 2 2 0 0 0-2 0l-16 5-4 1zm9-9l12-4a2 2 0 0 1 1 0 32 32 0 0 0 22 5 32 32 0 0 0 21-12 32 32 0 0 0-4-46 32 32 0 0 0-21-7 33 33 0 0 0-29 17 32 32 0 0 0 2 34 1 1 0 0 1 0 1l-3 8z" class="cls-7"/>
        <path d="M1581 182c1-1 2 0 3 2l2 6a3 3 0 0 1 0 3l-2 2a1 1 0 0 0 0 2 26 26 0 0 0 13 12 1 1 0 0 0 2-1l3-3 2-1 8 4a1 1 0 0 1 1 1c0 4-3 7-7 8a10 10 0 0 1-6 0c-4-1-9-3-12-6a44 44 0 0 1-9-9 27 27 0 0 1-5-7c-1-5 0-9 3-12a4 4 0 0 1 4-1zM1430 240h-1l7-19a3 3 0 0 0 0-3 38 38 0 0 1-4-27 39 39 0 0 1 42-30 39 39 0 0 1 35 32v9l-1 8a39 39 0 0 1-56 24 2 2 0 0 0-2 0l-16 5-4 1zm9-9l12-4a2 2 0 0 1 2 0 32 32 0 0 0 21 5 32 32 0 0 0 21-12 32 32 0 0 0-4-46 32 32 0 0 0-21-7 33 33 0 0 0-29 17 32 32 0 0 0 2 34 1 1 0 0 1 0 1l-3 8-1 4z" class="cls-7"/>
        <path d="M1458 182c2-1 3 0 3 2l3 6a3 3 0 0 1-1 3l-2 2a1 1 0 0 0 0 2 26 26 0 0 0 13 12 1 1 0 0 0 2-1l3-3 2-1 8 4a1 1 0 0 1 1 1c0 4-2 7-7 8a10 10 0 0 1-6 0l-12-6a44 44 0 0 1-9-9 27 27 0 0 1-4-7c-2-5-1-9 2-12a4 4 0 0 1 4-1zM1307 240l6-19a3 3 0 0 0 0-3 38 38 0 0 1-4-27 39 39 0 0 1 42-30 39 39 0 0 1 35 32v9a73 73 0 0 1-1 8 39 39 0 0 1-56 24 2 2 0 0 0-2 0l-16 5-4 1zm10-9l11-4a2 2 0 0 1 2 0 32 32 0 0 0 22 5 32 32 0 0 0 21-12 32 32 0 0 0-5-46 32 32 0 0 0-21-7 33 33 0 0 0-29 17 32 32 0 0 0 2 34 1 1 0 0 1 0 1l-2 8z" class="cls-7"/>
        <path d="M1335 182c2-1 3 0 3 2l3 6a3 3 0 0 1 0 3l-2 2a1 1 0 0 0-1 2 26 26 0 0 0 14 12 1 1 0 0 0 2-1l2-3 3-1 7 4a1 1 0 0 1 1 1c0 4-2 7-7 8a10 10 0 0 1-6 0l-12-6a44 44 0 0 1-9-9 27 27 0 0 1-4-7c-2-5-1-9 2-12a4 4 0 0 1 4-1zM1184 240l7-19a3 3 0 0 0 0-3 38 38 0 0 1-5-27 39 39 0 0 1 43-30 39 39 0 0 1 34 32l1 4v5l-2 8a39 39 0 0 1-55 24 2 2 0 0 0-2 0l-17 5-4 1zm10-9l12-4a2 2 0 0 1 1 0 32 32 0 0 0 22 5 32 32 0 0 0 21-12 32 32 0 0 0-5-46 32 32 0 0 0-20-7 33 33 0 0 0-29 17 32 32 0 0 0 2 34 1 1 0 0 1 0 1l-3 8-1 4z" class="cls-7"/>
        <path d="M1213 182c1-1 2 0 3 2l2 6a3 3 0 0 1 0 3l-2 2a1 1 0 0 0 0 2 26 26 0 0 0 13 12 1 1 0 0 0 2-1l3-3 2-1 8 4a1 1 0 0 1 0 1c0 4-2 7-7 8a10 10 0 0 1-5 0c-5-1-9-3-13-6a44 44 0 0 1-9-9 27 27 0 0 1-4-7c-1-5-1-9 3-12a4 4 0 0 1 4-1zM1062 240h-1l7-19a3 3 0 0 0 0-3 38 38 0 0 1-4-27 39 39 0 0 1 42-30 39 39 0 0 1 34 32l1 4v5l-1 8a39 39 0 0 1-56 24 2 2 0 0 0-2 0l-16 5-4 1zm9-9l12-4a2 2 0 0 1 1 0 32 32 0 0 0 22 5 32 32 0 0 0 21-12 32 32 0 0 0-4-46 32 32 0 0 0-21-7 33 33 0 0 0-29 17 32 32 0 0 0 2 34 1 1 0 0 1 0 1l-3 8z" class="cls-7"/>
        <path d="M1090 182c2-1 2 0 3 2l2 6a3 3 0 0 1 0 3l-2 2a1 1 0 0 0 0 2 26 26 0 0 0 13 12 1 1 0 0 0 2-1l3-3 2-1 8 4a1 1 0 0 1 1 1c0 4-3 7-7 8a10 10 0 0 1-6 0c-4-1-9-3-12-6a44 44 0 0 1-9-9 27 27 0 0 1-5-7c-1-5 0-9 3-12a4 4 0 0 1 4-1zM939 240l6-19a3 3 0 0 0 0-3 38 38 0 0 1-4-27 39 39 0 0 1 42-30 39 39 0 0 1 35 32v9a73 73 0 0 1-1 8 39 39 0 0 1-56 24 2 2 0 0 0-2 0l-16 5-4 1zm9-9l12-4a2 2 0 0 1 2 0 32 32 0 0 0 22 5 32 32 0 0 0 21-12 32 32 0 0 0-5-46 32 32 0 0 0-21-7 33 33 0 0 0-29 17 32 32 0 0 0 2 34 1 1 0 0 1 0 1l-2 8z" class="cls-7"/>
        <path d="M967 182c2-1 3 0 3 2l3 6a3 3 0 0 1-1 3l-2 2a1 1 0 0 0 0 2 26 26 0 0 0 14 12 1 1 0 0 0 1-1l3-3 2-1 8 4a1 1 0 0 1 1 1c0 4-2 7-7 8a10 10 0 0 1-6 0l-12-6a44 44 0 0 1-9-9 27 27 0 0 1-4-7c-2-5-1-9 2-12a4 4 0 0 1 4-1zM816 240l7-19a3 3 0 0 0-1-3 38 38 0 0 1-4-27 39 39 0 0 1 42-30 39 39 0 0 1 35 32l1 4v5h-1l-1 8a39 39 0 0 1-56 24 2 2 0 0 0-1 0l-17 5-4 1zm10-9l12-4a2 2 0 0 1 1 0 32 32 0 0 0 22 5 32 32 0 0 0 21-12 32 32 0 0 0-5-46 32 32 0 0 0-20-7 33 33 0 0 0-29 17 32 32 0 0 0 1 34 1 1 0 0 1 1 1l-3 8z" class="cls-7"/>
        <path d="M844 182c2-1 3 0 3 2l3 6a3 3 0 0 1 0 3l-2 2a1 1 0 0 0 0 2 26 26 0 0 0 13 12 1 1 0 0 0 2-1l2-3 3-1 7 4a1 1 0 0 1 1 1c0 4-2 7-7 8a10 10 0 0 1-5 0c-5-1-9-3-13-6a44 44 0 0 1-9-9 27 27 0 0 1-4-7c-1-5-1-9 2-12a4 4 0 0 1 4-1zM694 240h-1l7-19a3 3 0 0 0 0-3 38 38 0 0 1-4-27 39 39 0 0 1 42-30 39 39 0 0 1 34 32l1 4v5a73 73 0 0 1-2 8 39 39 0 0 1-55 24 2 2 0 0 0-2 0l-16 5-4 1zm9-9l12-4a2 2 0 0 1 1 0 32 32 0 0 0 22 5 32 32 0 0 0 21-12 32 32 0 0 0-4-46 32 32 0 0 0-21-7 33 33 0 0 0-29 17 32 32 0 0 0 2 34 1 1 0 0 1 0 1l-3 8z" class="cls-7"/>
        <path d="M722 182c1-1 2 0 3 2l2 6a3 3 0 0 1 0 3l-2 2a1 1 0 0 0 0 2 26 26 0 0 0 13 12 1 1 0 0 0 2-1l3-3 2-1 8 4a1 1 0 0 1 1 1c0 4-3 7-7 8a10 10 0 0 1-6 0c-4-1-9-3-12-6a44 44 0 0 1-9-9 27 27 0 0 1-5-7c-1-5 0-9 3-12a4 4 0 0 1 4-1zM571 240h-1l7-19a3 3 0 0 0 0-3 38 38 0 0 1-4-27 39 39 0 0 1 42-30 39 39 0 0 1 35 32v9l-1 8a39 39 0 0 1-56 24 2 2 0 0 0-2 0l-16 5-4 1zm9-9l12-4a2 2 0 0 1 2 0 32 32 0 0 0 21 5 32 32 0 0 0 21-12 32 32 0 0 0-4-46 32 32 0 0 0-21-7 33 33 0 0 0-29 17 32 32 0 0 0 2 34 1 1 0 0 1 0 1l-3 8-1 4z" class="cls-7"/>
        <path d="M599 182c2-1 3 0 3 2l3 6a3 3 0 0 1-1 3l-2 2a1 1 0 0 0 0 2 26 26 0 0 0 13 12 1 1 0 0 0 2-1l3-3 2-1 8 4a1 1 0 0 1 1 1c0 4-2 7-7 8a10 10 0 0 1-6 0l-12-6a44 44 0 0 1-9-9 27 27 0 0 1-4-7c-2-5-1-9 2-12a4 4 0 0 1 4-1zM448 240l6-19a3 3 0 0 0 0-3 38 38 0 0 1-4-27 39 39 0 0 1 42-30 39 39 0 0 1 35 32v9a73 73 0 0 1-1 8 39 39 0 0 1-56 24 2 2 0 0 0-2 0l-16 5-4 1zm10-9l11-4a2 2 0 0 1 2 0 32 32 0 0 0 22 5 32 32 0 0 0 21-12 32 32 0 0 0-5-46 32 32 0 0 0-21-7 33 33 0 0 0-29 17 32 32 0 0 0 2 34 1 1 0 0 1 0 1l-2 8z" class="cls-7"/>
        <path d="M476 182c2-1 3 0 3 2l3 6a3 3 0 0 1 0 3l-2 2a1 1 0 0 0-1 2 26 26 0 0 0 14 12 1 1 0 0 0 2-1l2-3 3-1 7 4a1 1 0 0 1 1 1c0 4-2 7-7 8a10 10 0 0 1-6 0l-12-6a44 44 0 0 1-9-9 27 27 0 0 1-4-7c-2-5-1-9 2-12a4 4 0 0 1 4-1zM325 240l7-19a3 3 0 0 0 0-3 38 38 0 0 1-5-27 39 39 0 0 1 43-30 39 39 0 0 1 34 32l1 4v5a73 73 0 0 1-2 8 39 39 0 0 1-55 24 2 2 0 0 0-2 0l-17 5-4 1zm10-9l12-4a2 2 0 0 1 1 0 32 32 0 0 0 22 5 32 32 0 0 0 21-12 32 32 0 0 0-5-46 32 32 0 0 0-20-7 33 33 0 0 0-29 17 32 32 0 0 0 2 34 1 1 0 0 1 0 1l-3 8-1 4z" class="cls-7"/>
        <path d="M354 182c1-1 2 0 3 2l2 6a3 3 0 0 1 0 3l-2 2a1 1 0 0 0 0 2 26 26 0 0 0 13 12 1 1 0 0 0 2-1l3-3 2-1 8 4a1 1 0 0 1 0 1c0 4-2 7-7 8a10 10 0 0 1-5 0c-5-1-9-3-13-6a44 44 0 0 1-9-9 27 27 0 0 1-4-7c-1-5-1-9 3-12a4 4 0 0 1 4-1zM203 240h-1l7-19a3 3 0 0 0 0-3 38 38 0 0 1-4-27 39 39 0 0 1 42-30 39 39 0 0 1 34 32l1 4v5l-1 8a39 39 0 0 1-56 24 2 2 0 0 0-2 0l-16 5-4 1zm9-9l12-4a2 2 0 0 1 1 0 32 32 0 0 0 22 5 32 32 0 0 0 21-12 32 32 0 0 0-4-46 32 32 0 0 0-21-7 33 33 0 0 0-29 17 32 32 0 0 0 2 34 1 1 0 0 1 0 1l-3 8z" class="cls-7"/>
        <path d="M231 182c2-1 2 0 3 2l2 6a3 3 0 0 1 0 3l-2 2a1 1 0 0 0 0 2 26 26 0 0 0 13 12 1 1 0 0 0 2-1l3-3 2-1 8 4a1 1 0 0 1 1 1c0 4-3 7-7 8a10 10 0 0 1-6 0c-4-1-9-3-12-6a44 44 0 0 1-9-9 27 27 0 0 1-5-7c-1-5 0-9 3-12a4 4 0 0 1 4-1zM80 240l6-19a3 3 0 0 0 0-3 38 38 0 0 1-4-27 39 39 0 0 1 42-30 39 39 0 0 1 35 32v9a73 73 0 0 1-1 8 39 39 0 0 1-56 24 2 2 0 0 0-2 0l-16 5-4 1zm9-9l12-4a2 2 0 0 1 2 0 32 32 0 0 0 21 5 32 32 0 0 0 21-12 32 32 0 0 0-4-46 32 32 0 0 0-21-7 33 33 0 0 0-29 17 32 32 0 0 0 2 34 1 1 0 0 1 0 1l-2 8z" class="cls-7"/>
        <path d="M108 182c2-1 3 0 3 2l3 6a3 3 0 0 1-1 3l-2 2a1 1 0 0 0 0 2 26 26 0 0 0 14 12 1 1 0 0 0 1-1l3-3 2-1 8 4a1 1 0 0 1 1 1c0 4-2 7-7 8a10 10 0 0 1-6 0l-12-6a44 44 0 0 1-9-9 27 27 0 0 1-4-7c-2-5-1-9 2-12a4 4 0 0 1 4-1zM1964 351h-1l7-20a3 3 0 0 0 0-2 38 38 0 0 1-4-27 39 39 0 0 1 42-31 39 39 0 0 1 35 32v10a73 73 0 0 1-1 7 39 39 0 0 1-56 24 2 2 0 0 0-2 0l-16 5-4 2zm9-10l12-4a2 2 0 0 1 2 1 32 32 0 0 0 21 4 32 32 0 0 0 21-11 32 32 0 0 0-4-46 32 32 0 0 0-21-8 33 33 0 0 0-29 17 32 32 0 0 0 2 35 1 1 0 0 1 0 1l-3 8-1 3z" class="cls-7"/>
        <path d="M1992 292c2 0 2 1 3 2l3 7a3 3 0 0 1-1 3l-2 2a1 1 0 0 0 0 2 26 26 0 0 0 13 11 1 1 0 0 0 2 0l3-4h2l8 3a1 1 0 0 1 1 2c0 4-2 7-7 8a10 10 0 0 1-6 0c-4-2-9-3-12-6a43 43 0 0 1-9-9 27 27 0 0 1-5-8c-1-4 0-8 3-11a4 4 0 0 1 4-2zM1841 351l6-20a3 3 0 0 0 0-2 38 38 0 0 1-4-27 39 39 0 0 1 42-31 39 39 0 0 1 35 32v10l-1 7a39 39 0 0 1-56 24 2 2 0 0 0-2 0l-16 5-4 2zm10-10l11-4a2 2 0 0 1 2 1 32 32 0 0 0 22 4 32 32 0 0 0 21-11 32 32 0 0 0-5-46 32 32 0 0 0-21-8 33 33 0 0 0-29 17 32 32 0 0 0 2 35 1 1 0 0 1 0 1l-2 8z" class="cls-7"/>
        <path d="M1869 292c2 0 3 1 3 2l3 7a3 3 0 0 1 0 3l-2 2a1 1 0 0 0-1 2 26 26 0 0 0 14 11 1 1 0 0 0 1 0l3-4h3l7 3a1 1 0 0 1 1 2c0 4-2 7-7 8a10 10 0 0 1-6 0l-12-6a43 43 0 0 1-9-9 27 27 0 0 1-4-8c-2-4-1-8 2-11a4 4 0 0 1 4-2zM1718 351l7-20a3 3 0 0 0-1-2 38 38 0 0 1-4-27 39 39 0 0 1 43-31 39 39 0 0 1 34 32l1 5v4l-1 1a73 73 0 0 1-1 7 39 39 0 0 1-55 24 2 2 0 0 0-2 0l-17 5-4 2zm10-10l12-4a2 2 0 0 1 1 1 32 32 0 0 0 22 4 32 32 0 0 0 21-11 32 32 0 0 0-5-46 32 32 0 0 0-20-8 33 33 0 0 0-29 17 32 32 0 0 0 2 35 1 1 0 0 1 0 1l-3 8z" class="cls-7"/>
        <path d="M1747 292l3 2 2 7a3 3 0 0 1 0 3l-2 2a1 1 0 0 0 0 2 26 26 0 0 0 13 11 1 1 0 0 0 2 0l3-4h2l8 3a1 1 0 0 1 0 2c0 4-2 7-7 8a10 10 0 0 1-5 0c-5-2-9-3-13-6a43 43 0 0 1-9-9 27 27 0 0 1-4-8c-1-4-1-8 3-11a4 4 0 0 1 4-2zM1596 351h-1l7-20a3 3 0 0 0 0-2 38 38 0 0 1-4-27 39 39 0 0 1 42-31 39 39 0 0 1 34 32l1 5v5l-2 7a39 39 0 0 1-55 24 2 2 0 0 0-2 0l-16 5-4 2zm9-10l12-4a2 2 0 0 1 1 1 32 32 0 0 0 22 4 32 32 0 0 0 21-11 32 32 0 0 0-4-46 32 32 0 0 0-21-8 33 33 0 0 0-29 17 32 32 0 0 0 2 35 1 1 0 0 1 0 1l-3 8-1 3z" class="cls-7"/>
        <path d="M1624 292c2 0 2 1 3 2l2 7a3 3 0 0 1 0 3l-2 2a1 1 0 0 0 0 2 26 26 0 0 0 13 11 1 1 0 0 0 2 0l3-4h2l8 3a1 1 0 0 1 1 2c0 4-3 7-7 8a10 10 0 0 1-6 0c-4-2-9-3-12-6a43 43 0 0 1-9-9 27 27 0 0 1-5-8c-1-4 0-8 3-11a4 4 0 0 1 4-2zM1473 351l6-20a3 3 0 0 0 0-2 38 38 0 0 1-4-27 39 39 0 0 1 42-31 39 39 0 0 1 35 32v10a73 73 0 0 1-1 7 39 39 0 0 1-56 24 2 2 0 0 0-2 0l-16 5-4 2zm9-10l12-4a2 2 0 0 1 2 1 32 32 0 0 0 21 4 32 32 0 0 0 21-11 32 32 0 0 0-4-46 32 32 0 0 0-21-8 33 33 0 0 0-29 17 32 32 0 0 0 2 35 1 1 0 0 1 0 1l-3 8z" class="cls-7"/>
        <path d="M1501 292c2 0 3 1 3 2l3 7a3 3 0 0 1-1 3l-2 2a1 1 0 0 0 0 2 26 26 0 0 0 14 11 1 1 0 0 0 1 0l3-4h2l8 3a1 1 0 0 1 1 2c0 4-2 7-7 8a10 10 0 0 1-6 0l-12-6a43 43 0 0 1-9-9 27 27 0 0 1-4-8c-2-4-1-8 2-11a4 4 0 0 1 4-2zM1350 351l7-20a3 3 0 0 0-1-2 38 38 0 0 1-4-27 39 39 0 0 1 42-31 39 39 0 0 1 35 32l1 5v4l-1 1a73 73 0 0 1-1 7 39 39 0 0 1-56 24 2 2 0 0 0-1 0l-17 5-4 2zm10-10l12-4a2 2 0 0 1 1 1 32 32 0 0 0 22 4 32 32 0 0 0 21-11 32 32 0 0 0-5-46 32 32 0 0 0-20-8 33 33 0 0 0-29 17 32 32 0 0 0 1 35 1 1 0 0 1 1 1l-3 8-1 3z" class="cls-7"/>
        <path d="M1378 292c2 0 3 1 3 2l3 7a3 3 0 0 1 0 3l-2 2a1 1 0 0 0-1 2 26 26 0 0 0 14 11 1 1 0 0 0 2 0l2-4h3l7 3a1 1 0 0 1 1 2c0 4-2 7-7 8a10 10 0 0 1-5 0c-5-2-9-3-13-6a43 43 0 0 1-9-9 27 27 0 0 1-4-8c-1-4-1-8 2-11a4 4 0 0 1 4-2zM1227 351l7-20a3 3 0 0 0 0-2 38 38 0 0 1-4-27 39 39 0 0 1 42-31 39 39 0 0 1 34 32l1 5v5l-2 7a39 39 0 0 1-55 24 2 2 0 0 0-2 0l-16 5-5 2zm10-10l12-4a2 2 0 0 1 1 1 32 32 0 0 0 22 4 32 32 0 0 0 21-11 32 32 0 0 0-5-46 32 32 0 0 0-20-8 33 33 0 0 0-29 17 32 32 0 0 0 2 35 1 1 0 0 1 0 1l-3 8z" class="cls-7"/>
        <path d="M1256 292l3 2 2 7a3 3 0 0 1 0 3l-2 2a1 1 0 0 0 0 2 26 26 0 0 0 13 11 1 1 0 0 0 2 0l3-4h2l8 3a1 1 0 0 1 0 2c0 4-2 7-7 8a10 10 0 0 1-5 0c-5-2-9-3-13-6a43 43 0 0 1-9-9 27 27 0 0 1-4-8c-1-4-1-8 3-11a4 4 0 0 1 4-2zM1105 351h-1l7-20a3 3 0 0 0 0-2 38 38 0 0 1-4-27 39 39 0 0 1 42-31 39 39 0 0 1 35 32v10a73 73 0 0 1-1 7 39 39 0 0 1-56 24 2 2 0 0 0-2 0l-16 5-4 2zm9-10l12-4a2 2 0 0 1 2 1 32 32 0 0 0 21 4 32 32 0 0 0 21-11 32 32 0 0 0-4-46 32 32 0 0 0-21-8 33 33 0 0 0-29 17 32 32 0 0 0 2 35 1 1 0 0 1 0 1l-3 8z" class="cls-7"/>
        <path d="M1133 292c2 0 2 1 3 2l3 7a3 3 0 0 1-1 3l-2 2a1 1 0 0 0 0 2 26 26 0 0 0 13 11 1 1 0 0 0 2 0l3-4h2l8 3a1 1 0 0 1 1 2c0 4-2 7-7 8a10 10 0 0 1-6 0c-4-2-9-3-12-6a44 44 0 0 1-9-9 27 27 0 0 1-4-8c-2-4-1-8 2-11a4 4 0 0 1 4-2zM982 351l6-20a3 3 0 0 0 0-2 38 38 0 0 1-4-27 39 39 0 0 1 42-31 39 39 0 0 1 35 32v10l-1 7a39 39 0 0 1-56 24 2 2 0 0 0-2 0l-16 5-4 2zm10-10l11-4a2 2 0 0 1 2 1 32 32 0 0 0 22 4 32 32 0 0 0 21-11 32 32 0 0 0-5-46 32 32 0 0 0-21-8 33 33 0 0 0-29 17 32 32 0 0 0 2 35 1 1 0 0 1 0 1l-2 8-1 3z" class="cls-7"/>
        <path d="M1010 292c2 0 3 1 3 2l3 7a3 3 0 0 1 0 3l-2 2a1 1 0 0 0-1 2 26 26 0 0 0 14 11 1 1 0 0 0 2 0l2-4h3l7 3a1 1 0 0 1 1 2c0 4-2 7-7 8a10 10 0 0 1-6 0l-12-6a43 43 0 0 1-9-9 27 27 0 0 1-4-8c-2-4-1-8 2-11a4 4 0 0 1 4-2zM859 351l7-20a3 3 0 0 0-1-2 38 38 0 0 1-4-27 39 39 0 0 1 42-31 39 39 0 0 1 35 32l1 5v4l-1 1a73 73 0 0 1-1 7 39 39 0 0 1-55 24 2 2 0 0 0-2 0l-17 5-4 2zm10-10l12-4a2 2 0 0 1 1 1 32 32 0 0 0 22 4 32 32 0 0 0 21-11 32 32 0 0 0-5-46 32 32 0 0 0-20-8 33 33 0 0 0-29 17 32 32 0 0 0 2 35 1 1 0 0 1 0 1l-3 8z" class="cls-7"/>
        <path d="M888 292l3 2 2 7a3 3 0 0 1 0 3l-2 2a1 1 0 0 0 0 2 26 26 0 0 0 13 11 1 1 0 0 0 2 0l3-4h2l8 3a1 1 0 0 1 0 2c0 4-2 7-7 8a10 10 0 0 1-5 0c-5-2-9-3-13-6a43 43 0 0 1-9-9 27 27 0 0 1-4-8c-1-4-1-8 3-11a4 4 0 0 1 4-2zM737 351h-1l7-20a3 3 0 0 0 0-2 38 38 0 0 1-4-27 39 39 0 0 1 42-31 39 39 0 0 1 34 32l1 5v5l-2 7a39 39 0 0 1-55 24 2 2 0 0 0-2 0l-16 5-4 2zm9-10l12-4a2 2 0 0 1 1 1 32 32 0 0 0 22 4 32 32 0 0 0 21-11 32 32 0 0 0-4-46 32 32 0 0 0-21-8 33 33 0 0 0-29 17 32 32 0 0 0 2 35 1 1 0 0 1 0 1l-3 8-1 3z" class="cls-7"/>
        <path d="M765 292c2 0 2 1 3 2l2 7a3 3 0 0 1 0 3l-2 2a1 1 0 0 0 0 2 26 26 0 0 0 13 11 1 1 0 0 0 2 0l3-4h2l8 3a1 1 0 0 1 1 2c0 4-3 7-7 8a10 10 0 0 1-6 0c-4-2-9-3-12-6a43 43 0 0 1-9-9 27 27 0 0 1-5-8c-1-4 0-8 3-11a4 4 0 0 1 4-2zM614 351l6-20a3 3 0 0 0 0-2 38 38 0 0 1-4-27 39 39 0 0 1 42-31 39 39 0 0 1 35 32v10l-1 7a39 39 0 0 1-56 24 2 2 0 0 0-2 0l-16 5-4 2zm9-10l12-4a2 2 0 0 1 2 1 32 32 0 0 0 21 4 32 32 0 0 0 21-11 32 32 0 0 0-4-46 32 32 0 0 0-21-8 33 33 0 0 0-29 17 32 32 0 0 0 2 35 1 1 0 0 1 0 1l-3 8z" class="cls-7"/>
        <path d="M642 292c2 0 3 1 3 2l3 7a3 3 0 0 1-1 3l-2 2a1 1 0 0 0 0 2 26 26 0 0 0 14 11 1 1 0 0 0 1 0l3-4h2l8 3a1 1 0 0 1 1 2c0 4-2 7-7 8a10 10 0 0 1-6 0l-12-6a43 43 0 0 1-9-9 27 27 0 0 1-4-8c-2-4-1-8 2-11a4 4 0 0 1 4-2zM491 351l7-20a3 3 0 0 0-1-2 38 38 0 0 1-4-27 39 39 0 0 1 42-31 39 39 0 0 1 35 32v10a73 73 0 0 1-1 7 39 39 0 0 1-56 24 2 2 0 0 0-1 0l-17 5-4 2zm10-10l12-4a2 2 0 0 1 1 1 32 32 0 0 0 22 4 32 32 0 0 0 21-11 32 32 0 0 0-5-46 32 32 0 0 0-20-8 33 33 0 0 0-29 17 32 32 0 0 0 1 35 1 1 0 0 1 1 1l-3 8z" class="cls-7"/>
        <path d="M519 292c2 0 3 1 3 2l3 7a3 3 0 0 1 0 3l-2 2a1 1 0 0 0 0 2 26 26 0 0 0 13 11 1 1 0 0 0 2 0l2-4h3l7 3a1 1 0 0 1 1 2c0 4-2 7-7 8a10 10 0 0 1-5 0c-5-2-9-3-13-6a44 44 0 0 1-9-9 27 27 0 0 1-4-8c-1-4-1-8 2-11a4 4 0 0 1 4-2zM368 351l7-20a3 3 0 0 0 0-2 38 38 0 0 1-4-27 39 39 0 0 1 42-31 39 39 0 0 1 34 32l1 5v5l-2 7a39 39 0 0 1-55 24 2 2 0 0 0-2 0l-16 5-5 2zm10-10l12-4a2 2 0 0 1 1 1 32 32 0 0 0 22 4 32 32 0 0 0 21-11 32 32 0 0 0-5-46 32 32 0 0 0-20-8 33 33 0 0 0-29 17 32 32 0 0 0 2 35 1 1 0 0 1 0 1l-3 8z" class="cls-7"/>
        <path d="M397 292l3 2 2 7a3 3 0 0 1 0 3l-2 2a1 1 0 0 0 0 2 26 26 0 0 0 13 11 1 1 0 0 0 2 0l3-4h2l8 3a1 1 0 0 1 1 2c0 4-3 7-7 8a10 10 0 0 1-6 0c-4-2-9-3-12-6a43 43 0 0 1-9-9 27 27 0 0 1-5-8c-1-4 0-8 3-11a4 4 0 0 1 4-2zM246 351h-1l7-20a3 3 0 0 0 0-2 38 38 0 0 1-4-27 39 39 0 0 1 42-31 39 39 0 0 1 34 32l1 5v5a73 73 0 0 1-1 7 39 39 0 0 1-56 24 2 2 0 0 0-2 0l-16 5-4 2zm9-10l12-4a2 2 0 0 1 2 1 32 32 0 0 0 21 4 32 32 0 0 0 21-11 32 32 0 0 0-4-46 32 32 0 0 0-21-8 33 33 0 0 0-29 17 32 32 0 0 0 2 35 1 1 0 0 1 0 1l-3 8z" class="cls-7"/>
        <path d="M274 292c2 0 2 1 3 2l3 7a3 3 0 0 1-1 3l-2 2a1 1 0 0 0 0 2 26 26 0 0 0 13 11 1 1 0 0 0 2 0l3-4h2l8 3a1 1 0 0 1 1 2c0 4-2 7-7 8a10 10 0 0 1-6 0c-4-2-9-3-12-6a43 43 0 0 1-9-9 27 27 0 0 1-4-8c-2-4-1-8 2-11a4 4 0 0 1 4-2zM123 351l6-20a3 3 0 0 0 0-2 38 38 0 0 1-4-27 39 39 0 0 1 42-31 39 39 0 0 1 35 32v10l-1 7a39 39 0 0 1-56 24 2 2 0 0 0-2 0l-16 5-4 2zm10-10l11-4a2 2 0 0 1 2 1 32 32 0 0 0 22 4 32 32 0 0 0 21-11 32 32 0 0 0-5-46 32 32 0 0 0-21-8 33 33 0 0 0-29 17 32 32 0 0 0 2 35 1 1 0 0 1 0 1l-2 8-1 3z" class="cls-7"/>
        <path d="M151 292c2 0 3 1 3 2l3 7a3 3 0 0 1 0 3l-2 2a1 1 0 0 0-1 2 26 26 0 0 0 14 11 1 1 0 0 0 2 0l2-4h3l7 3a1 1 0 0 1 1 2c0 4-2 7-7 8a10 10 0 0 1-6 0l-12-6a43 43 0 0 1-9-9 27 27 0 0 1-4-8c-2-4-1-8 2-11a4 4 0 0 1 4-2zM0 351l7-20a3 3 0 0 0-1-2 38 38 0 0 1-4-27 39 39 0 0 1 43-31 38 38 0 0 1 19 8 38 38 0 0 1 15 24l1 5v4l-1 1a73 73 0 0 1-1 7 39 39 0 0 1-55 24 2 2 0 0 0-2 0l-17 5-4 2zm10-10l12-4a2 2 0 0 1 1 1 32 32 0 0 0 22 4 32 32 0 0 0 21-11 32 32 0 0 0-5-46 32 32 0 0 0-20-8 33 33 0 0 0-29 17 32 32 0 0 0 2 35 1 1 0 0 1 0 1l-3 8z" class="cls-7"/>
        <path d="M29 292l3 2 2 7a3 3 0 0 1 0 3l-2 2a1 1 0 0 0 0 2 26 26 0 0 0 13 11 1 1 0 0 0 2 0l3-4h2l8 3a1 1 0 0 1 0 2c0 4-2 7-7 8a10 10 0 0 1-5 0c-5-2-9-3-13-6a43 43 0 0 1-9-9 27 27 0 0 1-4-8c-1-4-1-8 3-11a4 4 0 0 1 4-2zM2043 461l7-19a3 3 0 0 0 0-3 38 38 0 0 1-5-27 39 39 0 0 1 43-30 39 39 0 0 1 34 32l1 4v6l-2 7a39 39 0 0 1-55 24 2 2 0 0 0-2 0l-17 5-4 1zm10-9l12-4a2 2 0 0 1 1 0 32 32 0 0 0 22 5 32 32 0 0 0 21-12 32 32 0 0 0-5-46 32 32 0 0 0-20-7 33 33 0 0 0-29 17 32 32 0 0 0 2 34 1 1 0 0 1 0 1l-3 8-1 4z" class="cls-7"/>
        <path d="M2072 403l3 2 2 6a3 3 0 0 1 0 3l-2 3a1 1 0 0 0 0 2 26 26 0 0 0 13 11 1 1 0 0 0 2-1l3-3 2-1 8 4a1 1 0 0 1 0 1c0 5-2 7-7 9a10 10 0 0 1-5-1l-13-5a44 44 0 0 1-9-10 27 27 0 0 1-4-7c-1-4-1-8 3-12a4 4 0 0 1 4-1zM1921 461h-1l7-19a3 3 0 0 0 0-3 38 38 0 0 1-4-27 39 39 0 0 1 42-30 39 39 0 0 1 34 32l1 4v6a73 73 0 0 1-1 7 39 39 0 0 1-56 24 2 2 0 0 0-2 0l-16 5-4 1zm9-9l12-4a2 2 0 0 1 2 0 32 32 0 0 0 21 5 32 32 0 0 0 21-12 32 32 0 0 0-4-46 32 32 0 0 0-21-7 33 33 0 0 0-29 17 32 32 0 0 0 2 34 1 1 0 0 1 0 1l-3 9z" class="cls-7"/>
        <path d="M1949 403c2 0 2 1 3 2l2 6a3 3 0 0 1 0 3l-2 3a1 1 0 0 0 0 2 26 26 0 0 0 13 11 1 1 0 0 0 2-1l3-3 2-1 8 4a1 1 0 0 1 1 1c0 5-3 7-7 9a10 10 0 0 1-6-1l-12-5a44 44 0 0 1-9-10 27 27 0 0 1-5-7c-1-4 0-8 3-12a4 4 0 0 1 4-1zM1798 461l6-19a3 3 0 0 0 0-3 38 38 0 0 1-4-27 39 39 0 0 1 42-30 39 39 0 0 1 35 32v10a73 73 0 0 1-1 7 39 39 0 0 1-56 24 2 2 0 0 0-2 0l-16 5-4 1zm10-9l11-4a2 2 0 0 1 2 0 32 32 0 0 0 22 5 32 32 0 0 0 21-12 32 32 0 0 0-5-46 32 32 0 0 0-21-7 33 33 0 0 0-29 17 32 32 0 0 0 2 34 1 1 0 0 1 0 1l-2 8-2 4z" class="cls-7"/>
        <path d="M1826 403c2 0 3 1 3 2l3 6a3 3 0 0 1-1 3l-2 3a1 1 0 0 0 0 2 26 26 0 0 0 14 11 1 1 0 0 0 1-1l3-3 2-1 8 4a1 1 0 0 1 1 1c0 5-2 7-7 9a10 10 0 0 1-6-1l-12-5a44 44 0 0 1-9-10 27 27 0 0 1-4-7c-2-4-1-8 2-12a4 4 0 0 1 4-1zM1675 461l7-19a3 3 0 0 0-1-3 38 38 0 0 1-4-27 39 39 0 0 1 42-30 39 39 0 0 1 35 32l1 4v5l-1 1-1 7a39 39 0 0 1-56 24 2 2 0 0 0-1 0l-17 5-4 1zm10-9l12-4a2 2 0 0 1 1 0 32 32 0 0 0 22 5 32 32 0 0 0 21-12 32 32 0 0 0-5-46 32 32 0 0 0-20-7 33 33 0 0 0-29 17 32 32 0 0 0-4 21 31 31 0 0 0 5 13 1 1 0 0 1 1 1l-3 8z" class="cls-7"/>
        <path d="M1703 403c2 0 3 1 3 2l3 6a3 3 0 0 1 0 3l-2 3a1 1 0 0 0 0 2 26 26 0 0 0 13 11 1 1 0 0 0 2-1l3-3 2-1 8 4a1 1 0 0 1 0 1c0 5-2 7-7 9a10 10 0 0 1-5-1l-13-5a44 44 0 0 1-9-10 27 27 0 0 1-4-7c-1-5-1-8 3-12a4 4 0 0 1 3-1zM1553 461h-1l7-19a3 3 0 0 0 0-3 38 38 0 0 1-4-27 39 39 0 0 1 42-30 39 39 0 0 1 34 32l1 4v6a73 73 0 0 1-2 7 39 39 0 0 1-55 24 2 2 0 0 0-2 0l-16 5-4 1zm9-9l12-4a2 2 0 0 1 1 0 32 32 0 0 0 22 5 32 32 0 0 0 21-12 32 32 0 0 0-4-46 32 32 0 0 0-21-7 33 33 0 0 0-29 17 32 32 0 0 0 2 34 1 1 0 0 1 0 1l-3 9z" class="cls-7"/>
        <path d="M1581 403l3 2 2 6a3 3 0 0 1 0 3l-2 3a1 1 0 0 0 0 2 26 26 0 0 0 13 11 1 1 0 0 0 2-1l3-3 2-1 8 4a1 1 0 0 1 1 1c0 5-3 7-7 9a10 10 0 0 1-6-1l-12-5a44 44 0 0 1-9-10 27 27 0 0 1-5-7c-1-4 0-8 3-12a4 4 0 0 1 4-1zM1430 461h-1l7-19a3 3 0 0 0 0-3 38 38 0 0 1-4-27 39 39 0 0 1 42-30 39 39 0 0 1 35 32v10l-1 7a39 39 0 0 1-56 24 2 2 0 0 0-2 0l-16 5-4 1zm9-9l12-4a2 2 0 0 1 2 0 32 32 0 0 0 21 5 32 32 0 0 0 21-12 32 32 0 0 0-4-46 32 32 0 0 0-21-7 33 33 0 0 0-29 17 32 32 0 0 0 2 34 1 1 0 0 1 0 1l-3 8-1 4z" class="cls-7"/>
        <path d="M1458 403c2 0 3 1 3 2l3 6a3 3 0 0 1-1 3l-2 3a1 1 0 0 0 0 2 26 26 0 0 0 13 11 1 1 0 0 0 2-1l3-3 2-1 8 4a1 1 0 0 1 1 1c0 5-2 7-7 9a10 10 0 0 1-6-1l-12-5a44 44 0 0 1-9-10 27 27 0 0 1-4-7c-2-4-1-8 2-12a4 4 0 0 1 4-1zM1307 461l6-19a3 3 0 0 0 0-3 38 38 0 0 1-4-27 39 39 0 0 1 42-30 39 39 0 0 1 35 32v10a73 73 0 0 1-1 7 39 39 0 0 1-56 24 2 2 0 0 0-2 0l-16 5-4 1zm10-9l11-4a2 2 0 0 1 2 0 32 32 0 0 0 22 5 32 32 0 0 0 21-12 32 32 0 0 0-5-46 32 32 0 0 0-21-7 33 33 0 0 0-29 17 32 32 0 0 0 2 34 1 1 0 0 1 0 1l-2 8z" class="cls-7"/>
        <path d="M1335 403c2 0 3 1 3 2l3 6a3 3 0 0 1 0 3l-2 3a1 1 0 0 0-1 2 26 26 0 0 0 14 11 1 1 0 0 0 2-1l2-3 3-1 7 4a1 1 0 0 1 1 1c0 5-2 7-7 9a10 10 0 0 1-6-1l-12-5a44 44 0 0 1-9-10 27 27 0 0 1-4-7c-2-4-1-8 2-12a4 4 0 0 1 4-1zM1184 461l7-19a3 3 0 0 0 0-3 38 38 0 0 1-5-27 39 39 0 0 1 43-30 39 39 0 0 1 34 32l1 4v6l-2 7a39 39 0 0 1-55 24 2 2 0 0 0-2 0l-17 5-4 1zm10-9l12-4a2 2 0 0 1 1 0 32 32 0 0 0 22 5 32 32 0 0 0 21-12 32 32 0 0 0-5-46 32 32 0 0 0-20-7 33 33 0 0 0-29 17 32 32 0 0 0 2 34 1 1 0 0 1 0 1l-3 9-1 3z" class="cls-7"/>
        <path d="M1213 403l3 2 2 6a3 3 0 0 1 0 3l-2 3a1 1 0 0 0 0 2 26 26 0 0 0 13 11 1 1 0 0 0 2-1l3-3 2-1 8 4a1 1 0 0 1 0 1c0 5-2 7-7 9a10 10 0 0 1-5-1l-13-5a44 44 0 0 1-9-10 27 27 0 0 1-4-7c-1-4-1-8 3-12a4 4 0 0 1 4-1zM1062 461h-1l7-19a3 3 0 0 0 0-3 38 38 0 0 1-4-27 39 39 0 0 1 42-30 39 39 0 0 1 34 32l1 4v6l-1 7a39 39 0 0 1-56 24 2 2 0 0 0-2 0l-16 5-4 1zm9-9l12-4a2 2 0 0 1 1 0 32 32 0 0 0 22 5 32 32 0 0 0 21-12 32 32 0 0 0-4-46 32 32 0 0 0-21-7 33 33 0 0 0-29 17 32 32 0 0 0 2 34 1 1 0 0 1 0 1l-3 8z" class="cls-7"/>
        <path d="M1090 403c2 0 2 1 3 2l2 6a3 3 0 0 1 0 3l-2 3a1 1 0 0 0 0 2 26 26 0 0 0 13 11 1 1 0 0 0 2-1l3-3 2-1 8 4a1 1 0 0 1 1 1c0 5-3 7-7 9a10 10 0 0 1-6-1l-12-5a44 44 0 0 1-9-10 27 27 0 0 1-5-7c-1-4 0-8 3-12a4 4 0 0 1 4-1zM939 461l6-19a3 3 0 0 0 0-3 38 38 0 0 1-4-27 39 39 0 0 1 42-30 39 39 0 0 1 35 32v10a73 73 0 0 1-1 7 39 39 0 0 1-56 24 2 2 0 0 0-2 0l-16 5-4 1zm9-9l12-4a2 2 0 0 1 2 0 32 32 0 0 0 22 5 32 32 0 0 0 21-12 32 32 0 0 0-5-46 32 32 0 0 0-21-7 33 33 0 0 0-29 17 32 32 0 0 0 2 34 1 1 0 0 1 0 1l-2 9z" class="cls-7"/>
        <path d="M967 403c2 0 3 1 3 2l3 6a3 3 0 0 1-1 3l-2 3a1 1 0 0 0 0 2 26 26 0 0 0 14 11 1 1 0 0 0 1-1l3-3 2-1 8 4a1 1 0 0 1 1 1c0 5-2 7-7 9a10 10 0 0 1-6-1l-12-5a44 44 0 0 1-9-10 27 27 0 0 1-4-7c-2-4-1-8 2-12a4 4 0 0 1 4-1zM816 461l7-19a3 3 0 0 0-1-3 38 38 0 0 1-4-27 39 39 0 0 1 42-30 39 39 0 0 1 35 32l1 4v5l-1 1-1 7a39 39 0 0 1-56 24 2 2 0 0 0-1 0l-17 5-4 1zm10-9l12-4a2 2 0 0 1 1 0 32 32 0 0 0 22 5 32 32 0 0 0 21-12 32 32 0 0 0-5-46 32 32 0 0 0-20-7 33 33 0 0 0-29 17 32 32 0 0 0 1 34 1 1 0 0 1 1 1l-3 9z" class="cls-7"/>
        <path d="M844 403c2 0 3 1 3 2l3 6a3 3 0 0 1 0 3l-2 3a1 1 0 0 0 0 2 26 26 0 0 0 13 11 1 1 0 0 0 2-1l2-3 3-1 7 4a1 1 0 0 1 1 1c0 5-2 7-7 9a10 10 0 0 1-5-1l-13-5a44 44 0 0 1-9-10 27 27 0 0 1-4-7c-1-4-1-8 2-12a4 4 0 0 1 4-1zM694 461h-1l7-19a3 3 0 0 0 0-3 38 38 0 0 1-4-27 39 39 0 0 1 42-30 39 39 0 0 1 34 32l1 4v6a73 73 0 0 1-2 7 39 39 0 0 1-55 24 2 2 0 0 0-2 0l-16 5-4 1zm9-9l12-4a2 2 0 0 1 1 0 32 32 0 0 0 22 5 32 32 0 0 0 21-12 32 32 0 0 0-4-46 32 32 0 0 0-21-7 33 33 0 0 0-29 17 32 32 0 0 0 2 34 1 1 0 0 1 0 1l-3 9z" class="cls-7"/>
        <path d="M722 403l3 2 2 6a3 3 0 0 1 0 3l-2 3a1 1 0 0 0 0 2 26 26 0 0 0 13 11 1 1 0 0 0 2-1l3-3 2-1 8 4a1 1 0 0 1 1 1c0 5-3 7-7 9a10 10 0 0 1-6-1l-12-5a44 44 0 0 1-9-10 27 27 0 0 1-5-7c-1-4 0-8 3-12a4 4 0 0 1 4-1zM571 461h-1l7-19a3 3 0 0 0 0-3 38 38 0 0 1-4-27 39 39 0 0 1 42-30 39 39 0 0 1 35 32v10l-1 7a39 39 0 0 1-56 24 2 2 0 0 0-2 0l-16 5-4 1zm9-9l12-4a2 2 0 0 1 2 0 32 32 0 0 0 21 5 32 32 0 0 0 21-12 32 32 0 0 0-4-46 32 32 0 0 0-21-7 33 33 0 0 0-29 17 32 32 0 0 0 2 34 1 1 0 0 1 0 1l-3 9-1 3z" class="cls-7"/>
        <path d="M599 403c2 0 3 1 3 2l3 6a3 3 0 0 1-1 3l-2 3a1 1 0 0 0 0 2 26 26 0 0 0 13 11 1 1 0 0 0 2-1l3-3 2-1 8 4a1 1 0 0 1 1 1c0 5-2 7-7 9a10 10 0 0 1-6-1l-12-5a44 44 0 0 1-9-10 27 27 0 0 1-4-7c-2-4-1-8 2-12a4 4 0 0 1 4-1zM448 461l6-19a3 3 0 0 0 0-3 38 38 0 0 1-4-27 39 39 0 0 1 42-30 39 39 0 0 1 35 32v10a73 73 0 0 1-1 7 39 39 0 0 1-56 24 2 2 0 0 0-2 0l-16 5-4 1zm10-9l11-4a2 2 0 0 1 2 0 32 32 0 0 0 22 5 32 32 0 0 0 21-12 32 32 0 0 0-5-46 32 32 0 0 0-20-7 33 33 0 0 0-29 17 32 32 0 0 0 1 34 1 1 0 0 1 0 1l-2 9z" class="cls-7"/>
        <path d="M476 403c2 0 3 1 3 2l3 6a3 3 0 0 1 0 3l-2 3a1 1 0 0 0-1 2 26 26 0 0 0 14 11 1 1 0 0 0 2-1l2-3 3-1 7 4a1 1 0 0 1 1 1c0 5-2 7-7 9a10 10 0 0 1-6-1l-12-5a44 44 0 0 1-9-10 27 27 0 0 1-4-7c-2-4-1-8 2-12a4 4 0 0 1 4-1zM325 461l7-19a3 3 0 0 0 0-3 38 38 0 0 1-5-27 39 39 0 0 1 43-30 39 39 0 0 1 34 32l1 4v6a73 73 0 0 1-2 7 39 39 0 0 1-55 24 2 2 0 0 0-2 0l-17 5-4 1zm10-9l12-4a2 2 0 0 1 1 0 32 32 0 0 0 22 5 32 32 0 0 0 21-12 32 32 0 0 0-5-46 32 32 0 0 0-20-7 33 33 0 0 0-29 17 32 32 0 0 0 2 34 1 1 0 0 1 0 1l-3 9-1 3z" class="cls-7"/>
        <path d="M354 403l3 2 2 6a3 3 0 0 1 0 3l-2 3a1 1 0 0 0 0 2 26 26 0 0 0 13 11 1 1 0 0 0 2-1l3-3 2-1 8 4a1 1 0 0 1 0 1c0 5-2 7-7 9a10 10 0 0 1-5-1l-13-5a44 44 0 0 1-9-10 27 27 0 0 1-4-7c-1-4-1-8 3-12a4 4 0 0 1 4-1zM203 461h-1l7-19a3 3 0 0 0 0-3 38 38 0 0 1-4-27 39 39 0 0 1 42-30 39 39 0 0 1 34 32l1 4v6l-1 7a39 39 0 0 1-56 24 2 2 0 0 0-2 0l-16 5-4 1zm9-9l12-4a2 2 0 0 1 1 0 32 32 0 0 0 22 5 32 32 0 0 0 21-12 32 32 0 0 0-4-46 32 32 0 0 0-21-7 33 33 0 0 0-29 17 32 32 0 0 0 2 34 1 1 0 0 1 0 1l-3 9z" class="cls-7"/>
        <path d="M231 403c2 0 2 1 3 2l2 6a3 3 0 0 1 0 3l-2 3a1 1 0 0 0 0 2 26 26 0 0 0 13 11 1 1 0 0 0 2-1l3-3 2-1 8 4a1 1 0 0 1 1 1c0 5-3 7-7 9a10 10 0 0 1-6-1l-12-5a44 44 0 0 1-9-10 27 27 0 0 1-5-7c-1-4 0-8 3-12a4 4 0 0 1 4-1zM80 461l6-19a3 3 0 0 0 0-3 38 38 0 0 1-4-27 39 39 0 0 1 42-30 39 39 0 0 1 35 32v10a73 73 0 0 1-1 7 39 39 0 0 1-56 24 2 2 0 0 0-2 0l-16 5-4 1zm9-9l12-4a2 2 0 0 1 2 0 32 32 0 0 0 21 5 32 32 0 0 0 21-12 32 32 0 0 0-4-46 32 32 0 0 0-21-7 33 33 0 0 0-29 17 32 32 0 0 0 2 34 1 1 0 0 1 0 1l-2 9z" class="cls-7"/>
        <path d="M108 403c2 0 3 1 3 2l3 6a3 3 0 0 1-1 3l-2 3a1 1 0 0 0 0 2 26 26 0 0 0 14 11 1 1 0 0 0 1-1l3-3 2-1 8 4a1 1 0 0 1 1 1c0 5-2 7-7 9a10 10 0 0 1-6-1l-12-5a44 44 0 0 1-9-10 27 27 0 0 1-4-7c-2-4-1-8 2-12a4 4 0 0 1 4-1zM1964 572h-1l7-20a3 3 0 0 0 0-2 38 38 0 0 1-4-27 39 39 0 0 1 42-30 39 39 0 0 1 35 31v10a73 73 0 0 1-1 8 39 39 0 0 1-56 24 2 2 0 0 0-2-1l-16 6-4 1zm9-10l12-3a2 2 0 0 1 2 0 32 32 0 0 0 21 4 32 32 0 0 0 21-11 31 31 0 0 0 8-25 32 32 0 0 0-12-21 32 32 0 0 0-21-7 33 33 0 0 0-29 17 32 32 0 0 0 2 34 1 1 0 0 1 0 1l-3 8-1 3z" class="cls-7"/>
        <path d="M1992 514c2-1 2 0 3 2l3 6a3 3 0 0 1-1 3l-2 2a1 1 0 0 0 0 2 26 26 0 0 0 13 12 1 1 0 0 0 2-1l3-3c1-1 1-2 2-1l8 4a1 1 0 0 1 1 1c0 4-2 7-7 8a10 10 0 0 1-6 0c-4-1-9-3-12-6a43 43 0 0 1-9-9 27 27 0 0 1-5-8c-1-4 0-8 3-11a4 4 0 0 1 4-1zM1841 572l6-20a3 3 0 0 0 0-2 38 38 0 0 1-4-27 39 39 0 0 1 42-30 39 39 0 0 1 35 31v10l-1 7a39 39 0 0 1-56 25 2 2 0 0 0-2-1l-16 6-4 1zm10-10l11-3a2 2 0 0 1 2 0 32 32 0 0 0 22 4 32 32 0 0 0 21-11 32 32 0 0 0-5-46 32 32 0 0 0-21-7 33 33 0 0 0-29 16 32 32 0 0 0-3 22 31 31 0 0 0 5 13 1 1 0 0 1 0 1l-2 8z" class="cls-7"/>
        <path d="M1869 514c2-1 3 0 3 2l3 6a3 3 0 0 1 0 3l-2 2a1 1 0 0 0-1 2 26 26 0 0 0 14 12 1 1 0 0 0 1-1l3-3c1-1 1-2 3-1l7 4a1 1 0 0 1 1 1c0 4-2 7-7 8a10 10 0 0 1-6 0l-12-6a43 43 0 0 1-9-9 27 27 0 0 1-4-8c-2-4-1-8 2-11a4 4 0 0 1 4-1zM1718 572l7-20a3 3 0 0 0-1-2 38 38 0 0 1-4-27 39 39 0 0 1 43-30 39 39 0 0 1 34 31l1 5v5h-1a73 73 0 0 1-1 7 39 39 0 0 1-55 25 2 2 0 0 0-2-1l-17 6-4 1zm10-10l12-3a2 2 0 0 1 1 0 32 32 0 0 0 22 4 32 32 0 0 0 21-11 32 32 0 0 0-5-46 32 32 0 0 0-20-7 33 33 0 0 0-29 16 32 32 0 0 0 2 35 1 1 0 0 1 0 1l-3 8z" class="cls-7"/>
        <path d="M1747 514c1-1 2 0 3 2l2 6a3 3 0 0 1 0 3 30 30 0 0 1-2 2 1 1 0 0 0 0 2 26 26 0 0 0 13 12 1 1 0 0 0 2-1l3-3c0-1 1-2 2-1l8 4a1 1 0 0 1 0 1c0 4-2 7-7 8a10 10 0 0 1-5 0c-5-1-9-3-13-6a43 43 0 0 1-9-9 27 27 0 0 1-4-8c-1-4-1-8 3-11a4 4 0 0 1 4-1zM1596 572h-1l7-20a3 3 0 0 0 0-2 38 38 0 0 1-4-27 39 39 0 0 1 42-30 39 39 0 0 1 34 31l1 5v5l-2 7a39 39 0 0 1-55 25 2 2 0 0 0-2-1l-16 6-4 1zm9-10l12-3a2 2 0 0 1 1 0 32 32 0 0 0 22 4 32 32 0 0 0 21-11 32 32 0 0 0-4-46 32 32 0 0 0-21-7 33 33 0 0 0-29 16 32 32 0 0 0 2 35 1 1 0 0 1 0 1l-3 8-1 3z" class="cls-7"/>
        <path d="M1624 514c2-1 2 0 3 2l2 6a3 3 0 0 1 0 3l-2 2a1 1 0 0 0 0 2 26 26 0 0 0 13 12 1 1 0 0 0 2-1l3-3c1-1 1-2 2-1l8 4a1 1 0 0 1 1 1c0 4-3 7-7 8a10 10 0 0 1-6 0c-4-1-9-3-12-6a43 43 0 0 1-9-9 27 27 0 0 1-5-8c-1-4 0-8 3-11a4 4 0 0 1 4-1zM1473 572l6-20a3 3 0 0 0 0-2 38 38 0 0 1-4-27 39 39 0 0 1 42-30 39 39 0 0 1 35 31v10a73 73 0 0 1-1 7 39 39 0 0 1-56 25 2 2 0 0 0-2-1l-16 6-4 1zm9-10l12-3a2 2 0 0 1 2 0 32 32 0 0 0 21 4 32 32 0 0 0 21-11 32 32 0 0 0-4-46 32 32 0 0 0-21-7 33 33 0 0 0-29 16 32 32 0 0 0 2 35 1 1 0 0 1 0 1l-2 8z" class="cls-7"/>
        <path d="M1501 514c2-1 3 0 3 2l3 6a3 3 0 0 1-1 3 30 30 0 0 1-2 2 1 1 0 0 0 0 2 26 26 0 0 0 14 12 1 1 0 0 0 1-1l3-3c1-1 1-2 2-1l8 4a1 1 0 0 1 1 1c0 4-2 7-7 8a10 10 0 0 1-6 0l-12-6a43 43 0 0 1-9-9 27 27 0 0 1-4-8c-2-4-1-8 2-11a4 4 0 0 1 4-1zM1350 572l7-20a3 3 0 0 0-1-2 38 38 0 0 1-4-27 39 39 0 0 1 42-30 39 39 0 0 1 35 31l1 5v5h-1a73 73 0 0 1-1 7 39 39 0 0 1-56 25 2 2 0 0 0-1-1l-17 6-4 1zm10-10l12-3a2 2 0 0 1 1 0 32 32 0 0 0 22 4 32 32 0 0 0 21-11 31 31 0 0 0 7-25 32 32 0 0 0-12-21 32 32 0 0 0-20-7 33 33 0 0 0-29 17 32 32 0 0 0 1 34 1 1 0 0 1 1 1l-3 8-1 3z" class="cls-7"/>
        <path d="M1378 514c2-1 3 0 3 2l3 6a3 3 0 0 1 0 3l-2 2a1 1 0 0 0-1 2 26 26 0 0 0 14 12 1 1 0 0 0 2-1l2-3c1-1 2-2 3-1l7 4a1 1 0 0 1 1 1c0 4-2 7-7 8a10 10 0 0 1-5 0c-5-1-9-3-13-6a43 43 0 0 1-9-9 27 27 0 0 1-4-8c-1-4-1-8 2-11a4 4 0 0 1 4-1zM1227 572l7-20a3 3 0 0 0 0-2 38 38 0 0 1-4-27 39 39 0 0 1 42-30 39 39 0 0 1 34 31l1 5v5l-2 7a39 39 0 0 1-55 25 2 2 0 0 0-2-1l-16 6-5 1zm10-10l12-3a2 2 0 0 1 1 0 32 32 0 0 0 22 4 32 32 0 0 0 21-11 32 32 0 0 0-5-46 32 32 0 0 0-20-7 33 33 0 0 0-29 16 32 32 0 0 0 2 35 1 1 0 0 1 0 1l-3 8z" class="cls-7"/>
        <path d="M1256 514c1-1 2 0 3 2l2 6a3 3 0 0 1 0 3l-2 2a1 1 0 0 0 0 2 26 26 0 0 0 13 12 1 1 0 0 0 2-1l3-3c1-1 1-2 2-1l8 4a1 1 0 0 1 1 1c0 4-3 7-7 8a10 10 0 0 1-6 0c-4-1-9-3-12-6a43 43 0 0 1-9-9 27 27 0 0 1-5-8c-1-4 0-8 3-11a4 4 0 0 1 4-1zM1105 572h-1l7-20a3 3 0 0 0 0-2 38 38 0 0 1-4-27 39 39 0 0 1 42-30 39 39 0 0 1 35 31v10a73 73 0 0 1-1 8 39 39 0 0 1-56 24 2 2 0 0 0-2-1l-16 6-4 1zm9-10l12-3a2 2 0 0 1 2 0 32 32 0 0 0 21 4 32 32 0 0 0 21-11 31 31 0 0 0 8-25 32 32 0 0 0-12-21 32 32 0 0 0-21-7 33 33 0 0 0-29 17 32 32 0 0 0 2 34 1 1 0 0 1 0 1l-3 8z" class="cls-7"/>
        <path d="M1133 514c2-1 2 0 3 2l3 6a3 3 0 0 1-1 3l-2 2a1 1 0 0 0 0 2 26 26 0 0 0 13 12 1 1 0 0 0 2-1l3-3c1-1 1-2 2-1l8 4a1 1 0 0 1 1 1c0 4-2 7-7 8a10 10 0 0 1-6 0c-4-1-9-3-12-6a44 44 0 0 1-9-9 27 27 0 0 1-4-8c-2-4-1-8 2-11a4 4 0 0 1 4-1zM982 572l6-20a3 3 0 0 0 0-2 38 38 0 0 1-4-27 39 39 0 0 1 42-30 39 39 0 0 1 35 31v10l-1 7a39 39 0 0 1-56 25 2 2 0 0 0-2-1l-16 6-4 1zm10-10l11-3a2 2 0 0 1 2 0 32 32 0 0 0 22 4 32 32 0 0 0 21-11 32 32 0 0 0-5-46 32 32 0 0 0-21-7 33 33 0 0 0-29 16 32 32 0 0 0 2 35 1 1 0 0 1 0 1l-2 8-1 3z" class="cls-7"/>
        <path d="M1010 514c2-1 3 0 3 2l3 6a3 3 0 0 1 0 3l-2 2a1 1 0 0 0-1 2 26 26 0 0 0 14 12 1 1 0 0 0 2-1l2-3c1-1 2-2 3-1l7 4a1 1 0 0 1 1 1c0 4-2 7-7 8a10 10 0 0 1-6 0l-12-6a43 43 0 0 1-9-9 27 27 0 0 1-4-8c-2-4-1-8 2-11a4 4 0 0 1 4-1zM859 572l7-20a3 3 0 0 0-1-2 38 38 0 0 1-4-27 39 39 0 0 1 42-30 39 39 0 0 1 35 31l1 5v5h-1a73 73 0 0 1-1 8 39 39 0 0 1-55 24 2 2 0 0 0-2-1l-17 6-4 1zm10-10l12-3a2 2 0 0 1 1 0 32 32 0 0 0 22 4 32 32 0 0 0 21-11 32 32 0 0 0-5-46 32 32 0 0 0-20-7 33 33 0 0 0-29 16 32 32 0 0 0 2 35 1 1 0 0 1 0 1l-3 8z" class="cls-7"/>
        <path d="M888 514c1-1 2 0 3 2l2 6a3 3 0 0 1 0 3 30 30 0 0 1-2 2 1 1 0 0 0 0 2 26 26 0 0 0 13 12 1 1 0 0 0 2-1l3-3c0-1 1-2 2-1l8 4a1 1 0 0 1 0 1c0 4-2 7-7 8a10 10 0 0 1-5 0c-5-1-9-3-13-6a43 43 0 0 1-9-9 27 27 0 0 1-4-8c-1-4-1-8 3-11a4 4 0 0 1 4-1zM737 572h-1l7-20a3 3 0 0 0 0-2 38 38 0 0 1-4-27 39 39 0 0 1 42-30 39 39 0 0 1 34 31l1 5v5l-2 7a39 39 0 0 1-55 25 2 2 0 0 0-2-1l-16 6-4 1zm9-10l12-3a2 2 0 0 1 1 0 32 32 0 0 0 22 4 32 32 0 0 0 21-11 31 31 0 0 0 7-25 32 32 0 0 0-11-21 32 32 0 0 0-21-7 33 33 0 0 0-29 16 32 32 0 0 0 2 35 1 1 0 0 1 0 1l-3 8-1 3z" class="cls-7"/>
        <path d="M765 514c2-1 2 0 3 2l2 6a3 3 0 0 1 0 3l-2 2a1 1 0 0 0 0 2 26 26 0 0 0 13 12 1 1 0 0 0 2-1l3-3c1-1 1-2 2-1l8 4a1 1 0 0 1 1 1c0 4-3 7-7 8a10 10 0 0 1-6 0c-4-1-9-3-12-6a43 43 0 0 1-9-9 27 27 0 0 1-5-8c-1-4 0-8 3-11a4 4 0 0 1 4-1zM614 572l6-20a3 3 0 0 0 0-2 38 38 0 0 1-4-27 39 39 0 0 1 42-30 39 39 0 0 1 35 31v10l-1 7a39 39 0 0 1-56 25 2 2 0 0 0-2-1l-16 6-4 1zm9-10l12-3a2 2 0 0 1 2 0 32 32 0 0 0 21 4 32 32 0 0 0 21-11 32 32 0 0 0-4-46 32 32 0 0 0-21-7 33 33 0 0 0-29 16 32 32 0 0 0 2 35 1 1 0 0 1 0 1l-3 8z" class="cls-7"/>
        <path d="M642 514c2-1 3 0 3 2l3 6a3 3 0 0 1-1 3l-2 2a1 1 0 0 0 0 2 26 26 0 0 0 14 12 1 1 0 0 0 1-1l3-3c1-1 1-2 2-1l8 4a1 1 0 0 1 1 1c0 4-2 7-7 8a10 10 0 0 1-6 0l-12-6a43 43 0 0 1-9-9 27 27 0 0 1-4-8c-2-4-1-8 2-11a4 4 0 0 1 4-1zM491 572l7-20a3 3 0 0 0-1-2 38 38 0 0 1-4-27 39 39 0 0 1 42-30 39 39 0 0 1 35 31v10a73 73 0 0 1-1 7 39 39 0 0 1-56 25 2 2 0 0 0-1-1l-17 6-4 1zm10-10l12-3a2 2 0 0 1 1 0 32 32 0 0 0 22 4 32 32 0 0 0 21-11 31 31 0 0 0 7-25 32 32 0 0 0-12-21 32 32 0 0 0-20-7 33 33 0 0 0-29 17 32 32 0 0 0 1 34 1 1 0 0 1 1 1l-3 8z" class="cls-7"/>
        <path d="M519 514c2-1 3 0 3 2l3 6a3 3 0 0 1 0 3l-2 2a1 1 0 0 0 0 2 26 26 0 0 0 13 12 1 1 0 0 0 2-1l2-3c1-1 2-2 3-1l7 4a1 1 0 0 1 1 1c0 4-2 7-7 8a10 10 0 0 1-5 0c-5-1-9-3-13-6a44 44 0 0 1-9-9 27 27 0 0 1-4-8c-1-4-1-8 2-11a4 4 0 0 1 4-1zM368 572l7-20a3 3 0 0 0 0-2 38 38 0 0 1-4-27 39 39 0 0 1 42-30 39 39 0 0 1 34 31l1 5v5l-2 7a39 39 0 0 1-55 25 2 2 0 0 0-2-1l-16 6-5 1zm10-10l12-3a2 2 0 0 1 1 0 32 32 0 0 0 22 4 32 32 0 0 0 21-11 32 32 0 0 0-4-46 32 32 0 0 0-21-7 33 33 0 0 0-29 16 32 32 0 0 0 2 35 1 1 0 0 1 0 1l-3 8z" class="cls-7"/>
        <path d="M397 514c1-1 2 0 3 2l2 6a3 3 0 0 1 0 3l-2 2a1 1 0 0 0 0 2 26 26 0 0 0 13 12 1 1 0 0 0 2-1l3-3c1-1 1-2 2-1l8 4a1 1 0 0 1 1 1c0 4-3 7-7 8a10 10 0 0 1-6 0c-4-1-9-3-12-6a43 43 0 0 1-9-9 27 27 0 0 1-5-8c-1-4 0-8 3-11a4 4 0 0 1 4-1zM246 572h-1l7-20a3 3 0 0 0 0-2 38 38 0 0 1-4-27 39 39 0 0 1 42-30 39 39 0 0 1 34 31l1 5v5a73 73 0 0 1-1 7 39 39 0 0 1-56 25 2 2 0 0 0-2-1l-16 6-4 1zm9-10l12-3a2 2 0 0 1 2 0 32 32 0 0 0 21 4 32 32 0 0 0 21-11 32 32 0 0 0-4-46 32 32 0 0 0-21-7 33 33 0 0 0-29 16 32 32 0 0 0 2 35 1 1 0 0 1 0 1l-3 8z" class="cls-7"/>
        <path d="M274 514c2-1 2 0 3 2l3 6a3 3 0 0 1-1 3 30 30 0 0 1-2 2 1 1 0 0 0 0 2 26 26 0 0 0 13 12 1 1 0 0 0 2-1l3-3c1-1 1-2 2-1l8 4a1 1 0 0 1 1 1c0 4-2 7-7 8a10 10 0 0 1-6 0c-4-1-9-3-12-6a43 43 0 0 1-9-9 27 27 0 0 1-4-8c-2-4-1-8 2-11a4 4 0 0 1 4-1zM123 572l6-20a3 3 0 0 0 0-2 38 38 0 0 1-4-27 39 39 0 0 1 42-30 39 39 0 0 1 35 31v10l-1 7a39 39 0 0 1-56 25 2 2 0 0 0-2-1l-16 6-4 1zm10-10l11-3a2 2 0 0 1 2 0 32 32 0 0 0 22 4 32 32 0 0 0 21-11 31 31 0 0 0 7-25 32 32 0 0 0-12-21 33 33 0 0 0-37-3 32 32 0 0 0-13 13 32 32 0 0 0 2 34 1 1 0 0 1 0 1l-2 8-1 3z" class="cls-7"/>
        <path d="M151 514c2-1 3 0 3 2l3 6a3 3 0 0 1 0 3l-2 2a1 1 0 0 0-1 2 26 26 0 0 0 14 12 1 1 0 0 0 2-1l2-3c1-1 2-2 3-1l7 4a1 1 0 0 1 1 1c0 4-2 7-7 8a10 10 0 0 1-6 0l-12-6a43 43 0 0 1-9-9 27 27 0 0 1-4-8c-2-4-1-8 2-11a4 4 0 0 1 4-1zM0 572l7-20a3 3 0 0 0-1-2 38 38 0 0 1-4-27 39 39 0 0 1 43-30 39 39 0 0 1 34 31l1 5v5h-1a73 73 0 0 1-1 8 39 39 0 0 1-55 24 2 2 0 0 0-2-1l-17 6-4 1zm10-10l12-3a2 2 0 0 1 1 0 32 32 0 0 0 22 4 32 32 0 0 0 21-11 32 32 0 0 0-5-46 32 32 0 0 0-20-7 33 33 0 0 0-29 16 32 32 0 0 0 2 35 1 1 0 0 1 0 1l-3 8z" class="cls-7"/>
        <path d="M29 514c1-1 2 0 3 2l2 6a3 3 0 0 1 0 3l-2 2a1 1 0 0 0 0 2 26 26 0 0 0 13 12 1 1 0 0 0 2-1l3-3c0-1 1-2 2-1l8 4a1 1 0 0 1 0 1c0 4-2 7-7 8a10 10 0 0 1-5 0c-5-1-9-3-13-6a43 43 0 0 1-9-9 27 27 0 0 1-4-8c-1-4-1-8 3-11a4 4 0 0 1 4-1zM2043 683l7-20a3 3 0 0 0 0-2 38 38 0 0 1-5-27 39 39 0 0 1 43-31 39 39 0 0 1 34 32l1 4v6l-2 7a39 39 0 0 1-55 24 2 2 0 0 0-2 0l-17 5-4 2zm10-10l12-4a2 2 0 0 1 1 0 32 32 0 0 0 22 5 32 32 0 0 0 21-12 32 32 0 0 0-5-45 32 32 0 0 0-20-8 33 33 0 0 0-29 17 32 32 0 0 0 2 34 1 1 0 0 1 0 2l-3 8-1 3z" class="cls-7"/>
        <path d="M2072 624l3 2 2 6a3 3 0 0 1 0 3l-2 3a1 1 0 0 0 0 2 26 26 0 0 0 13 11 1 1 0 0 0 2 0l3-4h2l8 3a1 1 0 0 1 0 2c0 4-2 6-7 8a10 10 0 0 1-5-1c-5-1-9-2-13-5a44 44 0 0 1-9-9 27 27 0 0 1-4-8c-1-4-1-8 3-12a4 4 0 0 1 4-1zM1921 683h-1l7-20a3 3 0 0 0 0-2 38 38 0 0 1-4-27 39 39 0 0 1 42-31 39 39 0 0 1 34 32l1 4v6a73 73 0 0 1-1 7 39 39 0 0 1-56 24 2 2 0 0 0-2 0l-16 5-4 2zm9-10l12-4a2 2 0 0 1 2 0 32 32 0 0 0 21 5 32 32 0 0 0 21-12 32 32 0 0 0-4-45 32 32 0 0 0-21-8 33 33 0 0 0-29 17 32 32 0 0 0 2 34 1 1 0 0 1 0 2l-3 8z" class="cls-7"/>
        <path d="M1949 624c2 0 2 1 3 2l2 6a3 3 0 0 1 0 3l-2 3a1 1 0 0 0 0 2 26 26 0 0 0 13 11 1 1 0 0 0 2 0l3-4h2l8 3a1 1 0 0 1 1 2c0 4-3 6-7 8a10 10 0 0 1-6-1c-4-1-9-2-12-5a44 44 0 0 1-9-9 27 27 0 0 1-5-8c-1-4 0-8 3-12a4 4 0 0 1 4-1zM1798 683l6-20a3 3 0 0 0 0-2 38 38 0 0 1-4-27 39 39 0 0 1 42-31 39 39 0 0 1 35 32v10a73 73 0 0 1-1 7 39 39 0 0 1-56 24 2 2 0 0 0-2 0l-16 5-4 2zm10-10l11-4a2 2 0 0 1 2 0 32 32 0 0 0 22 5 32 32 0 0 0 21-12 32 32 0 0 0-5-45 32 32 0 0 0-21-8 33 33 0 0 0-29 17 32 32 0 0 0 2 34 1 1 0 0 1 0 2l-2 8-2 3z" class="cls-7"/>
        <path d="M1826 624c2 0 3 1 3 2l3 6a3 3 0 0 1-1 3l-2 3a1 1 0 0 0 0 2 26 26 0 0 0 14 11 1 1 0 0 0 1 0l3-4h2l8 3a1 1 0 0 1 1 2c0 4-2 6-7 8a10 10 0 0 1-6-1c-4-1-8-2-12-5a44 44 0 0 1-9-9 27 27 0 0 1-4-8c-2-4-1-8 2-12a4 4 0 0 1 4-1zM1675 683l7-20a3 3 0 0 0-1-2 38 38 0 0 1-4-27 39 39 0 0 1 42-31 39 39 0 0 1 35 32l1 4v5l-1 1-1 7a39 39 0 0 1-56 24 2 2 0 0 0-1 0l-17 5-4 2zm10-10l12-4a2 2 0 0 1 1 0 32 32 0 0 0 22 5 32 32 0 0 0 21-12 32 32 0 0 0-5-45 32 32 0 0 0-20-8 33 33 0 0 0-29 17 32 32 0 0 0-4 21 31 31 0 0 0 5 13 1 1 0 0 1 1 2l-3 8z" class="cls-7"/>
        <path d="M1703 624c2 0 3 1 3 2l3 6a3 3 0 0 1 0 3l-2 3a1 1 0 0 0 0 2 26 26 0 0 0 13 11 1 1 0 0 0 2 0l3-4h2l8 3a1 1 0 0 1 0 2c0 4-2 6-7 8a10 10 0 0 1-5-1c-5-1-9-2-13-5a44 44 0 0 1-9-9 27 27 0 0 1-4-8c-1-4-1-8 3-12a4 4 0 0 1 3-1zM1553 683h-1l7-20a3 3 0 0 0 0-2 38 38 0 0 1-4-27 39 39 0 0 1 42-31 39 39 0 0 1 34 32l1 4v6a73 73 0 0 1-2 7 39 39 0 0 1-55 24 2 2 0 0 0-2 0l-16 5-4 2zm9-10l12-4a2 2 0 0 1 1 0 32 32 0 0 0 22 5 32 32 0 0 0 21-12 32 32 0 0 0-4-45 32 32 0 0 0-21-8 33 33 0 0 0-29 17 32 32 0 0 0 2 34 1 1 0 0 1 0 2l-3 8z" class="cls-7"/>
        <path d="M1581 624l3 2 2 6a3 3 0 0 1 0 3l-2 3a1 1 0 0 0 0 2 26 26 0 0 0 13 11 1 1 0 0 0 2 0l3-4h2l8 3a1 1 0 0 1 1 2c0 4-3 6-7 8a10 10 0 0 1-6-1c-4-1-9-2-12-5a44 44 0 0 1-9-9 27 27 0 0 1-5-8c-1-4 0-8 3-12a4 4 0 0 1 4-1zM1430 683h-1l7-20a3 3 0 0 0 0-2 38 38 0 0 1-4-27 39 39 0 0 1 42-31 39 39 0 0 1 35 32v10l-1 7a39 39 0 0 1-56 24 2 2 0 0 0-2 0l-16 5-4 2zm9-10l12-4a2 2 0 0 1 2 0 32 32 0 0 0 21 5 32 32 0 0 0 21-12 32 32 0 0 0-4-45 32 32 0 0 0-21-8 33 33 0 0 0-29 17 32 32 0 0 0 2 34 1 1 0 0 1 0 2l-3 8-1 3z" class="cls-7"/>
        <path d="M1458 624c2 0 3 1 3 2l3 6a3 3 0 0 1-1 3l-2 3a1 1 0 0 0 0 2 26 26 0 0 0 13 11 1 1 0 0 0 2 0l3-4h2l8 3a1 1 0 0 1 1 2c0 4-2 6-7 8a10 10 0 0 1-6-1c-4-1-8-2-12-5a44 44 0 0 1-9-9 27 27 0 0 1-4-8c-2-4-1-8 2-12a4 4 0 0 1 4-1zM1307 683l6-20a3 3 0 0 0 0-2 38 38 0 0 1-4-27 39 39 0 0 1 42-31 39 39 0 0 1 35 32v10a73 73 0 0 1-1 7 39 39 0 0 1-56 24 2 2 0 0 0-2 0l-16 5-4 2zm10-10l11-4a2 2 0 0 1 2 0 32 32 0 0 0 22 5 32 32 0 0 0 21-12 32 32 0 0 0-5-45 32 32 0 0 0-21-8 33 33 0 0 0-29 17 32 32 0 0 0 2 34 1 1 0 0 1 0 2l-2 8z" class="cls-7"/>
        <path d="M1335 624c2 0 3 1 3 2l3 6a3 3 0 0 1 0 3l-2 3a1 1 0 0 0-1 2 26 26 0 0 0 14 11 1 1 0 0 0 2 0l2-4h3l7 3a1 1 0 0 1 1 2c0 4-2 6-7 8a10 10 0 0 1-6-1c-4-1-8-2-12-5a44 44 0 0 1-9-9 27 27 0 0 1-4-8c-2-4-1-8 2-12a4 4 0 0 1 4-1zM1184 683l7-20a3 3 0 0 0 0-2 38 38 0 0 1-5-27 39 39 0 0 1 43-31 39 39 0 0 1 34 32l1 4v6l-2 7a39 39 0 0 1-55 24 2 2 0 0 0-2 0l-17 5-4 2zm10-10l12-4a2 2 0 0 1 1 0 32 32 0 0 0 22 5 32 32 0 0 0 21-12 32 32 0 0 0-5-45 32 32 0 0 0-20-8 33 33 0 0 0-29 17 32 32 0 0 0 2 34 1 1 0 0 1 0 2l-3 8-1 3z" class="cls-7"/>
        <path d="M1213 624l3 2 2 6a3 3 0 0 1 0 3l-2 3a1 1 0 0 0 0 2 26 26 0 0 0 13 11 1 1 0 0 0 2 0l3-4h2l8 3a1 1 0 0 1 0 2c0 4-2 6-7 8a10 10 0 0 1-5-1c-5-1-9-2-13-5a44 44 0 0 1-9-9 27 27 0 0 1-4-8c-1-4-1-8 3-12a4 4 0 0 1 4-1zM1062 683h-1l7-20a3 3 0 0 0 0-2 38 38 0 0 1-4-27 39 39 0 0 1 42-31 39 39 0 0 1 34 32l1 4v6l-1 7a39 39 0 0 1-56 24 2 2 0 0 0-2 0l-16 5-4 2zm9-10l12-4a2 2 0 0 1 1 0 32 32 0 0 0 22 5 32 32 0 0 0 21-12 32 32 0 0 0-4-45 32 32 0 0 0-21-8 33 33 0 0 0-29 17 32 32 0 0 0 2 34 1 1 0 0 1 0 2l-3 8z" class="cls-7"/>
        <path d="M1090 624c2 0 2 1 3 2l2 6a3 3 0 0 1 0 3l-2 3a1 1 0 0 0 0 2 26 26 0 0 0 13 11 1 1 0 0 0 2 0l3-4h2l8 3a1 1 0 0 1 1 2c0 4-3 6-7 8a10 10 0 0 1-6-1c-4-1-9-2-12-5a44 44 0 0 1-9-9 27 27 0 0 1-5-8c-1-4 0-8 3-12a4 4 0 0 1 4-1zM939 683l6-20a3 3 0 0 0 0-2 38 38 0 0 1-4-27 39 39 0 0 1 42-31 39 39 0 0 1 35 32v10a73 73 0 0 1-1 7 39 39 0 0 1-56 24 2 2 0 0 0-2 0l-16 5-4 2zm9-10l12-4a2 2 0 0 1 2 0 32 32 0 0 0 22 5 32 32 0 0 0 21-12 32 32 0 0 0-5-45 32 32 0 0 0-21-8 33 33 0 0 0-29 17 32 32 0 0 0 2 34 1 1 0 0 1 0 2l-2 8z" class="cls-7"/>
        <path d="M967 624c2 0 3 1 3 2l3 6a3 3 0 0 1-1 3l-2 3a1 1 0 0 0 0 2 26 26 0 0 0 14 11 1 1 0 0 0 1 0l3-4h2l8 3a1 1 0 0 1 1 2c0 4-2 6-7 8a10 10 0 0 1-6-1c-4-1-8-2-12-5a44 44 0 0 1-9-9 27 27 0 0 1-4-8c-2-4-1-8 2-12a4 4 0 0 1 4-1zM816 683l7-20a3 3 0 0 0-1-2 38 38 0 0 1-4-27 39 39 0 0 1 42-31 39 39 0 0 1 35 32l1 4v5l-1 1-1 7a39 39 0 0 1-56 24 2 2 0 0 0-1 0l-17 5-4 2zm10-10l12-4a2 2 0 0 1 1 0 32 32 0 0 0 22 5 32 32 0 0 0 21-12 32 32 0 0 0-5-45 32 32 0 0 0-20-8 33 33 0 0 0-29 17 32 32 0 0 0 1 34 1 1 0 0 1 1 2l-3 8z" class="cls-7"/>
        <path d="M844 624c2 0 3 1 3 2l3 6a3 3 0 0 1 0 3l-2 3a1 1 0 0 0 0 2 26 26 0 0 0 13 11 1 1 0 0 0 2 0l2-4h3l7 3a1 1 0 0 1 1 2c0 4-2 6-7 8a10 10 0 0 1-5-1c-5-1-9-2-13-5a44 44 0 0 1-9-9 27 27 0 0 1-4-8c-1-4-1-8 2-12a4 4 0 0 1 4-1zM694 683h-1l7-20a3 3 0 0 0 0-2 38 38 0 0 1-4-27 39 39 0 0 1 42-31 39 39 0 0 1 34 32l1 4v6a73 73 0 0 1-2 7 39 39 0 0 1-55 24 2 2 0 0 0-2 0l-16 5-4 2zm9-10l12-4a2 2 0 0 1 1 0 32 32 0 0 0 22 5 32 32 0 0 0 21-12 32 32 0 0 0-4-45 32 32 0 0 0-21-8 33 33 0 0 0-29 17 32 32 0 0 0 2 34 1 1 0 0 1 0 2l-3 8z" class="cls-7"/>
        <path d="M722 624l3 2 2 6a3 3 0 0 1 0 3l-2 3a1 1 0 0 0 0 2 26 26 0 0 0 13 11 1 1 0 0 0 2 0l3-4h2l8 3a1 1 0 0 1 1 2c0 4-3 6-7 8a10 10 0 0 1-6-1c-4-1-9-2-12-5a44 44 0 0 1-9-9 27 27 0 0 1-5-8c-1-4 0-8 3-12a4 4 0 0 1 4-1zM571 683h-1l7-20a3 3 0 0 0 0-2 38 38 0 0 1-4-27 39 39 0 0 1 42-31 39 39 0 0 1 35 32v10l-1 7a39 39 0 0 1-56 24 2 2 0 0 0-2 0l-16 5-4 2zm9-10l12-4a2 2 0 0 1 2 0 32 32 0 0 0 21 5 32 32 0 0 0 21-12 32 32 0 0 0-4-45 32 32 0 0 0-21-8 33 33 0 0 0-29 17 32 32 0 0 0 2 34 1 1 0 0 1 0 2l-3 8-1 3z" class="cls-7"/>
        <path d="M599 624c2 0 3 1 3 2l3 6a3 3 0 0 1-1 3l-2 3a1 1 0 0 0 0 2 26 26 0 0 0 13 11 1 1 0 0 0 2 0l3-4h2l8 3a1 1 0 0 1 1 2c0 4-2 6-7 8a10 10 0 0 1-6-1c-4-1-8-2-12-5a44 44 0 0 1-9-9 27 27 0 0 1-4-8c-2-4-1-8 2-12a4 4 0 0 1 4-1zM448 683l6-20a3 3 0 0 0 0-2 38 38 0 0 1-4-27 39 39 0 0 1 42-31 39 39 0 0 1 35 32v10a73 73 0 0 1-1 7 39 39 0 0 1-56 24 2 2 0 0 0-2 0l-16 5-4 2zm10-10l11-4a2 2 0 0 1 2 0 32 32 0 0 0 22 5 32 32 0 0 0 21-12 32 32 0 0 0-5-45 32 32 0 0 0-21-8 33 33 0 0 0-29 17 32 32 0 0 0 2 34 1 1 0 0 1 0 2l-2 8z" class="cls-7"/>
        <path d="M476 624c2 0 3 1 3 2l3 6a3 3 0 0 1 0 3l-2 3a1 1 0 0 0-1 2 26 26 0 0 0 14 11 1 1 0 0 0 2 0l2-4h3l7 3a1 1 0 0 1 1 2c0 4-2 6-7 8a10 10 0 0 1-6-1c-4-1-8-2-12-5a44 44 0 0 1-9-9 27 27 0 0 1-4-8c-2-4-1-8 2-12a4 4 0 0 1 4-1zM325 683l7-20a3 3 0 0 0 0-2 38 38 0 0 1-5-27 39 39 0 0 1 43-31 39 39 0 0 1 34 32l1 4v6a73 73 0 0 1-2 7 39 39 0 0 1-55 24 2 2 0 0 0-2 0l-17 5-4 2zm10-10l12-4a2 2 0 0 1 1 0 32 32 0 0 0 22 5 32 32 0 0 0 21-12 32 32 0 0 0-5-45 32 32 0 0 0-20-8 33 33 0 0 0-29 17 32 32 0 0 0 2 34 1 1 0 0 1 0 2l-3 8-1 3z" class="cls-7"/>
        <path d="M354 624l3 2 2 6a3 3 0 0 1 0 3l-2 3a1 1 0 0 0 0 2 26 26 0 0 0 13 11 1 1 0 0 0 2 0l3-4h2l8 3a1 1 0 0 1 0 2c0 4-2 6-7 8a10 10 0 0 1-5-1c-5-1-9-2-13-5a44 44 0 0 1-9-9 27 27 0 0 1-4-8c-1-4-1-8 3-12a4 4 0 0 1 4-1zM203 683h-1l7-20a3 3 0 0 0 0-2 38 38 0 0 1-4-27 39 39 0 0 1 42-31 39 39 0 0 1 34 32l1 4v6l-1 7a39 39 0 0 1-56 24 2 2 0 0 0-2 0l-16 5-4 2zm9-10l12-4a2 2 0 0 1 1 0 32 32 0 0 0 22 5 32 32 0 0 0 21-12 32 32 0 0 0-4-45 32 32 0 0 0-21-8 33 33 0 0 0-29 17 32 32 0 0 0 2 34 1 1 0 0 1 0 2l-3 8z" class="cls-7"/>
        <path d="M231 624c2 0 2 1 3 2l2 6a3 3 0 0 1 0 3l-2 3a1 1 0 0 0 0 2 26 26 0 0 0 13 11 1 1 0 0 0 2 0l3-4h2l8 3a1 1 0 0 1 1 2c0 4-3 6-7 8a10 10 0 0 1-6-1c-4-1-9-2-12-5a44 44 0 0 1-9-9 27 27 0 0 1-5-8c-1-4 0-8 3-12a4 4 0 0 1 4-1zM80 683l6-20a3 3 0 0 0 0-2 38 38 0 0 1-4-27 39 39 0 0 1 42-31 39 39 0 0 1 35 32v10a73 73 0 0 1-1 7 39 39 0 0 1-56 24 2 2 0 0 0-2 0l-16 5-4 2zm9-10l12-4a2 2 0 0 1 2 0 32 32 0 0 0 21 5 32 32 0 0 0 21-12 32 32 0 0 0-4-45 32 32 0 0 0-21-8 33 33 0 0 0-29 17 32 32 0 0 0 2 34 1 1 0 0 1 0 2l-2 8z" class="cls-7"/>
        <path d="M108 624c2 0 3 1 3 2l3 6a3 3 0 0 1-1 3l-2 3a1 1 0 0 0 0 2 26 26 0 0 0 14 11 1 1 0 0 0 1 0l3-4h2l8 3a1 1 0 0 1 1 2c0 4-2 6-7 8a10 10 0 0 1-6-1c-4-1-8-2-12-5a44 44 0 0 1-9-9 27 27 0 0 1-4-8c-2-4-1-8 2-12a4 4 0 0 1 4-1zM1964 793h-1l7-19a3 3 0 0 0 0-3 38 38 0 0 1-4-27 39 39 0 0 1 42-30 39 39 0 0 1 35 32v10a73 73 0 0 1-1 7 39 39 0 0 1-56 24 2 2 0 0 0-2 0l-16 5-4 1zm9-9l12-4a2 2 0 0 1 2 0 32 32 0 0 0 21 5 32 32 0 0 0 21-12 31 31 0 0 0 8-25 32 32 0 0 0-12-21 32 32 0 0 0-21-7 33 33 0 0 0-29 17 32 32 0 0 0 2 34 1 1 0 0 1 0 1l-3 8-1 4z" class="cls-7"/>
        <path d="M1992 735c2-1 2 0 3 2l3 6a3 3 0 0 1-1 3l-2 2a1 1 0 0 0 0 2 26 26 0 0 0 13 12 1 1 0 0 0 2-1l3-3 2-1 8 4a1 1 0 0 1 1 1c0 5-2 7-7 8a10 10 0 0 1-6 0c-4-1-9-3-12-6a44 44 0 0 1-9-9 27 27 0 0 1-5-7c-1-5 0-9 3-12a4 4 0 0 1 4-1zM1841 793l6-19a3 3 0 0 0 0-3 38 38 0 0 1-4-27 39 39 0 0 1 42-30 39 39 0 0 1 35 32v10l-1 7a39 39 0 0 1-56 24 2 2 0 0 0-2 0l-16 5-4 1zm10-9l11-4a2 2 0 0 1 2 0 32 32 0 0 0 22 5 32 32 0 0 0 21-12 32 32 0 0 0-5-46 32 32 0 0 0-21-7 33 33 0 0 0-29 17 32 32 0 0 0-3 21 31 31 0 0 0 5 13 1 1 0 0 1 0 1l-2 8z" class="cls-7"/>
        <path d="M1869 735c2-1 3 0 3 2l3 6a3 3 0 0 1 0 3l-2 2a1 1 0 0 0-1 2 26 26 0 0 0 14 12 1 1 0 0 0 1-1l3-3 3-1 7 4a1 1 0 0 1 1 1c0 5-2 7-7 8a10 10 0 0 1-6 0l-12-6a44 44 0 0 1-9-9 27 27 0 0 1-4-7c-2-5-1-9 2-12a4 4 0 0 1 4-1zM1718 793l7-19a3 3 0 0 0-1-3 38 38 0 0 1-4-27 39 39 0 0 1 43-30 39 39 0 0 1 34 32l1 4v5l-1 1a73 73 0 0 1-1 7 39 39 0 0 1-55 24 2 2 0 0 0-2 0l-17 5-4 1zm10-9l12-4a2 2 0 0 1 1 0 32 32 0 0 0 22 5 32 32 0 0 0 21-12 32 32 0 0 0-5-46 32 32 0 0 0-20-7 33 33 0 0 0-29 17 32 32 0 0 0 2 34 1 1 0 0 1 0 1l-3 8z" class="cls-7"/>
        <path d="M1747 735c1-1 2 0 3 2l2 6a3 3 0 0 1 0 3 30 30 0 0 1-2 2 1 1 0 0 0 0 2 26 26 0 0 0 13 12 1 1 0 0 0 2-1l3-3 2-1 8 4a1 1 0 0 1 0 1c0 5-2 7-7 8a10 10 0 0 1-5 0c-5-1-9-3-13-6a44 44 0 0 1-9-9 27 27 0 0 1-4-7c-1-5-1-9 3-12a4 4 0 0 1 4-1zM1596 793h-1l7-19a3 3 0 0 0 0-3 38 38 0 0 1-4-27 39 39 0 0 1 42-30 39 39 0 0 1 34 32l1 4v6l-2 7a39 39 0 0 1-55 24 2 2 0 0 0-2 0l-16 5-4 1zm9-9l12-4a2 2 0 0 1 1 0 32 32 0 0 0 22 5 32 32 0 0 0 21-12 32 32 0 0 0-4-46 32 32 0 0 0-21-7 33 33 0 0 0-29 17 32 32 0 0 0 2 34 1 1 0 0 1 0 1l-3 8-1 4z" class="cls-7"/>
        <path d="M1624 735c2-1 2 0 3 2l2 6a3 3 0 0 1 0 3l-2 2a1 1 0 0 0 0 2 26 26 0 0 0 13 12 1 1 0 0 0 2-1l3-3 2-1 8 4a1 1 0 0 1 1 1c0 5-3 7-7 8a10 10 0 0 1-6 0c-4-1-9-3-12-6a44 44 0 0 1-9-9 27 27 0 0 1-5-7c-1-5 0-9 3-12a4 4 0 0 1 4-1zM1473 793l6-19a3 3 0 0 0 0-3 38 38 0 0 1-4-27 39 39 0 0 1 42-30 39 39 0 0 1 35 32v10a73 73 0 0 1-1 7 39 39 0 0 1-56 24 2 2 0 0 0-2 0l-16 5-4 1zm9-9l12-4a2 2 0 0 1 2 0 32 32 0 0 0 21 5 32 32 0 0 0 21-12 32 32 0 0 0-4-46 32 32 0 0 0-21-7 33 33 0 0 0-29 17 32 32 0 0 0 2 34 1 1 0 0 1 0 1l-3 8z" class="cls-7"/>
        <path d="M1501 735c2-1 3 0 3 2l3 6a3 3 0 0 1-1 3 30 30 0 0 1-2 2 1 1 0 0 0 0 2 26 26 0 0 0 14 12 1 1 0 0 0 1-1l3-3 2-1 8 4a1 1 0 0 1 1 1c0 5-2 7-7 8a10 10 0 0 1-6 0l-12-6a44 44 0 0 1-9-9 27 27 0 0 1-4-7c-2-5-1-9 2-12a4 4 0 0 1 4-1zM1350 793l7-19a3 3 0 0 0-1-3 38 38 0 0 1-4-27 39 39 0 0 1 42-30 39 39 0 0 1 35 32l1 4v5l-1 1a73 73 0 0 1-1 7 39 39 0 0 1-56 24 2 2 0 0 0-1 0l-17 5-4 1zm10-9l12-4a2 2 0 0 1 1 0 32 32 0 0 0 22 5 32 32 0 0 0 21-12 31 31 0 0 0 7-25 32 32 0 0 0-12-21 32 32 0 0 0-20-7 33 33 0 0 0-29 17 32 32 0 0 0 1 34 1 1 0 0 1 1 1l-3 8-1 4z" class="cls-7"/>
        <path d="M1378 735c2-1 3 0 3 2l3 6a3 3 0 0 1 0 3l-2 2a1 1 0 0 0-1 2 26 26 0 0 0 14 12 1 1 0 0 0 2-1l2-3 3-1 7 4a1 1 0 0 1 1 1c0 5-2 7-7 8a10 10 0 0 1-5 0c-5-1-9-3-13-6a44 44 0 0 1-9-9 27 27 0 0 1-4-7c-1-5-1-9 2-12a4 4 0 0 1 4-1zM1227 793l7-19a3 3 0 0 0 0-3 38 38 0 0 1-4-27 39 39 0 0 1 42-30 39 39 0 0 1 34 32l1 4v6l-2 7a39 39 0 0 1-55 24 2 2 0 0 0-2 0l-16 5-5 1zm10-9l12-4a2 2 0 0 1 1 0 32 32 0 0 0 22 5 32 32 0 0 0 21-12 32 32 0 0 0-5-46 32 32 0 0 0-20-7 33 33 0 0 0-29 17 32 32 0 0 0 2 34 1 1 0 0 1 0 1l-3 8z" class="cls-7"/>
        <path d="M1256 735c1-1 2 0 3 2l2 6a3 3 0 0 1 0 3l-2 2a1 1 0 0 0 0 2 26 26 0 0 0 13 12 1 1 0 0 0 2-1l3-3 2-1 8 4a1 1 0 0 1 0 1c0 5-2 7-7 8a10 10 0 0 1-5 0c-5-1-9-3-13-6a44 44 0 0 1-9-9 27 27 0 0 1-4-7c-1-5-1-9 3-12a4 4 0 0 1 4-1zM1105 793h-1l7-19a3 3 0 0 0 0-3 38 38 0 0 1-4-27 39 39 0 0 1 42-30 39 39 0 0 1 35 32v10a73 73 0 0 1-1 7 39 39 0 0 1-56 24 2 2 0 0 0-2 0l-16 5-4 1zm9-9l12-4a2 2 0 0 1 2 0 32 32 0 0 0 21 5 32 32 0 0 0 21-12 31 31 0 0 0 8-25 32 32 0 0 0-12-21 32 32 0 0 0-21-7 33 33 0 0 0-29 17 32 32 0 0 0 2 34 1 1 0 0 1 0 1l-3 8z" class="cls-7"/>
        <path d="M1133 735c2-1 2 0 3 2l3 6a3 3 0 0 1-1 3l-2 2a1 1 0 0 0 0 2 26 26 0 0 0 13 12 1 1 0 0 0 2-1l3-3 2-1 8 4a1 1 0 0 1 1 1c0 5-2 7-7 8a10 10 0 0 1-6 0c-4-1-9-3-12-6a44 44 0 0 1-9-9 27 27 0 0 1-4-7c-2-5-1-9 2-12a4 4 0 0 1 4-1zM982 793l6-19a3 3 0 0 0 0-3 38 38 0 0 1-4-27 39 39 0 0 1 42-30 39 39 0 0 1 35 32v10l-1 7a39 39 0 0 1-56 24 2 2 0 0 0-2 0l-16 5-4 1zm10-9l11-4a2 2 0 0 1 2 0 32 32 0 0 0 22 5 32 32 0 0 0 21-12 32 32 0 0 0-5-46 32 32 0 0 0-21-7 33 33 0 0 0-29 17 32 32 0 0 0 2 34 1 1 0 0 1 0 1l-2 8-1 4z" class="cls-7"/>
        <path d="M1010 735c2-1 3 0 3 2l3 6a3 3 0 0 1 0 3l-2 2a1 1 0 0 0-1 2 26 26 0 0 0 14 12 1 1 0 0 0 2-1l2-3 3-1 7 4a1 1 0 0 1 1 1c0 5-2 7-7 8a10 10 0 0 1-6 0l-12-6a44 44 0 0 1-9-9 27 27 0 0 1-4-7c-2-5-1-9 2-12a4 4 0 0 1 4-1zM859 793l7-19a3 3 0 0 0-1-3 38 38 0 0 1-4-27 39 39 0 0 1 42-30 39 39 0 0 1 35 32l1 4v5l-1 1a73 73 0 0 1-1 7 39 39 0 0 1-55 24 2 2 0 0 0-2 0l-17 5-4 1zm10-9l12-4a2 2 0 0 1 1 0 32 32 0 0 0 22 5 32 32 0 0 0 21-12 32 32 0 0 0-5-46 32 32 0 0 0-20-7 33 33 0 0 0-29 17 32 32 0 0 0 2 34 1 1 0 0 1 0 1l-3 8z" class="cls-7"/>
        <path d="M888 735c1-1 2 0 3 2l2 6a3 3 0 0 1 0 3 30 30 0 0 1-2 2 1 1 0 0 0 0 2 26 26 0 0 0 13 12 1 1 0 0 0 2-1l3-3 2-1 8 4a1 1 0 0 1 0 1c0 5-2 7-7 8a10 10 0 0 1-5 0c-5-1-9-3-13-6a44 44 0 0 1-9-9 27 27 0 0 1-4-7c-1-5-1-9 3-12a4 4 0 0 1 4-1zM737 793h-1l7-19a3 3 0 0 0 0-3 38 38 0 0 1-4-27 39 39 0 0 1 42-30 39 39 0 0 1 34 32l1 4v6l-2 7a39 39 0 0 1-55 24 2 2 0 0 0-2 0l-16 5-4 1zm9-9l12-4a2 2 0 0 1 1 0 32 32 0 0 0 22 5 32 32 0 0 0 21-12 31 31 0 0 0 7-25 32 32 0 0 0-11-21 32 32 0 0 0-21-7 33 33 0 0 0-29 17 32 32 0 0 0 2 34 1 1 0 0 1 0 1l-3 8-1 4z" class="cls-7"/>
        <path d="M765 735c2-1 2 0 3 2l2 6a3 3 0 0 1 0 3l-2 2a1 1 0 0 0 0 2 26 26 0 0 0 13 12 1 1 0 0 0 2-1l3-3 2-1 8 4a1 1 0 0 1 1 1c0 5-3 7-7 8a10 10 0 0 1-6 0c-4-1-9-3-12-6a44 44 0 0 1-9-9 27 27 0 0 1-5-7c-1-5 0-9 3-12a4 4 0 0 1 4-1zM614 793l6-19a3 3 0 0 0 0-3 38 38 0 0 1-4-27 39 39 0 0 1 42-30 39 39 0 0 1 35 32v10l-1 7a39 39 0 0 1-56 24 2 2 0 0 0-2 0l-16 5-4 1zm9-9l12-4a2 2 0 0 1 2 0 32 32 0 0 0 21 5 32 32 0 0 0 21-12 32 32 0 0 0-4-46 32 32 0 0 0-21-7 33 33 0 0 0-29 17 32 32 0 0 0 2 34 1 1 0 0 1 0 1l-2 8z" class="cls-7"/>
        <path d="M642 735c2-1 3 0 3 2l3 6a3 3 0 0 1-1 3l-2 2a1 1 0 0 0 0 2 26 26 0 0 0 14 12 1 1 0 0 0 1-1l3-3 2-1 8 4a1 1 0 0 1 1 1c0 5-2 7-7 8a10 10 0 0 1-6 0l-12-6a44 44 0 0 1-9-9 27 27 0 0 1-4-7c-2-5-1-9 2-12a4 4 0 0 1 4-1zM491 793l7-19a3 3 0 0 0-1-3 38 38 0 0 1-4-27 39 39 0 0 1 42-30 39 39 0 0 1 35 32v10a73 73 0 0 1-1 7 39 39 0 0 1-56 24 2 2 0 0 0-1 0l-17 5-4 1zm10-9l12-4a2 2 0 0 1 1 0 32 32 0 0 0 22 5 32 32 0 0 0 21-12 31 31 0 0 0 7-25 32 32 0 0 0-12-21 32 32 0 0 0-20-7 33 33 0 0 0-29 17 32 32 0 0 0 1 34 1 1 0 0 1 1 1l-3 8z" class="cls-7"/>
        <path d="M519 735c2-1 3 0 3 2l3 6a3 3 0 0 1 0 3l-2 2a1 1 0 0 0 0 2 26 26 0 0 0 13 12 1 1 0 0 0 2-1l2-3 3-1 7 4a1 1 0 0 1 1 1c0 5-2 7-7 8a10 10 0 0 1-5 0c-5-1-9-3-13-6a44 44 0 0 1-9-9 27 27 0 0 1-4-7c-1-5-1-9 2-12a4 4 0 0 1 4-1zM368 793l7-19a3 3 0 0 0 0-3 38 38 0 0 1-4-27 39 39 0 0 1 42-30 39 39 0 0 1 34 32l1 4v6l-2 7a39 39 0 0 1-55 24 2 2 0 0 0-2 0l-16 5-5 1zm10-9l12-4a2 2 0 0 1 1 0 32 32 0 0 0 22 5 32 32 0 0 0 21-12 32 32 0 0 0-5-46 32 32 0 0 0-20-7 33 33 0 0 0-29 17 32 32 0 0 0 2 34 1 1 0 0 1 0 1l-3 8z" class="cls-7"/>
        <path d="M397 735c1-1 2 0 3 2l2 6a3 3 0 0 1 0 3l-2 2a1 1 0 0 0 0 2 26 26 0 0 0 13 12 1 1 0 0 0 2-1l3-3 2-1 8 4a1 1 0 0 1 1 1c0 5-3 7-7 8a10 10 0 0 1-6 0c-4-1-9-3-12-6a44 44 0 0 1-9-9 27 27 0 0 1-5-7c-1-5 0-9 3-12a4 4 0 0 1 4-1zM246 793h-1l7-19a3 3 0 0 0 0-3 38 38 0 0 1-4-27 39 39 0 0 1 42-30 39 39 0 0 1 34 32l1 4v6a73 73 0 0 1-1 7 39 39 0 0 1-56 24 2 2 0 0 0-2 0l-16 5-4 1zm9-9l12-4a2 2 0 0 1 2 0 32 32 0 0 0 21 5 32 32 0 0 0 21-12 32 32 0 0 0-4-46 32 32 0 0 0-21-7 33 33 0 0 0-29 17 32 32 0 0 0 2 34 1 1 0 0 1 0 1l-3 8z" class="cls-7"/>
        <path d="M274 735c2-1 2 0 3 2l3 6a3 3 0 0 1-1 3 30 30 0 0 1-2 2 1 1 0 0 0 0 2 26 26 0 0 0 13 12 1 1 0 0 0 2-1l3-3 2-1 8 4a1 1 0 0 1 1 1c0 5-2 7-7 8a10 10 0 0 1-6 0c-4-1-9-3-12-6a44 44 0 0 1-9-9 27 27 0 0 1-4-7c-2-5-1-9 2-12a4 4 0 0 1 4-1zM123 793l6-19a3 3 0 0 0 0-3 38 38 0 0 1-4-27 39 39 0 0 1 42-30 39 39 0 0 1 35 32v10l-1 7a39 39 0 0 1-56 24 2 2 0 0 0-2 0l-16 5-4 1zm10-9l11-4a2 2 0 0 1 2 0 32 32 0 0 0 22 5 32 32 0 0 0 21-12 31 31 0 0 0 7-25 32 32 0 0 0-12-21 33 33 0 0 0-37-3 32 32 0 0 0-13 13 32 32 0 0 0 2 34 1 1 0 0 1 0 1l-2 8-1 4z" class="cls-7"/>
        <path d="M151 735c2-1 3 0 3 2l3 6a3 3 0 0 1 0 3l-2 2a1 1 0 0 0-1 2 26 26 0 0 0 14 12 1 1 0 0 0 2-1l2-3 3-1 7 4a1 1 0 0 1 1 1c0 5-2 7-7 8a10 10 0 0 1-6 0l-12-6a44 44 0 0 1-9-9 27 27 0 0 1-4-7c-2-5-1-9 2-12a4 4 0 0 1 4-1zM0 793l7-19a3 3 0 0 0-1-3 38 38 0 0 1-4-27 39 39 0 0 1 43-30 39 39 0 0 1 34 32l1 4v5l-1 1a73 73 0 0 1-1 7 39 39 0 0 1-55 24 2 2 0 0 0-2 0l-17 5-4 1zm10-9l12-4a2 2 0 0 1 1 0 32 32 0 0 0 22 5 32 32 0 0 0 21-12 32 32 0 0 0-5-46 32 32 0 0 0-20-7 33 33 0 0 0-29 17 32 32 0 0 0 2 34 1 1 0 0 1 0 1l-3 8z" class="cls-7"/>
        <path d="M29 735c1-1 2 0 3 2l2 6a3 3 0 0 1 0 3l-2 3a1 1 0 0 0 0 1 26 26 0 0 0 13 12 1 1 0 0 0 2-1l3-3 2-1 8 4a1 1 0 0 1 0 1c0 5-2 7-7 8a10 10 0 0 1-5 0c-5-1-9-3-13-6a44 44 0 0 1-9-9 27 27 0 0 1-4-7c-1-5-1-9 3-12a4 4 0 0 1 4-1zM2043 904l7-20a3 3 0 0 0 0-2 38 38 0 0 1-5-27 39 39 0 0 1 43-31 39 39 0 0 1 34 32l1 5v5l-2 7a39 39 0 0 1-55 24 2 2 0 0 0-2 0l-17 5-4 2zm10-10l12-4a2 2 0 0 1 1 1 32 32 0 0 0 22 4 32 32 0 0 0 21-11 32 32 0 0 0-5-46 32 32 0 0 0-20-8 33 33 0 0 0-29 17 32 32 0 0 0 2 35 1 1 0 0 1 0 1l-3 8-1 3z" class="cls-7"/>
        <path d="M2072 845l3 3 2 6a3 3 0 0 1 0 3l-2 2a1 1 0 0 0 0 2 26 26 0 0 0 13 11 1 1 0 0 0 2 0l3-4h2l8 3a1 1 0 0 1 0 2c0 4-2 7-7 8a10 10 0 0 1-5 0c-5-2-9-3-13-6a43 43 0 0 1-9-9 27 27 0 0 1-4-8c-1-4-1-8 3-11a4 4 0 0 1 4-2zM1921 904h-1l7-20a3 3 0 0 0 0-2 38 38 0 0 1-4-27 39 39 0 0 1 42-31 39 39 0 0 1 34 32l1 5v5a73 73 0 0 1-1 7 39 39 0 0 1-56 24 2 2 0 0 0-2 0l-16 5-4 2zm9-10l12-4a2 2 0 0 1 2 1 32 32 0 0 0 21 4 32 32 0 0 0 21-11 32 32 0 0 0-4-46 32 32 0 0 0-21-8 33 33 0 0 0-29 17 32 32 0 0 0 2 35 1 1 0 0 1 0 1l-3 8z" class="cls-7"/>
        <path d="M1949 845c2 0 2 1 3 3l2 6a3 3 0 0 1 0 3l-2 2a1 1 0 0 0 0 2 26 26 0 0 0 13 11 1 1 0 0 0 2 0l3-4h2l8 3a1 1 0 0 1 1 2c0 4-3 7-7 8a10 10 0 0 1-6 0c-4-2-9-3-12-6a43 43 0 0 1-9-9 27 27 0 0 1-5-8c-1-4 0-8 3-11a4 4 0 0 1 4-2zM1798 904l6-20a3 3 0 0 0 0-2 38 38 0 0 1-4-27 39 39 0 0 1 42-31 39 39 0 0 1 35 32v10a73 73 0 0 1-1 7 39 39 0 0 1-56 24 2 2 0 0 0-2 0l-16 5-4 2zm10-10l11-4a2 2 0 0 1 2 1 32 32 0 0 0 22 4 32 32 0 0 0 21-11 32 32 0 0 0-5-46 32 32 0 0 0-21-8 33 33 0 0 0-29 17 32 32 0 0 0 2 35 1 1 0 0 1 0 1l-2 8-2 3z" class="cls-7"/>
        <path d="M1826 845c2 0 3 1 3 3l3 6a3 3 0 0 1-1 3l-2 2a1 1 0 0 0 0 2 26 26 0 0 0 14 11 1 1 0 0 0 1 0l3-4h2l8 3a1 1 0 0 1 1 2c0 4-2 7-7 8a10 10 0 0 1-6 0l-12-6a43 43 0 0 1-9-9 27 27 0 0 1-4-8c-2-4-1-8 2-11a4 4 0 0 1 4-2zM1675 904l7-20a3 3 0 0 0-1-2 38 38 0 0 1-4-27 39 39 0 0 1 42-31 39 39 0 0 1 35 32l1 5v4l-1 1-1 7a39 39 0 0 1-56 24 2 2 0 0 0-1 0l-17 5-4 2zm10-10l12-4a2 2 0 0 1 1 1 32 32 0 0 0 22 4 32 32 0 0 0 21-11 32 32 0 0 0-5-46 32 32 0 0 0-20-8 33 33 0 0 0-29 17 32 32 0 0 0 1 35 1 1 0 0 1 1 1l-3 8z" class="cls-7"/>
        <path d="M1703 845c2 0 3 1 3 3l3 6a3 3 0 0 1 0 3l-2 2a1 1 0 0 0 0 2 26 26 0 0 0 13 11 1 1 0 0 0 2 0l3-4h2l8 3a1 1 0 0 1 0 2c0 4-2 7-7 8a10 10 0 0 1-5 0c-5-2-9-3-13-6a43 43 0 0 1-9-9 27 27 0 0 1-4-8c-1-4-1-8 3-11a4 4 0 0 1 3-2zM1553 904h-1l7-20a3 3 0 0 0 0-2 38 38 0 0 1-4-27 39 39 0 0 1 42-31 39 39 0 0 1 34 32l1 5v5a73 73 0 0 1-2 7 39 39 0 0 1-55 24 2 2 0 0 0-2 0l-16 5-4 2zm9-10l12-4a2 2 0 0 1 1 1 32 32 0 0 0 22 4 32 32 0 0 0 21-11 32 32 0 0 0-4-46 32 32 0 0 0-21-8 33 33 0 0 0-29 17 32 32 0 0 0 2 35 1 1 0 0 1 0 1l-3 8z" class="cls-7"/>
        <path d="M1581 845l3 3 2 6a3 3 0 0 1 0 3l-2 2a1 1 0 0 0 0 2 26 26 0 0 0 13 11 1 1 0 0 0 2 0l3-4h2l8 3a1 1 0 0 1 1 2c0 4-3 7-7 8a10 10 0 0 1-6 0c-4-2-9-3-12-6a44 44 0 0 1-9-9 27 27 0 0 1-5-8c-1-4 0-8 3-11a4 4 0 0 1 4-2zM1430 904h-1l7-20a3 3 0 0 0 0-2 38 38 0 0 1-4-27 39 39 0 0 1 42-31 39 39 0 0 1 35 32v10l-1 7a39 39 0 0 1-56 24 2 2 0 0 0-2 0l-16 5-4 2zm9-10l12-4a2 2 0 0 1 2 1 32 32 0 0 0 21 4 32 32 0 0 0 21-11 32 32 0 0 0-4-46 32 32 0 0 0-21-8 33 33 0 0 0-29 17 32 32 0 0 0 2 35 1 1 0 0 1 0 1l-3 8-1 3z" class="cls-7"/>
        <path d="M1458 845c2 0 3 1 3 3l3 6a3 3 0 0 1-1 3l-2 2a1 1 0 0 0 0 2 26 26 0 0 0 13 11 1 1 0 0 0 2 0l3-4h2l8 3a1 1 0 0 1 1 2c0 4-2 7-7 8a10 10 0 0 1-6 0l-12-6a43 43 0 0 1-9-9 27 27 0 0 1-4-8c-2-4-1-8 2-11a4 4 0 0 1 4-2zM1307 904l6-20a3 3 0 0 0 0-2 38 38 0 0 1-4-27 39 39 0 0 1 42-31 39 39 0 0 1 35 32v10a73 73 0 0 1-1 7 39 39 0 0 1-56 24 2 2 0 0 0-2 0l-16 5-4 2zm10-10l11-4a2 2 0 0 1 2 1 32 32 0 0 0 22 4 32 32 0 0 0 21-11 32 32 0 0 0-5-46 32 32 0 0 0-21-8 33 33 0 0 0-29 17 32 32 0 0 0 2 35 1 1 0 0 1 0 1l-2 8z" class="cls-7"/>
        <path d="M1335 845c2 0 3 1 3 3l3 6a3 3 0 0 1 0 3l-2 2a1 1 0 0 0-1 2 26 26 0 0 0 14 11 1 1 0 0 0 2 0l2-4h3l7 3a1 1 0 0 1 1 2c0 4-2 7-7 8a10 10 0 0 1-6 0l-12-6a43 43 0 0 1-9-9 27 27 0 0 1-4-8c-2-4-1-8 2-11a4 4 0 0 1 4-2zM1184 904l7-20a3 3 0 0 0 0-2 38 38 0 0 1-5-27 39 39 0 0 1 43-31 39 39 0 0 1 34 32l1 5v5l-2 7a39 39 0 0 1-55 24 2 2 0 0 0-2 0l-17 5-4 2zm10-10l12-4a2 2 0 0 1 1 1 32 32 0 0 0 22 4 32 32 0 0 0 21-11 32 32 0 0 0-5-46 32 32 0 0 0-20-8 33 33 0 0 0-29 17 32 32 0 0 0 2 35 1 1 0 0 1 0 1l-3 8-1 3z" class="cls-7"/>
        <path d="M1213 845l3 3 2 6a3 3 0 0 1 0 3l-2 2a1 1 0 0 0 0 2 26 26 0 0 0 13 11 1 1 0 0 0 2 0l3-4h2l8 3a1 1 0 0 1 0 2c0 4-2 7-7 8a10 10 0 0 1-5 0c-5-2-9-3-13-6a43 43 0 0 1-9-9 27 27 0 0 1-4-8c-1-4-1-8 3-11a4 4 0 0 1 4-2zM1062 904h-1l7-20a3 3 0 0 0 0-2 38 38 0 0 1-4-27 39 39 0 0 1 42-31 39 39 0 0 1 34 32l1 5v5l-1 7a39 39 0 0 1-56 24 2 2 0 0 0-2 0l-16 5-4 2zm9-10l12-4a2 2 0 0 1 1 1 32 32 0 0 0 22 4 32 32 0 0 0 21-11 32 32 0 0 0-4-46 32 32 0 0 0-21-8 33 33 0 0 0-29 17 32 32 0 0 0 2 35 1 1 0 0 1 0 1l-3 8z" class="cls-7"/>
        <path d="M1090 845c2 0 2 1 3 3l2 6a3 3 0 0 1 0 3l-2 2a1 1 0 0 0 0 2 26 26 0 0 0 13 11 1 1 0 0 0 2 0l3-4h2l8 3a1 1 0 0 1 1 2c0 4-3 7-7 8a10 10 0 0 1-6 0c-4-2-9-3-12-6a43 43 0 0 1-9-9 27 27 0 0 1-5-8c-1-4 0-8 3-11a4 4 0 0 1 4-2zM939 904l6-20a3 3 0 0 0 0-2 38 38 0 0 1-4-27 39 39 0 0 1 42-31 39 39 0 0 1 35 32v10a73 73 0 0 1-1 7 39 39 0 0 1-56 24 2 2 0 0 0-2 0l-16 5-4 2zm9-10l12-4a2 2 0 0 1 2 1 32 32 0 0 0 22 4 32 32 0 0 0 21-11 32 32 0 0 0-5-46 32 32 0 0 0-21-8 33 33 0 0 0-29 17 32 32 0 0 0 2 35 1 1 0 0 1 0 1l-2 8z" class="cls-7"/>
        <path d="M967 845c2 0 3 1 3 3l3 6a3 3 0 0 1-1 3l-2 2a1 1 0 0 0 0 2 26 26 0 0 0 14 11 1 1 0 0 0 1 0l3-4h2l8 3a1 1 0 0 1 1 2c0 4-2 7-7 8a10 10 0 0 1-6 0l-12-6a44 44 0 0 1-9-9 27 27 0 0 1-4-8c-2-4-1-8 2-11a4 4 0 0 1 4-2zM816 904l7-20a3 3 0 0 0-1-2 38 38 0 0 1-4-27 39 39 0 0 1 42-31 39 39 0 0 1 35 32l1 5v4l-1 1-1 7a39 39 0 0 1-56 24 2 2 0 0 0-1 0l-17 5-4 2zm10-10l12-4a2 2 0 0 1 1 1 32 32 0 0 0 22 4 32 32 0 0 0 21-11 32 32 0 0 0-5-46 32 32 0 0 0-20-8 33 33 0 0 0-29 17 32 32 0 0 0 1 35 1 1 0 0 1 1 1l-3 8z" class="cls-7"/>
        <path d="M844 845c2 0 3 1 3 3l3 6a3 3 0 0 1 0 3l-2 2a1 1 0 0 0 0 2 26 26 0 0 0 13 11 1 1 0 0 0 2 0l2-4h3l7 3a1 1 0 0 1 1 2c0 4-2 7-7 8a10 10 0 0 1-5 0c-5-2-9-3-13-6a43 43 0 0 1-9-9 27 27 0 0 1-4-8c-1-4-1-8 2-11a4 4 0 0 1 4-2zM694 904h-1l7-20a3 3 0 0 0 0-2 38 38 0 0 1-4-27 39 39 0 0 1 42-31 39 39 0 0 1 34 32l1 5v5a73 73 0 0 1-2 7 39 39 0 0 1-55 24 2 2 0 0 0-2 0l-16 5-4 2zm9-10l12-4a2 2 0 0 1 1 1 32 32 0 0 0 22 4 32 32 0 0 0 21-11 32 32 0 0 0-4-46 32 32 0 0 0-21-8 33 33 0 0 0-29 17 32 32 0 0 0 2 35 1 1 0 0 1 0 1l-3 8z" class="cls-7"/>
        <path d="M722 845l3 3 2 6a3 3 0 0 1 0 3l-2 2a1 1 0 0 0 0 2 26 26 0 0 0 13 11 1 1 0 0 0 2 0l3-4h2l8 3a1 1 0 0 1 1 2c0 4-3 7-7 8a10 10 0 0 1-6 0c-4-2-9-3-12-6a43 43 0 0 1-9-9 27 27 0 0 1-5-8c-1-4 0-8 3-11a4 4 0 0 1 4-2zM571 904h-1l7-20a3 3 0 0 0 0-2 38 38 0 0 1-4-27 39 39 0 0 1 42-31 39 39 0 0 1 35 32v10l-1 7a39 39 0 0 1-56 24 2 2 0 0 0-2 0l-16 5-4 2zm9-10l12-4a2 2 0 0 1 2 1 32 32 0 0 0 21 4 32 32 0 0 0 21-11 32 32 0 0 0-4-46 32 32 0 0 0-21-8 33 33 0 0 0-29 17 32 32 0 0 0 2 35 1 1 0 0 1 0 1l-3 8-1 3z" class="cls-7"/>
        <path d="M599 845c2 0 3 1 3 3l3 6a3 3 0 0 1-1 3l-2 2a1 1 0 0 0 0 2 26 26 0 0 0 13 11 1 1 0 0 0 2 0l3-4h2l8 3a1 1 0 0 1 1 2c0 4-2 7-7 8a10 10 0 0 1-6 0l-12-6a43 43 0 0 1-9-9 27 27 0 0 1-4-8c-2-4-1-8 2-11a4 4 0 0 1 4-2zM448 904l6-20a3 3 0 0 0 0-2 38 38 0 0 1-4-27 39 39 0 0 1 42-31 39 39 0 0 1 35 32v10a73 73 0 0 1-1 7 39 39 0 0 1-56 24 2 2 0 0 0-2 0l-16 5-4 2zm10-10l11-4a2 2 0 0 1 2 1 32 32 0 0 0 22 4 32 32 0 0 0 21-11 32 32 0 0 0-5-46 32 32 0 0 0-21-8 33 33 0 0 0-29 17 32 32 0 0 0 2 35 1 1 0 0 1 0 1l-2 8z" class="cls-7"/>
        <path d="M476 845c2 0 3 1 3 3l3 6a3 3 0 0 1 0 3l-2 2a1 1 0 0 0-1 2 26 26 0 0 0 14 11 1 1 0 0 0 2 0l2-4h3l7 3a1 1 0 0 1 1 2c0 4-2 7-7 8a10 10 0 0 1-6 0l-12-6a43 43 0 0 1-9-9 27 27 0 0 1-4-8c-1-4-1-8 2-11a4 4 0 0 1 4-2zM325 904l7-20a3 3 0 0 0 0-2 38 38 0 0 1-5-27 39 39 0 0 1 43-31 39 39 0 0 1 34 32l1 5v5a73 73 0 0 1-2 7 39 39 0 0 1-55 24 2 2 0 0 0-2 0l-17 5-4 2zm10-10l12-4a2 2 0 0 1 1 1 32 32 0 0 0 22 4 32 32 0 0 0 21-11 32 32 0 0 0-5-46 32 32 0 0 0-20-8 33 33 0 0 0-29 17 32 32 0 0 0 2 35 1 1 0 0 1 0 1l-3 8-1 3z" class="cls-7"/>
        <path d="M354 845l3 3 2 6a3 3 0 0 1 0 3l-2 2a1 1 0 0 0 0 2 26 26 0 0 0 13 11 1 1 0 0 0 2 0l3-4h2l8 3a1 1 0 0 1 0 2c0 4-2 7-7 8a10 10 0 0 1-5 0c-5-2-9-3-13-6a43 43 0 0 1-9-9 27 27 0 0 1-4-8c-1-4-1-8 3-11a4 4 0 0 1 4-2zM203 904h-1l7-20a3 3 0 0 0 0-2 38 38 0 0 1-4-27 39 39 0 0 1 42-31 39 39 0 0 1 34 32l1 5v5l-1 7a39 39 0 0 1-56 24 2 2 0 0 0-2 0l-16 5-4 2zm9-10l12-4a2 2 0 0 1 1 1 32 32 0 0 0 22 4 32 32 0 0 0 21-11 32 32 0 0 0-4-46 32 32 0 0 0-21-8 33 33 0 0 0-29 17 32 32 0 0 0 2 35 1 1 0 0 1 0 1l-3 8z" class="cls-7"/>
        <path d="M231 845c2 0 2 1 3 3l2 6a3 3 0 0 1 0 3l-2 2a1 1 0 0 0 0 2 26 26 0 0 0 13 11 1 1 0 0 0 2 0l3-4h2l8 3a1 1 0 0 1 1 2c0 4-3 7-7 8a10 10 0 0 1-6 0c-4-2-9-3-12-6a43 43 0 0 1-9-9 27 27 0 0 1-5-8c-1-4 0-8 3-11a4 4 0 0 1 4-2zM80 904l6-20a3 3 0 0 0 0-2 38 38 0 0 1-4-27 39 39 0 0 1 42-31 39 39 0 0 1 35 32v10a73 73 0 0 1-1 7 39 39 0 0 1-56 24 2 2 0 0 0-2 0l-16 5-4 2zm9-10l12-4a2 2 0 0 1 2 1 32 32 0 0 0 21 4 32 32 0 0 0 21-11 32 32 0 0 0-4-46 32 32 0 0 0-21-8 33 33 0 0 0-29 17 32 32 0 0 0 2 35 1 1 0 0 1 0 1l-2 8z" class="cls-7"/>
        <path d="M108 845c2 0 3 1 3 3l3 6a3 3 0 0 1-1 3l-2 2a1 1 0 0 0 0 2 26 26 0 0 0 14 11 1 1 0 0 0 1 0l3-4h2l8 3a1 1 0 0 1 1 2c0 4-2 7-7 8a10 10 0 0 1-6 0l-12-6a43 43 0 0 1-9-9 27 27 0 0 1-4-8c-2-4-1-8 2-11a4 4 0 0 1 4-2zM1964 1014h-1l7-19a3 3 0 0 0 0-2 38 38 0 0 1-4-28 39 39 0 0 1 42-30 39 39 0 0 1 35 32v10a73 73 0 0 1-1 7 39 39 0 0 1-56 24 2 2 0 0 0-2 0l-16 5-4 1zm9-9l12-4a2 2 0 0 1 2 0 32 32 0 0 0 21 5 32 32 0 0 0 21-12 32 32 0 0 0-4-46 32 32 0 0 0-21-7 33 33 0 0 0-29 17 32 32 0 0 0 2 34 1 1 0 0 1 0 1l-3 9-1 3z" class="cls-7"/>
        <path d="M1992 956c2 0 2 1 3 2l3 6a3 3 0 0 1-1 3l-2 3a1 1 0 0 0 0 2 26 26 0 0 0 13 11 1 1 0 0 0 2-1l3-3 2-1 8 4a1 1 0 0 1 1 1c0 5-2 7-7 9a10 10 0 0 1-6-1c-4-1-8-2-12-5a44 44 0 0 1-9-10 27 27 0 0 1-4-7c-2-4-1-8 2-12a4 4 0 0 1 4-1zM1841 1014l6-19a3 3 0 0 0 0-2 38 38 0 0 1-4-28 39 39 0 0 1 42-30 39 39 0 0 1 35 32v10l-1 7a39 39 0 0 1-56 24 2 2 0 0 0-2 0l-16 5-4 1zm10-9l11-4a2 2 0 0 1 2 0 32 32 0 0 0 22 5 32 32 0 0 0 21-12 32 32 0 0 0-5-46 32 32 0 0 0-21-7 33 33 0 0 0-29 17 32 32 0 0 0-3 21 31 31 0 0 0 5 13 1 1 0 0 1 0 1l-2 9z" class="cls-7"/>
        <path d="M1869 956c2 0 3 1 3 2l3 6a3 3 0 0 1 0 3l-2 3a1 1 0 0 0-1 2 26 26 0 0 0 14 11 1 1 0 0 0 2-1l2-3 3-1 7 4a1 1 0 0 1 1 1c0 5-2 7-7 9a10 10 0 0 1-6-1c-4-1-8-2-12-5a44 44 0 0 1-9-10 27 27 0 0 1-4-7c-2-4-1-8 2-12a4 4 0 0 1 4-1zM1718 1014l7-19a3 3 0 0 0-1-2 38 38 0 0 1-4-28 39 39 0 0 1 43-30 39 39 0 0 1 34 32l1 4v5l-1 1a73 73 0 0 1-1 7 39 39 0 0 1-55 24 2 2 0 0 0-2 0l-17 5-4 1zm10-9l12-4a2 2 0 0 1 1 0 32 32 0 0 0 22 5 32 32 0 0 0 21-12 32 32 0 0 0-5-46 32 32 0 0 0-20-7 33 33 0 0 0-29 17 32 32 0 0 0 2 34 1 1 0 0 1 0 1l-3 9z" class="cls-7"/>
        <path d="M1747 956l3 2 2 6a3 3 0 0 1 0 3 30 30 0 0 1-2 3 1 1 0 0 0 0 2 26 26 0 0 0 13 11 1 1 0 0 0 2-1l3-3 2-1 8 4a1 1 0 0 1 0 1c0 5-2 7-7 9a10 10 0 0 1-5-1c-5-1-9-2-13-5a44 44 0 0 1-9-10 27 27 0 0 1-4-7c-1-4-1-8 3-12a4 4 0 0 1 4-1zM1596 1014h-1l7-19a3 3 0 0 0 0-2 38 38 0 0 1-4-28 39 39 0 0 1 42-30 39 39 0 0 1 34 32l1 4v6l-2 7a39 39 0 0 1-55 24 2 2 0 0 0-2 0l-16 5-4 1zm9-9l12-4a2 2 0 0 1 1 0 32 32 0 0 0 22 5 32 32 0 0 0 21-12 32 32 0 0 0-4-46 32 32 0 0 0-21-7 33 33 0 0 0-29 17 32 32 0 0 0 2 34 1 1 0 0 1 0 1l-3 9-1 3z" class="cls-7"/>
        <path d="M1624 956c2 0 2 1 3 2l2 6a3 3 0 0 1 0 3l-2 3a1 1 0 0 0 0 2 26 26 0 0 0 13 11 1 1 0 0 0 2-1l3-3 2-1 8 4a1 1 0 0 1 1 1c0 5-3 7-7 9a10 10 0 0 1-6-1c-4-1-9-2-12-5a44 44 0 0 1-9-10 27 27 0 0 1-5-7c-1-4 0-8 3-12a4 4 0 0 1 4-1zM1473 1014l6-19a3 3 0 0 0 0-2 38 38 0 0 1-4-28 39 39 0 0 1 42-30 39 39 0 0 1 35 32v10a73 73 0 0 1-1 7 39 39 0 0 1-56 24 2 2 0 0 0-2 0l-16 5-4 1zm9-9l12-4a2 2 0 0 1 2 0 32 32 0 0 0 21 5 32 32 0 0 0 21-12 32 32 0 0 0-4-46 32 32 0 0 0-21-7 33 33 0 0 0-29 17 32 32 0 0 0 2 34 1 1 0 0 1 0 1l-3 9z" class="cls-7"/>
        <path d="M1501 956c2 0 3 1 3 2l3 6a3 3 0 0 1-1 3 30 30 0 0 1-2 3 1 1 0 0 0 0 2 26 26 0 0 0 14 11 1 1 0 0 0 1-1l3-3 2-1 8 4a1 1 0 0 1 1 1c0 5-2 7-7 9a10 10 0 0 1-6-1c-4-1-8-2-12-5a44 44 0 0 1-9-10 27 27 0 0 1-4-7c-2-4-1-8 2-12a4 4 0 0 1 4-1zM1350 1014l7-19a3 3 0 0 0-1-2 38 38 0 0 1-4-28 39 39 0 0 1 42-30 39 39 0 0 1 35 32l1 4v5l-1 1a73 73 0 0 1-1 7 39 39 0 0 1-56 24 2 2 0 0 0-1 0l-17 5-4 1zm10-9l12-4a2 2 0 0 1 1 0 32 32 0 0 0 22 5 32 32 0 0 0 21-12 32 32 0 0 0-5-46 32 32 0 0 0-20-7 33 33 0 0 0-29 17 32 32 0 0 0 1 34 1 1 0 0 1 1 1l-3 9-1 3z" class="cls-7"/>
        <path d="M1378 956c2 0 3 1 3 2l3 6a3 3 0 0 1 0 3l-2 3a1 1 0 0 0-1 2 26 26 0 0 0 14 11 1 1 0 0 0 2-1l2-3 3-1 7 4a1 1 0 0 1 1 1c0 5-2 7-7 9a10 10 0 0 1-5-1c-5-1-9-2-13-5a44 44 0 0 1-9-10 27 27 0 0 1-4-7c-1-4-1-8 2-12a4 4 0 0 1 4-1zM1227 1014l7-19a3 3 0 0 0 0-2 38 38 0 0 1-4-28 39 39 0 0 1 42-30 39 39 0 0 1 34 32l1 4v6l-2 7a39 39 0 0 1-55 24 2 2 0 0 0-2 0l-16 5-5 1zm10-9l12-4a2 2 0 0 1 1 0 32 32 0 0 0 22 5 32 32 0 0 0 21-12 32 32 0 0 0-5-46 32 32 0 0 0-20-7 33 33 0 0 0-29 17 32 32 0 0 0 2 34 1 1 0 0 1 0 1l-3 9z" class="cls-7"/>
        <path d="M1256 956l3 2 2 6a3 3 0 0 1 0 3l-2 3a1 1 0 0 0 0 2 26 26 0 0 0 13 11 1 1 0 0 0 2-1l3-3 2-1 8 4a1 1 0 0 1 1 1c0 5-3 7-7 9a10 10 0 0 1-6-1c-4-1-9-2-12-5a44 44 0 0 1-9-10 27 27 0 0 1-5-7c-1-4 0-8 3-12a4 4 0 0 1 4-1zM1105 1014h-1l7-19a3 3 0 0 0 0-2 38 38 0 0 1-4-28 39 39 0 0 1 42-30 39 39 0 0 1 35 32v10a73 73 0 0 1-1 7 39 39 0 0 1-56 24 2 2 0 0 0-2 0l-16 5-4 1zm9-9l12-4a2 2 0 0 1 2 0 32 32 0 0 0 21 5 32 32 0 0 0 21-12 32 32 0 0 0-4-46 32 32 0 0 0-21-7 33 33 0 0 0-29 17 32 32 0 0 0 2 34 1 1 0 0 1 0 1l-3 9z" class="cls-7"/>
        <path d="M1133 956c2 0 2 1 3 2l3 6a3 3 0 0 1-1 3l-2 3a1 1 0 0 0 0 2 26 26 0 0 0 13 11 1 1 0 0 0 2-1l3-3 2-1 8 4a1 1 0 0 1 1 1c0 5-2 7-7 9a10 10 0 0 1-6-1c-4-1-8-2-12-5a44 44 0 0 1-9-10 27 27 0 0 1-4-7c-2-4-1-8 2-12a4 4 0 0 1 4-1zM982 1014l6-19a3 3 0 0 0 0-2 38 38 0 0 1-4-28 39 39 0 0 1 42-30 39 39 0 0 1 35 32v10l-1 7a39 39 0 0 1-56 24 2 2 0 0 0-2 0l-16 5-4 1zm10-9l11-4a2 2 0 0 1 2 0 32 32 0 0 0 22 5 32 32 0 0 0 21-12 32 32 0 0 0-5-46 32 32 0 0 0-21-7 33 33 0 0 0-29 17 32 32 0 0 0 2 34 1 1 0 0 1 0 1l-2 9-1 3z" class="cls-7"/>
        <path d="M1010 956c2 0 3 1 3 2l3 6a3 3 0 0 1 0 3l-2 3a1 1 0 0 0-1 2 26 26 0 0 0 14 11 1 1 0 0 0 2-1l2-3 3-1 7 4a1 1 0 0 1 1 1c0 5-2 7-7 9a10 10 0 0 1-6-1c-4-1-8-2-12-5a44 44 0 0 1-9-10 27 27 0 0 1-4-7c-2-4-1-8 2-12a4 4 0 0 1 4-1zM859 1014l7-19a3 3 0 0 0-1-2 38 38 0 0 1-4-28 39 39 0 0 1 42-30 39 39 0 0 1 35 32l1 4v5l-1 1a73 73 0 0 1-1 7 39 39 0 0 1-55 24 2 2 0 0 0-2 0l-17 5-4 1zm10-9l12-4a2 2 0 0 1 1 0 32 32 0 0 0 22 5 32 32 0 0 0 21-12 32 32 0 0 0-5-46 32 32 0 0 0-20-7 33 33 0 0 0-29 17 32 32 0 0 0 2 34 1 1 0 0 1 0 1l-3 9z" class="cls-7"/>
        <path d="M888 956l3 2 2 6a3 3 0 0 1 0 3 30 30 0 0 1-2 3 1 1 0 0 0 0 2 26 26 0 0 0 13 11 1 1 0 0 0 2-1l3-3 2-1 8 4a1 1 0 0 1 0 1c0 5-2 7-7 9a10 10 0 0 1-5-1c-5-1-9-2-13-5a44 44 0 0 1-9-10 27 27 0 0 1-4-7c-1-4-1-8 3-12a4 4 0 0 1 4-1zM737 1014h-1l7-19a3 3 0 0 0 0-2 38 38 0 0 1-4-28 39 39 0 0 1 42-30 39 39 0 0 1 34 32l1 4v6l-2 7a39 39 0 0 1-55 24 2 2 0 0 0-2 0l-16 5-4 1zm9-9l12-4a2 2 0 0 1 1 0 32 32 0 0 0 22 5 32 32 0 0 0 21-12 32 32 0 0 0-4-46 32 32 0 0 0-21-7 33 33 0 0 0-29 17 32 32 0 0 0 2 34 1 1 0 0 1 0 1l-3 9-1 3z" class="cls-7"/>
        <path d="M765 956c2 0 2 1 3 2l2 6a3 3 0 0 1 0 3l-2 3a1 1 0 0 0 0 2 26 26 0 0 0 13 11 1 1 0 0 0 2-1l3-3 2-1 8 4a1 1 0 0 1 1 1c0 5-3 7-7 9a10 10 0 0 1-6-1c-4-1-9-2-12-5a44 44 0 0 1-9-10 27 27 0 0 1-5-7c-1-4 0-8 3-12a4 4 0 0 1 4-1zM614 1014l6-19a3 3 0 0 0 0-2 38 38 0 0 1-4-28 39 39 0 0 1 42-30 39 39 0 0 1 35 32v10l-1 7a39 39 0 0 1-56 24 2 2 0 0 0-2 0l-16 5-4 1zm9-9l12-4a2 2 0 0 1 2 0 32 32 0 0 0 21 5 32 32 0 0 0 21-12 32 32 0 0 0-4-46 32 32 0 0 0-21-7 33 33 0 0 0-29 17 32 32 0 0 0 2 34 1 1 0 0 1 0 1l-3 9z" class="cls-7"/>
        <path d="M642 956c2 0 3 1 3 2l3 6a3 3 0 0 1-1 3l-2 3a1 1 0 0 0 0 2 26 26 0 0 0 14 11 1 1 0 0 0 1-1l3-3 2-1 8 4a1 1 0 0 1 1 1c0 5-2 7-7 9a10 10 0 0 1-6-1c-4-1-8-2-12-5a44 44 0 0 1-9-10 27 27 0 0 1-4-7c-2-4-1-8 2-12a4 4 0 0 1 4-1zM491 1014l7-19a3 3 0 0 0-1-2 38 38 0 0 1-4-28 39 39 0 0 1 42-30 39 39 0 0 1 35 32v10a73 73 0 0 1-1 7 39 39 0 0 1-56 24 2 2 0 0 0-1 0l-17 5-4 1zm10-9l12-4a2 2 0 0 1 1 0 32 32 0 0 0 22 5 32 32 0 0 0 21-12 32 32 0 0 0-5-46 32 32 0 0 0-20-7 33 33 0 0 0-29 17 32 32 0 0 0 1 34 1 1 0 0 1 1 1l-3 9z" class="cls-7"/>
        <path d="M519 956c2 0 3 1 3 2l3 6a3 3 0 0 1 0 3l-2 3a1 1 0 0 0 0 2 26 26 0 0 0 13 11 1 1 0 0 0 2-1l2-3 3-1 7 4a1 1 0 0 1 1 1c0 5-2 7-7 9a10 10 0 0 1-5-1c-5-1-9-2-13-5a44 44 0 0 1-9-10 27 27 0 0 1-4-7c-1-4-1-8 2-12a4 4 0 0 1 4-1zM368 1014l7-19a3 3 0 0 0 0-2 38 38 0 0 1-4-28 39 39 0 0 1 42-30 39 39 0 0 1 34 32l1 4v6l-2 7a39 39 0 0 1-55 24 2 2 0 0 0-2 0l-16 5-5 1zm10-9l12-4a2 2 0 0 1 1 0 32 32 0 0 0 22 5 32 32 0 0 0 21-12 32 32 0 0 0-5-46 32 32 0 0 0-20-7 33 33 0 0 0-29 17 32 32 0 0 0 2 34 1 1 0 0 1 0 1l-3 9z" class="cls-7"/>
        <path d="M397 956l3 2 2 6a3 3 0 0 1 0 3l-2 3a1 1 0 0 0 0 2 26 26 0 0 0 13 11 1 1 0 0 0 2-1l3-3 2-1 8 4a1 1 0 0 1 1 1c0 5-3 7-7 9a10 10 0 0 1-6-1c-4-1-9-2-12-5a44 44 0 0 1-9-10 27 27 0 0 1-5-7c-1-4 0-8 3-12a4 4 0 0 1 4-1zM246 1014h-1l7-19a3 3 0 0 0 0-2 38 38 0 0 1-4-28 39 39 0 0 1 42-30 39 39 0 0 1 34 32l1 4v6a73 73 0 0 1-1 7 39 39 0 0 1-56 24 2 2 0 0 0-2 0l-16 5-4 1zm9-9l12-4a2 2 0 0 1 2 0 32 32 0 0 0 21 5 32 32 0 0 0 21-12 32 32 0 0 0-4-46 32 32 0 0 0-21-7 33 33 0 0 0-29 17 32 32 0 0 0 2 34 1 1 0 0 1 0 1l-3 9z" class="cls-7"/>
        <path d="M274 956c2 0 2 1 3 2l3 6a3 3 0 0 1-1 3 30 30 0 0 1-2 3 1 1 0 0 0 0 2 26 26 0 0 0 13 11 1 1 0 0 0 2-1l3-3 2-1 8 4a1 1 0 0 1 1 1c0 5-2 7-7 9a10 10 0 0 1-6-1c-4-1-8-2-12-5a44 44 0 0 1-9-10 27 27 0 0 1-4-7c-2-4-1-8 2-12a4 4 0 0 1 4-1zM123 1014l6-19a3 3 0 0 0 0-2 38 38 0 0 1-4-28 39 39 0 0 1 42-30 39 39 0 0 1 35 32v10l-1 7a39 39 0 0 1-56 24 2 2 0 0 0-2 0l-16 5-4 1zm10-9l11-4a2 2 0 0 1 2 0 32 32 0 0 0 22 5 32 32 0 0 0 21-12 32 32 0 0 0-5-46 32 32 0 0 0-21-7 33 33 0 0 0-29 17 32 32 0 0 0 2 34 1 1 0 0 1 0 1l-2 9-1 3z" class="cls-7"/>
        <path d="M151 956c2 0 3 1 3 2l3 6a3 3 0 0 1 0 3l-2 3a1 1 0 0 0-1 2 26 26 0 0 0 14 11 1 1 0 0 0 2-1l2-3 3-1 7 4a1 1 0 0 1 1 1c0 5-2 7-7 9a10 10 0 0 1-6-1c-4-1-8-2-12-5a44 44 0 0 1-9-10 27 27 0 0 1-4-7c-2-4-1-8 2-12a4 4 0 0 1 4-1zM0 1014l7-19a3 3 0 0 0-1-2 38 38 0 0 1-4-28 39 39 0 0 1 43-30 39 39 0 0 1 34 32l1 4v5l-1 1a73 73 0 0 1-1 7 39 39 0 0 1-55 24 2 2 0 0 0-2 0l-17 5-4 1zm10-9l12-4a2 2 0 0 1 1 0 32 32 0 0 0 22 5 32 32 0 0 0 21-12 32 32 0 0 0-5-46 32 32 0 0 0-20-7 33 33 0 0 0-29 17 32 32 0 0 0 2 34 1 1 0 0 1 0 1l-3 9z" class="cls-7"/>
        <path d="M29 956l3 2 2 6a3 3 0 0 1 0 3l-2 3a1 1 0 0 0 0 2 26 26 0 0 0 13 11 1 1 0 0 0 2-1l3-3 2-1 8 4a1 1 0 0 1 0 1c0 5-2 7-7 9a10 10 0 0 1-5-1c-5-1-9-2-13-5a44 44 0 0 1-9-10 27 27 0 0 1-4-7c-1-4-1-8 3-12a4 4 0 0 1 4-1z" class="cls-7"/>
      </g>
    </g>
  </g>
</svg>
