<svg xmlns="http://www.w3.org/2000/svg" xmlns:xlink="http://www.w3.org/1999/xlink" viewBox="0 0 2407.01 1757.03"><defs><style>.cls-1{fill:url(#radial-gradient);}.cls-2{fill:#fff;}.cls-3{opacity:0.5;}.cls-4{fill:#f1e5e6;}</style><radialGradient id="radial-gradient" cx="1189.87" cy="587.7" r="787.04" gradientUnits="userSpaceOnUse"><stop offset="0" stop-color="#f5edee"/><stop offset="0.41" stop-color="#f1e5e6"/><stop offset="1" stop-color="#efdfe0"/></radialGradient></defs><title>crowns__decor</title><g id="Layer_2" data-name="Layer 2"><g id="_6" data-name="6"><path class="cls-1" d="M2149.87,1151h-1920V24.45S440,188,620.91,194.82l10.75.41c114.06,4.38,200.85,45.28,287.88,70.48,61,17.65,130.76-2,182.33,12.5l16.25,4.57c218.38,61.45,249.18,228.6,537.05,131.89,256-86,494.7,122.75,494.7,122.75Z"/><path class="cls-2" d="M1631.73,897.11c-172.61,31.55-604,259.78-675.32,95.38C932.58,937.55,847,841.84,803.21,801c-36.67-34.16-128.15-72.44-177.14-83-130.76-28.26-302.16,32.62-396.2,125.88V1757h1920V1128.35C2163.27,991.7,1914.87,845.36,1631.73,897.11Z"/><g class="cls-3"><path class="cls-4" d="M2107.56,734.53C2250.85,734.53,2367,850.69,2367,994s-116.16,259.45-259.45,259.45S1848.12,1137.26,1848.12,994s116.16-259.44,259.44-259.44m0-40a298.63,298.63,0,1,0,116.57,23.55,297.5,297.5,0,0,0-116.57-23.55Z"/></g><g class="cls-3"><path class="cls-4" d="M471.89,40a149,149,0,1,1-149,149,149,149,0,0,1,149-149m0-40A189,189,0,0,0,338.24,322.67,189,189,0,1,0,545.48,14.87,187.84,187.84,0,0,0,471.89,0Z"/></g><g class="cls-3"><path class="cls-4" d="M866.61,517.56c135.75,0,245.8,110.05,245.8,245.8s-110.05,245.8-245.8,245.8-245.8-110-245.8-245.8,110.05-245.8,245.8-245.8m0-40A285.06,285.06,0,1,0,977.87,500a284,284,0,0,0-111.26-22.48Z"/></g><g class="cls-3"><path class="cls-4" d="M1956.53,181.12a67.26,67.26,0,1,1-67.27,67.26,67.26,67.26,0,0,1,67.27-67.26m0-40a107.26,107.26,0,1,0,75.84,31.41,106.56,106.56,0,0,0-75.84-31.41Z"/></g><g class="cls-3"><path class="cls-4" d="M263.44,955.64c123.4,0,223.43,100,223.43,223.44s-100,223.44-223.43,223.44S40,1302.48,40,1179.08,140,955.64,263.44,955.64m0-40A262.77,262.77,0,1,0,366,936.36a261.83,261.83,0,0,0-102.55-20.72Z"/></g></g></g></svg>