<svg xmlns="http://www.w3.org/2000/svg" xmlns:xlink="http://www.w3.org/1999/xlink" viewBox="0 0 1408.43 1408.43"><defs><style>.cls-1{fill:url(#radial-gradient);}</style><radialGradient id="radial-gradient" cx="50.68" cy="756.52" r="1224.22" gradientUnits="userSpaceOnUse"><stop offset="0" stop-color="#9344ff"/><stop offset="0.52" stop-color="#0078ff"/><stop offset="1" stop-color="#00c8ff"/></radialGradient></defs><title>emax__decor</title><g id="Layer_2" data-name="Layer 2"><g id="_6" data-name="6"><path class="cls-1" d="M704.21,40a661,661,0,0,1,371.35,113.41,666.23,666.23,0,0,1,240.69,292.27A663.36,663.36,0,0,1,1255,1075.56a666.16,666.16,0,0,1-292.28,240.69A663.31,663.31,0,0,1,332.87,1255,666.16,666.16,0,0,1,92.18,962.74a663.31,663.31,0,0,1,61.23-629.87A666.23,666.23,0,0,1,445.68,92.18,660.15,660.15,0,0,1,704.21,40m0-40C315.29,0,0,315.29,0,704.21s315.29,704.22,704.21,704.22,704.22-315.29,704.22-704.22S1093.14,0,704.21,0Z"/></g></g></svg>