<svg xmlns="http://www.w3.org/2000/svg" xmlns:xlink="http://www.w3.org/1999/xlink" viewBox="0 0 2769.17 2142.14"><defs><style>.cls-1,.cls-3{opacity:0.5;}.cls-2{fill:#e9e9e9;}.cls-3{fill:url(#radial-gradient);}.cls-4{opacity:0.25;}</style><radialGradient id="radial-gradient" cx="2218.13" cy="1410.26" r="1439.94" gradientUnits="userSpaceOnUse"><stop offset="0" stop-color="#f1f1f1"/><stop offset="0.52" stop-color="#e9e9e9"/><stop offset="0.96" stop-color="silver"/></radialGradient></defs><title>emax__features_bg</title><g id="Layer_2" data-name="Layer 2"><g id="_6" data-name="6"><g class="cls-1"><path class="cls-2" d="M470,860.66a428.59,428.59,0,1,1-167.37,33.78A427.21,427.21,0,0,1,470,860.66m0-40c-259.58,0-470,210.44-470,470s210.44,470,470,470,470-210.44,470-470-210.44-470-470-470Z"/></g><path class="cls-3" d="M2227.25,2135.66s-224.06-154.34-500.34-154.35c-323.89,0-744.65,160.79-935.12,160.83-334,.07-484.54-131.44-484.54-131.44L304.09,717.94s214.6-71.84,456-22.67c380.35,77.47,878.82,300.54,1101,200.78,220.49-99,362.94-289.49,362.94-289.49Z"/><g class="cls-1"><path class="cls-2" d="M2170.06,1554.48a129.06,129.06,0,1,1-91.24,37.8,128.17,128.17,0,0,1,91.24-37.8m0-40a169,169,0,1,0,169,169,169,169,0,0,0-169-169Z"/></g><g class="cls-1"><path class="cls-2" d="M2312.13,40a417.15,417.15,0,0,1,162.32,801.31A417.15,417.15,0,0,1,2149.82,72.76,414.24,414.24,0,0,1,2312.13,40m0-40c-252.41,0-457,204.62-457,457s204.62,457,457,457,457-204.62,457-457S2564.55,0,2312.13,0Z"/></g><g class="cls-4"><path class="cls-2" d="M664.09,207.11a117.07,117.07,0,1,1-82.77,34.29,116.31,116.31,0,0,1,82.77-34.29m0-40A157.06,157.06,0,1,0,821.15,324.17,157.06,157.06,0,0,0,664.09,167.11Z"/></g></g></g></svg>