<svg xmlns="http://www.w3.org/2000/svg" xmlns:xlink="http://www.w3.org/1999/xlink" viewBox="0 0 2286.19 956.5"><defs><style>.cls-1{fill:url(#radial-gradient);}.cls-2{opacity:0.5;}.cls-3{fill:#e0e7f3;}</style><radialGradient id="radial-gradient" cx="1076.33" cy="294.82" r="893.81" gradientUnits="userSpaceOnUse"><stop offset="0" stop-color="#ecf0f7"/><stop offset="0.52" stop-color="#e0e7f3"/><stop offset="1" stop-color="#cfdaed"/></radialGradient></defs><title>guarantee-reason__bg</title><g id="Layer_2" data-name="Layer 2"><g id="Background"><path class="cls-1" d="M1076.33,139.57C368.45,139.57,116.33,0,116.33,0V450.08s252.12,139.57,960,139.57c837.05,0,960-139.57,960-139.57V0S1913.38,139.57,1076.33,139.57Z"/></g><g id="Pho"><g class="cls-2"><path class="cls-3" d="M2038.29,127.05a129,129,0,1,1-91.24,37.8,128.15,128.15,0,0,1,91.24-37.8m0-40a169,169,0,1,0,169,169,169,169,0,0,0-169-169Z"/></g><g class="cls-2"><path class="cls-3" d="M313.23,326.73A129,129,0,1,1,222,364.52a128.18,128.18,0,0,1,91.24-37.79m0-40a169,169,0,1,0,169,169,169,169,0,0,0-169-169Z"/></g><g class="cls-2"><path class="cls-3" d="M1951.28,326.68a293.85,293.85,0,1,1-114.78,23.16,293,293,0,0,1,114.78-23.16m0-40c-185,0-334.9,149.94-334.9,334.91s149.94,334.91,334.9,334.91,334.91-150,334.91-334.91-149.94-334.91-334.91-334.91Z"/></g><g class="cls-2"><path class="cls-3" d="M313.23,182.53A272.28,272.28,0,1,1,206.89,204a271.4,271.4,0,0,1,106.34-21.46m0-40C140.24,142.53,0,282.77,0,455.77S140.24,769,313.23,769,626.46,628.76,626.46,455.77,486.23,142.53,313.23,142.53Z"/></g></g></g></svg>