<svg xmlns="http://www.w3.org/2000/svg" viewBox="0 0 2243.72 646.16"><defs><style>.cls-1{opacity:0.5;}.cls-2{fill:#e0e7f3;}</style></defs><title>guarantee__img</title><g id="Layer_2" data-name="Layer 2"><g id="Shapes"><g class="cls-1"><path class="cls-2" d="M1662.59,168.33c25.79,0,52.2,6.12,80,13l2,54.79a188.26,188.26,0,0,1-22.79,89.1,213.7,213.7,0,0,1-59.21,68.67,213.67,213.67,0,0,1-59.2-68.67,188.26,188.26,0,0,1-22.8-89.79V181.81c28.54-7.07,55.6-13.48,82-13.48m0-40c-34,0-67.47,8.68-99.94,16.72-13,3.23-22.06,14.08-22.06,26.4v64c0,76.72,38.86,148.21,103.7,194.65a32,32,0,0,0,36.61,0c64.84-46.44,103.7-117.93,103.7-194.65l-2.29-62.76c0-12.32-6.75-24.38-19.77-27.61-32.47-8-65.93-16.72-100-16.72Z"/></g><g class="cls-1"><path class="cls-2" d="M616.76,394.28c16.51,0,33.82,3.58,52,8L670,436.8a134.61,134.61,0,0,1-16.3,63.49,152.69,152.69,0,0,1-36.93,44.88,152.88,152.88,0,0,1-36.94-44.88,134.67,134.67,0,0,1-16.3-64.17V402.55c18.61-4.52,36.34-8.27,53.24-8.27m0-40c-26,0-51.57,6.63-76.38,12.78-10,2.47-16.86,10.76-16.86,20.17v48.89c0,58.63,29.69,113.27,79.25,148.76a24.49,24.49,0,0,0,28,0C680.3,549.39,710,494.75,710,436.12l-1.75-48c0-9.42-5.15-18.63-15.1-21.1-24.82-6.15-50.39-12.78-76.38-12.78Z"/></g><g class="cls-1"><path class="cls-2" d="M234.88,40c57.85,0,117.36,14.77,174.92,29.06l7.87,2a7.39,7.39,0,0,1,4.79,3.41,20.14,20.14,0,0,1,2.88,10.91v.73l0,.73,4.38,120.08a397.84,397.84,0,0,1-12.39,97.67,409.88,409.88,0,0,1-35.87,92A433.88,433.88,0,0,1,324,478.91a462.88,462.88,0,0,1-77.18,69.49,21.8,21.8,0,0,1-23.91,0,463.28,463.28,0,0,1-77.18-69.49,433.88,433.88,0,0,1-57.48-82.4,410.35,410.35,0,0,1-35.87-92A397.78,397.78,0,0,1,40,206.16V83c0-5.21,5.08-10.26,12.08-12l7.88-2C117.51,54.77,177,40,234.88,40m0-40C169.39,0,105,16.7,42.46,32.19,17.39,38.4,0,59.3,0,83V206.16C0,353.87,74.8,491.5,199.63,580.91a61.69,61.69,0,0,0,70.49,0C395,491.5,469.75,353.87,469.75,206.16L465.34,85.34c0-23.72-13-46.94-38-53.15C364.77,16.7,300.36,0,234.88,0Z"/></g><g class="cls-1"><path class="cls-2" d="M2076.92,265.76c39.67,0,81.24,10.32,121.43,20.3l2.24.56v.48l0,.72,3.1,85.06a270.42,270.42,0,0,1-8.44,66.29,279.46,279.46,0,0,1-24.46,62.71c-21.54,40.22-53.41,76.16-92.16,103.91a4.28,4.28,0,0,1-3.48,0C2036.43,578,2004.56,542.1,1983,501.88a279.46,279.46,0,0,1-24.46-62.71,270.76,270.76,0,0,1-8.44-67V287.39l5.37-1.33c40.2-10,81.76-20.3,121.43-20.3m0-40c-46.51,0-92.25,11.86-136.64,22.86-17.81,4.41-30.16,19.25-30.16,36.1v87.45c0,104.9,53.12,202.64,141.77,266.14a43.83,43.83,0,0,0,50.06,0c88.65-63.5,141.77-161.24,141.77-266.14l-3.13-85.8c0-16.85-9.21-33.34-27-37.75-44.4-11-90.14-22.86-136.65-22.86Z"/></g></g></g></svg>