<svg xmlns="http://www.w3.org/2000/svg" xmlns:xlink="http://www.w3.org/1999/xlink" viewBox="0 0 2293.76 1616.54"><defs><style>.cls-1,.cls-4{opacity:0.5;}.cls-2{fill:#e0e7f3;}.cls-3{opacity:0.25;}.cls-4{fill:url(#radial-gradient);}</style><radialGradient id="radial-gradient" cx="-718.85" cy="-179.46" r="2894.47" gradientUnits="userSpaceOnUse"><stop offset="0" stop-color="#ecf0f7"/><stop offset="0.52" stop-color="#e0e7f3"/><stop offset="1" stop-color="#cfdaed"/></radialGradient></defs><title>intro__bg</title><g id="Layer_2" data-name="Layer 2"><g id="_6" data-name="6"><g class="cls-1"><path class="cls-2" d="M2034.32,1137.65a218.64,218.64,0,1,1-85.4,17.23,218.11,218.11,0,0,1,85.4-17.23m0-40c-143.28,0-259.44,116.16-259.44,259.44s116.16,259.45,259.44,259.45,259.44-116.16,259.44-259.45-116.15-259.44-259.44-259.44Z"/></g><g class="cls-1"><path class="cls-2" d="M340.46,751.27a299.36,299.36,0,1,1-116.94,23.59,298.44,298.44,0,0,1,116.94-23.59m0-40C152.43,711.27,0,863.69,0,1051.72s152.43,340.46,340.46,340.46,340.45-152.43,340.45-340.46S528.48,711.27,340.46,711.27Z"/></g><g class="cls-1"><path class="cls-2" d="M1867.32,659.49a27.27,27.27,0,1,1-27.26,27.26,27.29,27.29,0,0,1,27.26-27.26m0-40a67.27,67.27,0,1,0,67.27,67.26,67.26,67.26,0,0,0-67.27-67.26Z"/></g><g class="cls-3"><path class="cls-2" d="M1768.77,40a58.13,58.13,0,1,1-58.13,58.13A58.2,58.2,0,0,1,1768.77,40m0-40a98.13,98.13,0,1,0,98.13,98.13A98.12,98.12,0,0,0,1768.77,0Z"/></g><path class="cls-4" d="M1513.83,855.53q-17.86.47-35.79,0c-375.12-9.44-762.4-309.78-977.25-309.78-166.49,0-265.62,99.11-265.62,99.11v834S499.75,1162.23,744.8,1168c357.06,8.33,652.37,236.24,970.93,236.24,300,0,439.44-105.36,439.44-105.36v-660S1854.91,846.69,1513.83,855.53Z"/></g></g></svg>