<svg xmlns="http://www.w3.org/2000/svg" viewBox="0 0 83.84 95.27"><defs><style>.cls-1{fill:#ff6c35;}.cls-2,.cls-4{fill:none;stroke:#ff6c35;}.cls-2,.cls-3{stroke-miterlimit:10;}.cls-2,.cls-3,.cls-4{stroke-width:4px;}.cls-3{fill:#fff;stroke:#00d6ff;}.cls-4{stroke-linecap:round;stroke-linejoin:round;}</style></defs><title>intro__smile</title><g id="Layer_2" data-name="Layer 2"><g id="_5" data-name="5"><path class="cls-1" d="M41.92,11.42A41.93,41.93,0,1,0,83.84,53.34,42,42,0,0,0,41.92,11.42Zm0,80.2A38.28,38.28,0,1,1,80.2,53.34,38.32,38.32,0,0,1,41.92,91.62Z"/><path class="cls-2" d="M20,51.94c0,4.05,3.29,5.41,7.34,5.41s7.34-1.36,7.34-5.41a7.34,7.34,0,0,0-14.68,0Z"/><path class="cls-2" d="M49.17,51.94c0,4.05,3.28,5.41,7.33,5.41s7.34-1.36,7.34-5.41a7.34,7.34,0,0,0-14.67,0Z"/><path class="cls-3" d="M2,26.68a9.39,9.39,0,1,0,18.78,0c0-5.19-9.39-22.49-9.39-22.49S2,21.49,2,26.68Z"/><path class="cls-4" d="M22.59,70.54c5.34,5.34,12.34-1.24,19.33-1.24s14,6.58,19.34,1.24"/><path class="cls-4" d="M25.42,34.6A5.41,5.41,0,0,1,20,40"/><path class="cls-4" d="M58.42,34.6A5.42,5.42,0,0,0,63.84,40"/></g></g></svg>