<svg xmlns="http://www.w3.org/2000/svg" xmlns:xlink="http://www.w3.org/1999/xlink" viewBox="0 0 2624.45 1557.12"><defs><style>.cls-1{opacity:0.35;fill:url(#radial-gradient);}.cls-2{opacity:0.5;}.cls-3{fill:#e9e9e9;}</style><radialGradient id="radial-gradient" cx="1520.02" cy="1350.55" r="966.3" gradientUnits="userSpaceOnUse"><stop offset="0" stop-color="#f1f1f1"/><stop offset="0.52" stop-color="#e9e9e9"/><stop offset="0.96" stop-color="silver"/></radialGradient></defs><title>life-change__bg</title><g id="Layer_2" data-name="Layer 2"><g id="Background"><path class="cls-1" d="M2120,832.58c-246.4,2-313.74-32.25-564.91,5.34-237.32,35.52-440.26-43.1-675.54-4.5-114,18.71-226.32,2.26-291-12.07C490,799.48,470,747.85,470,747.85v651.38s20-51.62,118.6-73.49c64.63-14.33,177-30.78,291-12.07,235.28,38.6,438.22-40,675.54-4.5,251.17,37.59,318.51,3.38,564.91,5.34,189,1.5,253.47,44.47,270,84.72V747.85C2373.49,788.11,2309,831.08,2120,832.58Z"/></g><g id="Pho"><g class="cls-2"><path class="cls-3" d="M470,317.83a428.59,428.59,0,1,1-167.37,33.78A427.21,427.21,0,0,1,470,317.83m0-40c-259.58,0-470,210.44-470,470s210.44,470,470,470,470-210.44,470-470-210.44-470-470-470Z"/></g><g class="cls-2"><path class="cls-3" d="M2246,1259.05a129,129,0,1,1-91.24,37.79,128.2,128.2,0,0,1,91.24-37.79m0-40a169,169,0,1,0,169,169,169,169,0,0,0-169-169Z"/></g><g class="cls-2"><path class="cls-3" d="M2455.41,40a129,129,0,0,1,91.24,220.28A129,129,0,0,1,2364.17,77.79,128.18,128.18,0,0,1,2455.41,40m0-40a169,169,0,1,0,169,169,169,169,0,0,0-169-169Z"/></g><g class="cls-2"><path class="cls-3" d="M2000,227.77a38.14,38.14,0,1,1-38.13,38.14A38.18,38.18,0,0,1,2000,227.77m0-40a78.14,78.14,0,1,0,78.14,78.14A78.13,78.13,0,0,0,2000,187.77Z"/></g><g class="cls-2"><path class="cls-3" d="M2286.38,455.14a245.45,245.45,0,1,1-95.88,19.34,244.81,244.81,0,0,1,95.88-19.34m0-40c-158.15,0-286.36,128.2-286.36,286.35s128.21,286.35,286.36,286.35,286.35-128.2,286.35-286.35-128.21-286.35-286.35-286.35Z"/></g></g></g></svg>