<svg xmlns="http://www.w3.org/2000/svg" viewBox="0 0 2307.74 745.91"><defs><style>.cls-1{fill:#e0e7f3;}.cls-2{opacity:0.5;}.cls-3{fill:#f1e5e6;}</style></defs><title>math__bg</title><g id="Layer_2" data-name="Layer 2"><g id="_6" data-name="6"><path class="cls-1" d="M373,40A333.05,333.05,0,0,1,502.54,679.76,333,333,0,0,1,243.37,66.15,330.84,330.84,0,0,1,373,40m0-40C167,0,0,167,0,373s167,373,373,373,373-167,373-372.95S578.93,0,373,0Z"/><g class="cls-2"><path class="cls-3" d="M1934.78,40a333.05,333.05,0,0,1,129.59,639.76A333,333,0,0,1,1805.2,66.15,330.82,330.82,0,0,1,1934.78,40m0-40c-206,0-373,167-373,373s167,373,373,373,373-167,373-372.95-167-373-373-373Z"/></g></g></g></svg>