<svg xmlns="http://www.w3.org/2000/svg" xmlns:xlink="http://www.w3.org/1999/xlink" viewBox="0 0 1972.25 737.57"><defs><style>.cls-1{opacity:0.5;fill:url(#radial-gradient);}.cls-2{fill:#e9e9e9;}</style><radialGradient id="radial-gradient" cx="570.03" cy="8639.58" r="966.45" gradientUnits="userSpaceOnUse"><stop offset="0" stop-color="#f1f1f1"/><stop offset="0.52" stop-color="#e9e9e9"/><stop offset="0.96" stop-color="silver"/></radialGradient></defs><title>meeting__bg</title><g id="Layer_2" data-name="Layer 2"><g id="_6" data-name="6"><path class="cls-1" d="M1170,8093.25c-246.41,2-313.74-32.25-564.91,5.34-237.32,35.52-440.27-43.1-675.54-4.5-114,18.7-226.32,2.26-290.95-12.07-98.62-21.87-118.6-73.5-118.6-73.5v682s20-51.63,118.6-73.5c64.63-14.33,177-30.78,291-12.07,235.27,38.6,438.22-40,675.54-4.5,251.17,37.59,318.5,3.38,564.91,5.34,189,1.5,253.47,44.47,270,84.73v-682C1423.5,8048.78,1359,8091.75,1170,8093.25Z" transform="translate(532.22 -7953)"/><path class="cls-2" d="M-272.77,7993a217.88,217.88,0,0,1,85.4,17.23,218.55,218.55,0,0,1,69.76,47A218.8,218.8,0,0,1-70.56,8127a218.11,218.11,0,0,1,17.23,85.41,218,218,0,0,1-17.23,85.4,218.73,218.73,0,0,1-47,69.77,218.71,218.71,0,0,1-69.76,47,218.06,218.06,0,0,1-85.4,17.23,218.07,218.07,0,0,1-85.41-17.23,218.71,218.71,0,0,1-69.76-47A218.73,218.73,0,0,1-475,8297.84a218,218,0,0,1-17.23-85.4A218.11,218.11,0,0,1-475,8127a218.8,218.8,0,0,1,47.05-69.76,218.55,218.55,0,0,1,69.76-47A217.89,217.89,0,0,1-272.77,7993m0-40c-143.29,0-259.45,116.15-259.45,259.44s116.16,259.44,259.45,259.44,259.44-116.16,259.44-259.44S-129.49,7953-272.77,7953Z" transform="translate(532.22 -7953)"/><path class="cls-2" d="M1261.51,8029a71.71,71.71,0,1,1-71.7,71.71,71.79,71.79,0,0,1,71.7-71.71m0-40a111.71,111.71,0,1,0,111.71,111.71A111.71,111.71,0,0,0,1261.51,7989Z" transform="translate(532.22 -7953)"/></g></g></svg>