<svg xmlns="http://www.w3.org/2000/svg" xmlns:xlink="http://www.w3.org/1999/xlink" viewBox="0 0 2185.7 1081.94"><defs><style>.cls-1,.cls-2{opacity:0.5;}.cls-1{fill:url(#radial-gradient);}.cls-3{fill:#e9e9e9;}</style><radialGradient id="radial-gradient" cx="1225.7" cy="407.07" r="1236.73" gradientTransform="matrix(-1, 0, 0, 1, 2451.39, 0)" gradientUnits="userSpaceOnUse"><stop offset="0" stop-color="#f1f1f1"/><stop offset="0.52" stop-color="#e9e9e9"/><stop offset="0.96" stop-color="silver"/></radialGradient></defs><title>model__bg</title><g id="Layer_2" data-name="Layer 2"><g id="Background"><path class="cls-1" d="M265.7,806.6S488.18,653.33,764.45,653.32c323.9,0,744.65,160.79,935.13,160.82,334,.07,486.12-131.26,486.12-131.26V0c-257.4,304.31-809.8,304.49-1158.93,218.85C515.85,93.52,265.7,407.07,265.7,407.07Z"/><g class="cls-2"><path class="cls-3" d="M257.93,606.09a217.11,217.11,0,1,1-84.82,17.11,216.58,216.58,0,0,1,84.82-17.11m0-40C115.48,566.09,0,681.57,0,824s115.48,257.92,257.93,257.92S515.85,966.47,515.85,824,400.37,566.09,257.93,566.09Z"/></g><g class="cls-2"><path class="cls-3" d="M1919.58,307.18a168.68,168.68,0,1,1-119.27,49.41,167.58,167.58,0,0,1,119.27-49.41m0-40c-115.24,0-208.67,93.43-208.67,208.68s93.43,208.68,208.67,208.68,208.68-93.43,208.68-208.68-93.43-208.68-208.68-208.68Z"/></g><g class="cls-2"><path class="cls-3" d="M1653.81,734.38a64.95,64.95,0,1,1-65,65,65,65,0,0,1,65-65m0-40a105,105,0,1,0,105,105,105,105,0,0,0-105-105Z"/></g><g class="cls-2"><path class="cls-3" d="M601.69,319.17a93.3,93.3,0,1,1-93.3,93.3,93.4,93.4,0,0,1,93.3-93.3m0-40A133.3,133.3,0,1,0,735,412.47a133.3,133.3,0,0,0-133.29-133.3Z"/></g></g></g></svg>