<svg xmlns="http://www.w3.org/2000/svg" xmlns:xlink="http://www.w3.org/1999/xlink" viewBox="0 0 2272.47 3132.69"><defs><style>.cls-1{fill:url(#radial-gradient);}.cls-2{opacity:0.5;}.cls-3{fill:#e9e9e9;}</style><radialGradient id="radial-gradient" cx="1222.28" cy="1838.97" r="2722.28" gradientUnits="userSpaceOnUse"><stop offset="0" stop-color="#f1f1f1"/><stop offset="0.52" stop-color="#e9e9e9"/><stop offset="0.96" stop-color="silver"/></radialGradient></defs><title>multilayer__bg</title><g id="Layer_2" data-name="Layer 2"><g id="_6" data-name="6"><path class="cls-1" d="M2272.47,1177.57c0-122-374.89-308.91-676-289-257,17-523.93-8.36-513.06-250.58,7.68-171.24-78.65-268.57-189.67-345C731.64,181.42,352.47,235.18,352.47,0V1766.86l-.92,952.26s274.05,193.59,960,193.59c661,0,960.31-193.59,960.31-193.59l-.31-947.85a16,16,0,0,0,.92-4.41Z"/><g class="cls-2"><path class="cls-3" d="M286.35,2600a245.52,245.52,0,1,1-95.88,19.35A244.69,244.69,0,0,1,286.35,2600m0-40C128.2,2560,0,2688.19,0,2846.33s128.2,286.36,286.35,286.36S572.7,3004.48,572.7,2846.33,444.5,2560,286.35,2560Z"/></g></g></g></svg>