<svg xmlns="http://www.w3.org/2000/svg" xmlns:xlink="http://www.w3.org/1999/xlink" viewBox="0 0 2455.43 1115.83"><defs><style>.cls-1{fill:url(#radial-gradient);}.cls-2{opacity:0.5;}.cls-3{fill:#e0e7f3;}.cls-4{opacity:0.58;}.cls-5{fill:#fff;}.cls-6{opacity:0.69;}.cls-7{opacity:0.43;}.cls-8{opacity:0.57;}.cls-9{opacity:0.87;}.cls-10{opacity:0.6;}.cls-11{opacity:0.49;}</style><radialGradient id="radial-gradient" cx="1208.57" cy="486.01" r="1311.1" gradientUnits="userSpaceOnUse"><stop offset="0" stop-color="#ecf0f7"/><stop offset="0.52" stop-color="#e0e7f3"/><stop offset="1" stop-color="#cfdaed"/></radialGradient></defs><title>price__bg</title><g id="Layer_2" data-name="Layer 2"><g id="_6" data-name="6"><path class="cls-1" d="M2168.57,842.29s-139.45,222.84-439.43,222.84c-318.57,0-599.12-197.6-956.28-197.6-471.57,0-524.29,248.3-524.29,248.3V226.17s99.14-99.1,265.63-99.1c221.69,0,627,281.2,1013,271.2,341.07-8.83,641.33-215.95,641.33-215.95Z"/><g class="cls-2"><path class="cls-3" d="M259.44,143.34A218.58,218.58,0,1,1,174,160.56a218.1,218.1,0,0,1,85.4-17.22m0-40C116.16,103.34,0,219.49,0,362.78S116.16,622.22,259.44,622.22,518.88,506.06,518.88,362.78,402.73,103.34,259.44,103.34Z"/></g><g class="cls-2"><path class="cls-3" d="M2168.66,754.07a114.17,114.17,0,1,1-80.73,33.44,113.42,113.42,0,0,1,80.73-33.44m0-40a154.17,154.17,0,1,0,154.16,154.17,154.16,154.16,0,0,0-154.16-154.17Z"/></g><g class="cls-2"><path class="cls-3" d="M2170.43,40a245.07,245.07,0,0,1,95.35,470.76,245.07,245.07,0,0,1-190.7-451.52A243.34,243.34,0,0,1,2170.43,40m0-40c-157.4,0-285,127.6-285,285s127.6,285,285,285,285-127.6,285-285-127.6-285-285-285Z"/></g></g><g id="_5" data-name="5"><g class="cls-4"><path class="cls-5" d="M1353.4,593.6v-9.73L1376,560.62q7.56-7.93,7.56-13.22a8.33,8.33,0,0,0-2.41-6.24,8.48,8.48,0,0,0-6.19-2.36q-7.45,0-11,7.75l-11-6.43a23.09,23.09,0,0,1,9-10.39,24.12,24.12,0,0,1,12.85-3.59,22.6,22.6,0,0,1,15.4,5.62q6.42,5.63,6.42,15.16,0,10.3-10.87,21.17L1372.77,581h24.85V593.6Z"/><path class="cls-5" d="M1429.84,594.92q-12.37,0-19.42-9.4t-7-25q0-15.59,7-25t19.42-9.4q12.47,0,19.46,9.4t7,25q0,15.59-7,25T1429.84,594.92Zm-10-18.28a11.85,11.85,0,0,0,20.08,0q3.45-5.58,3.45-16.06t-3.45-16.16a11.83,11.83,0,0,0-20.08,0q-3.4,5.58-3.4,16.16T1419.82,576.64Z"/><path class="cls-5" d="M1516.57,554.29a22.2,22.2,0,0,1,10.91,7,17.87,17.87,0,0,1,4.21,12q0,10.2-6.85,16a25.19,25.19,0,0,1-16.77,5.76,27.08,27.08,0,0,1-13.85-3.54,20.38,20.38,0,0,1-8.83-10.44l11.15-6.43q2.46,7.65,11.53,7.66c3.33,0,5.93-.81,7.79-2.41a9.07,9.07,0,0,0,0-13.09q-2.79-2.46-7.79-2.46h-2.84l-5-7.55,13-17h-25.88V527.46H1529v10.77Z"/><path class="cls-5" d="M1564.47,594.92q-12.37,0-19.41-9.4t-7-25q0-15.59,7-25t19.41-9.4q12.48,0,19.46,9.4t7,25q0,15.59-7,25T1564.47,594.92Zm-10-18.28a11.84,11.84,0,0,0,20.07,0Q1578,571,1578,560.53t-3.45-16.16a11.13,11.13,0,0,0-10.06-5.57,11,11,0,0,0-10,5.57q-3.4,5.58-3.4,16.16T1554.46,576.64Z"/><path class="cls-5" d="M1624,594.92q-12.37,0-19.41-9.4t-7-25q0-15.59,7-25t19.41-9.4q12.48,0,19.47,9.4t7,25q0,15.59-7,25T1624,594.92Zm-10-18.28a11.85,11.85,0,0,0,20.08,0q3.43-5.58,3.45-16.06t-3.45-16.16A11.14,11.14,0,0,0,1624,538.8a11,11,0,0,0-10,5.57q-3.4,5.58-3.4,16.16T1614,576.64Z"/></g><g class="cls-6"><path class="cls-5" d="M761.12,477.94v-9.81l22.75-23.41q7.61-8,7.61-13.32a8.4,8.4,0,0,0-2.43-6.28,8.49,8.49,0,0,0-6.23-2.38q-7.52,0-11.13,7.8l-11-6.47a23.3,23.3,0,0,1,9-10.47A24.29,24.29,0,0,1,782.63,410a22.77,22.77,0,0,1,15.51,5.66q6.48,5.67,6.47,15.27,0,10.38-10.94,21.32l-13,13h25v12.66Z"/><path class="cls-5" d="M861.71,454.43v12.18h-7.14v11.33H841.35V466.61h-31.5V454.43L832,411.32H846.1L824,454.43h17.32v-15.8h13.22v15.8Z"/><path class="cls-5" d="M916.81,479.27q-12.46,0-19.56-9.47t-7.09-25.17q0-15.7,7.09-25.17T916.81,410q12.56,0,19.6,9.47t7,25.17q0,15.71-7,25.17T916.81,479.27Zm-10.09-18.42a11.94,11.94,0,0,0,20.22,0q3.48-5.62,3.48-16.18t-3.48-16.28a11.91,11.91,0,0,0-20.22,0q-3.42,5.63-3.42,16.28T906.72,460.85Z"/><path class="cls-5" d="M976.76,479.27q-12.46,0-19.56-9.47t-7.09-25.17q0-15.7,7.09-25.17T976.76,410q12.56,0,19.6,9.47t7,25.17q0,15.71-7,25.17T976.76,479.27Zm-10.09-18.42a11.95,11.95,0,0,0,20.23,0q3.47-5.62,3.47-16.18t-3.47-16.28a11.92,11.92,0,0,0-20.23,0q-3.42,5.63-3.42,16.28T966.67,460.85Z"/><path class="cls-5" d="M1036.71,479.27q-12.46,0-19.55-9.47t-7.09-25.17q0-15.7,7.09-25.17t19.55-9.47q12.57,0,19.61,9.47t7,25.17q0,15.71-7,25.17T1036.71,479.27Zm-10.08-18.42a11.11,11.11,0,0,0,10.08,5.57,11.22,11.22,0,0,0,10.14-5.61q3.47-5.62,3.47-16.18t-3.47-16.28a11.22,11.22,0,0,0-10.14-5.61,11.08,11.08,0,0,0-10.08,5.61q-3.44,5.63-3.43,16.28T1026.63,460.85Z"/></g></g><g id="_1" data-name="1"><g class="cls-7"><path class="cls-5" d="M1581.6,885.89a25.76,25.76,0,0,1,12.68,8.07,20.75,20.75,0,0,1,4.89,13.89q0,11.85-8,18.55t-19.49,6.7a31.34,31.34,0,0,1-16.08-4.12,23.66,23.66,0,0,1-10.27-12.13l13-7.47q2.85,8.89,13.39,8.9c3.88,0,6.9-.94,9.06-2.8a10.55,10.55,0,0,0,0-15.21q-3.24-2.85-9.06-2.85h-3.29l-5.82-8.79,15.15-19.76h-30.08V854.71H1596v12.52Z"/><path class="cls-5" d="M1637.26,933.1q-14.37,0-22.56-10.93t-8.18-29q0-18.12,8.18-29t22.56-10.93q14.51,0,22.62,10.93t8.13,29q0,18.11-8.13,29T1637.26,933.1Zm-11.63-21.25a13.77,13.77,0,0,0,23.33-.05q4-6.48,4-18.66t-4-18.78a12.93,12.93,0,0,0-11.7-6.48,12.79,12.79,0,0,0-11.63,6.48q-4,6.48-4,18.78T1625.63,911.85Z"/><path class="cls-5" d="M1733.88,933.1q-14.39,0-22.56-10.93t-8.18-29q0-18.12,8.18-29t22.56-10.93q14.49,0,22.61,10.93t8.13,29q0,18.11-8.13,29T1733.88,933.1Zm-11.64-21.25a13.77,13.77,0,0,0,23.33-.05q4-6.48,4-18.66t-4-18.78a13.74,13.74,0,0,0-23.33,0q-4,6.48-4,18.78T1722.24,911.85Z"/><path class="cls-5" d="M1803,933.1q-14.38,0-22.56-10.93t-8.18-29q0-18.12,8.18-29T1803,853.17q14.51,0,22.62,10.93t8.12,29q0,18.11-8.12,29T1803,933.1Zm-11.63-21.25a12.8,12.8,0,0,0,11.63,6.43,12.94,12.94,0,0,0,11.7-6.48q4-6.48,4-18.66t-4-18.78a12.94,12.94,0,0,0-11.7-6.48,12.79,12.79,0,0,0-11.63,6.48q-4,6.48-4,18.78T1791.41,911.85Z"/><path class="cls-5" d="M1872.21,933.1q-14.39,0-22.56-10.93t-8.18-29q0-18.12,8.18-29t22.56-10.93q14.49,0,22.62,10.93t8.12,29q0,18.11-8.12,29T1872.21,933.1Zm-11.64-21.25a13.77,13.77,0,0,0,23.33-.05q4-6.48,4-18.66t-4-18.78a13.74,13.74,0,0,0-23.33,0q-3.94,6.48-4,18.78T1860.57,911.85Z"/></g><g class="cls-8"><path class="cls-5" d="M643.21,794.86V784.4l24.28-25q8.12-8.53,8.12-14.22a9,9,0,0,0-2.59-6.71,9.09,9.09,0,0,0-6.65-2.53q-8,0-11.88,8.32l-11.78-6.9a24.87,24.87,0,0,1,9.64-11.18,26,26,0,0,1,13.82-3.85,24.27,24.27,0,0,1,16.55,6q6.91,6,6.91,16.3,0,11.07-11.68,22.75L664,781.35h26.72v13.51Z"/><path class="cls-5" d="M712.68,723.77h12.19v71.09h-14V738.6l-13.41,3.75-3.45-12Z"/><path class="cls-5" d="M786,749.67a25.29,25.29,0,0,1,17.27,6.14q7,6.15,7,17.12t-7.37,17.16q-7.35,6.2-18,6.2a29.66,29.66,0,0,1-15.24-3.86,22.13,22.13,0,0,1-9.55-11.38l12-7q2.64,8.54,12.8,8.53,5.39,0,8.38-2.59a8.84,8.84,0,0,0,3-7.05,9,9,0,0,0-2.94-7,11.6,11.6,0,0,0-8-2.64H763.77l2.85-39.51h40.32v13.1H779.62l-.92,12.8Z"/><path class="cls-5" d="M844.62,796.29q-13.3,0-20.87-10.11t-7.57-26.86q0-16.77,7.57-26.87t20.87-10.1q13.39,0,20.92,10.1t7.52,26.87q0,16.75-7.52,26.86T844.62,796.29Zm-10.77-19.66a12.74,12.74,0,0,0,21.58,0q3.71-6,3.71-17.26T855.43,742a12.71,12.71,0,0,0-21.58,0q-3.66,6-3.66,17.37T833.85,776.63Z"/><path class="cls-5" d="M908.6,796.29q-13.3,0-20.87-10.11t-7.57-26.86q0-16.77,7.57-26.87t20.87-10.1q13.41,0,20.93,10.1T937,759.32q0,16.75-7.51,26.86T908.6,796.29Zm-10.76-19.66a12.74,12.74,0,0,0,21.58,0q3.71-6,3.71-17.26T919.42,742a12,12,0,0,0-10.82-6,11.81,11.81,0,0,0-10.76,6q-3.66,6-3.66,17.37T897.84,776.63Z"/></g><g class="cls-8"><path class="cls-5" d="M1528.35,445.8h4.16v24.25h-4.78V450.86l-4.58,1.28-1.17-4.09Z"/><path class="cls-5" d="M1544.7,454.63a8.62,8.62,0,0,1,5.89,2.1,7.36,7.36,0,0,1,2.38,5.84,7.22,7.22,0,0,1-2.51,5.85,9.2,9.2,0,0,1-6.14,2.11,10.17,10.17,0,0,1-5.2-1.31,7.47,7.47,0,0,1-3.25-3.88L1540,463q.9,2.91,4.37,2.91a4.21,4.21,0,0,0,2.85-.89,3.32,3.32,0,0,0,0-4.79,3.94,3.94,0,0,0-2.73-.9h-7.35l1-13.48h13.75v4.47h-9.32l-.31,4.36Z"/><path class="cls-5" d="M1572.34,454.63a8.58,8.58,0,0,1,5.88,2.1,7.34,7.34,0,0,1,2.39,5.84,7.22,7.22,0,0,1-2.51,5.85,9.2,9.2,0,0,1-6.14,2.11,10.17,10.17,0,0,1-5.2-1.31,7.47,7.47,0,0,1-3.25-3.88l4.08-2.39q.9,2.91,4.37,2.91a4.21,4.21,0,0,0,2.85-.89,3.32,3.32,0,0,0,0-4.79,4,4,0,0,0-2.74-.9h-7.34l1-13.48h13.75v4.47h-9.32l-.31,4.36Z"/><path class="cls-5" d="M1592.32,470.53a8.42,8.42,0,0,1-7.12-3.44c-1.72-2.3-2.58-5.36-2.58-9.16s.86-6.87,2.58-9.17a9.11,9.11,0,0,1,14.26,0c1.71,2.3,2.56,5.35,2.56,9.17s-.85,6.86-2.56,9.16A8.41,8.41,0,0,1,1592.32,470.53Zm-3.67-6.7a4.34,4.34,0,0,0,7.36,0,11.27,11.27,0,0,0,1.26-5.88A11.4,11.4,0,0,0,1596,452a4.34,4.34,0,0,0-7.36,0,11.5,11.5,0,0,0-1.25,5.93A11.38,11.38,0,0,0,1588.65,463.83Z"/><path class="cls-5" d="M1614.14,470.53a8.42,8.42,0,0,1-7.12-3.44c-1.72-2.3-2.58-5.36-2.58-9.16s.86-6.87,2.58-9.17a9.11,9.11,0,0,1,14.26,0c1.71,2.3,2.56,5.35,2.56,9.17s-.85,6.86-2.56,9.16A8.41,8.41,0,0,1,1614.14,470.53Zm-3.67-6.7a4.34,4.34,0,0,0,7.36,0,11.27,11.27,0,0,0,1.26-5.88,11.4,11.4,0,0,0-1.26-5.93,4.34,4.34,0,0,0-7.36,0,11.5,11.5,0,0,0-1.25,5.93A11.38,11.38,0,0,0,1610.47,463.83Z"/></g><g class="cls-9"><path class="cls-5" d="M1618.92,633.25h6.71V672.4h-7.72v-31l-7.38,2.07-1.91-6.6Z"/><path class="cls-5" d="M1645.59,646a14,14,0,0,1,9.91,3.94,14.13,14.13,0,0,1-.17,19.46,15.58,15.58,0,0,1-20.45,0,13.08,13.08,0,0,1-3.94-9.84,13.82,13.82,0,0,1,2.29-7.89l12.2-18.4h8.83Zm-5.14,18.23a6.49,6.49,0,0,0,4.64,1.73,6.58,6.58,0,0,0,4.67-1.73,6.6,6.6,0,0,0,0-9.23,7.18,7.18,0,0,0-9.31,0,6.72,6.72,0,0,0,0,9.26Z"/><path class="cls-5" d="M1704.21,646.06a13.62,13.62,0,0,1-2.35,7.94h.06l-12.2,18.4h-8.83l8.72-12.75a13.88,13.88,0,0,1-9.92-3.89,14.14,14.14,0,0,1,.11-19.49,15.73,15.73,0,0,1,20.47,0A13,13,0,0,1,1704.21,646.06Zm-20.69,0a6,6,0,0,0,1.87,4.64,7.1,7.1,0,0,0,9.31,0,6.72,6.72,0,0,0,0-9.26,6.66,6.66,0,0,0-4.69-1.7,6.57,6.57,0,0,0-4.62,1.73A6,6,0,0,0,1683.52,646.06Z"/><path class="cls-5" d="M1723.12,673.19a13.58,13.58,0,0,1-11.5-5.57q-4.17-5.57-4.16-14.79t4.16-14.8a14.69,14.69,0,0,1,23,0q4.14,5.57,4.14,14.8t-4.14,14.79A13.55,13.55,0,0,1,1723.12,673.19Zm-5.93-10.83a7,7,0,0,0,11.88,0q2-3.3,2-9.51t-2-9.57a7,7,0,0,0-11.88,0q-2,3.3-2,9.57T1717.19,662.36Z"/><path class="cls-5" d="M1758.35,673.19a13.57,13.57,0,0,1-11.49-5.57q-4.17-5.57-4.17-14.79t4.17-14.8a14.68,14.68,0,0,1,23,0q4.14,5.57,4.14,14.8t-4.14,14.79A13.55,13.55,0,0,1,1758.35,673.19Zm-5.93-10.83a7,7,0,0,0,11.89,0q2-3.3,2-9.51t-2-9.57a7,7,0,0,0-11.89,0q-2,3.3-2,9.57T1752.42,662.36Z"/></g><g class="cls-10"><path class="cls-5" d="M852.91,322.11h5.31v31h-6.11V328.57l-5.84,1.63-1.5-5.22Z"/><path class="cls-5" d="M862,322.11h20v5.17l-10.49,25.8H865L875.21,328H862Z"/><path class="cls-5" d="M902.77,322.11h5.31v31H902V328.57l-5.84,1.63-1.5-5.22Z"/><path class="cls-5" d="M925.2,353.7a10.7,10.7,0,0,1-9.09-4.41q-3.3-4.4-3.3-11.7c0-4.86,1.1-8.77,3.3-11.7a11.61,11.61,0,0,1,18.2,0c2.18,2.93,3.28,6.84,3.28,11.7s-1.1,8.77-3.28,11.7A10.7,10.7,0,0,1,925.2,353.7Zm-4.69-8.56a5.55,5.55,0,0,0,9.4,0c1.08-1.74,1.62-4.24,1.62-7.52s-.54-5.82-1.62-7.56a5.21,5.21,0,0,0-4.71-2.61,5.15,5.15,0,0,0-4.69,2.61q-1.59,2.61-1.59,7.56C918.92,340.9,919.45,343.41,920.51,345.14Z"/><path class="cls-5" d="M953.07,353.7a10.73,10.73,0,0,1-9.09-4.41q-3.3-4.4-3.3-11.7c0-4.86,1.1-8.77,3.3-11.7a11.62,11.62,0,0,1,18.21,0c2.18,2.93,3.27,6.84,3.27,11.7s-1.09,8.77-3.27,11.7A10.73,10.73,0,0,1,953.07,353.7Zm-4.69-8.56a5.55,5.55,0,0,0,9.4,0c1.08-1.74,1.62-4.24,1.62-7.52s-.54-5.82-1.62-7.56a5.54,5.54,0,0,0-9.4,0q-1.59,2.61-1.59,7.56C946.79,340.9,947.32,343.41,948.38,345.14Z"/></g><g class="cls-11"><path class="cls-5" d="M662,534h6.17v36H661V541.5l-6.79,1.91-1.75-6.07Z"/><path class="cls-5" d="M694.35,551.28a9.53,9.53,0,0,1,5,8.69,9.69,9.69,0,0,1-3.47,7.87q-3.48,2.88-9.44,2.88T677,567.84a9.72,9.72,0,0,1-3.44-7.87,9.56,9.56,0,0,1,4.94-8.69,8.72,8.72,0,0,1-3.76-7.46,9.5,9.5,0,0,1,3.37-7.77,13.91,13.91,0,0,1,16.69,0,9.54,9.54,0,0,1,3.35,7.77A8.66,8.66,0,0,1,694.35,551.28Zm-12.16,11.44a7.52,7.52,0,0,0,8.48,0,4.46,4.46,0,0,0,1.62-3.68,4.4,4.4,0,0,0-1.62-3.62,7.52,7.52,0,0,0-8.48,0,4.4,4.4,0,0,0-1.62,3.62A4.46,4.46,0,0,0,682.19,562.72Zm7.58-21.63a5.5,5.5,0,0,0-6.68,0,3.91,3.91,0,0,0-1.29,3.09,4,4,0,0,0,1.29,3.11,5.39,5.39,0,0,0,6.68,0,4,4,0,0,0,1.29-3.11A3.91,3.91,0,0,0,689.77,541.09Z"/><path class="cls-5" d="M736.43,551.28a9.55,9.55,0,0,1,5,8.69,9.67,9.67,0,0,1-3.48,7.87q-3.47,2.88-9.43,2.88T719,567.84a9.7,9.7,0,0,1-3.45-7.87,9.56,9.56,0,0,1,4.94-8.69,8.74,8.74,0,0,1-3.75-7.46,9.5,9.5,0,0,1,3.37-7.77,13.91,13.91,0,0,1,16.69,0,9.53,9.53,0,0,1,3.34,7.77A8.65,8.65,0,0,1,736.43,551.28Zm-12.17,11.44a7.53,7.53,0,0,0,8.49,0,4.46,4.46,0,0,0,1.62-3.68,4.4,4.4,0,0,0-1.62-3.62,7.53,7.53,0,0,0-8.49,0,4.4,4.4,0,0,0-1.62,3.62A4.46,4.46,0,0,0,724.26,562.72Zm7.59-21.63a5.52,5.52,0,0,0-6.69,0,3.91,3.91,0,0,0-1.28,3.09,4,4,0,0,0,1.28,3.11,5.4,5.4,0,0,0,6.69,0,4,4,0,0,0,1.28-3.11A3.91,3.91,0,0,0,731.85,541.09Z"/><path class="cls-5" d="M759.31,570.72a12.49,12.49,0,0,1-10.57-5.12q-3.82-5.11-3.83-13.6t3.83-13.61a13.5,13.5,0,0,1,21.17,0q3.81,5.11,3.81,13.61t-3.81,13.6A12.47,12.47,0,0,1,759.31,570.72Zm-5.45-10a6.45,6.45,0,0,0,10.93,0c1.25-2,1.88-4.94,1.88-8.74s-.63-6.77-1.88-8.8a6.44,6.44,0,0,0-10.93,0q-1.85,3-1.85,8.8T753.86,560.77Z"/><path class="cls-5" d="M791.72,570.72a12.48,12.48,0,0,1-10.57-5.12q-3.84-5.11-3.83-13.6t3.83-13.61a13.5,13.5,0,0,1,21.17,0q3.79,5.11,3.8,13.61t-3.8,13.6A12.47,12.47,0,0,1,791.72,570.72Zm-5.45-10a6.45,6.45,0,0,0,10.93,0c1.25-2,1.87-4.94,1.87-8.74s-.62-6.77-1.87-8.8a6.06,6.06,0,0,0-5.48-3,6,6,0,0,0-5.45,3c-1.24,2-1.85,5-1.85,8.8S785,558.76,786.27,560.77Z"/></g><g class="cls-4"><path class="cls-5" d="M1478.38,721.07h10.41v60.74h-12V733.74L1465.36,737l-2.95-10.24Z"/><path class="cls-5" d="M1541,740.94a21.2,21.2,0,0,1-3.65,12.32h.09l-18.92,28.55h-13.71L1518.38,762q-9.47-.16-15.4-6t-6-15q0-9.29,6.12-15.19t15.84-5.9q9.79,0,15.92,5.86T1541,740.94Zm-32.11,0a9.32,9.32,0,0,0,2.91,7.2,11,11,0,0,0,14.45,0,9.39,9.39,0,0,0,2.86-7.2,9.27,9.27,0,0,0-2.86-7.16,10.35,10.35,0,0,0-7.29-2.65,10.16,10.16,0,0,0-7.16,2.69A9.25,9.25,0,0,0,1508.92,740.94Z"/><path class="cls-5" d="M1610.71,740.94a21.2,21.2,0,0,1-3.65,12.32h.09l-18.92,28.55h-13.71L1588.06,762q-9.46-.16-15.4-6t-6-15q0-9.29,6.12-15.19t15.84-5.9q9.81,0,15.92,5.86T1610.71,740.94Zm-32.11,0a9.32,9.32,0,0,0,2.91,7.2,11,11,0,0,0,14.45,0,9.39,9.39,0,0,0,2.86-7.2,9.27,9.27,0,0,0-2.86-7.16,10.35,10.35,0,0,0-7.29-2.65,10.16,10.16,0,0,0-7.16,2.69A9.25,9.25,0,0,0,1578.6,740.94Z"/><path class="cls-5" d="M1658.7,740.94a21.2,21.2,0,0,1-3.65,12.32h.09l-18.92,28.55h-13.71L1636.05,762q-9.46-.16-15.41-6t-5.94-15q0-9.29,6.12-15.19t15.83-5.9q9.81,0,15.93,5.86T1658.7,740.94Zm-32.11,0a9.32,9.32,0,0,0,2.91,7.2,10.09,10.09,0,0,0,7.15,2.69,10.2,10.2,0,0,0,7.29-2.69,9.4,9.4,0,0,0,2.87-7.2,9.28,9.28,0,0,0-2.87-7.16,10.35,10.35,0,0,0-7.29-2.65,10.13,10.13,0,0,0-7.15,2.69A9.25,9.25,0,0,0,1626.59,740.94Z"/><path class="cls-5" d="M1706.68,740.94a21.2,21.2,0,0,1-3.64,12.32h.08l-18.91,28.55H1670.5L1684,762q-9.45-.16-15.4-6t-5.94-15q0-9.29,6.11-15.19t15.84-5.9q9.81,0,15.92,5.86T1706.68,740.94Zm-32.11,0a9.32,9.32,0,0,0,2.91,7.2,11,11,0,0,0,14.45,0,9.39,9.39,0,0,0,2.86-7.2,9.27,9.27,0,0,0-2.86-7.16,10.35,10.35,0,0,0-7.29-2.65,10.18,10.18,0,0,0-7.16,2.69A9.25,9.25,0,0,0,1674.57,740.94Z"/></g></g></g></svg>