<svg xmlns="http://www.w3.org/2000/svg" viewBox="0 0 2934 935">
  <defs>
    <style>
      .cls-1{fill:none}.cls-2{clip-path:url(#clip-path)}.cls-8{fill:#005e53}
    </style>
    <clipPath id="clip-path">
      <path d="M422 109h2104v817H422z" class="cls-1"/>
    </clipPath>
    <radialGradient id="radial-gradient" cx="1466.77" cy="517.08" r="1805.82" gradientUnits="userSpaceOnUse">
      <stop offset="0" stop-color="#e2f9c5"/>
      <stop offset="0.41" stop-color="#d8f8ce"/>
      <stop offset="1" stop-color="#c5f8ce"/>
    </radialGradient>
    <filter id="luminosity-invert" color-interpolation-filters="sRGB" filterUnits="userSpaceOnUse">
      <feColorMatrix values="-1 0 0 0 1 0 -1 0 0 1 0 0 -1 0 1 0 0 0 1 0"/>
    </filter>
    <mask id="mask" width="2938" height="822" x="-2" y="106" maskUnits="userSpaceOnUse">
      <g filter="url(#luminosity-invert)"/>
    </mask>
    <clipPath id="clip-path-4">
      <ellipse cx="1473.85" cy="517.08" class="cls-1" rx="1466.77" ry="408.39"/>
    </clipPath>
  </defs>
  <g id="Layer_2" data-name="Layer 2">
    <g id="Background">
      <ellipse cx="1466.77" cy="517.08" fill="url(#radial-gradient)" rx="1466.77" ry="408.39"/>
      <g mask="url(#mask)">
        <ellipse cx="1466.77" cy="517.08" opacity=".1" rx="1466.77" ry="408.39"/>
      </g>
      <g clip-path="url(#clip-path-4)" opacity=".04">
        <path d="M2473 55a10 10 0 0 0 2-7 10 10 0 0 0-2-6 9 9 0 0 0-2-10c-3-3-7-4-14-3a53 53 0 0 0-8 1h-3l2-9c3-8 3-13 0-17a11 11 0 0 0-9-4 4 4 0 0 0-3 1c-2 3-1 7-1 8-2 6-9 21-14 25a18 18 0 0 0-4 5 7 7 0 0 0-3 0h-10a7 7 0 0 0-7 7v27a7 7 0 0 0 7 7h10a7 7 0 0 0 4-1h4a168 168 0 0 0 23 1l5 1a38 38 0 0 0 8-1c5-1 9-3 11-7a10 10 0 0 0 1-6 11 11 0 0 0 3-9 11 11 0 0 0 0-3zm-69 20a2 2 0 0 1-3-2V46a2 2 0 0 1 3-3h10a2 2 0 0 1 3 2v28a2 2 0 0 1-3 2h-10zm65-22a2 2 0 0 0-1 3 7 7 0 0 1 1 2c0 3-1 5-3 6a2 2 0 0 0-1 3 6 6 0 0 1 0 4c-2 2-4 4-8 4a44 44 0 0 1-12 1 167 167 0 0 1-22-1l-2-1a7 7 0 0 0 0-1V46a7 7 0 0 0 0-3 14 14 0 0 1 3-5c8-6 15-27 15-27a2 2 0 0 0 0-2l1-4a6 6 0 0 1 4 2c2 2 2 6 0 12-3 9-3 13-1 15a4 4 0 0 0 4 1l3-1c5-1 15-2 18 1 2 3 1 6 0 6a2 2 0 0 0 1 3 6 6 0 0 1 2 4 6 6 0 0 1-2 5z" class="cls-8"/>
        <path d="M2322 55a10 10 0 0 0 3-7 10 10 0 0 0-2-6 9 9 0 0 0-3-10c-2-3-7-4-13-3a53 53 0 0 0-8 1h-3l2-9c2-8 2-13 0-17a11 11 0 0 0-9-4 4 4 0 0 0-3 1c-2 3-2 7-2 8-2 6-8 21-13 25a2 2 0 0 0-1 0 18 18 0 0 0-3 5 7 7 0 0 0-3 0h-11a7 7 0 0 0-7 7v27a7 7 0 0 0 7 7h11a7 7 0 0 0 4-1h4a168 168 0 0 0 22 1l6 1a38 38 0 0 0 8-1c5-1 8-3 10-7a10 10 0 0 0 1-6 11 11 0 0 0 4-9 11 11 0 0 0-1-3zm-69 20a2 2 0 0 1-2-2V46a2 2 0 0 1 2-3h11a2 2 0 0 1 2 2v28a2 2 0 0 1-2 2h-11zm65-22a2 2 0 0 0 0 3 7 7 0 0 1 1 2c0 3-1 5-4 6a2 2 0 0 0 0 3 6 6 0 0 1-1 4c-1 2-3 4-7 4a44 44 0 0 1-13 1 167 167 0 0 1-22-1l-1-1a7 7 0 0 0 0-1V46a7 7 0 0 0-1-3 14 14 0 0 1 4-5c7-6 15-27 15-27a2 2 0 0 0 0-2V5a6 6 0 0 1 5 2c2 2 2 6 0 12-3 9-3 13-1 15a4 4 0 0 0 4 1l3-1c5-1 14-2 17 1s1 6 1 6a2 2 0 0 0 0 3 6 6 0 0 1 2 4 6 6 0 0 1-2 5z" class="cls-8"/>
        <path d="M2172 55a10 10 0 0 0 2-7 10 10 0 0 0-2-6 9 9 0 0 0-2-10c-3-3-7-4-13-3a53 53 0 0 0-9 1h-2l2-9c2-8 2-13-1-17a11 11 0 0 0-8-4 4 4 0 0 0-4 1l-1 8c-2 6-8 21-14 25a18 18 0 0 0-3 5 7 7 0 0 0-4 0h-10a7 7 0 0 0-7 7v27a7 7 0 0 0 7 7h10a7 7 0 0 0 4-1h4a168 168 0 0 0 23 1l5 1a38 38 0 0 0 8-1c5-1 9-3 11-7a10 10 0 0 0 1-6 11 11 0 0 0 4-9 11 11 0 0 0-1-3zm-69 20a2 2 0 0 1-2-2V46a2 2 0 0 1 2-3h10a2 2 0 0 1 3 2v28a2 2 0 0 1-3 2h-10zm65-22a2 2 0 0 0-1 3 7 7 0 0 1 1 2c0 3-1 5-3 6a2 2 0 0 0-1 3 6 6 0 0 1 0 4c-1 2-4 4-8 4a44 44 0 0 1-12 1 167 167 0 0 1-22-1l-2-1a7 7 0 0 0 0-1V46a7 7 0 0 0 0-3 14 14 0 0 1 3-5c8-6 15-27 16-27a2 2 0 0 0 0-2V5a6 6 0 0 1 5 2c1 2 1 6-1 12-2 9-3 13 0 15a4 4 0 0 0 3 1l3-1c6-1 15-2 18 1s1 6 1 6a2 2 0 0 0 0 3 6 6 0 0 1 2 4 6 6 0 0 1-2 5z" class="cls-8"/>
        <path d="M2022 55a10 10 0 0 0 2-7 10 10 0 0 0-2-6 9 9 0 0 0-2-10c-3-3-8-4-14-3a53 53 0 0 0-8 1h-3l2-9c3-8 3-13 0-17a11 11 0 0 0-9-4 4 4 0 0 0-3 1c-2 3-2 7-1 8-3 6-9 21-14 25a18 18 0 0 0-4 5 7 7 0 0 0-3 0h-10a7 7 0 0 0-7 7v27a7 7 0 0 0 7 7h10a7 7 0 0 0 4-1h4a168 168 0 0 0 22 1l6 1a38 38 0 0 0 8-1c5-1 9-3 10-7a10 10 0 0 0 2-6 11 11 0 0 0 3-9 11 11 0 0 0 0-3zm-69 20a2 2 0 0 1-3-2V46a2 2 0 0 1 3-3h10a2 2 0 0 1 2 2v28a2 2 0 0 1-2 2h-10zm64-22a2 2 0 0 0 0 3 7 7 0 0 1 1 2c0 3-1 5-3 6a2 2 0 0 0-1 3 6 6 0 0 1-1 4c-1 2-3 4-7 4a44 44 0 0 1-12 1h-1a167 167 0 0 1-21-1l-2-1a7 7 0 0 0 0-1V46a7 7 0 0 0 0-3 14 14 0 0 1 3-5c7-6 15-27 15-27a2 2 0 0 0 0-2V5a6 6 0 0 1 5 2c2 2 2 6 0 12-3 9-3 13-1 15a4 4 0 0 0 4 1l3-1c5-1 14-2 18 1 2 3 0 6 0 6a2 2 0 0 0 1 3 6 6 0 0 1 1 4 6 6 0 0 1-2 5z" class="cls-8"/>
        <path d="M1871 55a10 10 0 0 0 3-7 10 10 0 0 0-3-6 9 9 0 0 0-2-10c-2-3-7-4-13-3a53 53 0 0 0-8 1h-3l2-9c2-8 2-13 0-17a11 11 0 0 0-9-4 4 4 0 0 0-3 1c-2 3-2 7-2 8-2 6-8 21-13 25a3 3 0 0 0-1 0 18 18 0 0 0-3 5 7 7 0 0 0-3 0h-11a7 7 0 0 0-7 7v27a7 7 0 0 0 7 7h11a7 7 0 0 0 4-1h4a168 168 0 0 0 22 1l6 1a38 38 0 0 0 8-1c5-1 8-3 10-7a10 10 0 0 0 1-6 11 11 0 0 0 4-9 11 11 0 0 0-1-3zm-69 20a2 2 0 0 1-2-2V46a2 2 0 0 1 2-3h11a2 2 0 0 1 2 2v28a2 2 0 0 1-2 2h-11zm65-22a2 2 0 0 0 0 3 7 7 0 0 1 0 2c1 3 0 5-3 6a2 2 0 0 0 0 3 6 6 0 0 1-1 4c-1 2-4 4-7 4a44 44 0 0 1-13 1 167 167 0 0 1-22-1l-1-1a7 7 0 0 0 0-1V46a7 7 0 0 0-1-3 14 14 0 0 1 3-5c8-6 15-27 16-27a2 2 0 0 0 0-2V5a6 6 0 0 1 5 2c2 2 1 6 0 12-3 9-3 13-1 15a4 4 0 0 0 3 1l3-1h1c5-1 14-2 17 1s1 6 1 6a2 2 0 0 0 0 3 6 6 0 0 1 2 4 6 6 0 0 1-2 5z" class="cls-8"/>
        <path d="M1721 55a10 10 0 0 0 2-7 10 10 0 0 0-2-6 9 9 0 0 0-2-10c-3-3-7-4-14-3a53 53 0 0 0-8 1h-2c-1-1 0-3 2-9 2-8 2-13-1-17a11 11 0 0 0-8-4 4 4 0 0 0-4 1c-2 3-1 7-1 8-2 6-9 21-14 25a18 18 0 0 0-3 5 7 7 0 0 0-4 0h-10a7 7 0 0 0-7 7v27a7 7 0 0 0 7 7h10a7 7 0 0 0 4-1h4a168 168 0 0 0 23 1l5 1a38 38 0 0 0 8-1c5-1 9-3 11-7a10 10 0 0 0 1-6 11 11 0 0 0 4-9 11 11 0 0 0-1-3zm-69 20a2 2 0 0 1-3-2V46a2 2 0 0 1 3-3h10a2 2 0 0 1 3 2v28a2 2 0 0 1-3 2h-10zm65-22a2 2 0 0 0-1 3 7 7 0 0 1 1 2c0 3-1 5-3 6a2 2 0 0 0-1 3 6 6 0 0 1 0 4c-1 2-4 4-8 4a44 44 0 0 1-12 1 167 167 0 0 1-22-1l-2-1a7 7 0 0 0 0-1V46a7 7 0 0 0 0-3 14 14 0 0 1 3-5c8-6 15-27 15-27a2 2 0 0 0 0-2l1-4a6 6 0 0 1 4 2c2 2 2 6 0 12-3 9-3 13-1 15a4 4 0 0 0 4 1l3-1c5-1 15-2 18 1s1 6 0 6a2 2 0 0 0 1 3 6 6 0 0 1 2 4 6 6 0 0 1-2 5z" class="cls-8"/>
        <path d="M1571 55a10 10 0 0 0 2-7 10 10 0 0 0-2-6 9 9 0 0 0-2-10c-3-3-8-4-14-3a53 53 0 0 0-8 1h-3l2-9c3-8 2-13 0-17a11 11 0 0 0-9-4 4 4 0 0 0-3 1c-2 3-2 7-1 8-3 6-9 21-14 25a18 18 0 0 0-4 5 7 7 0 0 0-3 0h-10a7 7 0 0 0-7 7v27a7 7 0 0 0 7 7h10a7 7 0 0 0 4-1h4a168 168 0 0 0 22 1l6 1a38 38 0 0 0 8-1c5-1 9-3 10-7a10 10 0 0 0 1-6 11 11 0 0 0 4-9 11 11 0 0 0 0-3zm-69 20a2 2 0 0 1-3-2V46a2 2 0 0 1 3-3h10a2 2 0 0 1 2 2v28a2 2 0 0 1-2 2h-10zm64-22a2 2 0 0 0 0 3 7 7 0 0 1 1 2c0 3-1 5-3 6a2 2 0 0 0-1 3 6 6 0 0 1-1 4c-1 2-3 4-7 4a44 44 0 0 1-12 1h-1a167 167 0 0 1-22-1l-1-1a7 7 0 0 0 0-1V46a7 7 0 0 0 0-3 14 14 0 0 1 3-5c7-6 15-27 15-27a2 2 0 0 0 0-2V5a6 6 0 0 1 5 2c2 2 2 6 0 12-3 9-3 13-1 15a4 4 0 0 0 4 1l3-1c5-1 14-2 17 1s1 6 1 6a2 2 0 0 0 0 3 6 6 0 0 1 2 4 6 6 0 0 1-2 5z" class="cls-8"/>
        <path d="M1420 55a10 10 0 0 0 3-7 10 10 0 0 0-3-6 9 9 0 0 0-2-10c-2-3-7-4-13-3a53 53 0 0 0-9 1h-2l2-9c2-8 2-13-1-17a11 11 0 0 0-8-4 4 4 0 0 0-3 1c-2 3-2 7-2 8-2 6-8 21-14 25a18 18 0 0 0-3 5 7 7 0 0 0-3 0h-11a7 7 0 0 0-7 7v27a7 7 0 0 0 7 7h11a7 7 0 0 0 4-1h4a168 168 0 0 0 22 1l6 1a38 38 0 0 0 7-1c6-1 9-3 11-7a10 10 0 0 0 1-6 11 11 0 0 0 4-9 11 11 0 0 0-1-3zm-69 20a2 2 0 0 1-2-2V46a2 2 0 0 1 2-3h10a2 2 0 0 1 3 3v27a2 2 0 0 1-2 2h-11zm65-22a2 2 0 0 0 0 3 7 7 0 0 1 0 2c0 3-1 5-3 6a2 2 0 0 0-1 3 6 6 0 0 1 0 4c-1 2-4 4-8 4a44 44 0 0 1-12 1 167 167 0 0 1-22-1l-2-1a7 7 0 0 0 1-1V46a7 7 0 0 0-1-3 14 14 0 0 1 3-5c8-6 15-27 16-27a2 2 0 0 0 0-2V5a6 6 0 0 1 5 2v12c-3 9-4 13-1 15a4 4 0 0 0 3 1l3-1h1c5-1 14-2 17 1s1 6 1 6a2 2 0 0 0 0 3 6 6 0 0 1 2 4 6 6 0 0 1-2 5z" class="cls-8"/>
        <path d="M1270 55a10 10 0 0 0 2-7 10 10 0 0 0-2-6 9 9 0 0 0-2-10c-3-3-7-4-14-3a53 53 0 0 0-8 1h-3l2-9c3-8 3-13 0-17a11 11 0 0 0-9-4 4 4 0 0 0-3 1c-2 3-1 7-1 8-2 6-9 21-14 25a18 18 0 0 0-4 5 7 7 0 0 0-3 0h-10a7 7 0 0 0-7 7v27a7 7 0 0 0 7 7h10a7 7 0 0 0 4-1h4a168 168 0 0 0 23 1l5 1a38 38 0 0 0 8-1c5-1 9-3 11-7a10 10 0 0 0 1-6 11 11 0 0 0 4-9 11 11 0 0 0-1-3zm-69 20a2 2 0 0 1-3-2V46a2 2 0 0 1 3-3h10a2 2 0 0 1 3 2v28a2 2 0 0 1-3 2h-10zm65-22a2 2 0 0 0-1 3 7 7 0 0 1 1 2c0 3-1 5-3 6a2 2 0 0 0-1 3 6 6 0 0 1 0 4c-2 2-4 4-8 4a44 44 0 0 1-12 1 167 167 0 0 1-22-1l-2-1a7 7 0 0 0 0-1V46a7 7 0 0 0 0-3 14 14 0 0 1 3-5c8-6 15-27 15-27a2 2 0 0 0 0-2l1-4a6 6 0 0 1 4 2c2 2 2 6 0 12-3 9-3 13-1 15a4 4 0 0 0 4 1l3-1c5-1 15-2 18 1s1 6 0 6a2 2 0 0 0 1 3 6 6 0 0 1 2 4 6 6 0 0 1-2 5z" class="cls-8"/>
        <path d="M1119 55a10 10 0 0 0 3-7 10 10 0 0 0-2-6 9 9 0 0 0-3-10c-2-3-7-4-13-3a53 53 0 0 0-8 1h-3l2-9c2-8 2-13 0-17a11 11 0 0 0-9-4 4 4 0 0 0-3 1c-2 3-2 7-2 8-2 6-8 21-13 25a3 3 0 0 0-1 0 18 18 0 0 0-3 5 7 7 0 0 0-3 0h-11a7 7 0 0 0-7 7v27a7 7 0 0 0 7 7h11a7 7 0 0 0 4-1h4a168 168 0 0 0 22 1l6 1a38 38 0 0 0 8-1c5-1 8-3 10-7a10 10 0 0 0 1-6 11 11 0 0 0 4-9 11 11 0 0 0-1-3zm-69 20a2 2 0 0 1-2-2V46a2 2 0 0 1 2-3h11a2 2 0 0 1 2 2v28a2 2 0 0 1-2 2h-11zm65-22a2 2 0 0 0 0 3 7 7 0 0 1 1 2c0 3-1 5-4 6a2 2 0 0 0 0 3 6 6 0 0 1-1 4c-1 2-3 4-7 4a44 44 0 0 1-13 1 167 167 0 0 1-22-1l-1-1a7 7 0 0 0 0-1V46a7 7 0 0 0-1-3 14 14 0 0 1 4-5c7-6 15-27 15-27a2 2 0 0 0 0-2V5a6 6 0 0 1 5 2c2 2 2 6 0 12-3 9-3 13-1 15a4 4 0 0 0 4 1l2-1h1c5-1 14-2 17 1s1 6 1 6a2 2 0 0 0 0 3 6 6 0 0 1 2 4 6 6 0 0 1-2 5z" class="cls-8"/>
        <path d="M969 55a10 10 0 0 0 2-7 10 10 0 0 0-2-6 9 9 0 0 0-2-10c-3-3-7-4-13-3a53 53 0 0 0-9 1h-2l2-9c2-8 2-13-1-17a11 11 0 0 0-8-4 4 4 0 0 0-4 1l-1 8c-2 6-8 21-14 25a18 18 0 0 0-3 5 7 7 0 0 0-4 0h-10a7 7 0 0 0-7 7v27a7 7 0 0 0 7 7h10a7 7 0 0 0 4-1h4a168 168 0 0 0 23 1l5 1a38 38 0 0 0 8-1c5-1 9-3 11-7a10 10 0 0 0 1-6 11 11 0 0 0 4-9 11 11 0 0 0-1-3zm-69 20a2 2 0 0 1-2-2V46a2 2 0 0 1 2-3h10a2 2 0 0 1 3 2v28a2 2 0 0 1-3 2h-10zm65-22a2 2 0 0 0-1 3 7 7 0 0 1 1 2c0 3-1 5-3 6a2 2 0 0 0-1 3 6 6 0 0 1 0 4c-1 2-4 4-8 4a44 44 0 0 1-12 1 167 167 0 0 1-22-1l-2-1a7 7 0 0 0 0-1V46a7 7 0 0 0 0-3 14 14 0 0 1 3-5c8-6 15-27 16-27a2 2 0 0 0 0-2V5a6 6 0 0 1 5 2c1 2 1 6-1 12-2 9-3 13 0 15a4 4 0 0 0 3 1l3-1c6-1 15-2 18 1s1 6 1 6a2 2 0 0 0 0 3 6 6 0 0 1 2 4 6 6 0 0 1-2 5z" class="cls-8"/>
        <path d="M819 55a10 10 0 0 0 2-7 10 10 0 0 0-2-6 9 9 0 0 0-2-10c-3-3-8-4-14-3a53 53 0 0 0-8 1h-3l2-9c3-8 3-13 0-17a11 11 0 0 0-9-4 4 4 0 0 0-3 1c-2 3-2 7-1 8-3 6-9 21-14 25a18 18 0 0 0-4 5 7 7 0 0 0-3 0h-10a7 7 0 0 0-7 7v27a7 7 0 0 0 7 7h10a7 7 0 0 0 4-1h4a168 168 0 0 0 22 1l6 1a38 38 0 0 0 8-1c5-1 9-3 10-7a10 10 0 0 0 2-6 11 11 0 0 0 3-9 11 11 0 0 0 0-3zm-69 20a2 2 0 0 1-3-2V46a2 2 0 0 1 3-3h10a2 2 0 0 1 2 2v28a2 2 0 0 1-2 2h-10zm64-22a2 2 0 0 0 0 3 7 7 0 0 1 1 2c0 3-1 5-3 6a2 2 0 0 0-1 3 6 6 0 0 1-1 4c-1 2-3 4-7 4a44 44 0 0 1-12 1h-1a167 167 0 0 1-21-1l-2-1a7 7 0 0 0 0-1V46a7 7 0 0 0 0-3 14 14 0 0 1 3-5c7-6 15-27 15-27a2 2 0 0 0 0-2V5a6 6 0 0 1 5 2c2 2 2 6 0 12-3 9-3 13-1 15a4 4 0 0 0 4 1l3-1c5-1 14-2 18 1 2 3 0 6 0 6a2 2 0 0 0 1 3 6 6 0 0 1 1 4 6 6 0 0 1-2 5z" class="cls-8"/>
        <path d="M668 55a10 10 0 0 0 3-7 10 10 0 0 0-3-6 9 9 0 0 0-2-10c-2-3-7-4-13-3a53 53 0 0 0-8 1h-3l2-9c2-8 2-13 0-17a11 11 0 0 0-9-4 4 4 0 0 0-3 1c-2 3-2 7-2 8-2 6-8 21-13 25a2 2 0 0 0-1 0 18 18 0 0 0-3 5 7 7 0 0 0-3 0h-11a7 7 0 0 0-7 7v27a7 7 0 0 0 7 7h11a7 7 0 0 0 4-1h4a168 168 0 0 0 22 1l6 1a38 38 0 0 0 8-1c5-1 8-3 10-7a10 10 0 0 0 1-6 11 11 0 0 0 4-9 11 11 0 0 0-1-3zm-69 20a2 2 0 0 1-2-2V46a2 2 0 0 1 2-3h11a2 2 0 0 1 2 2v28a2 2 0 0 1-2 2h-11zm65-22a2 2 0 0 0 0 3 7 7 0 0 1 0 2c1 3-1 5-3 6a2 2 0 0 0 0 3 6 6 0 0 1-1 4c-1 2-4 4-7 4a44 44 0 0 1-13 1 167 167 0 0 1-22-1l-1-1a7 7 0 0 0 0-1V46a7 7 0 0 0-1-3 14 14 0 0 1 3-5c8-6 15-27 16-27a2 2 0 0 0 0-2V5a6 6 0 0 1 5 2c2 2 1 6 0 12-3 9-3 13-1 15a4 4 0 0 0 3 1l3-1h1c5-1 14-2 17 1s1 6 1 6a2 2 0 0 0 0 3 6 6 0 0 1 2 4 6 6 0 0 1-2 5z" class="cls-8"/>
        <path d="M518 55a10 10 0 0 0 2-7 10 10 0 0 0-2-6 9 9 0 0 0-2-10c-3-3-7-4-14-3a53 53 0 0 0-8 1h-2c-1-1 0-3 2-9 2-8 2-13-1-17a11 11 0 0 0-8-4 4 4 0 0 0-4 1c-2 3-1 7-1 8-2 6-9 21-14 25a18 18 0 0 0-3 5 7 7 0 0 0-4 0h-10a7 7 0 0 0-7 7v27a7 7 0 0 0 7 7h10a7 7 0 0 0 4-1h4a168 168 0 0 0 23 1l5 1a38 38 0 0 0 8-1c5-1 9-3 11-7a10 10 0 0 0 1-6 11 11 0 0 0 4-9 11 11 0 0 0-1-3zm-69 20a2 2 0 0 1-2-2V46a2 2 0 0 1 2-3h10a2 2 0 0 1 3 2v28a2 2 0 0 1-3 2h-10zm65-22a2 2 0 0 0-1 3 7 7 0 0 1 1 2c0 3-1 5-3 6a2 2 0 0 0-1 3 6 6 0 0 1 0 4c-1 2-4 4-8 4a44 44 0 0 1-12 1 167 167 0 0 1-22-1l-2-1a7 7 0 0 0 0-1V46a7 7 0 0 0 0-3 14 14 0 0 1 3-5c8-6 15-27 15-27a2 2 0 0 0 0-2l1-4a6 6 0 0 1 4 2c2 2 2 6 0 12-3 9-3 13-1 15a4 4 0 0 0 4 1l3-1c5-1 15-2 18 1s1 6 0 6a2 2 0 0 0 1 3 6 6 0 0 1 2 4 6 6 0 0 1-2 5z" class="cls-8"/>
        <path d="M2533 186a10 10 0 0 0 2-7 10 10 0 0 0-2-6 9 9 0 0 0-2-10c-3-3-7-4-14-3a52 52 0 0 0-8 1h-3l2-10c3-7 3-12 0-16a11 11 0 0 0-9-4 4 4 0 0 0-3 1c-2 3-1 7-1 8-2 6-9 21-14 25a18 18 0 0 0-4 5 7 7 0 0 0-3-1h-10a7 7 0 0 0-7 7v28a7 7 0 0 0 7 7h10a7 7 0 0 0 4-1h4a170 170 0 0 0 23 1l5 1a38 38 0 0 0 8-1c5-1 9-3 11-7a10 10 0 0 0 1-6 11 11 0 0 0 4-9 11 11 0 0 0-1-3zm-69 20a2 2 0 0 1-3-2v-28a2 2 0 0 1 3-2h10a2 2 0 0 1 3 2v28a2 2 0 0 1-3 2h-10zm65-22a2 2 0 0 0-1 3 7 7 0 0 1 1 2c0 3-1 4-3 6a2 2 0 0 0-1 3 6 6 0 0 1 0 4c-2 2-4 4-8 4a44 44 0 0 1-12 1 167 167 0 0 1-22-1l-2-1a7 7 0 0 0 0-1v-28a7 7 0 0 0 0-2 14 14 0 0 1 3-5c8-6 15-27 15-27a2 2 0 0 0 0-2l1-5a6 6 0 0 1 4 3c2 2 2 6 0 12-3 9-3 13-1 15a4 4 0 0 0 4 1l3-1c5-1 15-2 18 1 2 3 1 6 0 6a2 2 0 0 0 1 3 6 6 0 0 1 2 4 6 6 0 0 1-2 5z" class="cls-8"/>
        <path d="M2382 186a10 10 0 0 0 3-7 10 10 0 0 0-2-6 9 9 0 0 0-3-10c-2-3-7-4-13-3a52 52 0 0 0-8 1h-3l2-10c2-7 2-12 0-16a11 11 0 0 0-9-4 4 4 0 0 0-3 1c-2 3-2 7-2 8-2 6-8 21-13 25a2 2 0 0 0-1 0 18 18 0 0 0-3 5 7 7 0 0 0-3-1h-11a7 7 0 0 0-7 7v28a7 7 0 0 0 7 7h11a7 7 0 0 0 4-1h4a170 170 0 0 0 22 1l6 1a38 38 0 0 0 8-1c5-1 8-3 10-7a10 10 0 0 0 1-6 11 11 0 0 0 4-9 12 12 0 0 0-1-3zm-69 20a2 2 0 0 1-2-2v-28a2 2 0 0 1 2-2h11a2 2 0 0 1 2 2v28a2 2 0 0 1-2 2h-11zm65-22a2 2 0 0 0 0 3 7 7 0 0 1 1 2c0 3-1 4-4 6a2 2 0 0 0 0 3 6 6 0 0 1-1 4c-1 2-3 4-7 4a44 44 0 0 1-13 1 167 167 0 0 1-22-1l-1-1a7 7 0 0 0 0-1v-28a7 7 0 0 0-1-2 14 14 0 0 1 4-5c7-6 15-27 15-27a2 2 0 0 0 0-2v-5a6 6 0 0 1 5 3c2 2 2 6 0 12-3 9-3 13-1 15a4 4 0 0 0 4 1l2-1h1c5-1 14-2 17 1s1 6 1 6a2 2 0 0 0 0 3 6 6 0 0 1 2 4 6 6 0 0 1-2 5z" class="cls-8"/>
        <path d="M2232 186a10 10 0 0 0 2-7 10 10 0 0 0-2-6 9 9 0 0 0-2-10c-3-3-7-4-13-3a52 52 0 0 0-9 1h-2l2-10c2-7 2-12-1-16a11 11 0 0 0-8-4 4 4 0 0 0-4 1l-1 8c-2 6-8 21-14 25a18 18 0 0 0-3 5 7 7 0 0 0-4-1h-10a7 7 0 0 0-7 7v28a7 7 0 0 0 7 7h10a7 7 0 0 0 4-1h4a170 170 0 0 0 23 1l6 1a38 38 0 0 0 7-1c5-1 9-3 11-7a10 10 0 0 0 1-6 11 11 0 0 0 4-9 11 11 0 0 0-1-3zm-69 20a2 2 0 0 1-2-2v-28a2 2 0 0 1 2-2h10a2 2 0 0 1 3 2v28a2 2 0 0 1-3 2h-10zm65-22a2 2 0 0 0-1 3 7 7 0 0 1 1 2c0 3-1 4-3 6a2 2 0 0 0-1 3 6 6 0 0 1 0 4c-1 2-4 4-8 4a44 44 0 0 1-12 1 167 167 0 0 1-22-1l-2-1a7 7 0 0 0 0-1v-28a7 7 0 0 0 0-2 14 14 0 0 1 3-5c8-6 15-27 16-27a2 2 0 0 0 0-2v-5a6 6 0 0 1 5 3c1 2 1 6-1 12-2 9-3 13 0 15a4 4 0 0 0 3 1l3-1c6-1 15-2 18 1s1 6 1 6a2 2 0 0 0 0 3 6 6 0 0 1 2 4 6 6 0 0 1-2 5z" class="cls-8"/>
        <path d="M2082 186a10 10 0 0 0 2-7 10 10 0 0 0-2-6 9 9 0 0 0-2-10c-3-3-8-4-14-3a52 52 0 0 0-8 1h-3l2-10c3-7 3-12 0-16a11 11 0 0 0-9-4 4 4 0 0 0-3 1c-2 3-2 7-1 8-3 6-9 21-14 25a18 18 0 0 0-4 5 7 7 0 0 0-3-1h-10a7 7 0 0 0-7 7v28a7 7 0 0 0 7 7h10a7 7 0 0 0 4-1h4a170 170 0 0 0 22 1l6 1a38 38 0 0 0 8-1c5-1 9-3 10-7a10 10 0 0 0 2-6 11 11 0 0 0 3-9 12 12 0 0 0 0-3zm-69 20a2 2 0 0 1-3-2v-28a2 2 0 0 1 3-2h10a2 2 0 0 1 2 2v28a2 2 0 0 1-2 2h-10zm64-22a2 2 0 0 0 0 3 7 7 0 0 1 1 2c0 3-1 4-3 6a2 2 0 0 0-1 3 6 6 0 0 1-1 4c-1 2-3 4-7 4a44 44 0 0 1-12 1h-1a167 167 0 0 1-21-1l-2-1a7 7 0 0 0 0-1v-28a7 7 0 0 0 0-2 14 14 0 0 1 3-5c7-6 15-27 15-27a2 2 0 0 0 0-2v-5a6 6 0 0 1 5 3c2 2 2 6 0 12-3 9-3 13-1 15a4 4 0 0 0 4 1l3-1c5-1 14-2 18 1 2 3 0 6 0 6a2 2 0 0 0 1 3 6 6 0 0 1 1 4 6 6 0 0 1-2 5z" class="cls-8"/>
        <path d="M1931 186a10 10 0 0 0 3-7 10 10 0 0 0-3-6 9 9 0 0 0-2-10c-2-3-7-4-13-3a52 52 0 0 0-8 1h-3l2-10c2-7 2-12 0-16a11 11 0 0 0-9-4 4 4 0 0 0-3 1c-2 3-2 7-2 8-2 6-8 21-13 25a2 2 0 0 0-1 0 18 18 0 0 0-3 5 7 7 0 0 0-3-1h-11a7 7 0 0 0-7 7v28a7 7 0 0 0 7 7h11a7 7 0 0 0 4-1h4a170 170 0 0 0 22 1l6 1a38 38 0 0 0 8-1c5-1 8-3 10-7a10 10 0 0 0 1-6 11 11 0 0 0 4-9 12 12 0 0 0-1-3zm-69 20a2 2 0 0 1-2-2v-28a2 2 0 0 1 2-2h11a2 2 0 0 1 2 2v28a2 2 0 0 1-2 2h-11zm65-22a2 2 0 0 0 0 3 7 7 0 0 1 0 2c1 3 0 4-3 6a2 2 0 0 0 0 3 6 6 0 0 1-1 4c-1 2-4 4-7 4a44 44 0 0 1-13 1 167 167 0 0 1-22-1l-1-1a7 7 0 0 0 0-1v-28a7 7 0 0 0-1-2 14 14 0 0 1 3-5c8-6 15-27 16-27a2 2 0 0 0 0-2v-5a6 6 0 0 1 5 3c2 2 1 6 0 12-3 9-3 13-1 15a4 4 0 0 0 3 1l3-1h1c5-1 14-2 17 1s1 6 1 6a2 2 0 0 0 0 3 6 6 0 0 1 2 4 6 6 0 0 1-2 5z" class="cls-8"/>
        <path d="M1781 186a10 10 0 0 0 2-7 10 10 0 0 0-2-6 9 9 0 0 0-2-10c-3-3-7-4-14-3a52 52 0 0 0-8 1h-2c-1-1 0-3 2-10s2-12-1-16a11 11 0 0 0-8-4 4 4 0 0 0-4 1l-1 8c-2 6-8 21-14 25a18 18 0 0 0-3 5 7 7 0 0 0-4 0h-10a7 7 0 0 0-7 7v27a7 7 0 0 0 7 7h10a7 7 0 0 0 4-1h4a170 170 0 0 0 23 1l5 1a38 38 0 0 0 8-1c5-1 9-3 11-7a10 10 0 0 0 1-6 11 11 0 0 0 4-9 12 12 0 0 0-1-3zm-69 20a2 2 0 0 1-3-2v-28a2 2 0 0 1 3-2h10a2 2 0 0 1 3 2v28a2 2 0 0 1-3 2h-10zm65-22a2 2 0 0 0-1 3 7 7 0 0 1 1 2c0 3-1 4-3 6a2 2 0 0 0-1 3 6 6 0 0 1 0 4c-1 2-4 4-8 4a44 44 0 0 1-12 1 167 167 0 0 1-22-1l-2-1a7 7 0 0 0 0-1v-28a7 7 0 0 0 0-2 14 14 0 0 1 3-5c8-6 15-27 15-27a2 2 0 0 0 0-2l1-5a6 6 0 0 1 4 3c2 2 2 6 0 12-3 9-3 13-1 15a4 4 0 0 0 4 1l3-1c5-1 15-2 18 1s1 6 0 6a2 2 0 0 0 1 3 6 6 0 0 1 2 4 6 6 0 0 1-2 5z" class="cls-8"/>
        <path d="M1631 186a10 10 0 0 0 2-7 10 10 0 0 0-2-6 9 9 0 0 0-2-10c-3-3-8-4-14-3a52 52 0 0 0-8 1h-3l2-10c3-7 2-12 0-16a11 11 0 0 0-9-4 4 4 0 0 0-3 1c-2 3-2 7-1 8-3 6-9 21-14 25a18 18 0 0 0-4 5 7 7 0 0 0-3-1h-10a7 7 0 0 0-7 7v28a7 7 0 0 0 7 7h10a7 7 0 0 0 4-1h4a170 170 0 0 0 22 1l6 1a38 38 0 0 0 8-1c5-1 9-3 10-7a10 10 0 0 0 1-6 11 11 0 0 0 4-9 12 12 0 0 0 0-3zm-69 20a2 2 0 0 1-3-2v-28a2 2 0 0 1 3-2h10a2 2 0 0 1 2 2v28a2 2 0 0 1-2 2h-10zm64-22a2 2 0 0 0 0 3 7 7 0 0 1 1 2c0 3-1 4-3 6a2 2 0 0 0-1 3 6 6 0 0 1-1 4c-1 2-3 4-7 4a44 44 0 0 1-12 1h-1a167 167 0 0 1-22-1l-1-1a7 7 0 0 0 0-1v-28a7 7 0 0 0 0-2 14 14 0 0 1 3-5c7-6 15-27 15-27a2 2 0 0 0 0-2v-5a6 6 0 0 1 5 3c2 2 2 6 0 12-3 9-3 13-1 15a4 4 0 0 0 4 1l3-1c5-1 14-2 17 1s1 6 1 6a2 2 0 0 0 0 3 6 6 0 0 1 2 4 6 6 0 0 1-2 5z" class="cls-8"/>
        <path d="M1480 186a10 10 0 0 0 3-7 10 10 0 0 0-3-6 9 9 0 0 0-2-10c-2-3-7-4-13-3a52 52 0 0 0-9 1h-2l2-10c2-7 2-12-1-16a11 11 0 0 0-8-4 4 4 0 0 0-3 1c-2 3-2 7-2 8-2 6-8 21-14 25a18 18 0 0 0-3 5 7 7 0 0 0-3-1h-11a7 7 0 0 0-7 7v28a7 7 0 0 0 7 7h11a7 7 0 0 0 4-1h4a170 170 0 0 0 22 1l6 1a38 38 0 0 0 7-1c6-1 9-3 11-7a10 10 0 0 0 1-6 11 11 0 0 0 4-9 11 11 0 0 0-1-3zm-69 20a2 2 0 0 1-2-2v-28a2 2 0 0 1 2-2h10a2 2 0 0 1 3 2v28a2 2 0 0 1-3 2h-10zm65-22a2 2 0 0 0 0 3 7 7 0 0 1 0 2c0 3-1 4-3 6a2 2 0 0 0-1 3 6 6 0 0 1 0 4c-1 2-4 4-8 4a44 44 0 0 1-12 1 167 167 0 0 1-22-1l-2-1a7 7 0 0 0 1-1v-28a7 7 0 0 0-1-2 14 14 0 0 1 3-5c8-6 15-27 16-27a2 2 0 0 0 0-2v-5a6 6 0 0 1 5 3v12c-3 9-4 13-1 15a4 4 0 0 0 3 1l3-1h1c5-1 14-2 17 1s1 6 1 6a2 2 0 0 0 0 3 6 6 0 0 1 2 4 6 6 0 0 1-2 5z" class="cls-8"/>
        <path d="M1330 186a10 10 0 0 0 2-7 10 10 0 0 0-2-6 9 9 0 0 0-2-10c-3-3-7-4-14-3a52 52 0 0 0-8 1h-3l2-10c3-7 3-12 0-16a11 11 0 0 0-9-4 4 4 0 0 0-3 1c-2 3-1 7-1 8-2 6-9 21-14 25a18 18 0 0 0-4 5 7 7 0 0 0-3-1h-10a7 7 0 0 0-7 7v28a7 7 0 0 0 7 7h10a7 7 0 0 0 4-1h4a170 170 0 0 0 23 1l5 1a38 38 0 0 0 8-1c5-1 9-3 11-7a10 10 0 0 0 1-6 11 11 0 0 0 4-9 12 12 0 0 0-1-3zm-69 20a2 2 0 0 1-3-2v-28a2 2 0 0 1 3-2h10a2 2 0 0 1 3 2v28a2 2 0 0 1-3 2h-10zm64-22a2 2 0 0 0 0 3 7 7 0 0 1 1 2c0 3-1 4-3 6a2 2 0 0 0-1 3 6 6 0 0 1 0 4c-2 2-4 4-8 4a44 44 0 0 1-12 1 167 167 0 0 1-22-1l-2-1a7 7 0 0 0 0-1v-28a7 7 0 0 0 0-2 14 14 0 0 1 3-5c8-6 15-27 15-27a2 2 0 0 0 0-2l1-5a6 6 0 0 1 4 3c2 2 2 6 0 12-3 9-3 13-1 15a4 4 0 0 0 4 1l3-1c5-1 15-2 18 1 2 3 1 6 0 6a2 2 0 0 0 1 3 6 6 0 0 1 2 4 6 6 0 0 1-2 5z" class="cls-8"/>
        <path d="M1179 186a10 10 0 0 0 3-7 10 10 0 0 0-2-6 9 9 0 0 0-3-10c-2-3-7-4-13-3a52 52 0 0 0-8 1h-3l2-10c2-7 2-12 0-16a11 11 0 0 0-9-4 4 4 0 0 0-3 1c-2 3-2 7-2 8-2 6-8 21-13 25a2 2 0 0 0-1 0 18 18 0 0 0-3 5 7 7 0 0 0-3-1h-10a7 7 0 0 0-7 7v28a7 7 0 0 0 7 7h10a7 7 0 0 0 4-1h4a170 170 0 0 0 22 1l6 1a38 38 0 0 0 8-1c5-1 8-3 10-7a10 10 0 0 0 1-6 11 11 0 0 0 4-9 12 12 0 0 0-1-3zm-69 20a2 2 0 0 1-2-2v-28a2 2 0 0 1 2-2h11a2 2 0 0 1 2 2v28a2 2 0 0 1-2 2h-11zm65-22a2 2 0 0 0 0 3 7 7 0 0 1 1 2c0 3-1 4-4 6a2 2 0 0 0 0 3 6 6 0 0 1-1 4c-1 2-3 4-7 4a44 44 0 0 1-13 1 167 167 0 0 1-22-1l-1-1a7 7 0 0 0 0-1v-28a7 7 0 0 0-1-2 14 14 0 0 1 4-5c7-6 15-27 15-27a2 2 0 0 0 0-2v-5a6 6 0 0 1 5 3c2 2 2 6 0 12-3 9-3 13-1 15a4 4 0 0 0 4 1l2-1h1c5-1 14-2 17 1s1 6 1 6a2 2 0 0 0 0 3 6 6 0 0 1 2 4 6 6 0 0 1-2 5z" class="cls-8"/>
        <path d="M1029 186a10 10 0 0 0 2-7 10 10 0 0 0-2-6 9 9 0 0 0-2-10c-3-3-7-4-13-3a52 52 0 0 0-9 1h-2l2-10c2-7 2-12-1-16a11 11 0 0 0-8-4 4 4 0 0 0-4 1l-1 8c-2 6-8 21-14 25a18 18 0 0 0-3 5 7 7 0 0 0-4 0h-10a7 7 0 0 0-7 7v27a7 7 0 0 0 7 7h10a7 7 0 0 0 4-1h4a170 170 0 0 0 23 1l6 1a38 38 0 0 0 7-1c5-1 9-3 11-7a10 10 0 0 0 1-6 11 11 0 0 0 4-9 12 12 0 0 0-1-3zm-69 20a2 2 0 0 1-2-2v-28a2 2 0 0 1 2-2h10a2 2 0 0 1 3 2v28a2 2 0 0 1-3 2h-10zm65-22a2 2 0 0 0-1 3 7 7 0 0 1 1 2c0 3-1 4-3 6a2 2 0 0 0-1 3 6 6 0 0 1 0 4c-1 2-4 4-8 4a44 44 0 0 1-12 1 167 167 0 0 1-22-1l-2-1a7 7 0 0 0 0-1v-28a7 7 0 0 0 0-2 14 14 0 0 1 3-5c8-6 15-27 16-27a2 2 0 0 0 0-2v-5a6 6 0 0 1 5 3c1 2 1 6-1 12-2 9-3 13 0 15a4 4 0 0 0 3 1l3-1c6-1 15-2 18 1s1 6 1 6a2 2 0 0 0 0 3 6 6 0 0 1 2 4 6 6 0 0 1-2 5z" class="cls-8"/>
        <path d="M879 186a10 10 0 0 0 2-7 10 10 0 0 0-2-6 9 9 0 0 0-2-10c-3-3-8-4-14-3a52 52 0 0 0-8 1h-3l2-10c3-7 3-12 0-16a11 11 0 0 0-9-4 4 4 0 0 0-3 1c-2 3-2 7-1 8-3 6-9 21-14 25a18 18 0 0 0-4 5 7 7 0 0 0-3-1h-10a7 7 0 0 0-7 7v28a7 7 0 0 0 7 7h10a7 7 0 0 0 4-1h4a170 170 0 0 0 22 1l6 1a38 38 0 0 0 8-1c5-1 9-3 10-7a10 10 0 0 0 2-6 11 11 0 0 0 3-9 12 12 0 0 0 0-3zm-69 20a2 2 0 0 1-3-2v-28a2 2 0 0 1 3-2h10a2 2 0 0 1 2 2v28a2 2 0 0 1-2 2h-10zm64-22a2 2 0 0 0 0 3 7 7 0 0 1 1 2c0 3-1 4-3 6a2 2 0 0 0-1 3 6 6 0 0 1-1 4c-1 2-3 4-7 4a44 44 0 0 1-12 1h-1a167 167 0 0 1-21-1l-2-1a7 7 0 0 0 0-1v-28a7 7 0 0 0 0-2 14 14 0 0 1 3-5c7-6 15-27 15-27a2 2 0 0 0 0-2v-5a6 6 0 0 1 5 3c2 2 2 6 0 12-3 9-3 13-1 15a4 4 0 0 0 4 1l3-1c5-1 14-2 18 1 2 3 0 6 0 6a2 2 0 0 0 1 3 6 6 0 0 1 1 4 6 6 0 0 1-2 5z" class="cls-8"/>
        <path d="M728 186a10 10 0 0 0 3-7 10 10 0 0 0-3-6 9 9 0 0 0-2-10c-2-3-7-4-13-3a52 52 0 0 0-8 1h-3l2-10c2-7 2-12 0-16a11 11 0 0 0-9-4 4 4 0 0 0-3 1c-2 3-2 7-2 8-2 6-8 21-13 25a1 1 0 0 0-1 0 18 18 0 0 0-3 5 7 7 0 0 0-3 0h-11a7 7 0 0 0-7 7v27a7 7 0 0 0 7 7h11a7 7 0 0 0 4-1h4a170 170 0 0 0 22 1l6 1a38 38 0 0 0 8-1c5-1 8-3 10-7a10 10 0 0 0 1-6 11 11 0 0 0 4-9 11 11 0 0 0-1-3zm-69 20a2 2 0 0 1-2-2v-28a2 2 0 0 1 2-2h11a2 2 0 0 1 2 2v28a2 2 0 0 1-2 2h-11zm65-22a2 2 0 0 0 0 3 7 7 0 0 1 0 2c1 3 0 4-3 6a2 2 0 0 0 0 3 6 6 0 0 1-1 4c-1 2-4 4-7 4a44 44 0 0 1-13 1 167 167 0 0 1-22-1l-1-1a7 7 0 0 0 0-1v-28a7 7 0 0 0-1-2 14 14 0 0 1 3-5c8-6 15-27 16-27a2 2 0 0 0 0-2v-5a6 6 0 0 1 5 3c2 2 1 6 0 12-3 9-3 13-1 15a4 4 0 0 0 3 1l3-1h1c5-1 14-2 17 1s1 6 1 6a2 2 0 0 0 0 3 6 6 0 0 1 2 4 6 6 0 0 1-2 5z" class="cls-8"/>
        <path d="M578 186a10 10 0 0 0 2-7 10 10 0 0 0-2-6 9 9 0 0 0-2-10c-3-3-7-4-14-3a52 52 0 0 0-8 1h-2c-1-1 0-3 2-10s2-12-1-16a11 11 0 0 0-8-4 4 4 0 0 0-4 1l-1 8c-2 6-8 21-14 25a18 18 0 0 0-3 5 7 7 0 0 0-4 0h-10a7 7 0 0 0-7 7v27a7 7 0 0 0 7 7h10a7 7 0 0 0 4-1h4a170 170 0 0 0 23 1l5 1a38 38 0 0 0 8-1c5-1 9-3 11-7a10 10 0 0 0 1-6 11 11 0 0 0 4-9 12 12 0 0 0-1-3zm-69 20a2 2 0 0 1-2-2v-28a2 2 0 0 1 2-2h10a2 2 0 0 1 3 2v28a2 2 0 0 1-3 2h-10zm65-22a2 2 0 0 0-1 3 7 7 0 0 1 1 2c0 3-1 4-3 6a2 2 0 0 0-1 3 6 6 0 0 1 0 4c-1 2-4 4-8 4a44 44 0 0 1-12 1 167 167 0 0 1-22-1l-2-1a7 7 0 0 0 0-1v-28a7 7 0 0 0 0-2 14 14 0 0 1 3-5c8-6 15-27 15-27a2 2 0 0 0 0-2l1-5a6 6 0 0 1 4 3c2 2 2 6 0 12-3 9-3 13-1 15a4 4 0 0 0 4 1l3-1c5-1 15-2 18 1s1 6 0 6a2 2 0 0 0 1 3 6 6 0 0 1 2 4 6 6 0 0 1-2 5z" class="cls-8"/>
        <path d="M2443 296a10 10 0 0 0 3-7 10 10 0 0 0-2-6 9 9 0 0 0-3-10c-2-2-7-4-13-3a53 53 0 0 0-8 1h-3l2-9c2-8 2-13 0-17a11 11 0 0 0-9-4 4 4 0 0 0-3 1c-2 3-2 7-2 8-2 6-8 21-13 25a1 1 0 0 0-1 0 18 18 0 0 0-3 5 7 7 0 0 0-3-1h-11a7 7 0 0 0-7 7v28a7 7 0 0 0 7 7h11a7 7 0 0 0 4-1h4a168 168 0 0 0 22 1l6 1a38 38 0 0 0 8-1c5-1 8-3 10-7a10 10 0 0 0 1-6 11 11 0 0 0 4-9 11 11 0 0 0-1-3zm-69 20a2 2 0 0 1-2-2v-27a2 2 0 0 1 2-3h11a2 2 0 0 1 2 3v27a2 2 0 0 1-2 2h-11zm65-22a2 2 0 0 0 0 3 7 7 0 0 1 0 2c1 3 0 5-3 6a2 2 0 0 0 0 3 6 6 0 0 1-1 4c-1 2-4 4-7 4a44 44 0 0 1-13 1 167 167 0 0 1-22-1l-1-1a7 7 0 0 0 0-1v-27a7 7 0 0 0-1-3 14 14 0 0 1 3-5c8-6 15-27 16-27a2 2 0 0 0 0-2v-4a6 6 0 0 1 5 2c2 2 1 6 0 12-3 9-3 13-1 15a4 4 0 0 0 3 1l3-1h1c5-1 14-2 17 1s1 6 1 6a2 2 0 0 0 0 3 6 6 0 0 1 2 4 6 6 0 0 1-2 5z" class="cls-8"/>
        <path d="M2293 296a10 10 0 0 0 2-7 10 10 0 0 0-2-6 9 9 0 0 0-2-10c-3-2-7-4-14-3a53 53 0 0 0-8 1h-2c-1-1 0-3 2-9 2-8 2-13-1-17a11 11 0 0 0-8-4 4 4 0 0 0-4 2l-1 8c-2 6-8 20-14 24a18 18 0 0 0-3 5 7 7 0 0 0-4 0h-10a7 7 0 0 0-7 7v27a7 7 0 0 0 7 7h10a7 7 0 0 0 4-1h4a168 168 0 0 0 23 1l5 1a38 38 0 0 0 8-1c5-1 9-3 11-7a10 10 0 0 0 1-6 11 11 0 0 0 4-9 11 11 0 0 0-1-3zm-69 20a2 2 0 0 1-2-2v-27a2 2 0 0 1 2-3h10a2 2 0 0 1 3 3v27a2 2 0 0 1-3 2h-10zm65-22a2 2 0 0 0-1 3 7 7 0 0 1 1 2c0 3-1 5-3 6a2 2 0 0 0-1 3 6 6 0 0 1 0 4c-1 2-4 4-8 4a44 44 0 0 1-12 1 167 167 0 0 1-22-1l-2-1a7 7 0 0 0 0-1v-27a7 7 0 0 0 0-3 14 14 0 0 1 3-5c8-6 15-27 15-27a2 2 0 0 0 0-2l1-4a6 6 0 0 1 4 2c2 2 2 6 0 12-3 9-3 13-1 15a4 4 0 0 0 4 1l3-1c5-1 15-2 18 1s1 6 0 6a2 2 0 0 0 1 3 6 6 0 0 1 2 4 6 6 0 0 1-2 5z" class="cls-8"/>
        <path d="M2143 296a10 10 0 0 0 2-7 10 10 0 0 0-2-6 9 9 0 0 0-2-10c-3-2-8-4-14-3a53 53 0 0 0-8 1h-3l2-9c3-8 3-13 0-17a11 11 0 0 0-9-4 4 4 0 0 0-3 2c-2 2-2 6-1 8-3 6-9 20-14 24a18 18 0 0 0-4 5 7 7 0 0 0-3-1h-10a7 7 0 0 0-7 8v27a7 7 0 0 0 7 7h10a7 7 0 0 0 4-1h4a168 168 0 0 0 22 1l6 1a38 38 0 0 0 8-1c5-1 9-3 10-7a10 10 0 0 0 1-6 11 11 0 0 0 4-9 11 11 0 0 0 0-3zm-69 20a2 2 0 0 1-3-2v-27a2 2 0 0 1 3-3h10a2 2 0 0 1 2 3v27a2 2 0 0 1-2 2h-10zm64-22a2 2 0 0 0 0 3 7 7 0 0 1 1 2c0 3-1 5-3 6a2 2 0 0 0-1 3 6 6 0 0 1-1 4c-1 2-3 4-7 4a44 44 0 0 1-12 1h-1a167 167 0 0 1-22-1l-1-1a7 7 0 0 0 0-1v-27a7 7 0 0 0 0-3 14 14 0 0 1 3-5c7-6 15-27 15-27a2 2 0 0 0 0-2v-4a6 6 0 0 1 5 2c2 2 2 6 0 12-3 9-3 13-1 15a4 4 0 0 0 4 1l3-1c5-1 14-2 18 1 2 3 0 6 0 6a2 2 0 0 0 1 3 6 6 0 0 1 1 4 6 6 0 0 1-2 5z" class="cls-8"/>
        <path d="M1992 296a10 10 0 0 0 3-7 10 10 0 0 0-3-6 9 9 0 0 0-2-10c-2-2-7-4-13-3a53 53 0 0 0-9 1h-2l2-9c2-8 2-13-1-17a11 11 0 0 0-8-4 4 4 0 0 0-3 2c-2 2-2 6-2 8-2 6-8 20-14 24a18 18 0 0 0-3 5 7 7 0 0 0-3-1h-11a7 7 0 0 0-7 8v27a7 7 0 0 0 7 7h11a7 7 0 0 0 4-1h4a168 168 0 0 0 22 1l6 1a38 38 0 0 0 8-1c5-1 8-3 10-7a10 10 0 0 0 1-6 11 11 0 0 0 4-9 11 11 0 0 0-1-3zm-69 20a2 2 0 0 1-2-2v-27a2 2 0 0 1 2-3h11a2 2 0 0 1 2 3v27a2 2 0 0 1-2 2h-11zm65-22a2 2 0 0 0 0 3 7 7 0 0 1 0 2c0 3-1 5-3 6a2 2 0 0 0-1 3 6 6 0 0 1 0 4c-1 2-4 4-7 4a44 44 0 0 1-13 1 167 167 0 0 1-22-1l-2-1a7 7 0 0 0 1-1v-27a7 7 0 0 0-1-3 14 14 0 0 1 3-5c8-6 15-27 16-27a2 2 0 0 0 0-2v-4a6 6 0 0 1 5 2v12c-3 9-4 13-1 15a4 4 0 0 0 3 1l3-1h1c5-1 14-2 17 1s1 6 1 6a2 2 0 0 0 0 3 6 6 0 0 1 2 4 6 6 0 0 1-2 5z" class="cls-8"/>
        <path d="M1842 296a10 10 0 0 0 2-7 10 10 0 0 0-2-6 9 9 0 0 0-2-10c-3-2-7-4-14-3a53 53 0 0 0-8 1h-3l3-9c2-8 2-13-1-17a11 11 0 0 0-9-4 4 4 0 0 0-3 2c-2 2-1 6-1 8-2 6-9 20-14 24a18 18 0 0 0-3 5 7 7 0 0 0-4-1h-10a7 7 0 0 0-7 8v27a7 7 0 0 0 7 7h10a7 7 0 0 0 4-1h4a168 168 0 0 0 23 1l5 1a38 38 0 0 0 8-1c5-1 9-3 11-7a10 10 0 0 0 1-6 11 11 0 0 0 4-9 11 11 0 0 0-1-3zm-69 20a2 2 0 0 1-3-2v-27a2 2 0 0 1 3-3h10a2 2 0 0 1 3 3v27a2 2 0 0 1-3 2h-10zm65-22a2 2 0 0 0-1 3 7 7 0 0 1 1 2c0 3-1 5-3 6a2 2 0 0 0-1 3 6 6 0 0 1 0 4c-2 2-4 4-8 4a44 44 0 0 1-12 1 166 166 0 0 1-22-1l-2-1a7 7 0 0 0 0-1v-27a7 7 0 0 0 0-3 14 14 0 0 1 3-5c8-6 15-27 15-27a2 2 0 0 0 0-2l1-4a6 6 0 0 1 4 2c2 2 2 6 0 12-3 9-3 13-1 15a4 4 0 0 0 4 1l3-1c5-1 15-2 18 1s1 6 0 6a2 2 0 0 0 1 3 6 6 0 0 1 2 4 6 6 0 0 1-2 5z" class="cls-8"/>
        <path d="M1691 296a10 10 0 0 0 3-7 10 10 0 0 0-2-6 9 9 0 0 0-2-10c-3-2-8-4-14-3a53 53 0 0 0-8 1h-3l2-9c3-8 2-13 0-17a11 11 0 0 0-9-4 4 4 0 0 0-3 2c-2 2-2 6-2 8-2 6-8 20-13 24a1 1 0 0 0-1 0 18 18 0 0 0-3 5 7 7 0 0 0-3 0h-10a7 7 0 0 0-7 7v27a7 7 0 0 0 7 7h10a7 7 0 0 0 4-1h4a168 168 0 0 0 22 1l6 1a38 38 0 0 0 8-1c5-1 8-3 10-7a10 10 0 0 0 1-6 11 11 0 0 0 4-9 11 11 0 0 0-1-3zm-69 20a2 2 0 0 1-2-2v-27a2 2 0 0 1 2-3h11a2 2 0 0 1 2 3v27a2 2 0 0 1-2 2h-11zm65-22a2 2 0 0 0 0 3 7 7 0 0 1 1 2c0 3-1 5-4 6a2 2 0 0 0 0 3 6 6 0 0 1-1 4c-1 2-3 4-7 4a44 44 0 0 1-13 1 167 167 0 0 1-22-1l-1-1a7 7 0 0 0 0-1v-27a7 7 0 0 0-1-3 14 14 0 0 1 4-5c7-6 15-27 15-27a2 2 0 0 0 0-2v-4a6 6 0 0 1 5 2c2 2 2 6 0 12-3 9-3 13-1 15a4 4 0 0 0 4 1l3-1c5-1 14-2 17 1s1 6 1 6a2 2 0 0 0 0 3 6 6 0 0 1 2 4 6 6 0 0 1-2 5z" class="cls-8"/>
        <path d="M1541 296a10 10 0 0 0 2-7 10 10 0 0 0-2-6 9 9 0 0 0-2-10c-3-2-7-4-13-3a53 53 0 0 0-9 1h-2l2-9c2-8 2-13-1-17a11 11 0 0 0-8-4 4 4 0 0 0-4 2l-1 8c-2 6-8 20-14 24a18 18 0 0 0-3 5 7 7 0 0 0-4-1h-10a7 7 0 0 0-7 8v27a7 7 0 0 0 7 7h10a7 7 0 0 0 4-1h4a168 168 0 0 0 23 1l6 1a38 38 0 0 0 7-1c6-1 9-3 11-7a10 10 0 0 0 1-6 11 11 0 0 0 4-9 11 11 0 0 0-1-3zm-69 20a2 2 0 0 1-2-2v-27a2 2 0 0 1 2-3h10a2 2 0 0 1 3 3v27a2 2 0 0 1-3 2h-10zm65-22a2 2 0 0 0-1 3 7 7 0 0 1 1 2c0 3-1 5-3 6a2 2 0 0 0-1 3 6 6 0 0 1 0 4c-1 2-4 4-8 4a44 44 0 0 1-12 1 167 167 0 0 1-22-1l-2-1a7 7 0 0 0 0-1v-27a7 7 0 0 0 0-3 14 14 0 0 1 3-5c8-6 15-27 16-27a2 2 0 0 0 0-2v-4a6 6 0 0 1 5 2c1 2 1 6-1 12-2 9-3 13 0 15a4 4 0 0 0 3 1l3-1c6-1 15-2 18 1s1 6 1 6a2 2 0 0 0 0 3 6 6 0 0 1 2 4 6 6 0 0 1-2 5z" class="cls-8"/>
        <path d="M1391 296a10 10 0 0 0 2-7 10 10 0 0 0-2-6 9 9 0 0 0-2-10c-3-2-7-4-14-3a53 53 0 0 0-8 1h-3l2-9c3-8 3-13 0-17a11 11 0 0 0-9-4 4 4 0 0 0-3 2c-2 2-2 6-1 8-3 6-9 20-14 24a18 18 0 0 0-4 5 7 7 0 0 0-3-1h-10a7 7 0 0 0-7 8v27a7 7 0 0 0 7 7h10a7 7 0 0 0 4-1h4a168 168 0 0 0 23 1l5 1a38 38 0 0 0 8-1c5-1 9-3 10-7a10 10 0 0 0 2-6 11 11 0 0 0 3-9 11 11 0 0 0 0-3zm-69 20a2 2 0 0 1-3-2v-27a2 2 0 0 1 3-3h10a2 2 0 0 1 2 3v27a2 2 0 0 1-2 2h-10zm64-22a2 2 0 0 0 0 3 7 7 0 0 1 1 2c0 3-1 5-3 6a2 2 0 0 0-1 3 6 6 0 0 1-1 4c-1 2-3 4-7 4a44 44 0 0 1-12 1h-1a167 167 0 0 1-21-1l-2-1a7 7 0 0 0 0-1v-27a7 7 0 0 0 0-3 14 14 0 0 1 3-5c7-6 15-27 15-27a2 2 0 0 0 0-2v-4a6 6 0 0 1 5 2c2 2 2 6 0 12-3 9-3 13-1 15a4 4 0 0 0 4 1l3-1c5-1 14-2 18 1 2 3 0 6 0 6a2 2 0 0 0 1 3 6 6 0 0 1 2 4 6 6 0 0 1-3 5z" class="cls-8"/>
        <path d="M1240 296a10 10 0 0 0 3-7 10 10 0 0 0-2-6 9 9 0 0 0-3-10c-2-2-7-4-13-3a53 53 0 0 0-8 1h-3l2-9c2-8 2-13 0-17a11 11 0 0 0-9-4 4 4 0 0 0-3 1c-2 3-2 7-2 8-2 6-8 21-13 25a2 2 0 0 0-1 0 18 18 0 0 0-3 5 7 7 0 0 0-3-1h-11a7 7 0 0 0-7 7v28a7 7 0 0 0 7 7h11a7 7 0 0 0 4-1h4a168 168 0 0 0 22 1l6 1a38 38 0 0 0 8-1c5-1 8-3 10-7a10 10 0 0 0 1-6 11 11 0 0 0 4-9 11 11 0 0 0-1-3zm-69 20a2 2 0 0 1-2-2v-27a2 2 0 0 1 2-3h11a2 2 0 0 1 2 3v27a2 2 0 0 1-2 2h-11zm65-22a2 2 0 0 0 0 3 7 7 0 0 1 1 2c0 3-1 5-4 6a2 2 0 0 0 0 3 6 6 0 0 1-1 4c-1 2-4 4-7 4a44 44 0 0 1-13 1 167 167 0 0 1-22-1l-1-1a7 7 0 0 0 0-1v-27a7 7 0 0 0-1-3 14 14 0 0 1 4-5c7-6 15-27 15-27a2 2 0 0 0 0-2v-4a6 6 0 0 1 5 2c2 2 2 6 0 12-3 9-3 13-1 15a4 4 0 0 0 4 1l2-1h1c5-1 14-2 17 1s1 6 1 6a2 2 0 0 0 0 3 6 6 0 0 1 2 4 6 6 0 0 1-2 5z" class="cls-8"/>
        <path d="M1090 296a10 10 0 0 0 2-7 10 10 0 0 0-2-6 9 9 0 0 0-2-10c-3-2-7-4-14-3a53 53 0 0 0-8 1h-2c-1-1 0-3 2-9 2-8 2-13-1-17a11 11 0 0 0-8-4 4 4 0 0 0-4 2c-2 2-1 6-1 8-2 6-9 20-14 24a18 18 0 0 0-3 5 7 7 0 0 0-4 0h-10a7 7 0 0 0-7 7v27a7 7 0 0 0 7 7h10a7 7 0 0 0 4-1h4a168 168 0 0 0 23 1l5 1a38 38 0 0 0 8-1c5-1 9-3 11-7a10 10 0 0 0 1-6 11 11 0 0 0 4-9 11 11 0 0 0-1-3zm-69 20a2 2 0 0 1-2-2v-27a2 2 0 0 1 2-3h10a2 2 0 0 1 3 3v27a2 2 0 0 1-3 2h-10zm65-22a2 2 0 0 0-1 3 7 7 0 0 1 1 2c0 3-1 5-3 6a2 2 0 0 0-1 3 6 6 0 0 1 0 4c-1 2-4 4-8 4a44 44 0 0 1-12 1 166 166 0 0 1-22-1l-2-1a7 7 0 0 0 0-1v-27a7 7 0 0 0 0-3 14 14 0 0 1 3-5c8-6 15-27 15-27a2 2 0 0 0 0-2l1-4a6 6 0 0 1 4 2c2 2 2 6 0 12-3 9-3 13-1 15a4 4 0 0 0 4 1l3-1c5-1 15-2 18 1s1 6 0 6a2 2 0 0 0 1 3 6 6 0 0 1 2 4 6 6 0 0 1-2 5z" class="cls-8"/>
        <path d="M940 296a10 10 0 0 0 2-7 10 10 0 0 0-2-6 9 9 0 0 0-2-10c-3-2-8-4-14-3a53 53 0 0 0-8 1h-3l2-9c3-8 3-13 0-17a11 11 0 0 0-9-4 4 4 0 0 0-3 2c-2 2-2 6-1 8-3 6-9 20-14 24a18 18 0 0 0-4 5 7 7 0 0 0-3 0h-10a7 7 0 0 0-7 7v27a7 7 0 0 0 7 7h10a7 7 0 0 0 4-1h4a168 168 0 0 0 22 1l6 1a38 38 0 0 0 8-1c5-1 9-3 10-7a10 10 0 0 0 2-6 11 11 0 0 0 3-9 11 11 0 0 0 0-3zm-69 20a2 2 0 0 1-3-2v-27a2 2 0 0 1 3-3h10a2 2 0 0 1 2 3v27a2 2 0 0 1-2 2h-10zm64-22a2 2 0 0 0 0 3 7 7 0 0 1 1 2c0 3-1 5-3 6a2 2 0 0 0-1 3 6 6 0 0 1-1 4c-1 2-3 4-7 4a44 44 0 0 1-12 1h-1a167 167 0 0 1-22-1l-1-1a7 7 0 0 0 0-1v-27a7 7 0 0 0 0-3 14 14 0 0 1 3-5c7-6 15-27 15-27a2 2 0 0 0 0-2v-4a6 6 0 0 1 5 2c2 2 2 6 0 12-3 9-3 13-1 15a4 4 0 0 0 4 1l3-1c5-1 14-2 18 1 2 3 0 6 0 6a2 2 0 0 0 1 3 6 6 0 0 1 1 4 6 6 0 0 1-2 5z" class="cls-8"/>
        <path d="M789 296a10 10 0 0 0 3-7 10 10 0 0 0-3-6 9 9 0 0 0-2-10c-2-2-7-4-13-3a53 53 0 0 0-9 1h-2l2-9c2-8 2-13-1-17a11 11 0 0 0-8-4 4 4 0 0 0-3 2c-2 2-2 6-2 8-2 6-8 20-14 24a18 18 0 0 0-3 5 7 7 0 0 0-3 0h-11a7 7 0 0 0-7 7v27a7 7 0 0 0 7 7h11a7 7 0 0 0 4-1h4a168 168 0 0 0 22 1l6 1a38 38 0 0 0 7-1c6-1 9-3 11-7a10 10 0 0 0 1-6 11 11 0 0 0 4-9 11 11 0 0 0-1-3zm-69 20a2 2 0 0 1-2-2v-27a2 2 0 0 1 2-3h11a2 2 0 0 1 2 3v27a2 2 0 0 1-2 2h-11zm65-22a2 2 0 0 0 0 3 7 7 0 0 1 0 2c0 3-1 5-3 6a2 2 0 0 0-1 3 6 6 0 0 1 0 4c-1 2-4 4-7 4a44 44 0 0 1-13 1 167 167 0 0 1-22-1l-2-1a7 7 0 0 0 1-1v-27a7 7 0 0 0-1-3 14 14 0 0 1 3-5c8-6 15-27 16-27a2 2 0 0 0 0-2v-4a6 6 0 0 1 5 2v12c-3 9-4 13-1 15a4 4 0 0 0 3 1l3-1h1c5-1 14-2 17 1s1 6 1 6a2 2 0 0 0 0 3 6 6 0 0 1 2 4 6 6 0 0 1-2 5z" class="cls-8"/>
        <path d="M639 296a10 10 0 0 0 2-7 10 10 0 0 0-2-6 9 9 0 0 0-2-10c-3-2-7-4-14-3a53 53 0 0 0-8 1h-3l3-9c2-8 2-13-1-17a11 11 0 0 0-8-4 4 4 0 0 0-4 1c-2 3-1 7-1 8-2 6-9 21-14 25a18 18 0 0 0-3 5 7 7 0 0 0-4-1h-10a7 7 0 0 0-7 7v28a7 7 0 0 0 7 7h10a7 7 0 0 0 4-1h4a168 168 0 0 0 23 1l5 1a38 38 0 0 0 8-1c5-1 9-3 11-7a10 10 0 0 0 1-6 11 11 0 0 0 4-9 11 11 0 0 0-1-3zm-69 20a2 2 0 0 1-3-2v-27a2 2 0 0 1 3-3h10a2 2 0 0 1 3 3v27a2 2 0 0 1-3 2h-10zm65-22a2 2 0 0 0-1 3 7 7 0 0 1 1 2c0 3-1 5-3 6a2 2 0 0 0-1 3 6 6 0 0 1 0 4c-2 2-4 4-8 4a44 44 0 0 1-12 1 167 167 0 0 1-22-1l-2-1a7 7 0 0 0 0-1v-27a7 7 0 0 0 0-3 14 14 0 0 1 3-5c8-6 15-27 15-27a2 2 0 0 0 0-2l1-4a6 6 0 0 1 4 2c2 2 2 6 0 12-3 9-3 13-1 15a4 4 0 0 0 4 1l3-1c5-1 15-2 18 1s1 6 0 6a2 2 0 0 0 1 3 6 6 0 0 1 2 4 6 6 0 0 1-2 5z" class="cls-8"/>
        <path d="M489 296a10 10 0 0 0 2-7 10 10 0 0 0-2-6 9 9 0 0 0-2-10c-3-2-8-4-14-3a53 53 0 0 0-8 1h-3l2-9c3-8 2-13 0-17a11 11 0 0 0-9-4 4 4 0 0 0-3 2c-2 2-2 6-2 8-2 6-8 20-13 24a2 2 0 0 0-1 0 18 18 0 0 0-3 5 7 7 0 0 0-3 0h-10a7 7 0 0 0-7 7v27a7 7 0 0 0 7 7h10a7 7 0 0 0 4-1h4a168 168 0 0 0 22 1l6 1a38 38 0 0 0 8-1c5-1 8-3 10-7a10 10 0 0 0 1-6 11 11 0 0 0 4-9 11 11 0 0 0 0-3zm-69 20a2 2 0 0 1-3-2v-27a2 2 0 0 1 3-3h10a2 2 0 0 1 2 3v27a2 2 0 0 1-2 2h-10zm64-22a2 2 0 0 0 0 3 7 7 0 0 1 1 2c0 3-1 5-4 6a2 2 0 0 0 0 3 6 6 0 0 1-1 4c-1 2-3 4-7 4a44 44 0 0 1-12 1h-1a167 167 0 0 1-22-1l-1-1a7 7 0 0 0 0-1v-27a7 7 0 0 0 0-3 14 14 0 0 1 3-5c7-6 15-27 15-27a2 2 0 0 0 0-2v-4a6 6 0 0 1 5 2c2 2 2 6 0 12-3 9-3 13-1 15a4 4 0 0 0 4 1l3-1c5-1 14-2 17 1s1 6 1 6a2 2 0 0 0 0 3 6 6 0 0 1 2 4 6 6 0 0 1-2 5z" class="cls-8"/>
        <path d="M2503 427a10 10 0 0 0 3-7 10 10 0 0 0-2-6 9 9 0 0 0-3-10c-2-3-7-4-13-3a53 53 0 0 0-8 1h-3l2-9c2-8 2-13 0-17a11 11 0 0 0-9-4 4 4 0 0 0-3 1c-2 3-2 7-2 8-2 6-8 21-13 25a2 2 0 0 0-1 0 18 18 0 0 0-3 5 7 7 0 0 0-3-1h-11a7 7 0 0 0-7 7v28a7 7 0 0 0 7 7h11a7 7 0 0 0 4-1h4a168 168 0 0 0 22 1l6 1a38 38 0 0 0 8-1c5-1 8-3 10-7a10 10 0 0 0 1-6 11 11 0 0 0 4-9 11 11 0 0 0-1-3zm-69 20a2 2 0 0 1-2-2v-27a2 2 0 0 1 2-3h11a2 2 0 0 1 2 3v27a2 2 0 0 1-2 2h-11zm65-22a2 2 0 0 0 0 3 7 7 0 0 1 1 2c0 3-1 5-4 6a2 2 0 0 0 0 3 6 6 0 0 1-1 4c-1 2-4 4-7 4a44 44 0 0 1-13 1 167 167 0 0 1-22-1l-1-1a7 7 0 0 0 0-1v-27a7 7 0 0 0-1-3 14 14 0 0 1 4-5c7-6 15-27 15-27a2 2 0 0 0 0-2v-4a6 6 0 0 1 5 2c2 2 2 6 0 12-3 9-3 13-1 15a4 4 0 0 0 4 1l2-1h1c5-1 14-2 17 1s1 6 1 6a2 2 0 0 0 0 3 6 6 0 0 1 2 4 6 6 0 0 1-2 5z" class="cls-8"/>
        <path d="M2353 427a10 10 0 0 0 2-7 10 10 0 0 0-2-6 9 9 0 0 0-2-10c-3-3-7-4-14-3a53 53 0 0 0-8 1h-2c-1-1 0-3 2-9 2-8 2-13-1-17a11 11 0 0 0-8-4 4 4 0 0 0-4 1l-1 8c-2 6-8 21-14 25a18 18 0 0 0-3 5 7 7 0 0 0-4-1h-10a7 7 0 0 0-7 7v28a7 7 0 0 0 7 7h10a7 7 0 0 0 4-1h4a168 168 0 0 0 23 1l5 1a38 38 0 0 0 8-1c5-1 9-3 11-7a10 10 0 0 0 1-6 11 11 0 0 0 4-9 11 11 0 0 0-1-3zm-69 20a2 2 0 0 1-2-2v-27a2 2 0 0 1 2-3h10a2 2 0 0 1 3 3v27a2 2 0 0 1-3 2h-10zm65-22a2 2 0 0 0-1 3 7 7 0 0 1 1 2c0 3-1 5-3 6a2 2 0 0 0-1 3 6 6 0 0 1 0 4c-1 2-4 4-8 4a44 44 0 0 1-12 1 167 167 0 0 1-22-1l-2-1a7 7 0 0 0 0-1v-27a7 7 0 0 0 0-3 14 14 0 0 1 3-5c8-6 15-27 15-27a2 2 0 0 0 0-2l1-4a6 6 0 0 1 4 2c2 2 2 6 0 12-3 9-3 13-1 15a4 4 0 0 0 4 1l3-1c5-1 15-2 18 1s1 6 0 6a2 2 0 0 0 1 3 6 6 0 0 1 2 4 6 6 0 0 1-2 5z" class="cls-8"/>
        <path d="M2203 427a10 10 0 0 0 2-7 10 10 0 0 0-2-6 9 9 0 0 0-2-10c-3-3-8-4-14-3a53 53 0 0 0-8 1h-3l2-9c3-8 2-13 0-17a11 11 0 0 0-9-4 4 4 0 0 0-3 1c-2 3-2 7-1 8-3 6-9 21-14 25a18 18 0 0 0-4 5 7 7 0 0 0-3-1h-10a7 7 0 0 0-7 7v28a7 7 0 0 0 7 7h10a7 7 0 0 0 4-1h4a168 168 0 0 0 22 1l6 1a38 38 0 0 0 8-1c5-1 9-3 10-7a10 10 0 0 0 1-6 11 11 0 0 0 4-9 11 11 0 0 0 0-3zm-69 20a2 2 0 0 1-3-2v-27a2 2 0 0 1 3-3h10a2 2 0 0 1 2 3v27a2 2 0 0 1-2 2h-10zm64-22a2 2 0 0 0 0 3 7 7 0 0 1 1 2c0 3-1 5-3 6a2 2 0 0 0-1 3 6 6 0 0 1-1 4c-1 2-3 4-7 4a44 44 0 0 1-12 1h-1a167 167 0 0 1-21-1l-2-1a7 7 0 0 0 0-1v-27a7 7 0 0 0 0-3 14 14 0 0 1 3-5c7-6 15-27 15-27a2 2 0 0 0 0-2v-4a6 6 0 0 1 5 2c2 2 2 6 0 12-3 9-3 13-1 15a4 4 0 0 0 4 1l3-1c5-1 14-2 18 1 2 3 0 6 0 6a2 2 0 0 0 1 3 6 6 0 0 1 1 4 6 6 0 0 1-2 5z" class="cls-8"/>
        <path d="M2052 427a10 10 0 0 0 3-7 10 10 0 0 0-3-6 9 9 0 0 0-2-10c-2-3-7-4-13-3a53 53 0 0 0-9 1h-2l2-9c2-8 2-13-1-17a11 11 0 0 0-8-4 4 4 0 0 0-3 1c-2 3-2 7-2 8-2 6-8 21-13 25a2 2 0 0 0-1 0 18 18 0 0 0-3 5 7 7 0 0 0-3-1h-11a7 7 0 0 0-7 7v28a7 7 0 0 0 7 7h11a7 7 0 0 0 4-1h4a168 168 0 0 0 22 1l6 1a38 38 0 0 0 8-1c5-1 8-3 10-7a10 10 0 0 0 1-6 11 11 0 0 0 4-9 11 11 0 0 0-1-3zm-69 20a2 2 0 0 1-2-2v-27a2 2 0 0 1 2-3h11a2 2 0 0 1 2 3v27a2 2 0 0 1-2 2h-11zm65-22a2 2 0 0 0 0 3 7 7 0 0 1 0 2c0 3-1 5-3 6a2 2 0 0 0-1 3 6 6 0 0 1 0 4c-1 2-4 4-7 4a44 44 0 0 1-13 1 167 167 0 0 1-22-1l-2-1a7 7 0 0 0 1-1v-27a7 7 0 0 0-1-3 14 14 0 0 1 3-5c8-6 15-27 16-27a2 2 0 0 0 0-2v-4a6 6 0 0 1 5 2v12c-3 9-4 13-1 15a4 4 0 0 0 3 1l3-1h1c5-1 14-2 17 1s1 6 1 6a2 2 0 0 0 0 3 6 6 0 0 1 2 4 6 6 0 0 1-2 5z" class="cls-8"/>
        <path d="M1902 427a10 10 0 0 0 2-7 10 10 0 0 0-2-6 9 9 0 0 0-2-10c-3-3-7-4-14-3a53 53 0 0 0-8 1h-3l3-9c2-8 2-13-1-17a11 11 0 0 0-8-4 4 4 0 0 0-4 1c-2 3-1 7-1 8-2 6-9 21-14 25a18 18 0 0 0-3 5 7 7 0 0 0-4-1h-10a7 7 0 0 0-7 7v28a7 7 0 0 0 7 7h10a7 7 0 0 0 4-1h4a168 168 0 0 0 23 1l5 1a38 38 0 0 0 8-1c5-1 9-3 11-7a10 10 0 0 0 1-6 11 11 0 0 0 4-9 11 11 0 0 0-1-3zm-69 20a2 2 0 0 1-3-2v-27a2 2 0 0 1 3-3h10a2 2 0 0 1 3 3v27a2 2 0 0 1-3 2h-10zm65-22a2 2 0 0 0-1 3 7 7 0 0 1 1 2c0 3-1 5-3 6a2 2 0 0 0-1 3 6 6 0 0 1 0 4c-2 2-4 4-8 4a44 44 0 0 1-12 1 167 167 0 0 1-22-1l-2-1a7 7 0 0 0 0-1v-27a7 7 0 0 0 0-3 14 14 0 0 1 3-5c8-6 15-27 15-27a2 2 0 0 0 0-2l1-4a6 6 0 0 1 4 2c2 2 2 6 0 12-3 9-3 13-1 15a4 4 0 0 0 4 1l3-1c5-1 15-2 18 1s1 6 0 6a2 2 0 0 0 1 3 6 6 0 0 1 2 4 6 6 0 0 1-2 5z" class="cls-8"/>
        <path d="M1752 427a10 10 0 0 0 2-7 10 10 0 0 0-2-6 9 9 0 0 0-2-10c-3-3-8-4-14-3a53 53 0 0 0-8 1h-3l2-9c3-8 2-13 0-17a11 11 0 0 0-9-4 4 4 0 0 0-3 1c-2 3-2 7-2 8-2 6-8 21-13 25a2 2 0 0 0-1 0 18 18 0 0 0-3 5 7 7 0 0 0-3-1h-10a7 7 0 0 0-7 7v28a7 7 0 0 0 7 7h10a7 7 0 0 0 4-1h4a168 168 0 0 0 22 1l6 1a38 38 0 0 0 8-1c5-1 8-3 10-7a10 10 0 0 0 1-6 11 11 0 0 0 4-9 11 11 0 0 0 0-3zm-69 20a2 2 0 0 1-3-2v-27a2 2 0 0 1 2-3h11a2 2 0 0 1 2 3v27a2 2 0 0 1-2 2h-11zm64-22a2 2 0 0 0 0 3 7 7 0 0 1 1 2c0 3-1 5-4 6a2 2 0 0 0 0 3 6 6 0 0 1-1 4c-1 2-3 4-7 4a44 44 0 0 1-13 1 167 167 0 0 1-22-1l-1-1a7 7 0 0 0 0-1v-27a7 7 0 0 0-1-3 14 14 0 0 1 4-5c7-6 15-27 15-27a2 2 0 0 0 0-2v-4a6 6 0 0 1 5 2c2 2 2 6 0 12-3 9-3 13-1 15a4 4 0 0 0 4 1l3-1c5-1 14-2 17 1s1 6 1 6a2 2 0 0 0 0 3 6 6 0 0 1 2 4 6 6 0 0 1-2 5z" class="cls-8"/>
        <path d="M1601 427a10 10 0 0 0 2-7 10 10 0 0 0-2-6 9 9 0 0 0-2-10c-3-3-7-4-13-3a53 53 0 0 0-9 1h-2l2-9c2-8 2-13-1-17a11 11 0 0 0-8-4 4 4 0 0 0-3 1c-2 3-2 7-2 8-2 6-8 21-14 25a18 18 0 0 0-3 5 7 7 0 0 0-4-1h-10a7 7 0 0 0-7 7v28a7 7 0 0 0 7 7h10a7 7 0 0 0 4-1h4a168 168 0 0 0 23 1l6 1a38 38 0 0 0 7-1c6-1 9-3 11-7a10 10 0 0 0 1-6 11 11 0 0 0 4-9 11 11 0 0 0-1-3zm-69 20a2 2 0 0 1-2-2v-27a2 2 0 0 1 2-3h10a2 2 0 0 1 3 3v27a2 2 0 0 1-3 2h-10zm65-22a2 2 0 0 0 0 3 7 7 0 0 1 0 2c0 3-1 5-3 6a2 2 0 0 0-1 3 6 6 0 0 1 0 4c-1 2-4 4-8 4a44 44 0 0 1-12 1 167 167 0 0 1-22-1l-2-1a7 7 0 0 0 0-1v-27a7 7 0 0 0 0-3 14 14 0 0 1 3-5c8-6 15-27 16-27a2 2 0 0 0 0-2v-4a6 6 0 0 1 5 2c1 2 1 6-1 12-2 9-3 13 0 15a4 4 0 0 0 3 1l3-1c6-1 15-2 18 1s1 6 1 6a2 2 0 0 0 0 3 6 6 0 0 1 2 4 6 6 0 0 1-2 5z" class="cls-8"/>
        <path d="M1451 427a10 10 0 0 0 2-7 10 10 0 0 0-2-6 9 9 0 0 0-2-10c-3-3-7-4-14-3a53 53 0 0 0-8 1h-3l2-9c3-8 3-13 0-17a11 11 0 0 0-9-4 4 4 0 0 0-3 1c-2 3-2 7-1 8-2 6-9 21-14 25a18 18 0 0 0-4 5 7 7 0 0 0-3-1h-10a7 7 0 0 0-7 7v28a7 7 0 0 0 7 7h10a7 7 0 0 0 4-1h4a168 168 0 0 0 23 1l5 1a38 38 0 0 0 8-1c5-1 9-3 10-7a10 10 0 0 0 2-6 11 11 0 0 0 3-9 11 11 0 0 0 0-3zm-69 20a2 2 0 0 1-3-2v-27a2 2 0 0 1 3-3h10a2 2 0 0 1 2 3v27a2 2 0 0 1-2 2h-10zm64-22a2 2 0 0 0 0 3 7 7 0 0 1 1 2c0 3-1 5-3 6a2 2 0 0 0-1 3 6 6 0 0 1-1 4c-1 2-3 4-7 4a44 44 0 0 1-12 1 167 167 0 0 1-22-1l-2-1a7 7 0 0 0 0-1v-27a7 7 0 0 0 0-3 14 14 0 0 1 3-5c7-6 15-27 15-27a2 2 0 0 0 0-2v-4a6 6 0 0 1 5 2c2 2 2 6 0 12-3 9-3 13-1 15a4 4 0 0 0 4 1l3-1c5-1 14-2 18 1 2 3 0 6 0 6a2 2 0 0 0 1 3 6 6 0 0 1 2 4 6 6 0 0 1-3 5z" class="cls-8"/>
        <path d="M1300 427a10 10 0 0 0 3-7 10 10 0 0 0-2-6 9 9 0 0 0-3-10c-2-3-7-4-13-3a53 53 0 0 0-8 1h-3l2-9c2-8 2-13 0-17a11 11 0 0 0-9-4 4 4 0 0 0-3 1c-2 3-2 7-2 8-2 6-8 21-13 25a2 2 0 0 0-1 0 18 18 0 0 0-3 5 7 7 0 0 0-3-1h-11a7 7 0 0 0-7 7v28a7 7 0 0 0 7 7h11a7 7 0 0 0 4-1h4a168 168 0 0 0 22 1l6 1a38 38 0 0 0 8-1c5-1 8-3 10-7a10 10 0 0 0 1-6 11 11 0 0 0 4-9 11 11 0 0 0-1-3zm-69 20a2 2 0 0 1-2-2v-27a2 2 0 0 1 2-3h11a2 2 0 0 1 2 3v27a2 2 0 0 1-2 2h-11zm65-22a2 2 0 0 0 0 3 7 7 0 0 1 1 2c0 3-1 5-4 6a2 2 0 0 0 0 3 6 6 0 0 1-1 4c-1 2-4 4-7 4a44 44 0 0 1-13 1 167 167 0 0 1-22-1l-1-1a7 7 0 0 0 0-1v-27a7 7 0 0 0-1-3 14 14 0 0 1 4-5c7-6 15-27 15-27a2 2 0 0 0 0-2v-4a6 6 0 0 1 5 2c2 2 2 6 0 12-3 9-3 13-1 15a4 4 0 0 0 4 1l2-1h1c5-1 14-2 17 1s1 6 1 6a2 2 0 0 0 0 3 6 6 0 0 1 2 4 6 6 0 0 1-2 5z" class="cls-8"/>
        <path d="M1150 427a10 10 0 0 0 2-7 10 10 0 0 0-2-6 9 9 0 0 0-2-10c-3-3-7-4-14-3a53 53 0 0 0-8 1h-2c-1-1 0-3 2-9 2-8 2-13-1-17a11 11 0 0 0-8-4 4 4 0 0 0-4 1l-1 8c-2 6-8 21-14 25a18 18 0 0 0-3 5 7 7 0 0 0-4-1h-10a7 7 0 0 0-7 7v28a7 7 0 0 0 7 7h10a7 7 0 0 0 4-1h4a168 168 0 0 0 23 1l5 1a38 38 0 0 0 8-1c5-1 9-3 11-7a10 10 0 0 0 1-6 11 11 0 0 0 4-9 11 11 0 0 0-1-3zm-69 20a2 2 0 0 1-2-2v-27a2 2 0 0 1 2-3h10a2 2 0 0 1 3 3v27a2 2 0 0 1-3 2h-10zm65-22a2 2 0 0 0-1 3 7 7 0 0 1 1 2c0 3-1 5-3 6a2 2 0 0 0-1 3 6 6 0 0 1 0 4c-1 2-4 4-8 4a44 44 0 0 1-12 1 167 167 0 0 1-22-1l-2-1a7 7 0 0 0 0-1v-27a7 7 0 0 0 0-3 14 14 0 0 1 3-5c8-6 15-27 15-27a2 2 0 0 0 1-2v-4a6 6 0 0 1 4 2c2 2 2 6 0 12-3 9-3 13-1 15a4 4 0 0 0 4 1l3-1c5-1 15-2 18 1s1 6 0 6a2 2 0 0 0 1 3 6 6 0 0 1 2 4 6 6 0 0 1-2 5z" class="cls-8"/>
        <path d="M1000 427a10 10 0 0 0 2-7 10 10 0 0 0-2-6 9 9 0 0 0-2-10c-3-3-8-4-14-3a53 53 0 0 0-8 1h-3l2-9c3-8 3-13 0-17a11 11 0 0 0-9-4 4 4 0 0 0-3 1c-2 3-2 7-1 8-3 6-9 21-14 25a18 18 0 0 0-4 5 7 7 0 0 0-3-1h-10a7 7 0 0 0-7 7v28a7 7 0 0 0 7 7h10a7 7 0 0 0 4-1h4a168 168 0 0 0 22 1l6 1a38 38 0 0 0 8-1c5-1 9-3 10-7a10 10 0 0 0 2-6 11 11 0 0 0 3-9 11 11 0 0 0 0-3zm-69 20a2 2 0 0 1-3-2v-27a2 2 0 0 1 3-3h10a2 2 0 0 1 2 3v27a2 2 0 0 1-2 2h-10zm64-22a2 2 0 0 0 0 3 7 7 0 0 1 1 2c0 3-1 5-3 6a2 2 0 0 0-1 3 6 6 0 0 1-1 4c-1 2-3 4-7 4a44 44 0 0 1-12 1h-1a167 167 0 0 1-22-1l-1-1a7 7 0 0 0 0-1v-27a7 7 0 0 0 0-3 14 14 0 0 1 3-5c7-6 15-27 15-27a2 2 0 0 0 0-2v-4a6 6 0 0 1 5 2c2 2 2 6 0 12-3 9-3 13-1 15a4 4 0 0 0 4 1l3-1c5-1 14-2 18 1 2 3 0 6 0 6a2 2 0 0 0 1 3 6 6 0 0 1 1 4 6 6 0 0 1-2 5z" class="cls-8"/>
        <path d="M849 427a10 10 0 0 0 3-7 10 10 0 0 0-3-6 9 9 0 0 0-2-10c-2-3-7-4-13-3a53 53 0 0 0-9 1h-2l2-9c2-8 2-13-1-17a11 11 0 0 0-8-4 4 4 0 0 0-3 1c-2 3-2 7-2 8-2 6-8 21-13 25a3 3 0 0 0-1 0 18 18 0 0 0-3 5 7 7 0 0 0-3-1h-11a7 7 0 0 0-7 7v28a7 7 0 0 0 7 7h11a7 7 0 0 0 4-1h4a168 168 0 0 0 22 1l6 1a38 38 0 0 0 7-1c6-1 9-3 11-7a10 10 0 0 0 1-6 11 11 0 0 0 4-9 11 11 0 0 0-1-3zm-69 20a2 2 0 0 1-2-2v-27a2 2 0 0 1 2-3h11a2 2 0 0 1 2 3v27a2 2 0 0 1-2 2h-11zm65-22a2 2 0 0 0 0 3 7 7 0 0 1 0 2c0 3-1 5-3 6a2 2 0 0 0-1 3 6 6 0 0 1 0 4c-1 2-4 4-7 4a44 44 0 0 1-13 1 167 167 0 0 1-22-1l-2-1a7 7 0 0 0 1-1v-27a7 7 0 0 0-1-3 14 14 0 0 1 3-5c8-6 15-27 16-27a2 2 0 0 0 0-2v-4a6 6 0 0 1 5 2v12c-3 9-4 13-1 15a4 4 0 0 0 3 1l3-1c6-1 15-2 18 1s1 6 1 6a2 2 0 0 0 0 3 6 6 0 0 1 2 4 6 6 0 0 1-2 5z" class="cls-8"/>
        <path d="M699 427a10 10 0 0 0 2-7 10 10 0 0 0-2-6 9 9 0 0 0-2-10c-3-3-7-4-14-3a53 53 0 0 0-8 1h-3l3-9c2-8 2-13-1-17a11 11 0 0 0-8-4 4 4 0 0 0-4 1c-2 3-1 7-1 8-2 6-9 21-14 25a18 18 0 0 0-3 5 7 7 0 0 0-4-1h-10a7 7 0 0 0-7 7v28a7 7 0 0 0 7 7h10a7 7 0 0 0 4-1h4a168 168 0 0 0 23 1l5 1a38 38 0 0 0 8-1c5-1 9-3 11-7a10 10 0 0 0 1-6 11 11 0 0 0 4-9 11 11 0 0 0-1-3zm-69 20a2 2 0 0 1-3-2v-27a2 2 0 0 1 3-3h10a2 2 0 0 1 3 3v27a2 2 0 0 1-3 2h-10zm65-22a2 2 0 0 0-1 3 7 7 0 0 1 1 2c0 3-1 5-3 6a2 2 0 0 0-1 3 6 6 0 0 1 0 4c-2 2-4 4-8 4a44 44 0 0 1-12 1 167 167 0 0 1-22-1l-2-1a7 7 0 0 0 0-1v-27a7 7 0 0 0 0-3 14 14 0 0 1 3-5c8-6 15-27 15-27a2 2 0 0 0 0-2l1-4a6 6 0 0 1 4 2c2 2 2 6 0 12-3 9-3 13-1 15a4 4 0 0 0 4 1l3-1c5-1 15-2 18 1s1 6 0 6a2 2 0 0 0 1 3 6 6 0 0 1 2 4 6 6 0 0 1-2 5z" class="cls-8"/>
        <path d="M549 427a10 10 0 0 0 2-7 10 10 0 0 0-2-6 9 9 0 0 0-2-10c-3-3-8-4-14-3a53 53 0 0 0-8 1h-3l2-9c3-8 2-13 0-17a11 11 0 0 0-9-4 4 4 0 0 0-3 1c-2 3-2 7-2 8-2 6-8 21-13 25a2 2 0 0 0-1 0 18 18 0 0 0-3 5 7 7 0 0 0-3-1h-10a7 7 0 0 0-7 7v28a7 7 0 0 0 7 7h10a7 7 0 0 0 4-1h4a168 168 0 0 0 22 1l6 1a38 38 0 0 0 8-1c5-1 8-3 10-7a10 10 0 0 0 1-6 11 11 0 0 0 4-9 11 11 0 0 0 0-3zm-69 20a2 2 0 0 1-3-2v-27a2 2 0 0 1 3-3h10a2 2 0 0 1 2 3v27a2 2 0 0 1-2 2h-10zm64-22a2 2 0 0 0 0 3 7 7 0 0 1 1 2c0 3-1 5-3 6a2 2 0 0 0-1 3 6 6 0 0 1-1 4c-1 2-3 4-7 4a44 44 0 0 1-12 1h-1a167 167 0 0 1-22-1l-1-1a7 7 0 0 0 0-1v-27a7 7 0 0 0 0-3 14 14 0 0 1 3-5c7-6 15-27 15-27a2 2 0 0 0 0-2v-4a6 6 0 0 1 5 2c2 2 2 6 0 12-3 9-3 13-1 15a4 4 0 0 0 4 1l3-1c5-1 14-2 17 1s1 6 1 6a2 2 0 0 0 0 3 6 6 0 0 1 2 4 6 6 0 0 1-2 5z" class="cls-8"/>
        <path d="M2413 537a10 10 0 0 0 2-7 10 10 0 0 0-2-6 9 9 0 0 0-2-10c-3-2-7-4-14-3a54 54 0 0 0-8 1h-3l3-9c2-8 2-13-1-17a11 11 0 0 0-8-4 4 4 0 0 0-4 2c-2 2-1 6-1 8-2 6-9 20-14 24a18 18 0 0 0-3 5 7 7 0 0 0-4 0h-10a7 7 0 0 0-7 7v27a7 7 0 0 0 7 7h10a7 7 0 0 0 4-1h4a170 170 0 0 0 23 1l5 1a37 37 0 0 0 8-1c5-1 9-3 11-7a10 10 0 0 0 1-6 11 11 0 0 0 4-9 11 11 0 0 0-1-3zm-69 20a2 2 0 0 1-3-2v-27a2 2 0 0 1 3-3h10a2 2 0 0 1 3 3v27a2 2 0 0 1-3 2h-10zm65-22a2 2 0 0 0-1 3 7 7 0 0 1 1 2c0 3-1 5-3 6a2 2 0 0 0-1 3 6 6 0 0 1 0 4c-2 2-4 4-8 4a45 45 0 0 1-12 1 167 167 0 0 1-22-1l-2-1a7 7 0 0 0 0-1v-27a7 7 0 0 0 0-3 14 14 0 0 1 3-5c8-6 15-27 15-27a2 2 0 0 0 0-2l1-4a6 6 0 0 1 4 2c2 2 2 6 0 12-3 9-3 13-1 15a4 4 0 0 0 4 1l3-1c5-1 15-2 18 1s1 6 0 6a2 2 0 0 0 1 3 6 6 0 0 1 0 9z" class="cls-8"/>
        <path d="M2263 537a10 10 0 0 0 2-7 10 10 0 0 0-2-6 9 9 0 0 0-2-10c-3-2-8-4-14-3a55 55 0 0 0-8 1h-3l2-9c3-8 2-13 0-17a11 11 0 0 0-9-4 4 4 0 0 0-3 2c-2 2-2 6-1 8-3 6-9 20-14 24a18 18 0 0 0-4 5 7 7 0 0 0-3 0h-10a7 7 0 0 0-7 7v27a7 7 0 0 0 7 7h10a7 7 0 0 0 4-1h4a170 170 0 0 0 22 1l6 1a37 37 0 0 0 8-1c5-1 8-3 10-7a10 10 0 0 0 1-6 11 11 0 0 0 4-9 11 11 0 0 0 0-3zm-69 20a2 2 0 0 1-3-2v-27a2 2 0 0 1 3-3h10a2 2 0 0 1 2 3v27a2 2 0 0 1-2 2h-10zm64-22a2 2 0 0 0 0 3 7 7 0 0 1 1 2c0 3-1 5-4 6a2 2 0 0 0 0 3 6 6 0 0 1-1 4c-1 2-3 4-7 4a45 45 0 0 1-12 1h-1a166 166 0 0 1-22-1l-1-1a7 7 0 0 0 0-1v-27a7 7 0 0 0 0-3 14 14 0 0 1 3-5c7-6 15-27 15-27a2 2 0 0 0 0-2v-4a6 6 0 0 1 5 2c2 2 2 6 0 12-3 9-3 13-1 15a4 4 0 0 0 4 1l3-1c5-1 14-2 17 1s1 6 1 6a2 2 0 0 0 0 3 6 6 0 0 1 0 9z" class="cls-8"/>
        <path d="M2112 537a10 10 0 0 0 2-7 10 10 0 0 0-2-6 9 9 0 0 0-2-10c-3-2-7-4-13-3a55 55 0 0 0-9 1h-2l2-9c2-8 2-13-1-17a11 11 0 0 0-8-4 4 4 0 0 0-3 2c-2 2-2 6-2 8-2 6-8 20-14 24a18 18 0 0 0-3 5 7 7 0 0 0-4 0h-10a7 7 0 0 0-7 7v27a7 7 0 0 0 7 7h10a7 7 0 0 0 4-1h4a170 170 0 0 0 23 1l6 1a37 37 0 0 0 7-1c6-1 9-3 11-7a10 10 0 0 0 1-6 11 11 0 0 0 4-9 11 11 0 0 0-1-3zm-69 20a2 2 0 0 1-2-2v-27a2 2 0 0 1 2-3h10a2 2 0 0 1 3 3v27a2 2 0 0 1-3 2h-10zm65-22a2 2 0 0 0-1 3 7 7 0 0 1 1 2c0 3-1 5-3 6a2 2 0 0 0-1 3 6 6 0 0 1 0 4c-1 2-4 4-8 4a45 45 0 0 1-12 1 167 167 0 0 1-22-1l-2-1a7 7 0 0 0 1-1v-27a7 7 0 0 0-1-3 14 14 0 0 1 3-5c8-6 15-27 16-27a2 2 0 0 0 0-2v-4a6 6 0 0 1 5 2v12c-3 9-4 13-1 15a4 4 0 0 0 3 1l3-1c6-1 15-2 18 1s1 6 1 6a2 2 0 0 0 0 3 6 6 0 0 1 2 4 6 6 0 0 1-2 5z" class="cls-8"/>
        <path d="M1962 537a10 10 0 0 0 2-7 10 10 0 0 0-2-6 9 9 0 0 0-2-10c-3-2-7-4-14-3a55 55 0 0 0-8 1h-3l2-9c3-8 3-13 0-17a11 11 0 0 0-9-4 4 4 0 0 0-3 2c-2 2-1 6-1 8-2 6-9 20-14 24a18 18 0 0 0-4 5 7 7 0 0 0-3 0h-10a7 7 0 0 0-7 7v27a7 7 0 0 0 7 7h10a7 7 0 0 0 4-1h4a170 170 0 0 0 23 1l5 1a37 37 0 0 0 8-1c5-1 9-3 11-7a10 10 0 0 0 1-6 11 11 0 0 0 4-9 11 11 0 0 0-1-3zm-69 20a2 2 0 0 1-3-2v-27a2 2 0 0 1 3-3h10a2 2 0 0 1 3 3v27a2 2 0 0 1-3 2h-10zm64-22a2 2 0 0 0 0 3 7 7 0 0 1 1 2c0 3-1 5-3 6a2 2 0 0 0-1 3 6 6 0 0 1-1 4c-1 2-3 4-7 4a45 45 0 0 1-12 1 167 167 0 0 1-22-1l-2-1a7 7 0 0 0 0-1v-27a7 7 0 0 0 0-3 14 14 0 0 1 3-5c7-6 15-27 15-27a2 2 0 0 0 0-2v-4a6 6 0 0 1 5 2c2 2 2 6 0 12-3 9-3 13-1 15a4 4 0 0 0 4 1l3-1c5-1 14-2 18 1 2 3 0 6 0 6a2 2 0 0 0 1 3 6 6 0 0 1-1 9z" class="cls-8"/>
        <path d="M1811 537a10 10 0 0 0 3-7 10 10 0 0 0-2-6 9 9 0 0 0-3-10c-2-2-7-4-13-3a55 55 0 0 0-8 1h-3l2-9c2-8 2-13 0-17a11 11 0 0 0-9-4 4 4 0 0 0-3 2c-2 2-2 6-2 8-2 6-8 20-13 24a2 2 0 0 0-1 0 18 18 0 0 0-3 5 7 7 0 0 0-3 0h-11a7 7 0 0 0-7 7v27a7 7 0 0 0 7 7h11a7 7 0 0 0 4-1h4a170 170 0 0 0 22 1l6 1a37 37 0 0 0 8-1c5-1 8-3 10-7a10 10 0 0 0 1-6 11 11 0 0 0 4-9 11 11 0 0 0-1-3zm-69 20a2 2 0 0 1-2-2v-27a2 2 0 0 1 2-3h11a2 2 0 0 1 2 3v27a2 2 0 0 1-2 2h-11zm65-22a2 2 0 0 0 0 3 7 7 0 0 1 1 2c0 3-1 5-4 6a2 2 0 0 0 0 3 6 6 0 0 1-1 4c-1 2-4 4-7 4a45 45 0 0 1-13 1 167 167 0 0 1-22-1l-1-1a7 7 0 0 0 0-1v-27a7 7 0 0 0-1-3 14 14 0 0 1 4-5c7-6 15-27 15-27a2 2 0 0 0 0-2v-4a6 6 0 0 1 5 2c2 2 2 6 0 12-3 9-3 13-1 15a4 4 0 0 0 4 1l2-1h1c5-1 14-2 17 1s1 6 1 6a2 2 0 0 0 0 3 6 6 0 0 1 2 4 6 6 0 0 1-2 5z" class="cls-8"/>
        <path d="M1661 537a10 10 0 0 0 2-7 10 10 0 0 0-2-6 9 9 0 0 0-2-10c-3-2-7-4-14-3a54 54 0 0 0-8 1h-2c-1-1 0-3 2-9 2-8 2-13-1-17a11 11 0 0 0-8-4 4 4 0 0 0-4 2l-1 8c-2 6-8 20-14 24a18 18 0 0 0-3 5 7 7 0 0 0-4 0h-10a7 7 0 0 0-7 7v27a7 7 0 0 0 7 7h10a7 7 0 0 0 4-1h4a170 170 0 0 0 23 1l5 1a37 37 0 0 0 8-1c5-1 9-3 11-7a10 10 0 0 0 1-6 11 11 0 0 0 4-9 11 11 0 0 0-1-3zm-69 20a2 2 0 0 1-2-2v-27a2 2 0 0 1 2-3h10a2 2 0 0 1 3 3v27a2 2 0 0 1-3 2h-10zm65-22a2 2 0 0 0-1 3 7 7 0 0 1 1 2c0 3-1 5-3 6a2 2 0 0 0-1 3 6 6 0 0 1 0 4c-1 2-4 4-8 4a45 45 0 0 1-12 1 167 167 0 0 1-22-1l-2-1a7 7 0 0 0 0-1v-27a7 7 0 0 0 0-3 14 14 0 0 1 3-5c8-6 15-27 15-27a2 2 0 0 0 1-2v-4a6 6 0 0 1 4 2c2 2 2 6 0 12-3 9-3 13-1 15a4 4 0 0 0 4 1l3-1c5-1 15-2 18 1s1 6 0 6a2 2 0 0 0 1 3 6 6 0 0 1 0 9z" class="cls-8"/>
        <path d="M1511 537a10 10 0 0 0 2-7 10 10 0 0 0-2-6 9 9 0 0 0-2-10c-3-2-8-4-14-3a55 55 0 0 0-8 1h-3l2-9c3-8 3-13 0-17a11 11 0 0 0-9-4 4 4 0 0 0-3 2c-2 2-2 6-1 8-3 6-9 20-14 24a18 18 0 0 0-4 5 7 7 0 0 0-3 0h-10a7 7 0 0 0-7 7v27a7 7 0 0 0 7 7h10a7 7 0 0 0 4-1h4a170 170 0 0 0 22 1l6 1a37 37 0 0 0 8-1c5-1 9-3 10-7a10 10 0 0 0 2-6 11 11 0 0 0 3-9 11 11 0 0 0 0-3zm-69 20a2 2 0 0 1-3-2v-27a2 2 0 0 1 3-3h10a2 2 0 0 1 2 3v27a2 2 0 0 1-2 2h-10zm64-22a2 2 0 0 0 0 3 7 7 0 0 1 1 2c0 3-1 5-3 6a2 2 0 0 0-1 3 6 6 0 0 1-1 4c-1 2-3 4-7 4a45 45 0 0 1-12 1h-1a166 166 0 0 1-21-1l-2-1a7 7 0 0 0 0-1v-27a7 7 0 0 0 0-3 14 14 0 0 1 3-5c7-6 15-27 15-27a2 2 0 0 0 0-2v-4a6 6 0 0 1 5 2c2 2 2 6 0 12-3 9-3 13-1 15a4 4 0 0 0 4 1l3-1c5-1 14-2 18 1 2 3 0 6 0 6a2 2 0 0 0 1 3 6 6 0 0 1 1 4 6 6 0 0 1-2 5z" class="cls-8"/>
        <path d="M1360 537a10 10 0 0 0 3-7 10 10 0 0 0-3-6 9 9 0 0 0-2-10c-2-2-7-4-13-3a55 55 0 0 0-9 1h-2l2-9c2-8 2-13-1-17a11 11 0 0 0-8-4 4 4 0 0 0-3 2c-2 2-2 6-2 8-2 6-8 20-13 24a3 3 0 0 0-1 0 18 18 0 0 0-3 5 7 7 0 0 0-3 0h-11a7 7 0 0 0-7 7v27a7 7 0 0 0 7 7h11a7 7 0 0 0 4-1h4a170 170 0 0 0 22 1l6 1a37 37 0 0 0 8-1c5-1 8-3 10-7a10 10 0 0 0 1-6 11 11 0 0 0 4-9 11 11 0 0 0-1-3zm-69 20a2 2 0 0 1-2-2v-27a2 2 0 0 1 2-3h11a2 2 0 0 1 2 3v27a2 2 0 0 1-2 2h-11zm65-22a2 2 0 0 0 0 3 7 7 0 0 1 0 2c1 3 0 5-3 6a2 2 0 0 0 0 3 6 6 0 0 1-1 4c-1 2-4 4-7 4a45 45 0 0 1-13 1 167 167 0 0 1-22-1l-1-1a7 7 0 0 0 0-1v-27a7 7 0 0 0-1-3 14 14 0 0 1 3-5c8-6 15-27 16-27a2 2 0 0 0 0-2v-4a6 6 0 0 1 5 2c2 2 1 6 0 12-3 9-3 13-1 15a4 4 0 0 0 3 1l3-1h1c5-1 14-2 17 1s1 6 1 6a2 2 0 0 0 0 3 6 6 0 0 1 0 9z" class="cls-8"/>
        <path d="M1210 537a10 10 0 0 0 2-7 10 10 0 0 0-2-6 9 9 0 0 0-2-10c-3-2-7-4-14-3a55 55 0 0 0-8 1h-3l3-9c2-8 2-13-1-17a11 11 0 0 0-8-4 4 4 0 0 0-4 2c-2 2-1 6-1 8-2 6-9 20-14 24a18 18 0 0 0-3 5 7 7 0 0 0-4 0h-10a7 7 0 0 0-7 7v27a7 7 0 0 0 7 7h10a7 7 0 0 0 4-1h4a170 170 0 0 0 23 1l5 1a37 37 0 0 0 8-1c5-1 9-3 11-7a10 10 0 0 0 1-6 11 11 0 0 0 4-9 11 11 0 0 0-1-3zm-69 20a2 2 0 0 1-3-2v-27a2 2 0 0 1 3-3h10a2 2 0 0 1 3 3v27a2 2 0 0 1-3 2h-10zm65-22a2 2 0 0 0-1 3 7 7 0 0 1 1 2c0 3-1 5-3 6a2 2 0 0 0-1 3 6 6 0 0 1 0 4c-2 2-4 4-8 4a45 45 0 0 1-12 1 167 167 0 0 1-22-1l-2-1a7 7 0 0 0 0-1v-27a7 7 0 0 0 0-3 14 14 0 0 1 3-5c8-6 15-27 15-27a2 2 0 0 0 0-2l1-4a6 6 0 0 1 4 2c2 2 2 6 0 12-3 9-3 13-1 15a4 4 0 0 0 4 1l3-1c5-1 15-2 18 1s1 6 0 6a2 2 0 0 0 1 3 6 6 0 0 1 0 9z" class="cls-8"/>
        <path d="M1060 537a10 10 0 0 0 2-7 10 10 0 0 0-2-6 9 9 0 0 0-2-10c-3-2-8-4-14-3a55 55 0 0 0-8 1h-3l2-9c3-8 2-13 0-17a11 11 0 0 0-9-4 4 4 0 0 0-3 2c-2 2-2 6-1 8-3 6-9 20-14 24a18 18 0 0 0-4 5 7 7 0 0 0-3 0h-10a7 7 0 0 0-7 7v27a7 7 0 0 0 7 7h10a7 7 0 0 0 4-1h4a170 170 0 0 0 22 1l6 1a37 37 0 0 0 8-1c5-1 8-3 10-7a10 10 0 0 0 1-6 11 11 0 0 0 4-9 11 11 0 0 0 0-3zm-69 20a2 2 0 0 1-3-2v-27a2 2 0 0 1 3-3h10a2 2 0 0 1 2 3v27a2 2 0 0 1-2 2h-10zm64-22a2 2 0 0 0 0 3 7 7 0 0 1 1 2c0 3-1 5-3 6a2 2 0 0 0-1 3 6 6 0 0 1-1 4c-1 2-3 4-7 4a45 45 0 0 1-12 1h-1a167 167 0 0 1-22-1l-1-1a7 7 0 0 0 0-1v-27a7 7 0 0 0 0-3 14 14 0 0 1 3-5c7-6 15-27 15-27a2 2 0 0 0 0-2v-4a6 6 0 0 1 5 2c2 2 2 6 0 12-3 9-3 13-1 15a4 4 0 0 0 4 1l3-1c5-1 14-2 17 1s1 6 1 6a2 2 0 0 0 0 3 6 6 0 0 1 2 4 6 6 0 0 1-2 5z" class="cls-8"/>
        <path d="M909 537a10 10 0 0 0 2-7 10 10 0 0 0-2-6 9 9 0 0 0-2-10c-3-2-7-4-13-3a54 54 0 0 0-9 1h-2l2-9c2-8 2-13-1-17a11 11 0 0 0-8-4 4 4 0 0 0-3 2c-2 2-2 6-2 8-2 6-8 20-14 24a18 18 0 0 0-3 5 7 7 0 0 0-3 0h-11a7 7 0 0 0-7 7v27a7 7 0 0 0 7 7h10a7 7 0 0 0 4-1h4a170 170 0 0 0 23 1l6 1a37 37 0 0 0 7-1c6-1 9-3 11-7a10 10 0 0 0 1-6 11 11 0 0 0 4-9 11 11 0 0 0-1-3zm-69 20a2 2 0 0 1-2-2v-27a2 2 0 0 1 2-3h10a2 2 0 0 1 3 3v27a2 2 0 0 1-3 2h-10zm65-22a2 2 0 0 0 0 3 7 7 0 0 1 0 2c0 3-1 5-3 6a2 2 0 0 0-1 3 6 6 0 0 1 0 4c-1 2-4 4-8 4a45 45 0 0 1-12 1 167 167 0 0 1-22-1l-2-1a7 7 0 0 0 1-1v-27a7 7 0 0 0-1-3 14 14 0 0 1 3-5c8-6 15-27 16-27a2 2 0 0 0 0-2v-4a6 6 0 0 1 5 2v12c-3 9-4 13-1 15a4 4 0 0 0 3 1l3-1h1c5-1 14-2 17 1s1 6 1 6a2 2 0 0 0 0 3 6 6 0 0 1 0 9z" class="cls-8"/>
        <path d="M759 537a10 10 0 0 0 2-7 10 10 0 0 0-2-6 9 9 0 0 0-2-10c-3-2-7-4-14-3a55 55 0 0 0-8 1h-3l2-9c3-8 3-13 0-17a11 11 0 0 0-9-4 4 4 0 0 0-3 2c-2 2-1 6-1 8-2 6-9 20-14 24a18 18 0 0 0-4 5 7 7 0 0 0-3 0h-10a7 7 0 0 0-7 7v27a7 7 0 0 0 7 7h10a7 7 0 0 0 4-1h4a170 170 0 0 0 23 1l5 1a37 37 0 0 0 8-1c5-1 9-3 11-7a10 10 0 0 0 1-6 11 11 0 0 0 3-9 11 11 0 0 0 0-3zm-69 20a2 2 0 0 1-3-2v-27a2 2 0 0 1 3-3h10a2 2 0 0 1 3 3v27a2 2 0 0 1-3 2h-10zm64-22a2 2 0 0 0 0 3 7 7 0 0 1 1 2c0 3-1 5-3 6a2 2 0 0 0-1 3 6 6 0 0 1 0 4c-2 2-4 4-8 4a45 45 0 0 1-12 1 166 166 0 0 1-22-1l-2-1a7 7 0 0 0 0-1v-27a7 7 0 0 0 0-3 14 14 0 0 1 3-5c8-6 15-27 15-27a2 2 0 0 0 0-2l1-4a6 6 0 0 1 4 2c2 2 2 6 0 12-3 9-3 13-1 15a4 4 0 0 0 4 1l3-1c5-1 15-2 18 1 2 3 1 6 0 6a2 2 0 0 0 1 3 6 6 0 0 1 2 4 6 6 0 0 1-3 5z" class="cls-8"/>
        <path d="M608 537a10 10 0 0 0 3-7 10 10 0 0 0-2-6 9 9 0 0 0-3-10c-2-2-7-4-13-3a55 55 0 0 0-8 1h-3l2-9c2-8 2-13 0-17a11 11 0 0 0-9-4 4 4 0 0 0-3 2c-2 2-2 6-2 8-2 6-8 20-13 24a3 3 0 0 0-1 0 18 18 0 0 0-3 5 7 7 0 0 0-3 0h-11a7 7 0 0 0-7 7v27a7 7 0 0 0 7 7h11a7 7 0 0 0 4-1h4a170 170 0 0 0 22 1l6 1a37 37 0 0 0 8-1c5-1 8-3 10-7a10 10 0 0 0 1-6 11 11 0 0 0 4-9 11 11 0 0 0-1-3zm-69 20a2 2 0 0 1-2-2v-27a2 2 0 0 1 2-3h11a2 2 0 0 1 2 3v27a2 2 0 0 1-2 2h-11zm65-22a2 2 0 0 0 0 3 7 7 0 0 1 1 2c0 3-1 5-4 6a2 2 0 0 0 0 3 6 6 0 0 1-1 4c-1 2-3 4-7 4a45 45 0 0 1-13 1 167 167 0 0 1-22-1l-1-1a7 7 0 0 0 0-1v-27a7 7 0 0 0-1-3 14 14 0 0 1 4-5c7-6 15-27 15-27a2 2 0 0 0 0-2v-4a6 6 0 0 1 5 2c2 2 2 6 0 12-3 9-3 13-1 15a4 4 0 0 0 4 1l2-1h1c5-1 14-2 17 1s1 6 1 6a2 2 0 0 0 0 3 6 6 0 0 1 0 9z" class="cls-8"/>
        <path d="M458 537a10 10 0 0 0 2-7 10 10 0 0 0-2-6 9 9 0 0 0-2-10c-3-2-7-4-13-3a55 55 0 0 0-9 1h-2l2-9c2-8 2-13-1-17a11 11 0 0 0-8-4 4 4 0 0 0-4 2l-1 8c-2 6-8 20-14 24a18 18 0 0 0-3 5 7 7 0 0 0-4 0h-10a7 7 0 0 0-7 7v27a7 7 0 0 0 7 7h10a7 7 0 0 0 4-1h4a170 170 0 0 0 23 1l5 1a37 37 0 0 0 8-1c5-1 9-3 11-7a10 10 0 0 0 1-6 11 11 0 0 0 4-9 11 11 0 0 0-1-3zm-69 20a2 2 0 0 1-2-2v-27a2 2 0 0 1 2-3h10a2 2 0 0 1 3 3v27a2 2 0 0 1-3 2h-10zm65-22a2 2 0 0 0-1 3 7 7 0 0 1 1 2c0 3-1 5-3 6a2 2 0 0 0-1 3 6 6 0 0 1 0 4c-1 2-4 4-8 4a45 45 0 0 1-12 1 166 166 0 0 1-22-1l-2-1a7 7 0 0 0 0-1v-27a7 7 0 0 0 0-3 14 14 0 0 1 3-5c8-6 15-27 15-27a2 2 0 0 0 0-2l1-4a6 6 0 0 1 4 2c2 2 2 6 0 12-3 9-3 13-1 15a4 4 0 0 0 4 1l3-1c5-1 15-2 18 1s1 6 0 6a2 2 0 0 0 1 3 6 6 0 0 1 0 9z" class="cls-8"/>
        <path d="M2473 668a10 10 0 0 0 2-7 10 10 0 0 0-2-6 9 9 0 0 0-2-10c-3-2-7-4-14-3a53 53 0 0 0-8 1h-3l3-9c2-8 2-13-1-17a11 11 0 0 0-8-4 4 4 0 0 0-4 2c-2 2-1 6-1 8-2 6-9 20-14 24a18 18 0 0 0-3 5 7 7 0 0 0-4 0h-10a7 7 0 0 0-7 7v27a7 7 0 0 0 7 7h10a7 7 0 0 0 4-1h4a168 168 0 0 0 23 1l5 1a38 38 0 0 0 8-1c5-1 9-3 11-7a10 10 0 0 0 1-6 11 11 0 0 0 4-9 11 11 0 0 0-1-3zm-69 20a2 2 0 0 1-3-2v-27a2 2 0 0 1 3-3h10a2 2 0 0 1 3 3v27a2 2 0 0 1-3 2h-10zm65-22a2 2 0 0 0-1 3 7 7 0 0 1 1 2c0 3-1 5-3 6a2 2 0 0 0-1 3 6 6 0 0 1 0 4c-2 2-4 4-8 4a45 45 0 0 1-12 1 166 166 0 0 1-22-1l-2-1a7 7 0 0 0 0-1v-27a7 7 0 0 0 0-3 14 14 0 0 1 3-5c8-6 15-27 15-27a2 2 0 0 0 0-2l1-4a6 6 0 0 1 4 2c2 2 2 6 0 12-3 9-3 13-1 15a4 4 0 0 0 4 1l3-1c5-1 15-2 18 1s1 6 0 6a2 2 0 0 0 1 3 6 6 0 0 1 2 4 6 6 0 0 1-2 5z" class="cls-8"/>
        <path d="M2323 668a10 10 0 0 0 2-7 10 10 0 0 0-2-6 9 9 0 0 0-2-10c-3-2-8-4-14-3a53 53 0 0 0-8 1h-3l2-9c3-8 2-13 0-17a11 11 0 0 0-9-4 4 4 0 0 0-3 2c-2 2-2 6-1 8-3 6-9 20-14 24a18 18 0 0 0-4 5 7 7 0 0 0-3 0h-10a7 7 0 0 0-7 7v27a7 7 0 0 0 7 7h10a7 7 0 0 0 4-1h4a168 168 0 0 0 22 1l6 1a38 38 0 0 0 8-1c5-1 8-3 10-7a10 10 0 0 0 1-6 11 11 0 0 0 4-9 11 11 0 0 0 0-3zm-69 20a2 2 0 0 1-3-2v-27a2 2 0 0 1 3-3h10a2 2 0 0 1 2 3v27a2 2 0 0 1-2 2h-10zm64-22a2 2 0 0 0 0 3 7 7 0 0 1 1 2c0 3-1 5-4 6a2 2 0 0 0 0 3 6 6 0 0 1-1 4c-1 2-3 4-7 4a45 45 0 0 1-12 1h-1a167 167 0 0 1-22-1l-1-1a7 7 0 0 0 0-1v-27a7 7 0 0 0 0-3 14 14 0 0 1 3-5c7-6 15-27 15-27a2 2 0 0 0 0-2v-4a6 6 0 0 1 5 2c2 2 2 6 0 12-3 9-3 13-1 15a4 4 0 0 0 4 1l3-1c5-1 14-2 17 1s1 6 1 6a2 2 0 0 0 0 3 6 6 0 0 1 2 4 6 6 0 0 1-2 5z" class="cls-8"/>
        <path d="M2172 668a10 10 0 0 0 2-7 10 10 0 0 0-2-6 9 9 0 0 0-2-10c-3-2-7-4-13-3a53 53 0 0 0-9 1h-2l2-9c2-8 2-13-1-17a11 11 0 0 0-8-4 4 4 0 0 0-3 2c-2 2-2 6-2 8-2 6-8 20-14 24a18 18 0 0 0-3 5 7 7 0 0 0-4 0h-10a7 7 0 0 0-7 7v27a7 7 0 0 0 7 7h10a7 7 0 0 0 5-1h3a168 168 0 0 0 23 1l6 1a38 38 0 0 0 7-1c6-1 9-3 11-7a10 10 0 0 0 1-6 11 11 0 0 0 4-9 11 11 0 0 0-1-3zm-69 20a2 2 0 0 1-2-2v-27a2 2 0 0 1 2-3h10a2 2 0 0 1 3 3v27a2 2 0 0 1-3 2h-10zm65-22a2 2 0 0 0 0 3 7 7 0 0 1 0 2c0 3-1 5-3 6a2 2 0 0 0-1 3 6 6 0 0 1 0 4c-1 2-4 4-8 4a45 45 0 0 1-12 1 166 166 0 0 1-22-1l-2-1a7 7 0 0 0 1-1v-27a7 7 0 0 0-1-3 14 14 0 0 1 3-5c8-6 15-27 16-27a2 2 0 0 0 0-2v-4a6 6 0 0 1 5 2v12c-3 9-4 13-1 15a4 4 0 0 0 3 1l3-1h1c5-1 14-2 17 1s1 6 1 6a2 2 0 0 0 0 3 6 6 0 0 1 2 4 6 6 0 0 1-2 5z" class="cls-8"/>
        <path d="M2022 668a10 10 0 0 0 2-7 10 10 0 0 0-2-6 9 9 0 0 0-2-10c-3-2-7-4-14-3a53 53 0 0 0-8 1h-3l2-9c3-8 3-13 0-17a11 11 0 0 0-9-4 4 4 0 0 0-3 2c-2 2-1 6-1 8-2 6-9 20-14 24a18 18 0 0 0-4 5 7 7 0 0 0-3 0h-10a7 7 0 0 0-7 7v27a7 7 0 0 0 7 7h10a7 7 0 0 0 4-1h4a168 168 0 0 0 23 1l5 1a38 38 0 0 0 8-1c5-1 9-3 11-7a10 10 0 0 0 1-6 11 11 0 0 0 3-9 11 11 0 0 0 0-3zm-69 20a2 2 0 0 1-3-2v-27a2 2 0 0 1 3-3h10a2 2 0 0 1 3 3v27a2 2 0 0 1-3 2h-10zm64-22a2 2 0 0 0 0 3 7 7 0 0 1 1 2c0 3-1 5-3 6a2 2 0 0 0-1 3 6 6 0 0 1 0 4c-2 2-4 4-8 4a45 45 0 0 1-12 1 167 167 0 0 1-22-1l-2-1a7 7 0 0 0 0-1v-27a7 7 0 0 0 0-3 14 14 0 0 1 3-5c7-6 15-27 15-27a2 2 0 0 0 0-2v-4a6 6 0 0 1 5 2c2 2 2 6 0 12-3 9-3 13-1 15a4 4 0 0 0 4 1l3-1c5-1 14-2 18 1 2 3 0 6 0 6a2 2 0 0 0 1 3 6 6 0 0 1 2 4 6 6 0 0 1-3 5z" class="cls-8"/>
        <path d="M1871 668a10 10 0 0 0 3-7 10 10 0 0 0-2-6 9 9 0 0 0-3-10c-2-2-7-4-13-3a53 53 0 0 0-8 1h-3l2-9c2-8 2-13 0-17a11 11 0 0 0-9-4 4 4 0 0 0-3 1c-2 3-2 7-2 8-2 6-8 21-13 25a2 2 0 0 0-1 0 18 18 0 0 0-3 5 7 7 0 0 0-3 0h-11a7 7 0 0 0-7 7v27a7 7 0 0 0 7 7h11a7 7 0 0 0 4-1h4a168 168 0 0 0 22 1l6 1a38 38 0 0 0 8-1c5-1 8-3 10-7a10 10 0 0 0 1-6 11 11 0 0 0 4-9 11 11 0 0 0-1-3zm-69 20a2 2 0 0 1-2-2v-27a2 2 0 0 1 2-3h11a2 2 0 0 1 2 3v27a2 2 0 0 1-2 2h-11zm65-22a2 2 0 0 0 0 3 7 7 0 0 1 1 2c0 3-1 5-4 6a2 2 0 0 0 0 3 6 6 0 0 1-1 4c-1 2-4 4-7 4a45 45 0 0 1-13 1 167 167 0 0 1-22-1l-1-1a7 7 0 0 0 0-1v-27a7 7 0 0 0-1-3 14 14 0 0 1 4-5c7-6 15-27 15-27a2 2 0 0 0 0-2v-4a6 6 0 0 1 5 2c2 2 2 6 0 12-3 9-3 13-1 15a4 4 0 0 0 4 1l2-1h1c5-1 14-2 17 1s1 6 1 6a2 2 0 0 0 0 3 6 6 0 0 1 2 4 6 6 0 0 1-2 5z" class="cls-8"/>
        <path d="M1721 668a10 10 0 0 0 2-7 10 10 0 0 0-2-6 9 9 0 0 0-2-10c-3-2-7-4-14-3a53 53 0 0 0-8 1h-2c-1-1 0-3 2-9 2-8 2-13-1-17a11 11 0 0 0-8-4 4 4 0 0 0-4 2l-1 8c-2 6-8 20-14 24a18 18 0 0 0-3 5 7 7 0 0 0-4 0h-10a7 7 0 0 0-7 7v27a7 7 0 0 0 7 7h10a7 7 0 0 0 4-1h4a168 168 0 0 0 23 1l5 1a38 38 0 0 0 8-1c5-1 9-3 11-7a10 10 0 0 0 1-6 11 11 0 0 0 4-9 11 11 0 0 0-1-3zm-69 20a2 2 0 0 1-2-2v-27a2 2 0 0 1 2-3h10a2 2 0 0 1 3 3v27a2 2 0 0 1-3 2h-10zm65-22a2 2 0 0 0-1 3 7 7 0 0 1 1 2c0 3-1 5-3 6a2 2 0 0 0-1 3 6 6 0 0 1 0 4c-1 2-4 4-8 4a45 45 0 0 1-12 1 167 167 0 0 1-22-1l-2-1a7 7 0 0 0 0-1v-27a7 7 0 0 0 0-3 14 14 0 0 1 3-5c8-6 15-27 15-27a2 2 0 0 0 0-2l1-4a6 6 0 0 1 4 2c2 2 2 6 0 12-3 9-3 13-1 15a4 4 0 0 0 4 1l3-1c5-1 15-2 18 1s1 6 0 6a2 2 0 0 0 1 3 6 6 0 0 1 2 4 6 6 0 0 1-2 5z" class="cls-8"/>
        <path d="M1571 668a10 10 0 0 0 2-7 10 10 0 0 0-2-6 9 9 0 0 0-2-10c-3-2-8-4-14-3a53 53 0 0 0-8 1h-3l2-9c3-8 3-13 0-17a11 11 0 0 0-9-4 4 4 0 0 0-3 2c-2 2-2 6-1 8-3 6-9 20-14 24a18 18 0 0 0-4 5 7 7 0 0 0-3 0h-10a7 7 0 0 0-7 7v27a7 7 0 0 0 7 7h10a7 7 0 0 0 4-1h4a168 168 0 0 0 22 1l6 1a38 38 0 0 0 8-1c5-1 9-3 10-7a10 10 0 0 0 2-6 11 11 0 0 0 3-9 11 11 0 0 0 0-3zm-69 20a2 2 0 0 1-3-2v-27a2 2 0 0 1 3-3h10a2 2 0 0 1 2 3v27a2 2 0 0 1-2 2h-10zm64-22a2 2 0 0 0 0 3 7 7 0 0 1 1 2c0 3-1 5-3 6a2 2 0 0 0-1 3 6 6 0 0 1-1 4c-1 2-3 4-7 4a45 45 0 0 1-12 1h-1a167 167 0 0 1-21-1l-2-1a7 7 0 0 0 0-1v-27a7 7 0 0 0 0-3 14 14 0 0 1 3-5c7-6 15-27 15-27a2 2 0 0 0 0-2v-4a6 6 0 0 1 5 2c2 2 2 6 0 12-3 9-3 13-1 15a4 4 0 0 0 4 1l3-1c5-1 14-2 18 1 2 3 0 6 0 6a2 2 0 0 0 1 3 6 6 0 0 1 1 4 6 6 0 0 1-2 5z" class="cls-8"/>
        <path d="M1420 668a10 10 0 0 0 3-7 10 10 0 0 0-3-6 9 9 0 0 0-2-10c-2-2-7-4-13-3a53 53 0 0 0-9 1h-2l2-9c2-8 2-13-1-17a11 11 0 0 0-8-4 4 4 0 0 0-3 2c-2 2-2 6-2 8-2 6-8 20-13 24a1 1 0 0 0-1 0 18 18 0 0 0-3 5 7 7 0 0 0-3 0h-11a7 7 0 0 0-7 7v27a7 7 0 0 0 7 7h11a7 7 0 0 0 4-1h4a168 168 0 0 0 22 1l6 1a38 38 0 0 0 8-1c5-1 8-3 10-7a10 10 0 0 0 1-6 11 11 0 0 0 4-9 11 11 0 0 0-1-3zm-69 20a2 2 0 0 1-2-2v-27a2 2 0 0 1 2-3h11a2 2 0 0 1 2 3v27a2 2 0 0 1-2 2h-11zm65-22a2 2 0 0 0 0 3 7 7 0 0 1 0 2c1 3-1 5-3 6a2 2 0 0 0 0 3 6 6 0 0 1-1 4c-1 2-4 4-7 4a45 45 0 0 1-13 1 166 166 0 0 1-22-1l-1-1a7 7 0 0 0 0-1v-27a7 7 0 0 0-1-3 14 14 0 0 1 3-5c8-6 15-27 16-27a2 2 0 0 0 0-2v-4a6 6 0 0 1 5 2c2 2 1 6 0 12-3 9-3 13-1 15a4 4 0 0 0 3 1l3-1h1c5-1 14-2 17 1s1 6 1 6a2 2 0 0 0 0 3 6 6 0 0 1 2 4 6 6 0 0 1-2 5z" class="cls-8"/>
        <path d="M1270 668a10 10 0 0 0 2-7 10 10 0 0 0-2-6 9 9 0 0 0-2-10c-3-2-7-4-14-3a53 53 0 0 0-8 1h-3l3-9c2-8 2-13-1-17a11 11 0 0 0-8-4 4 4 0 0 0-4 2c-2 2-1 6-1 8-2 6-9 20-14 24a18 18 0 0 0-3 5 7 7 0 0 0-4 0h-10a7 7 0 0 0-7 7v27a7 7 0 0 0 7 7h10a7 7 0 0 0 4-1h4a168 168 0 0 0 23 1l5 1a38 38 0 0 0 8-1c5-1 9-3 11-7a10 10 0 0 0 1-6 11 11 0 0 0 4-9 11 11 0 0 0-1-3zm-69 20a2 2 0 0 1-3-2v-27a2 2 0 0 1 3-3h10a2 2 0 0 1 3 3v27a2 2 0 0 1-3 2h-10zm65-22a2 2 0 0 0-1 3 7 7 0 0 1 1 2c0 3-1 5-3 6a2 2 0 0 0-1 3 6 6 0 0 1 0 4c-1 2-4 4-8 4a45 45 0 0 1-12 1 167 167 0 0 1-22-1l-2-1a7 7 0 0 0 0-1v-27a7 7 0 0 0 0-3 14 14 0 0 1 3-5c8-6 15-27 15-27a2 2 0 0 0 0-2l1-4a6 6 0 0 1 4 2c2 2 2 6 0 12-3 9-3 13-1 15a4 4 0 0 0 4 1l3-1c5-1 15-2 18 1s1 6 0 6a2 2 0 0 0 1 3 6 6 0 0 1 2 4 6 6 0 0 1-2 5z" class="cls-8"/>
        <path d="M1120 668a10 10 0 0 0 2-7 10 10 0 0 0-2-6 9 9 0 0 0-2-10c-3-2-8-4-14-3a53 53 0 0 0-8 1h-3l2-9c3-8 2-13 0-17a11 11 0 0 0-9-4 4 4 0 0 0-3 2c-2 2-2 6-1 8-3 6-9 20-14 24a18 18 0 0 0-4 5 7 7 0 0 0-3 0h-10a7 7 0 0 0-7 7v27a7 7 0 0 0 7 7h10a7 7 0 0 0 4-1h4a168 168 0 0 0 22 1l6 1a38 38 0 0 0 8-1c5-1 9-3 10-7a10 10 0 0 0 1-6 11 11 0 0 0 4-9 11 11 0 0 0 0-3zm-69 20a2 2 0 0 1-3-2v-27a2 2 0 0 1 3-3h10a2 2 0 0 1 2 3v27a2 2 0 0 1-2 2h-10zm64-22a2 2 0 0 0 0 3 7 7 0 0 1 1 2c0 3-1 5-4 6a2 2 0 0 0 0 3 6 6 0 0 1-1 4c-1 2-3 4-7 4a45 45 0 0 1-12 1h-1a167 167 0 0 1-22-1l-1-1a7 7 0 0 0 0-1v-27a7 7 0 0 0 0-3 14 14 0 0 1 3-5c7-6 15-27 15-27a2 2 0 0 0 0-2v-4a6 6 0 0 1 5 2c2 2 2 6 0 12-3 9-3 13-1 15a4 4 0 0 0 4 1l3-1c5-1 14-2 17 1s1 6 1 6a2 2 0 0 0 0 3 6 6 0 0 1 2 4 6 6 0 0 1-2 5z" class="cls-8"/>
        <path d="M969 668a10 10 0 0 0 3-7 10 10 0 0 0-3-6 9 9 0 0 0-2-10c-3-2-7-4-13-3a53 53 0 0 0-9 1h-2l2-9c2-8 2-13-1-17a11 11 0 0 0-8-4 4 4 0 0 0-3 2c-2 2-2 6-2 8-2 6-8 20-14 24a18 18 0 0 0-3 5 7 7 0 0 0-3 0h-11a7 7 0 0 0-7 7v27a7 7 0 0 0 7 7h10a7 7 0 0 0 4-1h4a168 168 0 0 0 23 1l6 1a38 38 0 0 0 7-1c6-1 9-3 11-7a10 10 0 0 0 1-6 11 11 0 0 0 4-9 11 11 0 0 0-1-3zm-69 20a2 2 0 0 1-2-2v-27a2 2 0 0 1 2-3h10a2 2 0 0 1 3 3v27a2 2 0 0 1-3 2h-10zm65-22a2 2 0 0 0 0 3 7 7 0 0 1 0 2c0 3-1 5-3 6a2 2 0 0 0-1 3 6 6 0 0 1 0 4c-1 2-4 4-8 4a45 45 0 0 1-12 1 167 167 0 0 1-22-1l-2-1a7 7 0 0 0 1-1v-27a7 7 0 0 0-1-3 14 14 0 0 1 3-5c8-6 15-27 16-27a2 2 0 0 0 0-2v-4a6 6 0 0 1 5 2v12c-3 9-4 13-1 15a4 4 0 0 0 3 1l3-1h1c5-1 14-2 17 1s1 6 1 6a2 2 0 0 0 0 3 6 6 0 0 1 2 4 6 6 0 0 1-2 5z" class="cls-8"/>
        <path d="M819 668a10 10 0 0 0 2-7 10 10 0 0 0-2-6 9 9 0 0 0-2-10c-3-2-7-4-14-3a53 53 0 0 0-8 1h-3l2-9c3-8 3-13 0-17a11 11 0 0 0-9-4 4 4 0 0 0-3 2c-2 2-1 6-1 8-2 6-9 20-14 24a18 18 0 0 0-4 5 7 7 0 0 0-3 0h-10a7 7 0 0 0-7 7v27a7 7 0 0 0 7 7h10a7 7 0 0 0 4-1h4a168 168 0 0 0 23 1l5 1a38 38 0 0 0 8-1c5-1 9-3 11-7a10 10 0 0 0 1-6 11 11 0 0 0 3-9 11 11 0 0 0 0-3zm-69 20a2 2 0 0 1-3-2v-27a2 2 0 0 1 3-3h10a2 2 0 0 1 3 3v27a2 2 0 0 1-3 2h-10zm64-22a2 2 0 0 0 0 3 7 7 0 0 1 1 2c0 3-1 5-3 6a2 2 0 0 0-1 3 6 6 0 0 1 0 4c-2 2-4 4-8 4a45 45 0 0 1-12 1 167 167 0 0 1-22-1l-2-1a7 7 0 0 0 0-1v-27a7 7 0 0 0 0-3 14 14 0 0 1 3-5c8-6 15-27 15-27a2 2 0 0 0 0-2l1-4a6 6 0 0 1 4 2c2 2 2 6 0 12-3 9-3 13-1 15a4 4 0 0 0 4 1l3-1c5-1 15-2 18 1 2 3 1 6 0 6a2 2 0 0 0 1 3 6 6 0 0 1 2 4 6 6 0 0 1-3 5z" class="cls-8"/>
        <path d="M668 668a10 10 0 0 0 3-7 10 10 0 0 0-2-6 9 9 0 0 0-3-10c-2-2-7-4-13-3a53 53 0 0 0-8 1h-3l2-9c2-8 2-13 0-17a11 11 0 0 0-9-4 4 4 0 0 0-3 1c-2 3-2 7-2 8-2 6-8 21-13 25a1 1 0 0 0-1 0 18 18 0 0 0-3 5 7 7 0 0 0-3 0h-11a7 7 0 0 0-7 7v27a7 7 0 0 0 7 7h11a7 7 0 0 0 4-1h4a168 168 0 0 0 22 1l6 1a38 38 0 0 0 8-1c5-1 8-3 10-7a10 10 0 0 0 1-6 11 11 0 0 0 4-9 11 11 0 0 0-1-3zm-69 20a2 2 0 0 1-2-2v-27a2 2 0 0 1 2-3h11a2 2 0 0 1 2 3v27a2 2 0 0 1-2 2h-11zm65-22a2 2 0 0 0 0 3 7 7 0 0 1 1 2c0 3-1 5-4 6a2 2 0 0 0 0 3 6 6 0 0 1-1 4c-1 2-4 4-7 4a45 45 0 0 1-13 1 166 166 0 0 1-22-1l-1-1a7 7 0 0 0 0-1v-27a7 7 0 0 0-1-3 14 14 0 0 1 4-5c7-6 15-27 15-27a2 2 0 0 0 0-2v-4a6 6 0 0 1 5 2c2 2 2 6 0 12-3 9-3 13-1 15a4 4 0 0 0 4 1l2-1h1c5-1 14-2 17 1s1 6 1 6a2 2 0 0 0 0 3 6 6 0 0 1 2 4 6 6 0 0 1-2 5z" class="cls-8"/>
        <path d="M518 668a10 10 0 0 0 2-7 10 10 0 0 0-2-6 9 9 0 0 0-2-10c-3-2-7-4-13-3a53 53 0 0 0-9 1h-2l2-9c2-8 2-13-1-17a11 11 0 0 0-8-4 4 4 0 0 0-4 2l-1 8c-2 6-8 20-14 24a18 18 0 0 0-3 5 7 7 0 0 0-4 0h-10a7 7 0 0 0-7 7v27a7 7 0 0 0 7 7h10a7 7 0 0 0 4-1h4a168 168 0 0 0 23 1l5 1a38 38 0 0 0 8-1c5-1 9-3 11-7a10 10 0 0 0 1-6 11 11 0 0 0 4-9 11 11 0 0 0-1-3zm-69 20a2 2 0 0 1-2-2v-27a2 2 0 0 1 2-3h10a2 2 0 0 1 3 3v27a2 2 0 0 1-3 2h-10zm65-22a2 2 0 0 0-1 3 7 7 0 0 1 1 2c0 3-1 5-3 6a2 2 0 0 0-1 3 6 6 0 0 1 0 4c-1 2-4 4-8 4a45 45 0 0 1-12 1 167 167 0 0 1-22-1l-2-1a7 7 0 0 0 0-1v-27a7 7 0 0 0 0-3 14 14 0 0 1 3-5c8-6 15-27 15-27a2 2 0 0 0 1-2v-4a6 6 0 0 1 5 2c1 2 1 6-1 12-3 9-3 13-1 15a4 4 0 0 0 4 1l3-1c5-1 15-2 18 1s1 6 1 6a2 2 0 0 0 0 3 6 6 0 0 1 2 4 6 6 0 0 1-2 5z" class="cls-8"/>
        <path d="M2383 778a10 10 0 0 0 3-7 10 10 0 0 0-2-6 9 9 0 0 0-3-10c-2-2-7-4-13-3a52 52 0 0 0-8 1h-3l2-9c2-8 2-13 0-17a11 11 0 0 0-9-4 4 4 0 0 0-3 2c-2 2-2 6-2 8-2 6-8 20-13 24a2 2 0 0 0-1 0 18 18 0 0 0-3 5 7 7 0 0 0-3 0h-10a7 7 0 0 0-7 7v27a7 7 0 0 0 7 7h10a7 7 0 0 0 4-1h4a170 170 0 0 0 22 1l6 1a38 38 0 0 0 8-1c5-1 8-3 10-7a10 10 0 0 0 1-6 11 11 0 0 0 4-9 11 11 0 0 0-1-3zm-68 20a2 2 0 0 1-3-2v-27a2 2 0 0 1 3-3h10a2 2 0 0 1 2 3v27a2 2 0 0 1-2 2h-10zm64-22a2 2 0 0 0 0 3 7 7 0 0 1 1 2c0 3-1 5-4 6a2 2 0 0 0 0 3 6 6 0 0 1-1 4c-1 2-3 4-7 5a44 44 0 0 1-13 0 164 164 0 0 1-22-1l-1-1a7 7 0 0 0 0-1v-27a7 7 0 0 0-1-2 14 14 0 0 1 4-6c7-6 15-26 15-27a2 2 0 0 0 0-2v-4a6 6 0 0 1 5 2c2 2 2 7 0 12-3 9-3 13-1 15a4 4 0 0 0 4 1l3-1c5-1 14-2 17 1s1 6 1 7a2 2 0 0 0 0 2 6 6 0 0 1 2 4 6 6 0 0 1-2 5z" class="cls-8"/>
        <path d="M2233 778a10 10 0 0 0 2-7 10 10 0 0 0-2-6 9 9 0 0 0-2-10c-3-2-7-4-13-3a52 52 0 0 0-9 1h-2l2-9c2-8 2-13-1-17a11 11 0 0 0-8-4 4 4 0 0 0-4 2l-1 8c-2 6-8 20-14 24a18 18 0 0 0-3 5 7 7 0 0 0-4 0h-10a7 7 0 0 0-7 7v27a7 7 0 0 0 7 7h10a7 7 0 0 0 4-1h4a170 170 0 0 0 23 1l6 1a38 38 0 0 0 7-1c6-1 9-3 11-7a10 10 0 0 0 1-6 11 11 0 0 0 4-9 11 11 0 0 0-1-3zm-69 20a2 2 0 0 1-2-2v-27a2 2 0 0 1 2-3h10a2 2 0 0 1 3 3v27a2 2 0 0 1-3 2h-10zm65-22a2 2 0 0 0-1 3 7 7 0 0 1 1 2c0 3-1 5-3 6a2 2 0 0 0-1 3 6 6 0 0 1 0 4c-1 2-4 4-8 5a44 44 0 0 1-12 0 165 165 0 0 1-22-1l-2-1a7 7 0 0 0 0-1v-27a7 7 0 0 0 0-2 14 14 0 0 1 3-6c8-6 15-26 16-27a2 2 0 0 0 0-2v-4a6 6 0 0 1 5 2c1 2 1 7-1 12-2 9-3 13 0 15a4 4 0 0 0 3 1l3-1c6-1 15-2 18 1s1 6 1 7a2 2 0 0 0 0 2 6 6 0 0 1 2 4 6 6 0 0 1-2 5z" class="cls-8"/>
        <path d="M2083 778a10 10 0 0 0 2-7 10 10 0 0 0-2-6 9 9 0 0 0-2-10c-3-2-8-4-14-3a52 52 0 0 0-8 1h-3l2-9c3-8 3-13 0-17a11 11 0 0 0-9-4 4 4 0 0 0-3 2c-2 2-2 6-1 8-3 6-9 20-14 24a18 18 0 0 0-4 5 7 7 0 0 0-3 0h-10a7 7 0 0 0-7 7v27a7 7 0 0 0 7 7h10a7 7 0 0 0 4-1h4a170 170 0 0 0 22 1l6 1a38 38 0 0 0 8-1c5-1 9-3 10-7a10 10 0 0 0 2-6 11 11 0 0 0 3-9 11 11 0 0 0 0-3zm-69 20a2 2 0 0 1-3-2v-27a2 2 0 0 1 3-3h10a2 2 0 0 1 2 3v27a2 2 0 0 1-2 2h-10zm64-22a2 2 0 0 0 0 3 7 7 0 0 1 1 2c0 3-1 5-3 6a2 2 0 0 0-1 3 6 6 0 0 1-1 4c-1 2-3 4-7 5a44 44 0 0 1-12 0h-1a165 165 0 0 1-21-1l-2-1a7 7 0 0 0 0-1v-27a7 7 0 0 0 0-2 14 14 0 0 1 3-6c7-6 15-26 15-27a2 2 0 0 0 0-2v-4a6 6 0 0 1 5 2c2 2 2 7 0 12-3 9-3 13-1 15a4 4 0 0 0 4 1l3-1c5-1 14-2 18 1 2 3 0 6 0 7a2 2 0 0 0 1 2 6 6 0 0 1 1 4 6 6 0 0 1-2 5z" class="cls-8"/>
        <path d="M1932 778a10 10 0 0 0 3-7 10 10 0 0 0-3-6 9 9 0 0 0-2-10c-2-2-7-4-13-3a52 52 0 0 0-8 1h-3l2-9c2-8 2-13 0-17a11 11 0 0 0-9-4 4 4 0 0 0-3 2c-2 2-2 6-2 8-2 6-8 20-13 24a1 1 0 0 0-1 0 18 18 0 0 0-3 5 7 7 0 0 0-3 0h-11a7 7 0 0 0-7 7v27a7 7 0 0 0 7 7h11a7 7 0 0 0 4-1h4a170 170 0 0 0 22 1l6 1a38 38 0 0 0 8-1c5-1 8-3 10-7a10 10 0 0 0 1-6 11 11 0 0 0 4-9 11 11 0 0 0-1-3zm-69 20a2 2 0 0 1-2-2v-27a2 2 0 0 1 2-3h11a2 2 0 0 1 2 3v27a2 2 0 0 1-2 2h-11zm65-22a2 2 0 0 0 0 3 7 7 0 0 1 0 2c1 3 0 5-3 6a2 2 0 0 0 0 3 6 6 0 0 1-1 4c-1 2-4 4-7 5a44 44 0 0 1-13 0 165 165 0 0 1-22-1l-1-1a7 7 0 0 0 0-1v-27a7 7 0 0 0-1-2 14 14 0 0 1 3-6c8-6 15-26 16-27a2 2 0 0 0 0-2v-4a6 6 0 0 1 5 2c2 2 1 7 0 12-3 9-3 13-1 15a4 4 0 0 0 3 1l3-1h1c5-1 14-2 17 1s1 6 1 7a2 2 0 0 0 0 2 6 6 0 0 1 2 4 6 6 0 0 1-2 5z" class="cls-8"/>
        <path d="M1782 778a10 10 0 0 0 2-7 10 10 0 0 0-2-6 9 9 0 0 0-2-10c-3-2-7-4-14-3a52 52 0 0 0-8 1h-2c-1-1 0-3 2-9 2-8 2-13-1-17a11 11 0 0 0-8-4 4 4 0 0 0-4 2l-1 8c-2 6-8 20-14 24a18 18 0 0 0-3 5 7 7 0 0 0-4 0h-10a7 7 0 0 0-7 7v27a7 7 0 0 0 7 7h10a7 7 0 0 0 4-1h4a170 170 0 0 0 23 1l5 1a38 38 0 0 0 8-1c5-1 9-3 11-7a10 10 0 0 0 1-6 11 11 0 0 0 4-9 11 11 0 0 0-1-3zm-69 20a2 2 0 0 1-2-2v-27a2 2 0 0 1 2-3h10a2 2 0 0 1 3 3v27a2 2 0 0 1-3 2h-10zm65-22a2 2 0 0 0-1 3 7 7 0 0 1 1 2c0 3-1 5-3 6a2 2 0 0 0-1 3 6 6 0 0 1 0 4c-1 2-4 4-8 5a44 44 0 0 1-12 0 165 165 0 0 1-22-1l-2-1a7 7 0 0 0 0-1v-27a7 7 0 0 0 0-2 14 14 0 0 1 3-6c8-6 15-26 15-27a2 2 0 0 0 1-2v-4a6 6 0 0 1 4 2c2 2 2 7 0 12-3 9-3 13-1 15a4 4 0 0 0 4 1l3-1c5-1 15-2 18 1s1 6 0 7a2 2 0 0 0 1 2 6 6 0 0 1 2 4 6 6 0 0 1-2 5z" class="cls-8"/>
        <path d="M1632 778a10 10 0 0 0 2-7 10 10 0 0 0-2-6 9 9 0 0 0-2-10c-3-2-8-4-14-3a52 52 0 0 0-8 1h-3l2-9c3-8 2-13 0-17a11 11 0 0 0-9-4 4 4 0 0 0-3 2c-2 2-2 6-1 8-3 6-9 20-14 24a18 18 0 0 0-4 5 7 7 0 0 0-3 0h-10a7 7 0 0 0-7 7v27a7 7 0 0 0 7 7h10a7 7 0 0 0 4-1h4a170 170 0 0 0 22 1l6 1a38 38 0 0 0 8-1c5-1 9-3 10-7a10 10 0 0 0 1-6 11 11 0 0 0 4-9 11 11 0 0 0 0-3zm-69 20a2 2 0 0 1-3-2v-27a2 2 0 0 1 3-3h10a2 2 0 0 1 2 3v27a2 2 0 0 1-2 2h-10zm64-22a2 2 0 0 0 0 3 7 7 0 0 1 1 2c0 3-1 5-3 6a2 2 0 0 0-1 3 6 6 0 0 1-1 4c-1 2-3 4-7 5a44 44 0 0 1-12 0h-1a164 164 0 0 1-22-1l-1-1a7 7 0 0 0 0-1v-27a7 7 0 0 0 0-2 14 14 0 0 1 3-6c7-6 15-26 15-27a2 2 0 0 0 0-2v-4a6 6 0 0 1 5 2c2 2 2 7 0 12-3 9-3 13-1 15a4 4 0 0 0 4 1l3-1c5-1 14-2 18 1 2 3 0 6 0 7a2 2 0 0 0 0 2 6 6 0 0 1 2 4 6 6 0 0 1-2 5z" class="cls-8"/>
        <path d="M1481 778a10 10 0 0 0 3-7 10 10 0 0 0-3-6 9 9 0 0 0-2-10c-2-2-7-4-13-3a52 52 0 0 0-9 1h-2l2-9c2-8 2-13-1-17a11 11 0 0 0-8-4 4 4 0 0 0-3 2c-2 2-2 6-2 8-2 6-8 20-14 24a18 18 0 0 0-3 5 7 7 0 0 0-3 0h-11a7 7 0 0 0-7 7v27a7 7 0 0 0 7 7h11a7 7 0 0 0 4-1h4a170 170 0 0 0 22 1l6 1a38 38 0 0 0 7-1c6-1 9-3 11-7a10 10 0 0 0 1-6 11 11 0 0 0 4-9 11 11 0 0 0-1-3zm-69 20a2 2 0 0 1-2-2v-27a2 2 0 0 1 2-3h10a2 2 0 0 1 3 3v27a2 2 0 0 1-3 2h-10zm65-22a2 2 0 0 0 0 3 7 7 0 0 1 0 2c0 3-1 5-3 6a2 2 0 0 0-1 3 6 6 0 0 1 0 4c-1 2-4 4-8 5a44 44 0 0 1-12 0 165 165 0 0 1-22-1l-2-1a7 7 0 0 0 1-1v-27a7 7 0 0 0-1-2 14 14 0 0 1 3-6c8-6 15-26 16-27a2 2 0 0 0 0-2v-4a6 6 0 0 1 5 2v12c-3 9-4 13-1 15a4 4 0 0 0 3 1l3-1h1c5-1 14-2 17 1s1 6 1 7a2 2 0 0 0 0 2 6 6 0 0 1 2 4 6 6 0 0 1-2 5z" class="cls-8"/>
        <path d="M1331 778a10 10 0 0 0 2-7 10 10 0 0 0-2-6 9 9 0 0 0-2-10c-3-2-7-4-14-3a52 52 0 0 0-8 1h-3l2-9c3-8 3-13 0-17a11 11 0 0 0-9-4 4 4 0 0 0-3 2c-2 2-1 6-1 8-2 6-9 20-14 24a18 18 0 0 0-3 5 7 7 0 0 0-4 0h-10a7 7 0 0 0-7 7v27a7 7 0 0 0 7 7h10a7 7 0 0 0 4-1h4a170 170 0 0 0 23 1l5 1a38 38 0 0 0 8-1c5-1 9-3 11-7a10 10 0 0 0 1-6 11 11 0 0 0 4-9 11 11 0 0 0-1-3zm-69 20a2 2 0 0 1-3-2v-27a2 2 0 0 1 3-3h10a2 2 0 0 1 3 3v27a2 2 0 0 1-3 2h-10zm65-22a2 2 0 0 0-1 3 7 7 0 0 1 1 2c0 3-1 5-3 6a2 2 0 0 0-1 3 6 6 0 0 1 0 4c-2 2-4 4-8 5a44 44 0 0 1-12 0 164 164 0 0 1-22-1l-2-1a7 7 0 0 0 0-1v-27a7 7 0 0 0 0-2 14 14 0 0 1 3-6c8-6 15-26 15-27a2 2 0 0 0 0-2l1-4a6 6 0 0 1 4 2c2 2 2 7 0 12-3 9-3 13-1 15a4 4 0 0 0 4 1l3-1c5-1 15-2 18 1s1 6 0 7a2 2 0 0 0 1 2 6 6 0 0 1 2 4 6 6 0 0 1-2 5z" class="cls-8"/>
        <path d="M1180 778a10 10 0 0 0 3-7 10 10 0 0 0-2-6 9 9 0 0 0-3-10c-2-2-7-4-13-3a52 52 0 0 0-8 1h-3l2-9c2-8 2-13 0-17a11 11 0 0 0-9-4 4 4 0 0 0-3 2c-2 2-2 6-2 8-2 6-8 20-13 24a1 1 0 0 0-1 0 18 18 0 0 0-3 5 7 7 0 0 0-3 0h-10a7 7 0 0 0-7 7v27a7 7 0 0 0 7 7h10a7 7 0 0 0 4-1h4a170 170 0 0 0 22 1l6 1a38 38 0 0 0 8-1c5-1 8-3 10-7a10 10 0 0 0 1-6 11 11 0 0 0 4-9 11 11 0 0 0-1-3zm-69 20a2 2 0 0 1-2-2v-27a2 2 0 0 1 2-3h11a2 2 0 0 1 2 3v27a2 2 0 0 1-2 2h-11zm65-22a2 2 0 0 0 0 3 7 7 0 0 1 1 2c0 3-1 5-4 6a2 2 0 0 0 0 3 6 6 0 0 1-1 4c-1 2-3 4-7 5a44 44 0 0 1-13 0 165 165 0 0 1-22-1l-1-1a7 7 0 0 0 0-1v-27a7 7 0 0 0-1-2 14 14 0 0 1 4-6c7-6 15-26 15-27a2 2 0 0 0 0-2v-4a6 6 0 0 1 5 2c2 2 2 7 0 12-3 9-3 13-1 15a4 4 0 0 0 4 1l3-1c5-1 14-2 17 1s1 6 1 7a2 2 0 0 0 0 2 6 6 0 0 1 2 4 6 6 0 0 1-2 5z" class="cls-8"/>
        <path d="M1030 778a10 10 0 0 0 2-7 10 10 0 0 0-2-6 9 9 0 0 0-2-10c-3-2-7-4-13-3a52 52 0 0 0-9 1h-2l2-9c2-8 2-13-1-17a11 11 0 0 0-8-4 4 4 0 0 0-4 2l-1 8c-2 6-8 20-14 24a18 18 0 0 0-3 5 7 7 0 0 0-4 0h-10a7 7 0 0 0-7 7v27a7 7 0 0 0 7 7h10a7 7 0 0 0 4-1h4a170 170 0 0 0 23 1l6 1a38 38 0 0 0 7-1c6-1 9-3 11-7a10 10 0 0 0 1-6 11 11 0 0 0 4-9 11 11 0 0 0-1-3zm-69 20a2 2 0 0 1-2-2v-27a2 2 0 0 1 2-3h10a2 2 0 0 1 3 3v27a2 2 0 0 1-3 2h-10zm65-22a2 2 0 0 0-1 3 7 7 0 0 1 1 2c0 3-1 5-3 6a2 2 0 0 0-1 3 6 6 0 0 1 0 4c-1 2-4 4-8 5a44 44 0 0 1-12 0 165 165 0 0 1-22-1l-2-1a7 7 0 0 0 0-1v-27a7 7 0 0 0 0-2 14 14 0 0 1 3-6c8-6 15-26 16-27a2 2 0 0 0 0-2v-4a6 6 0 0 1 5 2c1 2 1 7-1 12-2 9-3 13 0 15a4 4 0 0 0 3 1l3-1c6-1 15-2 18 1s1 6 1 7a2 2 0 0 0 0 2 6 6 0 0 1 2 4 6 6 0 0 1-2 5z" class="cls-8"/>
        <path d="M880 778a10 10 0 0 0 2-7 10 10 0 0 0-2-6 9 9 0 0 0-2-10c-3-2-7-4-14-3a52 52 0 0 0-8 1h-3l2-9c3-8 3-13 0-17a11 11 0 0 0-9-4 4 4 0 0 0-3 2c-2 2-2 6-1 8-3 6-9 20-14 24a18 18 0 0 0-4 5 7 7 0 0 0-3 0h-10a7 7 0 0 0-7 7v27a7 7 0 0 0 7 7h10a7 7 0 0 0 4-1h4a170 170 0 0 0 22 1l6 1a38 38 0 0 0 8-1c5-1 9-3 10-7a10 10 0 0 0 2-6 11 11 0 0 0 3-9 11 11 0 0 0 0-3zm-69 20a2 2 0 0 1-3-2v-27a2 2 0 0 1 3-3h10a2 2 0 0 1 2 3v27a2 2 0 0 1-2 2h-10zm64-22a2 2 0 0 0 0 3 7 7 0 0 1 1 2c0 3-1 5-3 6a2 2 0 0 0-1 3 6 6 0 0 1-1 4c-1 2-3 4-7 5a44 44 0 0 1-12 0h-1a165 165 0 0 1-21-1l-2-1a7 7 0 0 0 0-1v-27a7 7 0 0 0 0-2 14 14 0 0 1 3-6c7-6 15-26 15-27a2 2 0 0 0 0-2v-4a6 6 0 0 1 5 2c2 2 2 7 0 12-3 9-3 13-1 15a4 4 0 0 0 4 1l3-1c5-1 14-2 18 1 2 3 0 6 0 7a2 2 0 0 0 1 2 6 6 0 0 1 1 4 6 6 0 0 1-2 5z" class="cls-8"/>
        <path d="M729 778a10 10 0 0 0 3-7 10 10 0 0 0-3-6 9 9 0 0 0-2-10c-2-2-7-4-13-3a52 52 0 0 0-8 1h-3l2-9c2-8 2-13 0-17a11 11 0 0 0-9-4 4 4 0 0 0-3 2c-2 2-2 6-2 8-2 6-8 20-13 24a2 2 0 0 0-1 0 18 18 0 0 0-3 5 7 7 0 0 0-3 0h-11a7 7 0 0 0-7 7v27a7 7 0 0 0 7 7h11a7 7 0 0 0 4-1h4a170 170 0 0 0 22 1l6 1a38 38 0 0 0 8-1c5-1 8-3 10-7a10 10 0 0 0 1-6 11 11 0 0 0 4-9 11 11 0 0 0-1-3zm-69 20a2 2 0 0 1-2-2v-27a2 2 0 0 1 2-3h11a2 2 0 0 1 2 3v27a2 2 0 0 1-2 2h-11zm65-22a2 2 0 0 0 0 3 7 7 0 0 1 0 2c1 3 0 5-3 6a2 2 0 0 0 0 3 6 6 0 0 1-1 4c-1 2-4 4-7 5a44 44 0 0 1-13 0 165 165 0 0 1-22-1l-1-1a7 7 0 0 0 0-1v-27a7 7 0 0 0-1-2 14 14 0 0 1 3-6c8-6 15-26 16-27a2 2 0 0 0 0-2v-4a6 6 0 0 1 5 2c2 2 1 7 0 12-3 9-3 13-1 15a4 4 0 0 0 3 1l3-1h1c5-1 14-2 17 1s1 6 1 7a2 2 0 0 0 0 2 6 6 0 0 1 2 4 6 6 0 0 1-2 5z" class="cls-8"/>
        <path d="M579 778a10 10 0 0 0 2-7 10 10 0 0 0-2-6 9 9 0 0 0-2-10c-3-2-7-4-14-3a52 52 0 0 0-8 1h-2c-1-1 0-3 2-9 2-8 2-13-1-17a11 11 0 0 0-8-4 4 4 0 0 0-4 2l-1 8c-2 6-8 20-14 24a18 18 0 0 0-3 5 7 7 0 0 0-4 0h-10a7 7 0 0 0-7 7v27a7 7 0 0 0 7 7h10a7 7 0 0 0 4-1h4a170 170 0 0 0 23 1l5 1a38 38 0 0 0 8-1c5-1 9-3 11-7a10 10 0 0 0 1-6 11 11 0 0 0 4-9 11 11 0 0 0-1-3zm-69 20a2 2 0 0 1-2-2v-27a2 2 0 0 1 2-3h10a2 2 0 0 1 3 3v27a2 2 0 0 1-3 2h-10zm65-22a2 2 0 0 0-1 3 7 7 0 0 1 1 2c0 3-1 5-3 6a2 2 0 0 0-1 3 6 6 0 0 1 0 4c-1 2-4 4-8 5a44 44 0 0 1-12 0 164 164 0 0 1-22-1l-2-1a7 7 0 0 0 0-1v-27a7 7 0 0 0 0-2 14 14 0 0 1 3-6c8-6 15-26 15-27a2 2 0 0 0 0-2l1-4a6 6 0 0 1 4 2c2 2 2 7 0 12-3 9-3 13-1 15a4 4 0 0 0 4 1l3-1c5-1 15-2 18 1s1 6 0 7a2 2 0 0 0 1 2 6 6 0 0 1 2 4 6 6 0 0 1-2 5z" class="cls-8"/>
        <path d="M429 778a10 10 0 0 0 2-7 10 10 0 0 0-2-6 9 9 0 0 0-2-10c-3-2-8-4-14-3a52 52 0 0 0-8 1h-3l2-9c3-8 2-13 0-17a11 11 0 0 0-9-4 4 4 0 0 0-3 2c-2 2-2 6-1 8-3 6-9 20-14 24a18 18 0 0 0-4 5 7 7 0 0 0-3 0h-10a7 7 0 0 0-7 7v27a7 7 0 0 0 7 7h10a7 7 0 0 0 4-1h4a170 170 0 0 0 22 1l6 1a38 38 0 0 0 8-1c5-1 9-3 10-7a10 10 0 0 0 1-6 11 11 0 0 0 4-9 11 11 0 0 0 0-3zm-69 20a2 2 0 0 1-3-2v-27a2 2 0 0 1 3-3h10a2 2 0 0 1 2 3v27a2 2 0 0 1-2 2h-10zm64-22a2 2 0 0 0 0 3 7 7 0 0 1 1 2c0 3-1 5-3 6a2 2 0 0 0-1 3 6 6 0 0 1-1 4c-1 2-3 4-7 5a44 44 0 0 1-12 0h-1a165 165 0 0 1-22-1l-1-1a7 7 0 0 0 0-1v-27a7 7 0 0 0 0-2 14 14 0 0 1 3-6c7-6 15-26 15-27a2 2 0 0 0 0-2v-4a6 6 0 0 1 5 2c2 2 2 7 0 12-3 9-3 13-1 15a4 4 0 0 0 4 1l3-1c5-1 14-2 18 1 2 3 0 6 0 7a2 2 0 0 0 1 2 6 6 0 0 1 1 4 6 6 0 0 1-2 5z" class="cls-8"/>
        <path d="M2443 909a10 10 0 0 0 3-7 10 10 0 0 0-2-6 9 9 0 0 0-3-10c-2-2-7-4-13-3a52 52 0 0 0-8 1h-3l2-9c2-8 2-13 0-17a11 11 0 0 0-9-4 4 4 0 0 0-3 2c-2 2-2 6-2 8-2 6-8 20-13 24a3 3 0 0 0-1 0 18 18 0 0 0-3 5 7 7 0 0 0-3 0h-10a7 7 0 0 0-7 7v27a7 7 0 0 0 7 7h10a7 7 0 0 0 4-1h4a170 170 0 0 0 22 1l6 1a38 38 0 0 0 8-1c5-1 8-3 10-7a10 10 0 0 0 1-6 11 11 0 0 0 4-9 11 11 0 0 0-1-3zm-68 20a2 2 0 0 1-3-2v-27a2 2 0 0 1 3-3h10a2 2 0 0 1 2 3v27a2 2 0 0 1-2 2h-10zm64-22a2 2 0 0 0 0 3 7 7 0 0 1 1 2c0 3-1 5-4 6a2 2 0 0 0 0 3 6 6 0 0 1-1 4c-1 2-3 4-7 4a45 45 0 0 1-12 1h-1a167 167 0 0 1-22-1l-1-1a7 7 0 0 0 0-1v-27a7 7 0 0 0-1-3 14 14 0 0 1 4-5c7-6 15-27 15-27a2 2 0 0 0 0-2v-4a6 6 0 0 1 5 2c2 2 2 6 0 12-3 9-3 13-1 15a4 4 0 0 0 4 1l3-1c5-1 14-2 17 1s1 6 1 7a2 2 0 0 0 0 2 6 6 0 0 1 0 9z" class="cls-8"/>
        <path d="M2293 909a10 10 0 0 0 2-7 10 10 0 0 0-2-6 9 9 0 0 0-2-10c-3-2-7-4-13-3a53 53 0 0 0-9 1h-2l2-9c2-8 2-13-1-17a11 11 0 0 0-8-4 4 4 0 0 0-4 2l-1 8c-2 6-8 20-14 24a18 18 0 0 0-3 5 7 7 0 0 0-4 0h-10a7 7 0 0 0-7 7v27a7 7 0 0 0 7 7h10a7 7 0 0 0 4-1h4a170 170 0 0 0 23 1l6 1a38 38 0 0 0 7-1c6-1 9-3 11-7a10 10 0 0 0 1-6 11 11 0 0 0 4-9 11 11 0 0 0-1-3zm-69 20a2 2 0 0 1-2-2v-27a2 2 0 0 1 2-3h10a2 2 0 0 1 3 3v27a2 2 0 0 1-3 2h-10zm65-22a2 2 0 0 0-1 3 7 7 0 0 1 1 2c0 3-1 5-3 6a2 2 0 0 0-1 3 6 6 0 0 1 0 4c-1 2-4 4-8 4a45 45 0 0 1-12 1 166 166 0 0 1-22-1l-2-1a7 7 0 0 0 0-1v-27a7 7 0 0 0 0-3 14 14 0 0 1 3-5c8-6 15-27 15-27a2 2 0 0 0 1-2v-4a6 6 0 0 1 5 2c1 2 1 6-1 12-2 9-3 13 0 15a4 4 0 0 0 3 1l3-1c6-1 15-2 18 1s1 6 1 7a2 2 0 0 0 0 2 6 6 0 0 1 0 9z" class="cls-8"/>
        <path d="M2143 909a10 10 0 0 0 2-7 10 10 0 0 0-2-6 9 9 0 0 0-2-10c-3-2-7-4-14-3a53 53 0 0 0-8 1h-3l2-9c3-8 3-13 0-17a11 11 0 0 0-9-4 4 4 0 0 0-3 2c-2 2-2 6-1 8-3 6-9 20-14 24a18 18 0 0 0-4 5 7 7 0 0 0-3 0h-10a7 7 0 0 0-7 7v27a7 7 0 0 0 7 7h10a7 7 0 0 0 4-1h4a170 170 0 0 0 22 1l6 1a38 38 0 0 0 8-1c5-1 9-3 10-7a10 10 0 0 0 2-6 11 11 0 0 0 3-9 11 11 0 0 0 0-3zm-69 20a2 2 0 0 1-3-2v-27a2 2 0 0 1 3-3h10a2 2 0 0 1 2 3v27a2 2 0 0 1-2 2h-10zm64-22a2 2 0 0 0 0 3 7 7 0 0 1 1 2c0 3-1 5-3 6a2 2 0 0 0-1 3 6 6 0 0 1-1 4c-1 2-3 4-7 4a45 45 0 0 1-12 1 167 167 0 0 1-22-1l-2-1a7 7 0 0 0 0-1v-27a7 7 0 0 0 0-3 14 14 0 0 1 3-5c7-6 15-27 15-27a2 2 0 0 0 0-2v-4a6 6 0 0 1 5 2c2 2 2 6 0 12-3 9-3 13-1 15a4 4 0 0 0 4 1l3-1c5-1 14-2 18 1 2 3 0 6 0 7a2 2 0 0 0 1 2 6 6 0 0 1 2 4 6 6 0 0 1-3 5z" class="cls-8"/>
        <path d="M1992 909a10 10 0 0 0 3-7 10 10 0 0 0-3-6 9 9 0 0 0-2-10c-2-2-7-4-13-3a53 53 0 0 0-8 1h-3l2-9c2-8 2-13 0-17a11 11 0 0 0-9-4 4 4 0 0 0-3 2c-2 2-2 6-2 8-2 6-8 20-13 24a3 3 0 0 0-1 0 18 18 0 0 0-3 5 7 7 0 0 0-3 0h-11a7 7 0 0 0-7 7v27a7 7 0 0 0 7 7h11a7 7 0 0 0 4-1h4a170 170 0 0 0 22 1l6 1a38 38 0 0 0 8-1c5-1 8-3 10-7a10 10 0 0 0 1-6 11 11 0 0 0 4-9 11 11 0 0 0-1-3zm-69 20a2 2 0 0 1-2-2v-27a2 2 0 0 1 2-3h11a2 2 0 0 1 2 3v27a2 2 0 0 1-2 2h-11zm65-22a2 2 0 0 0 0 3 7 7 0 0 1 0 2c1 3-1 5-3 6a2 2 0 0 0 0 3 6 6 0 0 1-1 4c-1 2-4 4-7 4a45 45 0 0 1-13 1 167 167 0 0 1-22-1l-1-1a7 7 0 0 0 0-1v-27a7 7 0 0 0-1-3 14 14 0 0 1 3-5c8-6 15-27 16-27a2 2 0 0 0 0-2v-4a6 6 0 0 1 5 2c2 2 1 6 0 12-3 9-3 13-1 15a4 4 0 0 0 3 1l3-1h1c5-1 14-2 17 1s1 6 1 7a2 2 0 0 0 0 2 6 6 0 0 1 0 9z" class="cls-8"/>
        <path d="M1842 909a10 10 0 0 0 2-7 10 10 0 0 0-2-6 9 9 0 0 0-2-10c-3-2-7-4-14-3a53 53 0 0 0-8 1h-2c-1-1 0-3 2-9 2-8 2-13-1-17a11 11 0 0 0-8-4 4 4 0 0 0-4 2l-1 8c-2 6-8 20-14 24a18 18 0 0 0-3 5 7 7 0 0 0-4 0h-10a7 7 0 0 0-7 7v27a7 7 0 0 0 7 7h10a7 7 0 0 0 4-1h4a170 170 0 0 0 23 1l5 1a38 38 0 0 0 8-1c5-1 9-3 11-7a10 10 0 0 0 1-6 11 11 0 0 0 4-9 11 11 0 0 0-1-3zm-69 20a2 2 0 0 1-2-2v-27a2 2 0 0 1 2-3h10a2 2 0 0 1 3 3v27a2 2 0 0 1-3 2h-10zm65-22a2 2 0 0 0-1 3 7 7 0 0 1 1 2c0 3-1 5-3 6a2 2 0 0 0-1 3 6 6 0 0 1 0 4c-1 2-4 4-8 4a45 45 0 0 1-12 1 167 167 0 0 1-22-1l-2-1a7 7 0 0 0 0-1v-27a7 7 0 0 0 0-3 14 14 0 0 1 3-5c8-6 15-27 15-27a2 2 0 0 0 0-2l1-4a6 6 0 0 1 4 2c2 2 2 6 0 12-3 9-3 13-1 15a4 4 0 0 0 4 1l3-1c5-1 15-2 18 1s1 6 0 7a2 2 0 0 0 1 2 6 6 0 0 1 2 4 6 6 0 0 1-2 5z" class="cls-8"/>
        <path d="M1692 909a10 10 0 0 0 2-7 10 10 0 0 0-2-6 9 9 0 0 0-2-10c-3-2-8-4-14-3a52 52 0 0 0-8 1h-3l2-9c3-8 2-13 0-17a11 11 0 0 0-9-4 4 4 0 0 0-3 2c-2 2-2 6-1 8-3 6-9 20-14 24a18 18 0 0 0-4 5 7 7 0 0 0-3 0h-10a7 7 0 0 0-7 7v27a7 7 0 0 0 7 7h10a7 7 0 0 0 4-1h4a170 170 0 0 0 22 1l6 1a38 38 0 0 0 8-1c5-1 9-3 10-7a10 10 0 0 0 1-6 11 11 0 0 0 4-9 11 11 0 0 0 0-3zm-69 20a2 2 0 0 1-3-2v-27a2 2 0 0 1 3-3h10a2 2 0 0 1 2 3v27a2 2 0 0 1-2 2h-10zm64-22a2 2 0 0 0 0 3 7 7 0 0 1 1 2c0 3-1 5-3 6a2 2 0 0 0-1 3 6 6 0 0 1-1 4c-1 2-3 4-7 4a45 45 0 0 1-12 1h-1a167 167 0 0 1-22-1l-1-1a7 7 0 0 0 0-1v-27a7 7 0 0 0 0-3 14 14 0 0 1 3-5c7-6 15-27 15-27a2 2 0 0 0 0-2v-4a6 6 0 0 1 5 2c2 2 2 6 0 12-3 9-3 13-1 15a4 4 0 0 0 4 1l3-1c5-1 14-2 18 1 2 3 0 6 0 7a2 2 0 0 0 1 2 6 6 0 0 1-1 9z" class="cls-8"/>
        <path d="M1541 909a10 10 0 0 0 3-7 10 10 0 0 0-3-6 9 9 0 0 0-2-10c-2-2-7-4-13-3a53 53 0 0 0-9 1h-2l2-9c2-8 2-13-1-17a11 11 0 0 0-8-4 4 4 0 0 0-3 2c-2 2-2 6-2 8-2 6-8 20-14 24a18 18 0 0 0-3 5 7 7 0 0 0-3 0h-11a7 7 0 0 0-7 7v27a7 7 0 0 0 7 7h11a7 7 0 0 0 4-1h4a170 170 0 0 0 22 1l6 1a38 38 0 0 0 7-1c6-1 9-3 11-7a10 10 0 0 0 1-6 11 11 0 0 0 4-9 11 11 0 0 0-1-3zm-69 20a2 2 0 0 1-2-2v-27a2 2 0 0 1 2-3h10a2 2 0 0 1 3 3v27a2 2 0 0 1-3 2h-10zm65-22a2 2 0 0 0 0 3 7 7 0 0 1 0 2c0 3-1 5-3 6a2 2 0 0 0-1 3 6 6 0 0 1 0 4c-1 2-4 4-8 4a45 45 0 0 1-12 1 166 166 0 0 1-22-1l-2-1a7 7 0 0 0 1-1v-27a7 7 0 0 0-1-3 14 14 0 0 1 3-5c8-6 15-27 16-27a2 2 0 0 0 0-2v-4a6 6 0 0 1 5 2v12c-3 9-4 13-1 15a4 4 0 0 0 3 1l3-1h1c5-1 14-2 17 1s1 6 1 7a2 2 0 0 0 0 2 6 6 0 0 1 2 4 6 6 0 0 1-2 5z" class="cls-8"/>
        <path d="M1391 909a10 10 0 0 0 2-7 10 10 0 0 0-2-6 9 9 0 0 0-2-10c-3-2-7-4-14-3a53 53 0 0 0-8 1h-3l2-9c3-8 3-13 0-17a11 11 0 0 0-9-4 4 4 0 0 0-3 2c-2 2-1 6-1 8-2 6-9 20-14 24a18 18 0 0 0-3 5 7 7 0 0 0-4 0h-10a7 7 0 0 0-7 7v27a7 7 0 0 0 7 7h10a7 7 0 0 0 4-1h4a170 170 0 0 0 23 1l5 1a38 38 0 0 0 8-1c5-1 9-3 11-7a10 10 0 0 0 1-6 11 11 0 0 0 4-9 11 11 0 0 0-1-3zm-69 20a2 2 0 0 1-3-2v-27a2 2 0 0 1 3-3h10a2 2 0 0 1 3 3v27a2 2 0 0 1-3 2h-10zm65-22a2 2 0 0 0-1 3 7 7 0 0 1 1 2c0 3-1 5-3 6a2 2 0 0 0-1 3 6 6 0 0 1 0 4c-2 2-4 4-8 4a45 45 0 0 1-12 1 167 167 0 0 1-22-1l-2-1a7 7 0 0 0 0-1v-27a7 7 0 0 0 0-3 14 14 0 0 1 3-5c8-6 15-27 15-27a2 2 0 0 0 0-2l1-4a6 6 0 0 1 4 2c2 2 2 6 0 12-3 9-3 13-1 15a4 4 0 0 0 4 1l3-1c5-1 15-2 18 1s1 6 0 7a2 2 0 0 0 1 2 6 6 0 0 1 0 9z" class="cls-8"/>
        <path d="M1240 909a10 10 0 0 0 3-7 10 10 0 0 0-2-6 9 9 0 0 0-3-10c-2-2-7-4-13-3a53 53 0 0 0-8 1h-3l2-9c2-8 2-13 0-17a11 11 0 0 0-9-4 4 4 0 0 0-3 2c-2 2-2 6-2 8-2 6-8 20-13 24a2 2 0 0 0-1 0 18 18 0 0 0-3 5 7 7 0 0 0-3 0h-10a7 7 0 0 0-7 7v27a7 7 0 0 0 7 7h10a7 7 0 0 0 4-1h4a170 170 0 0 0 22 1l6 1a38 38 0 0 0 8-1c5-1 8-3 10-7a10 10 0 0 0 1-6 11 11 0 0 0 4-9 11 11 0 0 0-1-3zm-69 20a2 2 0 0 1-2-2v-27a2 2 0 0 1 2-3h11a2 2 0 0 1 2 3v27a2 2 0 0 1-2 2h-11zm65-22a2 2 0 0 0 0 3 7 7 0 0 1 1 2c0 3-1 5-4 6a2 2 0 0 0 0 3 6 6 0 0 1-1 4c-1 2-3 4-7 4a45 45 0 0 1-13 1 167 167 0 0 1-22-1l-1-1a7 7 0 0 0 0-1v-27a7 7 0 0 0-1-3 14 14 0 0 1 4-5c7-6 15-27 15-27a2 2 0 0 0 0-2v-4a6 6 0 0 1 5 2c2 2 2 6 0 12-3 9-3 13-1 15a4 4 0 0 0 4 1l3-1c5-1 14-2 17 1s1 6 1 7a2 2 0 0 0 0 2 6 6 0 0 1 0 9z" class="cls-8"/>
        <path d="M1090 909a10 10 0 0 0 2-7 10 10 0 0 0-2-6 9 9 0 0 0-2-10c-3-2-7-4-13-3a53 53 0 0 0-9 1h-2l2-9c2-8 2-13-1-17a11 11 0 0 0-8-4 4 4 0 0 0-4 2l-1 8c-2 6-8 20-14 24a18 18 0 0 0-3 5 7 7 0 0 0-4 0h-10a7 7 0 0 0-7 7v27a7 7 0 0 0 7 7h10a7 7 0 0 0 4-1h4a170 170 0 0 0 23 1l6 1a38 38 0 0 0 7-1c6-1 9-3 11-7a10 10 0 0 0 1-6 11 11 0 0 0 4-9 11 11 0 0 0-1-3zm-69 20a2 2 0 0 1-2-2v-27a2 2 0 0 1 2-3h10a2 2 0 0 1 3 3v27a2 2 0 0 1-3 2h-10zm65-22a2 2 0 0 0-1 3 7 7 0 0 1 1 2c0 3-1 5-3 6a2 2 0 0 0-1 3 6 6 0 0 1 0 4c-1 2-4 4-8 4a45 45 0 0 1-12 1 167 167 0 0 1-22-1l-2-1a7 7 0 0 0 0-1v-27a7 7 0 0 0 0-3 14 14 0 0 1 3-5c8-6 15-27 16-27a2 2 0 0 0 0-2v-4a6 6 0 0 1 5 2c1 2 1 6-1 12-2 9-3 13 0 15a4 4 0 0 0 3 1l3-1c6-1 15-2 18 1s1 6 1 7a2 2 0 0 0 0 2 6 6 0 0 1 2 4 6 6 0 0 1-2 5z" class="cls-8"/>
        <path d="M940 909a10 10 0 0 0 2-7 10 10 0 0 0-2-6 9 9 0 0 0-2-10c-3-2-7-4-14-3a52 52 0 0 0-8 1h-3l2-9c3-8 3-13 0-17a11 11 0 0 0-9-4 4 4 0 0 0-3 2c-2 2-2 6-1 8-3 6-9 20-14 24a18 18 0 0 0-4 5 7 7 0 0 0-3 0h-10a7 7 0 0 0-7 7v27a7 7 0 0 0 7 7h10a7 7 0 0 0 4-1h4a170 170 0 0 0 22 1l6 1a38 38 0 0 0 8-1c5-1 9-3 10-7a10 10 0 0 0 2-6 11 11 0 0 0 3-9 11 11 0 0 0 0-3zm-69 20a2 2 0 0 1-3-2v-27a2 2 0 0 1 3-3h10a2 2 0 0 1 2 3v27a2 2 0 0 1-2 2h-10zm64-22a2 2 0 0 0 0 3 7 7 0 0 1 1 2c0 3-1 5-3 6a2 2 0 0 0-1 3 6 6 0 0 1-1 4c-1 2-3 4-7 4a45 45 0 0 1-12 1h-1a167 167 0 0 1-21-1l-2-1a7 7 0 0 0 0-1v-27a7 7 0 0 0 0-3 14 14 0 0 1 3-5c7-6 15-27 15-27a2 2 0 0 0 0-2v-4a6 6 0 0 1 5 2c2 2 2 6 0 12-3 9-3 13-1 15a4 4 0 0 0 4 1l3-1c5-1 14-2 18 1 2 3 0 6 0 7a2 2 0 0 0 1 2 6 6 0 0 1-1 9z" class="cls-8"/>
        <path d="M789 909a10 10 0 0 0 3-7 10 10 0 0 0-2-6 9 9 0 0 0-3-10c-2-2-7-4-13-3a53 53 0 0 0-8 1h-3l2-9c2-8 2-13 0-17a11 11 0 0 0-9-4 4 4 0 0 0-3 2c-2 2-2 6-2 8-2 6-8 20-13 24a2 2 0 0 0-1 0 18 18 0 0 0-3 5 7 7 0 0 0-3 0h-11a7 7 0 0 0-7 7v27a7 7 0 0 0 7 7h11a7 7 0 0 0 4-1h4a170 170 0 0 0 22 1l6 1a38 38 0 0 0 8-1c5-1 8-3 10-7a10 10 0 0 0 1-6 11 11 0 0 0 4-9 11 11 0 0 0-1-3zm-69 20a2 2 0 0 1-2-2v-27a2 2 0 0 1 2-3h11a2 2 0 0 1 2 3v27a2 2 0 0 1-2 2h-11zm65-22a2 2 0 0 0 0 3 7 7 0 0 1 0 2c1 3 0 5-3 6a2 2 0 0 0 0 3 6 6 0 0 1-1 4c-1 2-4 4-7 4a45 45 0 0 1-13 1 166 166 0 0 1-22-1l-1-1a7 7 0 0 0 0-1v-27a7 7 0 0 0-1-3 14 14 0 0 1 3-5c8-6 15-27 16-27a2 2 0 0 0 0-2v-4a6 6 0 0 1 5 2c2 2 1 6 0 12-3 9-3 13-1 15a4 4 0 0 0 3 1l3-1h1c5-1 14-2 17 1s1 6 1 7a2 2 0 0 0 0 2 6 6 0 0 1 2 4 6 6 0 0 1-2 5z" class="cls-8"/>
        <path d="M639 909a10 10 0 0 0 2-7 10 10 0 0 0-2-6 9 9 0 0 0-2-10c-3-2-7-4-14-3a53 53 0 0 0-8 1h-2c-1-1 0-3 2-9 2-8 2-13-1-17a11 11 0 0 0-8-4 4 4 0 0 0-4 2l-1 8c-2 6-8 20-14 24a18 18 0 0 0-3 5 7 7 0 0 0-4 0h-10a7 7 0 0 0-7 7v27a7 7 0 0 0 7 7h10a7 7 0 0 0 4-1h4a170 170 0 0 0 23 1l5 1a38 38 0 0 0 8-1c5-1 9-3 11-7a10 10 0 0 0 1-6 11 11 0 0 0 4-9 11 11 0 0 0-1-3zm-69 20a2 2 0 0 1-2-2v-27a2 2 0 0 1 2-3h10a2 2 0 0 1 3 3v27a2 2 0 0 1-3 2h-10zm65-22a2 2 0 0 0-1 3 7 7 0 0 1 1 2c0 3-1 5-3 6a2 2 0 0 0-1 3 6 6 0 0 1 0 4c-1 2-4 4-8 4a45 45 0 0 1-12 1 167 167 0 0 1-22-1l-2-1a7 7 0 0 0 0-1v-27a7 7 0 0 0 0-3 14 14 0 0 1 3-5c8-6 15-27 15-27a2 2 0 0 0 0-2l1-4a6 6 0 0 1 4 2c2 2 2 6 0 12-3 9-3 13-1 15a4 4 0 0 0 4 1l3-1c5-1 15-2 18 1s1 6 0 7a2 2 0 0 0 1 2 6 6 0 0 1 0 9z" class="cls-8"/>
        <path d="M489 909a10 10 0 0 0 2-7 10 10 0 0 0-2-6 9 9 0 0 0-2-10c-3-2-8-4-14-3a53 53 0 0 0-8 1h-3l2-9c3-8 2-13 0-17a11 11 0 0 0-9-4 4 4 0 0 0-3 2c-2 2-2 6-1 8-3 6-9 20-14 24a18 18 0 0 0-4 5 7 7 0 0 0-3 0h-10a7 7 0 0 0-7 7v27a7 7 0 0 0 7 7h10a7 7 0 0 0 4-1h4a170 170 0 0 0 22 1l6 1a38 38 0 0 0 8-1c5-1 9-3 10-7a10 10 0 0 0 1-6 11 11 0 0 0 4-9 11 11 0 0 0 0-3zm-69 20a2 2 0 0 1-3-2v-27a2 2 0 0 1 3-3h10a2 2 0 0 1 2 3v27a2 2 0 0 1-2 2h-10zm64-22a2 2 0 0 0 0 3 7 7 0 0 1 1 2c0 3-1 5-3 6a2 2 0 0 0-1 3 6 6 0 0 1-1 4c-1 2-3 4-7 4a45 45 0 0 1-12 1h-1a166 166 0 0 1-22-1l-1-1a7 7 0 0 0 0-1v-27a7 7 0 0 0 0-3 14 14 0 0 1 3-5c7-6 15-27 15-27a2 2 0 0 0 0-2v-4a6 6 0 0 1 5 2c2 2 2 6 0 12-3 9-3 13-1 15a4 4 0 0 0 4 1l3-1c5-1 14-2 18 1 2 3 0 6 0 7a2 2 0 0 0 0 2 6 6 0 0 1 0 9z" class="cls-8"/>
      </g>
    </g>
  </g>
</svg>
