<svg xmlns="http://www.w3.org/2000/svg" xmlns:xlink="http://www.w3.org/1999/xlink" viewBox="0 0 2340.79 1202.41"><defs><style>.cls-1{opacity:0.4;}.cls-2{fill:#e0e7f3;}.cls-3{opacity:0.5;}.cls-4{fill:url(#radial-gradient);}</style><radialGradient id="radial-gradient" cx="1584.32" cy="923.16" r="1288.58" gradientUnits="userSpaceOnUse"><stop offset="0" stop-color="#ecf0f7"/><stop offset="0.52" stop-color="#e0e7f3"/><stop offset="1" stop-color="#cfdaed"/></radialGradient></defs><title>technic__bg</title><g id="Layer_2" data-name="Layer 2"><g id="Background"><g class="cls-1"><path class="cls-2" d="M1862.49,40a438.43,438.43,0,0,1,170.59,842.18A438.43,438.43,0,0,1,1691.89,74.43,435.44,435.44,0,0,1,1862.49,40m0-40c-264.16,0-478.31,214.14-478.31,478.3s214.15,478.31,478.31,478.31,478.3-214.15,478.3-478.31S2126.65,0,1862.49,0Z"/></g><g class="cls-1"><path class="cls-2" d="M216.22,810A176.21,176.21,0,1,1,91.61,861.57,175.06,175.06,0,0,1,216.22,810m0-40C96.81,770,0,866.76,0,986.18s96.81,216.23,216.22,216.23,216.23-96.81,216.23-216.23S335.64,770,216.22,770Z"/></g><g class="cls-3"><path class="cls-4" d="M116.55,1141.63s224.06-175,500.33-175c323.9,0,719.56,113.55,910,113.58,334,.07,509.63-102.88,509.63-102.88V145.55s-217.58-84.7-456-22.66c-378.37,98.44-772,227.23-1074,135.74C275.24,188.55,116.18,36.38,116.18,36.38Z"/></g></g></g></svg>