<svg xmlns="http://www.w3.org/2000/svg" xmlns:xlink="http://www.w3.org/1999/xlink" viewBox="0 0 2555.69 865.34"><defs><style>.cls-1{opacity:0.5;}.cls-2{fill:#e0e7f3;}.cls-3{opacity:0.3;}.cls-4{fill:url(#radial-gradient);}</style><radialGradient id="radial-gradient" cx="1185.69" cy="335.54" r="905.11" gradientUnits="userSpaceOnUse"><stop offset="0" stop-color="#ecf0f7"/><stop offset="0.52" stop-color="#e0e7f3"/><stop offset="1" stop-color="#cfdaed"/></radialGradient></defs><title>variants__decor</title><g id="Layer_2" data-name="Layer 2"><g id="_6" data-name="6"><g class="cls-1"><path class="cls-2" d="M2182.74,159.42a331.82,331.82,0,1,1-129.59,26.15,330.91,330.91,0,0,1,129.59-26.15m0-40c-206,0-373,167-373,373s167,373,373,373,373-167,373-373-167-373-373-373Z"/></g><g class="cls-3"><path class="cls-2" d="M638.86,497.4A104.16,104.16,0,1,1,534.69,601.56,104.28,104.28,0,0,1,638.86,497.4m0-40A144.16,144.16,0,1,0,783,601.56,144.17,144.17,0,0,0,638.86,457.4Z"/></g><g class="cls-1"><path class="cls-2" d="M183.35,116.2A143.36,143.36,0,1,1,82,158.19a142.4,142.4,0,0,1,101.36-42m0-40A183.35,183.35,0,0,0,0,259.55C0,360.81,82.09,442.89,183.35,442.89A183.33,183.33,0,0,0,366.69,259.55c0-101.26-82.08-183.35-183.34-183.35Z"/></g><g class="cls-1"><path class="cls-4" d="M1185.69,139.57C477.82,139.57,225.69,0,225.69,0V531.5s252.13,139.57,960,139.57c837.05,0,960-139.57,960-139.57V0S2022.74,139.57,1185.69,139.57Z"/></g></g></g></svg>