<svg xmlns="http://www.w3.org/2000/svg" viewBox="0 0 2572.67 1265.89"><defs><style>.cls-1{opacity:0.5;}.cls-2{fill:#e9e9e9;}.cls-3{opacity:0.3;}</style></defs><title>wear__bg</title><g id="Layer_2" data-name="Layer 2"><g id="Background"><g class="cls-1"><path class="cls-2" d="M1732.58,289.5a51.82,51.82,0,1,1-51.82,51.82,51.88,51.88,0,0,1,51.82-51.82m0-40a91.82,91.82,0,1,0,91.82,91.82,91.82,91.82,0,0,0-91.82-91.82Z"/></g><g class="cls-1"><path class="cls-2" d="M2369.69,40a163,163,0,0,1,115.25,278.22A163,163,0,1,1,2254.45,87.74,161.88,161.88,0,0,1,2369.69,40m0-40c-112.1,0-203,90.88-203,203s90.88,203,203,203,203-90.88,203-203S2481.8,0,2369.69,0Z"/></g><g class="cls-1"><path class="cls-2" d="M841.2,59.09a51.95,51.95,0,1,1-52,51.94,52,52,0,0,1,52-51.94m0-40A91.95,91.95,0,1,0,933.14,111,91.94,91.94,0,0,0,841.2,19.09Z"/></g><g class="cls-3"><path class="cls-2" d="M412.35,192.25A371.12,371.12,0,1,1,267.43,221.5a369.91,369.91,0,0,1,144.92-29.25m0-40C184.61,152.25,0,336.87,0,564.6S184.61,977,412.35,977,824.7,792.34,824.7,564.6,640.08,152.25,412.35,152.25Z"/></g><g class="cls-1"><path class="cls-2" d="M2341.69,767.19a185.84,185.84,0,1,1-131.4,54.43,184.63,184.63,0,0,1,131.4-54.43m0-40C2217,727.19,2115.86,828.3,2115.86,953s101.11,225.84,225.83,225.84S2567.53,1077.75,2567.53,953s-101.11-225.83-225.84-225.83Z"/></g><g class="cls-3"><path class="cls-2" d="M637.61,577.89A322.91,322.91,0,1,1,511.5,603.34a321.85,321.85,0,0,1,126.11-25.45m0-40c-201,0-364,163-364,364s163,364,364,364,364-163,364-364-163-364-364-364Z"/></g></g></g></svg>