<svg xmlns="http://www.w3.org/2000/svg" xmlns:xlink="http://www.w3.org/1999/xlink" viewBox="0 0 2253.7 988.76"><defs><style>.cls-1{opacity:0.5;}.cls-2{fill:#e0e7f3;}.cls-3{fill:url(#radial-gradient);}</style><radialGradient id="radial-gradient" cx="1151.7" cy="358.94" r="1311.1" gradientUnits="userSpaceOnUse"><stop offset="0" stop-color="#ecf0f7"/><stop offset="0.52" stop-color="#e0e7f3"/><stop offset="1" stop-color="#cfdaed"/></radialGradient></defs><title>workflow_1__bg</title><g id="Layer_2" data-name="Layer 2"><g id="Background"><g class="cls-1"><path class="cls-2" d="M2087.13,581.29a126.55,126.55,0,1,1-89.49,37.06,125.76,125.76,0,0,1,89.49-37.06m0-40A166.56,166.56,0,1,0,2253.7,707.85a166.56,166.56,0,0,0-166.57-166.56Z"/></g><g class="cls-1"><path class="cls-2" d="M153.93,451a113.93,113.93,0,1,1-80.56,33.37A113.14,113.14,0,0,1,153.93,451m0-40A153.93,153.93,0,1,0,307.85,564.94,153.93,153.93,0,0,0,153.93,411Z"/></g><g class="cls-1"><path class="cls-3" d="M2111.7,715.22s-139.45,222.85-439.44,222.85c-318.56,0-599.12-197.61-956.28-197.61-471.56,0-524.28,248.3-524.28,248.3V99.11S290.83,0,457.32,0c221.69,0,627,281.21,1013,271.21,341.08-8.84,641.34-215.95,641.34-215.95Z"/></g></g></g></svg>